<?xml version="1.0" standalone="no"?>
<!DOCTYPE svg PUBLIC "-//W3C//DTD SVG 1.1//EN" "http://www.w3.org/Graphics/SVG/1.1/DTD/svg11.dtd" >
<svg xmlns="http://www.w3.org/2000/svg" xmlns:xlink="http://www.w3.org/1999/xlink" version="1.1">
<metadata>
Created by FontForge 20170731 at Thu Oct 21 11:35:26 2021
 By Aleksey,,,
Copyright (c) 2015 by Radomir Tinkov. All rights reserved.
</metadata>
<defs>
<font id="SVN-Gilroy-LightItalic" horiz-adv-x="564" >
  <font-face 
    font-family="SVN-Gilroy Light"
    font-weight="300"
    font-style="italic"
    font-stretch="normal"
    units-per-em="1000"
    panose-1="0 0 4 0 0 0 0 0 0 0"
    ascent="800"
    descent="-200"
    x-height="500"
    cap-height="700"
    bbox="-296 -240 1039 1055"
    underline-thickness="50"
    underline-position="-150"
    slope="-10"
    unicode-range="U+0020-FB02"
  />
<missing-glyph horiz-adv-x="500" 
d="M93 -200v1000h317v-1000h-317zM167 118v-113h166v113h-166zM237 -51l-70 -47v-33h166v33h-102l70 47h32v33h-166v-33h70zM167 178h166v113h-100v-56h34v23h33v-47h-100v80h-33v-113zM167 604v-104h166v34h-66v70h-100zM167 630h166v33h-66v37h66v33h-165v-33h65v-37h-66
v-33zM233 440v-37h-66v-33h100v70h66v33h-166v-33h66zM167 313h166v100h-33v-66h-133v-34zM200 38v47h100v-47h-100zM233 570v-36h-33v36h33z" />
    <glyph glyph-name="fi" unicode="fi" horiz-adv-x="510" 
d="M71 500h86l5 27q34 184 233 184q42 0 94 -11l-7 -46q-48 9 -96 9q-78 0 -118.5 -32t-54.5 -104l-5 -27h270l-88 -500h-51l79 451h-218l-80 -451h-51l80 451h-87z" />
    <glyph glyph-name="fl" unicode="fl" horiz-adv-x="510" 
d="M62 451l9 49h86l5 27q34 184 233 184q28 0 57 -3t61 -8l-123 -700h-51l116 661q-14 2 -31.5 3t-37.5 1q-78 0 -118.5 -33t-54.5 -105l-5 -27h119l-8 -49h-119l-80 -451h-51l80 451h-87z" />
    <glyph glyph-name="f_f" unicode="ff" horiz-adv-x="583" 
d="M62 451l9 49h86l5 27q17 91 69.5 138t140.5 47h11t12 -1l-9 -48q-5 1 -10.5 1h-10.5q-127 0 -152 -137l-5 -27h219l6 37q14 91 68 138t142 47h11t12 -1l-9 -48q-5 1 -11 1h-11q-129 0 -151 -137l-6 -37h149l-9 -49h-149l-79 -451h-51l79 451h-218l-80 -451h-51l80 451
h-87z" />
    <glyph glyph-name="f_f_i" unicode="ffi" horiz-adv-x="780" 
d="M71 500h86l5 27q17 91 69.5 138t140.5 47h11t12 -1l-9 -48q-5 1 -10.5 1h-10.5q-127 0 -152 -137l-5 -27h219l6 37q30 184 233 184q43 0 95 -11l-8 -46q-48 9 -96 9q-78 0 -119.5 -32t-53.5 -104l-6 -37h269l-88 -500h-50l79 451h-219l-79 -451h-51l79 451h-218l-80 -451
h-51l80 451h-87z" />
    <glyph glyph-name="f_f_l" unicode="ffl" horiz-adv-x="780" 
d="M62 451l9 49h86l5 27q17 91 69.5 138t140.5 47h11t12 -1l-9 -48q-5 1 -10.5 1h-10.5q-127 0 -152 -137l-5 -27h219l6 37q30 184 233 184q28 0 57 -3t61 -8l-125 -710h-50l118 671q-16 2 -33 3t-36 1q-78 0 -120 -33t-54 -105l-6 -37h119l-9 -49h-119l-79 -451h-51l79 451
h-218l-80 -451h-51l80 451h-87z" />
    <glyph glyph-name=".notdef" horiz-adv-x="500" 
d="M93 -200v1000h317v-1000h-317zM167 118v-113h166v113h-166zM237 -51l-70 -47v-33h166v33h-102l70 47h32v33h-166v-33h70zM167 178h166v113h-100v-56h34v23h33v-47h-100v80h-33v-113zM167 604v-104h166v34h-66v70h-100zM167 630h166v33h-66v37h66v33h-165v-33h65v-37h-66
v-33zM233 440v-37h-66v-33h100v70h66v33h-166v-33h66zM167 313h166v100h-33v-66h-133v-34zM200 38v47h100v-47h-100zM233 570v-36h-33v36h33z" />
    <glyph glyph-name=".null" horiz-adv-x="0" 
 />
    <glyph glyph-name="nonmarkingreturn" horiz-adv-x="333" 
 />
    <glyph glyph-name="space" unicode=" " horiz-adv-x="267" 
 />
    <glyph glyph-name="space" unicode="&#xa0;" horiz-adv-x="267" 
 />
    <glyph glyph-name="exclam" unicode="!" horiz-adv-x="220" 
d="M124 500l35 200h60l-35 -200l-66 -320h-40zM64 -10q-19 0 -29.5 13.5t-6.5 32.5q3 20 17.5 32t34.5 12q19 0 30 -13.5t7 -32.5q-4 -20 -18 -32t-35 -12z" />
    <glyph glyph-name="quotedbl" unicode="&#x22;" horiz-adv-x="293" 
d="M106 513l26 187h54l-40 -187h-40zM266 700h53l-39 -187h-40z" />
    <glyph glyph-name="numbersign" unicode="#" horiz-adv-x="603" 
d="M50 283h120l46 134h-121l16 46h121l64 187h50l-64 -187h154l64 187h50l-64 -187h118l-16 -46h-118l-46 -134h120l-16 -46h-120l-64 -187h-50l64 187h-154l-64 -187h-50l64 187h-119zM220 283h154l46 134h-154z" />
    <glyph glyph-name="dollar" unicode="$" horiz-adv-x="558" 
d="M222 -10q-78 7 -129.5 44.5t-69.5 100.5l48 24q13 -52 53.5 -83t106.5 -35l52 294q-40 16 -66 30.5t-54 38.5q-57 49 -39 138q8 40 29.5 71.5t51.5 53.5t67 33t77 11l16 89h47l-16 -93q115 -18 154 -123l-47 -24q-35 84 -116 97l-51 -287q31 -12 63.5 -28.5t57.5 -40.5
t38 -57.5t4 -80.5q-8 -40 -28 -71.5t-50 -53t-68.5 -34t-83.5 -15.5l-16 -89h-47zM278 41q69 5 113 39t55 89t-21 87.5t-98 60.5zM177 537q-6 -29 -0.5 -50.5t20.5 -38.5t39 -31.5t56 -27.5l48 271q-27 -1 -54 -9.5t-49.5 -24.5t-38 -38.5t-21.5 -50.5z" />
    <glyph glyph-name="percent" unicode="%" horiz-adv-x="716" 
d="M145 457q-37 44 -26 108q5 33 21.5 59.5t41 46t54.5 30t62 10.5q65 0 101 -45t26 -107q-6 -33 -22 -60t-40 -46t-54 -29.5t-63 -10.5q-63 0 -101 44zM353 33q-37 44 -26 108q10 63 61 104q51 42 118 42q65 0 101 -45t26 -107q-10 -63 -62 -105q-50 -41 -117 -41
q-63 0 -101 44zM376 138q-7 -45 17 -74t69 -29q22 0 42.5 8t37 21.5t27.5 32.5t15 41q8 45 -16.5 74t-69.5 29q-23 0 -43 -8t-36.5 -21.5t-27.5 -32.5t-15 -41zM168 562q-8 -44 16 -74q23 -29 70 -29q22 0 42.5 8t37 21.5t27.5 32.5t15 41q8 45 -17 73q-13 14 -29.5 22
t-39.5 8t-43 -8t-36.5 -21.5t-27.5 -32.5t-15 -41zM71 90l569 535l35 -20l-570 -535z" />
    <glyph glyph-name="ampersand" unicode="&#x26;" horiz-adv-x="660" 
d="M254 40q107 0 190 80l-182 231q-135 -53 -155 -161q-6 -35 1.5 -62.5t27 -47t49.5 -30t69 -10.5zM588 271q-28 -85 -79 -151l83 -106l-46 -23l-72 91q-95 -93 -224 -93q-103 0 -158 57t-38 149q22 129 177 198q-44 70 -32 143q7 40 26.5 72.5t48.5 55.5t65 35t77 12
q70 0 119.5 -35.5t70.5 -96.5l-46 -25q-16 49 -53.5 77.5t-91.5 28.5q-30 0 -57.5 -9t-49 -26t-36 -40.5t-19.5 -52.5q-13 -70 50 -150l175 -223q44 62 69 139z" />
    <glyph glyph-name="quotesingle" unicode="'" horiz-adv-x="157" 
d="M106 513l26 187h54l-40 -187h-40z" />
    <glyph glyph-name="parenleft" unicode="(" horiz-adv-x="251" 
d="M109 -100q-70 220 -30 455q40 233 189 445h50q-150 -220 -189.5 -450t30.5 -450h-50v0z" />
    <glyph glyph-name="parenright" unicode=")" horiz-adv-x="251" 
d="M-32 -100q150 220 189.5 450t-30.5 450h50q70 -220 30 -455q-40 -233 -189 -445h-50v0z" />
    <glyph glyph-name="asterisk" unicode="*" horiz-adv-x="387" 
d="M387 611l-7 -43l-95 2l39 -79l-41 -23l-34 84l-63 -84l-38 23l67 79l-95 -2l7 43l95 -2l-40 79l42 23l34 -83l63 83l37 -23l-66 -79z" />
    <glyph glyph-name="plus" unicode="+" horiz-adv-x="533" 
d="M77 326l8 48h179l32 179h49l-32 -179h179l-9 -48h-178l-32 -179h-49l32 179h-179z" />
    <glyph glyph-name="comma" unicode="," horiz-adv-x="223" 
d="M130 68l-91 -208h-46l74 208h63z" />
    <glyph glyph-name="hyphen" unicode="-" horiz-adv-x="533" 
d="M93 285l8 48h360l-8 -48h-360z" />
    <glyph glyph-name="period" unicode="." horiz-adv-x="213" 
d="M114 34q-5 -23 -19.5 -33.5t-36.5 -10.5q-20 0 -27.5 14t-5.5 31t14 31t33 14h4q19 0 30.5 -13.5t7.5 -32.5z" />
    <glyph glyph-name="slash" unicode="/" horiz-adv-x="527" 
d="M24 -100h-43l557 900h42z" />
    <glyph glyph-name="zero" unicode="0" horiz-adv-x="632" 
d="M96 90q-53 100 -24 266q11 66 35 129.5t63.5 113.5t95.5 81t131 31q120 0 173 -102q53 -103 25 -265q-11 -65 -35.5 -128.5t-64 -114t-95 -81.5t-130.5 -31q-121 0 -174 101zM125 350q-25 -148 15 -229t139 -81t168 81t95 229q25 148 -15 229t-139 81t-168 -81t-95 -229z
" />
    <glyph glyph-name="one" unicode="1" horiz-adv-x="332" 
d="M279 700h45l-123 -700h-53l113 640l-171 -50l-5 47z" />
    <glyph glyph-name="two" unicode="2" horiz-adv-x="527" 
d="M-1 0l9 48l303 264q133 115 148 198q6 35 -0.5 62.5t-24 47t-44 30t-59.5 10.5q-113 0 -184 -107l-42 28q42 64 103 97t130 33q84 0 138 -58q52 -57 36 -150q-11 -60 -53.5 -113t-114.5 -116l-258 -223h362l-9 -51h-440z" />
    <glyph glyph-name="three" unicode="3" horiz-adv-x="539" 
d="M215 -11q-76 0 -129.5 34.5t-69.5 98.5l45 25q29 -107 161 -107q38 0 72.5 11t62.5 31.5t47 50.5t26 69q14 74 -30 118t-121 44h-15l-18 36l218 250h-338l8 50h404l-9 -50l-208 -241q84 -11 130 -67q48 -58 33 -145q-8 -50 -33 -88.5t-61.5 -65t-81.5 -40.5t-93 -14z" />
    <glyph glyph-name="four" unicode="4" horiz-adv-x="567" 
d="M19 197l354 503h60l-353 -503h315l39 220h54l-39 -220h90l-9 -50h-90l-26 -147h-53l26 147h-377z" />
    <glyph glyph-name="five" unicode="5" horiz-adv-x="544" 
d="M71 155q10 -57 52.5 -86t108.5 -29q38 0 73 10.5t62.5 31.5t47 51t26.5 69q7 37 -1 67t-28 51t-51.5 32.5t-71.5 11.5h-187l82 336h370l-8 -50h-322l-57 -235h131q92 0 153 -61q59 -60 43 -157q-9 -50 -33.5 -89t-60.5 -65.5t-81 -40t-94 -13.5q-78 0 -132 37t-69 104z
" />
    <glyph glyph-name="six" unicode="6" horiz-adv-x="537" 
d="M66 56q-56 68 -37 168q18 93 78 150l280 326h65l-223 -259q34 9 74 9q101 0 156 -67q56 -68 38 -169q-9 -52 -34 -93.5t-61 -71t-82 -45t-98 -15.5q-101 0 -156 67zM82 219q-7 -39 -0.5 -72t26 -57t50.5 -37t73 -13q41 0 76.5 13t63.5 36.5t46.5 56.5t26.5 73
q15 81 -25 130t-125 49q-41 0 -76.5 -13t-63.5 -36t-46.5 -56.5t-25.5 -73.5z" />
    <glyph glyph-name="seven" unicode="7" horiz-adv-x="490" 
d="M102 700h424l-9 -50l-383 -650h-58l383 650h-365z" />
    <glyph glyph-name="eight" unicode="8" horiz-adv-x="551" 
d="M73 44q-57 55 -40 148q10 61 51 105t104 66q-42 25 -62.5 67.5t-11.5 96.5q8 45 30.5 79.5t54.5 57.5t72.5 35t84.5 12q83 0 138 -53q54 -53 38 -140q-21 -111 -130 -158q52 -25 78 -71.5t16 -106.5q-9 -47 -32 -82.5t-58 -60.5t-80 -37.5t-97 -12.5q-98 0 -156 55z
M86 187q-13 -69 29 -108t123 -39q82 0 137 39t67 108t-30.5 107.5t-121.5 38.5q-81 0 -136.5 -38.5t-67.5 -107.5zM167 522q-11 -63 27 -100t105 -37q69 0 118.5 37t61.5 100q11 66 -26.5 102t-104.5 36q-34 0 -64.5 -9.5t-54.5 -27t-40 -43t-22 -58.5z" />
    <glyph glyph-name="nine" unicode="9" horiz-adv-x="539" 
d="M112 317q-55 67 -37 170q9 52 34 93.5t61.5 70.5t82.5 44.5t98 15.5q100 0 156 -68t38 -169q-15 -85 -73 -143l-285 -331h-64l222 259q-36 -9 -76 -9q-102 0 -157 67zM128 481q-14 -81 26 -130t124 -49q41 0 77 13t64 36t47 56t26 74q7 39 0 72t-26.5 57t-50.5 37t-73 13
q-41 0 -77 -13t-64 -36t-47 -56.5t-26 -73.5z" />
    <glyph glyph-name="colon" unicode=":" horiz-adv-x="213" 
d="M132 410q-20 0 -27.5 14t-5.5 31t14 31t33 14h4q19 0 30.5 -13.5t7.5 -32.5q-4 -20 -18 -32t-35 -12h-3zM58 -10q-20 0 -27.5 14t-5.5 31t14 31t33 14h4q19 0 30.5 -13.5t7.5 -32.5q-4 -20 -18 -32t-35 -12h-3z" />
    <glyph glyph-name="semicolon" unicode=";" horiz-adv-x="230" 
d="M67 68h63l-91 -208h-46zM205 454q-5 -23 -19.5 -33.5t-36.5 -10.5q-20 0 -27.5 14t-5.5 31t14 31t33 14h4q19 0 30.5 -13.5t7.5 -32.5z" />
    <glyph glyph-name="less" unicode="&#x3c;" horiz-adv-x="527" 
d="M517 554l-11 -59l-367 -148l315 -148l-9 -53l-368 178l9 52z" />
    <glyph glyph-name="equal" unicode="=" horiz-adv-x="537" 
d="M95 426l8 48h410l-8 -48h-410zM59 226l9 48h410l-9 -48h-410z" />
    <glyph glyph-name="greater" unicode="&#x3e;" horiz-adv-x="527" 
d="M117 554l368 -178l-9 -52l-431 -178l11 59l367 148l-315 148z" />
    <glyph glyph-name="question" unicode="?" horiz-adv-x="529" 
d="M111 579q33 64 96 98t135 34q83 0 136 -50q52 -49 37 -134q-8 -42 -34 -79t-60 -66q-24 -21 -49.5 -42.5t-48.5 -46t-39.5 -52.5t-22.5 -61h-54q9 49 36 91t60 71q25 22 50.5 43.5t48 44.5t38.5 47.5t22 53.5q10 63 -24.5 96t-104.5 33q-57 0 -104.5 -28t-72.5 -79z
M254 34q-5 -23 -19.5 -33.5t-36.5 -10.5q-20 0 -27.5 14t-5.5 31t14 31t33 14h4q19 0 30.5 -13.5t7.5 -32.5z" />
    <glyph glyph-name="at" unicode="@" horiz-adv-x="808" 
d="M111 -6q-91 106 -63 263q14 76 53.5 141.5t96.5 112.5t128 74t149 27q102 0 176 -53t101 -131t12 -163q-19 -106 -67 -155t-108 -49q-40 0 -64.5 23.5t-25.5 65.5q-53 -60 -131 -60q-67 0 -107 48q-39 46 -27 115q6 35 23.5 64t43 49.5t57 32t66.5 11.5q74 0 107 -63
l10 56h48l-39 -223q-16 -91 50 -91q48 0 84.5 45t52.5 136q24 134 -53 226q-76 91 -213 91q-72 0 -138.5 -25.5t-119.5 -70.5t-89.5 -106t-48.5 -132q-26 -146 58 -243t237 -97q102 0 176 28l-2 -26q-80 -27 -179 -27q-163 0 -254 106zM282 250q-9 -51 18.5 -82.5
t78.5 -31.5q24 0 46.5 8.5t40.5 23.5t30.5 36t17.5 46q9 51 -18.5 82.5t-76.5 31.5q-51 0 -89.5 -31.5t-47.5 -82.5z" />
    <glyph glyph-name="A" unicode="A" horiz-adv-x="629" 
d="M366 700h56l148 -700h-54l-36 178h-351l-100 -178h-58zM469 228l-83 407l-229 -407h312z" />
    <glyph glyph-name="B" unicode="B" horiz-adv-x="623" 
d="M166 700h265q80 0 128 -56q49 -56 37 -132q-8 -49 -39 -89t-77 -62q49 -21 73.5 -67.5t15.5 -106.5q-12 -77 -75 -133q-61 -54 -151 -54h-300zM105 50h243q31 0 59 10.5t50.5 29.5t38 45t20.5 56q11 59 -23 100q-33 41 -90 41h-249zM163 382h226q28 0 54 11t46.5 29
t34.5 42.5t19 51.5q10 55 -23 95q-33 39 -91 39h-219z" />
    <glyph glyph-name="C" unicode="C" horiz-adv-x="751" 
d="M123 97q-85 108 -58 260q13 75 50.5 139.5t92.5 112.5t124 75t146 27q100 0 173.5 -45.5t109.5 -123.5l-47 -25q-68 143 -237 143q-67 0 -127.5 -24t-108.5 -65.5t-80.5 -98t-43.5 -122.5q-22 -130 49 -221q71 -89 204 -89q85 0 159.5 39.5t122.5 109.5l45 -28
q-28 -39 -65 -71t-79.5 -54.5t-90 -34.5t-97.5 -12q-157 0 -242 108z" />
    <glyph glyph-name="D" unicode="D" horiz-adv-x="728" 
d="M43 0l123 700h263q139 0 217 -106t52 -252q-13 -73 -47.5 -135.5t-86 -108.5t-117.5 -72t-141 -26h-263zM315 50q64 0 119.5 24t99 65t72.5 95.5t40 115.5q22 124 -42 213q-63 87 -183 87h-211l-105 -600h210z" />
    <glyph glyph-name="E" unicode="E" horiz-adv-x="533" 
d="M556 650h-346l-48 -272h321l-9 -50h-320l-49 -278h350l-9 -50h-403l123 700h398z" />
    <glyph glyph-name="F" unicode="F" horiz-adv-x="518" 
d="M545 650h-335l-49 -280h323l-9 -50h-323l-56 -320h-53l123 700h388z" />
    <glyph glyph-name="G" unicode="G" horiz-adv-x="800" 
d="M127 98q-88 109 -61 264q13 75 50.5 139t93 110.5t125 73t146.5 26.5q102 0 173.5 -45.5t110.5 -123.5l-47 -25q-72 143 -239 143q-67 0 -127.5 -23t-108.5 -64t-81 -97t-44 -122q-22 -131 50 -223q72 -91 213 -91q56 0 108 16t94.5 46.5t74 74.5t46.5 99h-297l9 50h351
l-5 -26q-14 -71 -48.5 -128t-85.5 -98t-114.5 -63t-134.5 -22q-164 0 -252 109z" />
    <glyph glyph-name="H" unicode="H" horiz-adv-x="687" 
d="M166 700h53l-55 -315h407l55 315h53l-123 -700h-53l59 335h-407l-59 -335h-53z" />
    <glyph glyph-name="I" unicode="I" horiz-adv-x="227" 
d="M166 700h53l-123 -700h-53z" />
    <glyph glyph-name="J" unicode="J" horiz-adv-x="553" 
d="M214 -11q-75 0 -126 30t-69 90l47 26q27 -95 151 -95q76 0 129.5 39.5t66.5 112.5l89 508h53l-89 -509q-9 -49 -31 -86.5t-55 -63t-75.5 -39t-90.5 -13.5z" />
    <glyph glyph-name="K" unicode="K" horiz-adv-x="571" 
d="M166 700h53l-57 -326l398 326h72l-415 -345l300 -355h-64l-296 349l-61 -349h-53z" />
    <glyph glyph-name="L" unicode="L" horiz-adv-x="493" 
d="M105 50h330l-9 -50h-383l123 700h53z" />
    <glyph glyph-name="M" unicode="M" horiz-adv-x="807" 
d="M43 0l123 700h63l178 -417l324 417h68l-123 -700h-53l108 617l-331 -425h-9l-185 434l-110 -626h-53z" />
    <glyph glyph-name="N" unicode="N" horiz-adv-x="687" 
d="M166 700h42l312 -602l106 602h53l-123 -700h-43l-311 602l-106 -602h-53z" />
    <glyph glyph-name="O" unicode="O" horiz-adv-x="819" 
d="M127 98q-88 108 -62 260q13 76 51.5 140.5t95.5 111.5t127.5 74t147.5 27q149 0 238 -111q88 -110 63 -261q-13 -76 -52 -140t-96 -110.5t-128 -73t-147 -26.5q-150 0 -238 109zM119 350q-23 -131 50 -220q73 -90 205 -90q66 0 126.5 23.5t108.5 64.5t81 97.5t44 121.5
q22 130 -51 221q-74 92 -205 92q-67 0 -127.5 -24t-108 -66t-80 -98.5t-43.5 -121.5z" />
    <glyph glyph-name="P" unicode="P" horiz-adv-x="586" 
d="M43 0l123 700h233q98 0 149 -62q52 -63 36 -155q-9 -51 -33.5 -91t-60 -68t-80.5 -42.5t-96 -14.5h-171l-47 -267h-53zM152 317h168q40 0 75.5 12t64 34.5t47.5 54.5t25 72q6 36 -1.5 65.5t-25.5 50.5t-46 32.5t-64 11.5h-185z" />
    <glyph glyph-name="Q" unicode="Q" horiz-adv-x="824" 
d="M127 98q-88 108 -62 260q13 76 51.5 140.5t95.5 111.5t127.5 74t147.5 27q149 0 238 -111q88 -110 63 -261q-28 -154 -154 -255l63 -75l-38 -33l-66 79q-105 -66 -228 -66q-150 0 -238 109zM119 350q-23 -131 50 -220q73 -90 205 -90q98 0 187 53l-130 155l38 33
l133 -158q106 87 132 224q22 130 -51 221q-74 92 -205 92q-67 0 -127.5 -24t-108 -66t-80 -98.5t-43.5 -121.5z" />
    <glyph glyph-name="R" unicode="R" horiz-adv-x="613" 
d="M166 700h276q83 0 134 -65q52 -66 36 -149q-6 -36 -22.5 -67t-41 -56.5t-56 -43t-67.5 -26.5l121 -293h-55l-118 287h-227l-50 -287h-53zM379 337q33 0 63.5 12.5t55 33.5t41 49.5t22.5 60.5q12 64 -26 111q-37 46 -101 46h-224l-55 -313h224z" />
    <glyph glyph-name="S" unicode="S" horiz-adv-x="573" 
d="M70 178q12 -64 61 -101t131 -37q81 0 134 34t64 94q7 35 -2.5 61t-38.5 45q-29 18 -57.5 31.5t-60.5 25.5q-17 6 -30.5 11.5t-26.5 10.5t-25.5 11.5t-27.5 15.5q-42 25 -61 63.5t-11 98.5q9 42 31 73.5t53 53t69 32t79 10.5q85 0 138 -40t73 -106l-47 -24
q-38 119 -167 119q-32 0 -61 -8.5t-52.5 -24.5t-39.5 -39t-22 -51q-8 -35 2 -61t38 -46q14 -11 27.5 -18t24.5 -12t27.5 -11.5t38.5 -14.5q18 -7 32 -12t25 -10q24 -10 53.5 -28.5t45.5 -38.5t24.5 -52.5t1.5 -70.5q-9 -42 -31 -74.5t-55 -54t-75.5 -33t-91.5 -11.5
q-96 0 -158 43.5t-79 121.5z" />
    <glyph glyph-name="T" unicode="T" horiz-adv-x="540" 
d="M102 700h494l-9 -50h-220l-114 -650h-54l114 650h-219z" />
    <glyph glyph-name="U" unicode="U" horiz-adv-x="667" 
d="M117 57q-62 70 -43 177l82 466h53l-82 -466q-15 -87 28.5 -140.5t139.5 -53.5q93 0 157.5 50.5t81.5 143.5l82 466h53l-82 -466q-10 -56 -35 -101.5t-63 -77.5t-87 -49t-106 -17q-117 0 -179 68z" />
    <glyph glyph-name="V" unicode="V" horiz-adv-x="605" 
d="M146 700l121 -633l344 633h59l-384 -700h-56l-138 700h54z" />
    <glyph glyph-name="W" unicode="W" horiz-adv-x="993" 
d="M112 700h53l71 -631l306 631h63l85 -631l293 631h56l-326 -700h-64l-85 631l-308 -631h-64z" />
    <glyph glyph-name="X" unicode="X" horiz-adv-x="573" 
d="M-21 0l298 363l-162 337h55l141 -295l242 295h63l-281 -343l171 -357h-55l-151 315l-258 -315h-63z" />
    <glyph glyph-name="Y" unicode="Y" horiz-adv-x="570" 
d="M147 700l156 -324l270 324h63l-311 -373l-58 -327h-53l58 329l-180 371h55z" />
    <glyph glyph-name="Z" unicode="Z" horiz-adv-x="523" 
d="M559 700l-8 -50l-482 -600h386l-9 -50h-447l9 50l482 600h-366l8 50h427z" />
    <glyph glyph-name="bracketleft" unicode="[" horiz-adv-x="277" 
d="M345 751h-143l-141 -802h143l-9 -49h-194l159 900h194z" />
    <glyph glyph-name="backslash" unicode="\" horiz-adv-x="527" 
d="M382 -100l-242 900h40l241 -900h-39z" />
    <glyph glyph-name="bracketright" unicode="]" horiz-adv-x="277" 
d="M310 800l-159 -900h-193l9 49h143l141 802h-142l8 49h193z" />
    <glyph glyph-name="asciicircum" unicode="^" horiz-adv-x="502" 
d="M304 700h50l124 -300h-55l-99 243l-185 -243h-63z" />
    <glyph glyph-name="underscore" unicode="_" horiz-adv-x="507" 
d="M-28 -133l9 48h426l-8 -48h-427z" />
    <glyph glyph-name="grave" unicode="`" horiz-adv-x="181" 
d="M169 570l-70 127h60l58 -127h-48z" />
    <glyph glyph-name="a" unicode="a" horiz-adv-x="646" 
d="M91 70q-65 82 -46 191q10 54 35.5 100t63 79t86 52t104.5 19q72 0 127.5 -36.5t79.5 -100.5l22 126h50l-88 -500h-50l18 102q-84 -113 -231 -113q-107 0 -171 81zM96 257q-17 -90 36 -155t142 -65q91 0 159 58q69 59 84 148q17 98 -38 158q-56 62 -142 62
q-46 0 -86.5 -15.5t-72 -43t-53 -65t-29.5 -82.5z" />
    <glyph glyph-name="b" unicode="b" horiz-adv-x="645" 
d="M33 0l123 700h50l-54 -306q40 55 100.5 86t132.5 31q106 0 170 -79q65 -79 46 -188q-10 -56 -37 -102.5t-66.5 -80.5t-90 -53t-107.5 -19q-69 0 -121 36.5t-74 99.5l-22 -125h-50zM128 253q-17 -89 36 -153q52 -63 141 -63q46 0 87 16.5t73.5 45.5t54.5 67.5t30 83.5
q17 89 -36 151t-141 62q-46 0 -87 -16t-73 -44.5t-54.5 -67t-30.5 -82.5z" />
    <glyph glyph-name="c" unicode="c" horiz-adv-x="562" 
d="M87 68q-61 79 -42 190q10 56 37.5 102.5t68 80t91 52t107.5 18.5q72 0 126.5 -34.5t74.5 -92.5l-43 -23q-17 48 -58.5 75t-104.5 27q-47 0 -88 -16t-74 -44t-55.5 -66.5t-30.5 -83.5q-16 -91 33 -154q50 -62 140 -62q60 0 112.5 28.5t83.5 76.5l40 -27
q-38 -60 -102.5 -93t-142.5 -33q-110 0 -173 79z" />
    <glyph glyph-name="d" unicode="d" horiz-adv-x="646" 
d="M91 70q-65 82 -46 191q10 54 35.5 100t63 79t86 52t104.5 19q72 0 127.5 -36t79.5 -100l57 325h50l-123 -700h-50l18 102q-84 -113 -231 -113q-107 0 -171 81zM96 257q-17 -90 36 -155t142 -65q91 0 158 58q69 58 85 148q18 96 -38 158t-142 62q-46 0 -86.5 -15.5
t-72 -43t-53 -65t-29.5 -82.5z" />
    <glyph glyph-name="e" unicode="e" horiz-adv-x="588" 
d="M86 65q-62 77 -41 192q10 55 36.5 101.5t66 80.5t89 53t105.5 19q112 0 169 -78t37 -185q-3 -17 -6 -24h-451q-3 -42 8 -76.5t34.5 -59t57.5 -38t77 -13.5q124 0 190 92l39 -26q-36 -54 -100 -84t-136 -30q-114 0 -175 76zM338 463q-44 0 -82.5 -14t-70 -39t-53.5 -60
t-33 -77h401q9 90 -36 140t-126 50z" />
    <glyph glyph-name="f" unicode="f" horiz-adv-x="314" 
d="M62 451l9 49h86l5 27q17 91 69.5 138t140.5 47h11t12 -1l-9 -48q-5 1 -10.5 1h-10.5q-127 0 -152 -137l-5 -27h149l-8 -49h-149l-80 -451h-51l80 451h-87z" />
    <glyph glyph-name="g" unicode="g" horiz-adv-x="650" 
d="M246 -211q-81 0 -138 32.5t-80 87.5l45 23q16 -42 59.5 -68.5t115.5 -26.5q97 0 157.5 48.5t76.5 138.5l14 78q-40 -54 -97.5 -83.5t-126.5 -29.5q-114 0 -178 79q-63 78 -45 193q9 53 34 99t63 79.5t86.5 52.5t103.5 19q72 0 128 -36t80 -100l22 125h51l-84 -476
q-20 -112 -96.5 -173.5t-190.5 -61.5zM99 257q-14 -93 37 -157q50 -63 144 -63q43 0 82 14.5t70 40t53.5 60.5t32.5 76l6 32q9 90 -47 146q-57 57 -138 57q-86 0 -156 -57t-84 -149z" />
    <glyph glyph-name="h" unicode="h" 
d="M33 0l123 700h50l-50 -287q71 98 192 98q45 0 78.5 -14t55 -40.5t29 -63.5t0.5 -82l-55 -311h-51l55 311q12 70 -18.5 111t-102.5 41q-39 0 -73 -13t-61.5 -38t-46.5 -62.5t-28 -85.5v1l-47 -265h-50z" />
    <glyph glyph-name="i" unicode="i" horiz-adv-x="204" 
d="M33 0l88 500h50l-88 -500h-50zM160 578q-17 0 -25.5 11t-5.5 28q3 15 15 26.5t30 11.5q15 0 25 -11.5t7 -26.5q-3 -17 -16 -28t-30 -11z" />
    <glyph glyph-name="j" unicode="j" horiz-adv-x="223" 
d="M-93 -163q5 -1 10 -1h10q96 0 115 107l98 557h50l-98 -557q-25 -155 -165 -155h-13.5t-14.5 1zM181 578q-17 0 -25.5 11t-5.5 28q3 15 15 26.5t30 11.5q15 0 25 -11.5t7 -26.5q-3 -17 -16 -28t-30 -11z" />
    <glyph glyph-name="k" unicode="k" horiz-adv-x="483" 
d="M156 700h50l-75 -424l293 224h71l-313 -241l234 -259h-62l-227 251l-44 -251h-50z" />
    <glyph glyph-name="l" unicode="l" horiz-adv-x="205" 
d="M34 0l53 306l75 424h50l-128 -730h-50z" />
    <glyph glyph-name="m" unicode="m" horiz-adv-x="857" 
d="M33 0l88 500h50l-14 -77q67 88 174 88q54 0 91 -25.5t49 -76.5q35 51 84.5 76.5t101.5 25.5q77 0 120 -52q44 -52 28 -142l-56 -317h-50l55 317q12 70 -17 108t-90 38q-63 0 -111 -40.5t-67 -124.5l-53 -298h-50l55 317q13 70 -14.5 108t-87.5 38q-33 0 -63 -11.5
t-55 -34.5t-42.5 -57t-25.5 -79l-50 -281h-50z" />
    <glyph glyph-name="n" unicode="n" 
d="M121 500h50l-15 -87q71 98 192 98q45 0 78.5 -14t55 -40.5t29 -63.5t0.5 -82l-55 -311h-51l55 311q12 70 -18.5 111t-102.5 41q-39 0 -73 -13t-61.5 -38t-46.5 -62.5t-28 -85.5v1l-47 -265h-50z" />
    <glyph glyph-name="o" unicode="o" horiz-adv-x="612" 
d="M91 63q-67 73 -47 192q9 56 37.5 103t70 81t93.5 53t108 19q105 0 170 -75q65 -74 45 -190q-9 -56 -36.5 -103.5t-68 -81.5t-91.5 -53t-108 -19q-105 0 -173 74zM95 250q-17 -97 35 -155t139 -58q47 0 89 16.5t75 45.5t55 68t30 85q16 94 -36 153q-52 58 -138 58
q-47 -1 -88.5 -17t-74.5 -44t-55.5 -67t-30.5 -85z" />
    <glyph glyph-name="p" unicode="p" horiz-adv-x="646" 
d="M-2 -200l123 700h50l-18 -102q86 113 231 113q106 0 171 -81q65 -82 46 -191q-10 -54 -35 -100t-63 -79.5t-86.5 -52t-104.5 -18.5q-72 0 -127.5 36.5t-79.5 100.5l-57 -326h-50zM129 257q-17 -98 37 -159t143 -61q46 0 86.5 15.5t72.5 42.5t53 65t29 83q15 92 -36 155
q-53 65 -142 65q-46 0 -86.5 -15.5t-73 -42.5t-54 -65t-29.5 -83z" />
    <glyph glyph-name="q" unicode="q" horiz-adv-x="646" 
d="M91 70q-65 82 -46 191q10 54 35.5 100t63 79t86 52t104.5 19q72 0 127.5 -36.5t79.5 -100.5l22 126h50l-123 -700h-50l53 302q-84 -113 -231 -113q-107 0 -171 81zM96 257q-17 -90 36 -155t142 -65q45 0 86 15.5t73.5 42.5t54 64.5t29.5 82.5q17 98 -38 159
q-56 62 -142 62q-85 0 -155 -56t-86 -150z" />
    <glyph glyph-name="r" unicode="r" horiz-adv-x="318" 
d="M33 0l88 500h50l-15 -85q35 51 79.5 71.5t104.5 20.5l-9 -48q-72 0 -127 -46q-56 -47 -72 -135l-49 -278h-50z" />
    <glyph glyph-name="s" unicode="s" horiz-adv-x="472" 
d="M71 126q11 -42 46.5 -65.5t90.5 -23.5t93.5 23.5t46.5 65.5q7 37 -20.5 60.5t-70.5 36.5q-30 9 -63 20t-59 28t-40 43.5t-6 66.5q6 33 23.5 57t42.5 40.5t55 24.5t61 8q60 0 102.5 -26t61.5 -74l-44 -23q-12 37 -46 56t-76 19q-23 0 -44.5 -5.5t-39 -17t-29.5 -28
t-16 -38.5q-7 -36 20.5 -59t69.5 -36q31 -9 63.5 -19.5t58 -28.5t39.5 -45t7 -68q-11 -60 -63 -94.5t-131 -34.5q-142 0 -178 114z" />
    <glyph glyph-name="t" unicode="t" horiz-adv-x="377" 
d="M59 451l9 49h110l22 125l53 15l-25 -140h150l-9 -49h-149l-58 -325q-10 -61 20 -75q21 -9 62 -9q23 0 53 3l-7 -45q-36 -6 -64 -6q-68 0 -97.5 32t-16.5 100l57 325h-110z" />
    <glyph glyph-name="u" unicode="u" 
d="M216 -11q-45 0 -78.5 14t-55 40.5t-29.5 63.5t0 82l55 311h51l-55 -311q-12 -70 18.5 -111t102.5 -41q39 0 73 13t61.5 38t46.5 62.5t28 85.5v-1l47 265h50l-88 -500h-50l15 87q-71 -98 -192 -98z" />
    <glyph glyph-name="v" unicode="v" horiz-adv-x="477" 
d="M57 500h52l92 -446l250 446h57l-283 -500h-61z" />
    <glyph glyph-name="w" unicode="w" horiz-adv-x="770" 
d="M127 500l57 -436l217 436h52l-1 -2l64 -434l210 436h55l-246 -500h-55l-64 426l-214 -426h-55l-70 500h50z" />
    <glyph glyph-name="x" unicode="x" horiz-adv-x="507" 
d="M-21 0l246 261l-146 239h57l123 -203l191 203h65l-230 -245l154 -255h-56l-133 218l-205 -218h-66z" />
    <glyph glyph-name="y" unicode="y" horiz-adv-x="510" 
d="M12 -153q3 0 6 -0.5t6 -0.5q84 0 155 118l17 28l-139 508h51l121 -450l255 450h57l-312 -546q-42 -74 -96.5 -114.5t-114.5 -40.5q-4 0 -7 0.5t-7 0.5z" />
    <glyph glyph-name="z" unicode="z" horiz-adv-x="463" 
d="M461 500l-6 -33l-371 -418h307l-8 -49h-380l6 33l370 418h-287l9 49h360z" />
    <glyph glyph-name="braceleft" unicode="{" horiz-adv-x="349" 
d="M158 227q11 58 -11 79t-80 21l9 48q28 0 49.5 5t36.5 16.5t25 30.5t15 48l33 187q26 149 164 149h14.5t14.5 -1l-9 -49q-7 1 -13.5 1.5t-13.5 0.5q-46 0 -72 -24t-34 -77l-33 -187q-11 -58 -35.5 -88t-66.5 -40q76 -19 58 -120l-33 -187q-10 -54 8 -77.5t65 -23.5h12
t13 1l-8 -48q-6 -1 -12 -1h-11q-70 0 -100.5 38t-16.5 111l32 187v0z" />
    <glyph glyph-name="bar" unicode="|" horiz-adv-x="224" 
d="M8 -200l162 920h50l-162 -920h-50z" />
    <glyph glyph-name="braceright" unicode="}" horiz-adv-x="350" 
d="M150 40q-26 -149 -164 -149h-14.5t-14.5 1l9 49q7 -1 13.5 -1.5t13.5 -0.5q46 0 72 24t34 77l33 187q11 58 35.5 88t66.5 40q-76 19 -58 120l33 187q10 54 -8 77.5t-65 23.5h-12t-13 -1l8 48q6 1 12 1h11q70 0 100.5 -38t16.5 -111l-32 -187q-11 -58 11 -79t80 -21
l-9 -48q-57 0 -86.5 -21t-39.5 -79l-33 -187v0z" />
    <glyph glyph-name="asciitilde" unicode="~" horiz-adv-x="587" 
d="M74 311q18 43 53 74t84 31q26 0 54.5 -10.5t60.5 -34.5q49 -36 89 -36q57 0 91 76l42 -22q-19 -44 -53 -74.5t-82 -30.5q-26 0 -54.5 10.5t-61.5 34.5q-50 37 -90 37q-57 0 -90 -77l-43 22v0z" />
    <glyph glyph-name="exclamdown" unicode="&#xa1;" horiz-adv-x="220" 
d="M1 -200l35 200l66 320h40l-46 -320l-35 -200h-60zM140 420q-19 0 -30 13.5t-7 32.5q4 20 18 32t35 12q19 0 29.5 -13.5t6.5 -32.5q-3 -20 -17.5 -32t-34.5 -12z" />
    <glyph glyph-name="cent" unicode="&#xa2;" horiz-adv-x="563" 
d="M173 113q-32 16 -55.5 41.5t-38 57t-19 69t2.5 77.5q10 56 37.5 102.5t68 80t91 52t107.5 18.5q13 0 26 -1.5t27 -3.5l47 94h43l-53 -105q84 -33 111 -111l-43 -23q-24 66 -90 90l-203 -407q22 -7 55 -7q60 0 112.5 28.5t83.5 76.5l40 -27q-38 -60 -102.5 -93t-142.5 -33
q-39 0 -69 10l-49 -99h-43zM114 353q-11 -64 11 -116.5t71 -78.5l201 402q-17 3 -35 3q-46 0 -87.5 -16t-74.5 -44t-55.5 -66.5t-30.5 -83.5z" />
    <glyph glyph-name="sterling" unicode="&#xa3;" horiz-adv-x="590" 
d="M-1 0l9 51h100l43 242h-80l8 47h80l30 170q17 97 76 149t147 52q64 0 110.5 -34.5t66.5 -95.5l-44 -24q-37 103 -138 103q-64 0 -108.5 -39t-56.5 -111l-30 -170h241l-9 -47h-240l-43 -242h377l-9 -51h-530z" />
    <glyph glyph-name="currency" unicode="&#xa4;" horiz-adv-x="553" 
d="M109 214q-40 61 -27 139t73 136l-57 69l30 25l57 -69q68 47 146 47q76 0 126 -49l83 71l24 -26l-84 -72q40 -60 27 -138q-14 -77 -73 -135l57 -70l-31 -25l-57 69q-67 -47 -146 -47q-74 0 -125 48l-83 -70l-24 26zM133 350q-13 -67 26 -116q39 -47 107 -47
q35 0 66.5 12.5t57 34.5t43 52t23.5 64q12 68 -27 115q-40 48 -106 48q-69 0 -124 -48q-56 -48 -66 -115z" />
    <glyph glyph-name="yen" unicode="&#xa5;" horiz-adv-x="570" 
d="M61 178l8 44h184l13 77h-183l7 45h174l-172 356h55l156 -324l270 324h63l-297 -356h175l-8 -45h-186l-14 -77h186l-7 -44h-186l-32 -178h-53l31 178h-184z" />
    <glyph glyph-name="brokenbar" unicode="&#xa6;" horiz-adv-x="224" 
d="M105 350l65 370h50l-65 -370h-50zM8 -200l65 370h50l-65 -370h-50z" />
    <glyph glyph-name="section" unicode="&#xa7;" horiz-adv-x="511" 
d="M70 43q25 -106 149 -106q55 0 93.5 24t46.5 70q9 48 -29.5 79.5t-113.5 64.5q-71 31 -107.5 70.5t-25.5 101.5q13 73 94 119q-39 44 -28 106q5 31 21 56.5t41 44t57 28.5t70 10q60 0 104 -30t63 -87l-44 -23q-33 92 -129 92q-51 0 -88 -25t-45 -70q-3 -21 3.5 -40
t16.5 -30q5 -6 14 -13t19.5 -14t20.5 -12.5t18 -9.5l46 -23q36 -17 63 -34.5t44 -38t23.5 -45.5t0.5 -56q-14 -74 -89 -117q40 -46 30 -109q-11 -63 -63 -100.5t-133 -37.5q-73 0 -121 33.5t-68 96.5zM134 343q-7 -44 21.5 -72t87.5 -53q66 -28 102 -53q62 34 73 92
q4 22 -1 39.5t-19 32t-36.5 27.5t-52.5 27q-64 28 -99 53q-65 -34 -76 -93z" />
    <glyph glyph-name="dieresis" unicode="&#xa8;" horiz-adv-x="293" 
d="M295 577q-15 0 -24 10.5t-6 25.5q2 18 15.5 27t27.5 9t24 -9t6 -27q-3 -15 -15.5 -25.5t-27.5 -10.5zM115 577q-15 0 -24 10.5t-6 25.5q2 18 15.5 27t27.5 9t24 -9t6 -27q-3 -15 -15.5 -25.5t-27.5 -10.5z" />
    <glyph glyph-name="copyright" unicode="&#xa9;" horiz-adv-x="818" 
d="M126 97q-88 107 -61 258q13 76 52.5 141t96.5 113t128 75t148 27q147 0 236 -108q88 -107 62 -258q-13 -75 -52.5 -140t-97 -113t-128.5 -75.5t-147 -27.5q-149 0 -237 108zM92 350q-25 -139 55 -239q79 -98 220 -98q72 0 137.5 26.5t118.5 72t89 107t49 131.5
q26 140 -56 238q-82 99 -219 99q-71 0 -137 -26.5t-119 -72.5t-89.5 -107.5t-48.5 -130.5zM269 216q-47 59 -33 139q7 41 27 75.5t49.5 59t67 38.5t79.5 14q51 0 91.5 -25.5t60.5 -68.5l-43 -21q-36 68 -117 68q-32 0 -59.5 -11.5t-49 -31t-36 -46t-20.5 -56.5
q-11 -59 21 -102q31 -43 94 -43q40 0 76.5 19t59.5 53l40 -26q-31 -43 -79 -68t-102 -25q-81 0 -127 58z" />
    <glyph glyph-name="guillemotleft" unicode="&#xab;" horiz-adv-x="473" 
d="M231 309l137 173h66l-140 -177l75 -169h-62zM228 482h66l-141 -177l75 -169h-61l-77 173z" />
    <glyph glyph-name="logicalnot" unicode="&#xac;" horiz-adv-x="520" 
d="M480 382l-30 -173h-51l22 124h-343l8 49h394z" />
    <glyph glyph-name="registered" unicode="&#xae;" horiz-adv-x="818" 
d="M126 97q-88 107 -61 258q13 76 52.5 141t96.5 113t128 75t148 27q147 0 236 -108q88 -107 62 -258q-13 -75 -52.5 -140t-97 -113t-128.5 -75.5t-147 -27.5q-149 0 -237 108zM92 350q-25 -139 55 -239q79 -98 220 -98q72 0 137.5 26.5t118.5 72t89 107t49 131.5
q26 140 -56 238q-82 99 -219 99q-71 0 -137 -26.5t-119 -72.5t-89.5 -107.5t-48.5 -130.5zM287 165l65 370h113q32 0 55.5 -9.5t37.5 -26t19.5 -38t1.5 -45.5q-15 -86 -96 -105l60 -146h-50l-55 139h-79l-24 -139h-48zM436 350q84 0 95 69q6 32 -11.5 51t-59.5 19h-68
l-24 -139h68z" />
    <glyph glyph-name="macron" unicode="&#xaf;" horiz-adv-x="293" 
d="M79 587l8 44h253l-7 -44h-254z" />
    <glyph glyph-name="degree" unicode="&#xb0;" horiz-adv-x="386" 
d="M142 561q-36 44 -25 106q5 32 21 58.5t39.5 45t53 29t61.5 10.5q63 0 98 -45q35 -46 25 -105q-5 -31 -20 -57.5t-38 -45.5t-52.5 -29.5t-64.5 -10.5q-62 0 -98 44zM166 663q-7 -43 15.5 -71.5t67.5 -28.5q21 0 41 7.5t35.5 21t26.5 32t14 39.5q8 43 -15.5 72t-66.5 29
q-44 0 -77 -29t-41 -72z" />
    <glyph glyph-name="plusminus" unicode="&#xb1;" horiz-adv-x="534" 
d="M88 389l9 49h178l30 169h50l-30 -169h178l-8 -49h-179l-30 -169h-49l30 169h-179zM36 93l8 49h407l-8 -49h-407z" />
    <glyph glyph-name="acute" unicode="&#xb4;" horiz-adv-x="179" 
d="M176 697h62l-112 -127h-50z" />
    <glyph glyph-name="uni00B5" unicode="&#xb5;" horiz-adv-x="607" 
d="M-2 -200l123 700h50l-55 -311h1q-12 -70 18.5 -111t102.5 -41q36 0 69 11.5t60 34.5t47 57t30 79l49 281h51l-72 -410q-3 -19 6 -30t28 -11h32l-8 -49h-38q-35 0 -55.5 22t-16.5 59q-72 -92 -188 -92q-100 0 -138 74l-46 -263h-50z" />
    <glyph glyph-name="paragraph" unicode="&#xb6;" horiz-adv-x="570" 
d="M121 372q-46 58 -32 139q7 40 28 74.5t52 60t69 40t78 14.5h290l-9 -47h-59l-150 -853h-50l150 853h-131l-150 -853h-49l90 513q-81 2 -127 59z" />
    <glyph glyph-name="periodcentered" unicode="&#xb7;" horiz-adv-x="214" 
d="M169 344q-5 -23 -19.5 -33.5t-36.5 -10.5q-20 0 -27.5 14t-5.5 31t14 31t33 14h4q19 0 30.5 -13.5t7.5 -32.5z" />
    <glyph glyph-name="cedilla" unicode="&#xb8;" horiz-adv-x="235" 
d="M148 -135q-14 -78 -156 -78h-25.5t-27.5 2l8 41q27 -3 50 -3q97 0 106 42q4 21 -17 32t-62 11h-5l16 88h45l-10 -56q38 -5 60.5 -26.5t17.5 -52.5z" />
    <glyph glyph-name="guillemotright" unicode="&#xbb;" horiz-adv-x="474" 
d="M60 136l140 177l-75 169h62l76 -173l-137 -173h-66zM341 313l-75 169h61l77 -173l-138 -173h-66z" />
    <glyph glyph-name="onequarter" unicode="&#xbc;" horiz-adv-x="829" 
d="M460 80l7 45l199 275h55l-198 -275h158l18 104h48l-18 -104h54l-8 -45h-54l-14 -80h-48l14 80h-213zM89 0l525 700h51l-525 -700h-51zM215 700h39l-71 -400h-48l61 343l-106 -32l-5 44z" />
    <glyph glyph-name="onehalf" unicode="&#xbd;" horiz-adv-x="815" 
d="M462 0l7 39l202 166q55 43 63 87q5 32 -13.5 53t-55.5 21q-65 0 -103 -68l-39 24q22 42 61 66t87 24q28 0 50.5 -9.5t37 -26t21 -38.5t2.5 -48q-5 -30 -26 -59.5t-57 -59.5l-153 -125h199l-7 -46h-276zM614 700h51l-525 -700h-51zM85 655l130 45h39l-71 -400h-48l61 343
l-106 -32z" />
    <glyph glyph-name="threequarters" unicode="&#xbe;" horiz-adv-x="933" 
d="M173 288q-96 0 -124 81l42 21q18 -56 89 -56q46 0 74 22.5t34 58.5t-14 59t-65 23h-3l-18 35l115 122h-192l8 46h251l-8 -46l-114 -120q48 -9 72 -43t16 -80q-11 -57 -54 -90t-109 -33zM571 125l199 275h55l-198 -275h158l18 104h48l-18 -104h54l-8 -45h-54l-14 -80h-48
l14 80h-213zM718 700h51l-525 -700h-51z" />
    <glyph glyph-name="questiondown" unicode="&#xbf;" horiz-adv-x="529" 
d="M51 -161q-52 49 -37 134q8 42 34 79t59 65q25 21 51 42.5t48.5 46.5t39 53t22.5 61h54q-9 -49 -36 -91t-61 -72q-24 -21 -50 -42.5t-48 -44.5t-38 -48t-22 -53q-10 -63 24.5 -96t104.5 -33q57 0 104.5 28t72.5 79l45 -26q-33 -64 -96 -98t-135 -34q-83 0 -136 50z
M313 420q-19 0 -30.5 13.5t-7.5 32.5q5 23 19.5 33.5t36.5 10.5q19 0 27 -14t6 -31t-14 -31t-33 -14h-4z" />
    <glyph glyph-name="Agrave" unicode="&#xc0;" horiz-adv-x="629" 
d="M366 700h56l148 -700h-54l-36 178h-351l-100 -178h-58zM469 228l-83 407l-229 -407h312zM324 897h60l58 -127h-48z" />
    <glyph glyph-name="Aacute" unicode="&#xc1;" horiz-adv-x="629" 
d="M366 700h56l148 -700h-54l-36 178h-351l-100 -178h-58zM469 228l-83 407l-229 -407h312zM365 770l100 127h62l-112 -127h-50z" />
    <glyph glyph-name="Acircumflex" unicode="&#xc2;" horiz-adv-x="629" 
d="M-29 0l395 700h56l148 -700h-54l-36 178h-351l-100 -178h-58zM469 228l-83 407l-229 -407h312zM398 897h59l87 -127h-55l-64 95l-97 -95h-60z" />
    <glyph glyph-name="Atilde" unicode="&#xc3;" horiz-adv-x="629" 
d="M-29 0l395 700h56l148 -700h-54l-36 178h-351l-100 -178h-58zM469 228l-83 407l-229 -407h312zM273 783q9 55 32 81t52 26q34 0 67 -33q32 -32 54 -32q30 0 41 60h44q-13 -80 -61 -102q-14 -6 -26 -6q-32 0 -64 34q-32 32 -54 32q-31 0 -41 -60h-44z" />
    <glyph glyph-name="Adieresis" unicode="&#xc4;" horiz-adv-x="629" 
d="M-29 0l395 700h56l148 -700h-54l-36 178h-351l-100 -178h-58zM469 228l-83 407l-229 -407h312zM497 777q-15 0 -24 10.5t-6 25.5q2 18 15.5 27t27.5 9t24 -9t6 -27q-3 -15 -15.5 -25.5t-27.5 -10.5zM317 777q-15 0 -24 10.5t-6 25.5q2 18 15.5 27t27.5 9t24 -9t6 -27
q-3 -15 -15.5 -25.5t-27.5 -10.5z" />
    <glyph glyph-name="Aring" unicode="&#xc5;" horiz-adv-x="629" 
d="M-29 0l382 676q-29 10 -42 35.5t-8 57.5q7 42 39.5 68.5t77.5 26.5q46 0 70 -28.5t18 -70.5q-5 -32 -27 -56t-54 -34l143 -675h-54l-36 178h-351l-100 -178h-58zM469 228l-83 407l-229 -407h312zM346 767q-5 -25 8.5 -41t40.5 -16t46.5 16t24.5 41q4 26 -10 41.5
t-41 15.5q-26 0 -45.5 -15.5t-23.5 -41.5z" />
    <glyph glyph-name="AE" unicode="&#xc6;" horiz-adv-x="873" 
d="M-41 0l552 700h392l-8 -50h-322l-48 -272h304l-9 -50h-303l-49 -278h326l-9 -50h-380l32 183h-270l-144 -183h-64zM446 233l69 393l-309 -393h240z" />
    <glyph glyph-name="Ccedilla" unicode="&#xc7;" horiz-adv-x="751" 
d="M117 104q-78 106 -52 253q13 75 50.5 139.5t92.5 112.5t124 75t146 27q100 0 173.5 -45.5t109.5 -123.5l-47 -25q-68 143 -237 143q-67 0 -127.5 -24t-108.5 -65.5t-80.5 -98t-43.5 -122.5q-22 -130 49 -221q71 -89 204 -89q85 0 159.5 39.5t122.5 109.5l45 -28
q-27 -37 -61 -67.5t-74 -52.5t-84 -35t-91 -16l-8 -46q38 -5 60.5 -26.5t17.5 -52.5q-14 -78 -156 -78h-25.5t-27.5 2l8 41q27 -3 50 -3q97 0 106 42q4 21 -17 32t-62 11h-5l14 78q-147 7 -225 114z" />
    <glyph glyph-name="Egrave" unicode="&#xc8;" horiz-adv-x="533" 
d="M411 770h-48l-70 127h60zM556 650h-346l-48 -272h321l-9 -50h-320l-49 -278h350l-9 -50h-403l123 700h398z" />
    <glyph glyph-name="Eacute" unicode="&#xc9;" horiz-adv-x="533" 
d="M496 897l-112 -127h-50l100 127h62zM556 650h-346l-48 -272h321l-9 -50h-320l-49 -278h350l-9 -50h-403l123 700h398z" />
    <glyph glyph-name="Ecircumflex" unicode="&#xca;" horiz-adv-x="533" 
d="M166 700h398l-8 -50h-346l-48 -272h321l-9 -50h-320l-49 -278h350l-9 -50h-403zM237 770l130 127h59l87 -127h-55l-64 95l-97 -95h-60z" />
    <glyph glyph-name="Edieresis" unicode="&#xcb;" horiz-adv-x="533" 
d="M43 0l123 700h398l-8 -50h-346l-48 -272h321l-9 -50h-320l-49 -278h350l-9 -50h-403zM466 777q-15 0 -24 10.5t-6 25.5q2 18 15.5 27t27.5 9t24 -9t6 -27q-3 -15 -15.5 -25.5t-27.5 -10.5zM286 777q-15 0 -24 10.5t-6 25.5q2 18 15.5 27t27.5 9t24 -9t6 -27
q-3 -15 -15.5 -25.5t-27.5 -10.5z" />
    <glyph glyph-name="Igrave" unicode="&#xcc;" horiz-adv-x="227" 
d="M192 770l-70 127h60l58 -127h-48zM43 0h53l123 700h-53z" />
    <glyph glyph-name="Iacute" unicode="&#xcd;" horiz-adv-x="227" 
d="M263 897h62l-112 -127h-50zM43 0h53l123 700h-53z" />
    <glyph glyph-name="Icircumflex" unicode="&#xce;" horiz-adv-x="227" 
d="M166 700h53l-123 -700h-53zM196 897h59l87 -127h-55l-64 95l-97 -95h-60z" />
    <glyph glyph-name="Idieresis" unicode="&#xcf;" horiz-adv-x="227" 
d="M166 700h53l-123 -700h-53zM295 777q-15 0 -24 10.5t-6 25.5q2 18 15.5 27t27.5 9t24 -9t6 -27q-3 -15 -15.5 -25.5t-27.5 -10.5zM115 777q-15 0 -24 10.5t-6 25.5q2 18 15.5 27t27.5 9t24 -9t6 -27q-3 -15 -15.5 -25.5t-27.5 -10.5z" />
    <glyph glyph-name="Eth" unicode="&#xd0;" horiz-adv-x="748" 
d="M53 326l8 48h68l57 326h263q139 0 217 -106t52 -252q-13 -73 -47.5 -135.5t-86 -108.5t-117.5 -72t-141 -26h-263l57 326h-67zM335 50q64 0 119.5 24t99 65t72.5 95.5t40 115.5q22 124 -42 213q-63 87 -183 87h-211l-48 -276h239l-8 -48h-240l-48 -276h210z" />
    <glyph glyph-name="Ntilde" unicode="&#xd1;" horiz-adv-x="687" 
d="M43 0l123 700h42l312 -602l106 602h53l-123 -700h-43l-311 602l-106 -602h-53zM301 783q9 55 32 81t52 26q34 0 67 -33q32 -32 54 -32q30 0 41 60h44q-13 -80 -61 -102q-14 -6 -26 -6q-32 0 -64 34q-32 32 -54 32q-31 0 -41 -60h-44z" />
    <glyph glyph-name="Ograve" unicode="&#xd2;" horiz-adv-x="819" 
d="M127 98q-88 108 -62 260q13 76 51.5 140.5t95.5 111.5t127.5 74t147.5 27q149 0 238 -111q88 -110 63 -261q-13 -76 -52 -140t-96 -110.5t-128 -73t-147 -26.5q-150 0 -238 109zM119 350q-23 -131 50 -220q73 -90 205 -90q66 0 126.5 23.5t108.5 64.5t81 97.5t44 121.5
q22 130 -51 221q-74 92 -205 92q-67 0 -127.5 -24t-108 -66t-80 -98.5t-43.5 -121.5zM532 770h-48l-70 127h60z" />
    <glyph glyph-name="Oacute" unicode="&#xd3;" horiz-adv-x="819" 
d="M127 98q-88 108 -62 260q13 76 51.5 140.5t95.5 111.5t127.5 74t147.5 27q149 0 238 -111q88 -110 63 -261q-13 -76 -52 -140t-96 -110.5t-128 -73t-147 -26.5q-150 0 -238 109zM119 350q-23 -131 50 -220q73 -90 205 -90q66 0 126.5 23.5t108.5 64.5t81 97.5t44 121.5
q22 130 -51 221q-74 92 -205 92q-67 0 -127.5 -24t-108 -66t-80 -98.5t-43.5 -121.5zM613 897l-112 -127h-50l100 127h62z" />
    <glyph glyph-name="Ocircumflex" unicode="&#xd4;" horiz-adv-x="819" 
d="M127 98q-88 108 -62 260q13 76 51.5 140.5t95.5 111.5t127.5 74t147.5 27q149 0 238 -111q88 -110 63 -261q-13 -76 -52 -140t-96 -110.5t-128 -73t-147 -26.5q-150 0 -238 109zM119 350q-23 -131 50 -220q73 -90 205 -90q66 0 126.5 23.5t108.5 64.5t81 97.5t44 121.5
q22 130 -51 221q-74 92 -205 92q-67 0 -127.5 -24t-108 -66t-80 -98.5t-43.5 -121.5zM366 770l130 127h59l87 -127h-55l-64 95l-97 -95h-60z" />
    <glyph glyph-name="Otilde" unicode="&#xd5;" horiz-adv-x="819" 
d="M127 98q-88 108 -62 260q13 76 51.5 140.5t95.5 111.5t127.5 74t147.5 27q149 0 238 -111q88 -110 63 -261q-13 -76 -52 -140t-96 -110.5t-128 -73t-147 -26.5q-150 0 -238 109zM119 350q-23 -131 50 -220q73 -90 205 -90q66 0 126.5 23.5t108.5 64.5t81 97.5t44 121.5
q22 130 -51 221q-74 92 -205 92q-67 0 -127.5 -24t-108 -66t-80 -98.5t-43.5 -121.5zM364 783q9 55 32 81t52 26q34 0 67 -33q32 -32 54 -32q30 0 41 60h44q-13 -80 -61 -102q-14 -6 -26 -6q-32 0 -64 34q-32 32 -54 32q-31 0 -41 -60h-44z" />
    <glyph glyph-name="Odieresis" unicode="&#xd6;" horiz-adv-x="819" 
d="M127 98q-88 108 -62 260q13 76 51.5 140.5t95.5 111.5t127.5 74t147.5 27q149 0 238 -111q88 -110 63 -261q-13 -76 -52 -140t-96 -110.5t-128 -73t-147 -26.5q-150 0 -238 109zM119 350q-23 -131 50 -220q73 -90 205 -90q66 0 126.5 23.5t108.5 64.5t81 97.5t44 121.5
q22 130 -51 221q-74 92 -205 92q-67 0 -127.5 -24t-108 -66t-80 -98.5t-43.5 -121.5zM591 777q-15 0 -24 10.5t-6 25.5q2 18 15.5 27t27.5 9t24 -9t6 -27q-3 -15 -15.5 -25.5t-27.5 -10.5zM411 777q-15 0 -24 10.5t-6 25.5q2 18 15.5 27t27.5 9t24 -9t6 -27
q-3 -15 -15.5 -25.5t-27.5 -10.5z" />
    <glyph glyph-name="multiply" unicode="&#xd7;" horiz-adv-x="469" 
d="M455 494l-170 -146l119 -142l-37 -32l-119 143l-166 -143l-33 32l170 146l-119 142l37 32l119 -142l166 142z" />
    <glyph glyph-name="Oslash" unicode="&#xd8;" horiz-adv-x="829" 
d="M143 91q-95 110 -68 267q13 76 51.5 140.5t95.5 111.5t127.5 74t147.5 27q117 0 203 -74l64 63l35 -23l-70 -69q96 -111 69 -269q-13 -76 -52 -140t-96 -110.5t-128 -73t-147 -26.5q-118 0 -204 74l-64 -63l-35 22zM209 100q70 -60 175 -60q66 0 126.5 23.5t108.5 64.5
t81 97.5t44 121.5q23 133 -53 224zM129 350q-24 -131 52 -222l481 472q-69 60 -174 60q-132 0 -235 -90q-102 -90 -124 -220z" />
    <glyph glyph-name="Ugrave" unicode="&#xd9;" horiz-adv-x="667" 
d="M117 57q-62 70 -43 177l82 466h53l-82 -466q-15 -87 28.5 -140.5t139.5 -53.5q93 0 157.5 50.5t81.5 143.5l82 466h53l-82 -466q-10 -56 -35 -101.5t-63 -77.5t-87 -49t-106 -17q-117 0 -179 68zM400 897l58 -127h-48l-70 127h60z" />
    <glyph glyph-name="Uacute" unicode="&#xda;" horiz-adv-x="667" 
d="M117 57q-62 70 -43 177l82 466h53l-82 -466q-15 -87 28.5 -140.5t139.5 -53.5q93 0 157.5 50.5t81.5 143.5l82 466h53l-82 -466q-10 -56 -35 -101.5t-63 -77.5t-87 -49t-106 -17q-117 0 -179 68zM543 897l-112 -127h-50l100 127h62z" />
    <glyph glyph-name="Ucircumflex" unicode="&#xdb;" horiz-adv-x="667" 
d="M117 57q-62 70 -43 177l82 466h53l-82 -466q-15 -87 28.5 -140.5t139.5 -53.5q93 0 157.5 50.5t81.5 143.5l82 466h53l-82 -466q-10 -56 -35 -101.5t-63 -77.5t-87 -49t-106 -17q-117 0 -179 68zM414 897h59l87 -127h-55l-64 95l-97 -95h-60z" />
    <glyph glyph-name="Udieresis" unicode="&#xdc;" horiz-adv-x="667" 
d="M117 57q-62 70 -43 177l82 466h53l-82 -466q-15 -87 28.5 -140.5t139.5 -53.5q93 0 157.5 50.5t81.5 143.5l82 466h53l-82 -466q-10 -56 -35 -101.5t-63 -77.5t-87 -49t-106 -17q-117 0 -179 68zM513 777q-15 0 -24 10.5t-6 25.5q2 18 15.5 27t27.5 9t24 -9t6 -27
q-3 -15 -15.5 -25.5t-27.5 -10.5zM333 777q-15 0 -24 10.5t-6 25.5q2 18 15.5 27t27.5 9t24 -9t6 -27q-3 -15 -15.5 -25.5t-27.5 -10.5z" />
    <glyph glyph-name="Yacute" unicode="&#xdd;" horiz-adv-x="570" 
d="M147 700l156 -324l270 324h63l-311 -373l-58 -327h-53l58 329l-180 371h55zM433 897h62l-112 -127h-50z" />
    <glyph glyph-name="Thorn" unicode="&#xde;" horiz-adv-x="587" 
d="M166 700h53l-23 -133h181q98 0 149 -62t35 -155q-9 -51 -33 -91.5t-60 -68t-81 -42.5t-96 -15h-172l-23 -133h-53zM297 183q40 0 76 12t64 34.5t47 55t25 72.5q13 72 -24.5 116t-112.5 44h-185l-59 -334h169z" />
    <glyph glyph-name="germandbls" unicode="&#xdf;" horiz-adv-x="516" 
d="M124 518q17 96 77 144.5t144 48.5q77 0 118 -44q20 -23 28 -48.5t2 -57.5q-4 -27 -23.5 -53t-41 -49t-39 -41.5t-18.5 -30.5q-3 -24 15.5 -49.5t40 -55.5t37.5 -66t9 -80q-11 -66 -62 -103.5t-138 -37.5h-13.5t-14.5 1l8 46q6 -1 11.5 -1h10.5q63 0 101.5 26t46.5 74
q3 16 -0.5 34t-11 35.5t-17.5 33.5t-22 29q-11 13 -21.5 28t-18 31t-11.5 31.5t-1 29.5q3 23 21 42t39 38.5t39 41.5t23 51q8 45 -20.5 71t-82.5 26q-58 0 -104.5 -36.5t-60.5 -111.5l-91 -515h-50z" />
    <glyph glyph-name="agrave" unicode="&#xe0;" horiz-adv-x="646" 
d="M91 70q-65 82 -46 191q10 54 35.5 100t63 79t86 52t104.5 19q72 0 127.5 -36.5t79.5 -100.5l22 126h50l-88 -500h-50l18 102q-84 -113 -231 -113q-107 0 -171 81zM96 257q-17 -90 36 -155t142 -65q91 0 159 58q69 59 84 148q17 98 -38 158q-56 62 -142 62
q-46 0 -86.5 -15.5t-72 -43t-53 -65t-29.5 -82.5zM278 697h60l58 -127h-48z" />
    <glyph glyph-name="aacute" unicode="&#xe1;" horiz-adv-x="646" 
d="M91 70q-65 82 -46 191q10 54 35.5 100t63 79t86 52t104.5 19q72 0 127.5 -36.5t79.5 -100.5l22 126h50l-88 -500h-50l18 102q-84 -113 -231 -113q-107 0 -171 81zM96 257q-17 -90 36 -155t142 -65q91 0 159 58q69 59 84 148q17 98 -38 158q-56 62 -142 62
q-46 0 -86.5 -15.5t-72 -43t-53 -65t-29.5 -82.5zM337 570l100 127h62l-112 -127h-50z" />
    <glyph glyph-name="acircumflex" unicode="&#xe2;" horiz-adv-x="646" 
d="M91 70q-65 82 -46 191q10 54 35.5 100t63 79t86 52t104.5 19q72 0 127.5 -36.5t79.5 -100.5l22 126h50l-88 -500h-50l18 102q-84 -113 -231 -113q-107 0 -171 81zM96 257q-17 -90 36 -155t142 -65q46 0 86.5 15.5t73 42.5t54 65t29.5 83q17 98 -38 158q-56 62 -142 62
q-46 0 -86.5 -15.5t-72 -43t-53 -65t-29.5 -82.5zM237 570l130 127h59l87 -127h-55l-64 95l-97 -95h-60z" />
    <glyph glyph-name="atilde" unicode="&#xe3;" horiz-adv-x="646" 
d="M91 70q-65 82 -46 191q10 54 35.5 100t63 79t86 52t104.5 19q72 0 127.5 -36.5t79.5 -100.5l22 126h50l-88 -500h-50l18 102q-84 -113 -231 -113q-107 0 -171 81zM96 257q-17 -90 36 -155t142 -65q91 0 159 58q69 59 84 148q17 98 -38 158q-56 62 -142 62
q-46 0 -86.5 -15.5t-72 -43t-53 -65t-29.5 -82.5zM230 583q9 55 32 81t52 26q34 0 67 -33q32 -32 54 -32q30 0 41 60h44q-13 -80 -61 -102q-14 -6 -26 -6q-32 0 -64 34q-32 32 -54 32q-31 0 -41 -60h-44z" />
    <glyph glyph-name="adieresis" unicode="&#xe4;" horiz-adv-x="646" 
d="M91 70q-65 82 -46 191q10 54 35.5 100t63 79t86 52t104.5 19q72 0 127.5 -36.5t79.5 -100.5l22 126h50l-88 -500h-50l18 102q-84 -113 -231 -113q-107 0 -171 81zM96 257q-17 -90 36 -155t142 -65q91 0 159 58q69 59 84 148q17 98 -38 158q-56 62 -142 62
q-46 0 -86.5 -15.5t-72 -43t-53 -65t-29.5 -82.5zM452 577q-15 0 -24 10.5t-6 25.5q2 18 15.5 27t27.5 9t24 -9t6 -27q-3 -15 -15.5 -25.5t-27.5 -10.5zM272 577q-15 0 -24 10.5t-6 25.5q2 18 15.5 27t27.5 9t24 -9t6 -27q-3 -15 -15.5 -25.5t-27.5 -10.5z" />
    <glyph glyph-name="aring" unicode="&#xe5;" horiz-adv-x="646" 
d="M91 70q-65 82 -46 191q10 54 35.5 100t63 79t86 52t104.5 19q72 0 127.5 -36.5t79.5 -100.5l22 126h50l-88 -500h-50l18 102q-84 -113 -231 -113q-107 0 -171 81zM96 257q-17 -90 36 -155t142 -65q91 0 159 58q69 59 84 148q17 98 -38 158q-56 62 -142 62
q-46 0 -86.5 -15.5t-72 -43t-53 -65t-29.5 -82.5zM361 553q-46 0 -70 28.5t-17 70.5t39.5 68.5t77.5 26.5q46 0 70 -28.5t18 -70.5t-39.5 -68.5t-78.5 -26.5zM317 650q-5 -25 8.5 -41t40.5 -16t46.5 16t24.5 41q4 26 -10 41.5t-41 15.5q-26 0 -45.5 -15.5t-23.5 -41.5z" />
    <glyph glyph-name="ae" unicode="&#xe6;" horiz-adv-x="1062" 
d="M89 68q-63 80 -44 190q10 54 36 100.5t64.5 80t87.5 53t105 19.5q70 0 125 -34.5t79 -97.5l21 121h50l-20 -112q84 123 231 123q107 0 162 -79q28 -40 35.5 -85t0.5 -99q-2 -12 -6 -24h-450q-3 -42 7.5 -76.5t33.5 -59t57 -38t77 -13.5q63 0 112 24.5t79 66.5l40 -26
q-40 -52 -101 -82.5t-133 -30.5q-73 0 -123 33.5t-70 93.5l-20 -116h-50l18 105q-40 -55 -101 -85.5t-133 -30.5q-106 0 -170 79zM96 253q-16 -89 34 -153q49 -63 141 -63q45 0 86.5 16t74.5 44t55.5 66.5t30.5 82.5q18 96 -37 157q-54 60 -141 60q-46 0 -87 -16
t-73.5 -44.5t-54 -66.5t-29.5 -83zM974 273q4 45 -5.5 80t-31 59.5t-53 37.5t-70.5 13q-44 0 -83 -14t-70 -39t-53.5 -60t-33.5 -77h400z" />
    <glyph glyph-name="ccedilla" unicode="&#xe7;" horiz-adv-x="562" 
d="M81 77q-54 77 -36 181q10 56 37.5 102.5t68 80t91 52t107.5 18.5q72 0 126.5 -34.5t74.5 -92.5l-43 -23q-17 48 -58.5 75t-104.5 27q-47 0 -88 -16t-74 -44t-55.5 -66.5t-30.5 -83.5q-16 -91 33 -154q50 -62 140 -62q60 0 112.5 28.5t83.5 76.5l40 -27q-36 -55 -95.5 -88
t-131.5 -38l-8 -45q38 -5 60.5 -26.5t17.5 -52.5q-14 -78 -156 -78h-25.5t-27.5 2l8 41q27 -3 50 -3q97 0 106 42q4 21 -17 32t-62 11h-5l14 78q-98 11 -152 87z" />
    <glyph glyph-name="egrave" unicode="&#xe8;" horiz-adv-x="588" 
d="M86 65q-62 77 -41 192q10 55 36.5 101.5t66 80.5t89 53t105.5 19q112 0 169 -78t37 -185q-3 -17 -6 -24h-451q-3 -42 8 -76.5t34.5 -59t57.5 -38t77 -13.5q124 0 190 92l39 -26q-36 -54 -100 -84t-136 -30q-114 0 -175 76zM338 463q-44 0 -82.5 -14t-70 -39t-53.5 -60
t-33 -77h401q9 90 -36 140t-126 50zM335 697l58 -127h-48l-70 127h60z" />
    <glyph glyph-name="eacute" unicode="&#xe9;" horiz-adv-x="588" 
d="M86 65q-62 77 -41 192q10 55 36.5 101.5t66 80.5t89 53t105.5 19q112 0 169 -78t37 -185q-3 -17 -6 -24h-451q-3 -42 8 -76.5t34.5 -59t57.5 -38t77 -13.5q124 0 190 92l39 -26q-36 -54 -100 -84t-136 -30q-114 0 -175 76zM338 463q-44 0 -82.5 -14t-70 -39t-53.5 -60
t-33 -77h401q9 90 -36 140t-126 50zM432 697h62l-112 -127h-50z" />
    <glyph glyph-name="ecircumflex" unicode="&#xea;" horiz-adv-x="588" 
d="M86 65q-62 77 -41 192q10 55 36.5 101.5t66 80.5t89 53t105.5 19q112 0 169 -78t37 -185q-3 -17 -6 -24h-451q-3 -42 8 -76.5t34.5 -59t57.5 -38t77 -13.5q124 0 190 92l39 -26q-36 -54 -100 -84t-136 -30q-114 0 -175 76zM338 463q-44 0 -82.5 -14t-70 -39t-53.5 -60
t-33 -77h401q9 90 -36 140t-126 50zM225 570l130 127h59l87 -127h-55l-64 95l-97 -95h-60z" />
    <glyph glyph-name="edieresis" unicode="&#xeb;" horiz-adv-x="588" 
d="M86 65q-62 77 -41 192q10 55 36.5 101.5t66 80.5t89 53t105.5 19q112 0 169 -78t37 -185q-3 -17 -6 -24h-451q-3 -42 8 -76.5t34.5 -59t57.5 -38t77 -13.5q124 0 190 92l39 -26q-36 -54 -100 -84t-136 -30q-114 0 -175 76zM338 463q-44 0 -82.5 -14t-70 -39t-53.5 -60
t-33 -77h401q9 90 -36 140t-126 50zM448 577q-15 0 -24 10.5t-6 25.5q2 18 15.5 27t27.5 9t24 -9t6 -27q-3 -15 -15.5 -25.5t-27.5 -10.5zM268 577q-15 0 -24 10.5t-6 25.5q2 18 15.5 27t27.5 9t24 -9t6 -27q-3 -15 -15.5 -25.5t-27.5 -10.5z" />
    <glyph glyph-name="igrave" unicode="&#xec;" horiz-adv-x="204" 
d="M159 570l-45 127h61l33 -127h-49zM171 500h-50l-88 -500h50z" />
    <glyph glyph-name="iacute" unicode="&#xed;" horiz-adv-x="204" 
d="M183 697h60l-88 -127h-49zM83 0l88 500h-50l-88 -500h50z" />
    <glyph glyph-name="icircumflex" unicode="&#xee;" horiz-adv-x="204" 
d="M121 500h50l-88 -500h-50zM151 697h59l63 -127h-57l-42 86l-72 -86h-57z" />
    <glyph glyph-name="idieresis" unicode="&#xef;" horiz-adv-x="204" 
d="M33 0l88 500h50l-88 -500h-50zM226 577q-16 0 -24.5 10.5t-6.5 25.5q2 16 15 26.5t29 10.5q15 0 24 -10.5t6 -26.5q-3 -15 -15.5 -25.5t-27.5 -10.5zM94 577q-16 0 -25 10.5t-6 25.5q3 16 15.5 26.5t28.5 10.5q15 0 23.5 -10.5t6.5 -26.5q-2 -15 -15 -25.5t-28 -10.5z
" />
    <glyph glyph-name="eth" unicode="&#xf0;" horiz-adv-x="588" 
d="M89 63q-67 73 -47 181q8 50 32.5 90t60 68.5t80 44t94.5 15.5q66 0 112 -28l-83 149l-139 -77l8 47l112 62l-47 85h52l36 -62l121 67l-9 -47l-94 -52l136 -237q39 -67 25 -153q-10 -54 -35 -96t-61.5 -71t-83.5 -44.5t-101 -15.5q-101 0 -169 74zM93 240q-17 -86 35 -145
q51 -58 139 -58q42 0 79 13t66 37t48.5 57.5t27.5 75.5q7 38 3 67.5t-17 52.5q-43 77 -161 77q-43 0 -80 -12.5t-66 -35.5t-48 -55.5t-26 -73.5z" />
    <glyph glyph-name="ntilde" unicode="&#xf1;" 
d="M33 0l88 500h50l-15 -87q71 98 192 98q45 0 78.5 -14t55 -40.5t29 -63.5t0.5 -82l-55 -311h-51l55 311q12 70 -18.5 111t-102.5 41q-39 0 -73 -13t-61.5 -38t-46.5 -62.5t-28 -85.5v1l-47 -265h-50zM201 583q9 55 32 81t52 26q34 0 67 -33q32 -32 54 -32q30 0 41 60h44
q-13 -80 -61 -102q-14 -6 -26 -6q-32 0 -64 34q-32 32 -54 32q-31 0 -41 -60h-44z" />
    <glyph glyph-name="ograve" unicode="&#xf2;" horiz-adv-x="612" 
d="M91 63q-67 73 -47 192q9 56 37.5 103t70 81t93.5 53t108 19q105 0 170 -75q65 -74 45 -190q-9 -56 -36.5 -103.5t-68 -81.5t-91.5 -53t-108 -19q-105 0 -173 74zM95 250q-17 -97 35 -155t139 -58q47 0 89 16.5t75 45.5t55 68t30 85q16 94 -36 153q-52 58 -138 58
q-47 -1 -88.5 -17t-74.5 -44t-55.5 -67t-30.5 -85zM347 697l58 -127h-48l-70 127h60z" />
    <glyph glyph-name="oacute" unicode="&#xf3;" horiz-adv-x="612" 
d="M91 63q-67 73 -47 192q9 56 37.5 103t70 81t93.5 53t108 19q105 0 170 -75q65 -74 45 -190q-9 -56 -36.5 -103.5t-68 -81.5t-91.5 -53t-108 -19q-105 0 -173 74zM95 250q-17 -97 35 -155t139 -58q47 0 89 16.5t75 45.5t55 68t30 85q16 94 -36 153q-52 58 -138 58
q-47 -1 -88.5 -17t-74.5 -44t-55.5 -67t-30.5 -85zM478 697l-112 -127h-50l100 127h62z" />
    <glyph glyph-name="ocircumflex" unicode="&#xf4;" horiz-adv-x="612" 
d="M91 63q-67 73 -47 192q9 56 37.5 103t70 81t93.5 53t108 19q105 0 170 -75q65 -74 45 -190q-9 -56 -36.5 -103.5t-68 -81.5t-91.5 -53t-108 -19q-105 0 -173 74zM95 250q-17 -97 35 -155t139 -58q47 0 89 16.5t75 45.5t55 68t30 85q16 94 -36 153q-52 58 -138 58
q-47 -1 -88.5 -17t-74.5 -44t-55.5 -67t-30.5 -85zM236 570l130 127h59l87 -127h-55l-64 95l-97 -95h-60z" />
    <glyph glyph-name="otilde" unicode="&#xf5;" horiz-adv-x="612" 
d="M91 63q-67 73 -47 192q9 56 37.5 103t70 81t93.5 53t108 19q105 0 170 -75q65 -74 45 -190q-9 -56 -36.5 -103.5t-68 -81.5t-91.5 -53t-108 -19q-105 0 -173 74zM95 250q-17 -97 35 -155t139 -58q47 0 89 16.5t75 45.5t55 68t30 85q16 94 -36 153q-52 58 -138 58
q-47 -1 -88.5 -17t-74.5 -44t-55.5 -67t-30.5 -85zM230 583q9 55 32 81t52 26q34 0 67 -33q32 -32 54 -32q30 0 41 60h44q-13 -80 -61 -102q-14 -6 -26 -6q-32 0 -64 34q-32 32 -54 32q-31 0 -41 -60h-44z" />
    <glyph glyph-name="odieresis" unicode="&#xf6;" horiz-adv-x="612" 
d="M91 63q-67 73 -47 192q9 56 37.5 103t70 81t93.5 53t108 19q105 0 170 -75q65 -74 45 -190q-9 -56 -36.5 -103.5t-68 -81.5t-91.5 -53t-108 -19q-105 0 -173 74zM95 250q-17 -97 35 -155t139 -58q47 0 89 16.5t75 45.5t55 68t30 85q16 94 -36 153q-52 58 -138 58
q-47 -1 -88.5 -17t-74.5 -44t-55.5 -67t-30.5 -85zM451 577q-15 0 -24 10.5t-6 25.5q2 18 15.5 27t27.5 9t24 -9t6 -27q-3 -15 -15.5 -25.5t-27.5 -10.5zM271 577q-15 0 -24 10.5t-6 25.5q2 18 15.5 27t27.5 9t24 -9t6 -27q-3 -15 -15.5 -25.5t-27.5 -10.5z" />
    <glyph glyph-name="divide" unicode="&#xf7;" horiz-adv-x="580" 
d="M77 326l8 48h453l-8 -48h-453zM333 492q-19 0 -30 14t-7 33t18 31t34 12q19 0 30 -14t8 -33t-18.5 -31t-34.5 -12zM267 118q-19 0 -30 14t-7 33t18 31t34 12q19 0 30 -14t8 -33t-18.5 -31t-34.5 -12z" />
    <glyph glyph-name="oslash" unicode="&#xf8;" horiz-adv-x="612" 
d="M86 69q-62 75 -42 186q10 56 38.5 103t69.5 81t92.5 53t108.5 19q88 0 150 -54l49 46l32 -20l-56 -52q59 -76 40 -185q-10 -56 -37.5 -103.5t-67.5 -81.5t-91 -53t-108 -19q-90 0 -153 54l-49 -46l-32 20zM95 250q-15 -87 29 -146l341 318q-50 41 -121 41
q-88 -2 -160 -59q-73 -59 -89 -154zM149 78q47 -41 120 -41q47 0 89 16.5t75 45.5t55 68t30 85q15 86 -28 143z" />
    <glyph glyph-name="ugrave" unicode="&#xf9;" 
d="M216 -11q-45 0 -78.5 14t-55 40.5t-29.5 63.5t0 82l55 311h51l-55 -311q-12 -70 18.5 -111t102.5 -41q39 0 73 13t61.5 38t46.5 62.5t28 85.5v-1l47 265h50l-88 -500h-50l15 87q-71 -98 -192 -98zM248 697h60l58 -127h-48z" />
    <glyph glyph-name="uacute" unicode="&#xfa;" 
d="M216 -11q-45 0 -78.5 14t-55 40.5t-29.5 63.5t0 82l55 311h51l-55 -311q-12 -70 18.5 -111t102.5 -41q39 0 73 13t61.5 38t46.5 62.5t28 85.5v-1l47 265h50l-88 -500h-50l15 87q-71 -98 -192 -98zM306 570l100 127h62l-112 -127h-50z" />
    <glyph glyph-name="ucircumflex" unicode="&#xfb;" 
d="M216 -11q-45 0 -78.5 14t-55 40.5t-29.5 63.5t0 82l55 311h51l-55 -311q-12 -70 18.5 -111t102.5 -41q39 0 73 13t61.5 38t46.5 62.5t28 85.5v-1l47 265h50l-88 -500h-50l15 87q-71 -98 -192 -98zM192 570l130 127h59l87 -127h-55l-64 95l-97 -95h-60z" />
    <glyph glyph-name="udieresis" unicode="&#xfc;" 
d="M216 -11q-45 0 -78.5 14t-55 40.5t-29.5 63.5t0 82l55 311h51l-55 -311q-12 -70 18.5 -111t102.5 -41q39 0 73 13t61.5 38t46.5 62.5t28 85.5v-1l47 265h50l-88 -500h-50l15 87q-71 -98 -192 -98zM421 577q-15 0 -24 10.5t-6 25.5q2 18 15.5 27t27.5 9t24 -9t6 -27
q-3 -15 -15.5 -25.5t-27.5 -10.5zM241 577q-15 0 -24 10.5t-6 25.5q2 18 15.5 27t27.5 9t24 -9t6 -27q-3 -15 -15.5 -25.5t-27.5 -10.5z" />
    <glyph glyph-name="yacute" unicode="&#xfd;" horiz-adv-x="510" 
d="M12 -153q3 0 6 -0.5t6 -0.5q84 0 155 118l17 28l-139 508h51l121 -450l255 450h57l-312 -546q-42 -74 -96.5 -114.5t-114.5 -40.5q-4 0 -7 0.5t-7 0.5zM271 570l100 127h62l-112 -127h-50z" />
    <glyph glyph-name="thorn" unicode="&#xfe;" horiz-adv-x="646" 
d="M-2 -200l158 900h50l-53 -302q84 113 231 113q106 0 171 -81q65 -82 46 -191q-10 -54 -35 -100t-63 -79.5t-86.5 -52t-104.5 -18.5q-72 0 -127.5 36t-79.5 100l-57 -325h-50zM129 257q-17 -98 37 -159t143 -61q46 0 86.5 15.5t72.5 42.5t53 65t29 83q15 92 -36 155
q-53 65 -142 65q-46 0 -86.5 -15.5t-73 -42.5t-54 -65t-29.5 -83z" />
    <glyph glyph-name="ydieresis" unicode="&#xff;" horiz-adv-x="510" 
d="M229 -46q-42 -74 -96.5 -114.5t-114.5 -40.5q-4 0 -7 0.5t-7 0.5l8 47q3 0 6 -0.5t6 -0.5q84 0 155 118l17 28l-139 508h51l121 -450l255 450h57zM386 577q-15 0 -24 10.5t-6 25.5q2 18 15.5 27t27.5 9t24 -9t6 -27q-3 -15 -15.5 -25.5t-27.5 -10.5zM206 577
q-15 0 -24 10.5t-6 25.5q2 18 15.5 27t27.5 9t24 -9t6 -27q-3 -15 -15.5 -25.5t-27.5 -10.5z" />
    <glyph glyph-name="Amacron" unicode="&#x100;" horiz-adv-x="629" 
d="M366 700h56l148 -700h-54l-36 178h-351l-100 -178h-58zM469 228l-83 407l-229 -407h312zM282 787l8 44h253l-7 -44h-254z" />
    <glyph glyph-name="amacron" unicode="&#x101;" horiz-adv-x="646" 
d="M91 70q-65 82 -46 191q10 54 35.5 100t63 79t86 52t104.5 19q72 0 127.5 -36.5t79.5 -100.5l22 126h50l-88 -500h-50l18 102q-84 -113 -231 -113q-107 0 -171 81zM96 257q-17 -90 36 -155t142 -65q91 0 159 58q69 59 84 148q17 98 -38 158q-56 62 -142 62
q-46 0 -86.5 -15.5t-72 -43t-53 -65t-29.5 -82.5zM237 587l8 44h253l-7 -44h-254z" />
    <glyph glyph-name="Abreve" unicode="&#x102;" horiz-adv-x="629" 
d="M-29 0l395 700h56l148 -700h-54l-36 178h-351l-100 -178h-58zM469 228l-83 407l-229 -407h312zM407 765q-60 0 -91.5 32.5t-21.5 89.5h48q-14 -78 71 -78q40 0 66 20.5t33 57.5h48q-10 -57 -50 -89.5t-103 -32.5z" />
    <glyph glyph-name="abreve" unicode="&#x103;" horiz-adv-x="646" 
d="M91 70q-65 82 -46 191q10 54 35.5 100t63 79t86 52t104.5 19q72 0 127.5 -36.5t79.5 -100.5l22 126h50l-88 -500h-50l18 102q-84 -113 -231 -113q-107 0 -171 81zM96 257q-17 -90 36 -155t142 -65q91 0 159 58q69 59 84 148q17 98 -38 158q-56 62 -142 62
q-46 0 -86.5 -15.5t-72 -43t-53 -65t-29.5 -82.5zM395 565q-60 0 -91.5 32.5t-21.5 89.5h48q-14 -78 71 -78q40 0 66 20.5t33 57.5h48q-10 -57 -50 -89.5t-103 -32.5z" />
    <glyph glyph-name="Aogonek" unicode="&#x104;" horiz-adv-x="629" 
d="M-29 0l395 700h56l148 -700q-95 -74 -106 -130q-8 -38 34 -38q23 0 44 8l-7 -41q-21 -10 -56 -10t-53 21.5t-12 54.5q12 65 102 137l-36 176h-351l-100 -178h-58zM469 228l-83 407l-229 -407h312z" />
    <glyph glyph-name="aogonek" unicode="&#x105;" horiz-adv-x="647" 
d="M91 70q-65 82 -46 191q10 54 35.5 100t63 79t86 52t104.5 19q72 0 127.5 -36.5t79.5 -100.5l22 126h50l-88 -500q-97 -76 -106 -131q-6 -37 34 -37q21 0 44 9l-7 -42q-23 -10 -56 -10q-36 0 -53.5 21.5t-11.5 54.5q12 65 108 147l16 90q-84 -113 -231 -113
q-107 0 -171 81zM96 257q-17 -90 36 -155t142 -65q46 0 86.5 15.5t73 42.5t54 65t29.5 83q17 98 -38 158q-56 62 -142 62q-46 0 -86.5 -15.5t-72 -43t-53 -65t-29.5 -82.5z" />
    <glyph glyph-name="Cacute" unicode="&#x106;" horiz-adv-x="751" 
d="M123 97q-85 108 -58 260q13 75 50.5 139.5t92.5 112.5t124 75t146 27q100 0 173.5 -45.5t109.5 -123.5l-47 -25q-68 143 -237 143q-67 0 -127.5 -24t-108.5 -65.5t-80.5 -98t-43.5 -122.5q-22 -130 49 -221q71 -89 204 -89q85 0 159.5 39.5t122.5 109.5l45 -28
q-28 -39 -65 -71t-79.5 -54.5t-90 -34.5t-97.5 -12q-157 0 -242 108zM623 897l-112 -127h-50l100 127h62z" />
    <glyph glyph-name="cacute" unicode="&#x107;" horiz-adv-x="562" 
d="M87 68q-61 79 -42 190q10 56 37.5 102.5t68 80t91 52t107.5 18.5q72 0 126.5 -34.5t74.5 -92.5l-43 -23q-17 48 -58.5 75t-104.5 27q-47 0 -88 -16t-74 -44t-55.5 -66.5t-30.5 -83.5q-16 -91 33 -154q50 -62 140 -62q60 0 112.5 28.5t83.5 76.5l40 -27
q-38 -60 -102.5 -93t-142.5 -33q-110 0 -173 79zM471 697l-112 -127h-50l100 127h62z" />
    <glyph glyph-name="Cdotaccent" unicode="&#x10a;" horiz-adv-x="751" 
d="M123 97q-85 108 -58 260q13 75 50.5 139.5t92.5 112.5t124 75t146 27q100 0 173.5 -45.5t109.5 -123.5l-47 -25q-68 143 -237 143q-67 0 -127.5 -24t-108.5 -65.5t-80.5 -98t-43.5 -122.5q-22 -130 49 -221q71 -89 204 -89q85 0 159.5 39.5t122.5 109.5l45 -28
q-28 -39 -65 -71t-79.5 -54.5t-90 -34.5t-97.5 -12q-157 0 -242 108zM537 786q-13 -13 -33 -13q-19 0 -32.5 13t-7.5 34q3 20 19 33.5t35 13.5q16 0 26 -8.5t13 -21t-2 -26.5t-18 -25z" />
    <glyph glyph-name="cdotaccent" unicode="&#x10b;" horiz-adv-x="562" 
d="M87 68q-61 79 -42 190q10 56 37.5 102.5t68 80t91 52t107.5 18.5q72 0 126.5 -34.5t74.5 -92.5l-43 -23q-17 48 -58.5 75t-104.5 27q-47 0 -88 -16t-74 -44t-55.5 -66.5t-30.5 -83.5q-16 -91 33 -154q50 -62 140 -62q60 0 112.5 28.5t83.5 76.5l40 -27
q-38 -60 -102.5 -93t-142.5 -33q-110 0 -173 79zM385 586q-13 -13 -33 -13q-19 0 -32.5 13t-7.5 34q3 20 19 33.5t35 13.5q16 0 26 -8.5t13 -21t-2 -26.5t-18 -25z" />
    <glyph glyph-name="Ccaron" unicode="&#x10c;" horiz-adv-x="751" 
d="M123 97q-85 108 -58 260q13 75 50.5 139.5t92.5 112.5t124 75t146 27q100 0 173.5 -45.5t109.5 -123.5l-47 -25q-68 143 -237 143q-67 0 -127.5 -24t-108.5 -65.5t-80.5 -98t-43.5 -122.5q-22 -130 49 -221q71 -89 204 -89q85 0 159.5 39.5t122.5 109.5l45 -28
q-28 -39 -65 -71t-79.5 -54.5t-90 -34.5t-97.5 -12q-157 0 -242 108zM441 897l64 -94l96 94h61l-130 -127h-59l-86 127h54z" />
    <glyph glyph-name="ccaron" unicode="&#x10d;" horiz-adv-x="562" 
d="M87 68q-61 79 -42 190q10 56 37.5 102.5t68 80t91 52t107.5 18.5q72 0 126.5 -34.5t74.5 -92.5l-43 -23q-17 48 -58.5 75t-104.5 27q-47 0 -88 -16t-74 -44t-55.5 -66.5t-30.5 -83.5q-16 -91 33 -154q50 -62 140 -62q60 0 112.5 28.5t83.5 76.5l40 -27
q-38 -60 -102.5 -93t-142.5 -33q-110 0 -173 79zM235 697h54l64 -94l96 94h61l-130 -127h-59z" />
    <glyph glyph-name="Dcaron" unicode="&#x10e;" horiz-adv-x="728" 
d="M43 0l123 700h263q139 0 217 -106t52 -252q-13 -73 -47.5 -135.5t-86 -108.5t-117.5 -72t-141 -26h-263zM315 50q64 0 119.5 24t99 65t72.5 95.5t40 115.5q22 124 -42 213q-63 87 -183 87h-211l-105 -600h210zM316 897h54l64 -94l96 94h61l-130 -127h-59z" />
    <glyph glyph-name="dcaron" unicode="&#x10f;" horiz-adv-x="697" 
d="M91 70q-65 82 -46 191q10 54 35.5 100t63 79t86 52t104.5 19q72 0 127.5 -36t79.5 -100l57 325h50l-123 -700h-50l18 102q-84 -113 -231 -113q-107 0 -171 81zM96 257q-17 -90 36 -155t142 -65q91 0 158 58q69 58 85 148q18 96 -38 158t-142 62q-46 0 -86.5 -15.5
t-72 -43t-53 -65t-29.5 -82.5zM692 530l40 170h51l-55 -170h-36z" />
    <glyph glyph-name="Dcroat" unicode="&#x110;" horiz-adv-x="748" 
d="M53 324l6 44h68l59 332h263q139 0 217 -106t52 -252q-13 -73 -47.5 -135.5t-86 -108.5t-117.5 -72t-141 -26h-263l57 324h-67zM335 50q64 0 119.5 24t99 65t72.5 95.5t40 115.5q22 124 -42 213q-63 87 -183 87h-211l-50 -282h152l-6 -44h-153l-48 -274h210z" />
    <glyph glyph-name="dcroat" unicode="&#x111;" horiz-adv-x="653" 
d="M91 70q-65 82 -46 191q10 54 35.5 100t63 79t86 52t104.5 19q70 0 126 -36t80 -99l36 206h-201l7 42h202l13 76h51l-13 -76h67l-7 -42h-68l-102 -582h-51l18 100q-86 -111 -230 -111q-107 0 -171 81zM96 257q-17 -90 36 -155t142 -65q42 0 81 14t71 39t55 59.5t33 75.5
l5 33q11 92 -44 148q-56 57 -138 57q-46 0 -86.5 -15.5t-72 -43t-53 -65t-29.5 -82.5z" />
    <glyph glyph-name="Emacron" unicode="&#x112;" horiz-adv-x="533" 
d="M512 831l-7 -44h-254l8 44h253zM556 650h-346l-48 -272h321l-9 -50h-320l-49 -278h350l-9 -50h-403l123 700h398z" />
    <glyph glyph-name="emacron" unicode="&#x113;" horiz-adv-x="588" 
d="M86 65q-62 77 -41 192q10 55 36.5 101.5t66 80.5t89 53t105.5 19q112 0 169 -78t37 -185q-3 -17 -6 -24h-451q-3 -42 8 -76.5t34.5 -59t57.5 -38t77 -13.5q124 0 190 92l39 -26q-36 -54 -100 -84t-136 -30q-114 0 -175 76zM338 463q-44 0 -82.5 -14t-70 -39t-53.5 -60
t-33 -77h401q9 90 -36 140t-126 50zM233 587l8 44h253l-7 -44h-254z" />
    <glyph glyph-name="Edotaccent" unicode="&#x116;" horiz-adv-x="533" 
d="M166 700h398l-8 -50h-346l-48 -272h321l-9 -50h-320l-49 -278h350l-9 -50h-403zM410 786q-13 -13 -33 -13q-19 0 -32.5 13t-7.5 34q3 20 19 33.5t35 13.5q16 0 26 -8.5t13 -21t-2 -26.5t-18 -25z" />
    <glyph glyph-name="edotaccent" unicode="&#x117;" horiz-adv-x="588" 
d="M86 65q-62 77 -41 192q10 55 36.5 101.5t66 80.5t89 53t105.5 19q112 0 169 -78t37 -185q-3 -17 -6 -24h-451q-3 -42 8 -76.5t34.5 -59t57.5 -38t77 -13.5q124 0 190 92l39 -26q-36 -54 -100 -84t-136 -30q-114 0 -175 76zM338 463q-44 0 -82.5 -14t-70 -39t-53.5 -60
t-33 -77h401q9 90 -36 140t-126 50zM392 586q-13 -13 -33 -13q-19 0 -32.5 13t-7.5 34q3 20 19 33.5t35 13.5q16 0 26 -8.5t13 -21t-2 -26.5t-18 -25z" />
    <glyph glyph-name="Eogonek" unicode="&#x118;" horiz-adv-x="534" 
d="M43 0l123 700h398l-8 -50h-346l-48 -272h321l-9 -50h-320l-49 -278h350l-9 -50q-97 -73 -106 -127q-3 -18 6 -29.5t28 -11.5q21 0 44 9l-8 -43q-20 -9 -54 -9q-38 0 -55.5 23.5t-11.5 56.5q12 65 102 131h-348z" />
    <glyph glyph-name="eogonek" unicode="&#x119;" horiz-adv-x="588" 
d="M86 65q-62 77 -41 192q10 55 36.5 101.5t66 80.5t89 53t105.5 19q112 0 169 -78t37 -185q-3 -17 -6 -24h-451q-3 -42 8 -76.5t34.5 -59t57.5 -38t77 -13.5q124 0 190 92l39 -26q-21 -33 -56 -58q-71 -60 -108 -103.5t-43 -72.5q-7 -37 36 -37q19 0 42 9l-7 -42
q-23 -10 -53 -10q-40 0 -57.5 21t-11.5 55q13 64 100 133q-38 -9 -78 -9q-114 0 -175 76zM338 463q-44 0 -82.5 -14t-70 -39t-53.5 -60t-33 -77h401q9 90 -36 140t-126 50z" />
    <glyph glyph-name="Ecaron" unicode="&#x11a;" horiz-adv-x="533" 
d="M166 700h398l-8 -50h-346l-48 -272h321l-9 -50h-320l-49 -278h350l-9 -50h-403zM314 897l64 -94l96 94h61l-130 -127h-59l-86 127h54z" />
    <glyph glyph-name="ecaron" unicode="&#x11b;" horiz-adv-x="588" 
d="M86 65q-62 77 -41 192q10 55 36.5 101.5t66 80.5t89 53t105.5 19q112 0 169 -78t37 -185q-3 -17 -6 -24h-451q-3 -42 8 -76.5t34.5 -59t57.5 -38t77 -13.5q124 0 190 92l39 -26q-36 -54 -100 -84t-136 -30q-114 0 -175 76zM338 463q-44 0 -82.5 -14t-70 -39t-53.5 -60
t-33 -77h401q9 90 -36 140t-126 50zM242 697h54l64 -94l96 94h61l-130 -127h-59z" />
    <glyph glyph-name="Gbreve" unicode="&#x11e;" horiz-adv-x="800" 
d="M127 98q-88 109 -61 264q13 75 50.5 139t93 110.5t125 73t146.5 26.5q102 0 173.5 -45.5t110.5 -123.5l-47 -25q-72 143 -239 143q-67 0 -127.5 -23t-108.5 -64t-81 -97t-44 -122q-22 -131 50 -223q72 -91 213 -91q56 0 108 16t94.5 46.5t74 74.5t46.5 99h-297l9 50h351
l-5 -26q-14 -71 -48.5 -128t-85.5 -98t-114.5 -63t-134.5 -22q-164 0 -252 109zM494 765q-60 0 -91.5 32.5t-21.5 89.5h48q-14 -78 71 -78q40 0 66 20.5t33 57.5h48q-10 -57 -50 -89.5t-103 -32.5z" />
    <glyph glyph-name="gbreve" unicode="&#x11f;" horiz-adv-x="650" 
d="M246 -211q-81 0 -138 32.5t-80 87.5l45 23q16 -42 59.5 -68.5t115.5 -26.5q97 0 157.5 48.5t76.5 138.5l14 78q-40 -54 -97.5 -83.5t-126.5 -29.5q-114 0 -178 79q-63 78 -45 193q9 53 34 99t63 79.5t86.5 52.5t103.5 19q72 0 128 -36t80 -100l22 125h51l-84 -476
q-20 -112 -96.5 -173.5t-190.5 -61.5zM99 257q-14 -93 37 -157q50 -63 144 -63q43 0 82 14.5t70 40t53.5 60.5t32.5 76l6 32q9 90 -47 146q-57 57 -138 57q-86 0 -156 -57t-84 -149zM373 565q-60 0 -91.5 32.5t-21.5 89.5h48q-14 -78 71 -78q40 0 66 20.5t33 57.5h48
q-10 -57 -50 -89.5t-103 -32.5z" />
    <glyph glyph-name="Gdotaccent" unicode="&#x120;" horiz-adv-x="800" 
d="M127 98q-88 109 -61 264q13 75 50.5 139t93 110.5t125 73t146.5 26.5q102 0 173.5 -45.5t110.5 -123.5l-47 -25q-72 143 -239 143q-67 0 -127.5 -23t-108.5 -64t-81 -97t-44 -122q-22 -131 50 -223q72 -91 213 -91q56 0 108 16t94.5 46.5t74 74.5t46.5 99h-297l9 50h351
l-5 -26q-14 -71 -48.5 -128t-85.5 -98t-114.5 -63t-134.5 -22q-164 0 -252 109zM528 786q-13 -13 -33 -13q-19 0 -32.5 13t-7.5 34q3 20 19 33.5t35 13.5q16 0 26 -8.5t13 -21t-2 -26.5t-18 -25z" />
    <glyph glyph-name="gdotaccent" unicode="&#x121;" horiz-adv-x="650" 
d="M246 -211q-81 0 -138 32.5t-80 87.5l45 23q16 -42 59.5 -68.5t115.5 -26.5q97 0 157.5 48.5t76.5 138.5l14 78q-40 -54 -97.5 -83.5t-126.5 -29.5q-114 0 -178 79q-63 78 -45 193q9 53 34 99t63 79.5t86.5 52.5t103.5 19q72 0 128 -36t80 -100l22 125h51l-84 -476
q-20 -112 -96.5 -173.5t-190.5 -61.5zM99 257q-14 -93 37 -157q50 -63 144 -63q43 0 82 14.5t70 40t53.5 60.5t32.5 76l6 32q9 90 -47 146q-57 57 -138 57q-86 0 -156 -57t-84 -149zM407 586q-13 -13 -33 -13q-19 0 -32.5 13t-7.5 34q3 20 19 33.5t35 13.5q16 0 26 -8.5
t13 -21t-2 -26.5t-18 -25z" />
    <glyph glyph-name="uni0122" unicode="&#x122;" horiz-adv-x="800" 
d="M127 98q-88 109 -61 264q13 75 50.5 139t93 110.5t125 73t146.5 26.5q102 0 173.5 -45.5t110.5 -123.5l-47 -25q-72 143 -239 143q-67 0 -127.5 -23t-108.5 -64t-81 -97t-44 -122q-22 -131 50 -223q72 -91 213 -91q56 0 108 16t94.5 46.5t74 74.5t46.5 99h-297l9 50h351
l-5 -26q-14 -71 -48.5 -128t-85.5 -98t-114.5 -63t-134.5 -22q-164 0 -252 109zM349 -70h51l-55 -170h-36z" />
    <glyph glyph-name="uni0123" unicode="&#x123;" horiz-adv-x="650" 
d="M246 -211q-81 0 -138 32.5t-80 87.5l45 23q16 -42 59.5 -68.5t115.5 -26.5q97 0 157.5 48.5t76.5 138.5l14 78q-40 -54 -97.5 -83.5t-126.5 -29.5q-114 0 -178 79q-63 78 -45 193q9 53 34 99t63 79.5t86.5 52.5t103.5 19q72 0 128 -36t80 -100l22 125h51l-84 -476
q-20 -112 -96.5 -173.5t-190.5 -61.5zM99 257q-14 -93 37 -157q50 -63 144 -63q43 0 82 14.5t70 40t53.5 60.5t32.5 76l6 32q9 90 -47 146q-57 57 -138 57q-86 0 -156 -57t-84 -149zM344 590l55 170h36l-40 -170h-51z" />
    <glyph glyph-name="Hbar" unicode="&#x126;" horiz-adv-x="740" 
d="M160 518h-66l8 44h66l24 138h54l-24 -138h406l24 138h54l-24 -138h66l-7 -44h-67l-91 -518h-54l59 335h-406l-59 -335h-54zM191 385h406l23 133h-406z" />
    <glyph glyph-name="hbar" unicode="&#x127;" horiz-adv-x="577" 
d="M46 0l102 582h-72l7 42h73l13 76h51l-13 -76h156l-7 -42h-157l-29 -168q70 97 191 97q45 0 79 -14t55 -40.5t29 -63.5t0 -82l-55 -311h-50l54 311q12 70 -18.5 111t-102.5 41q-73 0 -129.5 -45.5t-75.5 -135.5l-50 -282h-51z" />
    <glyph glyph-name="Itilde" unicode="&#x128;" horiz-adv-x="227" 
d="M43 0l123 700h53l-123 -700h-53zM71 783q9 55 32 81t52 26q34 0 67 -33q32 -32 54 -32q30 0 41 60h44q-3 -17 -9 -36t-16.5 -35t-25.5 -26.5t-36 -10.5q-32 0 -64 34q-32 32 -54 32q-31 0 -41 -60h-44z" />
    <glyph glyph-name="itilde" unicode="&#x129;" horiz-adv-x="204" 
d="M121 500h50l-88 -500h-50zM39 583q8 55 27.5 81t43.5 26q29 0 56 -33q26 -32 46 -32q25 0 34 60h37q-2 -15 -6.5 -33.5t-13 -35t-21.5 -28t-32 -11.5q-26 0 -54 34q-27 33 -45 33q-26 0 -35 -61h-37z" />
    <glyph glyph-name="Imacron" unicode="&#x12a;" horiz-adv-x="227" 
d="M80 787l8 44h253l-7 -44h-254zM166 700h53l-123 -700h-53z" />
    <glyph glyph-name="imacron" unicode="&#x12b;" horiz-adv-x="204" 
d="M68 587l8 44h186l-7 -44h-187zM33 0l88 500h50l-88 -500h-50z" />
    <glyph glyph-name="Iogonek" unicode="&#x12e;" horiz-adv-x="227" 
d="M41 -211q-35 0 -52.5 22t-12.5 58q9 60 68 136l122 695h53l-123 -700q-63 -84 -70 -127q-8 -41 34 -41q21 0 44 9l-7 -42q-20 -10 -56 -10z" />
    <glyph glyph-name="iogonek" unicode="&#x12f;" horiz-adv-x="204" 
d="M31 -211q-37 0 -54 24.5t-11 58.5q9 51 68 134l87 494h50l-88 -500q-57 -77 -66 -123q-4 -19 5.5 -32t27.5 -13q21 0 44 9l-7 -42q-23 -10 -56 -10zM167 621q-17 0 -26 11.5t-6 28.5q3 16 15.5 27.5t30.5 11.5q16 0 26 -11.5t7 -27.5q-3 -17 -16 -28.5t-31 -11.5z" />
    <glyph glyph-name="Idotaccent" unicode="&#x130;" horiz-adv-x="227" 
d="M43 0l123 700h53l-123 -700h-53zM239 786q-13 -13 -33 -13q-19 0 -32.5 13t-7.5 34q3 20 19 33.5t35 13.5q16 0 26 -8.5t13 -21t-2 -26.5t-18 -25z" />
    <glyph glyph-name="dotlessi" unicode="&#x131;" horiz-adv-x="204" 
d="M33 0l88 500h50l-88 -500h-50z" />
    <glyph glyph-name="uni0136" unicode="&#x136;" horiz-adv-x="571" 
d="M43 0l123 700h53l-57 -326l398 326h72l-415 -345l300 -355h-64l-296 349l-61 -349h-53zM190 -240l40 170h51l-55 -170h-36z" />
    <glyph glyph-name="uni0137" unicode="&#x137;" horiz-adv-x="483" 
d="M33 0l123 700h50l-75 -424l293 224h71l-313 -241l234 -259h-62l-227 251l-44 -251h-50zM142 -240l40 170h51l-55 -170h-36z" />
    <glyph glyph-name="Lacute" unicode="&#x139;" horiz-adv-x="493" 
d="M341 897l-112 -127h-50l100 127h62zM105 50h330l-9 -50h-383l123 700h53z" />
    <glyph glyph-name="lacute" unicode="&#x13a;" horiz-adv-x="205" 
d="M268 897h62l-112 -127h-50zM84 0l128 730h-50l-75 -424l-53 -306h50z" />
    <glyph glyph-name="uni013B" unicode="&#x13b;" horiz-adv-x="493" 
d="M105 50h330l-9 -50h-383l123 700h53zM167 -240l40 170h51l-55 -170h-36z" />
    <glyph glyph-name="uni013C" unicode="&#x13c;" horiz-adv-x="205" 
d="M34 0l53 306l75 424h50l-128 -730h-50zM-18 -240l40 170h51l-55 -170h-36z" />
    <glyph glyph-name="Lcaron" unicode="&#x13d;" horiz-adv-x="493" 
d="M43 0l123 700h53l-114 -650h330l-9 -50h-383zM356 700h50l-54 -170h-36z" />
    <glyph glyph-name="lcaron" unicode="&#x13e;" horiz-adv-x="247" 
d="M87 306l75 424h50l-128 -730h-50zM288 730h50l-54 -170h-36z" />
    <glyph glyph-name="Lslash" unicode="&#x141;" horiz-adv-x="517" 
d="M128 50h330l-9 -50h-383l45 253l-74 -43l9 53l74 44l69 393h53l-63 -359l198 117l-9 -53l-198 -117z" />
    <glyph glyph-name="lslash" unicode="&#x142;" horiz-adv-x="240" 
d="M256 453l-9 -52l-84 -52l-62 -349h-50l54 314l-82 -50l9 52l83 51l64 363h50l-57 -329z" />
    <glyph glyph-name="Nacute" unicode="&#x143;" horiz-adv-x="687" 
d="M166 700h42l312 -602l106 602h53l-123 -700h-43l-311 602l-106 -602h-53zM493 897h62l-112 -127h-50z" />
    <glyph glyph-name="nacute" unicode="&#x144;" 
d="M33 0l88 500h50l-15 -87q71 98 192 98q45 0 78.5 -14t55 -40.5t29 -63.5t0.5 -82l-55 -311h-51l55 311q12 70 -18.5 111t-102.5 41q-39 0 -73 -13t-61.5 -38t-46.5 -62.5t-28 -85.5v1l-47 -265h-50zM393 697h62l-112 -127h-50z" />
    <glyph glyph-name="uni0145" unicode="&#x145;" horiz-adv-x="687" 
d="M43 0l123 700h42l312 -602l106 602h53l-123 -700h-43l-311 602l-106 -602h-53zM263 -70h51l-55 -170h-36z" />
    <glyph glyph-name="uni0146" unicode="&#x146;" 
d="M33 0l88 500h50l-15 -87q71 98 192 98q45 0 78.5 -14t55 -40.5t29 -63.5t0.5 -82l-55 -311h-51l55 311q12 70 -18.5 111t-102.5 41q-39 0 -73 -13t-61.5 -38t-46.5 -62.5t-28 -85.5v1l-47 -265h-50zM221 -70h51l-55 -170h-36z" />
    <glyph glyph-name="Ncaron" unicode="&#x147;" horiz-adv-x="687" 
d="M43 0l123 700h42l312 -602l106 602h53l-123 -700h-43l-311 602l-106 -602h-53zM319 897h54l64 -94l96 94h61l-130 -127h-59z" />
    <glyph glyph-name="ncaron" unicode="&#x148;" 
d="M121 500h50l-15 -87q71 98 192 98q45 0 78.5 -14t55 -40.5t29 -63.5t0.5 -82l-55 -311h-51l55 311q12 70 -18.5 111t-102.5 41q-39 0 -73 -13t-61.5 -38t-46.5 -62.5t-28 -85.5v1l-47 -265h-50zM273 697l64 -94l96 94h61l-130 -127h-59l-86 127h54z" />
    <glyph glyph-name="Eng" unicode="&#x14a;" horiz-adv-x="687" 
d="M43 0l123 700h42l312 -602l106 602h53l-123 -700q-10 -57 -30.5 -95.5t-50.5 -61.5t-70 -33t-89 -10l9 51q81 0 122.5 34.5t55.5 114.5l2 15l-303 587l-106 -602h-53z" />
    <glyph glyph-name="eng" unicode="&#x14b;" 
d="M121 500h50l-15 -87q71 98 192 98q45 0 78.5 -14t55 -40.5t29 -63.5t0.5 -82l-65 -368q-14 -75 -58 -115t-114 -40h-10.5t-10.5 1l8 48q5 -1 10 -1h10q95 0 114 107l65 368q12 70 -18.5 111t-102.5 41q-39 0 -73 -13t-61.5 -38t-46.5 -62.5t-28 -85.5v1l-47 -265h-50z
" />
    <glyph glyph-name="Omacron" unicode="&#x14c;" horiz-adv-x="819" 
d="M127 98q-88 108 -62 260q13 76 51.5 140.5t95.5 111.5t127.5 74t147.5 27q149 0 238 -111q88 -110 63 -261q-13 -76 -52 -140t-96 -110.5t-128 -73t-147 -26.5q-150 0 -238 109zM119 350q-23 -131 50 -220q73 -90 205 -90q66 0 126.5 23.5t108.5 64.5t81 97.5t44 121.5
q22 130 -51 221q-74 92 -205 92q-67 0 -127.5 -24t-108 -66t-80 -98.5t-43.5 -121.5zM384 831h253l-7 -44h-254z" />
    <glyph glyph-name="omacron" unicode="&#x14d;" horiz-adv-x="612" 
d="M91 63q-67 73 -47 192q9 56 37.5 103t70 81t93.5 53t108 19q105 0 170 -75q65 -74 45 -190q-9 -56 -36.5 -103.5t-68 -81.5t-91.5 -53t-108 -19q-105 0 -173 74zM95 250q-17 -97 35 -155t139 -58q47 0 89 16.5t75 45.5t55 68t30 85q16 94 -36 153q-52 58 -138 58
q-47 -1 -88.5 -17t-74.5 -44t-55.5 -67t-30.5 -85zM244 631h253l-7 -44h-254z" />
    <glyph glyph-name="Ohungarumlaut" unicode="&#x150;" horiz-adv-x="819" 
d="M127 98q-88 108 -62 260q13 76 51.5 140.5t95.5 111.5t127.5 74t147.5 27q149 0 238 -111q88 -110 63 -261q-13 -76 -52 -140t-96 -110.5t-128 -73t-147 -26.5q-150 0 -238 109zM119 350q-23 -131 50 -220q73 -90 205 -90q66 0 126.5 23.5t108.5 64.5t81 97.5t44 121.5
q22 130 -51 221q-74 92 -205 92q-67 0 -127.5 -24t-108 -66t-80 -98.5t-43.5 -121.5zM620 900h58l-105 -130h-53zM526 900l-96 -130h-52l90 130h58z" />
    <glyph glyph-name="ohungarumlaut" unicode="&#x151;" horiz-adv-x="612" 
d="M91 63q-67 73 -47 192q19 116 111 186q91 70 198 70q105 0 170 -75q65 -74 45 -190q-9 -56 -36.5 -103.5t-68 -81.5t-91.5 -53t-108 -19q-105 0 -173 74zM95 250q-17 -97 35 -155t139 -58q47 0 89 16.5t75 45.5t55 68t30 85q16 94 -36 153q-52 58 -138 58
q-47 -1 -88.5 -17t-74.5 -44t-55.5 -67t-30.5 -85zM538 700l-105 -130h-53l100 130h58zM386 700l-96 -130h-52l90 130h58z" />
    <glyph glyph-name="OE" unicode="&#x152;" horiz-adv-x="916" 
d="M120 95q-82 106 -55 259q13 76 50.5 141.5t92 113.5t124.5 75t148 27q48 0 92 -11h375l-9 -50h-322l-48 -272h304l-9 -50h-303l-49 -278h327l-9 -50h-380q-49 -11 -96 -11q-151 0 -233 106zM119 350q-24 -130 44 -221q68 -89 199 -89q48 0 96 14l-9 -54l114 646
q-44 14 -92 14q-67 0 -126 -24.5t-105.5 -66.5t-77.5 -98.5t-43 -120.5z" />
    <glyph glyph-name="oe" unicode="&#x153;" horiz-adv-x="1061" 
d="M87 66q-63 76 -43 188q10 56 38 103.5t69 81.5t92.5 53t108.5 19q39 0 72.5 -11.5t60 -32t45.5 -49t28 -63.5q39 72 107.5 114t152.5 42q107 0 165 -79q58 -77 38 -184l-6 -24h-451q-3 -42 8 -76.5t34 -59t57.5 -38t77.5 -13.5q123 0 189 92l40 -26q-37 -54 -100 -84
t-132 -30q-84 0 -139.5 42.5t-72.5 114.5q-40 -72 -110.5 -114.5t-155.5 -42.5q-110 0 -173 77zM95 250q-17 -90 33 -152q49 -61 141 -61q45 0 86.5 17t74.5 46t55.5 67.5t30.5 82.5q15 91 -33 151q-50 62 -139 62q-46 0 -87.5 -16.5t-74.5 -45.5t-56 -67.5t-31 -83.5z
M973 273q9 91 -36 140.5t-126 49.5q-44 0 -82.5 -14t-70 -39t-53.5 -60t-33 -77h401z" />
    <glyph glyph-name="Racute" unicode="&#x154;" horiz-adv-x="613" 
d="M43 0l123 700h276q83 0 134 -65q52 -66 36 -149q-6 -36 -22.5 -67t-41 -56.5t-56 -43t-67.5 -26.5l121 -293h-55l-118 287h-227l-50 -287h-53zM155 337h224q33 0 63.5 12.5t55 33.5t41 49.5t22.5 60.5q12 64 -26 111q-37 46 -101 46h-224zM442 897h62l-112 -127h-50z" />
    <glyph glyph-name="racute" unicode="&#x155;" horiz-adv-x="318" 
d="M33 0l88 500h50l-15 -85q35 51 79.5 71.5t104.5 20.5l-9 -48q-72 0 -127 -46q-56 -47 -72 -135l-49 -278h-50zM300 697h62l-112 -127h-50z" />
    <glyph glyph-name="uni0156" unicode="&#x156;" horiz-adv-x="613" 
d="M43 0l123 700h276q83 0 134 -65q52 -66 36 -149q-6 -36 -22.5 -67t-41 -56.5t-56 -43t-67.5 -26.5l121 -293h-55l-118 287h-227l-50 -287h-53zM155 337h224q33 0 63.5 12.5t55 33.5t41 49.5t22.5 60.5q12 64 -26 111q-37 46 -101 46h-224zM260 -70h51l-55 -170h-36z" />
    <glyph glyph-name="uni0157" unicode="&#x157;" horiz-adv-x="318" 
d="M121 500h50l-15 -85q35 51 79.5 71.5t104.5 20.5l-9 -48q-72 0 -127 -46q-56 -47 -72 -135l-49 -278h-50zM-19 -240l40 170h51l-55 -170h-36z" />
    <glyph glyph-name="Rcaron" unicode="&#x158;" horiz-adv-x="613" 
d="M43 0l123 700h276q83 0 134 -65q52 -66 36 -149q-6 -36 -22.5 -67t-41 -56.5t-56 -43t-67.5 -26.5l121 -293h-55l-118 287h-227l-50 -287h-53zM155 337h224q33 0 63.5 12.5t55 33.5t41 49.5t22.5 60.5q12 64 -26 111q-37 46 -101 46h-224zM268 897h54l64 -94l96 94h61
l-130 -127h-59z" />
    <glyph glyph-name="rcaron" unicode="&#x159;" horiz-adv-x="318" 
d="M33 0l88 500h50l-15 -85q35 51 79.5 71.5t104.5 20.5l-9 -48q-72 0 -127 -46q-56 -47 -72 -135l-49 -278h-50zM126 697h54l64 -94l96 94h61l-130 -127h-59z" />
    <glyph glyph-name="Sacute" unicode="&#x15a;" horiz-adv-x="573" 
d="M70 178q12 -64 61 -101t131 -37q81 0 134 34t64 94q7 35 -2.5 61t-38.5 45q-29 18 -57.5 31.5t-60.5 25.5q-17 6 -30.5 11.5t-26.5 10.5t-25.5 11.5t-27.5 15.5q-42 25 -61 63.5t-11 98.5q9 42 31 73.5t53 53t69 32t79 10.5q85 0 138 -40t73 -106l-47 -24
q-38 119 -167 119q-32 0 -61 -8.5t-52.5 -24.5t-39.5 -39t-22 -51q-8 -35 2 -61t38 -46q14 -11 27.5 -18t24.5 -12t27.5 -11.5t38.5 -14.5q18 -7 32 -12t25 -10q24 -10 53.5 -28.5t45.5 -38.5t24.5 -52.5t1.5 -70.5q-9 -42 -31 -74.5t-55 -54t-75.5 -33t-91.5 -11.5
q-96 0 -158 43.5t-79 121.5zM496 897l-112 -127h-50l100 127h62z" />
    <glyph glyph-name="sacute" unicode="&#x15b;" horiz-adv-x="472" 
d="M71 126q11 -42 46.5 -65.5t90.5 -23.5t93.5 23.5t46.5 65.5q7 37 -20.5 60.5t-70.5 36.5q-30 9 -63 20t-59 28t-40 43.5t-6 66.5q6 33 23.5 57t42.5 40.5t55 24.5t61 8q60 0 102.5 -26t61.5 -74l-44 -23q-12 37 -46 56t-76 19q-23 0 -44.5 -5.5t-39 -17t-29.5 -28
t-16 -38.5q-7 -36 20.5 -59t69.5 -36q31 -9 63.5 -19.5t58 -28.5t39.5 -45t7 -68q-11 -60 -63 -94.5t-131 -34.5q-142 0 -178 114zM413 697l-112 -127h-50l100 127h62z" />
    <glyph glyph-name="Scedilla" unicode="&#x15e;" horiz-adv-x="573" 
d="M223 -9q-81 8 -132.5 50.5t-67.5 112.5l47 24q12 -64 61 -101t131 -37q81 0 134 34t64 94q7 35 -2.5 61t-38.5 45q-29 18 -57.5 31.5t-60.5 25.5q-17 6 -30.5 11.5t-26.5 10.5t-25.5 11.5t-27.5 15.5q-42 25 -61 63.5t-11 98.5q9 42 31 73.5t53 53t69 32t79 10.5
q85 0 138 -40t73 -106l-47 -24q-38 119 -167 119q-32 0 -61 -8.5t-52.5 -24.5t-39.5 -39t-22 -51q-8 -35 2 -61t38 -46q14 -11 27.5 -18t24.5 -12t27.5 -11.5t38.5 -14.5q18 -7 32 -12t25 -10q24 -10 53.5 -28.5t45.5 -38.5t24.5 -52.5t1.5 -70.5q-17 -83 -83.5 -127
t-161.5 -46l-8 -45q38 -5 60.5 -26.5t17.5 -52.5q-14 -78 -156 -78h-25.5t-27.5 2l8 41q27 -3 50 -3q97 0 106 42q4 21 -17 32t-62 11h-5l14 79v0z" />
    <glyph glyph-name="scedilla" unicode="&#x15f;" horiz-adv-x="472" 
d="M171 -9q-114 14 -145 112l45 23q11 -42 46.5 -65.5t90.5 -23.5t93.5 23.5t46.5 65.5q7 37 -20.5 60.5t-70.5 36.5q-30 9 -63 20t-59 28t-40 43.5t-6 66.5q6 33 23.5 57t42.5 40.5t55 24.5t61 8q60 0 102.5 -26t61.5 -74l-44 -23q-12 37 -46 56t-76 19q-23 0 -44.5 -5.5
t-39 -17t-29.5 -28t-16 -38.5q-7 -36 20.5 -59t69.5 -36q31 -9 63.5 -19.5t58 -28.5t39.5 -45t7 -68q-10 -58 -58.5 -92t-123.5 -37l-8 -45q38 -5 60.5 -26.5t17.5 -52.5q-14 -78 -156 -78h-25.5t-27.5 2l8 41q27 -3 50 -3q97 0 106 42q4 21 -17 32t-62 11h-5l14 79v0z" />
    <glyph glyph-name="Scaron" unicode="&#x160;" horiz-adv-x="573" 
d="M260 -11q-96 0 -158 43.5t-79 121.5l47 24q12 -64 61 -101t131 -37q81 0 134 34t64 94q7 35 -2.5 61t-38.5 45q-29 18 -57.5 31.5t-60.5 25.5q-17 6 -30.5 11.5t-26.5 10.5t-25.5 11.5t-27.5 15.5q-42 25 -61 63.5t-11 98.5q9 42 31 73.5t53 53t69 32t79 10.5
q85 0 138 -40t73 -106l-47 -24q-38 119 -167 119q-32 0 -61 -8.5t-52.5 -24.5t-39.5 -39t-22 -51q-8 -35 2 -61t38 -46q14 -11 27.5 -18t24.5 -12t27.5 -11.5t38.5 -14.5q18 -7 32 -12t25 -10q24 -10 53.5 -28.5t45.5 -38.5t24.5 -52.5t1.5 -70.5q-9 -42 -31 -74.5t-55 -54
t-75.5 -33t-91.5 -11.5zM260 897h54l64 -94l96 94h61l-130 -127h-59z" />
    <glyph glyph-name="scaron" unicode="&#x161;" horiz-adv-x="472" 
d="M71 126q11 -42 46.5 -65.5t90.5 -23.5t93.5 23.5t46.5 65.5q7 37 -20.5 60.5t-70.5 36.5q-30 9 -63 20t-59 28t-40 43.5t-6 66.5q6 33 23.5 57t42.5 40.5t55 24.5t61 8q60 0 102.5 -26t61.5 -74l-44 -23q-12 37 -46 56t-76 19q-23 0 -44.5 -5.5t-39 -17t-29.5 -28
t-16 -38.5q-7 -36 20.5 -59t69.5 -36q31 -9 63.5 -19.5t58 -28.5t39.5 -45t7 -68q-11 -60 -63 -94.5t-131 -34.5q-142 0 -178 114zM177 697h54l64 -94l96 94h61l-130 -127h-59z" />
    <glyph glyph-name="uni0162" unicode="&#x162;" horiz-adv-x="540" 
d="M102 700h494l-9 -50h-220l-114 -650h-54l114 650h-219zM190 -70h51l-55 -170h-36z" />
    <glyph glyph-name="uni0163" unicode="&#x163;" horiz-adv-x="377" 
d="M68 500h110l22 125l53 15l-25 -140h150l-9 -49h-149l-58 -325q-10 -61 20 -75q21 -9 62 -9q23 0 53 3l-7 -45q-36 -6 -64 -6q-68 0 -97.5 32t-16.5 100l57 325h-110zM117 -240l40 170h51l-55 -170h-36z" />
    <glyph glyph-name="Tcaron" unicode="&#x164;" horiz-adv-x="540" 
d="M102 700h494l-9 -50h-220l-114 -650h-54l114 650h-219zM300 897l64 -94l96 94h61l-130 -127h-59l-86 127h54z" />
    <glyph glyph-name="tcaron" unicode="&#x165;" horiz-adv-x="377" 
d="M68 500h110l22 125l53 15l-25 -140h150l-9 -49h-149l-58 -325q-10 -61 20 -75q21 -9 62 -9q23 0 53 3l-7 -45q-36 -6 -64 -6q-68 0 -97.5 32t-16.5 100l57 325h-110zM297 557l38 157h51l-53 -157h-36z" />
    <glyph glyph-name="Tbar" unicode="&#x166;" horiz-adv-x="540" 
d="M94 650l8 50h494l-9 -50h-220l-48 -276h152l-8 -48h-153l-57 -326h-54l57 326h-153l8 48h154l48 276h-219z" />
    <glyph glyph-name="tbar" unicode="&#x167;" horiz-adv-x="377" 
d="M68 500h110l22 125l53 15l-25 -140h150l-9 -49h-149l-30 -168h100l-7 -42h-101l-20 -115q-10 -61 20 -75q21 -9 62 -9q23 0 53 3l-7 -45q-36 -6 -64 -6q-68 0 -97 32t-17 100l20 115h-69l7 42h70l29 168h-110z" />
    <glyph glyph-name="Utilde" unicode="&#x168;" horiz-adv-x="667" 
d="M117 57q-62 70 -43 177l82 466h53l-82 -466q-15 -87 28.5 -140.5t139.5 -53.5q93 0 157.5 50.5t81.5 143.5l82 466h53l-82 -466q-10 -56 -35 -101.5t-63 -77.5t-87 -49t-106 -17q-117 0 -179 68zM289 783q9 55 32 81t52 26q34 0 67 -33q32 -32 54 -32q30 0 41 60h44
q-3 -17 -9 -36t-16.5 -35t-25.5 -26.5t-36 -10.5q-32 0 -64 34q-32 32 -54 32q-31 0 -41 -60h-44z" />
    <glyph glyph-name="utilde" unicode="&#x169;" 
d="M216 -11q-45 0 -78.5 14t-55 40.5t-29.5 63.5t0 82l55 311h51l-55 -311q-12 -70 18.5 -111t102.5 -41q39 0 73 13t61.5 38t46.5 62.5t28 85.5v-1l47 265h50l-88 -500h-50l15 87q-71 -98 -192 -98zM197 583q9 55 32 81t52 26q34 0 67 -33q32 -32 54 -32q30 0 41 60h44
q-13 -81 -60 -102q-14 -6 -27 -6q-32 0 -64 34q-32 32 -54 32q-31 0 -41 -60h-44z" />
    <glyph glyph-name="Umacron" unicode="&#x16a;" horiz-adv-x="667" 
d="M117 57q-62 70 -43 177l82 466h53l-82 -466q-15 -87 28.5 -140.5t139.5 -53.5q93 0 157.5 50.5t81.5 143.5l82 466h53l-82 -466q-10 -56 -35 -101.5t-63 -77.5t-87 -49t-106 -17q-117 0 -179 68zM298 787l8 44h253l-7 -44h-254z" />
    <glyph glyph-name="umacron" unicode="&#x16b;" 
d="M216 -11q-45 0 -78.5 14t-55 40.5t-29.5 63.5t0 82l55 311h51l-55 -311q-12 -70 18.5 -111t102.5 -41q39 0 73 13t61.5 38t46.5 62.5t28 85.5v-1l47 265h50l-88 -500h-50l15 87q-71 -98 -192 -98zM214 631h253l-7 -44h-254z" />
    <glyph glyph-name="Uring" unicode="&#x16e;" horiz-adv-x="667" 
d="M117 57q-62 70 -43 177l82 466h53l-82 -466q-15 -87 28.5 -140.5t139.5 -53.5q93 0 157.5 50.5t81.5 143.5l82 466h53l-82 -466q-10 -56 -35 -101.5t-63 -77.5t-87 -49t-106 -17q-117 0 -179 68zM416 720q-46 0 -70 28.5t-17 70.5t39.5 68.5t77.5 26.5q46 0 70 -28.5
t18 -70.5t-39.5 -68.5t-78.5 -26.5zM372 817q-5 -25 8.5 -41t40.5 -16t46.5 16t24.5 41q4 26 -10 41.5t-41 15.5q-26 0 -45.5 -15.5t-23.5 -41.5z" />
    <glyph glyph-name="uring" unicode="&#x16f;" 
d="M216 -11q-45 0 -78.5 14t-55 40.5t-29.5 63.5t0 82l55 311h51l-55 -311q-12 -70 18.5 -111t102.5 -41q39 0 73 13t61.5 38t46.5 62.5t28 85.5v-1l47 265h50l-88 -500h-50l15 87q-71 -98 -192 -98zM330 553q-46 0 -70 28.5t-17 70.5t39.5 68.5t77.5 26.5q46 0 70 -28.5
t18 -70.5t-39.5 -68.5t-78.5 -26.5zM286 650q-5 -25 8.5 -41t40.5 -16t46.5 16t24.5 41q4 26 -10 41.5t-41 15.5q-26 0 -45.5 -15.5t-23.5 -41.5z" />
    <glyph glyph-name="Uhungarumlaut" unicode="&#x170;" horiz-adv-x="667" 
d="M117 57q-62 70 -43 177l82 466h53l-82 -466q-15 -87 28.5 -140.5t139.5 -53.5q93 0 157.5 50.5t81.5 143.5l82 466h53l-82 -466q-10 -56 -35 -101.5t-63 -77.5t-87 -49t-106 -17q-117 0 -179 68zM600 900l-105 -130h-53l100 130h58zM448 900l-96 -130h-52l90 130h58z" />
    <glyph glyph-name="uhungarumlaut" unicode="&#x171;" 
d="M216 -11q-45 0 -78.5 14t-55 40.5t-29.5 63.5t0 82l55 311h51l-55 -311q-12 -70 18.5 -111t102.5 -41q39 0 73 13t61.5 38t46.5 62.5t28 85.5v-1l47 265h50l-88 -500h-50l15 87q-71 -98 -192 -98zM450 700h58l-105 -130h-53zM208 570l90 130h58l-96 -130h-52z" />
    <glyph glyph-name="Uogonek" unicode="&#x172;" horiz-adv-x="667" 
d="M117 57q-62 70 -43 177l82 466h53l-82 -466q-15 -87 28.5 -140.5t139.5 -53.5q93 0 157.5 50.5t81.5 143.5l82 466h53l-82 -466q-24 -135 -128 -200q-81 -60 -114 -94q-36 -37 -40 -68q-6 -40 38 -40q19 0 40 8l-7 -42q-21 -9 -50 -9q-40 0 -58.5 21.5t-13.5 55.5
q5 31 29 62.5t66 64.5q-11 -2 -24.5 -3t-28.5 -1q-117 0 -179 68z" />
    <glyph glyph-name="uogonek" unicode="&#x173;" 
d="M216 -11q-45 0 -78.5 14t-55 40.5t-29.5 63.5t0 82l55 311h51l-55 -311q-12 -70 18.5 -111t102.5 -41q39 0 73 13t61.5 38t46.5 62.5t28 85.5v-1l47 265h50l-88 -500q-97 -76 -106 -131q-6 -37 34 -37q21 0 44 9l-7 -42q-24 -10 -56 -10q-37 0 -54 21.5t-12 54.5
q9 57 109 145l13 77q-71 -98 -192 -98z" />
    <glyph glyph-name="Wcircumflex" unicode="&#x174;" horiz-adv-x="993" 
d="M112 700h53l71 -631l306 631h63l85 -631l293 631h56l-326 -700h-64l-85 631l-308 -631h-64zM450 770l130 127h59l87 -127h-55l-64 95l-97 -95h-60z" />
    <glyph glyph-name="wcircumflex" unicode="&#x175;" horiz-adv-x="770" 
d="M77 500h50l57 -436l217 436h52l-1 -2l64 -434l210 436h55l-246 -500h-55l-64 426l-214 -426h-55zM418 697h59l87 -127h-55l-64 95l-97 -95h-60z" />
    <glyph glyph-name="Ycircumflex" unicode="&#x176;" horiz-adv-x="570" 
d="M147 700l156 -324l270 324h63l-311 -373l-58 -327h-53l58 329l-180 371h55zM236 770l130 127h59l87 -127h-55l-64 95l-97 -95h-60z" />
    <glyph glyph-name="ycircumflex" unicode="&#x177;" horiz-adv-x="510" 
d="M12 -153q3 0 6 -0.5t6 -0.5q84 0 155 118l17 28l-139 508h51l121 -450l255 450h57l-312 -546q-42 -74 -96.5 -114.5t-114.5 -40.5q-4 0 -7 0.5t-7 0.5zM157 570l130 127h59l87 -127h-55l-64 95l-97 -95h-60z" />
    <glyph glyph-name="Ydieresis" unicode="&#x178;" horiz-adv-x="570" 
d="M147 700l156 -324l270 324h63l-311 -373l-58 -327h-53l58 329l-180 371h55zM465 777q-15 0 -24 10.5t-6 25.5q2 18 15.5 27t27.5 9t24 -9t6 -27q-3 -15 -15.5 -25.5t-27.5 -10.5zM285 777q-15 0 -24 10.5t-6 25.5q2 18 15.5 27t27.5 9t24 -9t6 -27q-3 -15 -15.5 -25.5
t-27.5 -10.5z" />
    <glyph glyph-name="Zacute" unicode="&#x179;" horiz-adv-x="523" 
d="M479 897l-112 -127h-50l100 127h62zM559 700l-8 -50l-482 -600h386l-9 -50h-447l9 50l482 600h-366l8 50h427z" />
    <glyph glyph-name="zacute" unicode="&#x17a;" horiz-adv-x="463" 
d="M415 697l-112 -127h-50l100 127h62zM461 500l-6 -33l-371 -418h307l-8 -49h-380l6 33l370 418h-287l9 49h360z" />
    <glyph glyph-name="Zdotaccent" unicode="&#x17b;" horiz-adv-x="523" 
d="M-1 0l9 50l482 600h-366l8 50h427l-8 -50l-482 -600h386l-9 -50h-447zM393 786q-13 -13 -33 -13q-19 0 -32.5 13t-7.5 34q3 20 19 33.5t35 13.5q16 0 26 -8.5t13 -21t-2 -26.5t-18 -25z" />
    <glyph glyph-name="zdotaccent" unicode="&#x17c;" horiz-adv-x="463" 
d="M3 0l6 33l370 418h-287l9 49h360l-6 -33l-371 -418h307l-8 -49h-380zM329 586q-13 -13 -33 -13q-19 0 -32.5 13t-7.5 34q3 20 19 33.5t35 13.5q16 0 26 -8.5t13 -21t-2 -26.5t-18 -25z" />
    <glyph glyph-name="Zcaron" unicode="&#x17d;" horiz-adv-x="523" 
d="M8 50l482 600h-366l8 50h427l-8 -50l-482 -600h386l-9 -50h-447zM297 897l64 -94l96 94h61l-130 -127h-59l-86 127h54z" />
    <glyph glyph-name="zcaron" unicode="&#x17e;" horiz-adv-x="463" 
d="M9 33l370 418h-287l9 49h360l-6 -33l-371 -418h307l-8 -49h-380zM233 697l64 -94l96 94h61l-130 -127h-59l-86 127h54z" />
    <glyph glyph-name="florin" unicode="&#x192;" horiz-adv-x="436" 
d="M-71 -153q23 -10 46 -10q35 0 62.5 22.5t42.5 64.5l139 402h-114l9 49h121l70 202q23 67 64 101.5t92 34.5q14 0 27.5 -2.5t27.5 -7.5l-8 -50q-23 10 -46 10q-35 0 -62.5 -22.5t-42.5 -64.5l-69 -201h120l-9 -49h-128l-139 -403q-23 -67 -64.5 -101.5t-92.5 -34.5
q-14 0 -27 2.5t-27 7.5z" />
    <glyph glyph-name="Ohorn" unicode="&#x1a0;" horiz-adv-x="819" 
d="M127 98q-88 108 -62 260q13 76 51.5 140.5t95.5 111.5t127.5 74t147.5 27q45 0 89 -11q23 0 47 16t32 59h51q-7 -36 -25.5 -61t-43.5 -39q49 -27 88 -75q88 -110 63 -261q-13 -76 -52 -140t-96 -110.5t-128 -73t-147 -26.5q-150 0 -238 109zM119 350q-23 -131 50 -220
q73 -90 205 -90q66 0 126.5 23.5t108.5 64.5t81 97.5t44 121.5q22 130 -51 221q-74 92 -205 92q-67 0 -127.5 -24t-108 -66t-80 -98.5t-43.5 -121.5z" />
    <glyph glyph-name="ohorn" unicode="&#x1a1;" horiz-adv-x="612" 
d="M91 63q-67 73 -47 192q9 56 37.5 103t70 81t93.5 53t108 19q38 0 74 -11h2q12 0 24.5 4t23.5 12.5t19.5 23t12.5 35.5h51q-7 -38 -28 -63.5t-48 -39.5q21 -15 39 -36q64 -75 45 -190q-9 -56 -36.5 -103.5t-68 -81.5t-91.5 -53t-108 -19q-105 0 -173 74zM95 250
q-17 -97 35 -155t139 -58q47 0 89 16.5t75 45.5t55 68t30 85q16 94 -36 153q-52 58 -138 58q-47 -1 -88.5 -17t-74.5 -44t-55.5 -67t-30.5 -85z" />
    <glyph glyph-name="Uhorn" unicode="&#x1af;" horiz-adv-x="667" 
d="M117 57q-62 70 -43 177l82 466h53l-82 -466q-15 -87 28.5 -140.5t139.5 -53.5q93 0 157.5 50.5t81.5 143.5l82 466h14q35 0 57.5 20t27.5 55h51q-9 -48 -38.5 -76t-65.5 -38l-75 -427q-10 -56 -35 -101.5t-63 -77.5t-87 -49t-106 -17q-117 0 -179 68z" />
    <glyph glyph-name="uhorn" unicode="&#x1b0;" 
d="M216 -11q-45 0 -78.5 14t-55 40.5t-29.5 63.5t0 82l55 311h51l-55 -311q-12 -70 18.5 -111t102.5 -41q39 0 73 13t61.5 38t46.5 62.5t28 85.5v-1l47 265h11q35 0 57.5 20t27.5 55h51q-9 -48 -38.5 -76t-65.5 -38l-81 -461h-50l15 87q-71 -98 -192 -98z" />
    <glyph glyph-name="uni0218" unicode="&#x218;" horiz-adv-x="573" 
d="M70 178q12 -64 61 -101t131 -37q81 0 134 34t64 94q7 35 -2.5 61t-38.5 45q-29 18 -57.5 31.5t-60.5 25.5q-17 6 -30.5 11.5t-26.5 10.5t-25.5 11.5t-27.5 15.5q-42 25 -61 63.5t-11 98.5q9 42 31 73.5t53 53t69 32t79 10.5q85 0 138 -40t73 -106l-47 -24
q-38 119 -167 119q-32 0 -61 -8.5t-52.5 -24.5t-39.5 -39t-22 -51q-8 -35 2 -61t38 -46q14 -11 27.5 -18t24.5 -12t27.5 -11.5t38.5 -14.5q18 -7 32 -12t25 -10q24 -10 53.5 -28.5t45.5 -38.5t24.5 -52.5t1.5 -70.5q-9 -42 -31 -74.5t-55 -54t-75.5 -33t-91.5 -11.5
q-96 0 -158 43.5t-79 121.5zM222 -70h51l-55 -170h-36z" />
    <glyph glyph-name="uni0219" unicode="&#x219;" horiz-adv-x="472" 
d="M71 126q11 -42 46.5 -65.5t90.5 -23.5t93.5 23.5t46.5 65.5q7 37 -20.5 60.5t-70.5 36.5q-30 9 -63 20t-59 28t-40 43.5t-6 66.5q6 33 23.5 57t42.5 40.5t55 24.5t61 8q60 0 102.5 -26t61.5 -74l-44 -23q-12 37 -46 56t-76 19q-23 0 -44.5 -5.5t-39 -17t-29.5 -28
t-16 -38.5q-7 -36 20.5 -59t69.5 -36q31 -9 63.5 -19.5t58 -28.5t39.5 -45t7 -68q-11 -60 -63 -94.5t-131 -34.5q-142 0 -178 114zM130 -240l40 170h51l-55 -170h-36z" />
    <glyph glyph-name="uni021A" unicode="&#x21a;" horiz-adv-x="540" 
d="M102 700h494l-9 -50h-220l-114 -650h-54l114 650h-219zM190 -70h51l-55 -170h-36z" />
    <glyph glyph-name="uni021B" unicode="&#x21b;" horiz-adv-x="377" 
d="M68 500h110l22 125l53 15l-25 -140h150l-9 -49h-149l-58 -325q-10 -61 20 -75q21 -9 62 -9q23 0 53 3l-7 -45q-36 -6 -64 -6q-68 0 -97.5 32t-16.5 100l57 325h-110zM117 -240l40 170h51l-55 -170h-36z" />
    <glyph glyph-name="circumflex" unicode="&#x2c6;" horiz-adv-x="315" 
d="M76 570l130 127h59l87 -127h-55l-64 95l-97 -95h-60z" />
    <glyph glyph-name="caron" unicode="&#x2c7;" horiz-adv-x="315" 
d="M99 697h54l64 -94l96 94h61l-130 -127h-59z" />
    <glyph glyph-name="breve" unicode="&#x2d8;" horiz-adv-x="307" 
d="M210 565q-60 0 -91.5 32.5t-21.5 89.5h48q-14 -78 71 -78q40 0 66 20.5t33 57.5h48q-10 -57 -50 -89.5t-103 -32.5z" />
    <glyph glyph-name="dotaccent" unicode="&#x2d9;" horiz-adv-x="107" 
d="M155 586q-13 -13 -33 -13q-19 0 -32.5 13t-7.5 34q3 20 19 33.5t35 13.5q16 0 26 -8.5t13 -21t-2 -26.5t-18 -25z" />
    <glyph glyph-name="ring" unicode="&#x2da;" horiz-adv-x="245" 
d="M178 553q-46 0 -70 28.5t-17 70.5t39.5 68.5t77.5 26.5q46 0 70 -28.5t18 -70.5t-39.5 -68.5t-78.5 -26.5zM134 650q-5 -25 8.5 -41t40.5 -16t46.5 16t24.5 41q4 26 -10 41.5t-41 15.5q-26 0 -45.5 -15.5t-23.5 -41.5z" />
    <glyph glyph-name="ogonek" unicode="&#x2db;" horiz-adv-x="174" 
d="M20 -211q-38 0 -55.5 23.5t-11.5 56.5q12 65 102 131h55q-97 -73 -106 -127q-3 -18 6 -29.5t28 -11.5q21 0 44 9l-8 -43q-20 -9 -54 -9z" />
    <glyph glyph-name="tilde" unicode="&#x2dc;" horiz-adv-x="312" 
d="M79 583q9 55 32 81t52 26q34 0 67 -33q32 -32 54 -32q30 0 41 60h44q-13 -80 -61 -102q-14 -6 -26 -6q-32 0 -64 34q-32 32 -54 32q-31 0 -41 -60h-44z" />
    <glyph glyph-name="hungarumlaut" unicode="&#x2dd;" horiz-adv-x="317" 
d="M318 700h58l-105 -130h-53zM76 570l90 130h58l-96 -130h-52z" />
    <glyph glyph-name="gravecomb" unicode="&#x300;" horiz-adv-x="0" 
d="M-11 570l-70 127h60l58 -127h-48z" />
    <glyph glyph-name="acutecomb" unicode="&#x301;" horiz-adv-x="0" 
d="M-3 697h62l-112 -127h-50z" />
    <glyph glyph-name="uni0302" unicode="&#x302;" horiz-adv-x="0" 
d="M-239 570l130 127h59l87 -127h-55l-64 95l-97 -95h-60z" />
    <glyph glyph-name="tildecomb" unicode="&#x303;" horiz-adv-x="0" 
d="M-233 583q9 55 32 81t52 26q34 0 67 -33q32 -32 54 -32q30 0 41 60h44q-13 -81 -60 -102q-14 -6 -27 -6q-32 0 -64 34q-32 32 -54 32q-31 0 -41 -60h-44z" />
    <glyph glyph-name="uni0304" unicode="&#x304;" horiz-adv-x="0" 
d="M-214 587l8 44h253l-7 -44h-254z" />
    <glyph glyph-name="uni0306" unicode="&#x306;" horiz-adv-x="0" 
d="M-103 565q-60 0 -91.5 32.5t-21.5 89.5h48q-14 -78 71 -78q40 0 66 20.5t33 57.5h48q-10 -57 -50 -89.5t-103 -32.5z" />
    <glyph glyph-name="uni0307" unicode="&#x307;" horiz-adv-x="0" 
d="M25 586q-13 -13 -33 -13q-19 0 -32.5 13t-7.5 34q3 20 19 33.5t35 13.5q16 0 26 -8.5t13 -21t-2 -26.5t-18 -25z" />
    <glyph glyph-name="uni0308" unicode="&#x308;" horiz-adv-x="0" 
d="M2 577q-15 0 -24 10.5t-6 25.5q2 18 15.5 27t27.5 9t24 -9t6 -27q-3 -15 -15.5 -25.5t-27.5 -10.5zM-178 577q-15 0 -24 10.5t-6 25.5q2 18 15 27t27 9t24.5 -9t6.5 -27q-3 -15 -15.5 -25.5t-27.5 -10.5z" />
    <glyph glyph-name="uni030A" unicode="&#x30a;" horiz-adv-x="0" 
d="M-67 553q-46 0 -70 28.5t-17 70.5t39.5 68.5t77.5 26.5q46 0 70 -28.5t18 -70.5t-39.5 -68.5t-78.5 -26.5zM-111 650q-5 -25 8.5 -41t40.5 -16t46.5 16t24.5 41q4 26 -10 41.5t-41 15.5q-26 0 -45.5 -15.5t-23.5 -41.5z" />
    <glyph glyph-name="uni030B" unicode="&#x30b;" horiz-adv-x="0" 
d="M4 700h58l-105 -130h-53zM-238 570l90 130h58l-96 -130h-52z" />
    <glyph glyph-name="uni030C" unicode="&#x30c;" horiz-adv-x="0" 
d="M-216 697h54l64 -94l96 94h61l-130 -127h-59z" />
    <glyph glyph-name="uni0312" unicode="&#x312;" horiz-adv-x="0" 
d="M105 960l-40 -170h-51l55 170h36z" />
    <glyph glyph-name="uni0326" unicode="&#x326;" horiz-adv-x="0" 
d="M-167 -240l40 170h51l-55 -170h-36z" />
    <glyph glyph-name="uni0327" unicode="&#x327;" horiz-adv-x="0" 
d="M-87 -135q-14 -78 -156 -78h-25.5t-27.5 2l8 41q27 -3 50 -3q97 0 106 42q4 21 -17 32t-62 11h-5l16 88h45l-10 -56q38 -5 60.5 -26.5t17.5 -52.5z" />
    <glyph glyph-name="uni0328" unicode="&#x328;" horiz-adv-x="0" 
d="M-154 -211q-38 0 -55.5 23.5t-11.5 56.5q12 65 102 131h55q-97 -73 -106 -127q-3 -18 6 -29.5t28 -11.5q21 0 44 9l-8 -43q-20 -9 -54 -9z" />
    <glyph glyph-name="uni0394" unicode="&#x394;" horiz-adv-x="626" 
d="M420 700l149 -700h-600l395 700h56zM57 50h448l-122 585z" />
    <glyph glyph-name="uni03A9" unicode="&#x3a9;" horiz-adv-x="818" 
d="M15 0l9 50h163q-36 22 -63 54.5t-43 72.5t-20.5 85.5t4.5 94.5q14 77 53 142t95.5 112t127.5 73.5t149 26.5q148 0 236 -109q88 -108 62 -259q-17 -97 -76.5 -173.5t-147.5 -119.5h160l-9 -50h-272l9 50q53 13 100 41t84.5 68t63 88.5t35.5 102.5q24 129 -51 220
q-74 90 -203 90q-66 0 -126.5 -24.5t-109 -66.5t-81.5 -98.5t-45 -120.5q-20 -108 30 -191q50 -84 146 -109l-9 -50h-271z" />
    <glyph glyph-name="pi" unicode="&#x3c0;" horiz-adv-x="650" 
d="M77 500h584l-9 -49h-83l-79 -451h-51l79 451h-312l-79 -451h-51l79 451h-86z" />
    <glyph glyph-name="uni0401" unicode="&#x401;" horiz-adv-x="533" 
d="M43 0l123 700h398l-8 -50h-346l-48 -272h321l-9 -50h-320l-49 -278h350l-9 -50h-403zM466 777q-15 0 -24 10.5t-6 25.5q2 18 15.5 27t27.5 9t24 -9t6 -27q-3 -15 -15.5 -25.5t-27.5 -10.5zM286 777q-15 0 -24 10.5t-6 25.5q2 18 15.5 27t27.5 9t24 -9t6 -27
q-3 -15 -15.5 -25.5t-27.5 -10.5z" />
    <glyph glyph-name="uni0402" unicode="&#x402;" horiz-adv-x="692" 
d="M102 700h487l-8 -50h-234l-38 -219q87 40 168 40q87 0 131.5 -46.5t30.5 -137.5l-25 -139q-28 -156 -169 -156h-12t-12 1l8 49q6 -1 12 -1h11q47 0 73 26t36 81l24 139q24 136 -112 136q-83 0 -174 -45l-66 -378h-54l114 650h-199z" />
    <glyph glyph-name="uni0403" unicode="&#x403;" horiz-adv-x="493" 
d="M488 896l-112 -127h-50l100 127h62zM549 700l-8 -50h-331l-114 -650h-53l123 700h383z" />
    <glyph glyph-name="uni0404" unicode="&#x404;" horiz-adv-x="751" 
d="M123 97q-85 108 -58 260q13 75 50.5 139.5t92.5 112.5t124 75t146 27q100 0 173.5 -45.5t109.5 -123.5l-47 -25q-68 143 -237 143q-64 0 -121.5 -21.5t-104 -60t-80 -90.5t-49.5 -113h397l-9 -50h-396q-12 -121 59 -204q70 -81 197 -81q85 0 159.5 39.5t122.5 109.5
l45 -28q-28 -39 -65 -71t-79.5 -54.5t-90 -34.5t-97.5 -12q-157 0 -242 108z" />
    <glyph glyph-name="uni0405" unicode="&#x405;" horiz-adv-x="573" 
d="M70 178q12 -64 61 -101t131 -37q81 0 134 34t64 94q7 35 -2.5 61t-38.5 45q-29 18 -57.5 31.5t-60.5 25.5q-17 6 -30.5 11.5t-26.5 10.5t-25.5 11.5t-27.5 15.5q-42 25 -61 63.5t-11 98.5q9 42 31 73.5t53 53t69 32t79 10.5q85 0 138 -40t73 -106l-47 -24
q-38 119 -167 119q-32 0 -61 -8.5t-52.5 -24.5t-39.5 -39t-22 -51q-8 -35 2 -61t38 -46q14 -11 27.5 -18t24.5 -12t27.5 -11.5t38.5 -14.5q18 -7 32 -12t25 -10q24 -10 53.5 -28.5t45.5 -38.5t24.5 -52.5t1.5 -70.5q-9 -42 -31 -74.5t-55 -54t-75.5 -33t-91.5 -11.5
q-96 0 -158 43.5t-79 121.5z" />
    <glyph glyph-name="uni0406" unicode="&#x406;" horiz-adv-x="227" 
d="M166 700h53l-123 -700h-53z" />
    <glyph glyph-name="uni0407" unicode="&#x407;" horiz-adv-x="227" 
d="M166 700h53l-123 -700h-53zM295 777q-15 0 -24 10.5t-6 25.5q2 18 15.5 27t27.5 9t24 -9t6 -27q-3 -15 -15.5 -25.5t-27.5 -10.5zM115 777q-15 0 -24 10.5t-6 25.5q2 18 15.5 27t27.5 9t24 -9t6 -27q-3 -15 -15.5 -25.5t-27.5 -10.5z" />
    <glyph glyph-name="uni0408" unicode="&#x408;" horiz-adv-x="553" 
d="M214 -11q-75 0 -126 30t-69 90l47 26q27 -95 151 -95q76 0 129.5 39.5t66.5 112.5l89 508h53l-89 -509q-9 -49 -31 -86.5t-55 -63t-75.5 -39t-90.5 -13.5z" />
    <glyph glyph-name="uni0409" unicode="&#x409;" horiz-adv-x="996" 
d="M230 296q-9 -50 -23.5 -103t-40 -96.5t-66.5 -71t-102 -27.5h-12t-12 1l9 47q5 -1 8.5 -1h8.5q61 0 103 49q49 57 75 203l70 403h409l-54 -307h168q85 0 135 -59q51 -60 36 -143q-8 -44 -30.5 -79t-55 -60t-72.5 -38.5t-83 -13.5h-220l115 650h-303zM543 50h167
q32 0 62 11t54.5 30.5t41 46.5t21.5 59q11 65 -26 105q-38 41 -101 41h-168z" />
    <glyph glyph-name="uni040A" unicode="&#x40a;" horiz-adv-x="985" 
d="M166 700h53l-54 -307h373l54 307h54l-54 -307h167q85 0 136 -59t36 -143q-8 -44 -30.5 -79.5t-55 -60t-73 -38t-83.5 -13.5h-220l60 343h-373l-60 -343h-53zM698 50q32 0 62 11t54.5 30.5t41 46.5t21.5 59q11 65 -26 105q-38 41 -101 41h-167l-51 -293h166z" />
    <glyph glyph-name="uni040B" unicode="&#x40b;" horiz-adv-x="699" 
d="M102 700h487l-8 -50h-234l-38 -219q87 40 168 40q87 0 131.5 -46.5t30.5 -137.5l-51 -287h-53l50 287q24 136 -112 136q-83 0 -174 -45l-66 -378h-54l114 650h-199z" />
    <glyph glyph-name="uni040C" unicode="&#x40c;" horiz-adv-x="571" 
d="M166 700h53l-57 -326l398 326h72l-415 -345l300 -355h-64l-296 349l-61 -349h-53zM436 896h62l-112 -127h-50z" />
    <glyph glyph-name="uni040E" unicode="&#x40e;" horiz-adv-x="566" 
d="M78 47q33 0 59 7t46.5 21t38 35t34.5 49l18 30l-162 511h52l144 -454l269 454h55l-322 -546q-48 -82 -100.5 -118.5t-119.5 -36.5q-5 0 -10 0.5t-10 0.5zM265 830h253l-7 -44h-254z" />
    <glyph glyph-name="uni040F" unicode="&#x40f;" horiz-adv-x="673" 
d="M166 700h53l-114 -650h393l114 650h54l-123 -700h-224l-24 -134h-53l23 134h-222z" />
    <glyph glyph-name="uni0410" unicode="&#x410;" horiz-adv-x="629" 
d="M366 700h56l148 -700h-54l-36 178h-351l-100 -178h-58zM469 228l-83 407l-229 -407h312z" />
    <glyph glyph-name="uni0411" unicode="&#x411;" horiz-adv-x="586" 
d="M43 0l123 700h403l-8 -50h-351l-41 -237h200q81 0 134 -65q52 -64 36 -149q-8 -44 -30.5 -80.5t-55 -62.5t-73 -41t-84.5 -15h-253zM305 50q33 0 63.5 12.5t55 34t41.5 50t22 60.5q13 67 -25 111q-38 45 -102 45h-200l-55 -313h200z" />
    <glyph glyph-name="uni0412" unicode="&#x412;" horiz-adv-x="623" 
d="M166 700h265q80 0 128 -56q49 -56 37 -132q-8 -49 -39 -89t-77 -62q49 -21 73.5 -67.5t15.5 -106.5q-12 -77 -75 -133q-61 -54 -151 -54h-300zM105 50h243q31 0 59 10.5t50.5 29.5t38 45t20.5 56q11 59 -23 100q-33 41 -90 41h-249zM163 382h226q28 0 54 11t46.5 29
t34.5 42.5t19 51.5q10 55 -23 95q-33 39 -91 39h-219z" />
    <glyph glyph-name="uni0413" unicode="&#x413;" horiz-adv-x="493" 
d="M549 700l-8 -50h-331l-114 -650h-53l123 700h383z" />
    <glyph glyph-name="uni0414" unicode="&#x414;" horiz-adv-x="690" 
d="M-49 -134l32 184h56q86 83 116 251l70 399h432l-114 -650h74l-33 -184h-53l23 134h-526l-24 -134h-53zM490 50l106 600h-326l-62 -350q-28 -163 -103 -250h385z" />
    <glyph glyph-name="uni0415" unicode="&#x415;" horiz-adv-x="533" 
d="M556 650h-346l-48 -272h321l-9 -50h-320l-49 -278h350l-9 -50h-403l123 700h398z" />
    <glyph glyph-name="uni0416" unicode="&#x416;" horiz-adv-x="836" 
d="M359 366l-249 334h57l246 -327l58 327h53l-58 -328l353 328h68l-371 -346l256 -354h-57l-253 348l-61 -348h-53l61 347l-364 -347h-69z" />
    <glyph glyph-name="uni0417" unicode="&#x417;" horiz-adv-x="558" 
d="M70 167q15 -60 56 -94t124 -34q42 0 76.5 11t60.5 31t43 47.5t23 60.5q11 64 -26 103.5t-113 39.5h-79l8 50h56q33 0 64 9.5t56.5 28t43 45t23.5 60.5q10 60 -27.5 98t-110.5 38q-127 0 -197 -118l-43 28q83 140 249 140q94 0 145 -56q51 -55 37 -138q-18 -112 -131 -157
q57 -22 82.5 -69t15.5 -108q-16 -88 -84.5 -141t-180.5 -53q-96 0 -149 42t-71 112z" />
    <glyph glyph-name="uni0418" unicode="&#x418;" horiz-adv-x="687" 
d="M43 0l123 700h53l-105 -597l518 597h47l-123 -700h-53l105 597l-519 -597h-46z" />
    <glyph glyph-name="uni0419" unicode="&#x419;" horiz-adv-x="687" 
d="M43 0l123 700h53l-105 -597l518 597h47l-123 -700h-53l105 597l-519 -597h-46zM315 831h253l-7 -44h-254z" />
    <glyph glyph-name="uni041A" unicode="&#x41a;" horiz-adv-x="571" 
d="M166 700h53l-57 -326l398 326h72l-415 -345l300 -355h-64l-296 349l-61 -349h-53z" />
    <glyph glyph-name="uni041B" unicode="&#x41b;" horiz-adv-x="698" 
d="M-17 46q5 -1 8.5 -1h8.5q61 0 103 49q49 57 75 203l70 403h443l-123 -700h-54l115 650h-336l-63 -354q-9 -50 -23.5 -102.5t-40 -96t-66.5 -71.5t-102 -28h-12t-12 1z" />
    <glyph glyph-name="uni041C" unicode="&#x41c;" horiz-adv-x="807" 
d="M43 0l123 700h63l178 -417l324 417h68l-123 -700h-53l108 617l-331 -425h-9l-185 434l-110 -626h-53z" />
    <glyph glyph-name="uni041D" unicode="&#x41d;" horiz-adv-x="687" 
d="M166 700h53l-55 -315h407l55 315h53l-123 -700h-53l59 335h-407l-59 -335h-53z" />
    <glyph glyph-name="uni041E" unicode="&#x41e;" horiz-adv-x="819" 
d="M127 98q-88 108 -62 260q13 76 51.5 140.5t95.5 111.5t127.5 74t147.5 27q149 0 238 -111q88 -110 63 -261q-13 -76 -52 -140t-96 -110.5t-128 -73t-147 -26.5q-150 0 -238 109zM119 350q-23 -131 50 -220q73 -90 205 -90q66 0 126.5 23.5t108.5 64.5t81 97.5t44 121.5
q22 130 -51 221q-74 92 -205 92q-67 0 -127.5 -24t-108 -66t-80 -98.5t-43.5 -121.5z" />
    <glyph glyph-name="uni041F" unicode="&#x41f;" horiz-adv-x="673" 
d="M166 700h500l-123 -700h-54l114 650h-393l-114 -650h-53z" />
    <glyph glyph-name="uni0420" unicode="&#x420;" horiz-adv-x="586" 
d="M43 0l123 700h233q98 0 149 -62q52 -63 36 -155q-9 -51 -33.5 -91t-60 -68t-80.5 -42.5t-96 -14.5h-171l-47 -267h-53zM152 317h168q40 0 75.5 12t64 34.5t47.5 54.5t25 72q6 36 -1.5 65.5t-25.5 50.5t-46 32.5t-64 11.5h-185z" />
    <glyph glyph-name="uni0421" unicode="&#x421;" horiz-adv-x="751" 
d="M123 97q-85 108 -58 260q13 75 50.5 139.5t92.5 112.5t124 75t146 27q100 0 173.5 -45.5t109.5 -123.5l-47 -25q-68 143 -237 143q-67 0 -127.5 -24t-108.5 -65.5t-80.5 -98t-43.5 -122.5q-22 -130 49 -221q71 -89 204 -89q85 0 159.5 39.5t122.5 109.5l45 -28
q-28 -39 -65 -71t-79.5 -54.5t-90 -34.5t-97.5 -12q-157 0 -242 108z" />
    <glyph glyph-name="uni0422" unicode="&#x422;" horiz-adv-x="540" 
d="M102 700h494l-9 -50h-220l-114 -650h-54l114 650h-219z" />
    <glyph glyph-name="uni0423" unicode="&#x423;" horiz-adv-x="566" 
d="M78 47q33 0 59 7t46.5 21t38 35t34.5 49l18 30l-162 511h52l144 -454l269 454h55l-322 -546q-48 -82 -100.5 -118.5t-119.5 -36.5q-5 0 -10 0.5t-10 0.5z" />
    <glyph glyph-name="uni0424" unicode="&#x424;" horiz-adv-x="806" 
d="M113 158q-83 73 -61 197q13 71 51 121t91 82t117.5 47t129.5 17l14 78h53l-14 -79q150 -8 233 -80q84 -74 62 -196q-13 -71 -51 -120.5t-92 -81.5t-118.5 -47.5t-128.5 -17.5l-14 -78h-53l14 79q-75 4 -133 23t-100 56zM105 350q-9 -51 4 -91.5t45.5 -68.5t83 -43.5
t116.5 -18.5l79 444q-68 -3 -124 -18.5t-98.5 -43.5t-69.5 -68.5t-36 -91.5zM407 128q133 4 222 62q87 56 107 160q9 51 -4 91.5t-46 69t-83.5 44t-116.5 18.5z" />
    <glyph glyph-name="uni0425" unicode="&#x425;" horiz-adv-x="573" 
d="M-21 0l298 363l-162 337h55l141 -295l242 295h63l-281 -343l171 -357h-55l-151 315l-258 -315h-63z" />
    <glyph glyph-name="uni0426" unicode="&#x426;" horiz-adv-x="690" 
d="M43 0l123 700h53l-114 -650h387l114 650h53l-114 -650h73l-32 -184h-53l23 134h-513z" />
    <glyph glyph-name="uni0427" unicode="&#x427;" horiz-adv-x="627" 
d="M310 257q-58 0 -100 14.5t-68 40.5t-35 62t-1 79l43 247h53l-43 -247q-12 -69 25.5 -107.5t131.5 -38.5q92 0 188 39l62 354h53l-123 -700h-53l51 293q-93 -36 -184 -36z" />
    <glyph glyph-name="uni0428" unicode="&#x428;" horiz-adv-x="957" 
d="M43 0l123 700h53l-114 -650h312l114 650h53l-114 -650h312l114 650h53l-123 -700h-783z" />
    <glyph glyph-name="uni0429" unicode="&#x429;" horiz-adv-x="980" 
d="M43 0l123 700h53l-114 -650h312l114 650h53l-114 -650h312l114 650h53l-114 -650h73l-33 -184h-53l24 134h-803z" />
    <glyph glyph-name="uni042A" unicode="&#x42a;" horiz-adv-x="694" 
d="M71 650l8 50h247l-47 -267h181q92 0 146 -66q54 -65 38 -158q-8 -48 -31.5 -86.5t-57.5 -65.5t-76.5 -42t-90.5 -15h-239l114 650h-192zM212 50h184q37 0 69 12.5t57.5 35t43 53t24.5 66.5t0 66.5t-25 52.5t-47 34.5t-66 12.5h-182z" />
    <glyph glyph-name="uni042B" unicode="&#x42b;" horiz-adv-x="763" 
d="M166 700h53l-47 -267h182q92 0 145 -66q26 -33 36 -72t2 -86q-8 -48 -31.5 -86.5t-57.5 -65.5t-76.5 -42t-90.5 -15h-238zM105 50h184q37 0 69.5 12.5t58 35t43 53t24.5 66.5q13 73 -26 120q-22 26 -51 36t-62 10h-181zM702 700h54l-123 -700h-54z" />
    <glyph glyph-name="uni042C" unicode="&#x42c;" horiz-adv-x="587" 
d="M43 0l123 700h53l-47 -267h182q92 0 145 -66q26 -33 36 -72t2 -86q-8 -48 -31.5 -86.5t-57.5 -65.5t-76.5 -42t-90.5 -15h-238zM289 50q37 0 69.5 12.5t58 35t43 53t24.5 66.5q13 73 -26 120q-22 26 -51 36t-62 10h-182l-58 -333h184z" />
    <glyph glyph-name="uni042D" unicode="&#x42d;" horiz-adv-x="747" 
d="M73 186q25 -67 86 -106.5t146 -39.5q64 0 121.5 21.5t104 59.5t79.5 90t48 114h-395l9 50h395q13 124 -56 204q-69 81 -195 81q-88 0 -161.5 -41t-121.5 -110l-44 28q28 40 65 72.5t80.5 55t91 34.5t96.5 12q154 0 237 -108t58 -259q-13 -77 -50 -142.5t-92 -112.5
t-125 -73.5t-149 -26.5q-100 0 -172.5 46t-103.5 125z" />
    <glyph glyph-name="uni042E" unicode="&#x42e;" horiz-adv-x="1048" 
d="M166 700h53l-55 -315h140q17 71 56 131t93.5 103.5t121.5 67.5t141 24h6q73 0 133.5 -31t101 -82.5t57.5 -118.5t3 -140q-14 -76 -52.5 -140.5t-95.5 -111t-127.5 -72.5t-147.5 -26q-144 0 -230 101t-69 245h-140l-59 -335h-53zM348 350q-23 -130 50 -220t205 -90
q67 0 127.5 23.5t108.5 64.5t81 97.5t44 121.5q22 129 -52 221t-205 92q-67 0 -127 -24t-108 -66t-80.5 -98.5t-43.5 -121.5z" />
    <glyph glyph-name="uni042F" unicode="&#x42f;" horiz-adv-x="627" 
d="M242 290q-73 13 -115 73t-28 138q8 44 31 80.5t56 63t74 41t85 14.5h274l-123 -700h-53l50 287h-189l-246 -287h-65zM153 496q-11 -65 27 -112t105 -47h217l55 313h-220q-33 0 -64 -12t-56 -32.5t-42 -48.5t-22 -61z" />
    <glyph glyph-name="uni0430" unicode="&#x430;" horiz-adv-x="646" 
d="M91 70q-65 82 -46 191q10 54 35.5 100t63 79t86 52t104.5 19q72 0 127.5 -36.5t79.5 -100.5l22 126h50l-88 -500h-50l18 102q-84 -113 -231 -113q-107 0 -171 81zM96 257q-17 -90 36 -155t142 -65q91 0 159 58q69 59 84 148q17 98 -38 158q-56 62 -142 62
q-46 0 -86.5 -15.5t-72 -43t-53 -65t-29.5 -82.5z" />
    <glyph glyph-name="uni0431" unicode="&#x431;" horiz-adv-x="572" 
d="M84 60q-62 72 -42 185q11 62 27 109.5t43.5 84.5t68.5 67t103 58l126 51q18 7 35.5 16.5t32.5 21.5t25.5 27t15.5 33l39 -23q-10 -28 -27 -49t-47 -39l-51 -27q-11 -5 -27 -11.5t-39 -15.5l-63 -25q-33 -14 -61 -29.5t-50.5 -35t-40 -45.5t-30.5 -60q87 102 219 102
q93 0 152 -69q58 -67 40 -169q-9 -53 -34.5 -95t-63 -72t-85 -46t-99.5 -16q-104 0 -167 72zM93 236q-15 -87 31 -142q47 -56 133 -56q41 0 79 13.5t68 37.5t50.5 58t27.5 75q13 79 -30 132q-43 52 -125 52q-39 0 -76.5 -12t-69.5 -34.5t-55 -54t-33 -69.5z" />
    <glyph glyph-name="uni0432" unicode="&#x432;" horiz-adv-x="506" 
d="M121 500h223q33 0 58.5 -10.5t42 -29t23 -43.5t1.5 -53q-13 -78 -83 -108q39 -15 56.5 -47.5t9.5 -75.5q-10 -60 -54.5 -96.5t-122.5 -36.5h-242zM283 49q49 0 81 24t39 67q8 42 -15.5 65.5t-72.5 23.5h-192l-31 -180h191zM132 278h169q48 0 79 23t38 65q8 40 -13.5 62.5
t-69.5 22.5h-173z" />
    <glyph glyph-name="uni0433" unicode="&#x433;" horiz-adv-x="397" 
d="M434 500l-8 -49h-264l-79 -451h-50l88 500h313z" />
    <glyph glyph-name="uni0434" unicode="&#x434;" horiz-adv-x="590" 
d="M-45 -134l33 183h58q67 73 90 201l44 250h351l-79 -451h69l-32 -183h-51l24 134h-432l-24 -134h-51zM187 250q-21 -123 -76 -201h290l70 402h-249z" />
    <glyph glyph-name="uni0435" unicode="&#x435;" horiz-adv-x="588" 
d="M86 65q-62 77 -41 192q10 55 36.5 101.5t66 80.5t89 53t105.5 19q112 0 169 -78t37 -185q-3 -17 -6 -24h-451q-3 -42 8 -76.5t34.5 -59t57.5 -38t77 -13.5q124 0 190 92l39 -26q-36 -54 -100 -84t-136 -30q-114 0 -175 76zM338 463q-44 0 -82.5 -14t-70 -39t-53.5 -60
t-33 -77h401q9 90 -36 140t-126 50z" />
    <glyph glyph-name="uni0436" unicode="&#x436;" horiz-adv-x="661" 
d="M-21 0l283 265l-185 235h58l174 -225l40 225h51l-40 -229l251 229h62l-268 -245l189 -255h-56l-182 247l-44 -247h-51l43 246l-263 -246h-62z" />
    <glyph glyph-name="uni0437" unicode="&#x437;" horiz-adv-x="446" 
d="M184 -11q-81 0 -123.5 32t-52.5 86l44 24q15 -94 138 -94q63 0 103 27.5t47 72.5q8 42 -17.5 67t-76.5 25h-68l9 49h49q49 0 81.5 25t39.5 67q8 42 -20.5 67.5t-83.5 25.5q-102 0 -147 -82l-40 25q64 105 192 105q78 0 119 -44t31 -102q-15 -81 -89 -110q40 -16 59.5 -51
t11.5 -77q-10 -60 -64 -99t-142 -39z" />
    <glyph glyph-name="uni0438" unicode="&#x438;" horiz-adv-x="567" 
d="M121 500h50l-72 -409l391 409h44l-88 -500h-51l72 409l-390 -409h-44z" />
    <glyph glyph-name="uni0439" unicode="&#x439;" horiz-adv-x="567" 
d="M33 0l88 500h50l-72 -409l391 409h44l-88 -500h-51l72 409l-390 -409h-44zM215 587l8 44h253l-7 -44h-254z" />
    <glyph glyph-name="uni043A" unicode="&#x43a;" horiz-adv-x="483" 
d="M121 500h50l-39 -224l292 224h71l-313 -241l234 -259h-62l-227 251l-44 -251h-50z" />
    <glyph glyph-name="uni043B" unicode="&#x43b;" horiz-adv-x="560" 
d="M-22 47q4 0 7.5 -0.5t7.5 -0.5q51 0 82.5 38.5t48.5 125.5l51 290h352l-88 -500h-50l79 451h-251l-42 -241q-23 -128 -74 -172q-16 -14 -31 -21.5t-31 -11.5t-33.5 -4.5t-36.5 -0.5z" />
    <glyph glyph-name="uni043C" unicode="&#x43c;" horiz-adv-x="637" 
d="M33 0l88 500h56l131 -287l233 287h63l-88 -500h-51l74 423l-238 -294h-8l-135 298l-75 -427h-50z" />
    <glyph glyph-name="uni043D" unicode="&#x43d;" horiz-adv-x="567" 
d="M121 500h50l-40 -226h312l40 226h51l-88 -500h-51l40 226h-312l-40 -226h-50z" />
    <glyph glyph-name="uni043E" unicode="&#x43e;" horiz-adv-x="612" 
d="M91 63q-67 73 -47 192q9 56 37.5 103t70 81t93.5 53t108 19q105 0 170 -75q65 -74 45 -190q-9 -56 -36.5 -103.5t-68 -81.5t-91.5 -53t-108 -19q-105 0 -173 74zM95 250q-17 -97 35 -155t139 -58q47 0 89 16.5t75 45.5t55 68t30 85q16 94 -36 153q-52 58 -138 58
q-47 -1 -88.5 -17t-74.5 -44t-55.5 -67t-30.5 -85z" />
    <glyph glyph-name="uni043F" unicode="&#x43f;" horiz-adv-x="567" 
d="M121 500h413l-88 -500h-51l79 451h-312l-79 -451h-50z" />
    <glyph glyph-name="uni0440" unicode="&#x440;" horiz-adv-x="646" 
d="M-2 -200l123 700h50l-18 -102q86 113 231 113q106 0 171 -81q65 -82 46 -191q-10 -54 -35 -100t-63 -79.5t-86.5 -52t-104.5 -18.5q-72 0 -127.5 36.5t-79.5 100.5l-57 -326h-50zM129 257q-17 -98 37 -159t143 -61q46 0 86.5 15.5t72.5 42.5t53 65t29 83q15 92 -36 155
q-53 65 -142 65q-46 0 -86.5 -15.5t-73 -42.5t-54 -65t-29.5 -83z" />
    <glyph glyph-name="uni0441" unicode="&#x441;" horiz-adv-x="562" 
d="M87 68q-61 79 -42 190q10 56 37.5 102.5t68 80t91 52t107.5 18.5q72 0 126.5 -34.5t74.5 -92.5l-43 -23q-17 48 -58.5 75t-104.5 27q-47 0 -88 -16t-74 -44t-55.5 -66.5t-30.5 -83.5q-16 -91 33 -154q50 -62 140 -62q60 0 112.5 28.5t83.5 76.5l40 -27
q-38 -60 -102.5 -93t-142.5 -33q-110 0 -173 79z" />
    <glyph glyph-name="uni0442" unicode="&#x442;" horiz-adv-x="440" 
d="M57 500h414l-9 -49h-182l-79 -451h-50l79 451h-181z" />
    <glyph glyph-name="uni0443" unicode="&#x443;" horiz-adv-x="510" 
d="M12 -153q3 0 6 -0.5t6 -0.5q84 0 155 118l17 28l-139 508h51l121 -450l255 450h57l-312 -546q-42 -74 -96.5 -114.5t-114.5 -40.5q-4 0 -7 0.5t-7 0.5z" />
    <glyph glyph-name="uni0444" unicode="&#x444;" horiz-adv-x="672" 
d="M87 72q-62 78 -43 183q10 58 39 104t71 78.5t94 51.5t109 22l33 189h50l-33 -189q117 -8 178 -84q62 -76 43 -182q-11 -58 -39.5 -104t-70.5 -78.5t-94 -51.5t-109 -22l-33 -189h-50l33 189q-116 8 -178 83zM95 250q-15 -87 33 -146q48 -58 146 -66l74 424
q-46 -3 -88 -19t-76 -43.5t-57 -65t-32 -84.5zM324 38q46 3 88 19t76 43.5t57.5 65t31.5 84.5q15 88 -33 145q-49 60 -146 67z" />
    <glyph glyph-name="uni0445" unicode="&#x445;" horiz-adv-x="507" 
d="M-21 0l246 261l-146 239h57l123 -203l191 203h65l-230 -245l154 -255h-56l-133 218l-205 -218h-66z" />
    <glyph glyph-name="uni0446" unicode="&#x446;" horiz-adv-x="593" 
d="M33 0l88 500h50l-79 -451h302l79 451h51l-80 -451h80l-32 -183h-51l24 134h-432z" />
    <glyph glyph-name="uni0447" unicode="&#x447;" horiz-adv-x="537" 
d="M242 163q-96 0 -140 48t-29 129l28 160h50l-28 -160q-11 -63 20 -96t101 -33q75 0 164 33l45 256h51l-88 -500h-51l34 193q-78 -30 -157 -30z" />
    <glyph glyph-name="uni0448" unicode="&#x448;" horiz-adv-x="817" 
d="M33 0l88 500h50l-79 -451h256l79 451h51l-79 -451h255l79 451h51l-88 -500h-663z" />
    <glyph glyph-name="uni0449" unicode="&#x449;" horiz-adv-x="843" 
d="M33 0l88 500h50l-79 -451h256l79 451h51l-79 -451h255l79 451h51l-79 -451h69l-32 -183h-51l24 134h-682z" />
    <glyph glyph-name="uni044A" unicode="&#x44a;" horiz-adv-x="541" 
d="M44 500h194l-34 -194h148q67 0 107 -46q20 -23 28 -50.5t2 -61.5q-6 -36 -24 -63.5t-44 -46t-58 -28.5t-66 -10h-198l79 451h-142zM159 49h147q24 0 46 7.5t40 21.5t30.5 33t16.5 42q8 48 -20 76t-77 28h-147z" />
    <glyph glyph-name="uni044B" unicode="&#x44b;" horiz-adv-x="644" 
d="M121 500h50l-34 -194h148q68 0 108 -46q20 -23 28 -50.5t2 -61.5q-6 -36 -24 -63.5t-44 -46t-58 -28.5t-66 -10h-198zM239 49q24 0 46 7.5t40 21.5t30.5 33t16.5 42q8 48 -19.5 76t-76.5 28h-148l-36 -208h147zM561 500h50l-88 -500h-50z" />
    <glyph glyph-name="uni044C" unicode="&#x44c;" horiz-adv-x="474" 
d="M121 500h50l-34 -194h148q68 0 108 -46q20 -23 28 -50.5t2 -61.5q-6 -36 -24 -63.5t-44 -46t-58 -28.5t-66 -10h-198zM239 49q24 0 46 7.5t40 21.5t30.5 33t16.5 42q8 48 -19.5 76t-76.5 28h-148l-36 -208h147z" />
    <glyph glyph-name="uni044D" unicode="&#x44d;" horiz-adv-x="562" 
d="M213 -11q-72 0 -126.5 34.5t-74.5 92.5l43 23q34 -102 163 -102q43 0 82.5 14t71.5 39t55.5 59.5t34.5 76.5h-259l9 48h257q5 83 -43 135q-49 54 -133 54q-60 0 -112.5 -28.5t-83.5 -76.5l-40 27q38 60 102.5 93t142.5 33q112 0 173 -79q61 -78 42 -190
q-10 -56 -37.5 -102.5t-68 -80t-91 -52t-107.5 -18.5z" />
    <glyph glyph-name="uni044E" unicode="&#x44e;" horiz-adv-x="803" 
d="M121 500h50l-40 -226h112q12 52 40.5 96t68.5 75t89 48.5t103 17.5q105 0 170 -75q65 -74 45 -190q-9 -56 -36.5 -103.5t-68 -81.5t-91.5 -53t-108 -19q-99 0 -164 65t-56 172h-112l-40 -226h-50zM286 250q-17 -96 36 -155q52 -58 138 -58q46 0 88 16.5t75 45.5
t55.5 68.5t30.5 84.5q16 94 -36 153q-52 58 -138 58q-47 -1 -88.5 -17t-74.5 -44t-55.5 -67t-30.5 -85z" />
    <glyph glyph-name="uni044F" unicode="&#x44f;" horiz-adv-x="500" 
d="M193 197q-58 9 -92 52t-24 103q6 34 24 61.5t44 47t58 29.5t66 10h198l-88 -500h-50l34 195h-111l-189 -195h-64zM128 347q-8 -48 19.5 -76t76.5 -28h148l36 208h-147q-24 0 -46 -7.5t-40 -21.5t-30.5 -33t-16.5 -42z" />
    <glyph glyph-name="uni0451" unicode="&#x451;" horiz-adv-x="588" 
d="M86 65q-62 77 -41 192q10 55 36.5 101.5t66 80.5t89 53t105.5 19q112 0 169 -78t37 -185q-3 -17 -6 -24h-451q-3 -42 8 -76.5t34.5 -59t57.5 -38t77 -13.5q124 0 190 92l39 -26q-36 -54 -100 -84t-136 -30q-114 0 -175 76zM338 463q-44 0 -82.5 -14t-70 -39t-53.5 -60
t-33 -77h401q9 90 -36 140t-126 50zM448 577q-15 0 -24 10.5t-6 25.5q2 18 15.5 27t27.5 9t24 -9t6 -27q-3 -15 -15.5 -25.5t-27.5 -10.5zM268 577q-15 0 -24 10.5t-6 25.5q2 18 15.5 27t27.5 9t24 -9t6 -27q-3 -15 -15.5 -25.5t-27.5 -10.5z" />
    <glyph glyph-name="uni0452" unicode="&#x452;" horiz-adv-x="577" 
d="M46 0l102 582h-72l7 42h73l13 76h51l-13 -76h156l-7 -42h-157l-29 -168q70 97 191 97q45 0 79 -14t55 -40.5t29 -63.5t0 -82l-65 -368q-27 -155 -169 -155h-12t-12 1l8 48q5 -1 10 -1h10q96 0 115 107l64 368q12 70 -18.5 111t-102.5 41q-73 0 -129.5 -45.5t-75.5 -135.5
l-50 -282h-51z" />
    <glyph glyph-name="uni0453" unicode="&#x453;" horiz-adv-x="397" 
d="M386 697l-112 -127h-50l100 127h62zM434 500l-8 -49h-264l-79 -451h-50l88 500h313z" />
    <glyph glyph-name="uni0454" unicode="&#x454;" horiz-adv-x="562" 
d="M87 68q-61 79 -42 190q10 56 37.5 102.5t68 80t91 52t107.5 18.5q72 0 126.5 -34.5t74.5 -92.5l-43 -23q-17 48 -58.5 75t-104.5 27q-43 0 -82 -14t-71 -39t-55.5 -60t-34.5 -76h258l-9 -48h-257q-5 -83 43 -136q47 -53 133 -53q60 0 112.5 28.5t83.5 76.5l40 -27
q-38 -60 -102.5 -93t-142.5 -33q-110 0 -173 79z" />
    <glyph glyph-name="uni0455" unicode="&#x455;" horiz-adv-x="472" 
d="M71 126q11 -42 46.5 -65.5t90.5 -23.5t93.5 23.5t46.5 65.5q7 37 -20.5 60.5t-70.5 36.5q-30 9 -63 20t-59 28t-40 43.5t-6 66.5q6 33 23.5 57t42.5 40.5t55 24.5t61 8q60 0 102.5 -26t61.5 -74l-44 -23q-12 37 -46 56t-76 19q-23 0 -44.5 -5.5t-39 -17t-29.5 -28
t-16 -38.5q-7 -36 20.5 -59t69.5 -36q31 -9 63.5 -19.5t58 -28.5t39.5 -45t7 -68q-11 -60 -63 -94.5t-131 -34.5q-142 0 -178 114z" />
    <glyph glyph-name="uni0456" unicode="&#x456;" horiz-adv-x="204" 
d="M33 0l88 500h50l-88 -500h-50zM167 621q-17 0 -26 11.5t-6 28.5q3 16 15.5 27.5t30.5 11.5q16 0 26 -11.5t7 -27.5q-3 -17 -16 -28.5t-31 -11.5z" />
    <glyph glyph-name="uni0457" unicode="&#x457;" horiz-adv-x="204" 
d="M33 0l88 500h50l-88 -500h-50zM249 577q-15 0 -24 10.5t-6 25.5q2 18 15.5 27t27.5 9t24 -9t6 -27q-3 -15 -15.5 -25.5t-27.5 -10.5zM69 577q-15 0 -24 10.5t-6 25.5q2 18 15.5 27t27.5 9t24 -9t6 -27q-3 -15 -15.5 -25.5t-27.5 -10.5z" />
    <glyph glyph-name="uni0458" unicode="&#x458;" horiz-adv-x="223" 
d="M92 -57q-25 -155 -165 -155h-13.5t-14.5 1l8 48q5 -1 10 -1h10q96 0 115 107l98 557h50zM186 621q-17 0 -26 11.5t-6 28.5q3 16 15.5 27.5t30.5 11.5q16 0 26 -11.5t7 -27.5q-3 -17 -16 -28.5t-31 -11.5z" />
    <glyph glyph-name="uni0459" unicode="&#x459;" horiz-adv-x="804" 
d="M-22 47q5 -1 8.5 -1h8.5q51 0 82 38.5t47 125.5l51 290h342l-38 -214h141q64 0 103 -41q40 -43 28 -107q-12 -67 -62 -102.5t-119 -35.5h-191l79 451h-241l-42 -241q-21 -124 -74 -171q-16 -14 -31.5 -22t-31 -12t-32.5 -4.5t-37 -0.5zM438 49h140q46 0 80 24.5t42 69.5
q8 46 -17 70t-71 24h-141z" />
    <glyph glyph-name="uni045A" unicode="&#x45a;" horiz-adv-x="801" 
d="M33 0l88 500h50l-38 -214h292l38 214h51l-38 -214h141q64 0 103 -41q40 -43 28 -107q-6 -33 -22 -58.5t-40 -43.5t-54.5 -27t-64.5 -9h-192l42 237h-292l-42 -237h-50zM575 49q46 0 80 24.5t42 69.5q8 46 -17 70t-71 24h-141l-33 -188h140z" />
    <glyph glyph-name="uni045B" unicode="&#x45b;" horiz-adv-x="577" 
d="M46 0l102 582h-72l7 42h73l13 76h51l-13 -76h156l-7 -42h-157l-29 -168q70 97 191 97q45 0 79 -14t55 -40.5t29 -63.5t0 -82l-55 -311h-50l54 311q12 70 -18.5 111t-102.5 41q-73 0 -129.5 -45.5t-75.5 -135.5l-50 -282h-51z" />
    <glyph glyph-name="uni045C" unicode="&#x45c;" horiz-adv-x="483" 
d="M121 500h50l-39 -224l292 224h71l-313 -241l234 -259h-62l-227 251l-44 -251h-50zM354 697h62l-112 -127h-50z" />
    <glyph glyph-name="uni045E" unicode="&#x45e;" horiz-adv-x="510" 
d="M12 -153q3 0 6 -0.5t6 -0.5q84 0 155 118l17 28l-139 508h51l121 -450l255 450h57l-312 -546q-42 -74 -96.5 -114.5t-114.5 -40.5q-4 0 -7 0.5t-7 0.5zM171 587l8 44h253l-7 -44h-254z" />
    <glyph glyph-name="uni045F" unicode="&#x45f;" horiz-adv-x="567" 
d="M121 500h50l-79 -451h312l79 451h51l-88 -500h-181l-24 -134h-51l24 134h-181z" />
    <glyph glyph-name="uni0490" unicode="&#x490;" horiz-adv-x="493" 
d="M518 820h53l-30 -170h-331l-114 -650h-53l123 700h330z" />
    <glyph glyph-name="uni0491" unicode="&#x491;" horiz-adv-x="397" 
d="M401 604h51l-26 -153h-264l-79 -451h-50l88 500h262z" />
    <glyph glyph-name="Wgrave" unicode="&#x1e80;" horiz-adv-x="993" 
d="M112 700h53l71 -631l306 631h63l85 -631l293 631h56l-326 -700h-64l-85 631l-308 -631h-64zM566 897l58 -127h-48l-70 127h60z" />
    <glyph glyph-name="wgrave" unicode="&#x1e81;" horiz-adv-x="770" 
d="M77 500h50l57 -436l217 436h52l-1 -2l64 -434l210 436h55l-246 -500h-55l-64 426l-214 -426h-55zM404 697l58 -127h-48l-70 127h60z" />
    <glyph glyph-name="Wacute" unicode="&#x1e82;" horiz-adv-x="993" 
d="M112 700h53l71 -631l306 631h63l85 -631l293 631h56l-326 -700h-64l-85 631l-308 -631h-64zM647 897h62l-112 -127h-50z" />
    <glyph glyph-name="wacute" unicode="&#x1e83;" horiz-adv-x="770" 
d="M77 500h50l57 -436l217 436h52l-1 -2l64 -434l210 436h55l-246 -500h-55l-64 426l-214 -426h-55zM485 697h62l-112 -127h-50z" />
    <glyph glyph-name="Wdieresis" unicode="&#x1e84;" horiz-adv-x="993" 
d="M112 700h53l71 -631l306 631h63l85 -631l293 631h56l-326 -700h-64l-85 631l-308 -631h-64zM679 777q-15 0 -24 10.5t-6 25.5q2 18 15.5 27t27.5 9t24 -9t6 -27q-3 -15 -15.5 -25.5t-27.5 -10.5zM499 777q-15 0 -24 10.5t-6 25.5q2 18 15.5 27t27.5 9t24 -9t6 -27
q-3 -15 -15.5 -25.5t-27.5 -10.5z" />
    <glyph glyph-name="wdieresis" unicode="&#x1e85;" horiz-adv-x="770" 
d="M77 500h50l57 -436l217 436h52l-1 -2l64 -434l210 436h55l-246 -500h-55l-64 426l-214 -426h-55zM517 577q-15 0 -24 10.5t-6 25.5q2 18 15.5 27t27.5 9t24 -9t6 -27q-3 -15 -15.5 -25.5t-27.5 -10.5zM337 577q-15 0 -24 10.5t-6 25.5q2 18 15.5 27t27.5 9t24 -9t6 -27
q-3 -15 -15.5 -25.5t-27.5 -10.5z" />
    <glyph glyph-name="uni1EA0" unicode="&#x1ea0;" horiz-adv-x="629" 
d="M366 700h56l148 -700h-54l-36 178h-351l-100 -178h-58zM469 228l-83 407l-229 -407h312zM230 -165q-17 0 -25.5 11t-5.5 28q3 15 15 26.5t30 11.5q15 0 25 -11.5t7 -26.5q-3 -17 -16 -28t-30 -11z" />
    <glyph glyph-name="uni1EA1" unicode="&#x1ea1;" horiz-adv-x="646" 
d="M91 70q-65 82 -46 191q10 54 35.5 100t63 79t86 52t104.5 19q72 0 127.5 -36.5t79.5 -100.5l22 126h50l-88 -500h-50l18 102q-84 -113 -231 -113q-107 0 -171 81zM96 257q-17 -90 36 -155t142 -65q46 0 86.5 15.5t73 42.5t54 65t29.5 83q17 98 -38 158q-56 62 -142 62
q-46 0 -86.5 -15.5t-72 -43t-53 -65t-29.5 -82.5zM219 -165q-17 0 -25.5 11t-5.5 28q3 15 15 26.5t30 11.5q15 0 25 -11.5t7 -26.5q-3 -17 -16 -28t-30 -11z" />
    <glyph glyph-name="uni1EA2" unicode="&#x1ea2;" horiz-adv-x="629" 
d="M-29 0l395 700h56l148 -700h-54l-36 178h-351l-100 -178h-58zM157 228h312l-83 407zM375 867q-5 3 -17.5 8.5t-14.5 7.5q16 27 41 40.5t53 13.5q29 0 50 -16t15 -51q-4 -23 -15 -36t-24 -22.5t-24 -18t-14 -23.5h-41q6 22 17.5 34.5t23.5 21.5t22 18.5t13 24.5
q3 14 -5 22.5t-25 8.5q-14 0 -29 -8t-26 -25z" />
    <glyph glyph-name="uni1EA3" unicode="&#x1ea3;" horiz-adv-x="646" 
d="M91 70q-65 82 -46 191q10 54 35.5 100t63 79t86 52t104.5 19q72 0 127.5 -36.5t79.5 -100.5l22 126h50l-88 -500h-50l18 102q-84 -113 -231 -113q-107 0 -171 81zM96 257q-17 -90 36 -155t142 -65q46 0 86.5 15.5t73 42.5t54 65t29.5 83q17 98 -38 158q-56 62 -142 62
q-46 0 -86.5 -15.5t-72 -43t-53 -65t-29.5 -82.5zM336 667q-5 3 -17.5 8.5t-14.5 7.5q16 27 41 40.5t53 13.5q29 0 50 -16t15 -51q-4 -23 -15 -36t-24 -22.5t-24 -18t-14 -23.5h-41q6 22 17.5 34.5t23.5 21.5t22 18.5t13 24.5q3 14 -5 22.5t-25 8.5q-14 0 -29 -8t-26 -25z
" />
    <glyph glyph-name="uni1EA4" unicode="&#x1ea4;" horiz-adv-x="629" 
d="M-29 0l395 700h56l148 -700h-54l-36 178h-351l-100 -178h-58zM469 228l-83 407l-229 -407h312zM399 888h55l81 -118h-51l-60 88l-90 -88h-56zM517 853l93 118h58l-104 -118h-47z" />
    <glyph glyph-name="uni1EA5" unicode="&#x1ea5;" horiz-adv-x="646" 
d="M91 70q-65 82 -46 191q10 54 35.5 100t63 79t86 52t104.5 19q72 0 127.5 -36.5t79.5 -100.5l22 126h50l-88 -500h-50l18 102q-84 -113 -231 -113q-107 0 -171 81zM96 257q-17 -90 36 -155t142 -65q46 0 86.5 15.5t73 42.5t54 65t29.5 83q17 98 -38 158q-56 62 -142 62
q-46 0 -86.5 -15.5t-72 -43t-53 -65t-29.5 -82.5zM247 570l121 118h55l81 -118h-51l-60 88l-90 -88h-56zM486 653l93 118h58l-104 -118h-47z" />
    <glyph glyph-name="uni1EA6" unicode="&#x1ea6;" horiz-adv-x="629" 
d="M-29 0l395 700h56l148 -700h-54l-36 178h-351l-100 -178h-58zM469 228l-83 407l-229 -407h312zM399 888h55l81 -118h-51l-60 88l-90 -88h-56zM524 971l54 -118h-44l-65 118h55z" />
    <glyph glyph-name="uni1EA7" unicode="&#x1ea7;" horiz-adv-x="646" 
d="M91 70q-65 82 -46 191q10 54 35.5 100t63 79t86 52t104.5 19q72 0 127.5 -36.5t79.5 -100.5l22 126h50l-88 -500h-50l18 102q-84 -113 -231 -113q-107 0 -171 81zM96 257q-17 -90 36 -155t142 -65q46 0 86.5 15.5t73 42.5t54 65t29.5 83q17 98 -38 158q-56 62 -142 62
q-46 0 -86.5 -15.5t-72 -43t-53 -65t-29.5 -82.5zM368 688h55l81 -118h-51l-60 88l-90 -88h-56zM493 771l54 -118h-44l-65 118h55z" />
    <glyph glyph-name="uni1EA8" unicode="&#x1ea8;" horiz-adv-x="629" 
d="M-29 0l395 700h56l148 -700h-54l-36 178h-351l-100 -178h-58zM469 228l-83 407l-229 -407h312zM278 770l121 118h55l81 -118h-51l-60 88l-90 -88h-56zM507 943q-5 3 -16.5 8t-13.5 7q14 25 37.5 37.5t49.5 12.5q27 0 46.5 -15t14.5 -47q-4 -21 -14.5 -33.5t-22.5 -21
t-22 -17t-13 -21.5h-38q6 21 16.5 32.5t22 20t20.5 17t12 22.5q2 13 -5 21t-23 8q-14 0 -27 -7.5t-24 -23.5z" />
    <glyph glyph-name="uni1EA9" unicode="&#x1ea9;" horiz-adv-x="646" 
d="M91 70q-65 82 -46 191q10 54 35.5 100t63 79t86 52t104.5 19q72 0 127.5 -36.5t79.5 -100.5l22 126h50l-88 -500h-50l18 102q-84 -113 -231 -113q-107 0 -171 81zM96 257q-17 -90 36 -155t142 -65q46 0 86.5 15.5t73 42.5t54 65t29.5 83q17 98 -38 158q-56 62 -142 62
q-46 0 -86.5 -15.5t-72 -43t-53 -65t-29.5 -82.5zM368 688h55l81 -118h-51l-60 88l-90 -88h-56zM476 743q-5 3 -16.5 8t-13.5 7q14 25 37.5 37.5t49.5 12.5q27 0 46.5 -15t14.5 -47q-4 -21 -14.5 -33.5t-22.5 -21t-22 -17t-13 -21.5h-38q6 21 16.5 32.5t22 20t20.5 17
t12 22.5q2 13 -5 21t-23 8q-14 0 -27 -7.5t-24 -23.5z" />
    <glyph glyph-name="uni1EAA" unicode="&#x1eaa;" horiz-adv-x="629" 
d="M-29 0l395 700h56l148 -700h-54l-36 178h-351l-100 -178h-58zM469 228l-83 407l-229 -407h312zM303 913q8 51 30 75.5t49 24.5q31 0 62 -31q30 -30 50 -30q27 0 38 56h41q-3 -17 -8.5 -34.5t-15 -32t-24 -24t-33.5 -9.5q-31 0 -59 31q-30 30 -51 30q-28 0 -38 -56h-41z
M399 888h55l81 -118h-51l-60 88l-90 -88h-56z" />
    <glyph glyph-name="uni1EAB" unicode="&#x1eab;" horiz-adv-x="646" 
d="M91 70q-65 82 -46 191q10 54 35.5 100t63 79t86 52t104.5 19q72 0 127.5 -36.5t79.5 -100.5l22 126h50l-88 -500h-50l18 102q-84 -113 -231 -113q-107 0 -171 81zM96 257q-17 -90 36 -155t142 -65q46 0 86.5 15.5t73 42.5t54 65t29.5 83q17 98 -38 158q-56 62 -142 62
q-46 0 -86.5 -15.5t-72 -43t-53 -65t-29.5 -82.5zM272 713q8 51 30 75.5t49 24.5q31 0 62 -31q30 -30 50 -30q27 0 38 56h41q-3 -17 -8.5 -34.5t-15 -32t-24 -24t-33.5 -9.5q-31 0 -59 31q-30 30 -51 30q-28 0 -38 -56h-41zM247 570l121 118h55l81 -118h-51l-60 88l-90 -88
h-56z" />
    <glyph glyph-name="uni1EAC" unicode="&#x1eac;" horiz-adv-x="629" 
d="M-29 0l395 700h56l148 -700h-54l-36 178h-351l-100 -178h-58zM157 228h312l-83 407zM278 770l121 118h55l81 -118h-51l-60 88l-90 -88h-56zM230 -165q-17 0 -25.5 11t-5.5 28q3 15 15 26.5t30 11.5q15 0 25 -11.5t7 -26.5q-3 -17 -16 -28t-30 -11z" />
    <glyph glyph-name="uni1EAD" unicode="&#x1ead;" horiz-adv-x="646" 
d="M91 70q-65 82 -46 191q10 54 35.5 100t63 79t86 52t104.5 19q72 0 127.5 -36.5t79.5 -100.5l22 126h50l-88 -500h-50l18 102q-84 -113 -231 -113q-107 0 -171 81zM96 257q-17 -90 36 -155t142 -65q46 0 86.5 15.5t73 42.5t54 65t29.5 83q17 98 -38 158q-56 62 -142 62
q-46 0 -86.5 -15.5t-72 -43t-53 -65t-29.5 -82.5zM247 570l121 118h55l81 -118h-51l-60 88l-90 -88h-56zM219 -165q-17 0 -25.5 11t-5.5 28q3 15 15 26.5t30 11.5q15 0 25 -11.5t7 -26.5q-3 -17 -16 -28t-30 -11z" />
    <glyph glyph-name="uni1EAE" unicode="&#x1eae;" horiz-adv-x="629" 
d="M366 700h56l148 -700h-54l-36 178h-351l-100 -178h-58zM157 228h312l-83 407zM407 765q-56 0 -85.5 30.5t-20.5 83.5h45q-12 -73 66 -73q37 0 61.5 19t30.5 54h45q-9 -54 -46 -84t-96 -30zM400 900l93 118h58l-104 -118h-47z" />
    <glyph glyph-name="uni1EAF" unicode="&#x1eaf;" horiz-adv-x="646" 
d="M91 70q-65 82 -46 191q10 54 35.5 100t63 79t86 52t104.5 19q72 0 127.5 -36.5t79.5 -100.5l22 126h50l-88 -500h-50l18 102q-84 -113 -231 -113q-107 0 -171 81zM96 257q-17 -90 36 -155t142 -65q46 0 86.5 15.5t73 42.5t54 65t29.5 83q17 98 -38 158q-56 62 -142 62
q-46 0 -86.5 -15.5t-72 -43t-53 -65t-29.5 -82.5zM395 565q-56 0 -85.5 30.5t-20.5 83.5h45q-12 -73 66 -73q37 0 61.5 19t30.5 54h45q-9 -54 -46 -84t-96 -30zM388 700l93 118h58l-104 -118h-47z" />
    <glyph glyph-name="uni1EB0" unicode="&#x1eb0;" horiz-adv-x="629" 
d="M-29 0l395 700h56l148 -700h-54l-36 178h-351l-100 -178h-58zM469 228l-83 407l-229 -407h312zM407 765q-56 0 -85.5 30.5t-20.5 83.5h45q-12 -73 66 -73q37 0 61.5 19t30.5 54h45q-9 -54 -46 -84t-96 -30zM344 1018h55l54 -118h-44z" />
    <glyph glyph-name="uni1EB1" unicode="&#x1eb1;" horiz-adv-x="646" 
d="M91 70q-65 82 -46 191q10 54 35.5 100t63 79t86 52t104.5 19q72 0 127.5 -36.5t79.5 -100.5l22 126h50l-88 -500h-50l18 102q-84 -113 -231 -113q-107 0 -171 81zM96 257q-17 -90 36 -155t142 -65q46 0 86.5 15.5t73 42.5t54 65t29.5 83q17 98 -38 158q-56 62 -142 62
q-46 0 -86.5 -15.5t-72 -43t-53 -65t-29.5 -82.5zM395 565q-56 0 -85.5 30.5t-20.5 83.5h45q-12 -73 66 -73q37 0 61.5 19t30.5 54h45q-9 -54 -46 -84t-96 -30zM332 818h55l54 -118h-44z" />
    <glyph glyph-name="uni1EB2" unicode="&#x1eb2;" horiz-adv-x="629" 
d="M366 700h56l148 -700h-54l-36 178h-351l-100 -178h-58zM157 228h312l-83 407zM407 765q-56 0 -85.5 30.5t-20.5 83.5h45q-12 -73 66 -73q37 0 61.5 19t30.5 54h45q-9 -54 -46 -84t-96 -30zM369 1005q14 25 37.5 37.5t49.5 12.5q27 0 46.5 -15t14.5 -47
q-4 -21 -14.5 -33.5t-22.5 -21t-22 -17t-13 -21.5h-38q6 21 16.5 32.5t22 20t20.5 17t12 22.5q2 13 -5 21t-23 8q-14 0 -27 -7.5t-24 -23.5q-5 3 -16.5 8t-13.5 7z" />
    <glyph glyph-name="uni1EB3" unicode="&#x1eb3;" horiz-adv-x="646" 
d="M91 70q-65 82 -46 191q10 54 35.5 100t63 79t86 52t104.5 19q72 0 127.5 -36.5t79.5 -100.5l22 126h50l-88 -500h-50l18 102q-84 -113 -231 -113q-107 0 -171 81zM96 257q-17 -90 36 -155t142 -65q46 0 86.5 15.5t73 42.5t54 65t29.5 83q17 98 -38 158q-56 62 -142 62
q-46 0 -86.5 -15.5t-72 -43t-53 -65t-29.5 -82.5zM395 565q-56 0 -85.5 30.5t-20.5 83.5h45q-12 -73 66 -73q37 0 61.5 19t30.5 54h45q-9 -54 -46 -84t-96 -30zM387 790q-5 3 -16.5 8t-13.5 7q14 25 37.5 37.5t49.5 12.5q27 0 46.5 -15t14.5 -47q-4 -21 -14.5 -33.5
t-22.5 -21t-22 -17t-13 -21.5h-38q6 21 16.5 32.5t22 20t20.5 17t12 22.5q2 13 -5 21t-23 8q-14 0 -27 -7.5t-24 -23.5z" />
    <glyph glyph-name="uni1EB4" unicode="&#x1eb4;" horiz-adv-x="629" 
d="M-29 0l395 700h56l148 -700h-54l-36 178h-351l-100 -178h-58zM157 228h312l-83 407zM300 903q8 51 30 75.5t49 24.5q31 0 62 -31q30 -30 50 -30q27 0 38 56h41q-3 -17 -8.5 -34.5t-15 -32t-24 -24t-33.5 -9.5q-31 0 -59 31q-30 30 -51 30q-28 0 -38 -56h-41zM407 765
q-56 0 -85.5 30.5t-20.5 83.5h45q-12 -73 66 -73q37 0 61.5 19t30.5 54h45q-9 -54 -46 -84t-96 -30z" />
    <glyph glyph-name="uni1EB5" unicode="&#x1eb5;" horiz-adv-x="646" 
d="M91 70q-65 82 -46 191q10 54 35.5 100t63 79t86 52t104.5 19q72 0 127.5 -36.5t79.5 -100.5l22 126h50l-88 -500h-50l18 102q-84 -113 -231 -113q-107 0 -171 81zM96 257q-17 -90 36 -155t142 -65q46 0 86.5 15.5t73 42.5t54 65t29.5 83q17 98 -38 158q-56 62 -142 62
q-46 0 -86.5 -15.5t-72 -43t-53 -65t-29.5 -82.5zM288 703q8 51 30 75.5t49 24.5q31 0 62 -31q30 -30 50 -30q27 0 38 56h41q-3 -17 -8.5 -34.5t-15 -32t-24 -24t-33.5 -9.5q-31 0 -59 31q-30 30 -51 30q-28 0 -38 -56h-41zM395 565q-56 0 -85.5 30.5t-20.5 83.5h45
q-12 -73 66 -73q37 0 61.5 19t30.5 54h45q-9 -54 -46 -84t-96 -30z" />
    <glyph glyph-name="uni1EB6" unicode="&#x1eb6;" horiz-adv-x="629" 
d="M-29 0l395 700h56l148 -700h-54l-36 178h-351l-100 -178h-58zM157 228h312l-83 407zM407 765q-56 0 -85.5 30.5t-20.5 83.5h45q-12 -73 66 -73q37 0 61.5 19t30.5 54h45q-9 -54 -46 -84t-96 -30zM230 -165q-17 0 -25.5 11t-5.5 28q3 15 15 26.5t30 11.5q15 0 25 -11.5
t7 -26.5q-3 -17 -16 -28t-30 -11z" />
    <glyph glyph-name="uni1EB7" unicode="&#x1eb7;" horiz-adv-x="646" 
d="M91 70q-65 82 -46 191q10 54 35.5 100t63 79t86 52t104.5 19q72 0 127.5 -36.5t79.5 -100.5l22 126h50l-88 -500h-50l18 102q-84 -113 -231 -113q-107 0 -171 81zM96 257q-17 -90 36 -155t142 -65q46 0 86.5 15.5t73 42.5t54 65t29.5 83q17 98 -38 158q-56 62 -142 62
q-46 0 -86.5 -15.5t-72 -43t-53 -65t-29.5 -82.5zM395 565q-56 0 -85.5 30.5t-20.5 83.5h45q-12 -73 66 -73q37 0 61.5 19t30.5 54h45q-9 -54 -46 -84t-96 -30zM219 -165q-17 0 -25.5 11t-5.5 28q3 15 15 26.5t30 11.5q15 0 25 -11.5t7 -26.5q-3 -17 -16 -28t-30 -11z" />
    <glyph glyph-name="uni1EB8" unicode="&#x1eb8;" horiz-adv-x="533" 
d="M166 700h398l-8 -50h-346l-48 -272h321l-9 -50h-320l-49 -278h350l-9 -50h-403zM211 -165q-17 0 -25.5 11t-5.5 28q3 15 15 26.5t30 11.5q15 0 25 -11.5t7 -26.5q-3 -17 -16 -28t-30 -11z" />
    <glyph glyph-name="uni1EB9" unicode="&#x1eb9;" horiz-adv-x="588" 
d="M86 65q-62 77 -41 192q10 55 36.5 101.5t66 80.5t89 53t105.5 19q112 0 169 -78t37 -185q-3 -17 -6 -24h-451q-3 -42 8 -76.5t34.5 -59t57.5 -38t77 -13.5q124 0 190 92l39 -26q-36 -54 -100 -84t-136 -30q-114 0 -175 76zM338 463q-44 0 -82.5 -14t-70 -39t-53.5 -60
t-33 -77h401q9 90 -36 140t-126 50zM227 -165q-17 0 -25.5 11t-5.5 28q3 15 15 26.5t30 11.5q15 0 25 -11.5t7 -26.5q-3 -17 -16 -28t-30 -11z" />
    <glyph glyph-name="uni1EBA" unicode="&#x1eba;" horiz-adv-x="533" 
d="M43 0l123 700h398l-8 -50h-346l-48 -272h321l-9 -50h-320l-49 -278h350l-9 -50h-403zM309 883q16 27 41 40.5t53 13.5q29 0 50 -16t15 -51q-4 -23 -15 -36t-24 -22.5t-24 -18t-14 -23.5h-41q6 22 17.5 34.5t23.5 21.5t22 18.5t13 24.5q3 14 -5 22.5t-25 8.5q-14 0 -29 -8
t-26 -25q-5 3 -17.5 8.5t-14.5 7.5z" />
    <glyph glyph-name="uni1EBB" unicode="&#x1ebb;" horiz-adv-x="588" 
d="M86 65q-62 77 -41 192q10 55 36.5 101.5t66 80.5t89 53t105.5 19q112 0 169 -78t37 -185q-3 -17 -6 -24h-451q-3 -42 8 -76.5t34.5 -59t57.5 -38t77 -13.5q124 0 190 92l39 -26q-36 -54 -100 -84t-136 -30q-114 0 -175 76zM338 463q-44 0 -82.5 -14t-70 -39t-53.5 -60
t-33 -77h401q9 90 -36 140t-126 50zM326 667q-5 3 -17.5 8.5t-14.5 7.5q16 27 41 40.5t53 13.5q29 0 50 -16t15 -51q-4 -23 -15 -36t-24 -22.5t-24 -18t-14 -23.5h-41q6 22 17.5 34.5t23.5 21.5t22 18.5t13 24.5q3 14 -5 22.5t-25 8.5q-14 0 -29 -8t-26 -25z" />
    <glyph glyph-name="uni1EBC" unicode="&#x1ebc;" horiz-adv-x="533" 
d="M43 0l123 700h398l-8 -50h-346l-48 -272h321l-9 -50h-320l-49 -278h350l-9 -50h-403zM242 783q9 55 32 81t52 26q34 0 67 -33q32 -32 54 -32q30 0 41 60h44q-3 -17 -9 -36t-16.5 -35t-25.5 -26.5t-36 -10.5q-32 0 -64 34q-32 32 -54 32q-31 0 -41 -60h-44z" />
    <glyph glyph-name="uni1EBD" unicode="&#x1ebd;" horiz-adv-x="588" 
d="M86 65q-62 77 -41 192q10 55 36.5 101.5t66 80.5t89 53t105.5 19q112 0 169 -78t37 -185q-3 -17 -6 -24h-451q-3 -42 8 -76.5t34.5 -59t57.5 -38t77 -13.5q124 0 190 92l39 -26q-36 -54 -100 -84t-136 -30q-114 0 -175 76zM500 273q9 90 -36 140t-126 50q-44 0 -82.5 -14
t-70 -39t-53.5 -60t-33 -77h401zM224 583q9 55 32 81t52 26q34 0 67 -33q32 -32 54 -32q30 0 41 60h44q-3 -17 -9 -36t-16.5 -35t-25.5 -26.5t-36 -10.5q-32 0 -64 34q-32 32 -54 32q-31 0 -41 -60h-44z" />
    <glyph glyph-name="uni1EBE" unicode="&#x1ebe;" horiz-adv-x="533" 
d="M166 700h398l-8 -50h-346l-48 -272h321l-9 -50h-320l-49 -278h350l-9 -50h-403zM247 770l121 118h55l81 -118h-51l-60 88l-90 -88h-56zM579 971h58l-104 -118h-47z" />
    <glyph glyph-name="uni1EBF" unicode="&#x1ebf;" horiz-adv-x="588" 
d="M86 65q-62 77 -41 192q10 55 36.5 101.5t66 80.5t89 53t105.5 19q112 0 169 -78t37 -185q-3 -17 -6 -24h-451q-3 -42 8 -76.5t34.5 -59t57.5 -38t77 -13.5q124 0 190 92l39 -26q-36 -54 -100 -84t-136 -30q-114 0 -175 76zM338 463q-44 0 -82.5 -14t-70 -39t-53.5 -60
t-33 -77h401q9 90 -36 140t-126 50zM346 688h55l81 -118h-51l-60 88l-90 -88h-56zM464 653l93 118h58l-104 -118h-47z" />
    <glyph glyph-name="uni1EC0" unicode="&#x1ec0;" horiz-adv-x="533" 
d="M166 700h398l-8 -50h-346l-48 -272h321l-9 -50h-320l-49 -278h350l-9 -50h-403zM247 770l121 118h55l81 -118h-51l-60 88l-90 -88h-56zM493 971l54 -118h-44l-65 118h55z" />
    <glyph glyph-name="uni1EC1" unicode="&#x1ec1;" horiz-adv-x="588" 
d="M86 65q-62 77 -41 192q10 55 36.5 101.5t66 80.5t89 53t105.5 19q112 0 169 -78t37 -185q-3 -17 -6 -24h-451q-3 -42 8 -76.5t34.5 -59t57.5 -38t77 -13.5q124 0 190 92l39 -26q-36 -54 -100 -84t-136 -30q-114 0 -175 76zM338 463q-44 0 -82.5 -14t-70 -39t-53.5 -60
t-33 -77h401q9 90 -36 140t-126 50zM346 688h55l81 -118h-51l-60 88l-90 -88h-56zM416 771h55l54 -118h-44z" />
    <glyph glyph-name="uni1EC2" unicode="&#x1ec2;" horiz-adv-x="533" 
d="M43 0l123 700h398l-8 -50h-346l-48 -272h321l-9 -50h-320l-49 -278h350l-9 -50h-403zM247 770l121 118h55l81 -118h-51l-60 88l-90 -88h-56zM446 958q14 25 37.5 37.5t49.5 12.5q27 0 46.5 -15t14.5 -47q-4 -21 -14.5 -33.5t-22.5 -21t-22 -17t-13 -21.5h-38
q6 21 16.5 32.5t22 20t20.5 17t12 22.5q2 13 -5 21t-23 8q-14 0 -27 -7.5t-24 -23.5q-5 3 -16.5 8t-13.5 7z" />
    <glyph glyph-name="uni1EC3" unicode="&#x1ec3;" horiz-adv-x="588" 
d="M86 65q-62 77 -41 192q10 55 36.5 101.5t66 80.5t89 53t105.5 19q112 0 169 -78t37 -185q-3 -17 -6 -24h-451q-3 -42 8 -76.5t34.5 -59t57.5 -38t77 -13.5q124 0 190 92l39 -26q-36 -54 -100 -84t-136 -30q-114 0 -175 76zM500 273q9 90 -36 140t-126 50q-44 0 -82.5 -14
t-70 -39t-53.5 -60t-33 -77h401zM346 688h55l81 -118h-51l-60 88l-90 -88h-56zM423 758q14 25 37.5 37.5t49.5 12.5q27 0 46.5 -15t14.5 -47q-4 -21 -14.5 -33.5t-22.5 -21t-22 -17t-13 -21.5h-38q6 21 16.5 32.5t22 20t20.5 17t12 22.5q2 13 -5 21t-23 8q-14 0 -27 -7.5
t-24 -23.5q-5 3 -16.5 8t-13.5 7z" />
    <glyph glyph-name="uni1EC4" unicode="&#x1ec4;" horiz-adv-x="533" 
d="M166 700h398l-8 -50h-346l-48 -272h321l-9 -50h-320l-49 -278h350l-9 -50h-403zM272 913q8 51 30 75.5t49 24.5q31 0 62 -31q30 -30 50 -30q27 0 38 56h41q-3 -17 -8.5 -34.5t-15 -32t-24 -24t-33.5 -9.5q-31 0 -59 31q-30 30 -51 30q-28 0 -38 -56h-41zM368 888h55
l81 -118h-51l-60 88l-90 -88h-56z" />
    <glyph glyph-name="uni1EC5" unicode="&#x1ec5;" horiz-adv-x="588" 
d="M86 65q-62 77 -41 192q10 55 36.5 101.5t66 80.5t89 53t105.5 19q112 0 169 -78t37 -185q-3 -17 -6 -24h-451q-3 -42 8 -76.5t34.5 -59t57.5 -38t77 -13.5q124 0 190 92l39 -26q-36 -54 -100 -84t-136 -30q-114 0 -175 76zM500 273q9 90 -36 140t-126 50q-44 0 -82.5 -14
t-70 -39t-53.5 -60t-33 -77h401zM250 713q8 51 30 75.5t49 24.5q31 0 62 -31q30 -30 50 -30q27 0 38 56h41q-3 -17 -8.5 -34.5t-15 -32t-24 -24t-33.5 -9.5q-31 0 -59 31q-30 30 -51 30q-28 0 -38 -56h-41zM346 688h55l81 -118h-51l-60 88l-90 -88h-56z" />
    <glyph glyph-name="uni1EC6" unicode="&#x1ec6;" horiz-adv-x="533" 
d="M166 700h398l-8 -50h-346l-48 -272h321l-9 -50h-320l-49 -278h350l-9 -50h-403zM368 888h55l81 -118h-51l-60 88l-90 -88h-56zM211 -165q-17 0 -25.5 11t-5.5 28q3 15 15 26.5t30 11.5q15 0 25 -11.5t7 -26.5q-3 -17 -16 -28t-30 -11z" />
    <glyph glyph-name="uni1EC7" unicode="&#x1ec7;" horiz-adv-x="588" 
d="M86 65q-62 77 -41 192q10 55 36.5 101.5t66 80.5t89 53t105.5 19q112 0 169 -78t37 -185q-3 -17 -6 -24h-451q-3 -42 8 -76.5t34.5 -59t57.5 -38t77 -13.5q124 0 190 92l39 -26q-36 -54 -100 -84t-136 -30q-114 0 -175 76zM338 463q-44 0 -82.5 -14t-70 -39t-53.5 -60
t-33 -77h401q9 90 -36 140t-126 50zM346 688h55l81 -118h-51l-60 88l-90 -88h-56zM227 -165q-17 0 -25.5 11t-5.5 28q3 15 15 26.5t30 11.5q15 0 25 -11.5t7 -26.5q-3 -17 -16 -28t-30 -11z" />
    <glyph glyph-name="uni1EC8" unicode="&#x1ec8;" horiz-adv-x="227" 
d="M43 0l123 700h53l-123 -700h-53zM171 867q-5 3 -17.5 8.5t-14.5 7.5q16 27 41 40.5t53 13.5q29 0 50 -16t15 -51q-4 -23 -15 -36t-24 -22.5t-24 -18t-14 -23.5h-41q6 22 17.5 34.5t23.5 21.5t22 18.5t13 24.5q3 14 -5 22.5t-25 8.5q-14 0 -29 -8t-26 -25z" />
    <glyph glyph-name="uni1EC9" unicode="&#x1ec9;" horiz-adv-x="204" 
d="M33 0l88 500h50l-88 -500h-50zM94 683q16 27 41 40.5t53 13.5q29 0 50 -16t15 -51q-4 -23 -15 -36t-24 -22.5t-24 -18t-14 -23.5h-41q6 22 17.5 34.5t23.5 21.5t22 18.5t13 24.5q3 14 -5 22.5t-25 8.5q-14 0 -29 -8t-26 -25q-5 3 -17.5 8.5t-14.5 7.5z" />
    <glyph glyph-name="uni1ECA" unicode="&#x1eca;" horiz-adv-x="227" 
d="M166 700h53l-123 -700h-53zM42 -165q-17 0 -25.5 11t-5.5 28q3 15 15 26.5t30 11.5q15 0 25 -11.5t7 -26.5q-3 -17 -16 -28t-30 -11z" />
    <glyph glyph-name="uni1ECB" unicode="&#x1ecb;" horiz-adv-x="204" 
d="M121 500h50l-88 -500h-50zM160 578q-17 0 -25.5 11t-5.5 28q3 15 15 26.5t30 11.5q15 0 25 -11.5t7 -26.5q-3 -17 -16 -28t-30 -11zM32 -165q-17 0 -25.5 11t-5.5 28q3 15 15 26.5t30 11.5q15 0 25 -11.5t7 -26.5q-3 -17 -16 -28t-30 -11z" />
    <glyph glyph-name="uni1ECC" unicode="&#x1ecc;" horiz-adv-x="819" 
d="M127 98q-88 108 -62 260q13 76 51.5 140.5t95.5 111.5t127.5 74t147.5 27q149 0 238 -111q88 -110 63 -261q-13 -76 -52 -140t-96 -110.5t-128 -73t-147 -26.5q-150 0 -238 109zM119 350q-23 -131 50 -220q73 -90 205 -90q66 0 126.5 23.5t108.5 64.5t81 97.5t44 121.5
q22 130 -51 221q-74 92 -205 92q-67 0 -127.5 -24t-108 -66t-80 -98.5t-43.5 -121.5zM318 -165q-17 0 -25.5 11t-5.5 28q3 15 15 26.5t30 11.5q15 0 25 -11.5t7 -26.5q-3 -17 -16 -28t-30 -11z" />
    <glyph glyph-name="uni1ECD" unicode="&#x1ecd;" horiz-adv-x="612" 
d="M91 63q-67 73 -47 192q9 56 37.5 103t70 81t93.5 53t108 19q105 0 170 -75q65 -74 45 -190q-9 -56 -36.5 -103.5t-68 -81.5t-91.5 -53t-108 -19q-105 0 -173 74zM95 250q-17 -97 35 -155t139 -58q47 0 89 16.5t75 45.5t55 68t30 85q16 94 -36 153q-52 58 -138 58
q-47 -1 -88.5 -17t-74.5 -44t-55.5 -67t-30.5 -85zM220 -165q-17 0 -25.5 11t-5.5 28q3 15 15 26.5t30 11.5q15 0 25 -11.5t7 -26.5q-3 -17 -16 -28t-30 -11z" />
    <glyph glyph-name="uni1ECE" unicode="&#x1ece;" horiz-adv-x="819" 
d="M127 98q-88 108 -62 260q13 76 51.5 140.5t95.5 111.5t127.5 74t147.5 27q149 0 238 -111q88 -110 63 -261q-13 -76 -52 -140t-96 -110.5t-128 -73t-147 -26.5q-150 0 -238 109zM119 350q-23 -131 50 -220q73 -90 205 -90q66 0 126.5 23.5t108.5 64.5t81 97.5t44 121.5
q22 130 -51 221q-74 92 -205 92q-67 0 -127.5 -24t-108 -66t-80 -98.5t-43.5 -121.5zM435 883q16 27 41 40.5t53 13.5q29 0 50 -16t15 -51q-4 -23 -15 -36t-24 -22.5t-24 -18t-14 -23.5h-41q6 22 17.5 34.5t23.5 21.5t22 18.5t13 24.5q3 14 -5 22.5t-25 8.5q-14 0 -29 -8
t-26 -25q-5 3 -17.5 8.5t-14.5 7.5z" />
    <glyph glyph-name="uni1ECF" unicode="&#x1ecf;" horiz-adv-x="612" 
d="M91 63q-67 73 -47 192q9 56 37.5 103t70 81t93.5 53t108 19q105 0 170 -75q65 -74 45 -190q-9 -56 -36.5 -103.5t-68 -81.5t-91.5 -53t-108 -19q-105 0 -173 74zM95 250q-17 -97 35 -155t139 -58q47 0 89 16.5t75 45.5t55 68t30 85q16 94 -36 153q-52 58 -138 58
q-47 -1 -88.5 -17t-74.5 -44t-55.5 -67t-30.5 -85zM304 683q16 27 41 40.5t53 13.5q29 0 50 -16t15 -51q-4 -23 -15 -36t-24 -22.5t-24 -18t-14 -23.5h-41q6 22 17.5 34.5t23.5 21.5t22 18.5t13 24.5q3 14 -5 22.5t-25 8.5q-14 0 -29 -8t-26 -25q-5 3 -17.5 8.5t-14.5 7.5z
" />
    <glyph glyph-name="uni1ED0" unicode="&#x1ed0;" horiz-adv-x="819" 
d="M127 98q-88 108 -62 260q13 76 51.5 140.5t95.5 111.5t127.5 74t147.5 27q149 0 238 -111q88 -110 63 -261q-13 -76 -52 -140t-96 -110.5t-128 -73t-147 -26.5q-150 0 -238 109zM119 350q-23 -131 50 -220q73 -90 205 -90q66 0 126.5 23.5t108.5 64.5t81 97.5t44 121.5
q22 130 -51 221q-74 92 -205 92q-67 0 -127.5 -24t-108 -66t-80 -98.5t-43.5 -121.5zM492 888h55l81 -118h-51l-60 88l-90 -88h-56zM610 853l93 118h58l-104 -118h-47z" />
    <glyph glyph-name="uni1ED1" unicode="&#x1ed1;" horiz-adv-x="612" 
d="M91 63q-67 73 -47 192q9 56 37.5 103t70 81t93.5 53t108 19q105 0 170 -75q65 -74 45 -190q-9 -56 -36.5 -103.5t-68 -81.5t-91.5 -53t-108 -19q-105 0 -173 74zM95 250q-17 -97 35 -155t139 -58q47 0 89 16.5t75 45.5t55 68t30 85q16 94 -36 153q-52 58 -138 58
q-47 -1 -88.5 -17t-74.5 -44t-55.5 -67t-30.5 -85zM236 570l121 118h55l81 -118h-51l-60 88l-90 -88h-56zM475 653l93 118h58l-104 -118h-47z" />
    <glyph glyph-name="uni1ED2" unicode="&#x1ed2;" horiz-adv-x="819" 
d="M127 98q-88 108 -62 260q13 76 51.5 140.5t95.5 111.5t127.5 74t147.5 27q149 0 238 -111q88 -110 63 -261q-13 -76 -52 -140t-96 -110.5t-128 -73t-147 -26.5q-150 0 -238 109zM119 350q-23 -131 50 -220q73 -90 205 -90q66 0 126.5 23.5t108.5 64.5t81 97.5t44 121.5
q22 130 -51 221q-74 92 -205 92q-67 0 -127.5 -24t-108 -66t-80 -98.5t-43.5 -121.5zM492 888h55l81 -118h-51l-60 88l-90 -88h-56zM617 971l54 -118h-44l-65 118h55z" />
    <glyph glyph-name="uni1ED3" unicode="&#x1ed3;" horiz-adv-x="612" 
d="M91 63q-67 73 -47 192q9 56 37.5 103t70 81t93.5 53t108 19q105 0 170 -75q65 -74 45 -190q-9 -56 -36.5 -103.5t-68 -81.5t-91.5 -53t-108 -19q-105 0 -173 74zM95 250q-17 -97 35 -155t139 -58q47 0 89 16.5t75 45.5t55 68t30 85q16 94 -36 153q-52 58 -138 58
q-47 -1 -88.5 -17t-74.5 -44t-55.5 -67t-30.5 -85zM357 688h55l81 -118h-51l-60 88l-90 -88h-56zM427 771h55l54 -118h-44z" />
    <glyph glyph-name="uni1ED4" unicode="&#x1ed4;" horiz-adv-x="819" 
d="M127 98q-88 108 -62 260q13 76 51.5 140.5t95.5 111.5t127.5 74t147.5 27q149 0 238 -111q88 -110 63 -261q-13 -76 -52 -140t-96 -110.5t-128 -73t-147 -26.5q-150 0 -238 109zM119 350q-23 -131 50 -220q73 -90 205 -90q66 0 126.5 23.5t108.5 64.5t81 97.5t44 121.5
q22 130 -51 221q-74 92 -205 92q-67 0 -127.5 -24t-108 -66t-80 -98.5t-43.5 -121.5zM492 888h55l81 -118h-51l-60 88l-90 -88h-56zM600 943q-5 3 -16.5 8t-13.5 7q14 25 37.5 37.5t49.5 12.5q27 0 46.5 -15t14.5 -47q-4 -21 -14.5 -33.5t-22.5 -21t-22 -17t-13 -21.5h-38
q6 21 16.5 32.5t22 20t20.5 17t12 22.5q2 13 -5 21t-23 8q-14 0 -27 -7.5t-24 -23.5z" />
    <glyph glyph-name="uni1ED5" unicode="&#x1ed5;" horiz-adv-x="612" 
d="M91 63q-67 73 -47 192q9 56 37.5 103t70 81t93.5 53t108 19q105 0 170 -75q65 -74 45 -190q-9 -56 -36.5 -103.5t-68 -81.5t-91.5 -53t-108 -19q-105 0 -173 74zM95 250q-17 -97 35 -155t139 -58q47 0 89 16.5t75 45.5t55 68t30 85q16 94 -36 153q-52 58 -138 58
q-47 -1 -88.5 -17t-74.5 -44t-55.5 -67t-30.5 -85zM357 688h55l81 -118h-51l-60 88l-90 -88h-56zM465 743q-5 3 -16.5 8t-13.5 7q14 25 37.5 37.5t49.5 12.5q27 0 46.5 -15t14.5 -47q-4 -21 -14.5 -33.5t-22.5 -21t-22 -17t-13 -21.5h-38q6 21 16.5 32.5t22 20t20.5 17
t12 22.5q2 13 -5 21t-23 8q-14 0 -27 -7.5t-24 -23.5z" />
    <glyph glyph-name="uni1ED6" unicode="&#x1ed6;" horiz-adv-x="819" 
d="M127 98q-88 108 -62 260q13 76 51.5 140.5t95.5 111.5t127.5 74t147.5 27q149 0 238 -111q88 -110 63 -261q-13 -76 -52 -140t-96 -110.5t-128 -73t-147 -26.5q-150 0 -238 109zM119 350q-23 -131 50 -220q73 -90 205 -90q66 0 126.5 23.5t108.5 64.5t81 97.5t44 121.5
q22 130 -51 221q-74 92 -205 92q-67 0 -127.5 -24t-108 -66t-80 -98.5t-43.5 -121.5zM396 913q8 51 30 75.5t49 24.5q31 0 62 -31q30 -30 50 -30q27 0 38 56h41q-3 -17 -8.5 -34.5t-15 -32t-24 -24t-33.5 -9.5q-31 0 -59 31q-30 30 -51 30q-28 0 -38 -56h-41zM492 888h55
l81 -118h-51l-60 88l-90 -88h-56z" />
    <glyph glyph-name="uni1ED7" unicode="&#x1ed7;" horiz-adv-x="612" 
d="M91 63q-67 73 -47 192q9 56 37.5 103t70 81t93.5 53t108 19q105 0 170 -75q65 -74 45 -190q-9 -56 -36.5 -103.5t-68 -81.5t-91.5 -53t-108 -19q-105 0 -173 74zM95 250q-17 -97 35 -155t139 -58q47 0 89 16.5t75 45.5t55 68t30 85q16 94 -36 153q-52 58 -138 58
q-47 -1 -88.5 -17t-74.5 -44t-55.5 -67t-30.5 -85zM261 713q8 51 30 75.5t49 24.5q31 0 62 -31q30 -30 50 -30q27 0 38 56h41q-3 -17 -8.5 -34.5t-15 -32t-24 -24t-33.5 -9.5q-31 0 -59 31q-30 30 -51 30q-28 0 -38 -56h-41zM357 688h55l81 -118h-51l-60 88l-90 -88h-56z
" />
    <glyph glyph-name="uni1ED8" unicode="&#x1ed8;" horiz-adv-x="819" 
d="M127 98q-88 108 -62 260q13 76 51.5 140.5t95.5 111.5t127.5 74t147.5 27q149 0 238 -111q88 -110 63 -261q-13 -76 -52 -140t-96 -110.5t-128 -73t-147 -26.5q-150 0 -238 109zM119 350q-23 -131 50 -220q73 -90 205 -90q66 0 126.5 23.5t108.5 64.5t81 97.5t44 121.5
q22 130 -51 221q-74 92 -205 92q-67 0 -127.5 -24t-108 -66t-80 -98.5t-43.5 -121.5zM492 888h55l81 -118h-51l-60 88l-90 -88h-56zM318 -165q-17 0 -25.5 11t-5.5 28q3 15 15 26.5t30 11.5q15 0 25 -11.5t7 -26.5q-3 -17 -16 -28t-30 -11z" />
    <glyph glyph-name="uni1ED9" unicode="&#x1ed9;" horiz-adv-x="612" 
d="M91 63q-67 73 -47 192q9 56 37.5 103t70 81t93.5 53t108 19q105 0 170 -75q65 -74 45 -190q-9 -56 -36.5 -103.5t-68 -81.5t-91.5 -53t-108 -19q-105 0 -173 74zM95 250q-17 -97 35 -155t139 -58q47 0 89 16.5t75 45.5t55 68t30 85q16 94 -36 153q-52 58 -138 58
q-47 -1 -88.5 -17t-74.5 -44t-55.5 -67t-30.5 -85zM357 688h55l81 -118h-51l-60 88l-90 -88h-56zM220 -165q-17 0 -25.5 11t-5.5 28q3 15 15 26.5t30 11.5q15 0 25 -11.5t7 -26.5q-3 -17 -16 -28t-30 -11z" />
    <glyph glyph-name="uni1EDA" unicode="&#x1eda;" horiz-adv-x="819" 
d="M127 98q-88 108 -62 260q13 76 51.5 140.5t95.5 111.5t127.5 74t147.5 27q45 0 89 -11q23 0 47 16t32 59h51q-7 -36 -25.5 -61t-43.5 -39q49 -27 88 -75q88 -110 63 -261q-13 -76 -52 -140t-96 -110.5t-128 -73t-147 -26.5q-150 0 -238 109zM119 350q-23 -131 50 -220
q73 -90 205 -90q66 0 126.5 23.5t108.5 64.5t81 97.5t44 121.5q22 130 -51 221q-74 92 -205 92q-67 0 -127.5 -24t-108 -66t-80 -98.5t-43.5 -121.5zM551 897h62l-112 -127h-50z" />
    <glyph glyph-name="uni1EDB" unicode="&#x1edb;" horiz-adv-x="612" 
d="M91 63q-67 73 -47 192q9 56 37.5 103t70 81t93.5 53t108 19q38 0 74 -11h2q12 0 24.5 4t23.5 12.5t19.5 23t12.5 35.5h51q-7 -38 -28 -63.5t-48 -39.5q21 -15 39 -36q64 -75 45 -190q-9 -56 -36.5 -103.5t-68 -81.5t-91.5 -53t-108 -19q-105 0 -173 74zM95 250
q-17 -97 35 -155t139 -58q47 0 89 16.5t75 45.5t55 68t30 85q16 94 -36 153q-52 58 -138 58q-47 -1 -88.5 -17t-74.5 -44t-55.5 -67t-30.5 -85zM416 697h62l-112 -127h-50z" />
    <glyph glyph-name="uni1EDC" unicode="&#x1edc;" horiz-adv-x="819" 
d="M127 98q-88 108 -62 260q13 76 51.5 140.5t95.5 111.5t127.5 74t147.5 27q45 0 89 -11q23 0 47 16t32 59h51q-7 -36 -25.5 -61t-43.5 -39q49 -27 88 -75q88 -110 63 -261q-13 -76 -52 -140t-96 -110.5t-128 -73t-147 -26.5q-150 0 -238 109zM119 350q-23 -131 50 -220
q73 -90 205 -90q66 0 126.5 23.5t108.5 64.5t81 97.5t44 121.5q22 130 -51 221q-74 92 -205 92q-67 0 -127.5 -24t-108 -66t-80 -98.5t-43.5 -121.5zM484 897l58 -127h-48l-70 127h60z" />
    <glyph glyph-name="uni1EDD" unicode="&#x1edd;" horiz-adv-x="612" 
d="M91 63q-67 73 -47 192q9 56 37.5 103t70 81t93.5 53t108 19q38 0 74 -11h2q12 0 24.5 4t23.5 12.5t19.5 23t12.5 35.5h51q-7 -38 -28 -63.5t-48 -39.5q21 -15 39 -36q64 -75 45 -190q-9 -56 -36.5 -103.5t-68 -81.5t-91.5 -53t-108 -19q-105 0 -173 74zM95 250
q-17 -97 35 -155t139 -58q47 0 89 16.5t75 45.5t55 68t30 85q16 94 -36 153q-52 58 -138 58q-47 -1 -88.5 -17t-74.5 -44t-55.5 -67t-30.5 -85zM287 697h60l58 -127h-48z" />
    <glyph glyph-name="uni1EDE" unicode="&#x1ede;" horiz-adv-x="819" 
d="M127 98q-88 108 -62 260q13 76 51.5 140.5t95.5 111.5t127.5 74t147.5 27q45 0 89 -11q23 0 47 16t32 59h51q-7 -36 -25.5 -61t-43.5 -39q49 -27 88 -75q88 -110 63 -261q-13 -76 -52 -140t-96 -110.5t-128 -73t-147 -26.5q-150 0 -238 109zM119 350q-23 -131 50 -220
q73 -90 205 -90q66 0 126.5 23.5t108.5 64.5t81 97.5t44 121.5q22 130 -51 221q-74 92 -205 92q-67 0 -127.5 -24t-108 -66t-80 -98.5t-43.5 -121.5zM435 883q16 27 41 40.5t53 13.5q29 0 50 -16t15 -51q-4 -23 -15 -36t-24 -22.5t-24 -18t-14 -23.5h-41q6 22 17.5 34.5
t23.5 21.5t22 18.5t13 24.5q3 14 -5 22.5t-25 8.5q-14 0 -29 -8t-26 -25q-5 3 -17.5 8.5t-14.5 7.5z" />
    <glyph glyph-name="uni1EDF" unicode="&#x1edf;" horiz-adv-x="612" 
d="M91 63q-67 73 -47 192q9 56 37.5 103t70 81t93.5 53t108 19q38 0 74 -11h2q12 0 24.5 4t23.5 12.5t19.5 23t12.5 35.5h51q-7 -38 -28 -63.5t-48 -39.5q21 -15 39 -36q64 -75 45 -190q-9 -56 -36.5 -103.5t-68 -81.5t-91.5 -53t-108 -19q-105 0 -173 74zM95 250
q-17 -97 35 -155t139 -58q47 0 89 16.5t75 45.5t55 68t30 85q16 94 -36 153q-52 58 -138 58q-47 -1 -88.5 -17t-74.5 -44t-55.5 -67t-30.5 -85zM304 683q16 27 41 40.5t53 13.5q29 0 50 -16t15 -51q-4 -23 -15 -36t-24 -22.5t-24 -18t-14 -23.5h-41q6 22 17.5 34.5
t23.5 21.5t22 18.5t13 24.5q3 14 -5 22.5t-25 8.5q-14 0 -29 -8t-26 -25q-5 3 -17.5 8.5t-14.5 7.5z" />
    <glyph glyph-name="uni1EE0" unicode="&#x1ee0;" horiz-adv-x="819" 
d="M127 98q-88 108 -62 260q13 76 51.5 140.5t95.5 111.5t127.5 74t147.5 27q45 0 89 -11q23 0 47 16t32 59h51q-7 -36 -25.5 -61t-43.5 -39q49 -27 88 -75q88 -110 63 -261q-13 -76 -52 -140t-96 -110.5t-128 -73t-147 -26.5q-150 0 -238 109zM119 350q-23 -131 50 -220
q73 -90 205 -90q66 0 126.5 23.5t108.5 64.5t81 97.5t44 121.5q22 130 -51 221q-74 92 -205 92q-67 0 -127.5 -24t-108 -66t-80 -98.5t-43.5 -121.5zM364 783q9 55 32 81t52 26q34 0 67 -33q32 -32 54 -32q30 0 41 60h44q-3 -17 -9 -36t-16.5 -35t-25.5 -26.5t-36 -10.5
q-32 0 -64 34q-32 32 -54 32q-31 0 -41 -60h-44z" />
    <glyph glyph-name="uni1EE1" unicode="&#x1ee1;" horiz-adv-x="612" 
d="M91 63q-67 73 -47 192q9 56 37.5 103t70 81t93.5 53t108 19q38 0 74 -11h2q12 0 24.5 4t23.5 12.5t19.5 23t12.5 35.5h51q-7 -38 -28 -63.5t-48 -39.5q21 -15 39 -36q64 -75 45 -190q-9 -56 -36.5 -103.5t-68 -81.5t-91.5 -53t-108 -19q-105 0 -173 74zM95 250
q-17 -97 35 -155t139 -58q47 0 89 16.5t75 45.5t55 68t30 85q16 94 -36 153q-52 58 -138 58q-47 -1 -88.5 -17t-74.5 -44t-55.5 -67t-30.5 -85zM230 583q9 55 32 81t52 26q34 0 67 -33q32 -32 54 -32q30 0 41 60h44q-3 -17 -9 -36t-16.5 -35t-25.5 -26.5t-36 -10.5
q-32 0 -64 34q-32 32 -54 32q-31 0 -41 -60h-44z" />
    <glyph glyph-name="uni1EE2" unicode="&#x1ee2;" horiz-adv-x="819" 
d="M127 98q-88 108 -62 260q13 76 51.5 140.5t95.5 111.5t127.5 74t147.5 27q45 0 89 -11q23 0 47 16t32 59h51q-7 -36 -25.5 -61t-43.5 -39q49 -27 88 -75q88 -110 63 -261q-13 -76 -52 -140t-96 -110.5t-128 -73t-147 -26.5q-150 0 -238 109zM119 350q-23 -131 50 -220
q73 -90 205 -90q66 0 126.5 23.5t108.5 64.5t81 97.5t44 121.5q22 130 -51 221q-74 92 -205 92q-67 0 -127.5 -24t-108 -66t-80 -98.5t-43.5 -121.5zM318 -165q-17 0 -25.5 11t-5.5 28q3 15 15 26.5t30 11.5q15 0 25 -11.5t7 -26.5q-3 -17 -16 -28t-30 -11z" />
    <glyph glyph-name="uni1EE3" unicode="&#x1ee3;" horiz-adv-x="612" 
d="M91 63q-67 73 -47 192q9 56 37.5 103t70 81t93.5 53t108 19q38 0 74 -11h2q12 0 24.5 4t23.5 12.5t19.5 23t12.5 35.5h51q-7 -38 -28 -63.5t-48 -39.5q21 -15 39 -36q64 -75 45 -190q-9 -56 -36.5 -103.5t-68 -81.5t-91.5 -53t-108 -19q-105 0 -173 74zM95 250
q-17 -97 35 -155t139 -58q47 0 89 16.5t75 45.5t55 68t30 85q16 94 -36 153q-52 58 -138 58q-47 -1 -88.5 -17t-74.5 -44t-55.5 -67t-30.5 -85zM220 -165q-17 0 -25.5 11t-5.5 28q3 15 15 26.5t30 11.5q15 0 25 -11.5t7 -26.5q-3 -17 -16 -28t-30 -11z" />
    <glyph glyph-name="uni1EE4" unicode="&#x1ee4;" horiz-adv-x="667" 
d="M117 57q-62 70 -43 177l82 466h53l-82 -466q-15 -87 28.5 -140.5t139.5 -53.5q93 0 157.5 50.5t81.5 143.5l82 466h53l-82 -466q-10 -56 -35 -101.5t-63 -77.5t-87 -49t-106 -17q-117 0 -179 68zM244 -165q-17 0 -25.5 11t-5.5 28q3 15 15 26.5t30 11.5q15 0 25 -11.5
t7 -26.5q-3 -17 -16 -28t-30 -11z" />
    <glyph glyph-name="uni1EE5" unicode="&#x1ee5;" 
d="M216 -11q-45 0 -78.5 14t-55 40.5t-29.5 63.5t0 82l55 311h51l-55 -311q-12 -70 18.5 -111t102.5 -41q39 0 73 13t61.5 38t46.5 62.5t28 85.5v-1l47 265h50l-88 -500h-50l15 87q-71 -98 -192 -98zM191 -165q-17 0 -25.5 11t-5.5 28q3 15 15 26.5t30 11.5q15 0 25 -11.5
t7 -26.5q-3 -17 -16 -28t-30 -11z" />
    <glyph glyph-name="uni1EE6" unicode="&#x1ee6;" horiz-adv-x="667" 
d="M117 57q-62 70 -43 177l82 466h53l-82 -466q-15 -87 28.5 -140.5t139.5 -53.5q93 0 157.5 50.5t81.5 143.5l82 466h53l-82 -466q-10 -56 -35 -101.5t-63 -77.5t-87 -49t-106 -17q-117 0 -179 68zM369 883q16 27 41 40.5t53 13.5q29 0 50 -16t15 -51q-4 -23 -15 -36
t-24 -22.5t-24 -18t-14 -23.5h-41q6 22 17.5 34.5t23.5 21.5t22 18.5t13 24.5q3 14 -5 22.5t-25 8.5q-14 0 -29 -8t-26 -25q-5 3 -17.5 8.5t-14.5 7.5z" />
    <glyph glyph-name="uni1EE7" unicode="&#x1ee7;" 
d="M216 -11q-45 0 -78.5 14t-55 40.5t-29.5 63.5t0 82l55 311h51l-55 -311q-12 -70 18.5 -111t102.5 -41q39 0 73 13t61.5 38t46.5 62.5t28 85.5v-1l47 265h50l-88 -500h-50l15 87q-71 -98 -192 -98zM308 667q-5 3 -17.5 8.5t-14.5 7.5q16 27 41 40.5t53 13.5q29 0 50 -16
t15 -51q-4 -23 -15 -36t-24 -22.5t-24 -18t-14 -23.5h-41q6 22 17.5 34.5t23.5 21.5t22 18.5t13 24.5q3 14 -5 22.5t-25 8.5q-14 0 -29 -8t-26 -25z" />
    <glyph glyph-name="uni1EE8" unicode="&#x1ee8;" horiz-adv-x="667" 
d="M117 57q-62 70 -43 177l82 466h53l-82 -466q-15 -87 28.5 -140.5t139.5 -53.5q93 0 157.5 50.5t81.5 143.5l82 466h14q35 0 57.5 20t27.5 55h51q-9 -48 -38.5 -76t-65.5 -38l-75 -427q-10 -56 -35 -101.5t-63 -77.5t-87 -49t-106 -17q-117 0 -179 68zM481 897h62
l-112 -127h-50z" />
    <glyph glyph-name="uni1EE9" unicode="&#x1ee9;" 
d="M216 -11q-45 0 -78.5 14t-55 40.5t-29.5 63.5t0 82l55 311h51l-55 -311q-12 -70 18.5 -111t102.5 -41q39 0 73 13t61.5 38t46.5 62.5t28 85.5v-1l47 265h11q35 0 57.5 20t27.5 55h51q-9 -48 -38.5 -76t-65.5 -38l-81 -461h-50l15 87q-71 -98 -192 -98zM406 697h62
l-112 -127h-50z" />
    <glyph glyph-name="uni1EEA" unicode="&#x1eea;" horiz-adv-x="667" 
d="M117 57q-62 70 -43 177l82 466h53l-82 -466q-15 -87 28.5 -140.5t139.5 -53.5q93 0 157.5 50.5t81.5 143.5l82 466h14q35 0 57.5 20t27.5 55h51q-9 -48 -38.5 -76t-65.5 -38l-75 -427q-10 -56 -35 -101.5t-63 -77.5t-87 -49t-106 -17q-117 0 -179 68zM340 897h60l58 -127
h-48z" />
    <glyph glyph-name="uni1EEB" unicode="&#x1eeb;" 
d="M216 -11q-45 0 -78.5 14t-55 40.5t-29.5 63.5t0 82l55 311h51l-55 -311q-12 -70 18.5 -111t102.5 -41q39 0 73 13t61.5 38t46.5 62.5t28 85.5v-1l47 265h11q35 0 57.5 20t27.5 55h51q-9 -48 -38.5 -76t-65.5 -38l-81 -461h-50l15 87q-71 -98 -192 -98zM308 697l58 -127
h-48l-70 127h60z" />
    <glyph glyph-name="uni1EEC" unicode="&#x1eec;" horiz-adv-x="667" 
d="M117 57q-62 70 -43 177l82 466h53l-82 -466q-15 -87 28.5 -140.5t139.5 -53.5q93 0 157.5 50.5t81.5 143.5l82 466h14q35 0 57.5 20t27.5 55h51q-9 -48 -38.5 -76t-65.5 -38l-75 -427q-10 -56 -35 -101.5t-63 -77.5t-87 -49t-106 -17q-117 0 -179 68zM401 867
q-5 3 -17.5 8.5t-14.5 7.5q16 27 41 40.5t53 13.5q29 0 50 -16t15 -51q-4 -23 -15 -36t-24 -22.5t-24 -18t-14 -23.5h-41q6 22 17.5 34.5t23.5 21.5t22 18.5t13 24.5q3 14 -5 22.5t-25 8.5q-14 0 -29 -8t-26 -25z" />
    <glyph glyph-name="uni1EED" unicode="&#x1eed;" 
d="M216 -11q-45 0 -78.5 14t-55 40.5t-29.5 63.5t0 82l55 311h51l-55 -311q-12 -70 18.5 -111t102.5 -41q39 0 73 13t61.5 38t46.5 62.5t28 85.5v-1l47 265h11q35 0 57.5 20t27.5 55h51q-9 -48 -38.5 -76t-65.5 -38l-81 -461h-50l15 87q-71 -98 -192 -98zM308 667
q-5 3 -17.5 8.5t-14.5 7.5q16 27 41 40.5t53 13.5q29 0 50 -16t15 -51q-4 -23 -15 -36t-24 -22.5t-24 -18t-14 -23.5h-41q6 22 17.5 34.5t23.5 21.5t22 18.5t13 24.5q3 14 -5 22.5t-25 8.5q-14 0 -29 -8t-26 -25z" />
    <glyph glyph-name="uni1EEE" unicode="&#x1eee;" horiz-adv-x="667" 
d="M117 57q-62 70 -43 177l82 466h53l-82 -466q-15 -87 28.5 -140.5t139.5 -53.5q93 0 157.5 50.5t81.5 143.5l82 466h14q35 0 57.5 20t27.5 55h51q-9 -48 -38.5 -76t-65.5 -38l-75 -427q-10 -56 -35 -101.5t-63 -77.5t-87 -49t-106 -17q-117 0 -179 68zM289 783q9 55 32 81
t52 26q34 0 67 -33q32 -32 54 -32q30 0 41 60h44q-3 -17 -9 -36t-16.5 -35t-25.5 -26.5t-36 -10.5q-32 0 -64 34q-32 32 -54 32q-31 0 -41 -60h-44z" />
    <glyph glyph-name="uni1EEF" unicode="&#x1eef;" 
d="M216 -11q-45 0 -78.5 14t-55 40.5t-29.5 63.5t0 82l55 311h51l-55 -311q-12 -70 18.5 -111t102.5 -41q39 0 73 13t61.5 38t46.5 62.5t28 85.5v-1l47 265h11q35 0 57.5 20t27.5 55h51q-9 -48 -38.5 -76t-65.5 -38l-81 -461h-50l15 87q-71 -98 -192 -98zM197 583
q9 55 32 81t52 26q34 0 67 -33q32 -32 54 -32q30 0 41 60h44q-3 -17 -9 -36t-16.5 -35t-25.5 -26.5t-36 -10.5q-32 0 -64 34q-32 32 -54 32q-31 0 -41 -60h-44z" />
    <glyph glyph-name="uni1EF0" unicode="&#x1ef0;" horiz-adv-x="667" 
d="M117 57q-62 70 -43 177l82 466h53l-82 -466q-15 -87 28.5 -140.5t139.5 -53.5q93 0 157.5 50.5t81.5 143.5l82 466h14q35 0 57.5 20t27.5 55h51q-9 -48 -38.5 -76t-65.5 -38l-75 -427q-10 -56 -35 -101.5t-63 -77.5t-87 -49t-106 -17q-117 0 -179 68zM244 -165
q-17 0 -25.5 11t-5.5 28q3 15 15 26.5t30 11.5q15 0 25 -11.5t7 -26.5q-3 -17 -16 -28t-30 -11z" />
    <glyph glyph-name="uni1EF1" unicode="&#x1ef1;" 
d="M216 -11q-45 0 -78.5 14t-55 40.5t-29.5 63.5t0 82l55 311h51l-55 -311q-12 -70 18.5 -111t102.5 -41q39 0 73 13t61.5 38t46.5 62.5t28 85.5v-1l47 265h11q35 0 57.5 20t27.5 55h51q-9 -48 -38.5 -76t-65.5 -38l-81 -461h-50l15 87q-71 -98 -192 -98zM191 -165
q-17 0 -25.5 11t-5.5 28q3 15 15 26.5t30 11.5q15 0 25 -11.5t7 -26.5q-3 -17 -16 -28t-30 -11z" />
    <glyph glyph-name="Ygrave" unicode="&#x1ef2;" horiz-adv-x="570" 
d="M92 700h55l156 -324l270 324h63l-311 -373l-58 -327h-53l58 329zM342 897l58 -127h-48l-70 127h60z" />
    <glyph glyph-name="ygrave" unicode="&#x1ef3;" horiz-adv-x="510" 
d="M12 -153q3 0 6 -0.5t6 -0.5q84 0 155 118l17 28l-139 508h51l121 -450l255 450h57l-312 -546q-42 -74 -96.5 -114.5t-114.5 -40.5q-4 0 -7 0.5t-7 0.5zM213 697h60l58 -127h-48z" />
    <glyph glyph-name="uni1EF4" unicode="&#x1ef4;" horiz-adv-x="570" 
d="M147 700l156 -324l270 324h63l-311 -373l-58 -327h-53l58 329l-180 371h55zM212 -165q-17 0 -25.5 11t-5.5 28q3 15 15 26.5t30 11.5q15 0 25 -11.5t7 -26.5q-3 -17 -16 -28t-30 -11z" />
    <glyph glyph-name="uni1EF5" unicode="&#x1ef5;" horiz-adv-x="510" 
d="M12 -153q3 0 6 -0.5t6 -0.5q84 0 155 118l17 28l-139 508h51l121 -450l255 450h57l-312 -546q-42 -74 -96.5 -114.5t-114.5 -40.5q-4 0 -7 0.5t-7 0.5zM295 -165q-17 0 -25.5 11t-5.5 28q3 15 15 26.5t30 11.5q15 0 25 -11.5t7 -26.5q-3 -17 -16 -28t-30 -11z" />
    <glyph glyph-name="uni1EF6" unicode="&#x1ef6;" horiz-adv-x="570" 
d="M147 700l156 -324l270 324h63l-311 -373l-58 -327h-53l58 329l-180 371h55zM341 867q-5 3 -17.5 8.5t-14.5 7.5q16 27 41 40.5t53 13.5q29 0 50 -16t15 -51q-4 -23 -15 -36t-24 -22.5t-24 -18t-14 -23.5h-41q6 22 17.5 34.5t23.5 21.5t22 18.5t13 24.5q3 14 -5 22.5
t-25 8.5q-14 0 -29 -8t-26 -25z" />
    <glyph glyph-name="uni1EF7" unicode="&#x1ef7;" horiz-adv-x="510" 
d="M12 -153q3 0 6 -0.5t6 -0.5q84 0 155 118l17 28l-139 508h51l121 -450l255 450h57l-312 -546q-42 -74 -96.5 -114.5t-114.5 -40.5q-4 0 -7 0.5t-7 0.5zM275 667q-5 3 -17.5 8.5t-14.5 7.5q16 27 41 40.5t53 13.5q29 0 50 -16t15 -51q-4 -23 -15 -36t-24 -22.5t-24 -18
t-14 -23.5h-41q6 22 17.5 34.5t23.5 21.5t22 18.5t13 24.5q3 14 -5 22.5t-25 8.5q-14 0 -29 -8t-26 -25z" />
    <glyph glyph-name="uni1EF8" unicode="&#x1ef8;" horiz-adv-x="570" 
d="M147 700l156 -324l270 324h63l-311 -373l-58 -327h-53l58 329l-180 371h55zM241 783q9 55 32 81t52 26q34 0 67 -33q32 -32 54 -32q30 0 41 60h44q-3 -17 -9 -36t-16.5 -35t-25.5 -26.5t-36 -10.5q-32 0 -64 34q-32 32 -54 32q-31 0 -41 -60h-44z" />
    <glyph glyph-name="uni1EF9" unicode="&#x1ef9;" horiz-adv-x="510" 
d="M12 -153q3 0 6 -0.5t6 -0.5q84 0 155 118l17 28l-139 508h51l121 -450l255 450h57l-312 -546q-42 -74 -96.5 -114.5t-114.5 -40.5q-4 0 -7 0.5t-7 0.5zM162 583q9 55 32 81t52 26q34 0 67 -33q32 -32 54 -32q30 0 41 60h44q-13 -81 -60 -102q-14 -6 -27 -6q-32 0 -64 34
q-32 32 -54 32q-31 0 -41 -60h-44z" />
    <glyph glyph-name="endash" unicode="&#x2013;" horiz-adv-x="665" 
d="M93 285l8 48h492l-8 -48h-492z" />
    <glyph glyph-name="emdash" unicode="&#x2014;" horiz-adv-x="765" 
d="M93 285l8 48h592l-8 -48h-592z" />
    <glyph glyph-name="quoteleft" unicode="&#x2018;" horiz-adv-x="224" 
d="M104 492l91 208h46l-74 -208h-63z" />
    <glyph glyph-name="quoteright" unicode="&#x2019;" horiz-adv-x="224" 
d="M242 700l-91 -208h-46l74 208h63z" />
    <glyph glyph-name="quotesinglbase" unicode="&#x201a;" horiz-adv-x="223" 
d="M130 68l-91 -208h-46l74 208h63z" />
    <glyph glyph-name="quotedblleft" unicode="&#x201c;" horiz-adv-x="351" 
d="M231 492l91 208h46l-74 -208h-63zM104 492l91 208h46l-74 -208h-63z" />
    <glyph glyph-name="quotedblright" unicode="&#x201d;" horiz-adv-x="351" 
d="M306 700h63l-91 -208h-46zM179 700h63l-91 -208h-46z" />
    <glyph glyph-name="quotedblbase" unicode="&#x201e;" horiz-adv-x="350" 
d="M120 -140l74 208h63l-91 -208h-46zM67 68h63l-91 -208h-46z" />
    <glyph glyph-name="dagger" unicode="&#x2020;" horiz-adv-x="473" 
d="M104 479l8 48h148l30 173h51l-30 -173h148l-9 -48h-148l-84 -479h-51l84 479h-147z" />
    <glyph glyph-name="daggerdbl" unicode="&#x2021;" horiz-adv-x="473" 
d="M50 173l8 48h148l45 258h-147l8 48h148l30 173h51l-30 -173h148l-9 -48h-148l-45 -258h148l-9 -48h-148l-30 -173h-51l30 173h-147z" />
    <glyph glyph-name="bullet" unicode="&#x2022;" horiz-adv-x="280" 
d="M143 263q-18 0 -32.5 7.5t-24.5 20t-13.5 29t-0.5 34.5q7 36 36 59.5t66 23.5q18 0 32 -7.5t24 -19.5t13.5 -28t0.5 -34q-7 -37 -35.5 -61t-65.5 -24z" />
    <glyph glyph-name="ellipsis" unicode="&#x2026;" horiz-adv-x="593" 
d="M494 34q-5 -23 -19.5 -33.5t-36.5 -10.5q-20 0 -27.5 14t-5.5 31t14 31t33 14h4q19 0 30.5 -13.5t7.5 -32.5zM304 34q-5 -23 -19.5 -33.5t-36.5 -10.5q-20 0 -27.5 14t-5.5 31t14 31t33 14h4q19 0 30.5 -13.5t7.5 -32.5zM114 34q-5 -23 -19.5 -33.5t-36.5 -10.5
q-20 0 -27.5 14t-5.5 31t14 31t33 14h4q19 0 30.5 -13.5t7.5 -32.5z" />
    <glyph glyph-name="perthousand" unicode="&#x2030;" horiz-adv-x="1076" 
d="M145 457q-37 44 -26 108q5 33 21.5 59.5t41 46t54.5 30t62 10.5q65 0 101 -45t26 -107q-6 -33 -22 -60t-40 -46t-54 -29.5t-63 -10.5q-63 0 -101 44zM713 33q-37 44 -26 108q5 33 21.5 59.5t41 46t54.5 30t62 10.5q65 0 101 -45t26 -107q-6 -33 -22.5 -59.5t-40.5 -46
t-53.5 -30t-62.5 -10.5q-63 0 -101 44zM353 33q-37 44 -26 108q10 63 61 104q51 42 118 42q65 0 101 -45t26 -107q-10 -63 -62 -105q-50 -41 -117 -41q-63 0 -101 44zM376 138q-7 -45 17 -74t69 -29q22 0 42.5 8t37 21.5t27.5 32.5t15 41q8 45 -16.5 74t-69.5 29
q-23 0 -43 -8t-36.5 -21.5t-27.5 -32.5t-15 -41zM736 138q-7 -45 17 -74t69 -29q22 0 42.5 8t37 21.5t27.5 32.5t15 41q8 45 -16.5 74t-69.5 29q-23 0 -43 -8t-36.5 -21.5t-27.5 -32.5t-15 -41zM168 562q-8 -44 16 -74q23 -29 70 -29q22 0 42.5 8t37 21.5t27.5 32.5t15 41
q8 45 -17 73q-13 14 -29.5 22t-39.5 8t-43 -8t-36.5 -21.5t-27.5 -32.5t-15 -41zM71 90l569 535l35 -20l-570 -535z" />
    <glyph glyph-name="guilsinglleft" unicode="&#x2039;" horiz-adv-x="333" 
d="M294 482l-141 -177l75 -169h-61l-77 173l138 173h66z" />
    <glyph glyph-name="guilsinglright" unicode="&#x203a;" horiz-adv-x="334" 
d="M187 482l77 -173l-138 -173h-66l141 177l-75 169h61z" />
    <glyph glyph-name="fraction" unicode="&#x2044;" horiz-adv-x="227" 
d="M-106 0h-51l525 700h51z" />
    <glyph glyph-name="Euro" unicode="&#x20ac;" horiz-adv-x="603" 
d="M27 268l7 45h78q1 21 6 42q1 8 3 17.5t5 20.5h-77l7 44h81q40 130 118.5 202t187.5 72q69 0 117 -35t69 -99l-48 -24q-32 107 -147 107q-82 0 -144.5 -57.5t-97.5 -165.5h268l-8 -44h-272l-9 -43q-3 -14 -3.5 -23t-1.5 -14h272l-8 -45h-268q-5 -109 37 -168.5t126 -59.5
q115 0 183 110l43 -26q-84 -135 -235 -135q-103 0 -158 75t-50 204h-81z" />
    <glyph glyph-name="uni20BD" unicode="&#x20bd;" horiz-adv-x="577" 
d="M2 183h89l18 104h-89l9 50h89l64 363h240q83 0 134 -64q26 -32 35 -68.5t1 -79.5q-7 -44 -29 -80.5t-55 -63.5t-74 -42t-84 -15h-187l-18 -104h267l-8 -44h-267l-24 -139h-54l24 139h-89zM359 337q33 0 63 12.5t54.5 33.5t41 49.5t21.5 60.5t-0.5 60t-24.5 51
q-37 46 -100 46h-187l-55 -313h187z" />
    <glyph glyph-name="uni2116" unicode="&#x2116;" horiz-adv-x="1020" 
d="M166 700h42l312 -602l106 602h53l-123 -700h-43l-311 602l-106 -602h-53zM758 462q-36 44 -25 106q5 32 21 58.5t39.5 45t53 29t61.5 10.5q63 0 98 -45q35 -46 25 -105q-5 -31 -20 -57.5t-38 -45.5t-52.5 -29.5t-64.5 -10.5q-62 0 -98 44zM782 564q-7 -43 15.5 -71.5
t67.5 -28.5q21 0 41 7.5t35.5 21t26.5 32t14 39.5q8 43 -15.5 72t-66.5 29q-44 0 -77 -29t-41 -72zM704 339h276l-8 -49h-277z" />
    <glyph glyph-name="trademark" unicode="&#x2122;" horiz-adv-x="479" 
d="M272 500l35 200h34l44 -109l86 109h37l-35 -200h-33l25 144l-85 -106h-4l-45 105l-25 -143h-34zM124 669l6 31h150l-5 -31h-58l-30 -169h-34l30 169h-59z" />
    <glyph glyph-name="estimated" unicode="&#x212e;" horiz-adv-x="833" 
d="M128 98q-89 108 -62 262q14 80 53.5 144.5t97 110.5t129.5 70.5t152 24.5q161 0 247 -105q43 -53 59 -116t1 -139q-3 -15 -18 -15h-560q-15 0 -18 -15l-33 -192q-3 -11 3 -19q72 -89 218 -89q72 0 135.5 23t114.5 74q9 9 19 9h35q10 0 12 -6t-6 -13q-68 -56 -145 -86.5
t-171 -30.5q-173 0 -263 108zM220 380q-3 -15 12 -15h410q15 0 18 15l35 194q1 10 -4 19q-29 48 -80.5 67.5t-117.5 19.5q-65 0 -123 -20.5t-106 -68.5q-9 -9 -10 -19z" />
    <glyph glyph-name="oneeighth" unicode="&#x215b;" horiz-adv-x="815" 
d="M599 -12q-30 0 -54.5 9t-41 24.5t-24 37.5t-2.5 49q12 73 90 104q-53 35 -43 91q10 52 52 80.5t97 28.5q25 0 47 -8.5t37 -23.5t21.5 -36.5t2.5 -47.5q-11 -59 -73 -87q65 -37 52 -108q-10 -54 -53.5 -83.5t-107.5 -29.5zM89 0l525 700h51l-525 -700h-51zM526 110
q-6 -35 15 -55.5t66 -20.5q43 0 71.5 20.5t34.5 55.5t-16 55.5t-64 20.5q-43 0 -72 -20.5t-35 -55.5zM85 655l130 45h39l-71 -400h-48l61 343l-106 -32zM572 300q-5 -31 14.5 -49.5t55.5 -18.5q35 0 60.5 18.5t30.5 49.5t-13.5 49t-54.5 18q-37 0 -62 -18t-31 -49z" />
    <glyph glyph-name="threeeighths" unicode="&#x215c;" horiz-adv-x="919" 
d="M703 -12q-30 0 -54.5 9t-41 24.5t-24 37.5t-2.5 49q12 73 90 104q-53 35 -43 91q10 52 52 80.5t97 28.5q25 0 47 -8.5t37 -23.5t21.5 -36.5t2.5 -47.5q-11 -59 -73 -87q65 -37 52 -108q-10 -54 -53.5 -83.5t-107.5 -29.5zM91 390q18 -56 89 -56q46 0 74 22.5t34 58.5
t-14 59t-65 23h-3l-18 35l115 122h-192l8 46h251l-8 -46l-114 -120q48 -9 72 -43t16 -80q-11 -57 -54 -90t-109 -33q-96 0 -124 81zM718 700h51l-525 -700h-51zM630 110q-6 -35 15 -55.5t66 -20.5q43 0 71.5 20.5t34.5 55.5t-16 55.5t-64 20.5q-43 0 -72 -20.5t-35 -55.5z
M676 300q-5 -31 14.5 -49.5t55.5 -18.5q35 0 60.5 18.5t30.5 49.5t-13.5 49t-54.5 18q-37 0 -62 -18t-31 -49z" />
    <glyph glyph-name="fiveeighths" unicode="&#x215d;" horiz-adv-x="909" 
d="M693 -12q-30 0 -54.5 9t-41 24.5t-24 37.5t-2.5 49q12 73 90 104q-53 35 -43 91q10 52 52 80.5t97 28.5q25 0 47 -8.5t37 -23.5t21.5 -36.5t2.5 -47.5q-11 -59 -73 -87q65 -37 52 -108q-10 -54 -53.5 -83.5t-107.5 -29.5zM172 288q-94 0 -123 80l43 22q20 -56 87 -56
q43 0 71.5 22t34.5 59q7 39 -13.5 61.5t-63.5 22.5h-118l50 201h227l-8 -45h-184l-28 -110h71q58 0 91 -39q34 -40 24 -95q-11 -57 -53 -90t-108 -33zM183 0l525 700h51l-525 -700h-51zM620 110q-6 -35 15 -55.5t66 -20.5q43 0 71.5 20.5t34.5 55.5t-16 55.5t-64 20.5
q-43 0 -72 -20.5t-35 -55.5zM666 300q-5 -31 14.5 -49.5t55.5 -18.5q35 0 60.5 18.5t30.5 49.5t-13.5 49t-54.5 18q-37 0 -62 -18t-31 -49z" />
    <glyph glyph-name="seveneighths" unicode="&#x215e;" horiz-adv-x="878" 
d="M662 -12q-30 0 -54.5 9t-41 24.5t-24 37.5t-2.5 49q12 73 90 104q-53 35 -43 91q10 52 52 80.5t97 28.5q25 0 47 -8.5t37 -23.5t21.5 -36.5t2.5 -47.5q-11 -59 -73 -87q65 -37 52 -108q-10 -54 -53.5 -83.5t-107.5 -29.5zM152 0l525 700h51l-525 -700h-51zM86 300
l214 354h-212l8 46h266l-7 -39l-216 -361h-53zM589 110q-6 -35 15 -55.5t66 -20.5q43 0 71.5 20.5t34.5 55.5t-16 55.5t-64 20.5q-43 0 -72 -20.5t-35 -55.5zM635 300q-5 -31 14.5 -49.5t55.5 -18.5q35 0 60.5 18.5t30.5 49.5t-13.5 49t-54.5 18q-37 0 -62 -18t-31 -49z" />
    <glyph glyph-name="arrowleft" unicode="&#x2190;" horiz-adv-x="827" 
d="M785 374l-8 -48h-610l228 -276h-67l-247 300l353 300l71 -1l-323 -275h603z" />
    <glyph glyph-name="arrowup" unicode="&#x2191;" horiz-adv-x="727" 
d="M689 400l-11 -67l-227 276l-106 -609h-51l106 601l-323 -274l13 73l352 300z" />
    <glyph glyph-name="arrowright" unicode="&#x2192;" horiz-adv-x="827" 
d="M534 650l247 -300l-349 -300h-73l322 276h-604l8 48h611l-228 276h66z" />
    <glyph glyph-name="arrowdown" unicode="&#x2193;" horiz-adv-x="727" 
d="M362 98l323 274l-13 -72l-353 -300l-247 300l12 65l226 -275l107 610h51z" />
    <glyph glyph-name="arrowboth" unicode="&#x2194;" horiz-adv-x="1033" 
d="M371 597h72l-261 -223h720l-183 223h66l203 -247l-290 -247h-72l261 223h-720l183 -223h-66l-203 247z" />
    <glyph glyph-name="arrowupdn" unicode="&#x2195;" horiz-adv-x="627" 
d="M602 491l-181 220l-128 -716l260 221l-13 -73l-289 -246l-203 246l12 66l182 -222l127 719l-261 -221l13 72l290 246l202 -246z" />
    <glyph glyph-name="uni2196" unicode="&#x2196;" horiz-adv-x="639" 
d="M586 539h-391l356 -431l-39 -33l-356 431l-68 -391l-40 48l75 424h424z" />
    <glyph glyph-name="uni2197" unicode="&#x2197;" horiz-adv-x="640" 
d="M212 587h424l-75 -424l-59 -49l68 386l-500 -425l-31 37l502 427h-387z" />
    <glyph glyph-name="uni2198" unicode="&#x2198;" horiz-adv-x="639" 
d="M583 561l39 -48l-74 -424h-424l-40 48h392l-357 432l39 33l356 -433z" />
    <glyph glyph-name="uni2199" unicode="&#x2199;" horiz-adv-x="640" 
d="M632 564l-503 -427h387l-57 -48h-424l74 424l58 48l-68 -386l501 426z" />
    <glyph glyph-name="partialdiff" unicode="&#x2202;" horiz-adv-x="579" 
d="M75 51q-46 63 -30 154q9 52 32 94t57.5 71t80 44.5t98.5 15.5q101 0 172 -57q17 123 -30 206t-148 83q-72 0 -134 -35l9 50q59 34 134 34q116 0 181 -102q64 -101 35 -264q-11 -62 -35 -125.5t-63 -114.5t-94 -83.5t-127 -32.5q-91 0 -138 62zM96 200q-12 -72 20 -117.5
t105 -45.5q56 0 99 27t74.5 68.5t51.5 92t30 97.5q-68 59 -171 59q-82 0 -138 -47t-71 -134z" />
    <glyph glyph-name="emptyset" unicode="&#x2205;" horiz-adv-x="819" 
d="M135 88q-46 51 -65 120.5t-5 147.5q13 75 52.5 140t97 113t128.5 75t147 27q117 0 199 -70l80 79h58l-108 -108q97 -109 70 -268q-13 -75 -52.5 -140t-97 -113t-128.5 -75t-147 -27q-117 0 -199 70l-80 -79h-58zM197 92q73 -59 174 -59q67 0 129 25t112 68t84 100.5
t46 123.5q24 136 -56 229zM112 350q-24 -136 56 -229l489 487q-73 59 -174 59q-67 0 -129 -25t-112 -68t-84.5 -101t-45.5 -123z" />
    <glyph glyph-name="product" unicode="&#x220f;" horiz-adv-x="640" 
d="M166 700h466l-158 -900h-50l149 851h-365l-150 -851h-50z" />
    <glyph glyph-name="summation" unicode="&#x2211;" horiz-adv-x="541" 
d="M-22 -200l8 50l326 414l-170 387l8 49h421l-8 -49h-368l174 -394l-321 -408h389l-9 -49h-450z" />
    <glyph glyph-name="minus" unicode="&#x2212;" horiz-adv-x="540" 
d="M77 326l8 48h413l-8 -48h-413z" />
    <glyph glyph-name="radical" unicode="&#x221a;" horiz-adv-x="639" 
d="M251 0l-103 251h-84l8 49h110l98 -240l376 740h57l-408 -800h-54z" />
    <glyph glyph-name="infinity" unicode="&#x221e;" horiz-adv-x="806" 
d="M104 239q-37 46 -25 115q6 33 22.5 61.5t40.5 48.5t54.5 31.5t64.5 11.5q56 0 95 -32.5t72 -85.5q49 54 98 86t109 32q64 0 102 -47t26 -114q-6 -34 -22 -62t-40 -48.5t-54.5 -31.5t-65.5 -11q-56 0 -94.5 32.5t-71.5 85.5q-109 -118 -208 -118q-66 0 -103 46zM129 350
q-9 -49 14.5 -80t71.5 -31q46 0 87.5 30t89.5 81q-29 52 -60.5 81.5t-77.5 29.5q-48 0 -82.5 -31t-42.5 -80zM451 350q58 -111 137 -111q48 0 82.5 31t43.5 80t-15 80t-72 31q-45 0 -86.5 -30t-89.5 -81z" />
    <glyph glyph-name="integral" unicode="&#x222b;" horiz-adv-x="436" 
d="M-71 -153q23 -10 45 -10q33 0 59.5 22.5t40.5 64.5l225 653q23 68 63 101.5t93 33.5q31 0 61 -10l-9 -49q-26 10 -51 10q-37 0 -64 -22.5t-41 -64.5l-225 -653q-22 -68 -62 -101.5t-91 -33.5q-26 0 -53 9z" />
    <glyph glyph-name="approxequal" unicode="&#x2248;" horiz-adv-x="587" 
d="M60 231q18 43 53 74t84 31q26 0 54.5 -10.5t60.5 -34.5q49 -37 89 -37q57 0 90 77l43 -22q-19 -44 -53 -74.5t-83 -30.5q-26 0 -55 10.5t-61 34.5q-51 37 -89 37q-56 0 -91 -77zM88 391q19 44 53.5 74.5t82.5 30.5q26 0 55 -10.5t61 -34.5q49 -37 89 -37q57 0 90 77
l43 -22q-19 -44 -53 -74.5t-82 -30.5q-53 0 -117 45q-51 36 -90 36q-56 0 -89 -76z" />
    <glyph glyph-name="notequal" unicode="&#x2260;" horiz-adv-x="537" 
d="M68 274h150l96 152h-219l8 48h241l96 154h43l-96 -154h126l-8 -48h-148l-96 -152h217l-9 -48h-238l-96 -154h-43l96 154h-129z" />
    <glyph glyph-name="lessequal" unicode="&#x2264;" horiz-adv-x="527" 
d="M524 593l-11 -59l-359 -127l314 -127l-9 -53l-372 158l9 50zM38 107l9 48h399l-8 -48h-400z" />
    <glyph glyph-name="greaterequal" unicode="&#x2265;" horiz-adv-x="527" 
d="M124 593l372 -158l-9 -50l-428 -158l11 59l358 127l-313 127zM38 107l9 48h399l-8 -48h-400z" />
    <glyph glyph-name="lozenge" unicode="&#x25ca;" horiz-adv-x="538" 
d="M199 0l-124 350l247 350h52l125 -350l-248 -350h-52zM232 55l213 301l-103 289l-213 -301z" />
    <glyph glyph-name="NULL" horiz-adv-x="0" 
 />
    <glyph glyph-name="i.loclTRK" horiz-adv-x="204" 
d="M33 0l88 500h50l-88 -500h-50zM193 586q-13 -13 -33 -13q-19 0 -32.5 13t-7.5 34q3 20 19 33.5t35 13.5q16 0 26 -8.5t13 -21t-2 -26.5t-18 -25z" />
    <glyph glyph-name="f_f_j" horiz-adv-x="780" 
d="M71 500h86l5 27q17 91 69.5 138t140.5 47h11t12 -1l-9 -48q-5 1 -10.5 1h-10.5q-127 0 -152 -137l-5 -27h219l6 37q30 184 233 184q43 0 95 -11l-8 -46q-48 9 -96 9q-78 0 -119.5 -32t-53.5 -104l-6 -37h269l-98 -557q-14 -75 -58 -115t-114 -40h-10.5t-10.5 1l8 48
q5 -1 10 -1h10q96 0 115 107l89 508h-219l-79 -451h-51l79 451h-218l-80 -451h-51l80 451h-87z" />
    <glyph glyph-name="f_j" horiz-adv-x="510" 
d="M62 451l9 49h86l5 27q34 184 233 184q42 0 94 -11l-7 -46q-48 9 -96 9q-78 0 -118.5 -32t-54.5 -104l-5 -27h270l-98 -557q-14 -75 -58 -115t-115 -40h-10.5t-10.5 1l9 48q5 -1 10 -1h10q95 0 114 107l89 508h-218l-80 -451h-51l80 451h-87z" />
    <glyph glyph-name="uni0414.loclBGR" horiz-adv-x="703" 
d="M-41 -134l33 184h64l347 650h56l119 -650h64l-33 -184h-54l24 134h-543l-24 -134h-53zM113 50h411l-101 585z" />
    <glyph glyph-name="uni041B.loclBGR" horiz-adv-x="605" 
d="M353 700h57l137 -700h-53l-121 635l-346 -635h-58z" />
    <glyph glyph-name="uni0424.loclBGR" horiz-adv-x="853" 
d="M119 100q-81 101 -54 257q14 79 51 143t91.5 109.5t124 71t148.5 29.5l16 90h54l-16 -90q151 -7 234 -110q82 -100 55 -257q-14 -80 -51 -143.5t-91.5 -109t-124.5 -71t-149 -29.5l-16 -90h-54l16 90q-151 9 -234 110zM415 38q69 4 128.5 27.5t106 64t77 96t42.5 124.5
q23 134 -43 219t-200 93zM119 350q-24 -134 42 -219t200 -93l111 624q-69 -4 -128.5 -27.5t-105 -64t-76.5 -96.5t-43 -124z" />
    <glyph glyph-name="uni0414.ss01" horiz-adv-x="690" 
d="M-26 0l9 50h56q86 83 116 251l70 399h432l-114 -650h74l-9 -50h-634zM490 50l106 600h-326l-62 -350q-28 -163 -103 -250h385z" />
    <glyph glyph-name="uni0426.ss01" horiz-adv-x="690" 
d="M43 0l123 700h53l-114 -650h387l114 650h53l-114 -650h73l-9 -50h-566z" />
    <glyph glyph-name="uni0429.ss01" horiz-adv-x="980" 
d="M166 700h53l-114 -650h312l114 650h53l-114 -650h312l114 650h53l-114 -650h73l-9 -50h-856z" />
    <glyph glyph-name="uni0414.loclBGR.ss01" horiz-adv-x="703" 
d="M-17 0l9 50h64l347 650h56l119 -650h64l-9 -50h-650zM113 50h411l-101 585z" />
    <glyph glyph-name="uni0432.loclBGR" horiz-adv-x="575" 
d="M105 55q-51 66 -31 179l43 245q20 112 83 172t163 60q80 0 123 -49q22 -26 30.5 -54.5t3.5 -63.5q-12 -80 -108 -146q64 -21 93.5 -73.5t16.5 -130.5q-17 -100 -85.5 -152.5t-177.5 -52.5q-102 0 -154 66zM125 230q-17 -94 20.5 -143.5t122.5 -49.5q82 0 135.5 42
t67.5 120q13 76 -23.5 119.5t-116.5 43.5q-16 0 -33 -2t-37 -6l-118 -22zM270 403q17 3 33 5t31 2h9.5t9.5 -1q104 62 117 140q8 48 -23.5 81t-92.5 33q-72 0 -121.5 -48t-64.5 -136l-17 -99z" />
    <glyph glyph-name="uni0433.loclBGR" horiz-adv-x="459" 
d="M61 32q-43 43 -32 107q7 45 33.5 70t62 39t75.5 21.5t75 17.5t59.5 27.5t29.5 50.5q7 45 -23.5 71.5t-78.5 26.5q-45 0 -83 -22t-58 -61l-40 26q25 48 74 76.5t113 28.5q70 0 115 -45q43 -43 32 -104q-8 -49 -43.5 -78.5t-81.5 -40.5q-33 -8 -68 -15t-65 -18t-51 -28.5
t-27 -46.5q-5 -23 2 -41t22.5 -30.5t37.5 -19.5t49 -7q55 0 98 26t65 69l41 -27q-63 -116 -208 -116q-82 0 -125 43z" />
    <glyph glyph-name="uni0434.loclBGR" horiz-adv-x="650" 
d="M246 -211q-81 0 -138 32.5t-80 87.5l45 23q16 -42 59.5 -68.5t115.5 -26.5q97 0 157.5 48.5t76.5 138.5l14 78q-40 -54 -97.5 -83.5t-126.5 -29.5q-114 0 -178 79q-63 78 -45 193q9 53 34 99t63 79.5t86.5 52.5t103.5 19q72 0 128 -36t80 -100l22 125h51l-84 -476
q-20 -112 -96.5 -173.5t-190.5 -61.5zM99 257q-14 -93 37 -157q50 -63 144 -63q43 0 82 14.5t70 40t53.5 60.5t32.5 76l6 32q9 90 -47 146q-57 57 -138 57q-86 0 -156 -57t-84 -149z" />
    <glyph glyph-name="uni0436.loclBGR" horiz-adv-x="663" 
d="M262 265l-185 235h58l175 -226l76 426h50l-76 -429l251 229h62l-268 -245l189 -255h-56l-182 247l-44 -247h-51l44 246l-264 -246h-62z" />
    <glyph glyph-name="uni0438.loclBGR" 
d="M216 -11q-45 0 -78.5 14t-55 40.5t-29.5 63.5t0 82l55 311h51l-55 -311q-12 -70 18.5 -111t102.5 -41q39 0 73 13t61.5 38t46.5 62.5t28 85.5v-1l47 265h50l-88 -500h-50l15 87q-71 -98 -192 -98z" />
    <glyph glyph-name="uni0439.loclBGR" 
d="M216 -11q-45 0 -78.5 14t-55 40.5t-29.5 63.5t0 82l55 311h51l-55 -311q-12 -70 18.5 -111t102.5 -41q39 0 73 13t61.5 38t46.5 62.5t28 85.5v-1l47 265h50l-88 -500h-50l15 87q-71 -98 -192 -98zM214 631h253l-7 -44h-254z" />
    <glyph glyph-name="uni043A.loclBGR" horiz-adv-x="483" 
d="M156 700h50l-75 -424l293 224h71l-313 -241l234 -259h-62l-227 251l-44 -251h-50z" />
    <glyph glyph-name="uni043B.loclBGR" horiz-adv-x="477" 
d="M-31 0l283 500h61l107 -500h-52l-92 445l-251 -445h-56z" />
    <glyph glyph-name="uni043F.loclBGR" 
d="M121 500h50l-15 -87q71 98 192 98q45 0 78.5 -14t55 -40.5t29 -63.5t0.5 -82l-55 -311h-51l55 311q12 70 -18.5 111t-102.5 41q-39 0 -73 -13t-61.5 -38t-46.5 -62.5t-28 -85.5v1l-47 -265h-50z" />
    <glyph glyph-name="uni0442.loclBGR" horiz-adv-x="857" 
d="M33 0l88 500h50l-14 -77q67 88 174 88q54 0 91 -25.5t49 -76.5q35 51 84.5 76.5t101.5 25.5q77 0 120 -52q44 -52 28 -142l-56 -317h-50l55 317q12 70 -17 108t-90 38q-63 0 -111 -40.5t-67 -124.5l-53 -298h-50l55 317q13 70 -14.5 108t-87.5 38q-33 0 -63 -11.5
t-55 -34.5t-42.5 -57t-25.5 -79l-50 -281h-50z" />
    <glyph glyph-name="uni0446.loclBGR" horiz-adv-x="594" 
d="M216 -11q-45 0 -79 14t-55 40.5t-29 63.5t0 82l55 311h50l-54 -311q-12 -70 18.5 -111t102.5 -41q36 0 69 11.5t60 34.5t47 57t30 79l49 281h51l-72 -410q-3 -19 6 -30t28 -11h32l-32 -186h-51l24 138q-30 4 -46 25.5t-13 55.5q-72 -93 -191 -93z" />
    <glyph glyph-name="uni0448.loclBGR" horiz-adv-x="857" 
d="M79 40q-43 52 -27 143l56 317h50l-55 -317q-12 -70 17 -108t90 -38q63 0 111 40.5t67 124.5l53 298h50l-55 -317q-13 -70 14.5 -108t87.5 -38q33 0 63 11.5t55 34.5t42.5 57t25.5 79l50 281h50l-88 -500h-50l14 77q-67 -88 -174 -88q-54 0 -91 25.5t-49 76.5
q-35 -51 -84.5 -76.5t-101.5 -25.5q-78 0 -121 51z" />
    <glyph glyph-name="uni0449.loclBGR" horiz-adv-x="888" 
d="M79 40q-43 52 -27 143l56 317h50l-55 -317q-12 -70 17 -108t90 -38q63 0 111 40.5t67 124.5l53 298h50l-55 -317q-13 -70 14.5 -108t87.5 -38q33 0 63 11.5t55 34t42.5 56.5t25.5 79l50 282h50l-72 -410q-6 -41 34 -41h33l-33 -183h-50l23 135q-29 4 -45 24.5t-14 52.5
q-68 -89 -174 -89q-54 0 -91 26t-49 77q-35 -52 -84.5 -77.5t-101.5 -25.5q-78 0 -121 51z" />
    <glyph glyph-name="uni044C.loclBGR" horiz-adv-x="482" 
d="M82 41q-47 52 -33 126l59 333h50l-29 -168h141q83 0 130 -51q45 -49 31 -128q-6 -36 -24.5 -66.5t-46.5 -52t-64.5 -33.5t-78.5 -12q-89 0 -135 52zM100 167q-11 -58 22.5 -94t100.5 -36q64 0 106 35t52 89q9 55 -22.5 88.5t-97.5 33.5h-141z" />
    <glyph glyph-name="uni044A.loclBGR" horiz-adv-x="565" 
d="M36 451l8 49h197l-29 -168h141q85 0 130 -51t31 -129q-6 -36 -24.5 -66t-46.5 -51.5t-64.5 -33.5t-78.5 -12q-89 0 -135 52q-47 52 -33 126l50 284h-146zM183 167q-11 -58 21.5 -94t101.5 -36q64 0 106 34.5t52 88.5q9 55 -22.5 89t-97.5 34h-141z" />
    <glyph glyph-name="uni044E.loclBGR" horiz-adv-x="803" 
d="M33 0l123 700h50l-75 -426h112q12 52 40.5 96t68.5 75t89 48.5t103 17.5q105 0 170 -75q65 -74 45 -190q-9 -56 -36.5 -103.5t-68 -81.5t-91.5 -53t-108 -19q-99 0 -164 65t-56 172h-112l-40 -226h-50zM286 250q-17 -96 36 -155q52 -58 138 -58q46 0 88 16.5t75 45.5
t55.5 68.5t30.5 84.5q16 94 -36 153q-52 58 -138 58q-47 -1 -88.5 -17t-74.5 -44t-55.5 -67t-30.5 -85z" />
    <glyph glyph-name="zero.sinf" horiz-adv-x="411" 
d="M18 -111q-38 60 -21 155q17 97 71.5 152.5t135.5 55.5q78 0 115 -61q38 -60 21 -155q-17 -97 -71.5 -152.5t-135.5 -55.5q-78 0 -115 61zM45 40q-14 -80 11 -122q26 -44 83 -44q34 0 60.5 14.5t45 38.5t30.5 53.5t17 59.5q14 80 -11 122q-26 44 -83 44q-35 0 -61 -14.5
t-45 -38t-30.5 -53t-16.5 -60.5z" />
    <glyph glyph-name="one.sinf" horiz-adv-x="238" 
d="M134 240h39l-71 -400h-48l61 343l-106 -32l-5 44z" />
    <glyph glyph-name="two.sinf" horiz-adv-x="342" 
d="M-39 -160l7 39l202 166q55 43 63 87q5 32 -13.5 53t-55.5 21q-65 0 -103 -68l-39 24q22 42 61 66t87 24q28 0 50.5 -9.5t37 -26t21 -38.5t2.5 -48q-5 -30 -26 -59.5t-57 -59.5l-153 -125h199l-7 -46h-276z" />
    <glyph glyph-name="three.sinf" horiz-adv-x="345" 
d="M92 -172q-96 0 -124 81l42 21q18 -56 89 -56q46 0 74 22.5t34 58.5t-14 59t-65 23h-3l-18 35l115 122h-192l8 46h251l-8 -46l-114 -120q48 -9 72 -43t16 -80q-11 -57 -54 -90t-109 -33z" />
    <glyph glyph-name="four.sinf" horiz-adv-x="356" 
d="M-34 -35l199 275h55l-198 -275h158l18 104h48l-18 -104h54l-8 -45h-54l-14 -80h-48l14 80h-213z" />
    <glyph glyph-name="five.sinf" horiz-adv-x="327" 
d="M11 -70q20 -56 87 -56q43 0 71.5 22t34.5 59q7 39 -13.5 61.5t-63.5 22.5h-118l50 201h227l-8 -45h-184l-28 -110h71q58 0 91 -39q34 -40 24 -95q-11 -57 -53 -90t-108 -33q-94 0 -123 80z" />
    <glyph glyph-name="six.sinf" horiz-adv-x="339" 
d="M-1 -131q-36 40 -25 100q8 47 38 77l163 194h60l-122 -142q10 1 17.5 1.5t12.5 0.5q61 0 96 -41t25 -99q-5 -29 -20 -53t-37.5 -41.5t-50.5 -27.5t-60 -10q-61 0 -97 41zM21 -35q-7 -42 16 -66.5t66 -24.5t74.5 24.5t39.5 66.5q7 40 -15.5 64.5t-67.5 24.5
q-43 0 -74.5 -24.5t-38.5 -64.5z" />
    <glyph glyph-name="seven.sinf" horiz-adv-x="310" 
d="M15 240h266l-7 -39l-216 -361h-53l214 354h-212z" />
    <glyph glyph-name="eight.sinf" horiz-adv-x="342" 
d="M98 -172q-30 0 -54.5 9t-41 24.5t-24 37.5t-2.5 49q12 73 90 104q-53 35 -43 91q10 52 52 80.5t97 28.5q25 0 47 -8.5t37 -23.5t21.5 -36.5t2.5 -47.5q-11 -59 -73 -87q65 -37 52 -108q-10 -54 -53.5 -83.5t-107.5 -29.5zM25 -50q-6 -35 15 -55.5t66 -20.5
q43 0 71.5 20.5t34.5 55.5t-16 55.5t-64 20.5q-43 0 -72 -20.5t-35 -55.5zM71 140q-5 -31 14.5 -49.5t55.5 -18.5q35 0 60.5 18.5t30.5 49.5t-13.5 49t-54.5 18q-37 0 -62 -18t-31 -49z" />
    <glyph glyph-name="nine.sinf" horiz-adv-x="339" 
d="M26 21q-36 42 -25 99q6 31 21.5 55.5t38 41.5t50.5 26t58 9q58 0 96 -42q36 -41 26 -99q-4 -36 -32 -70l-167 -201h-60l122 143q-15 -3 -32 -3q-61 0 -96 41zM48 115q-7 -40 15.5 -64.5t67.5 -24.5q43 0 74.5 24.5t38.5 64.5q7 42 -16 66.5t-66 24.5t-74.5 -24.5
t-39.5 -66.5z" />
    <glyph glyph-name="zero.tf" horiz-adv-x="570" 
d="M66 90q-53 101 -24 265q11 64 35.5 128t63.5 114.5t95 82t130 31.5q121 0 174 -101t24 -265q-11 -65 -35 -128.5t-63.5 -114t-95 -82t-130.5 -31.5q-121 0 -174 101zM95 350q-25 -148 14.5 -229t138.5 -81t168 81t94 229q26 147 -14.5 228.5t-137.5 81.5q-99 0 -168 -81
t-95 -229z" />
    <glyph glyph-name="one.tf" horiz-adv-x="570" 
d="M-2 0l9 51h235l104 589l-170 -50l-6 47l195 63h45l-114 -649h211l-10 -51h-499z" />
    <glyph glyph-name="two.tf" horiz-adv-x="570" 
d="M6 0l8 48l309 233q81 61 125.5 110.5t54.5 103.5q13 76 -26.5 120.5t-120.5 44.5q-60 0 -112 -32t-86 -89l-43 27q40 69 107 107t143 38q96 0 153 -61q56 -60 38 -159q-12 -66 -61 -124t-135 -122l-262 -194h397l-9 -51h-480z" />
    <glyph glyph-name="three.tf" horiz-adv-x="570" 
d="M233 -11q-85 0 -144.5 38.5t-75.5 107.5l48 25q13 -55 60 -87.5t117 -32.5q91 0 152.5 43.5t74.5 118.5t-32 118.5t-138 43.5h-14l-17 35l236 251h-376l9 50h440l-9 -50l-225 -241q48 -5 84.5 -21.5t60.5 -43.5t33 -64.5t2 -82.5q-10 -53 -36.5 -92.5t-65 -65t-86 -38
t-98.5 -12.5z" />
    <glyph glyph-name="four.tf" horiz-adv-x="570" 
d="M14 197l354 503h60l-353 -503h313l36 206h53l-36 -206h93l-9 -50h-93l-26 -147h-53l26 147h-374z" />
    <glyph glyph-name="five.tf" horiz-adv-x="570" 
d="M241 -11q-84 0 -142.5 39t-74.5 108l47 25q12 -57 58.5 -89t118.5 -32q43 0 80 11t65.5 32t47.5 51t25 68q13 75 -31 118.5t-130 43.5h-205l82 336h399l-9 -50h-350l-57 -235h149q102 0 162 -60t43 -158q-8 -50 -32 -88.5t-60.5 -65t-84 -40.5t-101.5 -14z" />
    <glyph glyph-name="six.tf" horiz-adv-x="570" 
d="M63 55q-59 68 -41 169q15 82 68 138l307 338h65l-233 -260q36 10 84 10q111 0 169 -67q59 -68 41 -169q-10 -55 -36 -97t-64.5 -70.5t-87 -43t-102.5 -14.5q-112 0 -170 66zM76 219q-15 -81 28 -130t137 -49t154 49t75 130t-29 130.5t-137 49.5q-103 0 -168 -62l-5 -6
q-21 -25 -35.5 -52t-19.5 -60z" />
    <glyph glyph-name="seven.tf" horiz-adv-x="570" 
d="M119 700h483l-8 -50l-406 -650h-59l407 650h-425z" />
    <glyph glyph-name="eight.tf" horiz-adv-x="570" 
d="M71 43q-60 55 -43 147q10 61 51.5 106t107.5 67q-45 25 -66 67t-11 96q9 48 33 83t58.5 57.5t76.5 33.5t88 11q95 0 150 -52q56 -53 40 -140q-18 -110 -132 -159q55 -24 80.5 -70.5t15.5 -106.5q-8 -47 -31 -83t-59.5 -60.5t-84.5 -37.5t-105 -13q-109 0 -169 54zM81 187
q-12 -69 32 -108t135 -39q94 0 150.5 39t68.5 108t-30.5 107.5t-136.5 38.5t-151 -38.5t-68 -107.5zM163 522q-11 -63 28 -100t118 -37q78 0 130.5 37t63.5 100q12 66 -27.5 102t-117.5 36q-81 0 -132 -36t-63 -102z" />
    <glyph glyph-name="nine.tf" horiz-adv-x="570" 
d="M123 316q-59 66 -41 169q10 55 36.5 97.5t65 71t87 43t102.5 14.5q110 0 169 -66t41 -169q-14 -77 -63 -132l-311 -344h-65l234 260q-43 -10 -86 -10q-111 0 -169 66zM135 481q-14 -81 29 -130.5t137 -49.5q46 0 85 13t68.5 36.5t49 56.5t26.5 74q14 81 -29 130t-137 49
q-42 0 -80.5 -12t-69 -34.5t-51.5 -56t-28 -76.5z" />
    <glyph glyph-name="zero.dnom" horiz-adv-x="411" 
d="M46 48q-38 61 -21 156q17 97 71.5 152.5t135.5 55.5q78 0 115 -61q38 -60 21 -155q-17 -97 -71.5 -152.5t-135.5 -55.5q-78 0 -115 60zM73 200q-14 -81 11 -123q25 -43 83 -43q35 0 61 14.5t45 38t30.5 53t16.5 60.5q14 80 -11 122q-26 44 -83 44q-35 0 -61 -14.5
t-45 -38t-30.5 -53t-16.5 -60.5z" />
    <glyph glyph-name="one.dnom" horiz-adv-x="246" 
d="M162 400h39l-71 -400h-48l61 343l-106 -32l-5 44z" />
    <glyph glyph-name="two.dnom" horiz-adv-x="342" 
d="M-11 0l7 39l202 166q55 43 63 87q5 32 -13.5 53t-55.5 21q-65 0 -103 -68l-39 24q22 42 61 66t87 24q28 0 50.5 -9.5t37 -26t21 -38.5t2.5 -48q-5 -30 -26 -59.5t-57 -59.5l-153 -125h199l-7 -46h-276z" />
    <glyph glyph-name="three.dnom" horiz-adv-x="350" 
d="M121 -12q-96 0 -124 81l42 21q18 -56 89 -56q46 0 74 22.5t34 58.5t-14 59t-65 23h-3l-18 35l115 122h-192l8 46h251l-8 -46l-114 -120q48 -9 72 -43t16 -80q-11 -57 -54 -90t-109 -33z" />
    <glyph glyph-name="four.dnom" horiz-adv-x="356" 
d="M-6 125l199 275h55l-198 -275h158l18 104h48l-18 -104h54l-8 -45h-54l-14 -80h-48l14 80h-213z" />
    <glyph glyph-name="five.dnom" horiz-adv-x="341" 
d="M40 90q20 -56 87 -56q43 0 71.5 22t34.5 59q7 39 -13.5 61.5t-63.5 22.5h-118l50 201h227l-8 -45h-184l-28 -110h71q58 0 91 -39q34 -40 24 -95q-11 -57 -53 -90t-108 -33q-94 0 -123 80z" />
    <glyph glyph-name="six.dnom" horiz-adv-x="340" 
d="M28 29q-36 40 -25 100q8 47 38 77l163 194h60l-122 -142q10 1 17.5 1.5t12.5 0.5q61 0 96 -41t25 -99q-5 -29 -20 -53t-37.5 -41.5t-50.5 -27.5t-60 -10q-61 0 -97 41zM50 125q-7 -42 16 -66.5t66 -24.5t74.5 24.5t39.5 66.5q7 40 -15.5 64.5t-67.5 24.5
q-43 0 -74.5 -24.5t-38.5 -64.5z" />
    <glyph glyph-name="seven.dnom" horiz-adv-x="309" 
d="M43 400h266l-7 -39l-216 -361h-53l214 354h-212z" />
    <glyph glyph-name="eight.dnom" horiz-adv-x="342" 
d="M126 -12q-30 0 -54.5 9t-41 24.5t-24 37.5t-2.5 49q12 73 90 104q-53 35 -43 91q10 52 52 80.5t97 28.5q25 0 47 -8.5t37 -23.5t21.5 -36.5t2.5 -47.5q-11 -59 -73 -87q65 -37 52 -108q-10 -54 -53.5 -83.5t-107.5 -29.5zM53 110q-6 -35 15 -55.5t66 -20.5
q43 0 71.5 20.5t34.5 55.5t-16 55.5t-64 20.5q-43 0 -72 -20.5t-35 -55.5zM99 300q-5 -31 14.5 -49.5t55.5 -18.5q35 0 60.5 18.5t30.5 49.5t-13.5 49t-54.5 18q-37 0 -62 -18t-31 -49z" />
    <glyph glyph-name="nine.dnom" horiz-adv-x="339" 
d="M54 181q-36 42 -25 99q6 31 21.5 55.5t38 41.5t50.5 26t58 9q58 0 96 -42q36 -41 26 -99q-4 -36 -32 -70l-167 -201h-60l122 143q-15 -3 -32 -3q-61 0 -96 41zM76 275q-7 -40 15.5 -64.5t67.5 -24.5q43 0 74.5 24.5t38.5 64.5q7 42 -16 66.5t-66 24.5t-74.5 -24.5
t-39.5 -66.5z" />
    <glyph glyph-name="zero.numr" horiz-adv-x="411" 
d="M99 348q-38 61 -21 156q17 97 71.5 152.5t135.5 55.5q78 0 115 -61q38 -60 21 -155q-17 -97 -71.5 -152.5t-135.5 -55.5q-78 0 -115 60zM126 500q-14 -81 11 -123q25 -43 83 -43q35 0 61 14.5t45 38t30.5 53t16.5 60.5q14 80 -11 122q-26 44 -83 44q-35 0 -61 -14.5
t-45 -38t-30.5 -53t-16.5 -60.5z" />
    <glyph glyph-name="one.numr" horiz-adv-x="246" 
d="M215 700h39l-71 -400h-48l61 343l-106 -32l-5 44z" />
    <glyph glyph-name="two.numr" horiz-adv-x="342" 
d="M42 300l7 39l202 166q55 43 63 87q5 32 -13.5 53t-55.5 21q-65 0 -103 -68l-39 24q22 42 61 66t87 24q28 0 50.5 -9.5t37 -26t21 -38.5t2.5 -48q-5 -30 -26 -59.5t-57 -59.5l-153 -125h199l-7 -46h-276z" />
    <glyph glyph-name="three.numr" horiz-adv-x="350" 
d="M173 288q-96 0 -124 81l42 21q18 -56 89 -56q46 0 74 22.5t34 58.5t-14 59t-65 23h-3l-18 35l115 122h-192l8 46h251l-8 -46l-114 -120q48 -9 72 -43t16 -80q-11 -57 -54 -90t-109 -33z" />
    <glyph glyph-name="four.numr" horiz-adv-x="356" 
d="M47 425l199 275h55l-198 -275h158l18 104h48l-18 -104h54l-8 -45h-54l-14 -80h-48l14 80h-213z" />
    <glyph glyph-name="five.numr" horiz-adv-x="340" 
d="M92 390q20 -56 87 -56q43 0 71.5 22t34.5 59q7 39 -13.5 61.5t-63.5 22.5h-118l50 201h227l-8 -45h-184l-28 -110h71q58 0 91 -39q34 -40 24 -95q-11 -57 -53 -90t-108 -33q-94 0 -123 80z" />
    <glyph glyph-name="six.numr" horiz-adv-x="339" 
d="M80 329q-36 40 -25 100q8 47 38 77l163 194h60l-122 -142q10 1 17.5 1.5t12.5 0.5q61 0 96 -41t25 -99q-5 -29 -20 -53t-37.5 -41.5t-50.5 -27.5t-60 -10q-61 0 -97 41zM102 425q-7 -42 16 -66.5t66 -24.5t74.5 24.5t39.5 66.5q7 40 -15.5 64.5t-67.5 24.5
q-43 0 -74.5 -24.5t-38.5 -64.5z" />
    <glyph glyph-name="seven.numr" horiz-adv-x="309" 
d="M96 700h266l-7 -39l-216 -361h-53l214 354h-212z" />
    <glyph glyph-name="eight.numr" horiz-adv-x="342" 
d="M179 288q-30 0 -54.5 9t-41 24.5t-24 37.5t-2.5 49q12 73 90 104q-53 35 -43 91q10 52 52 80.5t97 28.5q25 0 47 -8.5t37 -23.5t21.5 -36.5t2.5 -47.5q-11 -59 -73 -87q65 -37 52 -108q-10 -54 -53.5 -83.5t-107.5 -29.5zM106 410q-6 -35 15 -55.5t66 -20.5
q43 0 71.5 20.5t34.5 55.5t-16 55.5t-64 20.5q-43 0 -72 -20.5t-35 -55.5zM152 600q-5 -31 14.5 -49.5t55.5 -18.5q35 0 60.5 18.5t30.5 49.5t-13.5 49t-54.5 18q-37 0 -62 -18t-31 -49z" />
    <glyph glyph-name="nine.numr" horiz-adv-x="339" 
d="M107 481q-36 42 -25 99q6 31 21.5 55.5t38 41.5t50.5 26t58 9q58 0 96 -42q36 -41 26 -99q-4 -36 -32 -70l-167 -201h-60l122 143q-15 -3 -32 -3q-61 0 -96 41zM129 575q-7 -40 15.5 -64.5t67.5 -24.5q43 0 74.5 24.5t38.5 64.5q7 42 -16 66.5t-66 24.5t-74.5 -24.5
t-39.5 -66.5z" />
    <glyph glyph-name="zero.sups" horiz-adv-x="411" 
d="M127 508q-38 61 -21 156q17 97 71.5 152.5t135.5 55.5q78 0 115 -61q38 -60 21 -155q-17 -97 -71.5 -152.5t-135.5 -55.5q-78 0 -115 60zM154 660q-14 -81 11 -123q25 -43 83 -43q35 0 61 14.5t45 38t30.5 53t16.5 60.5q14 80 -11 122q-26 44 -83 44q-35 0 -61 -14.5
t-45 -38t-30.5 -53t-16.5 -60.5z" />
    <glyph glyph-name="one.sups" horiz-adv-x="247" 
d="M244 860h39l-71 -400h-48l61 343l-106 -32l-5 44z" />
    <glyph glyph-name="two.sups" horiz-adv-x="342" 
d="M70 460l7 39l202 166q55 43 63 87q5 32 -13.5 53t-55.5 21q-65 0 -103 -68l-39 24q22 42 61 66t87 24q28 0 50.5 -9.5t37 -26t21 -38.5t2.5 -48q-5 -30 -26 -59.5t-57 -59.5l-153 -125h199l-7 -46h-276z" />
    <glyph glyph-name="three.sups" horiz-adv-x="350" 
d="M202 448q-96 0 -124 81l42 21q18 -56 89 -56q46 0 74 22.5t34 58.5t-14 59t-65 23h-3l-18 35l115 122h-192l8 46h251l-8 -46l-114 -120q48 -9 72 -43t16 -80q-11 -57 -54 -90t-109 -33z" />
    <glyph glyph-name="four.sups" horiz-adv-x="356" 
d="M75 585l199 275h55l-198 -275h158l18 104h48l-18 -104h54l-8 -45h-54l-14 -80h-48l14 80h-213z" />
    <glyph glyph-name="five.sups" horiz-adv-x="340" 
d="M121 550q20 -56 87 -56q43 0 71.5 22t34.5 59q7 39 -13.5 61.5t-63.5 22.5h-118l50 201h227l-8 -45h-184l-28 -110h71q58 0 91 -39q34 -40 24 -95q-11 -57 -53 -90t-108 -33q-94 0 -123 80z" />
    <glyph glyph-name="six.sups" horiz-adv-x="339" 
d="M109 489q-36 40 -25 100q8 47 38 77l163 194h60l-122 -142q10 1 17.5 1.5t12.5 0.5q61 0 96 -41t25 -99q-5 -29 -20 -53t-37.5 -41.5t-50.5 -27.5t-60 -10q-61 0 -97 41zM131 585q-7 -42 16 -66.5t66 -24.5t74.5 24.5t39.5 66.5q7 40 -15.5 64.5t-67.5 24.5
q-43 0 -74.5 -24.5t-38.5 -64.5z" />
    <glyph glyph-name="seven.sups" horiz-adv-x="310" 
d="M125 860h266l-7 -39l-216 -361h-53l214 354h-212z" />
    <glyph glyph-name="eight.sups" horiz-adv-x="342" 
d="M207 448q-30 0 -54.5 9t-41 24.5t-24 37.5t-2.5 49q12 73 90 104q-53 35 -43 91q10 52 52 80.5t97 28.5q25 0 47 -8.5t37 -23.5t21.5 -36.5t2.5 -47.5q-11 -59 -73 -87q65 -37 52 -108q-10 -54 -53.5 -83.5t-107.5 -29.5zM134 570q-6 -35 15 -55.5t66 -20.5
q43 0 71.5 20.5t34.5 55.5t-16 55.5t-64 20.5q-43 0 -72 -20.5t-35 -55.5zM180 760q-5 -31 14.5 -49.5t55.5 -18.5q35 0 60.5 18.5t30.5 49.5t-13.5 49t-54.5 18q-37 0 -62 -18t-31 -49z" />
    <glyph glyph-name="nine.sups" horiz-adv-x="339" 
d="M135 641q-36 42 -25 99q6 31 21.5 55.5t38 41.5t50.5 26t58 9q58 0 96 -42q36 -41 26 -99q-4 -36 -32 -70l-167 -201h-60l122 143q-15 -3 -32 -3q-61 0 -96 41zM157 735q-7 -40 15.5 -64.5t67.5 -24.5q43 0 74.5 24.5t38.5 64.5q7 42 -16 66.5t-66 24.5t-74.5 -24.5
t-39.5 -66.5z" />
    <glyph glyph-name="cent.tf" horiz-adv-x="570" 
d="M177 113q-32 16 -55.5 41.5t-38 57t-19 69t2.5 77.5q10 56 37.5 102.5t68 80t91 52t107.5 18.5q13 0 26 -1.5t27 -3.5l47 94h43l-53 -105q84 -33 111 -111l-43 -23q-24 66 -90 90l-203 -407q22 -7 55 -7q60 0 112.5 28.5t83.5 76.5l40 -27q-38 -60 -102.5 -93t-142.5 -33
q-39 0 -69 10l-49 -99h-43zM118 353q-11 -64 11 -116.5t71 -78.5l201 402q-17 3 -35 3q-46 0 -87.5 -16t-74.5 -44t-55.5 -66.5t-30.5 -83.5z" />
    <glyph glyph-name="dollar.tf" horiz-adv-x="570" 
d="M229 -10q-81 6 -133.5 43.5t-70.5 101.5l48 24q27 -109 165 -118l52 295q-39 16 -65.5 30.5t-54.5 38.5q-57 49 -38 137q9 40 30 71t51 52.5t67 33t76 12.5l16 89h47l-16 -91q123 -16 164 -125l-48 -24q-35 86 -125 98l-51 -286q16 -6 29 -11.5t24 -11t22.5 -12.5
t25.5 -16q40 -27 57.5 -63t9.5 -95q-16 -81 -78.5 -125t-156.5 -49l-16 -89h-47zM285 41q70 5 115.5 39t56.5 89q6 28 0 50t-22 39.5t-41.5 32t-59.5 28.5zM185 537q-6 -28 -0.5 -49.5t20.5 -39t38.5 -32t55.5 -27.5l48 271q-30 -2 -57 -11.5t-48.5 -26t-36 -38t-20.5 -47.5
z" />
    <glyph glyph-name="Euro.tf" horiz-adv-x="570" 
d="M33 313h66q1 21 6 42q1 8 3 17.5t5 20.5h-66l8 44h69q38 130 112.5 202t177.5 72q67 0 115 -38t64 -105l-46 -24q-13 55 -49.5 85.5t-90.5 30.5q-76 0 -135.5 -57.5t-91.5 -165.5h254l-8 -44h-258l-9 -43l-6 -37h259l-8 -45h-255q-6 -109 32 -168.5t116 -59.5
q55 0 102.5 32t78.5 92l43 -27q-38 -70 -98.5 -109t-133.5 -39q-48 0 -85.5 19.5t-62.5 56t-37 88t-9 115.5h-70z" />
    <glyph glyph-name="florin.tf" horiz-adv-x="570" 
d="M-38 -153q26 -10 50 -10q38 0 66.5 22.5t45.5 64.5l166 402h-150l9 49h161l83 202q28 68 70.5 101.5t96.5 33.5q27 0 57 -9l-9 -50q-26 10 -50 10q-37 0 -65.5 -22.5t-46.5 -64.5l-83 -201h153l-9 -49h-164l-166 -403q-28 -68 -70.5 -101.5t-95.5 -33.5q-27 0 -57 9z" />
    <glyph glyph-name="uni20BD.tf" horiz-adv-x="570" 
d="M-2 183h90l18 104h-90l9 50h90l64 363h233q83 0 134 -64q26 -32 35 -68.5t1 -79.5q-7 -44 -29 -80.5t-55 -63.5t-74 -42t-84 -15h-181l-18 -104h261l-8 -44h-261l-24 -139h-53l24 139h-89zM349 337q33 0 63 12.5t54.5 33.5t41 49.5t21.5 60.5t-0.5 60t-24.5 51
q-37 46 -100 46h-181l-55 -313h181z" />
    <glyph glyph-name="sterling.tf" horiz-adv-x="570" 
d="M-11 0l9 51h100l43 242h-80l8 47h80l30 170q17 97 76 149t147 52q64 0 110.5 -34.5t66.5 -95.5l-44 -24q-37 103 -138 103q-64 0 -108.5 -39t-56.5 -111l-30 -170h241l-9 -47h-240l-43 -242h377l-9 -51h-530z" />
    <glyph glyph-name="yen.tf" horiz-adv-x="570" 
d="M62 178l7 44h184l14 77h-184l8 45h173l-171 356h55l156 -324l270 324h62l-297 -356h175l-8 -45h-186l-13 -77h186l-8 -44h-186l-31 -178h-54l32 178h-184z" />
    <glyph glyph-name="brevecy" horiz-adv-x="293" 
d="M79 587l8 44h253l-7 -44h-254z" />
    </font>
</defs>
</svg>
