<?xml version="1.0" standalone="no"?>
<!DOCTYPE svg PUBLIC "-//W3C//DTD SVG 1.1//EN" "http://www.w3.org/Graphics/SVG/1.1/DTD/svg11.dtd" >
<svg xmlns="http://www.w3.org/2000/svg" xmlns:xlink="http://www.w3.org/1999/xlink" version="1.1">
<metadata>
Created by FontForge 20170731 at Thu Oct 21 11:36:15 2021
 By Aleksey,,,
Copyright (c) 2015 by Radomir Tinkov. All rights reserved.
</metadata>
<defs>
<font id="SVN-Gilroy-ThinItalic" horiz-adv-x="540" >
  <font-face 
    font-family="SVN-Gilroy Thin"
    font-weight="100"
    font-style="italic"
    font-stretch="normal"
    units-per-em="1000"
    panose-1="0 0 3 0 0 0 0 0 0 0"
    ascent="800"
    descent="-200"
    x-height="500"
    cap-height="700"
    bbox="-275 -240 1053.88 1045"
    underline-thickness="50"
    underline-position="-150"
    slope="-10"
    unicode-range="U+0020-FB02"
  />
<missing-glyph horiz-adv-x="500" 
d="M93 -200v1000h317v-1000h-317zM167 118v-113h166v113h-166zM237 -51l-70 -47v-33h166v33h-102l70 47h32v33h-166v-33h70zM167 178h166v113h-100v-56h34v23h33v-47h-100v80h-33v-113zM167 604v-104h166v34h-66v70h-100zM167 630h166v33h-66v37h66v33h-165v-33h65v-37h-66
v-33zM233 440v-37h-66v-33h100v70h66v33h-166v-33h66zM167 313h166v100h-33v-66h-133v-34zM200 38v47h100v-47h-100zM233 570v-36h-33v36h33z" />
    <glyph glyph-name="fi" unicode="fi" horiz-adv-x="499" 
d="M74 500h90l7 40q15 87 65.5 128.5t143.5 41.5q26 0 50.5 -2.5t47.5 -7.5l-3 -18q-23 5 -47.5 7.5t-50.5 2.5q-84 0 -128 -37t-58 -115l-7 -40h269l-88 -500h-20l85 482h-249l-85 -482h-20l85 482h-90z" />
    <glyph glyph-name="fl" unicode="fl" horiz-adv-x="499" 
d="M71 482l3 18h90l7 40q15 87 65.5 128.5t143.5 41.5q26 0 52.5 -2.5t55.5 -7.5l-123 -700h-20l120 685q-17 4 -39.5 5.5t-48.5 1.5q-84 0 -128 -37t-58 -115l-7 -40h129l-3 -18h-129l-85 -482h-20l85 482h-90z" />
    <glyph glyph-name="f_f" unicode="ff" horiz-adv-x="568" 
d="M71 482l3 18h90l7 40q30 171 185 171h12t12 -1l-3 -18q-6 1 -11.5 1h-11.5q-136 0 -163 -153l-7 -40h249l9 50q15 82 61 126.5t126 44.5h11t11 -1l-3 -18q-6 1 -11.5 1h-11.5q-136 0 -163 -153l-9 -50h159l-3 -18h-159l-85 -482h-20l85 482h-249l-85 -482h-20l85 482h-90
z" />
    <glyph glyph-name="f_f_i" unicode="ffi" horiz-adv-x="768" 
d="M74 500h90l7 40q14 83 60.5 127t126.5 44h10.5t11.5 -1l-3 -18q-6 1 -11.5 1h-11.5q-136 0 -163 -153l-7 -40h249l9 50q30 170 209 170q26 0 50.5 -2.5t47.5 -7.5l-3 -18q-23 5 -47.5 7.5t-50.5 2.5q-84 0 -128 -37t-58 -115l-9 -50h269l-88 -500h-20l85 482h-249
l-85 -482h-20l85 482h-249l-85 -482h-20l85 482h-90z" />
    <glyph glyph-name="f_f_l" unicode="ffl" horiz-adv-x="768" 
d="M74 500h90l7 40q14 83 60.5 127t126.5 44h10.5t11.5 -1l-3 -18q-6 1 -11.5 1h-11.5q-136 0 -163 -153l-7 -40h249l9 50q30 170 209 170q26 0 52.5 -2.5t55.5 -7.5l-125 -710h-20l122 695q-17 4 -39.5 5.5t-48.5 1.5q-84 0 -128 -37t-58 -115l-9 -50h129l-3 -18h-129
l-85 -482h-20l85 482h-249l-85 -482h-20l85 482h-90z" />
    <glyph glyph-name=".notdef" horiz-adv-x="500" 
d="M93 -200v1000h317v-1000h-317zM167 118v-113h166v113h-166zM237 -51l-70 -47v-33h166v33h-102l70 47h32v33h-166v-33h70zM167 178h166v113h-100v-56h34v23h33v-47h-100v80h-33v-113zM167 604v-104h166v34h-66v70h-100zM167 630h166v33h-66v37h66v33h-165v-33h65v-37h-66
v-33zM233 440v-37h-66v-33h100v70h66v33h-166v-33h66zM167 313h166v100h-33v-66h-133v-34zM200 38v47h100v-47h-100zM233 570v-36h-33v36h33z" />
    <glyph glyph-name=".null" horiz-adv-x="0" 
 />
    <glyph glyph-name="nonmarkingreturn" horiz-adv-x="333" 
 />
    <glyph glyph-name="space" unicode=" " horiz-adv-x="300" 
 />
    <glyph glyph-name="space" unicode="&#xa0;" horiz-adv-x="300" 
 />
    <glyph glyph-name="exclam" unicode="!" horiz-adv-x="200" 
d="M169 700h20l-95 -540h-20zM55 -10q-10 0 -16 7.5t-4 18.5q4 24 29 24q10 0 16 -7.5t4 -18.5q-5 -24 -29 -24z" />
    <glyph glyph-name="quotedbl" unicode="&#x22;" horiz-adv-x="260" 
d="M231 540l28 160h20l-28 -160h-20zM111 540l28 160h20l-28 -160h-20z" />
    <glyph glyph-name="numbersign" unicode="#" horiz-adv-x="612" 
d="M50 250l7 20h119l54 160h-119l6 20h120l68 200h22l-68 -200h198l68 200h22l-68 -200h118l-6 -20h-119l-54 -160h119l-8 -20h-118l-68 -200h-22l68 200h-198l-68 -200h-22l68 200h-119zM198 270h198l54 160h-198z" />
    <glyph glyph-name="dollar" unicode="$" horiz-adv-x="551" 
d="M234 -10q-85 1 -140.5 37t-65.5 97l18 10q9 -60 60 -93t130 -33h1l60 338q-89 32 -135 76q-45 43 -31 124q7 40 29 70.5t53 51.5t68.5 31.5t75.5 10.5h4l16 90h20l-16 -91q63 -5 104.5 -36.5t54.5 -83.5l-16 -9q-28 103 -146 111l-59 -332q45 -16 79 -35t56 -43t30 -53.5
t1 -67.5q-13 -78 -73.5 -122t-157.5 -48l-16 -90h-20zM257 9q91 4 143.5 45.5t64.5 107.5q12 67 -28 107.5t-121 70.5zM151 544q-13 -75 37 -118q25 -21 50 -33.5t62 -26.5l58 326q-84 0 -140 -43q-57 -44 -67 -105z" />
    <glyph glyph-name="percent" unicode="%" horiz-adv-x="729" 
d="M151 458q-37 43 -26 106q5 32 21.5 59t40.5 46.5t54 30t62 10.5q64 0 102 -44q37 -43 26 -106q-6 -33 -22 -60t-40 -46t-53.5 -29.5t-62.5 -10.5q-64 0 -102 44zM359 34q-37 43 -26 106q5 32 21.5 59t40.5 46.5t54 30t62 10.5q64 0 102 -44q37 -43 26 -106
q-6 -33 -22 -60t-40 -46t-53.5 -29.5t-62.5 -10.5q-64 0 -102 44zM145 562q-5 -28 1 -52t20.5 -41t37 -27t51.5 -10t55 9.5t46.5 27t35 41t19.5 52.5q5 28 -0.5 52t-20.5 41t-38 27t-51 10q-29 0 -55 -9.5t-46.5 -27t-35 -41.5t-19.5 -52zM353 138q-5 -28 1 -52t20.5 -41
t37 -27t51.5 -10t55 9.5t46.5 27t35 41t19.5 52.5q5 28 -0.5 52t-20.5 41t-38 27t-51 10q-29 0 -55 -9.5t-46.5 -27t-35 -41.5t-19.5 -52zM82 79l582 551l18 -9l-582 -551z" />
    <glyph glyph-name="ampersand" unicode="&#x26;" horiz-adv-x="655" 
d="M98 45q-56 56 -39 142q13 67 63 120t122 87q-53 73 -40 146q7 38 26 69.5t47 54t63 34.5t73 12q64 0 109.5 -31.5t66.5 -88.5l-17 -9q-44 111 -160 111q-35 0 -66 -11t-56.5 -30.5t-42.5 -48t-23 -62.5q-9 -51 7 -88q8 -19 23 -41t36 -48l195 -239q49 62 77 155l15 -10
q-32 -99 -80 -160l85 -104l-16 -9l-81 99q-92 -105 -235 -105q-97 0 -152 55zM79 185q-15 -81 35 -129q49 -48 137 -48q134 0 223 101l-219 270q-70 -32 -118 -83.5t-58 -110.5z" />
    <glyph glyph-name="quotesingle" unicode="'" horiz-adv-x="130" 
d="M111 540l28 160h20l-28 -160h-20z" />
    <glyph glyph-name="parenleft" unicode="(" horiz-adv-x="220" 
d="M287 800q-150 -220 -189.5 -450t30.5 -450h-20q-71 224 -30 452q44 249 189 448h20v0z" />
    <glyph glyph-name="parenright" unicode=")" horiz-adv-x="220" 
d="M-32 -100q150 220 189.5 450t-30.5 450h20q71 -224 30 -452q-44 -249 -189 -448h-20v0z" />
    <glyph glyph-name="asterisk" unicode="*" horiz-adv-x="376" 
d="M370 614l-3 -18l-103 1l40 -88l-17 -9l-39 89l-67 -89l-17 10l70 87l-103 -1l3 18l103 -1l-40 88l17 9l39 -89l67 89l17 -10l-70 -87z" />
    <glyph glyph-name="plus" unicode="+" horiz-adv-x="520" 
d="M86 341l3 18h180l32 181h20l-32 -181h180l-3 -18h-180l-32 -181h-20l32 181h-180z" />
    <glyph glyph-name="comma" unicode="," horiz-adv-x="190" 
d="M87 35l-72 -175h-19l64 175h27z" />
    <glyph glyph-name="hyphen" unicode="-" horiz-adv-x="560" 
d="M109 300l3 18h360l-3 -18h-360z" />
    <glyph glyph-name="period" unicode="." horiz-adv-x="180" 
d="M44 -10q-10 0 -16 7.5t-4 18.5q4 24 29 24q10 0 16 -7.5t4 -18.5q-5 -24 -29 -24z" />
    <glyph glyph-name="slash" unicode="/" horiz-adv-x="520" 
d="M9 -100h-21l558 900h21z" />
    <glyph glyph-name="zero" unicode="0" horiz-adv-x="630" 
d="M100 89q-51 98 -22 263q11 62 34.5 125.5t62 115.5t93 84.5t126.5 32.5q119 0 170 -99q51 -100 23 -263q-11 -62 -34.5 -125.5t-62 -115.5t-93 -84.5t-126.5 -32.5q-119 0 -171 99zM98 350q-28 -158 19 -251q46 -91 155 -91q68 0 118.5 32t86.5 81.5t58 110.5t32 118
q28 157 -19 250q-47 92 -155 92q-68 0 -118.5 -32t-86.5 -81.5t-58 -110.5t-32 -118z" />
    <glyph glyph-name="one" unicode="1" horiz-adv-x="316" 
d="M280 700h15l-123 -700h-20l119 678l-180 -57l-3 17z" />
    <glyph glyph-name="two" unicode="2" horiz-adv-x="530" 
d="M6 0l3 18l316 284q75 67 115 122.5t48 100.5q12 74 -29 120q-42 47 -121 47q-137 0 -210 -120l-15 10q37 60 96.5 94t131.5 34q83 0 132 -52t34 -136q-17 -96 -169 -233l-301 -271h402l-3 -18h-430z" />
    <glyph glyph-name="three" unicode="3" horiz-adv-x="558" 
d="M222 -10q-73 0 -124 33t-67 90l17 9q14 -54 59.5 -84t117.5 -30q45 0 85.5 13t73 38t55 60.5t30.5 80.5q15 83 -33 137q-48 55 -143 55h-6l-6 12l230 278h-367l3 18h390l-3 -18l-224 -272q91 -4 143 -64t36 -148q-9 -50 -33.5 -88.5t-60 -65t-80 -40.5t-93.5 -14z" />
    <glyph glyph-name="four" unicode="4" horiz-adv-x="560" 
d="M22 178l368 522h22l-367 -522h367l41 232h20l-41 -232h90l-3 -18h-90l-28 -160h-20l28 160h-390z" />
    <glyph glyph-name="five" unicode="5" horiz-adv-x="543" 
d="M48 124q13 -54 59 -85t118 -31q44 0 85 13t73.5 37.5t55.5 60t31 80.5q15 82 -33 138q-48 55 -144 55h-181l75 308h360l-3 -18h-342l-66 -272h160q97 0 154 -60q55 -59 39 -153q-9 -49 -33.5 -87.5t-60.5 -65t-80.5 -40.5t-92.5 -14q-75 0 -125.5 33.5t-65.5 91.5z" />
    <glyph glyph-name="six" unicode="6" horiz-adv-x="550" 
d="M73 56q-56 67 -38 167q15 83 69 140l302 337h23l-254 -283q62 32 135 32q100 0 156 -66q56 -65 38 -166q-9 -51 -34 -93t-61.5 -71.5t-82.5 -46t-97 -16.5q-101 0 -156 66zM54 220q-16 -90 31 -152q23 -31 60 -45.5t87 -14.5q48 0 90.5 15.5t75.5 43t55.5 66.5t31.5 87
q16 91 -32 151t-146 60q-48 0 -90.5 -15t-75.5 -43t-55.5 -66.5t-31.5 -86.5z" />
    <glyph glyph-name="seven" unicode="7" horiz-adv-x="490" 
d="M109 700h410l-3 -18l-406 -682h-21l407 682h-390z" />
    <glyph glyph-name="eight" unicode="8" horiz-adv-x="554" 
d="M75 43q-53 53 -37 140q12 70 61 117t124 63q-57 18 -84.5 63.5t-16.5 106.5q8 43 30 76.5t53 55.5t70 33.5t81 11.5q89 0 139 -51q50 -52 37 -130q-11 -63 -54.5 -107t-107.5 -61q69 -17 101 -66t20 -118q-8 -44 -29.5 -78.5t-55 -58.5t-78 -37t-97.5 -13q-103 0 -156 53
zM58 180q-14 -76 31 -124t145 -48t161.5 47t75.5 125q13 78 -31.5 125t-144.5 47q-50 0 -90.5 -12.5t-71 -35.5t-50 -54.5t-25.5 -69.5zM142 531q-6 -35 1 -64t27 -51t52 -34t76 -12q39 0 74 10.5t63.5 30.5t48.5 50.5t28 69.5q6 34 -1.5 63.5t-27.5 51.5t-52.5 34t-75.5 12
q-44 0 -80 -12t-64 -34t-45.5 -51.5t-23.5 -63.5z" />
    <glyph glyph-name="nine" unicode="9" horiz-adv-x="550" 
d="M118 316q-55 66 -37 167q9 51 34 93t61.5 71.5t82.5 46t97 16.5q100 0 156 -66q56 -67 38 -167q-15 -83 -69 -140l-302 -337h-23l254 283q-62 -32 -135 -32q-101 0 -157 65zM100 480q-16 -90 31 -151q46 -60 147 -60q48 0 90.5 15t75.5 43t55.5 66.5t31.5 86.5
q16 91 -32 151q-49 61 -146 61q-48 0 -90.5 -15.5t-75.5 -43.5t-55.5 -67t-31.5 -86z" />
    <glyph glyph-name="colon" unicode=":" horiz-adv-x="180" 
d="M122 430q-10 0 -16 7.5t-4 18.5q4 24 29 24q10 0 16 -7.5t4 -18.5q-5 -24 -29 -24zM44 -10q-10 0 -16 7.5t-4 18.5q4 24 29 24q10 0 16 -7.5t4 -18.5q-5 -24 -29 -24z" />
    <glyph glyph-name="semicolon" unicode=";" horiz-adv-x="199" 
d="M60 35h27l-72 -175h-19zM141 430q-10 0 -16 7.5t-4 18.5q4 24 29 24q10 0 16 -7.5t4 -18.5q-5 -24 -29 -24z" />
    <glyph glyph-name="less" unicode="&#x3c;" 
d="M521 542l-4 -21l-407 -172l346 -172l-3 -19l-367 183l3 18z" />
    <glyph glyph-name="equal" unicode="=" horiz-adv-x="530" 
d="M104 441l3 18h390l-3 -18h-390zM68 241l4 18h390l-4 -18h-390z" />
    <glyph glyph-name="greater" unicode="&#x3e;" 
d="M122 542l367 -183l-3 -18l-432 -183l3 21l409 172l-348 172z" />
    <glyph glyph-name="question" unicode="?" horiz-adv-x="526" 
d="M119 586q16 29 40.5 52t54.5 39t63 24.5t65 8.5q43 0 77.5 -12.5t56 -35t30 -54t1.5 -70.5q-8 -40 -34.5 -78t-61.5 -70q-24 -23 -51 -48t-51 -53.5t-41.5 -60.5t-23.5 -68h-20q9 49 37 93.5t62 77.5q25 25 52 49.5t50 50t39.5 52.5t22.5 57q13 69 -24 110.5t-124 41.5
q-30 0 -60 -8t-57.5 -22.5t-50 -36t-36.5 -48.5zM204 -10q-10 0 -16 7.5t-4 18.5q4 24 29 24q10 0 16 -7.5t4 -18.5q-5 -24 -29 -24z" />
    <glyph glyph-name="at" unicode="@" horiz-adv-x="835" 
d="M123 -8q-91 103 -63 260q13 76 52.5 142t97 114.5t129.5 76t149 27.5q107 0 178 -52q72 -53 99.5 -130t12.5 -162q-19 -106 -65 -153t-101 -47q-46 0 -63.5 29t-8.5 70l2 9q-56 -86 -157 -86q-68 0 -107 47t-27 115q6 34 23 63t42 50t57 33t67 12q48 0 81.5 -25.5
t45.5 -67.5l15 86h20l-42 -236q-15 -81 55 -81q52 0 90 48t53 136q24 137 -54 230q-78 94 -219 94q-73 0 -141 -27t-122.5 -73.5t-92 -109t-49.5 -134.5q-26 -149 59 -246q86 -98 242 -98q97 0 172 26l4 -17q-80 -27 -179 -27q-163 0 -255 104zM271 250q-6 -30 0.5 -56
t22 -45t40 -30t54.5 -11t57 10t48.5 28t37 42t22.5 53l3 17q5 29 -2 53.5t-23 42.5t-40 28t-53 10q-31 0 -59 -11t-50 -30t-37 -45t-21 -56z" />
    <glyph glyph-name="A" unicode="A" horiz-adv-x="628" 
d="M381 700h25l153 -700h-20l-42 191h-385l-109 -191h-22zM493 209l-102 470l-269 -470h371z" />
    <glyph glyph-name="B" unicode="B" horiz-adv-x="630" 
d="M179 700h261q75 0 123 -52q47 -52 35 -125q-9 -57 -49 -101t-95 -62q61 -14 92 -63q32 -51 22 -115q-12 -76 -73 -129t-147 -53h-292zM351 18q37 0 70 12.5t59 34t44 52t24 66.5q12 68 -28 116q-41 49 -106 49h-277l-58 -330h272zM140 366h254q33 0 64 12.5t56 34t42 50
t22 61.5q11 65 -29 111q-41 47 -109 47h-244z" />
    <glyph glyph-name="C" unicode="C" horiz-adv-x="763" 
d="M137 94q-85 104 -59 258q13 75 50 140.5t92.5 114t125 76t146.5 27.5q96 0 167.5 -44t107.5 -117l-17 -9q-34 70 -101.5 111t-157.5 41q-74 0 -140 -26.5t-118 -72.5t-87 -108.5t-48 -134.5q-25 -141 52 -242q76 -100 223 -100q94 0 176 43t137 118l16 -10
q-29 -39 -65.5 -70.5t-78.5 -53.5t-88.5 -33.5t-95.5 -11.5q-151 0 -237 104z" />
    <glyph glyph-name="D" unicode="D" horiz-adv-x="740" 
d="M56 0l123 700h250q140 0 217 -104t51 -250q-12 -73 -46.5 -136t-86 -109.5t-117.5 -73.5t-141 -27h-250zM309 18q70 0 132 26.5t110.5 72t81 105.5t44.5 127q24 140 -46 236q-70 97 -205 97h-230l-117 -664h230z" />
    <glyph glyph-name="E" unicode="E" 
d="M561 682h-365l-56 -320h340l-3 -18h-341l-57 -326h370l-3 -18h-390l123 700h385z" />
    <glyph glyph-name="F" unicode="F" horiz-adv-x="525" 
d="M551 682h-355l-57 -324h350l-3 -18h-350l-60 -340h-20l123 700h375z" />
    <glyph glyph-name="G" unicode="G" horiz-adv-x="821" 
d="M141 97q-88 107 -62 260q13 75 50 139.5t92 112t124 74.5t146 27q100 0 171 -44.5t105 -116.5l-17 -9q-33 69 -100.5 110.5t-160.5 41.5q-72 0 -138 -26t-118 -71.5t-87 -107t-47 -132.5q-24 -146 58 -246q83 -101 233 -101q65 0 124 21t106.5 59t81 90.5t47.5 116.5
h-331l3 18h351l-2 -10q-14 -70 -48.5 -127.5t-84.5 -99t-113.5 -64t-134.5 -22.5q-161 0 -248 107z" />
    <glyph glyph-name="H" unicode="H" horiz-adv-x="700" 
d="M179 700h20l-58 -331h460l58 331h20l-123 -700h-20l62 351h-460l-62 -351h-20z" />
    <glyph glyph-name="I" unicode="I" horiz-adv-x="220" 
d="M179 700h20l-123 -700h-20z" />
    <glyph glyph-name="J" unicode="J" horiz-adv-x="554" 
d="M211 -10q-75 0 -124 29.5t-63 83.5l17 9q12 -48 54.5 -76t115.5 -28q40 0 77 11.5t66.5 33.5t50 54t27.5 73l91 520h20l-91 -520q-9 -45 -31 -80t-54 -59.5t-72 -37.5t-84 -13z" />
    <glyph glyph-name="K" unicode="K" horiz-adv-x="556" 
d="M179 700h20l-59 -335l445 335h30l-454 -343l341 -357h-25l-339 354l-62 -354h-20z" />
    <glyph glyph-name="L" unicode="L" horiz-adv-x="500" 
d="M79 18h350l-3 -18h-370l123 700h20z" />
    <glyph glyph-name="M" unicode="M" horiz-adv-x="820" 
d="M56 0l123 700h25l203 -462l365 462h27l-123 -700h-20l118 670l-367 -461h-8l-204 466l-119 -675h-20z" />
    <glyph glyph-name="N" unicode="N" horiz-adv-x="700" 
d="M179 700h20l342 -667l118 667h20l-123 -700h-20l-342 667l-118 -667h-20z" />
    <glyph glyph-name="O" unicode="O" horiz-adv-x="840" 
d="M139 97q-87 106 -61 256q13 74 52 139t96 113.5t127.5 76.5t146.5 28q148 0 235 -107q88 -107 62 -256q-13 -74 -52 -139t-96 -113.5t-128 -76.5t-146 -28q-149 0 -236 107zM98 350q-25 -141 56 -242q81 -100 223 -100q72 0 138.5 27t120.5 73.5t91.5 109t49.5 132.5
q25 142 -57 242t-222 100q-72 0 -139 -27t-120.5 -73.5t-90.5 -109t-50 -132.5z" />
    <glyph glyph-name="P" unicode="P" horiz-adv-x="580" 
d="M56 0l123 700h211q95 0 146 -61q51 -60 36 -149q-8 -47 -31 -85.5t-56.5 -66t-76 -43t-88.5 -15.5h-195l-49 -280h-20zM128 298h193q43 0 81.5 14t69.5 39.5t52 60.5t28 78q14 83 -31 137q-45 55 -130 55h-195z" />
    <glyph glyph-name="Q" unicode="Q" horiz-adv-x="845" 
d="M139 97q-87 106 -61 256q13 74 52 139t96 113.5t127.5 76.5t146.5 28q148 0 235 -107q88 -107 62 -256q-14 -79 -58 -148t-110 -120l71 -85l-14 -13l-72 87q-111 -78 -239 -78q-149 0 -236 107zM98 350q-25 -141 56 -242q81 -100 223 -100q118 0 225 74l-132 159l13 12
l134 -160q63 48 105 115t55 142q24 143 -57 242q-82 100 -222 100q-72 0 -139 -27t-120.5 -73.5t-90.5 -109t-50 -132.5z" />
    <glyph glyph-name="R" unicode="R" horiz-adv-x="620" 
d="M179 700h270q81 0 129 -60q48 -61 35 -143q-7 -36 -24.5 -68t-43 -57.5t-57 -43t-67.5 -24.5l125 -304h-20l-124 301q-4 -1 -9.5 -1h-13.5h-250l-53 -300h-20zM132 318h250q38 0 73.5 14.5t64 39.5t48 58t26.5 70q13 74 -31 128t-117 54h-250z" />
    <glyph glyph-name="S" unicode="S" horiz-adv-x="551" 
d="M39 153q12 -67 66 -106t142 -39q97 0 153.5 42t69.5 109q17 78 -42 122q-30 22 -60.5 37t-65.5 28q-95 36 -128 62q-67 52 -52 139q7 39 28.5 69.5t51.5 51.5t66.5 31.5t74.5 10.5q81 0 131.5 -39t67.5 -102l-17 -8q-38 131 -182 131q-34 0 -67.5 -9.5t-61 -28t-47 -46
t-25.5 -63.5q-17 -92 81 -145q25 -14 90 -39q24 -9 43 -17.5t34.5 -16.5t29.5 -17.5t29 -21.5q57 -47 41 -131q-16 -81 -81.5 -124t-162.5 -43q-93 0 -152 41t-73 113z" />
    <glyph glyph-name="T" unicode="T" 
d="M109 700h480l-3 -18h-230l-120 -682h-20l120 682h-230z" />
    <glyph glyph-name="U" unicode="U" horiz-adv-x="680" 
d="M125 56q-57 66 -39 169l84 475h20l-84 -475q-17 -96 32 -156q49 -61 160 -61q51 0 96 14.5t80 42.5t58.5 68.5t32.5 91.5l84 475h20l-84 -475q-10 -55 -35 -98.5t-62.5 -74t-85.5 -46.5t-103 -16q-116 0 -174 66z" />
    <glyph glyph-name="V" unicode="V" horiz-adv-x="598" 
d="M119 700l139 -678l377 678h22l-390 -700h-24l-144 700h20z" />
    <glyph glyph-name="W" unicode="W" horiz-adv-x="980" 
d="M119 700h19l77 -676l341 676h24l104 -676l314 676h21l-326 -700h-24l-104 676l-342 -676h-24z" />
    <glyph glyph-name="X" unicode="X" horiz-adv-x="560" 
d="M-14 0l301 358l-169 342h21l162 -326l274 326h25l-290 -345l176 -355h-21l-168 340l-286 -340h-25z" />
    <glyph glyph-name="Y" unicode="Y" horiz-adv-x="560" 
d="M120 700l176 -354l300 354h23l-315 -371l-58 -329h-20l58 330l-185 370h21z" />
    <glyph glyph-name="Z" unicode="Z" horiz-adv-x="530" 
d="M559 700l-3 -18l-523 -664h416l-3 -18h-440l3 18l524 664h-397l3 18h420z" />
    <glyph glyph-name="bracketleft" unicode="[" horiz-adv-x="270" 
d="M344 781h-160l-153 -862h161l-4 -19h-180l159 900h180z" />
    <glyph glyph-name="backslash" unicode="\" horiz-adv-x="520" 
d="M390 -100l-243 900h18l243 -900h-18z" />
    <glyph glyph-name="bracketright" unicode="]" horiz-adv-x="270" 
d="M297 800l-159 -900h-180l4 19h159l153 862h-160l3 19h180z" />
    <glyph glyph-name="asciicircum" unicode="^" horiz-adv-x="506" 
d="M323 700h16l123 -300h-20l-113 276l-209 -276h-24z" />
    <glyph glyph-name="underscore" unicode="_" horiz-adv-x="480" 
d="M-25 -118l3 18h400l-3 -18h-400z" />
    <glyph glyph-name="grave" unicode="`" horiz-adv-x="142" 
d="M162 570l-64 120h20l60 -120h-16z" />
    <glyph glyph-name="a" unicode="a" horiz-adv-x="662" 
d="M100 71q-68 82 -48 192q10 55 36 100.5t65 78t88.5 50.5t105.5 18q41 0 77.5 -13.5t65.5 -37.5t48.5 -57.5t27.5 -73.5l30 172h20l-88 -500h-20l25 141q-39 -70 -106.5 -110.5t-151.5 -40.5q-108 0 -175 81zM72 260q-18 -103 43 -177q61 -75 163 -75q51 0 96.5 17.5
t81.5 48.5t60.5 73.5t33.5 92.5q18 101 -44 177q-62 75 -162 75q-52 0 -97.5 -17.5t-81.5 -48t-60 -73t-33 -93.5z" />
    <glyph glyph-name="b" unicode="b" horiz-adv-x="662" 
d="M46 0l123 700h20l-60 -341q39 70 106.5 110.5t151.5 40.5q107 0 174 -82q68 -82 49 -191q-10 -55 -36 -100.5t-65 -78t-88.5 -50.5t-105.5 -18q-83 0 -144 51q-60 49 -75 131l-30 -172h-20zM112 260q-18 -103 43 -177q61 -75 163 -75q51 0 96.5 17.5t81.5 48.5t60.5 73.5
t33.5 92.5q18 101 -44 177q-62 75 -162 75q-52 0 -97.5 -17.5t-81.5 -48t-60 -73t-33 -93.5z" />
    <glyph glyph-name="c" unicode="c" horiz-adv-x="580" 
d="M92 66q-61 75 -41 187q10 55 38 102t69 81.5t92 54t107 19.5q72 0 124.5 -33.5t71.5 -88.5l-17 -10q-17 54 -64.5 84t-117.5 30q-53 0 -100 -18.5t-85 -51t-63.5 -77t-34.5 -95.5q-18 -103 37 -173q55 -69 160 -69q69 0 128 31t95 83l15 -10q-39 -57 -102 -89.5
t-139 -32.5q-112 0 -173 76z" />
    <glyph glyph-name="d" unicode="d" horiz-adv-x="662" 
d="M100 71q-68 82 -48 192q10 55 36 100.5t65 78t88.5 50.5t105.5 18q41 0 77.5 -13t65.5 -37t48.5 -57.5t27.5 -73.5l65 371h20l-123 -700h-20l25 141q-39 -70 -106.5 -110.5t-151.5 -40.5q-108 0 -175 81zM72 260q-18 -103 43 -177q61 -75 163 -75q51 0 96.5 17.5
t81.5 48.5t60.5 73.5t33.5 92.5q18 101 -44 177q-62 75 -162 75q-52 0 -97.5 -17.5t-81.5 -48t-60 -73t-33 -93.5z" />
    <glyph glyph-name="e" unicode="e" horiz-adv-x="597" 
d="M89 64q-59 74 -39 188q10 56 36 103t64.5 81.5t88.5 54t108 19.5q110 0 164 -77q55 -78 36 -184l-2 -11h-477q-13 -102 40 -167q26 -32 65 -47.5t90 -15.5q69 0 125 27.5t89 75.5l15 -10q-36 -52 -96.5 -81.5t-135.5 -29.5q-112 0 -171 74zM530 256q14 107 -37 171
q-51 65 -148 65q-53 0 -98.5 -18t-81.5 -49.5t-60.5 -74.5t-33.5 -94h459z" />
    <glyph glyph-name="f" unicode="f" horiz-adv-x="299" 
d="M71 482l3 18h90l7 40q14 83 60.5 127t126.5 44h10.5t11.5 -1l-3 -18q-6 1 -11.5 1h-11.5q-136 0 -163 -153l-7 -40h159l-3 -18h-159l-85 -482h-20l85 482h-90z" />
    <glyph glyph-name="g" unicode="g" horiz-adv-x="672" 
d="M256 -210q-87 0 -142.5 33.5t-71.5 84.5l17 9q14 -46 65.5 -77.5t132.5 -31.5q53 0 97.5 15t79 44t57.5 70t32 94l19 109q-19 -35 -46 -62.5t-59.5 -47t-70 -30t-76.5 -10.5q-112 0 -180 80q-66 78 -48 193q8 53 34.5 98t65.5 78t88 52t102 19q42 0 79.5 -13t67 -36.5
t49.5 -57t28 -75.5l30 172h20l-83 -469q-20 -112 -94.5 -176.5t-192.5 -64.5zM82 260q-17 -105 44 -178q62 -74 165 -74q47 0 92.5 17.5t82.5 47.5t62 71t31 89l1 8q7 52 -3 96t-41 81q-62 74 -165 74q-98 0 -176 -66q-77 -66 -93 -166z" />
    <glyph glyph-name="h" unicode="h" horiz-adv-x="575" 
d="M169 700h20l-58 -329q35 69 94 104t128 35q85 0 129 -53q45 -54 30 -139l-56 -318h-20l56 318q6 38 -0.5 70t-24.5 55t-47.5 36t-68.5 13q-48 0 -87.5 -17t-69.5 -46.5t-50.5 -69t-29.5 -83.5l-48 -276h-20z" />
    <glyph glyph-name="i" unicode="i" horiz-adv-x="200" 
d="M46 0l88 500h20l-88 -500h-20zM177 594q-7 -7 -16 -7t-15.5 6.5t-4.5 16.5q5 23 27 23q17 0 19 -14t-10 -25z" />
    <glyph glyph-name="j" unicode="j" horiz-adv-x="209" 
d="M-98 -192q6 -1 12 -1h11q96 0 114 103l104 590h20l-104 -590q-10 -57 -43.5 -89.5t-90.5 -32.5q-7 0 -13 0.5t-13 1.5zM188 594q-7 -7 -16 -7t-15.5 6.5t-4.5 16.5q5 23 27 23q17 0 19 -14t-10 -25z" />
    <glyph glyph-name="k" unicode="k" horiz-adv-x="461" 
d="M169 700h20l-76 -435l326 235h31l-337 -242l254 -258h-26l-250 254l-45 -254h-20z" />
    <glyph glyph-name="l" unicode="l" horiz-adv-x="201" 
d="M47 0l128 730h20l-128 -730h-20z" />
    <glyph glyph-name="m" unicode="m" horiz-adv-x="875" 
d="M46 0l88 500h20l-20 -114q32 63 85 93.5t111 30.5q61 0 100.5 -33t41.5 -99q32 66 86.5 99t115.5 33q73 0 114 -47q41 -48 25 -136l-57 -327h-20l57 327q14 79 -19.5 122t-102.5 43q-76 0 -133 -52t-76 -148l-51 -292h-20l57 327q14 79 -18.5 122t-101.5 43
q-76 0 -133.5 -52.5t-76.5 -145.5l-52 -294h-20z" />
    <glyph glyph-name="n" unicode="n" horiz-adv-x="575" 
d="M134 500h20l-23 -128q35 67 94 102.5t128 35.5q85 0 129 -53q45 -54 30 -139l-56 -318h-20l56 318q6 38 -0.5 70t-24.5 55t-47.5 36t-68.5 13q-86 0 -151 -59q-66 -60 -85 -155l-49 -278h-20z" />
    <glyph glyph-name="o" unicode="o" horiz-adv-x="622" 
d="M95 67q-64 77 -44 187q10 55 38 102t68.5 81t91.5 53.5t107 19.5q108 0 171 -77q64 -77 44 -187q-10 -55 -38 -102t-68.5 -81t-91.5 -53.5t-107 -19.5q-108 0 -171 77zM71 250q-18 -102 39 -172t158 -70q52 0 99 19t85 51.5t64 76.5t35 95q18 102 -40 172t-157 70
q-52 0 -99 -19t-85 -51.5t-64 -76.5t-35 -95z" />
    <glyph glyph-name="p" unicode="p" horiz-adv-x="662" 
d="M134 500h20l-25 -140q39 70 106.5 110t151.5 40q107 0 174 -82q68 -82 49 -191q-10 -55 -36 -100.5t-65 -78t-88.5 -50.5t-105.5 -18q-41 0 -77.5 13t-65.5 37t-49 57t-27 74l-65 -371h-20zM112 260q-18 -103 43 -177q61 -75 163 -75q51 0 96.5 17.5t81.5 48.5t60.5 73.5
t33.5 92.5q18 101 -44 177q-62 75 -162 75q-52 0 -97.5 -17.5t-81.5 -48t-60 -73t-33 -93.5z" />
    <glyph glyph-name="q" unicode="q" horiz-adv-x="662" 
d="M100 71q-68 82 -48 192q10 55 36 100.5t65 78t88.5 50.5t105.5 18q41 0 77.5 -13.5t65.5 -37.5t48.5 -57.5t27.5 -73.5l30 172h20l-123 -700h-20l60 341q-38 -70 -106.5 -110.5t-151.5 -40.5q-108 0 -175 81zM72 260q-18 -103 43 -177q61 -75 163 -75q51 0 96.5 17.5
t81.5 48.5t60.5 73.5t33.5 92.5q18 101 -44 177q-62 75 -162 75q-101 0 -178 -65q-76 -64 -94 -167z" />
    <glyph glyph-name="r" unicode="r" horiz-adv-x="325" 
d="M134 500h20l-22 -123q32 62 85.5 95.5t122.5 33.5l-3 -18q-77 0 -142 -56q-63 -56 -80 -154l-49 -278h-20z" />
    <glyph glyph-name="s" unicode="s" horiz-adv-x="466" 
d="M46 103q32 -95 159 -95q64 0 110.5 28t55.5 79q8 42 -12.5 66t-54.5 39t-74.5 25.5t-74 26.5t-53.5 42t-11 71q10 60 59 92.5t121 32.5q54 0 96.5 -26.5t58.5 -69.5l-17 -8q-15 39 -53.5 62.5t-86.5 23.5q-61 0 -105 -28.5t-53 -82.5q-4 -22 2 -39.5t19.5 -30.5t33 -23
t42.5 -17q34 -9 69.5 -19.5t63 -28t42.5 -44t8 -68.5q-10 -57 -61.5 -89t-126.5 -32q-138 0 -175 105z" />
    <glyph glyph-name="t" unicode="t" horiz-adv-x="379" 
d="M71 482l3 18h119l24 134l21 6l-25 -140h160l-3 -18h-160l-65 -371q-9 -53 10 -75.5t71 -22.5q14 0 29 1.5t33 3.5l-3 -18q-17 -3 -32.5 -4t-29.5 -1q-119 0 -98 116l65 371h-119z" />
    <glyph glyph-name="u" unicode="u" horiz-adv-x="575" 
d="M92 43q-44 53 -29 139l56 318h20l-56 -318q-6 -38 0.5 -70t24.5 -55t47.5 -36t68.5 -13q47 0 86.5 17t70 46t50.5 68t29 83l49 278h20l-88 -500h-20l23 128q-35 -67 -94 -102.5t-128 -35.5q-85 0 -130 53z" />
    <glyph glyph-name="v" unicode="v" horiz-adv-x="492" 
d="M64 500h20l120 -478l289 478h23l-303 -500h-22z" />
    <glyph glyph-name="w" unicode="w" horiz-adv-x="770" 
d="M84 500h19l72 -473l242 473h22l75 -474l238 474h22l-252 -500h-22l-76 473l-242 -473h-22z" />
    <glyph glyph-name="x" unicode="x" horiz-adv-x="500" 
d="M-14 0l253 257l-155 243h22l147 -229l225 229h26l-241 -245l163 -255h-22l-154 241l-238 -241h-26z" />
    <glyph glyph-name="y" unicode="y" horiz-adv-x="510" 
d="M4 -182q33 0 62 12t54 32t45.5 45.5t36.5 52.5l9 15l-147 525h19l141 -501l288 501h22l-314 -546q-42 -72 -95.5 -113.5t-110.5 -41.5q-4 0 -7 0.5t-6 0.5z" />
    <glyph glyph-name="z" unicode="z" horiz-adv-x="490" 
d="M474 500l-2 -11l-424 -471h351l-3 -18h-380l2 11l424 471h-331l3 18h360z" />
    <glyph glyph-name="braceleft" unicode="{" horiz-adv-x="338" 
d="M177 240q9 54 -14.5 78t-86.5 24l3 18q120 0 137 102l41 228q11 59 45 90t92 31h11.5t11.5 -1l-3 -18q-6 1 -12 1h-11q-96 0 -114 -103l-41 -228q-16 -98 -102 -112q38 -7 54.5 -37t8.5 -73l-40 -229q-18 -103 77 -103h11.5t12.5 1l-3 -18q-6 -1 -11.5 -1h-10.5
q-58 0 -82 32t-14 89l40 229v0z" />
    <glyph glyph-name="bar" unicode="|" horiz-adv-x="220" 
d="M21 -200l162 920h20l-162 -920h-20z" />
    <glyph glyph-name="braceright" unicode="}" horiz-adv-x="339" 
d="M117 12q-11 -59 -45 -90t-92 -31h-11.5t-11.5 1l3 18q6 -1 12 -1h11q96 0 114 103l41 228q16 98 102 112q-38 7 -54.5 37t-8.5 73l40 229q18 103 -77 103h-11.5t-12.5 -1l3 18q6 1 11.5 1h10.5q58 0 82 -32t14 -89l-40 -229q-9 -54 14.5 -78t86.5 -24l-3 -18
q-121 0 -137 -102l-41 -228v0z" />
    <glyph glyph-name="asciitilde" unicode="~" horiz-adv-x="573" 
d="M80 304q5 10 15 27t25.5 33t36 27.5t47.5 11.5q22 0 48 -9.5t57 -35.5q26 -22 51.5 -31.5t45.5 -9.5q19 0 35 8t29 20.5t23 28t18 30.5l18 -8q-8 -18 -20 -36t-27.5 -32t-34.5 -22.5t-41 -8.5t-48 10t-58 35q-27 21 -52.5 30.5t-45.5 9.5q-18 0 -34 -7.5t-29.5 -20
t-24 -28t-16.5 -30.5z" />
    <glyph glyph-name="exclamdown" unicode="&#xa1;" horiz-adv-x="200" 
d="M106 340h20l-95 -540h-20zM136 460q-10 0 -16 7.5t-4 18.5q4 24 29 24q10 0 16 -7.5t4 -18.5q-5 -24 -29 -24z" />
    <glyph glyph-name="cent" unicode="&#xa2;" horiz-adv-x="580" 
d="M184 110q-67 30 -98.5 95.5t-17.5 147.5q10 55 38 102t69 81.5t92 54t107 19.5q31 0 62 -7l50 97h21l-53 -103q91 -30 116 -109l-17 -10q-26 78 -107 103l-236 -461q34 -12 75 -12q69 0 128 31t95 83l15 -10q-39 -57 -102 -89.5t-139 -32.5q-47 0 -80 13l-53 -103h-21z
M88 350q-13 -76 15.5 -136t89.5 -88l235 460q-27 6 -57 6q-53 0 -100.5 -18.5t-85 -51t-63 -77t-34.5 -95.5z" />
    <glyph glyph-name="sterling" unicode="&#xa3;" horiz-adv-x="600" 
d="M9 18h110l50 283h-90l3 18h91l36 206q7 42 25.5 76t46.5 58.5t64 37.5t78 13q63 0 106.5 -32t64.5 -92l-16 -10q-44 116 -155 116q-39 0 -72 -12.5t-58 -34.5t-41.5 -53t-22.5 -67l-36 -206h259l-3 -18h-260l-50 -283h400l-3 -18h-530z" />
    <glyph glyph-name="currency" unicode="&#xa4;" horiz-adv-x="554" 
d="M32 137l83 70q-46 61 -31 145q15 83 81 143l-59 70l15 11l58 -70q67 54 152 54q82 0 133 -54l83 70l12 -13l-83 -71q45 -62 30 -144q-15 -83 -80 -142l58 -71l-15 -11l-58 69q-71 -53 -152 -53q-82 0 -133 54l-82 -70zM104 350q-14 -82 31 -137t126 -55q41 0 78.5 15
t68 41t51 61t27.5 75q14 82 -32 136q-47 56 -125 56q-41 0 -78.5 -15t-68 -41t-51 -61t-27.5 -75z" />
    <glyph glyph-name="yen" unicode="&#xa5;" horiz-adv-x="560" 
d="M66 191l3 18h194l19 110h-194l3 18h190l-182 363h21l176 -354l300 354h23l-308 -363h190l-3 -18h-196l-19 -110h196l-3 -18h-196l-34 -191h-20l34 191h-194z" />
    <glyph glyph-name="brokenbar" unicode="&#xa6;" horiz-adv-x="220" 
d="M118 350l65 370h20l-65 -370h-20zM21 -200l65 370h20l-65 -370h-20z" />
    <glyph glyph-name="section" unicode="&#xa7;" horiz-adv-x="504" 
d="M203 -112q-67 0 -112.5 31t-58.5 94l17 9q24 -116 157 -116q67 0 113 31.5t56 88.5q5 28 -2 50.5t-25 42t-46.5 37t-67.5 35.5q-43 20 -70.5 36.5t-40.5 27.5q-46 41 -35 97q14 73 92 113q-46 43 -35 106q5 31 21 56.5t40.5 44t56.5 28.5t70 10q57 0 99.5 -28.5
t59.5 -82.5l-16 -9q-16 49 -53.5 75.5t-92.5 26.5q-66 0 -111.5 -34t-53.5 -89q-11 -69 59 -115q9 -6 31 -18t57 -29q81 -40 105 -62q46 -43 36 -99q-14 -74 -92 -113q43 -46 33 -109q-11 -63 -62 -99.5t-129 -36.5zM108 350q-5 -13 -2.5 -25.5t8.5 -23.5t13.5 -20.5
t14.5 -16.5q9 -9 32 -22l32 -17l39 -18q33 -15 58.5 -30.5t43.5 -30.5q72 31 86 102q12 59 -52 101q-19 13 -79 42q-42 20 -69 36t-39 26q-76 -36 -86 -103z" />
    <glyph glyph-name="dieresis" unicode="&#xa8;" horiz-adv-x="240" 
d="M259 580q-8 0 -13 6t-4 14q5 20 24 20q8 0 13 -6t3 -14q-6 -20 -23 -20zM99 580q-8 0 -13 6t-4 14q5 20 24 20q8 0 13 -6t3 -14q-6 -20 -23 -20z" />
    <glyph glyph-name="copyright" unicode="&#xa9;" horiz-adv-x="845" 
d="M139 97q-88 106 -61 257q13 76 52.5 141t96.5 113t128 75t148 27q148 0 237 -107q88 -106 62 -257q-13 -75 -52.5 -140t-97 -113t-129 -75.5t-147.5 -27.5q-148 0 -237 107zM98 350q-25 -142 57 -242t224 -100q72 0 139.5 27t121.5 73.5t91.5 108.5t50.5 133
q25 141 -58 242q-82 100 -224 100q-73 0 -140 -27t-121 -73.5t-91 -108.5t-50 -133zM281 214q-46 56 -32 138q7 42 27 76.5t49.5 60t67 39.5t79.5 14q52 0 92 -25t58 -68l-18 -9q-35 84 -135 84q-38 0 -71.5 -13.5t-60 -37t-44 -55t-24.5 -68.5q-14 -74 27 -124t116 -50
q49 0 91 22.5t69 61.5l16 -9q-65 -93 -178 -93q-82 0 -129 56z" />
    <glyph glyph-name="guillemotleft" unicode="&#xab;" horiz-adv-x="426" 
d="M212 309l129 160h24l-131 -162l71 -158h-21zM239 469h24l-131 -162l71 -158h-21l-72 160z" />
    <glyph glyph-name="logicalnot" unicode="&#xac;" horiz-adv-x="520" 
d="M473 382l-28 -160h-20l25 142h-360l3 18h380z" />
    <glyph glyph-name="registered" unicode="&#xae;" horiz-adv-x="845" 
d="M139 97q-88 106 -61 257q13 76 52.5 141t96.5 113t128 75t148 27q148 0 237 -107q88 -106 62 -257q-13 -75 -52.5 -140t-97 -113t-129 -75.5t-147.5 -27.5q-148 0 -237 107zM98 350q-25 -142 57 -242t224 -100q72 0 139.5 27t121.5 73.5t91.5 108.5t50.5 133
q25 141 -58 242q-82 100 -224 100q-73 0 -140 -27t-121 -73.5t-91 -108.5t-50 -133zM307 165l65 370h104q31 0 54 -9t37 -24.5t19 -35.5t1 -42q-16 -88 -110 -104l71 -155h-21l-69 153q-4 -1 -20 -1h-84l-27 -152h-20zM357 335h84q110 0 126 91q7 39 -16.5 65t-77.5 26h-84z
" />
    <glyph glyph-name="macron" unicode="&#xaf;" horiz-adv-x="280" 
d="M82 601l3 16h240l-3 -16h-240z" />
    <glyph glyph-name="degree" unicode="&#xb0;" horiz-adv-x="386" 
d="M148 572q-34 42 -24 100q5 30 20.5 55.5t38 43.5t51 28.5t58.5 10.5q59 0 94 -42q34 -42 24 -100q-6 -31 -21 -56.5t-37 -43.5t-50.5 -28t-59.5 -10q-60 0 -94 42zM144 670q-5 -26 1 -48t19.5 -38.5t34.5 -26t47 -9.5q27 0 51 9t43 25.5t32 39t18 48.5q4 26 -1.5 48
t-19 38.5t-34 26t-46.5 9.5t-50.5 -9.5t-44 -26t-33 -38.5t-17.5 -48z" />
    <glyph glyph-name="plusminus" unicode="&#xb1;" horiz-adv-x="520" 
d="M97 401l3 18h180l32 181h20l-32 -181h180l-3 -18h-180l-32 -181h-20l32 181h-180zM44 100l3 18h380l-3 -18h-380z" />
    <glyph glyph-name="acute" unicode="&#xb4;" horiz-adv-x="140" 
d="M176 690h22l-103 -120h-19z" />
    <glyph glyph-name="uni00B5" unicode="&#xb5;" horiz-adv-x="610" 
d="M134 500h20l-57 -325q-11 -73 26.5 -120t115.5 -47q46 0 85 16.5t69 45t50.5 66t30.5 80.5l50 284h20l-76 -430q-9 -52 41 -52h20l-3 -18h-20q-31 0 -47.5 19t-10.5 51l10 57q-34 -66 -93 -101.5t-128 -35.5q-61 0 -101 28.5t-53 79.5l-52 -298h-20z" />
    <glyph glyph-name="paragraph" unicode="&#xb6;" horiz-adv-x="550" 
d="M127 395q-43 54 -29 129q7 37 26.5 69.5t47.5 56t63.5 37t73.5 13.5h270l-3 -18h-60l-155 -882h-20l155 882h-170l-155 -882h-20l95 540q-76 2 -119 55z" />
    <glyph glyph-name="periodcentered" unicode="&#xb7;" horiz-adv-x="179" 
d="M100 310q-10 0 -16 7.5t-4 18.5q4 24 29 24q10 0 16 -7.5t4 -18.5q-5 -24 -29 -24z" />
    <glyph glyph-name="cedilla" unicode="&#xb8;" horiz-adv-x="215" 
d="M126 -142q-9 -64 -124 -64q-14 0 -29.5 1t-32.5 3l3 16q17 -2 32.5 -3t29.5 -1q95 0 103 50q5 21 -10.5 33.5t-50.5 12.5h-9.5t-9.5 -1l17 95h18l-14 -79h8q31 0 53 -16t16 -47z" />
    <glyph glyph-name="guillemotright" unicode="&#xbb;" horiz-adv-x="427" 
d="M315 311l-71 158h21l72 -160l-129 -160h-24zM82 149l131 162l-71 158h21l72 -160l-129 -160h-24z" />
    <glyph glyph-name="onequarter" unicode="&#xbc;" horiz-adv-x="844" 
d="M641 700h23l-540 -700h-23zM477 90l3 18l205 292h21l-204 -292h205l21 121h20l-21 -121h62l-3 -18h-62l-16 -90h-20l16 90h-227zM234 700h10l-71 -400h-20l66 373l-126 -43l-3 18zM219 673v1v-1z" />
    <glyph glyph-name="onehalf" unicode="&#xbd;" horiz-adv-x="832" 
d="M482 0l2 15l221 181q61 50 68 103q5 39 -18.5 67t-69.5 28q-40 0 -74 -21.5t-49 -53.5l-17 9q18 37 55.5 60.5t85.5 23.5q57 0 84.5 -33t21.5 -81q-7 -59 -73 -114l-202 -166h234l-3 -18h-266zM101 0l540 700h23l-540 -700h-23zM234 700h10l-71 -400h-20l66 373l-126 -43
l-3 18zM219 673v1v-1z" />
    <glyph glyph-name="threequarters" unicode="&#xbe;" horiz-adv-x="942" 
d="M74 371q17 -65 101 -65q55 0 90 30.5t43 75.5q7 45 -17 75.5t-79 30.5h-2l-7 13l134 151h-215l3 18h238l-3 -18l-131 -147q54 -4 80 -40t18 -85q-9 -54 -49 -88t-104 -34q-97 0 -118 74zM739 700h23l-540 -700h-23zM578 108l205 292h21l-204 -292h205l21 121h20l-21 -121
h62l-3 -18h-62l-16 -90h-20l16 90h-227z" />
    <glyph glyph-name="questiondown" unicode="&#xbf;" horiz-adv-x="526" 
d="M184 -210q-44 0 -78 12t-55.5 34.5t-30.5 54.5t-1 71q8 40 34.5 78t60.5 70q25 23 52 48t50.5 53.5t41.5 60.5t24 68h20q-9 -49 -37 -93.5t-63 -78.5q-25 -24 -51.5 -48.5t-49.5 -50t-39.5 -52.5t-22.5 -57q-13 -69 24 -110.5t124 -41.5q30 0 60 8t57.5 22.5t50 36
t36.5 48.5l16 -9q-16 -29 -40.5 -52t-54.5 -39t-63 -24.5t-65 -8.5zM313 460q-10 0 -16 7.5t-4 18.5q4 24 29 24q10 0 16 -7.5t4 -18.5q-5 -24 -29 -24z" />
    <glyph glyph-name="Agrave" unicode="&#xc0;" horiz-adv-x="628" 
d="M381 700h25l153 -700h-20l-42 191h-385l-109 -191h-22zM493 209l-102 470l-269 -470h371zM351 890h20l60 -120h-16z" />
    <glyph glyph-name="Aacute" unicode="&#xc1;" horiz-adv-x="628" 
d="M381 700h25l153 -700h-20l-42 191h-385l-109 -191h-22zM493 209l-102 470l-269 -470h371zM481 890h22l-103 -120h-19z" />
    <glyph glyph-name="Acircumflex" unicode="&#xc2;" horiz-adv-x="628" 
d="M-19 0l400 700h25l153 -700h-20l-42 191h-385l-109 -191h-22zM493 209l-102 470l-269 -470h371zM281 770l133 120h22l91 -120h-20l-82 108l-120 -108h-24z" />
    <glyph glyph-name="Atilde" unicode="&#xc3;" horiz-adv-x="628" 
d="M381 700h25l153 -700h-20l-42 191h-385l-109 -191h-22zM122 209h371l-102 470zM281 790q3 14 8 30t14 29.5t22 22.5t30 9q32 0 66 -43q28 -36 56 -36q13 0 23 7t17 17.5t11.5 23.5t6.5 24h17q-3 -14 -8.5 -30t-14.5 -29.5t-22 -22t-30 -8.5q-33 0 -66 42q-30 37 -58 37
q-20 0 -34.5 -19t-20.5 -54h-17z" />
    <glyph glyph-name="Adieresis" unicode="&#xc4;" horiz-adv-x="628" 
d="M381 700h25l153 -700h-20l-42 191h-385l-109 -191h-22zM493 209l-102 470l-269 -470h371zM487 780q-8 0 -13 6t-4 14q5 20 24 20q8 0 13 -6t3 -14q-6 -20 -23 -20zM327 780q-8 0 -13 6t-4 14q5 20 24 20q8 0 13 -6t3 -14q-6 -20 -23 -20z" />
    <glyph glyph-name="Aring" unicode="&#xc5;" horiz-adv-x="628" 
d="M-19 0l395 691q-34 5 -51.5 29.5t-11.5 59.5q7 40 37 65t72 25t65 -24t16 -66q-6 -36 -32 -60.5t-63 -28.5l151 -691h-20l-42 191h-385l-109 -191h-22zM122 209h371l-102 470zM331 780q-6 -33 11.5 -53.5t52.5 -20.5t59.5 20t30.5 54t-13 53q-10 10 -22.5 15.5t-29.5 5.5
q-34 0 -58.5 -20t-30.5 -54z" />
    <glyph glyph-name="AE" unicode="&#xc6;" horiz-adv-x="858" 
d="M-34 0l551 700h365l-3 -18h-335l-56 -320h310l-3 -18h-311l-57 -326h340l-3 -18h-360l36 204h-289l-160 -204h-25zM165 222h278l80 455z" />
    <glyph glyph-name="Ccedilla" unicode="&#xc7;" horiz-adv-x="763" 
d="M369 -10q-74 -1 -134 27.5t-99.5 78t-55.5 115.5t-2 141q13 75 50.5 140.5t92.5 114t124 76t147 27.5q96 0 167.5 -44t107.5 -117l-17 -9q-34 70 -101.5 111t-157.5 41q-74 0 -140 -26.5t-118 -72.5t-87 -108.5t-48 -134.5q-25 -141 52 -242q76 -100 223 -100
q94 0 176 43t137 118l16 -10q-54 -73 -136 -119t-179 -50l-12 -69h8q31 0 53 -16t16 -47q-9 -64 -124 -64q-14 0 -29.5 1t-32.5 3l3 16q17 -2 32.5 -3t29.5 -1q95 0 103 50q5 21 -10.5 33.5t-50.5 12.5h-9.5t-9.5 -1l15 85v0z" />
    <glyph glyph-name="Egrave" unicode="&#xc8;" 
d="M404 770h-16l-64 120h20zM561 682h-365l-56 -320h340l-3 -18h-341l-57 -326h370l-3 -18h-390l123 700h385z" />
    <glyph glyph-name="Eacute" unicode="&#xc9;" 
d="M476 890l-103 -120h-19l100 120h22zM561 682h-365l-56 -320h340l-3 -18h-341l-57 -326h370l-3 -18h-390l123 700h385z" />
    <glyph glyph-name="Ecircumflex" unicode="&#xca;" 
d="M179 700h385l-3 -18h-365l-56 -320h340l-3 -18h-341l-57 -326h370l-3 -18h-390zM254 770l133 120h22l91 -120h-20l-82 108l-120 -108h-24z" />
    <glyph glyph-name="Edieresis" unicode="&#xcb;" 
d="M179 700h385l-3 -18h-365l-56 -320h340l-3 -18h-341l-57 -326h370l-3 -18h-390zM460 780q-8 0 -13 6t-4 14q5 20 24 20q8 0 13 -6t3 -14q-6 -20 -23 -20zM300 780q-8 0 -13 6t-4 14q5 20 24 20q8 0 13 -6t3 -14q-6 -20 -23 -20z" />
    <glyph glyph-name="Igrave" unicode="&#xcc;" horiz-adv-x="220" 
d="M211 770l-64 120h20l60 -120h-16zM56 0h20l123 700h-20z" />
    <glyph glyph-name="Iacute" unicode="&#xcd;" horiz-adv-x="220" 
d="M277 890h22l-103 -120h-19zM56 0h20l123 700h-20z" />
    <glyph glyph-name="Icircumflex" unicode="&#xce;" horiz-adv-x="220" 
d="M179 700h20l-123 -700h-20zM210 890h22l91 -120h-20l-82 108l-120 -108h-24z" />
    <glyph glyph-name="Idieresis" unicode="&#xcf;" horiz-adv-x="220" 
d="M179 700h20l-123 -700h-20zM283 780q-8 0 -13 6t-4 14q5 20 24 20q8 0 13 -6t3 -14q-6 -20 -23 -20zM123 780q-8 0 -13 6t-4 14q5 20 24 20q8 0 13 -6t3 -14q-6 -20 -23 -20z" />
    <glyph glyph-name="Eth" unicode="&#xd0;" horiz-adv-x="760" 
d="M76 341l3 18h60l60 341h250q140 0 217 -104t51 -250q-12 -73 -46.5 -136t-86 -109.5t-117.5 -73.5t-141 -27h-250l60 341h-60zM99 18h230q70 0 132 26.5t110.5 72t81 105.5t44.5 127q24 140 -46 236q-70 97 -205 97h-230l-57 -323h280l-3 -18h-280z" />
    <glyph glyph-name="Ntilde" unicode="&#xd1;" horiz-adv-x="700" 
d="M179 700h20l342 -667l118 667h20l-123 -700h-20l-342 667l-118 -667h-20zM317 790q3 14 8 30t14 29.5t22 22.5t30 9q32 0 66 -43q28 -36 56 -36q13 0 23 7t17 17.5t11.5 23.5t6.5 24h17q-3 -14 -8.5 -30t-14.5 -29.5t-22 -22t-30 -8.5q-33 0 -66 42q-30 37 -58 37
q-20 0 -34.5 -19t-20.5 -54h-17z" />
    <glyph glyph-name="Ograve" unicode="&#xd2;" horiz-adv-x="840" 
d="M139 97q-87 106 -61 256q13 74 52 139t96 113.5t127.5 76.5t146.5 28q148 0 235 -107q88 -107 62 -256q-13 -74 -52 -139t-96 -113.5t-128 -76.5t-146 -28q-149 0 -236 107zM98 350q-25 -141 56 -242q81 -100 223 -100q72 0 138.5 27t120.5 73.5t91.5 109t49.5 132.5
q25 142 -57 242t-222 100q-72 0 -139 -27t-120.5 -73.5t-90.5 -109t-50 -132.5zM525 770h-16l-64 120h20z" />
    <glyph glyph-name="Oacute" unicode="&#xd3;" horiz-adv-x="840" 
d="M139 97q-87 106 -61 256q13 74 52 139t96 113.5t127.5 76.5t146.5 28q148 0 235 -107q88 -107 62 -256q-13 -74 -52 -139t-96 -113.5t-128 -76.5t-146 -28q-149 0 -236 107zM98 350q-25 -141 56 -242q81 -100 223 -100q72 0 138.5 27t120.5 73.5t91.5 109t49.5 132.5
q25 142 -57 242t-222 100q-72 0 -139 -27t-120.5 -73.5t-90.5 -109t-50 -132.5zM590 890h22l-103 -120h-19z" />
    <glyph glyph-name="Ocircumflex" unicode="&#xd4;" horiz-adv-x="840" 
d="M139 97q-87 106 -61 256q13 74 52 139t96 113.5t127.5 76.5t146.5 28q148 0 235 -107q88 -107 62 -256q-13 -74 -52 -139t-96 -113.5t-128 -76.5t-146 -28q-149 0 -236 107zM98 350q-25 -141 56 -242q81 -100 223 -100q72 0 138.5 27t120.5 73.5t91.5 109t49.5 132.5
q25 142 -57 242t-222 100q-72 0 -139 -27t-120.5 -73.5t-90.5 -109t-50 -132.5zM414 770l133 120h22l91 -120h-20l-82 108l-120 -108h-24z" />
    <glyph glyph-name="Otilde" unicode="&#xd5;" horiz-adv-x="840" 
d="M139 97q-87 106 -61 256q13 74 52 139t96 113.5t127.5 76.5t146.5 28q148 0 235 -107q88 -107 62 -256q-13 -74 -52 -139t-96 -113.5t-128 -76.5t-146 -28q-149 0 -236 107zM98 350q-25 -141 56 -242q81 -100 223 -100q72 0 138.5 27t120.5 73.5t91.5 109t49.5 132.5
q25 142 -57 242t-222 100q-72 0 -139 -27t-120.5 -73.5t-90.5 -109t-50 -132.5zM387 790q3 14 8 30t14 29.5t22 22.5t30 9q32 0 66 -43q28 -36 56 -36q13 0 23 7t17 17.5t11.5 23.5t6.5 24h17q-3 -14 -8.5 -30t-14.5 -29.5t-22 -22t-30 -8.5q-33 0 -66 42q-30 37 -58 37
q-20 0 -34.5 -19t-20.5 -54h-17z" />
    <glyph glyph-name="Odieresis" unicode="&#xd6;" horiz-adv-x="840" 
d="M139 97q-87 106 -61 256q13 74 52 139t96 113.5t127.5 76.5t146.5 28q148 0 235 -107q88 -107 62 -256q-13 -74 -52 -139t-96 -113.5t-128 -76.5t-146 -28q-149 0 -236 107zM98 350q-25 -141 56 -242q81 -100 223 -100q72 0 138.5 27t120.5 73.5t91.5 109t49.5 132.5
q25 142 -57 242t-222 100q-72 0 -139 -27t-120.5 -73.5t-90.5 -109t-50 -132.5zM593 780q-8 0 -13 6t-4 14q5 20 24 20q8 0 13 -6t3 -14q-6 -20 -23 -20zM433 780q-8 0 -13 6t-4 14q5 20 24 20q8 0 13 -6t3 -14q-6 -20 -23 -20z" />
    <glyph glyph-name="multiply" unicode="&#xd7;" horiz-adv-x="464" 
d="M438 499l-176 -150l123 -148l-14 -12l-123 148l-173 -148l-14 12l176 150l-123 148l14 12l123 -148l173 148z" />
    <glyph glyph-name="Oslash" unicode="&#xd8;" horiz-adv-x="850" 
d="M160 83q-48 51 -67 121.5t-5 148.5q13 75 52 140t96 113t127 76t147 28q125 0 212 -81l73 71l15 -10l-76 -74q48 -51 67.5 -121t5.5 -148q-14 -74 -53 -139t-96 -113.5t-127 -76.5t-146 -28q-128 0 -212 81l-73 -71l-15 10zM108 350q-27 -152 66 -253l534 519
q-80 76 -200 76q-142 0 -258 -100q-117 -100 -142 -242zM187 84q77 -76 200 -76q72 0 138.5 27t120.5 73.5t91.5 109t49.5 132.5q27 152 -66 253z" />
    <glyph glyph-name="Ugrave" unicode="&#xd9;" horiz-adv-x="680" 
d="M125 56q-57 66 -39 169l84 475h20l-84 -475q-17 -96 32 -156q49 -61 160 -61q51 0 96 14.5t80 42.5t58.5 68.5t32.5 91.5l84 475h20l-84 -475q-10 -55 -35 -98.5t-62.5 -74t-85.5 -46.5t-103 -16q-116 0 -174 66zM393 890l60 -120h-16l-64 120h20z" />
    <glyph glyph-name="Uacute" unicode="&#xda;" horiz-adv-x="680" 
d="M125 56q-57 66 -39 169l84 475h20l-84 -475q-17 -96 32 -156q49 -61 160 -61q51 0 96 14.5t80 42.5t58.5 68.5t32.5 91.5l84 475h20l-84 -475q-10 -55 -35 -98.5t-62.5 -74t-85.5 -46.5t-103 -16q-116 0 -174 66zM503 890h22l-103 -120h-19z" />
    <glyph glyph-name="Ucircumflex" unicode="&#xdb;" horiz-adv-x="680" 
d="M125 56q-57 66 -39 169l84 475h20l-84 -475q-17 -96 32 -156q49 -61 160 -61q51 0 96 14.5t80 42.5t58.5 68.5t32.5 91.5l84 475h20l-84 -475q-10 -55 -35 -98.5t-62.5 -74t-85.5 -46.5t-103 -16q-116 0 -174 66zM303 770l133 120h22l91 -120h-20l-82 108l-120 -108h-24z
" />
    <glyph glyph-name="Udieresis" unicode="&#xdc;" horiz-adv-x="680" 
d="M125 56q-57 66 -39 169l84 475h20l-84 -475q-17 -96 32 -156q49 -61 160 -61q51 0 96 14.5t80 42.5t58.5 68.5t32.5 91.5l84 475h20l-84 -475q-10 -55 -35 -98.5t-62.5 -74t-85.5 -46.5t-103 -16q-116 0 -174 66zM509 780q-8 0 -13 6t-4 14q5 20 24 20q8 0 13 -6t3 -14
q-6 -20 -23 -20zM349 780q-8 0 -13 6t-4 14q5 20 24 20q8 0 13 -6t3 -14q-6 -20 -23 -20z" />
    <glyph glyph-name="Yacute" unicode="&#xdd;" horiz-adv-x="560" 
d="M120 700l176 -354l300 354h23l-315 -371l-58 -329h-20l58 330l-185 370h21zM447 890h22l-103 -120h-19z" />
    <glyph glyph-name="Thorn" unicode="&#xde;" horiz-adv-x="580" 
d="M179 700h20l-25 -140h192q95 0 145 -60q50 -61 37 -150q-7 -46 -30 -84.5t-57 -66.5t-76.5 -43.5t-88.5 -15.5h-195l-25 -140h-20zM104 158h193q43 0 81.5 14t69.5 39.5t52 60.5t28 78q14 83 -31 137q-45 55 -130 55h-196z" />
    <glyph glyph-name="germandbls" unicode="&#xdf;" horiz-adv-x="517" 
d="M139 525q16 90 71 137.5t140 47.5q71 0 109 -41q19 -21 26 -45t2 -53q-6 -33 -38 -70q-16 -18 -31 -34.5t-30 -31.5q-29 -29 -30 -48q-2 -23 16.5 -52.5t41.5 -55.5t39.5 -64t11.5 -77q-9 -68 -70 -110q-50 -34 -123 -34h-13.5t-14.5 1l4 18q6 -1 11.5 -1h11.5
q30 0 59.5 8t53.5 23.5t40.5 40t20.5 57.5q2 18 -1.5 36.5t-11 36.5t-18 34t-22.5 28q-24 26 -41.5 57.5t-14.5 57.5q2 20 21 43t40 41q22 18 42.5 45t25.5 55q10 52 -23.5 84.5t-96.5 32.5q-76 0 -125 -44.5t-63 -122.5l-93 -525h-20z" />
    <glyph glyph-name="agrave" unicode="&#xe0;" horiz-adv-x="662" 
d="M100 71q-68 82 -48 192q10 55 36 100.5t65 78t88.5 50.5t105.5 18q41 0 77.5 -13.5t65.5 -37.5t48.5 -57.5t27.5 -73.5l30 172h20l-88 -500h-20l25 141q-39 -70 -106.5 -110.5t-151.5 -40.5q-108 0 -175 81zM72 260q-18 -103 43 -177q61 -75 163 -75q51 0 96.5 17.5
t81.5 48.5t60.5 73.5t33.5 92.5q18 101 -44 177q-62 75 -162 75q-52 0 -97.5 -17.5t-81.5 -48t-60 -73t-33 -93.5zM321 690l60 -120h-16l-64 120h20z" />
    <glyph glyph-name="aacute" unicode="&#xe1;" horiz-adv-x="662" 
d="M100 71q-68 82 -48 192q10 55 36 100.5t65 78t88.5 50.5t105.5 18q41 0 77.5 -13.5t65.5 -37.5t48.5 -57.5t27.5 -73.5l30 172h20l-88 -500h-20l25 141q-39 -70 -106.5 -110.5t-151.5 -40.5q-108 0 -175 81zM72 260q-18 -103 43 -177q61 -75 163 -75q51 0 96.5 17.5
t81.5 48.5t60.5 73.5t33.5 92.5q18 101 -44 177q-62 75 -162 75q-52 0 -97.5 -17.5t-81.5 -48t-60 -73t-33 -93.5zM461 690h22l-103 -120h-19z" />
    <glyph glyph-name="acircumflex" unicode="&#xe2;" horiz-adv-x="662" 
d="M100 71q-68 82 -48 192q10 55 36 100.5t65 78t88.5 50.5t105.5 18q41 0 77.5 -13.5t65.5 -37.5t48.5 -57.5t27.5 -73.5l30 172h20l-88 -500h-20l25 141q-39 -70 -106.5 -110.5t-151.5 -40.5q-108 0 -175 81zM72 260q-18 -103 43 -177q61 -75 163 -75q51 0 96.5 17.5
t81.5 48.5t60.5 73.5t33.5 92.5q18 101 -44 177q-62 75 -162 75q-52 0 -97.5 -17.5t-81.5 -48t-60 -73t-33 -93.5zM253 570l133 120h22l91 -120h-20l-82 108l-120 -108h-24z" />
    <glyph glyph-name="atilde" unicode="&#xe3;" horiz-adv-x="662" 
d="M100 71q-68 82 -48 192q10 55 36 100.5t65 78t88.5 50.5t105.5 18q41 0 77.5 -13.5t65.5 -37.5t48.5 -57.5t27.5 -73.5l30 172h20l-88 -500h-20l25 141q-39 -70 -106.5 -110.5t-151.5 -40.5q-108 0 -175 81zM72 260q-18 -103 43 -177q61 -75 163 -75q51 0 96.5 17.5
t81.5 48.5t60.5 73.5t33.5 92.5q18 101 -44 177q-62 75 -162 75q-52 0 -97.5 -17.5t-81.5 -48t-60 -73t-33 -93.5zM249 590q3 14 8 30t14 29.5t22 22.5t30 9q32 0 66 -43q28 -36 56 -36q13 0 23 7t17 17.5t11.5 23.5t6.5 24h17q-3 -14 -8.5 -30t-14.5 -29.5t-22 -22
t-30 -8.5q-33 0 -66 42q-30 37 -58 37q-20 0 -34.5 -19t-20.5 -54h-17z" />
    <glyph glyph-name="adieresis" unicode="&#xe4;" horiz-adv-x="662" 
d="M100 71q-68 82 -48 192q10 55 36 100.5t65 78t88.5 50.5t105.5 18q41 0 77.5 -13.5t65.5 -37.5t48.5 -57.5t27.5 -73.5l30 172h20l-88 -500h-20l25 141q-39 -70 -106.5 -110.5t-151.5 -40.5q-108 0 -175 81zM72 260q-18 -103 43 -177q61 -75 163 -75q51 0 96.5 17.5
t81.5 48.5t60.5 73.5t33.5 92.5q18 101 -44 177q-62 75 -162 75q-52 0 -97.5 -17.5t-81.5 -48t-60 -73t-33 -93.5zM448 580q-8 0 -13 6t-4 14q5 20 24 20q8 0 13 -6t3 -14q-6 -20 -23 -20zM288 580q-8 0 -13 6t-4 14q5 20 24 20q8 0 13 -6t3 -14q-6 -20 -23 -20z" />
    <glyph glyph-name="aring" unicode="&#xe5;" horiz-adv-x="662" 
d="M100 71q-68 82 -48 192q10 55 36 100.5t65 78t88.5 50.5t105.5 18q41 0 77.5 -13.5t65.5 -37.5t48.5 -57.5t27.5 -73.5l30 172h20l-88 -500h-20l25 141q-39 -70 -106.5 -110.5t-151.5 -40.5q-108 0 -175 81zM72 260q-18 -103 43 -177q61 -75 163 -75q51 0 96.5 17.5
t81.5 48.5t60.5 73.5t33.5 92.5q18 101 -44 177q-62 75 -162 75q-52 0 -97.5 -17.5t-81.5 -48t-60 -73t-33 -93.5zM366 560q-42 0 -64.5 25.5t-15.5 64.5q7 40 37 65t72 25t65.5 -24t15.5 -66q-7 -39 -37.5 -64.5t-72.5 -25.5zM304 650q-6 -33 11.5 -53.5t52.5 -20.5
t59.5 20t30.5 54t-13 53q-10 10 -22.5 15.5t-29.5 5.5q-34 0 -58.5 -20t-30.5 -54z" />
    <glyph glyph-name="ae" unicode="&#xe6;" horiz-adv-x="1099" 
d="M94 66q-62 78 -43 187q10 55 38 102t69 81.5t92 54t107 19.5q40 0 75 -12t62.5 -33.5t46.5 -52t28 -67.5l27 155h18l-26 -149q38 73 107 116t154 43q110 0 164 -77q55 -78 36 -184l-2 -11h-477q-13 -102 40 -167q26 -32 65 -47.5t90 -15.5q69 0 125 27.5t89 75.5l15 -10
q-36 -52 -96.5 -81.5t-135.5 -29.5q-84 0 -139.5 44.5t-69.5 119.5l-27 -154h-18l26 148q-42 -72 -113.5 -115t-155.5 -43q-110 0 -171 76zM71 250q-18 -102 39 -172t158 -70q51 0 98.5 19t86 52t64.5 77t35 94q18 102 -40 172t-158 70q-52 0 -99 -19t-85 -51.5t-64 -76.5
t-35 -95zM1032 256q14 107 -37 171q-51 65 -148 65q-53 0 -98.5 -18t-81.5 -49.5t-60.5 -74.5t-33.5 -94h459z" />
    <glyph glyph-name="ccedilla" unicode="&#xe7;" horiz-adv-x="580" 
d="M90 68q-59 75 -39 185q10 55 38 102t69 81.5t92 54t107 19.5q72 0 124.5 -33.5t71.5 -88.5l-17 -10q-17 54 -64.5 84t-117.5 30q-53 0 -100 -18.5t-85 -51t-63.5 -77t-34.5 -95.5q-18 -103 37 -173q55 -69 160 -69q69 0 128 31t95 83l15 -10q-37 -55 -97.5 -87.5
t-132.5 -34.5l-12 -69h8q31 0 53 -16t16 -47q-9 -64 -124 -64q-14 0 -29.5 1t-32.5 3l3 16q17 -2 32.5 -3t29.5 -1q95 0 103 50q5 21 -10.5 33.5t-50.5 12.5h-9.5t-9.5 -1l15 85q-110 3 -168 78z" />
    <glyph glyph-name="egrave" unicode="&#xe8;" horiz-adv-x="597" 
d="M89 64q-59 74 -39 188q10 56 36 103t64.5 81.5t88.5 54t108 19.5q110 0 164 -77q55 -78 36 -184l-2 -11h-477q-13 -102 40 -167q26 -32 65 -47.5t90 -15.5q69 0 125 27.5t89 75.5l15 -10q-36 -52 -96.5 -81.5t-135.5 -29.5q-112 0 -171 74zM530 256q14 107 -37 171
q-51 65 -148 65q-53 0 -98.5 -18t-81.5 -49.5t-60.5 -74.5t-33.5 -94h459zM323 690l60 -120h-16l-64 120h20z" />
    <glyph glyph-name="eacute" unicode="&#xe9;" horiz-adv-x="597" 
d="M89 64q-59 74 -39 188q10 56 36 103t64.5 81.5t88.5 54t108 19.5q110 0 164 -77q55 -78 36 -184l-2 -11h-477q-13 -102 40 -167q26 -32 65 -47.5t90 -15.5q69 0 125 27.5t89 75.5l15 -10q-36 -52 -96.5 -81.5t-135.5 -29.5q-112 0 -171 74zM530 256q14 107 -37 171
q-51 65 -148 65q-53 0 -98.5 -18t-81.5 -49.5t-60.5 -74.5t-33.5 -94h459zM433 690h22l-103 -120h-19z" />
    <glyph glyph-name="ecircumflex" unicode="&#xea;" horiz-adv-x="597" 
d="M89 64q-59 74 -39 188q10 56 36 103t64.5 81.5t88.5 54t108 19.5q110 0 164 -77q55 -78 36 -184l-2 -11h-477q-13 -102 40 -167q26 -32 65 -47.5t90 -15.5q69 0 125 27.5t89 75.5l15 -10q-36 -52 -96.5 -81.5t-135.5 -29.5q-112 0 -171 74zM530 256q14 107 -37 171
q-51 65 -148 65q-53 0 -98.5 -18t-81.5 -49.5t-60.5 -74.5t-33.5 -94h459zM233 570l133 120h22l91 -120h-20l-82 108l-120 -108h-24z" />
    <glyph glyph-name="edieresis" unicode="&#xeb;" horiz-adv-x="597" 
d="M89 64q-59 74 -39 188q10 56 36 103t64.5 81.5t88.5 54t108 19.5q110 0 164 -77q55 -78 36 -184l-2 -11h-477q-13 -102 40 -167q26 -32 65 -47.5t90 -15.5q69 0 125 27.5t89 75.5l15 -10q-36 -52 -96.5 -81.5t-135.5 -29.5q-112 0 -171 74zM345 492q-53 0 -98.5 -18
t-81.5 -49.5t-60.5 -74.5t-33.5 -94h459q14 107 -37 171q-51 65 -148 65zM439 580q-8 0 -13 6t-4 14q5 20 24 20q8 0 13 -6t3 -14q-6 -20 -23 -20zM279 580q-8 0 -13 6t-4 14q5 20 24 20q8 0 13 -6t3 -14q-6 -20 -23 -20z" />
    <glyph glyph-name="igrave" unicode="&#xec;" horiz-adv-x="200" 
d="M155 570l-47 120h21l44 -120h-18zM154 500h-20l-88 -500h20z" />
    <glyph glyph-name="iacute" unicode="&#xed;" horiz-adv-x="200" 
d="M223 690h21l-89 -120h-18zM66 0l88 500h-20l-88 -500h20z" />
    <glyph glyph-name="icircumflex" unicode="&#xee;" horiz-adv-x="200" 
d="M134 500h20l-88 -500h-20zM167 690h22l61 -120h-22l-53 104l-89 -104h-22z" />
    <glyph glyph-name="idieresis" unicode="&#xef;" horiz-adv-x="200" 
d="M46 0l88 500h20l-88 -500h-20zM219 580q-8 0 -13 6t-4 14q5 20 24 20q8 0 13 -6t3 -14q-6 -20 -23 -20zM99 580q-8 0 -13 6t-4 14q5 20 24 20q8 0 13 -6t3 -14q-6 -20 -23 -20z" />
    <glyph glyph-name="eth" unicode="&#xf0;" horiz-adv-x="590" 
d="M92 62q-63 72 -43 180q9 50 33.5 90.5t60 69.5t80.5 44.5t95 15.5q88 0 147 -45l-103 183l-148 -82l3 22l136 76l-47 84h19l43 -76l123 68l-4 -22l-110 -61l138 -246q32 -58 19 -146q-9 -52 -33.5 -94t-60 -71.5t-81.5 -45.5t-98 -16q-105 0 -169 72zM69 240
q-18 -98 37 -165t158 -67q48 0 90 15.5t75 43.5t55 67t30 86q15 84 -14 134q-53 90 -185 90q-47 0 -88 -14.5t-73 -41.5t-54 -64.5t-31 -83.5z" />
    <glyph glyph-name="ntilde" unicode="&#xf1;" horiz-adv-x="575" 
d="M46 0l88 500h20l-23 -128q35 67 94 102.5t128 35.5q85 0 129 -53q45 -54 30 -139l-56 -318h-20l56 318q6 38 -0.5 70t-24.5 55t-47.5 36t-68.5 13q-86 0 -151 -59q-66 -60 -85 -155l-49 -278h-20zM217 590q3 14 8 30t14 29.5t22 22.5t30 9q32 0 66 -43q28 -36 56 -36
q13 0 23 7t17 17.5t11.5 23.5t6.5 24h17q-12 -68 -55 -86q-9 -4 -20 -4q-33 0 -66 42q-30 37 -58 37q-20 0 -34.5 -19t-20.5 -54h-17z" />
    <glyph glyph-name="ograve" unicode="&#xf2;" horiz-adv-x="622" 
d="M95 67q-64 77 -44 187q10 55 38 102t68.5 81t91.5 53.5t107 19.5q108 0 171 -77q64 -77 44 -187q-10 -55 -38 -102t-68.5 -81t-91.5 -53.5t-107 -19.5q-108 0 -171 77zM71 250q-18 -102 39 -172t158 -70q52 0 99 19t85 51.5t64 76.5t35 95q18 102 -40 172t-157 70
q-52 0 -99 -19t-85 -51.5t-64 -76.5t-35 -95zM371 570h-16l-64 120h20z" />
    <glyph glyph-name="oacute" unicode="&#xf3;" horiz-adv-x="622" 
d="M95 67q-64 77 -44 187q10 55 38 102t68.5 81t91.5 53.5t107 19.5q108 0 171 -77q64 -77 44 -187q-10 -55 -38 -102t-68.5 -81t-91.5 -53.5t-107 -19.5q-108 0 -171 77zM71 250q-18 -102 39 -172t158 -70q52 0 99 19t85 51.5t64 76.5t35 95q18 102 -40 172t-157 70
q-52 0 -99 -19t-85 -51.5t-64 -76.5t-35 -95zM448 690h22l-103 -120h-19z" />
    <glyph glyph-name="ocircumflex" unicode="&#xf4;" horiz-adv-x="622" 
d="M95 67q-64 77 -44 187q10 55 38 102t68.5 81t91.5 53.5t107 19.5q108 0 171 -77q64 -77 44 -187q-10 -55 -38 -102t-68.5 -81t-91.5 -53.5t-107 -19.5q-108 0 -171 77zM71 250q-18 -102 39 -172t158 -70q52 0 99 19t85 51.5t64 76.5t35 95q18 102 -40 172t-157 70
q-52 0 -99 -19t-85 -51.5t-64 -76.5t-35 -95zM394 690h22l91 -120h-20l-82 108l-120 -108h-24z" />
    <glyph glyph-name="otilde" unicode="&#xf5;" horiz-adv-x="622" 
d="M95 67q-64 77 -44 187q10 55 38 102t68.5 81t91.5 53.5t107 19.5q108 0 171 -77q64 -77 44 -187q-10 -55 -38 -102t-68.5 -81t-91.5 -53.5t-107 -19.5q-108 0 -171 77zM71 250q-18 -102 39 -172t158 -70q52 0 99 19t85 51.5t64 76.5t35 95q18 102 -40 172t-157 70
q-52 0 -99 -19t-85 -51.5t-64 -76.5t-35 -95zM245 590q3 14 8 30t14 29.5t22 22.5t30 9q32 0 66 -43q28 -36 56 -36q13 0 23 7t17 17.5t11.5 23.5t6.5 24h17q-3 -14 -8.5 -30t-14.5 -29.5t-22 -22t-30 -8.5q-33 0 -66 42q-30 37 -58 37q-20 0 -34.5 -19t-20.5 -54h-17z" />
    <glyph glyph-name="odieresis" unicode="&#xf6;" horiz-adv-x="622" 
d="M95 67q-64 77 -44 187q10 55 38 102t68.5 81t91.5 53.5t107 19.5q108 0 171 -77q64 -77 44 -187q-10 -55 -38 -102t-68.5 -81t-91.5 -53.5t-107 -19.5q-108 0 -171 77zM71 250q-18 -102 39 -172t158 -70q52 0 99 19t85 51.5t64 76.5t35 95q18 102 -40 172t-157 70
q-52 0 -99 -19t-85 -51.5t-64 -76.5t-35 -95zM441 580q-8 0 -13 6t-4 14q5 20 24 20q8 0 13 -6t3 -14q-6 -20 -23 -20zM281 580q-8 0 -13 6t-4 14q5 20 24 20q8 0 13 -6t3 -14q-6 -20 -23 -20z" />
    <glyph glyph-name="divide" unicode="&#xf7;" horiz-adv-x="580" 
d="M86 341l3 18h440l-3 -18h-440zM336 512q-10 0 -16 7.5t-4 18.5q1 10 9.5 17t19.5 7q10 0 16.5 -7.5t4.5 -18.5q-2 -10 -10.5 -17t-19.5 -7zM270 138q-10 0 -16 7.5t-4 18.5q1 10 9.5 17t19.5 7q10 0 16.5 -7.5t4.5 -18.5q-2 -10 -10.5 -17t-19.5 -7z" />
    <glyph glyph-name="oslash" unicode="&#xf8;" horiz-adv-x="622" 
d="M96 65q-65 78 -45 189q10 55 38 102t68.5 81t91.5 53.5t107 19.5q96 0 158 -62l57 52l15 -10l-60 -55q64 -78 45 -189q-10 -55 -38 -102t-68.5 -81t-91.5 -53.5t-107 -19.5q-96 0 -158 62l-57 -52l-15 10zM122 65q57 -57 146 -57q52 0 99 19t85 51.5t64 76.5t35 95
q18 101 -39 172zM71 250q-18 -101 39 -172l390 357q-57 57 -146 57q-101 0 -183 -70t-100 -172z" />
    <glyph glyph-name="ugrave" unicode="&#xf9;" horiz-adv-x="575" 
d="M92 43q-44 53 -29 139l56 318h20l-56 -318q-6 -38 0.5 -70t24.5 -55t47.5 -36t68.5 -13q47 0 86.5 17t70 46t50.5 68t29 83l49 278h20l-88 -500h-20l23 128q-35 -67 -94 -102.5t-128 -35.5q-85 0 -130 53zM304 690l60 -120h-16l-64 120h20z" />
    <glyph glyph-name="uacute" unicode="&#xfa;" horiz-adv-x="575" 
d="M92 43q-44 53 -29 139l56 318h20l-56 -318q-6 -38 0.5 -70t24.5 -55t47.5 -36t68.5 -13q47 0 86.5 17t70 46t50.5 68t29 83l49 278h20l-88 -500h-20l23 128q-35 -67 -94 -102.5t-128 -35.5q-85 0 -130 53zM322 570l100 120h22l-103 -120h-19z" />
    <glyph glyph-name="ucircumflex" unicode="&#xfb;" horiz-adv-x="575" 
d="M92 43q-44 53 -29 139l56 318h20l-56 -318q-6 -38 0.5 -70t24.5 -55t47.5 -36t68.5 -13q47 0 86.5 17t70 46t50.5 68t29 83l49 278h20l-88 -500h-20l23 128q-35 -67 -94 -102.5t-128 -35.5q-85 0 -130 53zM214 570l133 120h22l91 -120h-20l-82 108l-120 -108h-24z" />
    <glyph glyph-name="udieresis" unicode="&#xfc;" horiz-adv-x="575" 
d="M92 43q-44 53 -29 139l56 318h20l-56 -318q-6 -38 0.5 -70t24.5 -55t47.5 -36t68.5 -13q47 0 86.5 17t70 46t50.5 68t29 83l49 278h20l-88 -500h-20l23 128q-35 -67 -94 -102.5t-128 -35.5q-85 0 -130 53zM420 580q-8 0 -13 6t-4 14q5 20 24 20q8 0 13 -6t3 -14
q-6 -20 -23 -20zM260 580q-8 0 -13 6t-4 14q5 20 24 20q8 0 13 -6t3 -14q-6 -20 -23 -20z" />
    <glyph glyph-name="yacute" unicode="&#xfd;" horiz-adv-x="510" 
d="M4 -182q33 0 62 12t54 32t45.5 45.5t36.5 52.5l9 15l-147 525h19l141 -501l288 501h22l-314 -546q-42 -72 -95.5 -113.5t-110.5 -41.5q-4 0 -7 0.5t-6 0.5zM291 570l100 120h22l-103 -120h-19z" />
    <glyph glyph-name="thorn" unicode="&#xfe;" horiz-adv-x="662" 
d="M169 700h20l-60 -341q39 70 106.5 110.5t151.5 40.5q107 0 174 -82q68 -82 49 -191q-10 -55 -36 -100.5t-65 -78t-88.5 -50.5t-105.5 -18q-41 0 -77.5 13t-65.5 37t-49 57t-27 74l-65 -371h-20zM112 260q-18 -103 43 -177q61 -75 163 -75q51 0 96.5 17.5t81.5 48.5
t60.5 73.5t33.5 92.5q18 101 -44 177q-62 75 -162 75q-52 0 -97.5 -17.5t-81.5 -48t-60 -73t-33 -93.5z" />
    <glyph glyph-name="ydieresis" unicode="&#xff;" horiz-adv-x="510" 
d="M220 -46q-42 -72 -95.5 -113.5t-110.5 -41.5q-4 0 -7 0.5t-6 0.5l3 18q33 0 62 12t54 32t45.5 45.5t36.5 52.5l9 15l-147 525h19l141 -501l288 501h22zM380 580q-8 0 -13 6t-4 14q5 20 24 20q8 0 13 -6t3 -14q-6 -20 -23 -20zM220 580q-8 0 -13 6t-4 14q5 20 24 20
q8 0 13 -6t3 -14q-6 -20 -23 -20z" />
    <glyph glyph-name="Amacron" unicode="&#x100;" horiz-adv-x="628" 
d="M381 700h25l153 -700h-20l-42 191h-385l-109 -191h-22zM493 209l-102 470l-269 -470h371zM291 801l3 16h240l-3 -16h-240z" />
    <glyph glyph-name="amacron" unicode="&#x101;" horiz-adv-x="662" 
d="M100 71q-68 82 -48 192q10 55 36 100.5t65 78t88.5 50.5t105.5 18q41 0 77.5 -13.5t65.5 -37.5t48.5 -57.5t27.5 -73.5l30 172h20l-88 -500h-20l25 141q-39 -70 -106.5 -110.5t-151.5 -40.5q-108 0 -175 81zM72 260q-18 -103 43 -177q61 -75 163 -75q51 0 96.5 17.5
t81.5 48.5t60.5 73.5t33.5 92.5q18 101 -44 177q-62 75 -162 75q-52 0 -97.5 -17.5t-81.5 -48t-60 -73t-33 -93.5zM252 601l3 16h240l-3 -16h-240z" />
    <glyph glyph-name="Abreve" unicode="&#x102;" horiz-adv-x="628" 
d="M-19 0l400 700h25l153 -700h-20l-42 191h-385l-109 -191h-22zM493 209l-102 470l-269 -470h371zM409 772q-54 0 -83.5 28.5t-21.5 76.5h18q-7 -40 17 -64.5t70 -24.5t78 24.5t39 64.5h18q-8 -48 -44.5 -76.5t-90.5 -28.5z" />
    <glyph glyph-name="abreve" unicode="&#x103;" horiz-adv-x="662" 
d="M100 71q-68 82 -48 192q10 55 36 100.5t65 78t88.5 50.5t105.5 18q41 0 77.5 -13.5t65.5 -37.5t48.5 -57.5t27.5 -73.5l30 172h20l-88 -500h-20l25 141q-39 -70 -106.5 -110.5t-151.5 -40.5q-108 0 -175 81zM72 260q-18 -103 43 -177q61 -75 163 -75q51 0 96.5 17.5
t81.5 48.5t60.5 73.5t33.5 92.5q18 101 -44 177q-62 75 -162 75q-52 0 -97.5 -17.5t-81.5 -48t-60 -73t-33 -93.5zM403 572q-54 0 -83.5 28.5t-21.5 76.5h18q-7 -40 17 -64.5t70 -24.5t78 24.5t39 64.5h18q-8 -48 -44.5 -76.5t-90.5 -28.5z" />
    <glyph glyph-name="Aogonek" unicode="&#x104;" horiz-adv-x="628" 
d="M-19 0l400 700h25l153 -700q-57 -42 -86.5 -75.5t-35.5 -67.5q-4 -23 8 -37t35 -14q27 0 46 10l-3 -18q-18 -8 -46 -8q-32 0 -48 18.5t-10 49.5q10 66 119 147l-41 186h-385l-109 -191h-22zM493 209l-102 470l-269 -470h371z" />
    <glyph glyph-name="aogonek" unicode="&#x105;" horiz-adv-x="662" 
d="M100 71q-68 82 -48 192q10 55 36 100.5t65 78t88.5 50.5t105.5 18q83 0 143 -51q61 -50 76 -131l30 172h20l-88 -500q-111 -82 -122 -144q-4 -23 8 -36.5t35 -13.5q26 0 46 9l-3 -17q-21 -8 -46 -8q-31 0 -47.5 19t-10.5 49q10 68 122 151l23 132q-39 -70 -106.5 -110.5
t-151.5 -40.5q-108 0 -175 81zM72 260q-18 -103 43 -177q61 -75 163 -75q51 0 96.5 17.5t81.5 48.5t60.5 73.5t33.5 92.5q18 101 -44 177q-62 75 -162 75q-52 0 -97.5 -17.5t-81.5 -48t-60 -73t-33 -93.5z" />
    <glyph glyph-name="Cacute" unicode="&#x106;" horiz-adv-x="763" 
d="M137 94q-85 104 -59 258q13 75 50 140.5t92.5 114t125 76t146.5 27.5q96 0 167.5 -44t107.5 -117l-17 -9q-34 70 -101.5 111t-157.5 41q-74 0 -140 -26.5t-118 -72.5t-87 -108.5t-48 -134.5q-25 -141 52 -242q76 -100 223 -100q94 0 176 43t137 118l16 -10
q-29 -39 -65.5 -70.5t-78.5 -53.5t-88.5 -33.5t-95.5 -11.5q-151 0 -237 104zM609 890l-103 -120h-19l100 120h22z" />
    <glyph glyph-name="cacute" unicode="&#x107;" horiz-adv-x="580" 
d="M92 66q-61 75 -41 187q10 55 38 102t69 81.5t92 54t107 19.5q72 0 124.5 -33.5t71.5 -88.5l-17 -10q-17 54 -64.5 84t-117.5 30q-53 0 -100 -18.5t-85 -51t-63.5 -77t-34.5 -95.5q-18 -103 37 -173q55 -69 160 -69q69 0 128 31t95 83l15 -10q-39 -57 -102 -89.5
t-139 -32.5q-112 0 -173 76zM461 690l-103 -120h-19l100 120h22z" />
    <glyph glyph-name="Cdotaccent" unicode="&#x10a;" horiz-adv-x="763" 
d="M137 94q-85 104 -59 258q13 75 50 140.5t92.5 114t125 76t146.5 27.5q96 0 167.5 -44t107.5 -117l-17 -9q-34 70 -101.5 111t-157.5 41q-74 0 -140 -26.5t-118 -72.5t-87 -108.5t-48 -134.5q-25 -141 52 -242q76 -100 223 -100q94 0 176 43t137 118l16 -10
q-29 -39 -65.5 -70.5t-78.5 -53.5t-88.5 -33.5t-95.5 -11.5q-151 0 -237 104zM493 788q-7 9 -5 22t12 21q10 9 24 9q11 0 19 -9q7 -8 5 -21t-12 -22q-9 -9 -22 -9q-14 0 -21 9z" />
    <glyph glyph-name="cdotaccent" unicode="&#x10b;" horiz-adv-x="580" 
d="M92 66q-61 75 -41 187q10 55 38 102t69 81.5t92 54t107 19.5q72 0 124.5 -33.5t71.5 -88.5l-17 -10q-17 54 -64.5 84t-117.5 30q-53 0 -100 -18.5t-85 -51t-63.5 -77t-34.5 -95.5q-18 -103 37 -173q55 -69 160 -69q69 0 128 31t95 83l15 -10q-39 -57 -102 -89.5
t-139 -32.5q-112 0 -173 76zM345 588q-7 9 -5 22t12 21q10 9 24 9q11 0 19 -9q7 -8 5 -21t-12 -22q-9 -9 -22 -9q-14 0 -21 9z" />
    <glyph glyph-name="Ccaron" unicode="&#x10c;" horiz-adv-x="763" 
d="M137 94q-85 104 -59 258q13 75 50 140.5t92.5 114t125 76t146.5 27.5q96 0 167.5 -44t107.5 -117l-17 -9q-34 70 -101.5 111t-157.5 41q-74 0 -140 -26.5t-118 -72.5t-87 -108.5t-48 -134.5q-25 -141 52 -242q76 -100 223 -100q94 0 176 43t137 118l16 -10
q-29 -39 -65.5 -70.5t-78.5 -53.5t-88.5 -33.5t-95.5 -11.5q-151 0 -237 104zM429 890l82 -108l119 108h24l-133 -120h-22l-91 120h21z" />
    <glyph glyph-name="ccaron" unicode="&#x10d;" horiz-adv-x="580" 
d="M92 66q-61 75 -41 187q10 55 38 102t69 81.5t92 54t107 19.5q72 0 124.5 -33.5t71.5 -88.5l-17 -10q-17 54 -64.5 84t-117.5 30q-53 0 -100 -18.5t-85 -51t-63.5 -77t-34.5 -95.5q-18 -103 37 -173q55 -69 160 -69q69 0 128 31t95 83l15 -10q-39 -57 -102 -89.5
t-139 -32.5q-112 0 -173 76zM260 690h21l82 -108l119 108h24l-133 -120h-22z" />
    <glyph glyph-name="Dcaron" unicode="&#x10e;" horiz-adv-x="740" 
d="M56 0l123 700h250q140 0 217 -104t51 -250q-12 -73 -46.5 -136t-86 -109.5t-117.5 -73.5t-141 -27h-250zM309 18q70 0 132 26.5t110.5 72t81 105.5t44.5 127q24 140 -46 236q-70 97 -205 97h-230l-117 -664h230zM349 890l82 -108l119 108h24l-133 -120h-22l-91 120h21z
" />
    <glyph glyph-name="dcaron" unicode="&#x10f;" horiz-adv-x="686" 
d="M100 71q-68 82 -48 192q10 55 36 100.5t65 78t88.5 50.5t105.5 18q41 0 77.5 -13t65.5 -37t48.5 -57.5t27.5 -73.5l65 371h20l-123 -700h-20l25 141q-39 -70 -106.5 -110.5t-151.5 -40.5q-108 0 -175 81zM72 260q-18 -103 43 -177q61 -75 163 -75q51 0 96.5 17.5
t81.5 48.5t60.5 73.5t33.5 92.5q18 101 -44 177q-62 75 -162 75q-52 0 -97.5 -17.5t-81.5 -48t-60 -73t-33 -93.5zM745 700h20l-44 -170h-16z" />
    <glyph glyph-name="Dcroat" unicode="&#x110;" horiz-adv-x="760" 
d="M76 341l3 18h60l60 341h250q140 0 217 -104t51 -250q-12 -73 -46.5 -136t-86 -109.5t-117.5 -73.5t-141 -27h-250l60 341h-60zM99 18h230q70 0 132 26.5t110.5 72t81 105.5t44.5 127q24 140 -46 236q-70 97 -205 97h-230l-57 -323h203l-3 -18h-203z" />
    <glyph glyph-name="dcroat" unicode="&#x111;" horiz-adv-x="666" 
d="M100 71q-68 82 -48 192q10 55 36 100.5t65 78t88.5 50.5t105.5 18q41 0 77.5 -13t65.5 -37t48.5 -57.5t27.5 -73.5l47 266h-236l3 17h236l15 88h20l-15 -88h64l-3 -17h-64l-105 -595h-20l25 141q-39 -70 -106.5 -110.5t-151.5 -40.5q-108 0 -175 81zM72 260
q-18 -103 43 -177q61 -75 163 -75q51 0 96.5 17.5t81.5 48.5t60.5 73.5t33.5 92.5q18 101 -44 177q-62 75 -162 75q-52 0 -97.5 -17.5t-81.5 -48t-60 -73t-33 -93.5z" />
    <glyph glyph-name="Emacron" unicode="&#x112;" 
d="M507 817l-3 -16h-240l3 16h240zM561 682h-365l-56 -320h340l-3 -18h-341l-57 -326h370l-3 -18h-390l123 700h385z" />
    <glyph glyph-name="emacron" unicode="&#x113;" horiz-adv-x="597" 
d="M89 64q-59 74 -39 188q10 56 36 103t64.5 81.5t88.5 54t108 19.5q110 0 164 -77q55 -78 36 -184l-2 -11h-477q-13 -102 40 -167q26 -32 65 -47.5t90 -15.5q69 0 125 27.5t89 75.5l15 -10q-36 -52 -96.5 -81.5t-135.5 -29.5q-112 0 -171 74zM530 256q14 107 -37 171
q-51 65 -148 65q-53 0 -98.5 -18t-81.5 -49.5t-60.5 -74.5t-33.5 -94h459zM246 617h240l-3 -16h-240z" />
    <glyph glyph-name="Edotaccent" unicode="&#x116;" 
d="M179 700h385l-3 -18h-365l-56 -320h340l-3 -18h-341l-57 -326h370l-3 -18h-390zM360 788q-7 9 -5 22t12 21q10 9 24 9q11 0 19 -9q7 -8 5 -21t-12 -22q-9 -9 -22 -9q-14 0 -21 9z" />
    <glyph glyph-name="edotaccent" unicode="&#x117;" horiz-adv-x="597" 
d="M89 64q-59 74 -39 188q10 56 36 103t64.5 81.5t88.5 54t108 19.5q110 0 164 -77q55 -78 36 -184l-2 -11h-477q-13 -102 40 -167q26 -32 65 -47.5t90 -15.5q69 0 125 27.5t89 75.5l15 -10q-36 -52 -96.5 -81.5t-135.5 -29.5q-112 0 -171 74zM530 256q14 107 -37 171
q-51 65 -148 65q-53 0 -98.5 -18t-81.5 -49.5t-60.5 -74.5t-33.5 -94h459zM339 588q-7 9 -5 22t12 21q10 9 24 9q11 0 19 -9q7 -8 5 -21t-12 -22q-9 -9 -22 -9q-14 0 -21 9z" />
    <glyph glyph-name="Eogonek" unicode="&#x118;" horiz-adv-x="542" 
d="M56 0l123 700h385l-3 -18h-365l-56 -320h340l-3 -18h-341l-57 -326h370l-3 -18q-112 -78 -122 -142q-4 -23 8.5 -37.5t36.5 -14.5q23 0 46 9l-3 -17q-21 -8 -46 -8q-33 0 -49.5 19.5t-10.5 50.5q10 67 115 140h-365z" />
    <glyph glyph-name="eogonek" unicode="&#x119;" horiz-adv-x="597" 
d="M89 64q-59 74 -39 188q10 56 36 103t64.5 81.5t88.5 54t108 19.5q110 0 164 -77q55 -78 36 -184l-2 -11h-477q-13 -102 40 -167q26 -32 65 -47.5t90 -15.5q69 0 125 27.5t89 75.5l15 -10q-8 -13 -19 -24.5t-24 -22.5q-51 -45 -85 -76t-53 -51q-36 -37 -42 -71
q-9 -50 49 -50q21 0 42 8l-3 -16q-21 -8 -43 -8q-36 0 -52.5 18.5t-10.5 49.5q12 60 130 155q-57 -23 -121 -23q-112 0 -171 74zM345 492q-53 0 -98.5 -18t-81.5 -49.5t-60.5 -74.5t-33.5 -94h459q14 107 -37 171q-51 65 -148 65z" />
    <glyph glyph-name="Ecaron" unicode="&#x11a;" 
d="M179 700h385l-3 -18h-365l-56 -320h340l-3 -18h-341l-57 -326h370l-3 -18h-390zM296 890l82 -108l119 108h24l-133 -120h-22l-91 120h21z" />
    <glyph glyph-name="ecaron" unicode="&#x11b;" horiz-adv-x="597" 
d="M89 64q-59 74 -39 188q10 56 36 103t64.5 81.5t88.5 54t108 19.5q110 0 164 -77q55 -78 36 -184l-2 -11h-477q-13 -102 40 -167q26 -32 65 -47.5t90 -15.5q69 0 125 27.5t89 75.5l15 -10q-36 -52 -96.5 -81.5t-135.5 -29.5q-112 0 -171 74zM530 256q14 107 -37 171
q-51 65 -148 65q-53 0 -98.5 -18t-81.5 -49.5t-60.5 -74.5t-33.5 -94h459zM254 690h21l82 -108l119 108h24l-133 -120h-22z" />
    <glyph glyph-name="Gbreve" unicode="&#x11e;" horiz-adv-x="821" 
d="M141 97q-88 107 -62 260q13 75 50 139.5t92 112t124 74.5t146 27q100 0 171 -44.5t105 -116.5l-17 -9q-33 69 -100.5 110.5t-160.5 41.5q-72 0 -138 -26t-118 -71.5t-87 -107t-47 -132.5q-24 -146 58 -246q83 -101 233 -101q65 0 124 21t106.5 59t81 90.5t47.5 116.5
h-331l3 18h351l-2 -10q-14 -70 -48.5 -127.5t-84.5 -99t-113.5 -64t-134.5 -22.5q-161 0 -248 107zM515 772q-54 0 -83.5 28.5t-21.5 76.5h18q-7 -40 17 -64.5t70 -24.5t78 24.5t39 64.5h18q-8 -48 -44.5 -76.5t-90.5 -28.5z" />
    <glyph glyph-name="gbreve" unicode="&#x11f;" horiz-adv-x="672" 
d="M256 -210q-87 0 -142.5 33.5t-71.5 84.5l17 9q14 -46 65.5 -77.5t132.5 -31.5q53 0 97.5 15t79 44t57.5 70t32 94l19 109q-19 -35 -46 -62.5t-59.5 -47t-70 -30t-76.5 -10.5q-112 0 -180 80q-66 78 -48 193q8 53 34.5 98t65.5 78t88 52t102 19q42 0 79.5 -13t67 -36.5
t49.5 -57t28 -75.5l30 172h20l-83 -469q-20 -112 -94.5 -176.5t-192.5 -64.5zM82 260q-17 -105 44 -178q62 -74 165 -74q47 0 92.5 17.5t82.5 47.5t62 71t31 89l1 8q7 52 -3 96t-41 81q-62 74 -165 74q-98 0 -176 -66q-77 -66 -93 -166zM388 572q-54 0 -83.5 28.5
t-21.5 76.5h18q-7 -40 17 -64.5t70 -24.5t78 24.5t39 64.5h18q-8 -48 -44.5 -76.5t-90.5 -28.5z" />
    <glyph glyph-name="Gdotaccent" unicode="&#x120;" horiz-adv-x="821" 
d="M141 97q-88 107 -62 260q13 75 50 139.5t92 112t124 74.5t146 27q100 0 171 -44.5t105 -116.5l-17 -9q-33 69 -100.5 110.5t-160.5 41.5q-72 0 -138 -26t-118 -71.5t-87 -107t-47 -132.5q-24 -146 58 -246q83 -101 233 -101q65 0 124 21t106.5 59t81 90.5t47.5 116.5
h-331l3 18h351l-2 -10q-14 -70 -48.5 -127.5t-84.5 -99t-113.5 -64t-134.5 -22.5q-161 0 -248 107zM493 788q-7 9 -5 22t12 21q10 9 24 9q11 0 19 -9q7 -8 5 -21t-12 -22q-9 -9 -22 -9q-14 0 -21 9z" />
    <glyph glyph-name="gdotaccent" unicode="&#x121;" horiz-adv-x="672" 
d="M59 -83q14 -46 65.5 -77.5t132.5 -31.5q53 0 97.5 15t79 44t57.5 70t32 94l19 109q-19 -35 -46 -62.5t-59.5 -47t-70 -30t-76.5 -10.5q-112 0 -180 80q-66 78 -48 193q8 53 34.5 98t65.5 78t88 52t102 19q42 0 79.5 -13t67 -36.5t49.5 -57t28 -75.5l30 172h20l-83 -469
q-20 -112 -94.5 -176.5t-192.5 -64.5q-87 0 -142.5 33.5t-71.5 84.5zM82 260q-17 -105 44 -178q62 -74 165 -74q47 0 92.5 17.5t82.5 47.5t62 71t31 89l1 8q7 52 -3 96t-41 81q-62 74 -165 74q-98 0 -176 -66q-77 -66 -93 -166zM366 588q-7 9 -5 22t12 21q10 9 24 9
q11 0 19 -9q7 -8 5 -21t-12 -22q-9 -9 -22 -9q-14 0 -21 9z" />
    <glyph glyph-name="uni0122" unicode="&#x122;" horiz-adv-x="821" 
d="M141 97q-88 107 -62 260q13 75 50 139.5t92 112t124 74.5t146 27q100 0 171 -44.5t105 -116.5l-17 -9q-33 69 -100.5 110.5t-160.5 41.5q-72 0 -138 -26t-118 -71.5t-87 -107t-47 -132.5q-24 -146 58 -246q83 -101 233 -101q65 0 124 21t106.5 59t81 90.5t47.5 116.5
h-331l3 18h351l-2 -10q-14 -70 -48.5 -127.5t-84.5 -99t-113.5 -64t-134.5 -22.5q-161 0 -248 107zM366 -70h20l-44 -170h-16z" />
    <glyph glyph-name="uni0123" unicode="&#x123;" horiz-adv-x="672" 
d="M59 -83q14 -46 65.5 -77.5t132.5 -31.5q53 0 97.5 15t79 44t57.5 70t32 94l19 109q-19 -35 -46 -62.5t-59.5 -47t-70 -30t-76.5 -10.5q-112 0 -180 80q-66 78 -48 193q8 53 34.5 98t65.5 78t88 52t102 19q42 0 79.5 -13t67 -36.5t49.5 -57t28 -75.5l30 172h20l-83 -469
q-20 -112 -94.5 -176.5t-192.5 -64.5q-87 0 -142.5 33.5t-71.5 84.5zM82 260q-17 -105 44 -178q62 -74 165 -74q47 0 92.5 17.5t82.5 47.5t62 71t31 89l1 8q7 52 -3 96t-41 81q-62 74 -165 74q-98 0 -176 -66q-77 -66 -93 -166zM369 590l44 170h16l-40 -170h-20z" />
    <glyph glyph-name="Hbar" unicode="&#x126;" horiz-adv-x="760" 
d="M179 531h-69l3 18h69l27 151h20l-27 -151h460l27 151h20l-27 -151h71l-3 -18h-71l-93 -531h-20l62 351h-460l-62 -351h-20zM631 369l28 162h-460l-28 -162h460z" />
    <glyph glyph-name="hbar" unicode="&#x127;" horiz-adv-x="595" 
d="M171 595h-80l3 17h80l15 88h20l-15 -88h180l-3 -17h-180l-40 -224q35 69 94 104t128 35q85 0 129 -53q45 -54 30 -139l-56 -318h-20l56 318q6 38 -0.5 70t-24.5 55t-47.5 36t-68.5 13q-48 0 -87.5 -17t-69.5 -46.5t-50.5 -69t-29.5 -83.5l-48 -276h-20z" />
    <glyph glyph-name="Itilde" unicode="&#x128;" horiz-adv-x="220" 
d="M179 700h20l-123 -700h-20zM77 790q2 13 8 29t15 30t21.5 23t29.5 9q32 0 66 -43q28 -36 56 -36q13 0 23 7t17 17.5t11.5 23.5t6.5 24h17q-3 -14 -8.5 -30t-14.5 -29.5t-22 -22t-30 -8.5q-33 0 -66 42q-30 37 -58 37q-20 0 -34.5 -19t-20.5 -54h-17z" />
    <glyph glyph-name="itilde" unicode="&#x129;" horiz-adv-x="200" 
d="M134 500h20l-88 -500h-20zM45 590q2 13 6 29t11.5 29.5t18.5 22.5t28 9q28 0 56 -42q24 -36 48 -36q12 0 21 7.5t14.5 19t8.5 24t4 21.5h16q-2 -13 -6 -28.5t-11.5 -29t-19 -22.5t-27.5 -9q-27 0 -57 41q-27 37 -49 37q-17 0 -29 -19t-17 -54h-16z" />
    <glyph glyph-name="Imacron" unicode="&#x12a;" horiz-adv-x="220" 
d="M87 801l3 16h240l-3 -16h-240zM179 700h20l-123 -700h-20z" />
    <glyph glyph-name="imacron" unicode="&#x12b;" horiz-adv-x="200" 
d="M82 601l3 16h160l-3 -16h-160zM46 0l88 500h20l-88 -500h-20z" />
    <glyph glyph-name="Iogonek" unicode="&#x12e;" horiz-adv-x="220" 
d="M41 -210q-33 0 -49 18.5t-11 49.5q5 29 23.5 65.5t52.5 80.5l122 696h20l-123 -700q-69 -95 -77 -142q-4 -23 8.5 -37.5t36.5 -14.5q26 0 46 9l-3 -17q-21 -8 -46 -8z" />
    <glyph glyph-name="iogonek" unicode="&#x12f;" horiz-adv-x="200" 
d="M31 -210q-33 0 -49 19.5t-11 50.5q5 28 24.5 64t51.5 81l87 495h20l-88 -500l-39 -54q-9 -14 -21.5 -39t-16.5 -47q-4 -23 8.5 -38.5t36.5 -15.5q25 0 46 8l-3 -16q-21 -8 -46 -8zM188 658q-7 -7 -16 -7t-15.5 6.5t-4.5 16.5q5 23 27 23q17 0 19 -14t-10 -25z" />
    <glyph glyph-name="Idotaccent" unicode="&#x130;" horiz-adv-x="220" 
d="M179 700h20l-123 -700h-20zM183 788q-7 9 -5 22t12 21q10 9 24 9q11 0 19 -9q7 -8 5 -21t-12 -22q-9 -9 -22 -9q-14 0 -21 9z" />
    <glyph glyph-name="dotlessi" unicode="&#x131;" horiz-adv-x="200" 
d="M46 0l88 500h20l-88 -500h-20z" />
    <glyph glyph-name="uni0136" unicode="&#x136;" horiz-adv-x="556" 
d="M56 0l123 700h20l-59 -335l445 335h30l-454 -343l341 -357h-25l-339 354l-62 -354h-20zM213 -240l40 170h20l-44 -170h-16z" />
    <glyph glyph-name="uni0137" unicode="&#x137;" horiz-adv-x="461" 
d="M46 0l123 700h20l-76 -435l326 235h31l-337 -242l254 -258h-26l-250 254l-45 -254h-20zM151 -240l40 170h20l-44 -170h-16z" />
    <glyph glyph-name="Lacute" unicode="&#x139;" horiz-adv-x="500" 
d="M311 890l-103 -120h-19l100 120h22zM79 18h350l-3 -18h-370l123 700h20z" />
    <glyph glyph-name="lacute" unicode="&#x13a;" horiz-adv-x="201" 
d="M282 890h22l-103 -120h-19zM67 0l128 730h-20l-128 -730h20z" />
    <glyph glyph-name="uni013B" unicode="&#x13b;" horiz-adv-x="500" 
d="M79 18h350l-3 -18h-370l123 700h20zM186 -240l40 170h20l-44 -170h-16z" />
    <glyph glyph-name="uni013C" unicode="&#x13c;" horiz-adv-x="201" 
d="M47 0l128 730h20l-128 -730h-20zM-5 -240l40 170h20l-44 -170h-16z" />
    <glyph glyph-name="Lcaron" unicode="&#x13d;" horiz-adv-x="500" 
d="M179 700h20l-120 -682h350l-3 -18h-370zM369 700h20l-44 -170h-16z" />
    <glyph glyph-name="lcaron" unicode="&#x13e;" horiz-adv-x="216" 
d="M175 730h20l-128 -730h-20zM281 730h20l-44 -170h-16z" />
    <glyph glyph-name="Lslash" unicode="&#x141;" horiz-adv-x="510" 
d="M89 18h350l-3 -18h-370l46 264l-66 -39l4 23l66 39l73 413h20l-70 -399l234 138l-3 -23l-235 -139z" />
    <glyph glyph-name="lslash" unicode="&#x142;" horiz-adv-x="240" 
d="M254 440l-4 -21l-102 -62l-62 -357h-20l60 343l-100 -61l3 21l101 61l64 366h20l-62 -352z" />
    <glyph glyph-name="Nacute" unicode="&#x143;" horiz-adv-x="700" 
d="M179 700h20l342 -667l118 667h20l-123 -700h-20l-342 667l-118 -667h-20zM517 890h22l-103 -120h-19z" />
    <glyph glyph-name="nacute" unicode="&#x144;" horiz-adv-x="575" 
d="M46 0l88 500h20l-23 -128q35 67 94 102.5t128 35.5q85 0 129 -53q45 -54 30 -139l-56 -318h-20l56 318q6 38 -0.5 70t-24.5 55t-47.5 36t-68.5 13q-86 0 -151 -59q-66 -60 -85 -155l-49 -278h-20zM317 570l100 120h22l-103 -120h-19z" />
    <glyph glyph-name="uni0145" unicode="&#x145;" horiz-adv-x="700" 
d="M56 0l123 700h20l342 -667l118 667h20l-123 -700h-20l-342 667l-118 -667h-20zM286 -70h20l-44 -170h-16z" />
    <glyph glyph-name="uni0146" unicode="&#x146;" horiz-adv-x="575" 
d="M134 500h20l-23 -128q35 67 94 102.5t128 35.5q85 0 129 -53q45 -54 30 -139l-56 -318h-20l56 318q6 38 -0.5 70t-24.5 55t-47.5 36t-68.5 13q-86 0 -151 -59q-66 -60 -85 -155l-49 -278h-20zM204 -240l40 170h20l-44 -170h-16z" />
    <glyph glyph-name="Ncaron" unicode="&#x147;" horiz-adv-x="700" 
d="M56 0l123 700h20l342 -667l118 667h20l-123 -700h-20l-342 667l-118 -667h-20zM338 890h21l82 -108l119 108h24l-133 -120h-22z" />
    <glyph glyph-name="ncaron" unicode="&#x148;" horiz-adv-x="575" 
d="M46 0l88 500h20l-23 -128q35 67 94 102.5t128 35.5q85 0 129 -53q45 -54 30 -139l-56 -318h-20l56 318q6 38 -0.5 70t-24.5 55t-47.5 36t-68.5 13q-86 0 -151 -59q-66 -60 -85 -155l-49 -278h-20zM238 690h21l82 -108l119 108h24l-133 -120h-22z" />
    <glyph glyph-name="Eng" unicode="&#x14a;" horiz-adv-x="700" 
d="M56 0l123 700h20l342 -667l118 667h20l-123 -700q-19 -109 -75 -154.5t-155 -45.5l3 18q91 0 141 43t66 139l-342 667l-118 -667h-20z" />
    <glyph glyph-name="eng" unicode="&#x14b;" horiz-adv-x="575" 
d="M134 500h20l-23 -128q35 67 94 102.5t128 35.5q85 0 129 -53q45 -54 30 -139l-72 -408q-10 -57 -45.5 -89t-93.5 -32h-10.5t-10.5 1l3 18q6 -1 12 -1h11q96 0 114 103l72 408q6 38 -0.5 70t-24.5 55t-47.5 36t-68.5 13q-86 0 -151 -59q-66 -60 -85 -155l-49 -278h-20z
" />
    <glyph glyph-name="Omacron" unicode="&#x14c;" horiz-adv-x="840" 
d="M139 97q-87 106 -61 256q13 74 52 139t96 113.5t127.5 76.5t146.5 28q148 0 235 -107q88 -107 62 -256q-13 -74 -52 -139t-96 -113.5t-128 -76.5t-146 -28q-149 0 -236 107zM98 350q-25 -141 56 -242q81 -100 223 -100q72 0 138.5 27t120.5 73.5t91.5 109t49.5 132.5
q25 142 -57 242t-222 100q-72 0 -139 -27t-120.5 -73.5t-90.5 -109t-50 -132.5zM397 801l3 16h240l-3 -16h-240z" />
    <glyph glyph-name="omacron" unicode="&#x14d;" horiz-adv-x="622" 
d="M95 67q-64 77 -44 187q10 55 38 102t68.5 81t91.5 53.5t107 19.5q108 0 171 -77q64 -77 44 -187q-10 -55 -38 -102t-68.5 -81t-91.5 -53.5t-107 -19.5q-108 0 -171 77zM71 250q-18 -102 39 -172t158 -70q52 0 99 19t85 51.5t64 76.5t35 95q18 102 -40 172t-157 70
q-52 0 -99 -19t-85 -51.5t-64 -76.5t-35 -95zM248 617h240l-3 -16h-240z" />
    <glyph glyph-name="Ohungarumlaut" unicode="&#x150;" horiz-adv-x="840" 
d="M139 97q-87 106 -61 256q13 74 52 139t96 113.5t127.5 76.5t146.5 28q148 0 235 -107q88 -107 62 -256q-13 -74 -52 -139t-96 -113.5t-128 -76.5t-146 -28q-149 0 -236 107zM98 350q-25 -141 56 -242q81 -100 223 -100q72 0 138.5 27t120.5 73.5t91.5 109t49.5 132.5
q25 142 -57 242t-222 100q-72 0 -139 -27t-120.5 -73.5t-90.5 -109t-50 -132.5zM642 900h22l-104 -130h-19zM515 900l-96 -130h-18l92 130h22z" />
    <glyph glyph-name="ohungarumlaut" unicode="&#x151;" horiz-adv-x="622" 
d="M95 67q-64 77 -44 187t107 183q88 73 198 73q108 0 171 -77q64 -77 44 -187q-10 -55 -38 -102t-68.5 -81t-91.5 -53.5t-107 -19.5q-108 0 -171 77zM71 250q-18 -102 39 -172t158 -70q52 0 99 19t85 51.5t64 76.5t35 95q18 102 -40 172t-157 70q-52 0 -99 -19t-85 -51.5
t-64 -76.5t-35 -95zM490 700h22l-104 -130h-19zM341 700h22l-96 -130h-18z" />
    <glyph glyph-name="OE" unicode="&#x152;" horiz-adv-x="916" 
d="M130 95q-79 105 -52 257q13 76 50 141.5t91 113.5t123.5 75.5t147.5 27.5q54 0 95 -10h355l-3 -18h-335l-56 -320h310l-3 -18h-311l-57 -326h340l-3 -18h-360q-23 -5 -47.5 -7.5t-50.5 -2.5q-155 0 -234 105zM98 350q-25 -145 48 -244q73 -98 221 -98q52 0 98 11l-3 -19
l120 681q-42 11 -94 11q-75 0 -140.5 -26.5t-116.5 -72.5t-85.5 -108.5t-47.5 -134.5z" />
    <glyph glyph-name="oe" unicode="&#x153;" horiz-adv-x="1094" 
d="M94 66q-62 78 -43 187q10 55 38 102t69 81.5t92 54t107 19.5q43 0 80 -13.5t64.5 -38.5t45 -60t21.5 -78q18 43 45.5 78t63 60t78 38.5t90.5 13.5q108 0 162 -78q27 -39 37 -84t0 -99l-2 -11h-477q-13 -102 40 -167q26 -32 65 -47.5t90 -15.5q69 0 125 27.5t89 75.5
l15 -10q-36 -52 -97 -81.5t-133 -29.5q-94 0 -151 51.5t-63 138.5q-18 -42 -46.5 -77t-65 -60t-79.5 -39t-89 -14q-108 0 -171 76zM71 250q-18 -102 39 -172t158 -70q52 0 98.5 19t83.5 52t62.5 77t34.5 94q18 102 -37 172t-156 70q-52 0 -99 -19t-85 -51.5t-64 -76.5
t-35 -95zM842 492q-53 0 -98.5 -18t-81.5 -49.5t-60.5 -74.5t-33.5 -94h459q14 107 -37 171q-51 65 -148 65z" />
    <glyph glyph-name="Racute" unicode="&#x154;" horiz-adv-x="620" 
d="M56 0l123 700h270q81 0 129 -60q48 -61 35 -143q-7 -36 -24.5 -68t-43 -57.5t-57 -43t-67.5 -24.5l125 -304h-20l-124 301q-4 -1 -9.5 -1h-13.5h-250l-53 -300h-20zM132 318h250q38 0 73.5 14.5t64 39.5t48 58t26.5 70q13 74 -31 128t-117 54h-250zM362 770l100 120h22
l-103 -120h-19z" />
    <glyph glyph-name="racute" unicode="&#x155;" horiz-adv-x="325" 
d="M46 0l88 500h20l-22 -123q32 62 85.5 95.5t122.5 33.5l-3 -18q-77 0 -142 -56q-63 -56 -80 -154l-49 -278h-20zM224 570l100 120h22l-103 -120h-19z" />
    <glyph glyph-name="uni0156" unicode="&#x156;" horiz-adv-x="620" 
d="M56 0l123 700h270q81 0 129 -60q48 -61 35 -143q-7 -36 -24.5 -68t-43 -57.5t-57 -43t-67.5 -24.5l125 -304h-20l-124 301q-4 -1 -9.5 -1h-13.5h-250l-53 -300h-20zM132 318h250q38 0 73.5 14.5t64 39.5t48 58t26.5 70q13 74 -31 128t-117 54h-250zM286 -70h20l-44 -170
h-16z" />
    <glyph glyph-name="uni0157" unicode="&#x157;" horiz-adv-x="325" 
d="M134 500h20l-22 -123q32 62 85.5 95.5t122.5 33.5l-3 -18q-77 0 -142 -56q-63 -56 -80 -154l-49 -278h-20zM-6 -240l40 170h20l-44 -170h-16z" />
    <glyph glyph-name="Rcaron" unicode="&#x158;" horiz-adv-x="620" 
d="M56 0l123 700h270q81 0 129 -60q48 -61 35 -143q-7 -36 -24.5 -68t-43 -57.5t-57 -43t-67.5 -24.5l125 -304h-20l-124 301q-4 -1 -9.5 -1h-13.5h-250l-53 -300h-20zM132 318h250q38 0 73.5 14.5t64 39.5t48 58t26.5 70q13 74 -31 128t-117 54h-250zM283 890h21l82 -108
l119 108h24l-133 -120h-22z" />
    <glyph glyph-name="rcaron" unicode="&#x159;" horiz-adv-x="325" 
d="M46 0l88 500h20l-22 -123q32 62 85.5 95.5t122.5 33.5l-3 -18q-77 0 -142 -56q-63 -56 -80 -154l-49 -278h-20zM145 690h21l82 -108l119 108h24l-133 -120h-22z" />
    <glyph glyph-name="Sacute" unicode="&#x15a;" horiz-adv-x="551" 
d="M39 153q12 -67 66 -106t142 -39q97 0 153.5 42t69.5 109q17 78 -42 122q-30 22 -60.5 37t-65.5 28q-95 36 -128 62q-67 52 -52 139q7 39 28.5 69.5t51.5 51.5t66.5 31.5t74.5 10.5q81 0 131.5 -39t67.5 -102l-17 -8q-38 131 -182 131q-34 0 -67.5 -9.5t-61 -28t-47 -46
t-25.5 -63.5q-17 -92 81 -145q25 -14 90 -39q24 -9 43 -17.5t34.5 -16.5t29.5 -17.5t29 -21.5q57 -47 41 -131q-16 -81 -81.5 -124t-162.5 -43q-93 0 -152 41t-73 113zM461 890l-103 -120h-19l100 120h22z" />
    <glyph glyph-name="sacute" unicode="&#x15b;" horiz-adv-x="466" 
d="M46 103q32 -95 159 -95q64 0 110.5 28t55.5 79q8 42 -12.5 66t-54.5 39t-74.5 25.5t-74 26.5t-53.5 42t-11 71q10 60 59 92.5t121 32.5q54 0 96.5 -26.5t58.5 -69.5l-17 -8q-15 39 -53.5 62.5t-86.5 23.5q-61 0 -105 -28.5t-53 -82.5q-4 -22 2 -39.5t19.5 -30.5t33 -23
t42.5 -17q34 -9 69.5 -19.5t63 -28t42.5 -44t8 -68.5q-10 -57 -61.5 -89t-126.5 -32q-138 0 -175 105zM385 690l-103 -120h-19l100 120h22z" />
    <glyph glyph-name="Scedilla" unicode="&#x15e;" horiz-adv-x="551" 
d="M39 153q12 -67 66 -106t142 -39q97 0 153.5 42t69.5 109q17 78 -42 122q-30 22 -60.5 37t-65.5 28q-95 36 -128 62q-67 52 -52 139q7 39 28.5 69.5t51.5 51.5t66.5 31.5t74.5 10.5q81 0 131.5 -39t67.5 -102l-17 -8q-38 131 -182 131q-34 0 -67.5 -9.5t-61 -28t-47 -46
t-25.5 -63.5q-17 -92 81 -145q25 -14 90 -39q24 -9 43 -17.5t34.5 -16.5t29.5 -17.5t29 -21.5q57 -47 41 -131q-16 -81 -81 -124t-162 -43l-12 -69h8q31 0 53 -16t16 -47q-9 -64 -124 -64q-14 0 -29.5 1t-32.5 3l3 16q17 -2 32.5 -3t29.5 -1q95 0 103 50q5 21 -10.5 33.5
t-50.5 12.5h-9.5t-9.5 -1l15 85q-85 4 -140 44.5t-68 109.5z" />
    <glyph glyph-name="scedilla" unicode="&#x15f;" horiz-adv-x="466" 
d="M46 103q32 -95 159 -95q64 0 110.5 28t55.5 79q8 42 -12.5 66t-54.5 39t-74.5 25.5t-74 26.5t-53.5 42t-11 71q10 60 59 92.5t121 32.5q54 0 96.5 -26.5t58.5 -69.5l-17 -8q-15 39 -53.5 62.5t-86.5 23.5q-61 0 -105 -28.5t-53 -82.5q-4 -22 2 -39.5t19.5 -30.5t33 -23
t42.5 -17q34 -9 69.5 -19.5t63 -28t42.5 -44t8 -68.5q-10 -56 -60.5 -87.5t-122.5 -33.5l-12 -69h8q31 0 53 -16t16 -47q-9 -64 -124 -64q-14 0 -29.5 1t-32.5 3l3 16q17 -2 32.5 -3t29.5 -1q95 0 103 50q5 21 -10.5 33.5t-50.5 12.5h-9.5t-9.5 -1l15 85q-126 6 -162 105z
" />
    <glyph glyph-name="Scaron" unicode="&#x160;" horiz-adv-x="551" 
d="M39 153q12 -67 66 -106t142 -39q97 0 153.5 42t69.5 109q17 78 -42 122q-30 22 -60.5 37t-65.5 28q-95 36 -128 62q-67 52 -52 139q7 39 28.5 69.5t51.5 51.5t66.5 31.5t74.5 10.5q81 0 131.5 -39t67.5 -102l-17 -8q-38 131 -182 131q-34 0 -67.5 -9.5t-61 -28t-47 -46
t-25.5 -63.5q-17 -92 81 -145q25 -14 90 -39q24 -9 43 -17.5t34.5 -16.5t29.5 -17.5t29 -21.5q57 -47 41 -131q-16 -81 -81.5 -124t-162.5 -43q-93 0 -152 41t-73 113zM260 890h21l82 -108l119 108h24l-133 -120h-22z" />
    <glyph glyph-name="scaron" unicode="&#x161;" horiz-adv-x="466" 
d="M46 103q32 -95 159 -95q64 0 110.5 28t55.5 79q8 42 -12.5 66t-54.5 39t-74.5 25.5t-74 26.5t-53.5 42t-11 71q10 60 59 92.5t121 32.5q54 0 96.5 -26.5t58.5 -69.5l-17 -8q-15 39 -53.5 62.5t-86.5 23.5q-61 0 -105 -28.5t-53 -82.5q-4 -22 2 -39.5t19.5 -30.5t33 -23
t42.5 -17q34 -9 69.5 -19.5t63 -28t42.5 -44t8 -68.5q-10 -57 -61.5 -89t-126.5 -32q-138 0 -175 105zM184 690h21l82 -108l119 108h24l-133 -120h-22z" />
    <glyph glyph-name="uni0162" unicode="&#x162;" 
d="M109 700h480l-3 -18h-230l-120 -682h-20l120 682h-230zM206 -70h20l-44 -170h-16z" />
    <glyph glyph-name="uni0163" unicode="&#x163;" horiz-adv-x="379" 
d="M71 482l3 18h119l24 134l21 6l-25 -140h160l-3 -18h-160l-65 -371q-9 -53 10 -75.5t71 -22.5q14 0 29 1.5t33 3.5l-3 -18q-17 -3 -32.5 -4t-29.5 -1q-119 0 -98 116l65 371h-119zM132 -240l40 170h20l-44 -170h-16z" />
    <glyph glyph-name="Tcaron" unicode="&#x164;" 
d="M109 700h480l-3 -18h-230l-120 -682h-20l120 682h-230zM279 890l82 -108l119 108h24l-133 -120h-22l-91 120h21z" />
    <glyph glyph-name="tcaron" unicode="&#x165;" horiz-adv-x="379" 
d="M71 482l3 18h119l24 134l21 6l-25 -140h160l-3 -18h-160l-65 -371q-9 -53 10 -75.5t71 -22.5q14 0 29 1.5t33 3.5l-3 -18q-17 -3 -32.5 -4t-29.5 -1q-119 0 -98 116l65 371h-119zM292 562l36 150h20l-40 -150h-16z" />
    <glyph glyph-name="Tbar" unicode="&#x166;" 
d="M109 359h170l57 323h-230l3 18h480l-3 -18h-230l-57 -323h170l-3 -18h-170l-60 -341h-20l60 341h-170z" />
    <glyph glyph-name="tbar" unicode="&#x167;" horiz-adv-x="379" 
d="M74 500h119l24 134l21 6l-25 -140h160l-3 -18h-160l-36 -208h105l-3 -17h-105l-26 -146q-9 -53 9.5 -75.5t71.5 -22.5q13 0 28.5 1.5t33.5 3.5l-3 -18q-17 -3 -32.5 -4t-29.5 -1q-119 0 -98 116l26 146h-75l3 17h75l36 208h-119z" />
    <glyph glyph-name="Utilde" unicode="&#x168;" horiz-adv-x="680" 
d="M125 56q-57 66 -39 169l84 475h20l-84 -475q-17 -96 32 -156q49 -61 160 -61q51 0 96 14.5t80 42.5t58.5 68.5t32.5 91.5l84 475h20l-84 -475q-10 -55 -35 -98.5t-62.5 -74t-85.5 -46.5t-103 -16q-116 0 -174 66zM303 790q2 13 8 29t15 30t21.5 23t29.5 9q32 0 66 -43
q28 -36 56 -36q13 0 23 7t17 17.5t11.5 23.5t6.5 24h17q-3 -14 -8.5 -30t-14.5 -29.5t-22 -22t-30 -8.5q-33 0 -66 42q-30 37 -58 37q-20 0 -34.5 -19t-20.5 -54h-17z" />
    <glyph glyph-name="utilde" unicode="&#x169;" horiz-adv-x="575" 
d="M92 43q-44 53 -29 139l56 318h20l-56 -318q-6 -38 0.5 -70t24.5 -55t47.5 -36t68.5 -13q47 0 86.5 17t70 46t50.5 68t29 83l49 278h20l-88 -500h-20l23 128q-35 -67 -94 -102.5t-128 -35.5q-85 0 -130 53zM214 590q2 13 8 29t15 30t21.5 23t29.5 9q32 0 66 -43
q28 -36 56 -36q13 0 23 7t17 17.5t11.5 23.5t6.5 24h17q-3 -14 -8.5 -30t-14.5 -29.5t-22 -22t-30 -8.5q-33 0 -66 42q-30 37 -58 37q-20 0 -34.5 -19t-20.5 -54h-17z" />
    <glyph glyph-name="Umacron" unicode="&#x16a;" horiz-adv-x="680" 
d="M125 56q-57 66 -39 169l84 475h20l-84 -475q-17 -96 32 -156q49 -61 160 -61q51 0 96 14.5t80 42.5t58.5 68.5t32.5 91.5l84 475h20l-84 -475q-10 -55 -35 -98.5t-62.5 -74t-85.5 -46.5t-103 -16q-116 0 -174 66zM316 817h240l-3 -16h-240z" />
    <glyph glyph-name="umacron" unicode="&#x16b;" horiz-adv-x="575" 
d="M92 43q-44 53 -29 139l56 318h20l-56 -318q-6 -38 0.5 -70t24.5 -55t47.5 -36t68.5 -13q47 0 86.5 17t70 46t50.5 68t29 83l49 278h20l-88 -500h-20l23 128q-35 -67 -94 -102.5t-128 -35.5q-85 0 -130 53zM227 617h240l-3 -16h-240z" />
    <glyph glyph-name="Uring" unicode="&#x16e;" horiz-adv-x="680" 
d="M125 56q-57 66 -39 169l84 475h20l-84 -475q-17 -96 32 -156q49 -61 160 -61q51 0 96 14.5t80 42.5t58.5 68.5t32.5 91.5l84 475h20l-84 -475q-10 -55 -35 -98.5t-62.5 -74t-85.5 -46.5t-103 -16q-116 0 -174 66zM420 720q-42 0 -64.5 25.5t-15.5 64.5q7 40 37 65t72 25
t65.5 -24t15.5 -66q-7 -39 -37.5 -64.5t-72.5 -25.5zM358 810q-6 -33 11.5 -53.5t52.5 -20.5t59.5 20t30.5 54t-13 53q-10 10 -22.5 15.5t-29.5 5.5q-34 0 -58.5 -20t-30.5 -54z" />
    <glyph glyph-name="uring" unicode="&#x16f;" horiz-adv-x="575" 
d="M338 560q-42 0 -64.5 25.5t-15.5 64.5q7 40 37 65t72 25t65.5 -24t15.5 -66q-7 -39 -37.5 -64.5t-72.5 -25.5zM92 43q-44 53 -29 139l56 318h20l-56 -318q-6 -38 0.5 -70t24.5 -55t47.5 -36t68.5 -13q47 0 86.5 17t70 46t50.5 68t29 83l49 278h20l-88 -500h-20l23 128
q-35 -67 -94 -102.5t-128 -35.5q-85 0 -130 53zM276 650q-6 -33 11.5 -53.5t52.5 -20.5t59.5 20t30.5 54t-13 53q-10 10 -22.5 15.5t-29.5 5.5q-34 0 -58.5 -20t-30.5 -54z" />
    <glyph glyph-name="Uhungarumlaut" unicode="&#x170;" horiz-adv-x="680" 
d="M125 56q-57 66 -39 169l84 475h20l-84 -475q-17 -96 32 -156q49 -61 160 -61q51 0 96 14.5t80 42.5t58.5 68.5t32.5 91.5l84 475h20l-84 -475q-10 -55 -35 -98.5t-62.5 -74t-85.5 -46.5t-103 -16q-116 0 -174 66zM580 900l-104 -130h-19l101 130h22zM409 900h22l-96 -130
h-18z" />
    <glyph glyph-name="uhungarumlaut" unicode="&#x171;" horiz-adv-x="575" 
d="M92 43q-44 53 -29 139l56 318h20l-56 -318q-6 -38 0.5 -70t24.5 -55t47.5 -36t68.5 -13q47 0 86.5 17t70 46t50.5 68t29 83l49 278h20l-88 -500h-20l23 128q-35 -67 -94 -102.5t-128 -35.5q-85 0 -130 53zM469 700h22l-104 -130h-19zM228 570l92 130h22l-96 -130h-18z
" />
    <glyph glyph-name="Uogonek" unicode="&#x172;" horiz-adv-x="680" 
d="M125 56q-57 66 -39 169l84 475h20l-84 -475q-17 -96 32 -156q49 -61 160 -61q51 0 96 14.5t80 42.5t58.5 68.5t32.5 91.5l84 475h20l-84 -475q-21 -121 -118 -187q-51 -38 -84 -65.5t-50 -44.5q-34 -33 -40 -67q-9 -55 50 -55q21 0 41 9l-3 -17q-21 -8 -42 -8
q-36 0 -53 20.5t-11 50.5q14 65 125 145q-44 -16 -101 -16q-116 0 -174 66z" />
    <glyph glyph-name="uogonek" unicode="&#x173;" horiz-adv-x="575" 
d="M92 43q-44 53 -29 139l56 318h20l-56 -318q-6 -38 0.5 -70t24.5 -55t47.5 -36t68.5 -13q47 0 86.5 17t70 46t50.5 68t29 83l49 278h20l-88 -500q-110 -83 -122 -144q-4 -23 8 -36.5t35 -13.5q25 0 46 8l-3 -16q-21 -8 -46 -8q-32 0 -47.5 17.5t-10.5 48.5q10 62 121 149
l22 123q-35 -67 -94 -102.5t-128 -35.5q-85 0 -130 53z" />
    <glyph glyph-name="Wcircumflex" unicode="&#x174;" horiz-adv-x="980" 
d="M119 700h19l77 -676l341 676h24l104 -676l314 676h21l-326 -700h-24l-104 676l-342 -676h-24zM457 770l133 120h22l91 -120h-20l-82 108l-120 -108h-24z" />
    <glyph glyph-name="wcircumflex" unicode="&#x175;" horiz-adv-x="770" 
d="M84 500h19l72 -473l242 473h22l75 -474l238 474h22l-252 -500h-22l-76 473l-242 -473h-22zM271 570l133 120h22l91 -120h-20l-82 108l-120 -108h-24z" />
    <glyph glyph-name="Ycircumflex" unicode="&#x176;" horiz-adv-x="560" 
d="M120 700l176 -354l300 354h23l-315 -371l-58 -329h-20l58 330l-185 370h21zM247 770l133 120h22l91 -120h-20l-82 108l-120 -108h-24z" />
    <glyph glyph-name="ycircumflex" unicode="&#x177;" horiz-adv-x="510" 
d="M4 -182q33 0 62 12t54 32t45.5 45.5t36.5 52.5l9 15l-147 525h19l141 -501l288 501h22l-314 -546q-42 -72 -95.5 -113.5t-110.5 -41.5q-4 0 -7 0.5t-6 0.5zM174 570l133 120h22l91 -120h-20l-82 108l-120 -108h-24z" />
    <glyph glyph-name="Ydieresis" unicode="&#x178;" horiz-adv-x="560" 
d="M99 700h21l176 -354l300 354h23l-315 -371l-58 -329h-20l58 330zM453 780q-8 0 -13 6t-4 14q5 20 24 20q8 0 13 -6t3 -14q-6 -20 -23 -20zM293 780q-8 0 -13 6t-4 14q5 20 24 20q8 0 13 -6t3 -14q-6 -20 -23 -20z" />
    <glyph glyph-name="Zacute" unicode="&#x179;" horiz-adv-x="530" 
d="M459 890l-103 -120h-19l100 120h22zM559 700l-3 -18l-523 -664h416l-3 -18h-440l3 18l524 664h-397l3 18h420z" />
    <glyph glyph-name="zacute" unicode="&#x17a;" horiz-adv-x="490" 
d="M404 690l-103 -120h-19l100 120h22zM474 500l-2 -11l-424 -471h351l-3 -18h-380l2 11l424 471h-331l3 18h360z" />
    <glyph glyph-name="Zdotaccent" unicode="&#x17b;" horiz-adv-x="530" 
d="M6 0l3 18l524 664h-397l3 18h420l-3 -18l-523 -664h416l-3 -18h-440zM343 788q-7 9 -5 22t12 21q10 9 24 9q11 0 19 -9q7 -8 5 -21t-12 -22q-9 -9 -22 -9q-14 0 -21 9z" />
    <glyph glyph-name="zdotaccent" unicode="&#x17c;" horiz-adv-x="490" 
d="M16 0l2 11l424 471h-331l3 18h360l-2 -11l-424 -471h351l-3 -18h-380zM288 588q-7 9 -5 22t12 21q10 9 24 9q11 0 19 -9q7 -8 5 -21t-12 -22q-9 -9 -22 -9q-14 0 -21 9z" />
    <glyph glyph-name="Zcaron" unicode="&#x17d;" horiz-adv-x="530" 
d="M9 18l524 664h-397l3 18h420l-3 -18l-523 -664h416l-3 -18h-440zM279 890l82 -108l119 108h24l-133 -120h-22l-91 120h21z" />
    <glyph glyph-name="zcaron" unicode="&#x17e;" horiz-adv-x="490" 
d="M18 11l424 471h-331l3 18h360l-2 -11l-424 -471h351l-3 -18h-380zM224 690l82 -108l119 108h24l-133 -120h-22l-91 120h21z" />
    <glyph glyph-name="florin" unicode="&#x192;" horiz-adv-x="431" 
d="M-77 -186q21 -10 44 -10q38 0 70.5 27.5t49.5 78.5l150 431h-125l3 19h129l80 230q20 58 58 89t83 31q11 0 22.5 -1.5t23.5 -6.5l-4 -20q-20 10 -43 10t-42 -9t-34.5 -24t-26.5 -34t-18 -39l-79 -226h131l-3 -19h-134l-152 -435q-20 -57 -58 -88.5t-83 -31.5q-25 0 -45 8
z" />
    <glyph glyph-name="Ohorn" unicode="&#x1a0;" horiz-adv-x="840" 
d="M139 97q-87 106 -61 256q13 74 52 139t96 113.5t127.5 76.5t146.5 28q23 0 44 -2.5t41 -7.5q35 0 55.5 21t27.5 54h21q-7 -36 -25.5 -57t-44.5 -30q34 -13 62.5 -34.5t53.5 -50.5q45 -53 60 -117t2 -139q-13 -74 -52 -139t-96 -113.5t-128 -76.5t-146 -28
q-149 0 -236 107zM98 350q-25 -141 56 -242q81 -100 223 -100q72 0 138.5 27t120.5 73.5t91.5 109t49.5 132.5q25 142 -57 242t-222 100q-72 0 -139 -27t-120.5 -73.5t-90.5 -109t-50 -132.5z" />
    <glyph glyph-name="ohorn" unicode="&#x1a1;" horiz-adv-x="622" 
d="M95 67q-64 77 -44 187q10 55 38 102t68.5 81t91.5 53.5t107 19.5q20 0 37 -2.5t34 -7.5q35 0 56.5 20t27.5 55h21q-7 -38 -26.5 -58.5t-46.5 -29.5q37 -19 68 -54q32 -38 43 -85t1 -102t-38 -102t-68.5 -81t-91.5 -53.5t-107 -19.5q-108 0 -171 77zM71 250
q-18 -102 39 -172t158 -70q52 0 99 19t85 51.5t64 76.5t35 95q18 102 -40 172t-157 70q-52 0 -99 -19t-85 -51.5t-64 -76.5t-35 -95z" />
    <glyph glyph-name="Uhorn" unicode="&#x1af;" horiz-adv-x="680" 
d="M125 56q-57 66 -39 169l84 475h20l-84 -475q-17 -96 32 -156q49 -61 160 -61q51 0 96 14.5t80 42.5t58.5 68.5t32.5 91.5l84 475h3q36 0 57.5 20t27.5 55h21q-8 -45 -33 -66t-59 -26v-1l-81 -457q-10 -55 -35 -98.5t-62.5 -74t-85.5 -46.5t-103 -16q-116 0 -174 66z" />
    <glyph glyph-name="uhorn" unicode="&#x1b0;" horiz-adv-x="575" 
d="M92 43q-44 53 -29 139l56 318h20l-56 -318q-6 -38 0.5 -70t24.5 -55t47.5 -36t68.5 -13q47 0 86.5 17t70 46t50.5 68t29 83l49 278h1q36 0 57.5 20t27.5 55h21q-8 -44 -32.5 -65t-57.5 -27v-1l-85 -482h-20l23 128q-35 -67 -94 -102.5t-128 -35.5q-85 0 -130 53z" />
    <glyph glyph-name="uni0218" unicode="&#x218;" horiz-adv-x="551" 
d="M39 153q12 -67 66 -106t142 -39q97 0 153.5 42t69.5 109q17 78 -42 122q-30 22 -60.5 37t-65.5 28q-95 36 -128 62q-67 52 -52 139q7 39 28.5 69.5t51.5 51.5t66.5 31.5t74.5 10.5q81 0 131.5 -39t67.5 -102l-17 -8q-38 131 -182 131q-34 0 -67.5 -9.5t-61 -28t-47 -46
t-25.5 -63.5q-17 -92 81 -145q25 -14 90 -39q24 -9 43 -17.5t34.5 -16.5t29.5 -17.5t29 -21.5q57 -47 41 -131q-16 -81 -81.5 -124t-162.5 -43q-93 0 -152 41t-73 113zM216 -70h20l-44 -170h-16z" />
    <glyph glyph-name="uni0219" unicode="&#x219;" horiz-adv-x="466" 
d="M46 103q32 -95 159 -95q64 0 110.5 28t55.5 79q8 42 -12.5 66t-54.5 39t-74.5 25.5t-74 26.5t-53.5 42t-11 71q10 60 59 92.5t121 32.5q54 0 96.5 -26.5t58.5 -69.5l-17 -8q-15 39 -53.5 62.5t-86.5 23.5q-61 0 -105 -28.5t-53 -82.5q-4 -22 2 -39.5t19.5 -30.5t33 -23
t42.5 -17q34 -9 69.5 -19.5t63 -28t42.5 -44t8 -68.5q-10 -57 -61.5 -89t-126.5 -32q-138 0 -175 105zM177 -70h20l-44 -170h-16z" />
    <glyph glyph-name="uni021A" unicode="&#x21a;" 
d="M109 700h480l-3 -18h-230l-120 -682h-20l120 682h-230zM206 -70h20l-44 -170h-16z" />
    <glyph glyph-name="uni021B" unicode="&#x21b;" horiz-adv-x="379" 
d="M71 482l3 18h119l24 134l21 6l-25 -140h160l-3 -18h-160l-65 -371q-9 -53 10 -75.5t71 -22.5q14 0 29 1.5t33 3.5l-3 -18q-17 -3 -32.5 -4t-29.5 -1q-119 0 -98 116l65 371h-119zM132 -240l40 170h20l-44 -170h-16z" />
    <glyph glyph-name="circumflex" unicode="&#x2c6;" horiz-adv-x="286" 
d="M76 570l133 120h22l91 -120h-20l-82 108l-120 -108h-24z" />
    <glyph glyph-name="caron" unicode="&#x2c7;" horiz-adv-x="286" 
d="M98 690h21l82 -108l119 108h24l-133 -120h-22z" />
    <glyph glyph-name="breve" unicode="&#x2d8;" horiz-adv-x="280" 
d="M200 572q-54 0 -83.5 28.5t-21.5 76.5h18q-7 -40 17 -64.5t70 -24.5t78 24.5t39 64.5h18q-8 -48 -44.5 -76.5t-90.5 -28.5z" />
    <glyph glyph-name="dotaccent" unicode="&#x2d9;" horiz-adv-x="60" 
d="M131 588q-10 -8 -23 -8q-6 0 -11.5 1.5t-8.5 6.5q-7 9 -5 22t12 21q10 9 23 9q12 0 20 -9q7 -8 5 -21t-12 -22z" />
    <glyph glyph-name="ring" unicode="&#x2da;" horiz-adv-x="230" 
d="M171 560q-42 0 -64.5 25.5t-15.5 64.5q7 40 37 65t72 25t65.5 -24t15.5 -66q-7 -39 -37.5 -64.5t-72.5 -25.5zM109 650q-6 -33 11.5 -53.5t52.5 -20.5t59.5 20t30.5 54t-13 53q-10 10 -22.5 15.5t-29.5 5.5q-34 0 -58.5 -20t-30.5 -54z" />
    <glyph glyph-name="ogonek" unicode="&#x2db;" horiz-adv-x="157" 
d="M11 -210q-33 0 -49.5 19.5t-10.5 50.5q10 67 115 140h25q-112 -78 -122 -142q-5 -26 10.5 -39t39.5 -13q20 0 41 9l-3 -17q-21 -8 -46 -8z" />
    <glyph glyph-name="tilde" unicode="&#x2dc;" horiz-adv-x="296" 
d="M80 590q3 14 8 30t14 29.5t22 22.5t30 9q32 0 66 -43q28 -36 56 -36q13 0 23 7t17 17.5t11.5 23.5t6.5 24h17q-3 -14 -8.5 -30t-14.5 -29.5t-22 -22t-30 -8.5q-33 0 -66 42q-30 37 -58 37q-20 0 -34.5 -19t-20.5 -54h-17z" />
    <glyph glyph-name="hungarumlaut" unicode="&#x2dd;" horiz-adv-x="280" 
d="M317 700h22l-104 -130h-19zM76 570l92 130h22l-96 -130h-18z" />
    <glyph glyph-name="gravecomb" unicode="&#x300;" horiz-adv-x="0" 
d="M21 570l-64 120h20l60 -120h-16z" />
    <glyph glyph-name="acutecomb" unicode="&#x301;" horiz-adv-x="0" 
d="M36 690h22l-103 -120h-19z" />
    <glyph glyph-name="uni0302" unicode="&#x302;" horiz-adv-x="0" 
d="M-209 570l133 120h22l91 -120h-20l-82 108l-120 -108h-24z" />
    <glyph glyph-name="tildecomb" unicode="&#x303;" horiz-adv-x="0" 
d="M-216 590q2 13 8 29t15 30t21.5 23t29.5 9q32 0 66 -43q28 -36 56 -36q13 0 23 7t17 17.5t11.5 23.5t6.5 24h17q-3 -14 -8.5 -30t-14.5 -29.5t-22 -22t-30 -8.5q-33 0 -66 42q-30 37 -58 37q-20 0 -34.5 -19t-20.5 -54h-17z" />
    <glyph glyph-name="uni0304" unicode="&#x304;" horiz-adv-x="0" 
d="M-198 601l3 16h240l-3 -16h-240z" />
    <glyph glyph-name="uni0306" unicode="&#x306;" horiz-adv-x="0" 
d="M-100 572q-54 0 -83.5 28.5t-21.5 76.5h18q-7 -40 17 -64.5t70 -24.5t78 24.5t39 64.5h18q-8 -48 -44.5 -76.5t-90.5 -28.5z" />
    <glyph glyph-name="uni0307" unicode="&#x307;" horiz-adv-x="0" 
d="M31 588q-10 -8 -23 -8q-14 0 -20 8q-7 9 -5 22t12 21q10 9 23 9q12 0 20 -9q7 -8 5 -21t-12 -22z" />
    <glyph glyph-name="uni0308" unicode="&#x308;" horiz-adv-x="0" 
d="M19 580q-8 0 -13 6t-4 14q5 20 24 20q8 0 13 -6t3 -14q-6 -20 -23 -20zM-141 580q-8 0 -13 6t-4 14q5 20 24 20q8 0 13 -6t3 -14q-6 -20 -23 -20z" />
    <glyph glyph-name="uni030A" unicode="&#x30a;" horiz-adv-x="0" 
d="M-59 560q-42 0 -64.5 25.5t-15.5 64.5q7 40 37 65t72 25t65.5 -24t15.5 -66q-7 -39 -37.5 -64.5t-72.5 -25.5zM-121 650q-6 -33 11.5 -53.5t52.5 -20.5t59.5 20t30.5 54t-13 53q-10 10 -22.5 15.5t-29.5 5.5q-34 0 -58.5 -20t-30.5 -54z" />
    <glyph glyph-name="uni030B" unicode="&#x30b;" horiz-adv-x="0" 
d="M47 700h22l-104 -130h-19zM-194 570l92 130h22l-96 -130h-18z" />
    <glyph glyph-name="uni030C" unicode="&#x30c;" horiz-adv-x="0" 
d="M-188 690h21l82 -108l119 108h24l-133 -120h-22z" />
    <glyph glyph-name="uni0312" unicode="&#x312;" horiz-adv-x="0" 
d="M105 960l-40 -170h-20l44 170h16z" />
    <glyph glyph-name="uni0326" unicode="&#x326;" horiz-adv-x="0" 
d="M-136 -240l40 170h20l-44 -170h-16z" />
    <glyph glyph-name="uni0327" unicode="&#x327;" horiz-adv-x="0" 
d="M-89 -142q-9 -64 -124 -64q-14 0 -29.5 1t-32.5 3l3 16q17 -2 32.5 -3t29.5 -1q95 0 103 50q5 21 -10.5 33.5t-50.5 12.5h-9.5t-9.5 -1l17 95h18l-14 -79h8q31 0 53 -16t16 -47z" />
    <glyph glyph-name="uni0328" unicode="&#x328;" horiz-adv-x="0" 
d="M-146 -210q-33 0 -49.5 19.5t-10.5 50.5q10 67 115 140h25q-112 -78 -122 -142q-4 -23 8.5 -37.5t36.5 -14.5q23 0 46 9l-3 -17q-21 -8 -46 -8z" />
    <glyph glyph-name="uni0394" unicode="&#x394;" horiz-adv-x="618" 
d="M400 700l154 -700h-578l400 700h24zM8 18h522l-144 661z" />
    <glyph glyph-name="uni03A9" unicode="&#x3a9;" horiz-adv-x="841" 
d="M29 18h217q-93 37 -141 131q-47 91 -27 205q13 76 52 141t96 113t127.5 75t147.5 27q146 0 235 -108q88 -106 62 -256q-10 -56 -35.5 -107.5t-63 -94.5t-85 -75.5t-100.5 -50.5h215l-3 -18h-268l3 18q60 15 112.5 46t94.5 74.5t70.5 97.5t39.5 114q27 140 -57 242
q-82 100 -223 100q-72 0 -139 -27t-121 -73.5t-91 -109t-49 -132.5q-21 -118 35 -212q28 -47 69 -76.5t95 -43.5l-3 -18h-268z" />
    <glyph glyph-name="pi" unicode="&#x3c0;" horiz-adv-x="650" 
d="M84 500h570l-3 -18h-83l-85 -482h-20l85 482h-360l-85 -482h-20l85 482h-87z" />
    <glyph glyph-name="uni0401" unicode="&#x401;" 
d="M179 700h385l-3 -18h-365l-56 -320h340l-3 -18h-341l-57 -326h370l-3 -18h-390zM460 780q-8 0 -13 6t-4 14q5 20 24 20q8 0 13 -6t3 -14q-6 -20 -23 -20zM300 780q-8 0 -13 6t-4 14q5 20 24 20q8 0 13 -6t3 -14q-6 -20 -23 -20z" />
    <glyph glyph-name="uni0402" unicode="&#x402;" horiz-adv-x="700" 
d="M106 682l3 18h480l-3 -18h-250l-47 -265q111 53 194 53q85 0 127 -45.5t28 -127.5l-32 -182q-10 -57 -43.5 -89.5t-90.5 -32.5q-7 0 -13 0.5t-13 1.5l3 18q6 -1 12 -1h11q96 0 114 103l32 182q14 75 -22.5 115t-111.5 40q-84 0 -199 -58l-69 -394h-20l120 682h-210z" />
    <glyph glyph-name="uni0403" unicode="&#x403;" horiz-adv-x="500" 
d="M465 889l-103 -120h-19l100 120h22zM549 700l-3 -18h-350l-120 -682h-20l123 700h370z" />
    <glyph glyph-name="uni0404" unicode="&#x404;" horiz-adv-x="763" 
d="M137 94q-85 104 -59 258q13 75 50 140.5t92.5 114t125 76t146.5 27.5q96 0 167.5 -44t107.5 -117l-17 -9q-34 70 -101.5 111t-157.5 41q-74 0 -138.5 -25.5t-116 -70.5t-87 -106t-49.5 -131h417l-3 -18h-417q-21 -138 56 -236q76 -97 220 -97q94 0 176 43t137 118l16 -10
q-29 -39 -65.5 -70.5t-78.5 -53.5t-88.5 -33.5t-95.5 -11.5q-151 0 -237 104z" />
    <glyph glyph-name="uni0405" unicode="&#x405;" horiz-adv-x="551" 
d="M39 153q12 -67 66 -106t142 -39q97 0 153.5 42t69.5 109q17 78 -42 122q-30 22 -60.5 37t-65.5 28q-95 36 -128 62q-67 52 -52 139q7 39 28.5 69.5t51.5 51.5t66.5 31.5t74.5 10.5q81 0 131.5 -39t67.5 -102l-17 -8q-38 131 -182 131q-34 0 -67.5 -9.5t-61 -28t-47 -46
t-25.5 -63.5q-17 -92 81 -145q25 -14 90 -39q24 -9 43 -17.5t34.5 -16.5t29.5 -17.5t29 -21.5q57 -47 41 -131q-16 -81 -81.5 -124t-162.5 -43q-93 0 -152 41t-73 113z" />
    <glyph glyph-name="uni0406" unicode="&#x406;" horiz-adv-x="220" 
d="M179 700h20l-123 -700h-20z" />
    <glyph glyph-name="uni0407" unicode="&#x407;" horiz-adv-x="220" 
d="M179 700h20l-123 -700h-20zM283 780q-8 0 -13 6t-4 14q5 20 24 20q8 0 13 -6t3 -14q-6 -20 -23 -20zM123 780q-8 0 -13 6t-4 14q5 20 24 20q8 0 13 -6t3 -14q-6 -20 -23 -20z" />
    <glyph glyph-name="uni0408" unicode="&#x408;" horiz-adv-x="554" 
d="M211 -10q-75 0 -124 29.5t-63 83.5l17 9q12 -48 54.5 -76t115.5 -28q40 0 77 11.5t66.5 33.5t50 54t27.5 73l91 520h20l-91 -520q-9 -45 -31 -80t-54 -59.5t-72 -37.5t-84 -13z" />
    <glyph glyph-name="uni0409" unicode="&#x409;" horiz-adv-x="997" 
d="M-16 16q4 0 7 -0.5t7 -0.5q67 0 116.5 60t74.5 195l75 430h380l-56 -320h180q82 0 132 -57t35 -139q-8 -43 -29.5 -77t-53 -58t-70.5 -36.5t-81 -12.5h-200l120 682h-340l-72 -412q-23 -134 -75 -203.5t-137 -69.5q-5 0 -8.5 0.5t-7.5 0.5zM524 18h180q38 0 73 12.5
t63.5 35t48 53.5t26.5 69q13 73 -31 124q-44 50 -119 50h-180z" />
    <glyph glyph-name="uni040A" unicode="&#x40a;" horiz-adv-x="992" 
d="M179 700h20l-56 -320h420l56 320h20l-56 -320h180q82 0 132 -57t35 -139q-8 -43 -29.5 -77t-53 -58t-70.5 -36.5t-81 -12.5h-200l64 362h-420l-64 -362h-20zM699 18q38 0 73 12.5t63.5 35t48 53.5t26.5 69q13 73 -31 124q-44 50 -119 50h-180l-61 -344h180z" />
    <glyph glyph-name="uni040B" unicode="&#x40b;" horiz-adv-x="710" 
d="M106 682l3 18h480l-3 -18h-250l-47 -265q111 53 194 53q85 0 127 -45.5t28 -127.5l-52 -297h-20l52 297q13 75 -23 115t-111 40q-84 0 -199 -58l-69 -394h-20l120 682h-210z" />
    <glyph glyph-name="uni040C" unicode="&#x40c;" horiz-adv-x="556" 
d="M179 700h20l-59 -335l445 335h30l-454 -343l341 -357h-25l-339 354l-62 -354h-20zM453 889h22l-103 -120h-19z" />
    <glyph glyph-name="uni040E" unicode="&#x40e;" horiz-adv-x="559" 
d="M72 18q3 0 6 -0.5t6 -0.5q98 0 186 143l13 21l-164 519h18l159 -498l300 498h22l-328 -545q-95 -156 -206 -156q-4 0 -7.5 0.5t-7.5 0.5zM263 800l3 16h240l-3 -16h-240z" />
    <glyph glyph-name="uni040F" unicode="&#x40f;" horiz-adv-x="700" 
d="M179 700h20l-120 -682h460l120 682h20l-123 -700h-240l-24 -134h-20l24 134h-240z" />
    <glyph glyph-name="uni0410" unicode="&#x410;" horiz-adv-x="628" 
d="M381 700h25l153 -700h-20l-42 191h-385l-109 -191h-22zM493 209l-102 470l-269 -470h371z" />
    <glyph glyph-name="uni0411" unicode="&#x411;" horiz-adv-x="585" 
d="M56 0l123 700h390l-3 -18h-370l-50 -282h221q80 0 129 -61q50 -60 35 -142q-8 -42 -29.5 -78t-53 -62.5t-70.5 -41.5t-82 -15h-240zM299 18q39 0 74 14.5t63.5 39t48 57.5t26.5 71q14 75 -30 128q-44 54 -118 54h-220l-64 -364h220z" />
    <glyph glyph-name="uni0412" unicode="&#x412;" horiz-adv-x="630" 
d="M179 700h261q75 0 123 -52q47 -52 35 -125q-9 -57 -49 -101t-95 -62q61 -14 92 -63q32 -51 22 -115q-12 -76 -73 -129t-147 -53h-292zM79 18h272q36 0 69.5 12.5t59.5 34t44 52t24 66.5q12 68 -28 116q-41 49 -106 49h-277zM140 366h254q33 0 64 12.5t56 34t42 50
t22 61.5q11 65 -29 111q-41 47 -109 47h-244z" />
    <glyph glyph-name="uni0413" unicode="&#x413;" horiz-adv-x="500" 
d="M549 700l-3 -18h-350l-120 -682h-20l123 700h370z" />
    <glyph glyph-name="uni0414" unicode="&#x414;" horiz-adv-x="690" 
d="M-43 -134l27 152h53q92 81 122 254l75 428h420l-120 -682h70l-27 -152h-20l24 134h-580l-24 -134h-20zM514 18l117 664h-380l-72 -410q-30 -172 -115 -254h450z" />
    <glyph glyph-name="uni0415" unicode="&#x415;" 
d="M561 682h-365l-56 -320h340l-3 -18h-341l-57 -326h370l-3 -18h-390l123 700h385z" />
    <glyph glyph-name="uni0416" unicode="&#x416;" horiz-adv-x="807" 
d="M394 362l-281 338h23l280 -335l59 335h20l-59 -335l398 335h28l-406 -343l287 -357h-22l-287 355l-62 -355h-20l62 355l-410 -355h-28z" />
    <glyph glyph-name="uni0417" unicode="&#x417;" horiz-adv-x="539" 
d="M241 -10q-183 0 -221 146l19 9q32 -137 205 -137q41 0 78 11.5t67 34t50 54.5t28 74q6 36 -1 66.5t-27 52.5t-51 34.5t-73 12.5h-77l3 18h59q37 0 71 11.5t61 32.5t46 51t25 67q6 36 -2 66t-28 52t-52 34t-74 12q-145 0 -220 -128l-16 10q79 136 239 136q88 0 138 -53
q49 -51 35 -131q-11 -60 -52 -105t-104 -62q33 -7 58.5 -23.5t41 -40t21 -53t-0.5 -62.5q-8 -46 -31 -81.5t-56 -59.5t-73.5 -36.5t-85.5 -12.5z" />
    <glyph glyph-name="uni0418" unicode="&#x418;" horiz-adv-x="700" 
d="M179 700h20l-116 -663l576 663h20l-123 -700h-20l117 664l-577 -664h-20z" />
    <glyph glyph-name="uni0419" unicode="&#x419;" horiz-adv-x="700" 
d="M179 700h20l-116 -663l576 663h20l-123 -700h-20l117 664l-577 -664h-20zM320 817h240l-3 -16h-240z" />
    <glyph glyph-name="uni041A" unicode="&#x41a;" horiz-adv-x="556" 
d="M179 700h20l-59 -335l445 335h30l-454 -343l341 -357h-25l-339 354l-62 -354h-20z" />
    <glyph glyph-name="uni041B" unicode="&#x41b;" horiz-adv-x="705" 
d="M-16 16q4 0 7 -0.5t7 -0.5q67 0 116.5 60t74.5 195l75 430h420l-123 -700h-20l120 682h-380l-72 -412q-23 -134 -73.5 -203.5t-135.5 -69.5h-9.5t-9.5 1z" />
    <glyph glyph-name="uni041C" unicode="&#x41c;" horiz-adv-x="820" 
d="M56 0l123 700h25l203 -462l365 462h27l-123 -700h-20l118 670l-367 -461h-8l-204 466l-119 -675h-20z" />
    <glyph glyph-name="uni041D" unicode="&#x41d;" horiz-adv-x="700" 
d="M179 700h20l-58 -331h460l58 331h20l-123 -700h-20l62 351h-460l-62 -351h-20z" />
    <glyph glyph-name="uni041E" unicode="&#x41e;" horiz-adv-x="840" 
d="M139 97q-87 106 -61 256q13 74 52 139t96 113.5t127.5 76.5t146.5 28q148 0 235 -107q88 -107 62 -256q-13 -74 -52 -139t-96 -113.5t-128 -76.5t-146 -28q-149 0 -236 107zM98 350q-25 -141 56 -242q81 -100 223 -100q72 0 138.5 27t120.5 73.5t91.5 109t49.5 132.5
q25 142 -57 242t-222 100q-72 0 -139 -27t-120.5 -73.5t-90.5 -109t-50 -132.5z" />
    <glyph glyph-name="uni041F" unicode="&#x41f;" horiz-adv-x="700" 
d="M179 700h500l-123 -700h-20l120 682h-460l-120 -682h-20z" />
    <glyph glyph-name="uni0420" unicode="&#x420;" horiz-adv-x="580" 
d="M56 0l123 700h211q95 0 146 -61q51 -60 36 -149q-8 -47 -31 -85.5t-56.5 -66t-76 -43t-88.5 -15.5h-195l-49 -280h-20zM128 298h193q43 0 81.5 14t69.5 39.5t52 60.5t28 78q14 83 -31 137q-45 55 -130 55h-195z" />
    <glyph glyph-name="uni0421" unicode="&#x421;" horiz-adv-x="763" 
d="M137 94q-85 104 -59 258q13 75 50 140.5t92.5 114t125 76t146.5 27.5q96 0 167.5 -44t107.5 -117l-17 -9q-34 70 -101.5 111t-157.5 41q-74 0 -140 -26.5t-118 -72.5t-87 -108.5t-48 -134.5q-25 -141 52 -242q76 -100 223 -100q94 0 176 43t137 118l16 -10
q-29 -39 -65.5 -70.5t-78.5 -53.5t-88.5 -33.5t-95.5 -11.5q-151 0 -237 104z" />
    <glyph glyph-name="uni0422" unicode="&#x422;" 
d="M109 700h480l-3 -18h-230l-120 -682h-20l120 682h-230z" />
    <glyph glyph-name="uni0423" unicode="&#x423;" horiz-adv-x="559" 
d="M72 18q3 0 6 -0.5t6 -0.5q98 0 186 143l13 21l-164 519h18l159 -498l300 498h22l-328 -545q-95 -156 -206 -156q-4 0 -7.5 0.5t-7.5 0.5z" />
    <glyph glyph-name="uni0424" unicode="&#x424;" horiz-adv-x="805" 
d="M362 78q-75 1 -136 19.5t-102.5 53.5t-59.5 86t-6 117q13 73 52 123.5t93.5 82.5t120.5 46.5t133 15.5l14 78h20l-14 -78q75 -2 136 -20t102.5 -53t60 -86t6.5 -117t-47.5 -116t-89 -83.5t-121 -51t-142.5 -17.5l-14 -78h-20zM385 96q63 1 125 15t114 44t89 78t49 117
q21 116 -57 184q-78 69 -231 70zM78 350q-21 -116 56 -184q79 -69 231 -70l89 508q-62 -1 -124 -15t-114 -44.5t-89 -78.5t-49 -116z" />
    <glyph glyph-name="uni0425" unicode="&#x425;" horiz-adv-x="560" 
d="M-14 0l301 358l-169 342h21l162 -326l274 326h25l-290 -345l176 -355h-21l-168 340l-286 -340h-25z" />
    <glyph glyph-name="uni0426" unicode="&#x426;" horiz-adv-x="690" 
d="M56 0l123 700h20l-120 -682h440l120 682h20l-120 -682h70l-27 -152h-20l24 134h-530z" />
    <glyph glyph-name="uni0427" unicode="&#x427;" horiz-adv-x="630" 
d="M315 270q-114 0 -163.5 53t-34.5 137l42 240h20l-42 -240q-14 -78 30.5 -125t147.5 -47q99 0 210 49v-1l64 364h20l-123 -700h-20l55 315q-107 -45 -206 -45z" />
    <glyph glyph-name="uni0428" unicode="&#x428;" horiz-adv-x="970" 
d="M56 0l123 700h20l-120 -682h355l120 682h20l-120 -682h355l120 682h20l-123 -700h-770z" />
    <glyph glyph-name="uni0429" unicode="&#x429;" horiz-adv-x="980" 
d="M56 0l123 700h20l-120 -682h355l120 682h20l-120 -682h355l120 682h20l-120 -682h70l-27 -152h-20l24 134h-820z" />
    <glyph glyph-name="uni042A" unicode="&#x42a;" horiz-adv-x="680" 
d="M76 682l3 18h220l-49 -280h195q93 0 144 -61t34 -151q-8 -47 -31 -85t-56 -65.5t-75.5 -42.5t-89.5 -15h-215l120 682h-200zM179 18h194q42 0 80.5 14t69.5 39.5t52 61t28 77.5q14 85 -31 138q-45 54 -131 54h-194z" />
    <glyph glyph-name="uni042B" unicode="&#x42b;" horiz-adv-x="740" 
d="M179 700h20l-49 -280h195q93 0 144 -61t34 -151q-8 -47 -31 -85t-56 -65.5t-75.5 -42.5t-89.5 -15h-215zM79 18h194q42 0 80.5 14t69.5 39.5t52 61t28 77.5q13 85 -31 140q-26 32 -59 42t-72 10h-194zM699 700h20l-123 -700h-20z" />
    <glyph glyph-name="uni042C" unicode="&#x42c;" horiz-adv-x="580" 
d="M179 700h20l-49 -280h195q93 0 144 -61t34 -151q-8 -47 -31 -85t-56 -65.5t-75.5 -42.5t-89.5 -15h-215zM273 18q42 0 81 14t69.5 39.5t51.5 61t28 77.5q13 85 -31 140q-26 32 -59 42t-72 10h-194l-68 -384h194z" />
    <glyph glyph-name="uni042D" unicode="&#x42d;" horiz-adv-x="763" 
d="M297 -10q-45 0 -86.5 11.5t-76 32.5t-61 51t-41.5 67l17 9q15 -35 39.5 -63t57 -48t71.5 -31t83 -11q73 0 139 25.5t119 70t89.5 105.5t50.5 132h-417l3 18h418q21 142 -58 237q-80 96 -223 96q-45 0 -89 -11.5t-84.5 -32.5t-75 -50.5t-60.5 -65.5l-16 10q57 78 143 123
t185 45q152 0 237 -106q85 -104 59 -256q-13 -77 -51.5 -142.5t-95 -113.5t-127.5 -75t-149 -27z" />
    <glyph glyph-name="uni042E" unicode="&#x42e;" horiz-adv-x="1060" 
d="M179 700h20l-58 -331h160q16 71 55.5 133.5t96 108.5t125 72.5t142.5 26.5q148 0 235 -107q88 -107 62 -256q-13 -74 -52 -139t-96 -113.5t-128 -76.5t-146 -28q-148 0 -236 106q-87 105 -61 255h-160l-62 -351h-20zM318 350q-25 -141 56 -242q81 -100 223 -100
q72 0 138.5 27t120.5 73.5t91.5 109t49.5 132.5q25 142 -57 242t-222 100q-72 0 -139 -27t-120.5 -73.5t-90.5 -109t-50 -132.5z" />
    <glyph glyph-name="uni042F" unicode="&#x42f;" horiz-adv-x="640" 
d="M263 301q-74 8 -119 67q-44 59 -30 138q8 42 29.5 78t53 61.5t70.5 40t82 14.5h270l-123 -700h-20l53 300h-242l-256 -300h-25zM134 503q-13 -74 31 -130q43 -55 117 -55h250l64 364h-250q-39 0 -74 -14t-63.5 -38t-48 -56.5t-26.5 -70.5z" />
    <glyph glyph-name="uni0430" unicode="&#x430;" horiz-adv-x="662" 
d="M100 71q-68 82 -48 192q10 55 36 100.5t65 78t88.5 50.5t105.5 18q41 0 77.5 -13.5t65.5 -37.5t48.5 -57.5t27.5 -73.5l30 172h20l-88 -500h-20l25 141q-39 -70 -106.5 -110.5t-151.5 -40.5q-108 0 -175 81zM72 260q-18 -103 43 -177q61 -75 163 -75q51 0 96.5 17.5
t81.5 48.5t60.5 73.5t33.5 92.5q18 101 -44 177q-62 75 -162 75q-52 0 -97.5 -17.5t-81.5 -48t-60 -73t-33 -93.5z" />
    <glyph glyph-name="uni0431" unicode="&#x431;" horiz-adv-x="580" 
d="M87 59q-59 71 -38 186q14 76 35.5 128.5t56.5 90.5t86 66t125 55q20 8 36.5 14.5t28.5 11.5q39 17 73 39.5t45 57.5l16 -9q-12 -31 -41 -55t-57 -36q-14 -6 -34 -14t-48 -19q-54 -21 -100 -42t-83 -50.5t-64 -71.5t-43 -106q49 73 119 111t142 38q97 0 153 -68
q57 -69 39 -168q-9 -53 -34.5 -95t-62.5 -72t-84 -46t-99 -16q-107 0 -167 70zM69 245q-20 -107 33 -173q53 -65 155 -65q48 0 91 15.5t77 43.5t57 67.5t32 87.5q16 92 -34 154q-49 61 -142 61q-45 0 -86 -15t-76 -40.5t-62.5 -60.5t-44.5 -75z" />
    <glyph glyph-name="uni0432" unicode="&#x432;" horiz-adv-x="520" 
d="M46 0l88 500h224q66 0 97 -36.5t22 -90.5q-17 -89 -99 -114q48 -12 68.5 -46.5t12.5 -80.5q-11 -60 -53.5 -96t-118.5 -36h-241zM290 18q61 0 100 30.5t49 84.5t-19 84.5t-90 30.5h-220l-41 -230h221zM316 266q57 0 94.5 28.5t46.5 79.5t-18 79.5t-84 28.5h-204l-38 -216
h203z" />
    <glyph glyph-name="uni0433" unicode="&#x433;" horiz-adv-x="400" 
d="M434 500l-3 -18h-280l-85 -482h-20l88 500h300z" />
    <glyph glyph-name="uni0434" unicode="&#x434;" horiz-adv-x="591" 
d="M-38 -134l28 152h53q75 86 99 225l45 257h337l-85 -482h71l-28 -152h-20l25 134h-480l-25 -134h-20zM419 18l82 464h-297l-42 -239q-26 -141 -93 -225h350z" />
    <glyph glyph-name="uni0435" unicode="&#x435;" horiz-adv-x="597" 
d="M89 64q-59 74 -39 188q10 56 36 103t64.5 81.5t88.5 54t108 19.5q110 0 164 -77q55 -78 36 -184l-2 -11h-477q-13 -102 40 -167q26 -32 65 -47.5t90 -15.5q69 0 125 27.5t89 75.5l15 -10q-36 -52 -96.5 -81.5t-135.5 -29.5q-112 0 -171 74zM530 256q14 107 -37 171
q-51 65 -148 65q-53 0 -98.5 -18t-81.5 -49.5t-60.5 -74.5t-33.5 -94h459z" />
    <glyph glyph-name="uni0436" unicode="&#x436;" horiz-adv-x="640" 
d="M295 262l-207 238h23l204 -233l41 233h20l-41 -234l285 234h28l-296 -242l214 -258h-23l-210 253l-45 -253h-20l44 253l-298 -253h-28z" />
    <glyph glyph-name="uni0437" unicode="&#x437;" horiz-adv-x="445" 
d="M182 -10q-150 0 -168 115l17 9q13 -106 154 -106q72 0 120 33t58 87t-22 87t-96 33h-60l3 18h43q60 0 101.5 31t49.5 82t-25.5 82t-94.5 31q-58 0 -101.5 -25t-67.5 -67l-15 9q26 46 73.5 73.5t113.5 27.5q70 0 109 -40q38 -40 28 -93q-15 -89 -107 -118q51 -12 74 -48.5
t14 -84.5q-5 -29 -21 -54t-42 -43t-61 -28.5t-77 -10.5z" />
    <glyph glyph-name="uni0438" unicode="&#x438;" horiz-adv-x="580" 
d="M134 500h20l-83 -468l443 468h20l-88 -500h-20l83 468l-443 -468h-20z" />
    <glyph glyph-name="uni0439" unicode="&#x439;" horiz-adv-x="580" 
d="M46 0l88 500h20l-83 -468l443 468h20l-88 -500h-20l83 468l-443 -468h-20zM232 601l3 16h240l-3 -16h-240z" />
    <glyph glyph-name="uni043A" unicode="&#x43a;" horiz-adv-x="461" 
d="M134 500h20l-41 -234l326 234h31l-337 -242l254 -258h-26l-250 254l-45 -254h-20z" />
    <glyph glyph-name="uni043B" unicode="&#x43b;" horiz-adv-x="580" 
d="M-21 18q3 0 6.5 -0.5t6.5 -0.5q115 0 148 186l52 297h342l-88 -500h-20l85 482h-302l-49 -279q-20 -110 -62.5 -157t-104.5 -47h-8t-9 1z" />
    <glyph glyph-name="uni043C" unicode="&#x43c;" horiz-adv-x="650" 
d="M46 0l88 500h24l153 -312l265 312h28l-88 -500h-20l83 473l-269 -317h-6l-155 318l-83 -474h-20z" />
    <glyph glyph-name="uni043D" unicode="&#x43d;" horiz-adv-x="580" 
d="M134 500h20l-42 -241h360l42 241h20l-88 -500h-20l42 241h-360l-42 -241h-20z" />
    <glyph glyph-name="uni043E" unicode="&#x43e;" horiz-adv-x="622" 
d="M95 67q-64 77 -44 187q10 55 38 102t68.5 81t91.5 53.5t107 19.5q108 0 171 -77q64 -77 44 -187q-10 -55 -38 -102t-68.5 -81t-91.5 -53.5t-107 -19.5q-108 0 -171 77zM71 250q-18 -102 39 -172t158 -70q52 0 99 19t85 51.5t64 76.5t35 95q18 102 -40 172t-157 70
q-52 0 -99 -19t-85 -51.5t-64 -76.5t-35 -95z" />
    <glyph glyph-name="uni043F" unicode="&#x43f;" horiz-adv-x="580" 
d="M134 500h400l-88 -500h-20l85 482h-360l-85 -482h-20z" />
    <glyph glyph-name="uni0440" unicode="&#x440;" horiz-adv-x="662" 
d="M134 500h20l-25 -140q39 70 106.5 110t151.5 40q107 0 174 -82q68 -82 49 -191q-10 -55 -36 -100.5t-65 -78t-88.5 -50.5t-105.5 -18q-41 0 -77.5 13t-65.5 37t-49 57t-27 74l-65 -371h-20zM112 260q-18 -103 43 -177q61 -75 163 -75q51 0 96.5 17.5t81.5 48.5t60.5 73.5
t33.5 92.5q18 101 -44 177q-62 75 -162 75q-52 0 -97.5 -17.5t-81.5 -48t-60 -73t-33 -93.5z" />
    <glyph glyph-name="uni0441" unicode="&#x441;" horiz-adv-x="580" 
d="M92 66q-61 75 -41 187q10 55 38 102t69 81.5t92 54t107 19.5q72 0 124.5 -33.5t71.5 -88.5l-17 -10q-17 54 -64.5 84t-117.5 30q-53 0 -100 -18.5t-85 -51t-63.5 -77t-34.5 -95.5q-18 -103 37 -173q55 -69 160 -69q69 0 128 31t95 83l15 -10q-39 -57 -102 -89.5
t-139 -32.5q-112 0 -173 76z" />
    <glyph glyph-name="uni0442" unicode="&#x442;" horiz-adv-x="440" 
d="M64 500h400l-3 -18h-190l-85 -482h-20l85 482h-190z" />
    <glyph glyph-name="uni0443" unicode="&#x443;" horiz-adv-x="510" 
d="M4 -182q33 0 62 12t54 32t45.5 45.5t36.5 52.5l9 15l-147 525h19l141 -501l288 501h22l-314 -546q-42 -72 -95.5 -113.5t-110.5 -41.5q-4 0 -7 0.5t-6 0.5z" />
    <glyph glyph-name="uni0444" unicode="&#x444;" horiz-adv-x="672" 
d="M96 68q-65 76 -45 186q10 59 40 106t73 80.5t96.5 51.5t111.5 20l33 188h20l-33 -188q119 -5 183 -80q65 -77 46 -186q-11 -59 -40.5 -106t-72.5 -80.5t-96.5 -52t-111.5 -19.5l-33 -188h-20l33 188q-120 5 -184 80zM71 250q-18 -103 41 -173q58 -68 171 -71l86 488
q-54 -2 -104 -20t-89.5 -49.5t-67 -75.5t-37.5 -99zM303 6q54 2 103.5 20t89.5 49.5t68 75.5t37 99q18 104 -42 172q-61 69 -170 72z" />
    <glyph glyph-name="uni0445" unicode="&#x445;" horiz-adv-x="500" 
d="M-14 0l253 257l-155 243h22l147 -229l225 229h26l-241 -245l163 -255h-22l-154 241l-238 -241h-26z" />
    <glyph glyph-name="uni0446" unicode="&#x446;" horiz-adv-x="600" 
d="M46 0l88 500h20l-85 -482h350l85 482h20l-85 -482h80l-27 -152h-20l24 134h-450z" />
    <glyph glyph-name="uni0447" unicode="&#x447;" horiz-adv-x="550" 
d="M255 170q-94 0 -138.5 46t-30.5 124l28 160h20l-28 -160q-12 -69 25 -110.5t122 -41.5q79 0 183 40l48 272h20l-88 -500h-20l36 205q-99 -35 -177 -35z" />
    <glyph glyph-name="uni0448" unicode="&#x448;" horiz-adv-x="830" 
d="M46 0l88 500h20l-85 -482h295l85 482h20l-85 -482h295l85 482h20l-88 -500h-650z" />
    <glyph glyph-name="uni0449" unicode="&#x449;" horiz-adv-x="850" 
d="M46 0l88 500h20l-85 -482h295l85 482h20l-85 -482h295l85 482h20l-85 -482h70l-27 -152h-20l24 134h-700z" />
    <glyph glyph-name="uni044A" unicode="&#x44a;" 
d="M44 500h170l-36 -202h169q64 0 106 -43q41 -42 29 -108q-6 -34 -23.5 -61.5t-43 -46.5t-56.5 -29t-65 -10h-188l85 482h-150zM129 18h168q30 0 57.5 9.5t49.5 26.5t37 41.5t21 54.5q5 28 -1 52t-22 41.5t-40.5 27t-55.5 9.5h-168z" />
    <glyph glyph-name="uni044B" unicode="&#x44b;" horiz-adv-x="640" 
d="M46 0l88 500h20l-36 -202h169q64 0 106 -43q41 -42 29 -108q-6 -34 -23.5 -61.5t-43 -46.5t-56.5 -29t-65 -10h-188zM237 18q30 0 57.5 9.5t49.5 26.5t37 41.5t21 54.5q5 28 -1 52t-22 41.5t-40.5 27t-55.5 9.5h-168l-46 -262h168zM574 500h20l-88 -500h-20z" />
    <glyph glyph-name="uni044C" unicode="&#x44c;" horiz-adv-x="480" 
d="M46 0l88 500h20l-36 -202h169q64 0 106 -43q41 -42 29 -108q-6 -34 -23.5 -61.5t-43 -46.5t-56.5 -29t-65 -10h-188zM237 18q30 0 57.5 9.5t49.5 26.5t37 41.5t21 54.5q5 28 -1 52t-22 41.5t-40.5 27t-55.5 9.5h-168l-46 -262h168z" />
    <glyph glyph-name="uni044D" unicode="&#x44d;" horiz-adv-x="580" 
d="M223 -10q-72 0 -124.5 33.5t-71.5 88.5l17 10q17 -54 64.5 -84t117.5 -30q51 0 97.5 17.5t84 48.5t63.5 74t36 93h-276l4 18h275q13 100 -42 166q-55 67 -156 67q-69 0 -128 -31t-95 -83l-15 10q39 57 102 89.5t139 32.5q111 0 172 -76t42 -187q-10 -56 -38 -103
t-68.5 -81t-92 -53.5t-107.5 -19.5z" />
    <glyph glyph-name="uni044E" unicode="&#x44e;" horiz-adv-x="810" 
d="M134 500h20l-42 -241h128q10 54 38.5 99.5t69 79.5t91 53t105.5 19q108 0 171 -77q64 -77 44 -187q-10 -55 -38 -102t-68.5 -81t-91.5 -53.5t-107 -19.5q-105 0 -168 72q-62 73 -49 179h-129l-42 -241h-20zM259 250q-18 -102 39 -172t158 -70q52 0 99 19t85 51.5t64 76.5
t35 95q18 102 -40 172t-157 70q-52 0 -99 -19t-85 -51.5t-64 -76.5t-35 -95z" />
    <glyph glyph-name="uni044F" unicode="&#x44f;" horiz-adv-x="500" 
d="M6 0l199 202q-62 3 -101 45q-38 41 -26 106q6 34 23.5 61.5t43 46.5t56.5 29t65 10h188l-88 -500h-20l36 202h-152l-196 -202h-28zM98 350q-10 -57 23.5 -93.5t95.5 -36.5h168l46 262h-168q-30 0 -57.5 -9.5t-49.5 -26.5t-37.5 -41.5t-20.5 -54.5z" />
    <glyph glyph-name="uni0451" unicode="&#x451;" horiz-adv-x="597" 
d="M89 64q-59 74 -39 188q10 56 36 103t64.5 81.5t88.5 54t108 19.5q110 0 164 -77q55 -78 36 -184l-2 -11h-477q-13 -102 40 -167q26 -32 65 -47.5t90 -15.5q69 0 125 27.5t89 75.5l15 -10q-36 -52 -96.5 -81.5t-135.5 -29.5q-112 0 -171 74zM345 492q-53 0 -98.5 -18
t-81.5 -49.5t-60.5 -74.5t-33.5 -94h459q14 107 -37 171q-51 65 -148 65zM439 580q-8 0 -13 6t-4 14q5 20 24 20q8 0 13 -6t3 -14q-6 -20 -23 -20zM279 580q-8 0 -13 6t-4 14q5 20 24 20q8 0 13 -6t3 -14q-6 -20 -23 -20z" />
    <glyph glyph-name="uni0452" unicode="&#x452;" horiz-adv-x="595" 
d="M171 595h-80l3 17h80l15 88h20l-15 -88h180l-3 -17h-180l-40 -224q35 69 94 104t128 35q85 0 129 -53q45 -54 30 -139l-72 -408q-10 -57 -43.5 -89.5t-90.5 -32.5q-7 0 -13 0.5t-13 1.5l3 18q6 -1 12 -1h11q96 0 114 103l72 408q6 38 -0.5 70t-24.5 55t-47.5 36t-68.5 13
q-48 0 -87.5 -17t-69.5 -46.5t-50.5 -69t-29.5 -83.5l-48 -276h-20z" />
    <glyph glyph-name="uni0453" unicode="&#x453;" horiz-adv-x="400" 
d="M370 690l-103 -120h-19l100 120h22zM434 500l-3 -18h-280l-85 -482h-20l88 500h300z" />
    <glyph glyph-name="uni0454" unicode="&#x454;" horiz-adv-x="580" 
d="M92 66q-61 75 -41 187q10 55 38 102t69 81.5t92 54t107 19.5q72 0 124.5 -33.5t71.5 -88.5l-17 -10q-17 54 -64.5 84t-117.5 30q-51 0 -97.5 -18t-84 -49t-63.5 -74t-36 -92h276l-4 -18h-275q-14 -101 41 -167t157 -66q69 0 128 31t95 83l15 -10q-39 -57 -102 -89.5
t-139 -32.5q-112 0 -173 76z" />
    <glyph glyph-name="uni0455" unicode="&#x455;" horiz-adv-x="466" 
d="M46 103q32 -95 159 -95q64 0 110.5 28t55.5 79q8 42 -12.5 66t-54.5 39t-74.5 25.5t-74 26.5t-53.5 42t-11 71q10 60 59 92.5t121 32.5q54 0 96.5 -26.5t58.5 -69.5l-17 -8q-15 39 -53.5 62.5t-86.5 23.5q-61 0 -105 -28.5t-53 -82.5q-4 -22 2 -39.5t19.5 -30.5t33 -23
t42.5 -17q34 -9 69.5 -19.5t63 -28t42.5 -44t8 -68.5q-10 -57 -61.5 -89t-126.5 -32q-138 0 -175 105z" />
    <glyph glyph-name="uni0456" unicode="&#x456;" horiz-adv-x="200" 
d="M46 0l88 500h20l-88 -500h-20zM188 658q-7 -7 -16 -7t-15.5 6.5t-4.5 16.5q5 23 27 23q17 0 19 -14t-10 -25z" />
    <glyph glyph-name="uni0457" unicode="&#x457;" horiz-adv-x="200" 
d="M46 0l88 500h20l-88 -500h-20zM238 580q-8 0 -13 6t-4 14q5 20 24 20q8 0 13 -6t3 -14q-6 -20 -23 -20zM78 580q-8 0 -13 6t-4 14q5 20 24 20q8 0 13 -6t3 -14q-6 -20 -23 -20z" />
    <glyph glyph-name="uni0458" unicode="&#x458;" horiz-adv-x="209" 
d="M-98 -192q6 -1 12 -1h11q96 0 114 103l104 590h20l-104 -590q-10 -57 -43.5 -89.5t-90.5 -32.5q-7 0 -13 0.5t-13 1.5zM197 658q-7 -7 -16 -7t-15.5 6.5t-4.5 16.5q5 23 27 23q17 0 19 -14t-10 -25z" />
    <glyph glyph-name="uni0459" unicode="&#x459;" horiz-adv-x="831" 
d="M-21 18q3 0 6.5 -0.5t6.5 -0.5q59 0 95 45.5t53 140.5l52 297h332l-39 -222h158q63 0 101 -38q39 -39 27 -104q-12 -66 -61.5 -101t-115.5 -35h-178l85 482h-292l-49 -279q-20 -111 -62 -157.5t-103 -46.5h-9.5t-9.5 1zM439 18h158q60 0 102 32.5t52 89.5t-20.5 88.5
t-90.5 31.5h-158z" />
    <glyph glyph-name="uni045A" unicode="&#x45a;" horiz-adv-x="821" 
d="M134 500h20l-39 -222h340l39 222h20l-39 -222h158q63 0 101 -38q39 -39 27 -104q-12 -66 -61.5 -101t-115.5 -35h-178l46 260h-340l-46 -260h-20zM587 18q60 0 102 32.5t52 89.5t-20.5 88.5t-90.5 31.5h-158l-43 -242h158z" />
    <glyph glyph-name="uni045B" unicode="&#x45b;" horiz-adv-x="595" 
d="M171 595h-80l3 17h80l15 88h20l-15 -88h180l-3 -17h-180l-40 -224q35 69 94 104t128 35q85 0 129 -53q45 -54 30 -139l-56 -318h-20l56 318q6 38 -0.5 70t-24.5 55t-47.5 36t-68.5 13q-48 0 -87.5 -17t-69.5 -46.5t-50.5 -69t-29.5 -83.5l-48 -276h-20z" />
    <glyph glyph-name="uni045C" unicode="&#x45c;" horiz-adv-x="461" 
d="M134 500h20l-41 -234l326 234h31l-337 -242l254 -258h-26l-250 254l-45 -254h-20zM358 690h22l-103 -120h-19z" />
    <glyph glyph-name="uni045E" unicode="&#x45e;" horiz-adv-x="510" 
d="M4 -182q33 0 62 12t54 32t45.5 45.5t36.5 52.5l9 15l-147 525h19l141 -501l288 501h22l-314 -546q-42 -72 -95.5 -113.5t-110.5 -41.5q-4 0 -7 0.5t-6 0.5zM184 601l3 16h240l-3 -16h-240z" />
    <glyph glyph-name="uni045F" unicode="&#x45f;" horiz-adv-x="580" 
d="M134 500h20l-85 -482h360l85 482h20l-88 -500h-190l-24 -134h-20l24 134h-190z" />
    <glyph glyph-name="uni0490" unicode="&#x490;" horiz-adv-x="500" 
d="M551 820h20l-25 -138h-350l-120 -682h-20l123 700h350z" />
    <glyph glyph-name="uni0491" unicode="&#x491;" horiz-adv-x="400" 
d="M432 604h20l-21 -122h-280l-85 -482h-20l88 500h280z" />
    <glyph glyph-name="Wgrave" unicode="&#x1e80;" horiz-adv-x="980" 
d="M119 700h19l77 -676l341 676h24l104 -676l314 676h21l-326 -700h-24l-104 676l-342 -676h-24zM547 890l60 -120h-16l-64 120h20z" />
    <glyph glyph-name="wgrave" unicode="&#x1e81;" horiz-adv-x="770" 
d="M84 500h19l72 -473l242 473h22l75 -474l238 474h22l-252 -500h-22l-76 473l-242 -473h-22zM361 690l60 -120h-16l-64 120h20z" />
    <glyph glyph-name="Wacute" unicode="&#x1e82;" horiz-adv-x="980" 
d="M119 700h19l77 -676l341 676h24l104 -676l314 676h21l-326 -700h-24l-104 676l-342 -676h-24zM657 890h22l-103 -120h-19z" />
    <glyph glyph-name="wacute" unicode="&#x1e83;" horiz-adv-x="770" 
d="M84 500h19l72 -473l242 473h22l75 -474l238 474h22l-252 -500h-22l-76 473l-242 -473h-22zM471 690h22l-103 -120h-19z" />
    <glyph glyph-name="Wdieresis" unicode="&#x1e84;" horiz-adv-x="980" 
d="M119 700h19l77 -676l341 676h24l104 -676l314 676h21l-326 -700h-24l-104 676l-342 -676h-24zM663 780q-8 0 -13 6t-4 14q5 20 24 20q8 0 13 -6t3 -14q-6 -20 -23 -20zM503 780q-8 0 -13 6t-4 14q5 20 24 20q8 0 13 -6t3 -14q-6 -20 -23 -20z" />
    <glyph glyph-name="wdieresis" unicode="&#x1e85;" horiz-adv-x="770" 
d="M84 500h19l72 -473l242 473h22l75 -474l238 474h22l-252 -500h-22l-76 473l-242 -473h-22zM477 580q-8 0 -13 6t-4 14q5 20 24 20q8 0 13 -6t3 -14q-6 -20 -23 -20zM317 580q-8 0 -13 6t-4 14q5 20 24 20q8 0 13 -6t3 -14q-6 -20 -23 -20z" />
    <glyph glyph-name="uni1EA0" unicode="&#x1ea0;" horiz-adv-x="628" 
d="M381 700h25l153 -700h-20l-42 191h-385l-109 -191h-22zM493 209l-102 470l-269 -470h371zM263 -134q-7 -7 -16 -7t-15.5 6.5t-4.5 16.5q5 23 27 23q17 0 19 -14t-10 -25z" />
    <glyph glyph-name="uni1EA1" unicode="&#x1ea1;" horiz-adv-x="662" 
d="M100 71q-68 82 -48 192q10 55 36 100.5t65 78t88.5 50.5t105.5 18q41 0 77.5 -13.5t65.5 -37.5t48.5 -57.5t27.5 -73.5l30 172h20l-88 -500h-20l25 141q-39 -70 -106.5 -110.5t-151.5 -40.5q-108 0 -175 81zM72 260q-18 -103 43 -177q61 -75 163 -75q51 0 96.5 17.5
t81.5 48.5t60.5 73.5t33.5 92.5q18 101 -44 177q-62 75 -162 75q-52 0 -97.5 -17.5t-81.5 -48t-60 -73t-33 -93.5zM266 -134q-7 -7 -16 -7t-15.5 6.5t-4.5 16.5q5 23 27 23q17 0 19 -14t-10 -25z" />
    <glyph glyph-name="uni1EA2" unicode="&#x1ea2;" horiz-adv-x="628" 
d="M-19 0l400 700h25l153 -700h-20l-42 191h-385l-109 -191h-22zM493 209l-102 470l-269 -470h371zM353 890q15 19 37 30t46 11q28 0 48.5 -15t15.5 -46q-4 -23 -17.5 -35.5t-28.5 -22t-28 -18.5t-14 -24h-16q3 18 16 29t28.5 21t28.5 21t16 28q4 21 -9 34.5t-42 13.5
q-22 0 -38.5 -9t-31.5 -26q-6 3 -11 8z" />
    <glyph glyph-name="uni1EA3" unicode="&#x1ea3;" horiz-adv-x="662" 
d="M100 71q-68 82 -48 192q10 55 36 100.5t65 78t88.5 50.5t105.5 18q41 0 77.5 -13.5t65.5 -37.5t48.5 -57.5t27.5 -73.5l30 172h20l-88 -500h-20l25 141q-39 -70 -106.5 -110.5t-151.5 -40.5q-108 0 -175 81zM72 260q-18 -103 43 -177q61 -75 163 -75q51 0 96.5 17.5
t81.5 48.5t60.5 73.5t33.5 92.5q18 101 -44 177q-62 75 -162 75q-52 0 -97.5 -17.5t-81.5 -48t-60 -73t-33 -93.5zM326 682q-6 3 -11 8q15 19 37 30t46 11q28 0 48.5 -15t15.5 -46q-4 -23 -17.5 -35.5t-28.5 -22t-28 -18.5t-14 -24h-16q3 18 16 29t28.5 21t28.5 21t16 28
q4 21 -9 34.5t-42 13.5q-22 0 -38.5 -9t-31.5 -26z" />
    <glyph glyph-name="uni1EA4" unicode="&#x1ea4;" horiz-adv-x="628" 
d="M381 700h25l153 -700h-20l-42 191h-385l-109 -191h-22zM493 209l-102 470l-269 -470h371zM290 770l124 112h20l85 -112h-18l-77 101l-111 -101h-23zM600 965h20l-96 -112h-17z" />
    <glyph glyph-name="uni1EA5" unicode="&#x1ea5;" horiz-adv-x="662" 
d="M100 71q-68 82 -48 192q10 55 36 100.5t65 78t88.5 50.5t105.5 18q41 0 77.5 -13.5t65.5 -37.5t48.5 -57.5t27.5 -73.5l30 172h20l-88 -500h-20l25 141q-39 -70 -106.5 -110.5t-151.5 -40.5q-108 0 -175 81zM72 260q-18 -103 43 -177q61 -75 163 -75q51 0 96.5 17.5
t81.5 48.5t60.5 73.5t33.5 92.5q18 101 -44 177q-62 75 -162 75q-52 0 -97.5 -17.5t-81.5 -48t-60 -73t-33 -93.5zM262 570l124 112h20l85 -112h-18l-77 101l-111 -101h-23zM479 653l93 112h20l-96 -112h-17z" />
    <glyph glyph-name="uni1EA6" unicode="&#x1ea6;" horiz-adv-x="628" 
d="M381 700h25l153 -700h-20l-42 191h-385l-109 -191h-22zM493 209l-102 470l-269 -470h371zM290 770l124 112h20l85 -112h-18l-77 101l-111 -101h-23zM484 965l56 -112h-15l-60 112h19z" />
    <glyph glyph-name="uni1EA7" unicode="&#x1ea7;" horiz-adv-x="662" 
d="M100 71q-68 82 -48 192q10 55 36 100.5t65 78t88.5 50.5t105.5 18q41 0 77.5 -13.5t65.5 -37.5t48.5 -57.5t27.5 -73.5l30 172h20l-88 -500h-20l25 141q-39 -70 -106.5 -110.5t-151.5 -40.5q-108 0 -175 81zM72 260q-18 -103 43 -177q61 -75 163 -75q51 0 96.5 17.5
t81.5 48.5t60.5 73.5t33.5 92.5q18 101 -44 177q-62 75 -162 75q-52 0 -97.5 -17.5t-81.5 -48t-60 -73t-33 -93.5zM386 682h20l85 -112h-18l-77 101l-111 -101h-23zM456 765l56 -112h-15l-60 112h19z" />
    <glyph glyph-name="uni1EA8" unicode="&#x1ea8;" horiz-adv-x="628" 
d="M-19 0l400 700h25l153 -700h-20l-42 191h-385l-109 -191h-22zM493 209l-102 470l-269 -470h371zM290 770l124 112h20l85 -112h-18l-77 101l-111 -101h-23zM483 957q-6 3 -10 8q14 17 34 27.5t43 10.5q26 0 45 -14t14 -43q-4 -21 -16.5 -33t-26.5 -20.5t-26 -17t-13 -22.5
h-14q3 17 15 27.5t26 19.5t26.5 19t15.5 26q4 20 -9 32.5t-39 12.5q-38 0 -65 -33z" />
    <glyph glyph-name="uni1EA9" unicode="&#x1ea9;" horiz-adv-x="662" 
d="M100 71q-68 82 -48 192q10 55 36 100.5t65 78t88.5 50.5t105.5 18q41 0 77.5 -13.5t65.5 -37.5t48.5 -57.5t27.5 -73.5l30 172h20l-88 -500h-20l25 141q-39 -70 -106.5 -110.5t-151.5 -40.5q-108 0 -175 81zM72 260q-18 -103 43 -177q61 -75 163 -75q51 0 96.5 17.5
t81.5 48.5t60.5 73.5t33.5 92.5q18 101 -44 177q-62 75 -162 75q-52 0 -97.5 -17.5t-81.5 -48t-60 -73t-33 -93.5zM386 682h20l85 -112h-18l-77 101l-111 -101h-23zM455 757q-6 3 -10 8q14 17 34 27.5t43 10.5q26 0 45 -14t14 -43q-4 -21 -16.5 -33t-26.5 -20.5t-26 -17
t-13 -22.5h-14q3 17 15 27.5t26 19.5t26.5 19t15.5 26q4 20 -9 32.5t-39 12.5q-38 0 -65 -33z" />
    <glyph glyph-name="uni1EAA" unicode="&#x1eaa;" horiz-adv-x="628" 
d="M381 700h25l153 -700h-20l-42 191h-385l-109 -191h-22zM122 209h371l-102 470zM311 914q2 13 7.5 28t13.5 27.5t20 21t28 8.5q29 0 61 -41q25 -33 51 -33q13 0 22.5 6.5t16 16.5t10.5 21.5t6 22.5h16q-3 -14 -7.5 -29t-12.5 -27t-20 -19.5t-29 -7.5q-30 0 -62 38
q-15 18 -28.5 26t-25.5 8q-40 0 -51 -67h-16zM414 882h20l85 -112h-18l-77 101l-111 -101h-23z" />
    <glyph glyph-name="uni1EAB" unicode="&#x1eab;" horiz-adv-x="662" 
d="M100 71q-68 82 -48 192q10 55 36 100.5t65 78t88.5 50.5t105.5 18q41 0 77.5 -13.5t65.5 -37.5t48.5 -57.5t27.5 -73.5l30 172h20l-88 -500h-20l25 141q-39 -70 -106.5 -110.5t-151.5 -40.5q-108 0 -175 81zM72 260q-18 -103 43 -177q61 -75 163 -75q51 0 96.5 17.5
t81.5 48.5t60.5 73.5t33.5 92.5q18 101 -44 177q-62 75 -162 75q-52 0 -97.5 -17.5t-81.5 -48t-60 -73t-33 -93.5zM283 714q2 13 7.5 28t13.5 27.5t20 21t28 8.5q29 0 61 -41q25 -33 51 -33q13 0 22.5 6.5t16 16.5t10.5 21.5t6 22.5h16q-3 -14 -7.5 -29t-12.5 -27t-20 -19.5
t-29 -7.5q-30 0 -62 38q-15 18 -28.5 26t-25.5 8q-40 0 -51 -67h-16zM262 570l124 112h20l85 -112h-18l-77 101l-111 -101h-23z" />
    <glyph glyph-name="uni1EAC" unicode="&#x1eac;" horiz-adv-x="628" 
d="M-19 0l400 700h25l153 -700h-20l-42 191h-385l-109 -191h-22zM493 209l-102 470l-269 -470h371zM290 770l124 112h20l85 -112h-18l-77 101l-111 -101h-23zM263 -134q-7 -7 -16 -7t-15.5 6.5t-4.5 16.5q5 23 27 23q17 0 19 -14t-10 -25z" />
    <glyph glyph-name="uni1EAD" unicode="&#x1ead;" horiz-adv-x="662" 
d="M100 71q-68 82 -48 192q10 55 36 100.5t65 78t88.5 50.5t105.5 18q41 0 77.5 -13.5t65.5 -37.5t48.5 -57.5t27.5 -73.5l30 172h20l-88 -500h-20l25 141q-39 -70 -106.5 -110.5t-151.5 -40.5q-108 0 -175 81zM72 260q-18 -103 43 -177q61 -75 163 -75q51 0 96.5 17.5
t81.5 48.5t60.5 73.5t33.5 92.5q18 101 -44 177q-62 75 -162 75q-52 0 -97.5 -17.5t-81.5 -48t-60 -73t-33 -93.5zM262 570l124 112h20l85 -112h-18l-77 101l-111 -101h-23zM266 -134q-7 -7 -16 -7t-15.5 6.5t-4.5 16.5q5 23 27 23q17 0 19 -14t-10 -25z" />
    <glyph glyph-name="uni1EAE" unicode="&#x1eae;" horiz-adv-x="628" 
d="M381 700h25l153 -700h-20l-42 191h-385l-109 -191h-22zM122 209h371l-102 470zM408 772q-51 0 -78 26.5t-19 71.5h16q-6 -38 16.5 -60.5t64.5 -22.5q43 0 73 22.5t36 60.5h17q-8 -45 -41.5 -71.5t-84.5 -26.5zM407 896l93 112h20l-96 -112h-17z" />
    <glyph glyph-name="uni1EAF" unicode="&#x1eaf;" horiz-adv-x="662" 
d="M100 71q-68 82 -48 192q10 55 36 100.5t65 78t88.5 50.5t105.5 18q41 0 77.5 -13.5t65.5 -37.5t48.5 -57.5t27.5 -73.5l30 172h20l-88 -500h-20l25 141q-39 -70 -106.5 -110.5t-151.5 -40.5q-108 0 -175 81zM72 260q-18 -103 43 -177q61 -75 163 -75q51 0 96.5 17.5
t81.5 48.5t60.5 73.5t33.5 92.5q18 101 -44 177q-62 75 -162 75q-52 0 -97.5 -17.5t-81.5 -48t-60 -73t-33 -93.5zM402 572q-51 0 -78 26.5t-19 71.5h16q-6 -38 16.5 -60.5t64.5 -22.5q43 0 73 22.5t36 60.5h17q-8 -45 -41.5 -71.5t-84.5 -26.5zM401 696l93 112h20l-96 -112
h-17z" />
    <glyph glyph-name="uni1EB0" unicode="&#x1eb0;" horiz-adv-x="628" 
d="M381 700h25l153 -700h-20l-42 191h-385l-109 -191h-22zM122 209h371l-102 470zM408 772q-51 0 -78 26.5t-19 71.5h16q-6 -38 16.5 -60.5t64.5 -22.5q43 0 73 22.5t36 60.5h17q-8 -45 -41.5 -71.5t-84.5 -26.5zM384 1008l56 -112h-15l-60 112h19z" />
    <glyph glyph-name="uni1EB1" unicode="&#x1eb1;" horiz-adv-x="662" 
d="M100 71q-68 82 -48 192q10 55 36 100.5t65 78t88.5 50.5t105.5 18q41 0 77.5 -13.5t65.5 -37.5t48.5 -57.5t27.5 -73.5l30 172h20l-88 -500h-20l25 141q-39 -70 -106.5 -110.5t-151.5 -40.5q-108 0 -175 81zM72 260q-18 -103 43 -177q61 -75 163 -75q51 0 96.5 17.5
t81.5 48.5t60.5 73.5t33.5 92.5q18 101 -44 177q-62 75 -162 75q-52 0 -97.5 -17.5t-81.5 -48t-60 -73t-33 -93.5zM402 572q-51 0 -78 26.5t-19 71.5h16q-6 -38 16.5 -60.5t64.5 -22.5q43 0 73 22.5t36 60.5h17q-8 -45 -41.5 -71.5t-84.5 -26.5zM378 808l56 -112h-15
l-60 112h19z" />
    <glyph glyph-name="uni1EB2" unicode="&#x1eb2;" horiz-adv-x="628" 
d="M381 700h25l153 -700h-20l-42 191h-385l-109 -191h-22zM122 209h371l-102 470zM408 772q-51 0 -78 26.5t-19 71.5h16q-6 -38 16.5 -60.5t64.5 -22.5q43 0 73 22.5t36 60.5h17q-8 -45 -41.5 -71.5t-84.5 -26.5zM376 1007q14 17 34 27.5t43 10.5q26 0 45 -14t14 -43
q-4 -21 -16.5 -33t-26.5 -20.5t-26 -17t-13 -22.5h-14q3 17 15 27.5t26 19.5t26.5 19t15.5 26q4 20 -9 32.5t-39 12.5q-38 0 -65 -33q-6 3 -10 8z" />
    <glyph glyph-name="uni1EB3" unicode="&#x1eb3;" horiz-adv-x="662" 
d="M100 71q-68 82 -48 192q10 55 36 100.5t65 78t88.5 50.5t105.5 18q41 0 77.5 -13.5t65.5 -37.5t48.5 -57.5t27.5 -73.5l30 172h20l-88 -500h-20l25 141q-39 -70 -106.5 -110.5t-151.5 -40.5q-108 0 -175 81zM72 260q-18 -103 43 -177q61 -75 163 -75q51 0 96.5 17.5
t81.5 48.5t60.5 73.5t33.5 92.5q18 101 -44 177q-62 75 -162 75q-52 0 -97.5 -17.5t-81.5 -48t-60 -73t-33 -93.5zM402 572q-51 0 -78 26.5t-19 71.5h16q-6 -38 16.5 -60.5t64.5 -22.5q43 0 73 22.5t36 60.5h17q-8 -45 -41.5 -71.5t-84.5 -26.5zM379 800q-6 3 -10 8
q14 17 34 27.5t43 10.5q26 0 45 -14t14 -43q-4 -21 -16.5 -33t-26.5 -20.5t-26 -17t-13 -22.5h-14q3 17 15 27.5t26 19.5t26.5 19t15.5 26q4 20 -9 32.5t-39 12.5q-38 0 -65 -33z" />
    <glyph glyph-name="uni1EB4" unicode="&#x1eb4;" horiz-adv-x="628" 
d="M-19 0l400 700h25l153 -700h-20l-42 191h-385l-109 -191h-22zM493 209l-102 470l-269 -470h371zM408 772q-51 0 -78 26.5t-19 71.5h16q-6 -38 16.5 -60.5t64.5 -22.5q43 0 73 22.5t36 60.5h17q-8 -45 -41.5 -71.5t-84.5 -26.5zM311 904q2 13 7.5 28t13.5 27.5t20 21
t28 8.5q29 0 61 -41q25 -33 51 -33q13 0 22.5 6.5t16 16.5t10.5 21.5t6 22.5h16q-3 -14 -7.5 -29t-12.5 -27t-20 -19.5t-29 -7.5q-30 0 -62 38q-15 18 -28.5 26t-25.5 8q-40 0 -51 -67h-16z" />
    <glyph glyph-name="uni1EB5" unicode="&#x1eb5;" horiz-adv-x="662" 
d="M100 71q-68 82 -48 192q10 55 36 100.5t65 78t88.5 50.5t105.5 18q41 0 77.5 -13.5t65.5 -37.5t48.5 -57.5t27.5 -73.5l30 172h20l-88 -500h-20l25 141q-39 -70 -106.5 -110.5t-151.5 -40.5q-108 0 -175 81zM72 260q-18 -103 43 -177q61 -75 163 -75q51 0 96.5 17.5
t81.5 48.5t60.5 73.5t33.5 92.5q18 101 -44 177q-62 75 -162 75q-52 0 -97.5 -17.5t-81.5 -48t-60 -73t-33 -93.5zM402 572q-51 0 -78 26.5t-19 71.5h16q-6 -38 16.5 -60.5t64.5 -22.5q43 0 73 22.5t36 60.5h17q-8 -45 -41.5 -71.5t-84.5 -26.5zM305 704q2 13 7.5 28
t13.5 27.5t20 21t28 8.5q29 0 61 -41q25 -33 51 -33q13 0 22.5 6.5t16 16.5t10.5 21.5t6 22.5h16q-3 -14 -7.5 -29t-12.5 -27t-20 -19.5t-29 -7.5q-30 0 -62 38q-15 18 -28.5 26t-25.5 8q-40 0 -51 -67h-16z" />
    <glyph glyph-name="uni1EB6" unicode="&#x1eb6;" horiz-adv-x="628" 
d="M-19 0l400 700h25l153 -700h-20l-42 191h-385l-109 -191h-22zM122 209h371l-102 470zM408 772q-51 0 -78 26.5t-19 71.5h16q-6 -38 16.5 -60.5t64.5 -22.5q43 0 73 22.5t36 60.5h17q-8 -45 -41.5 -71.5t-84.5 -26.5zM263 -134q-7 -7 -16 -7t-15.5 6.5t-4.5 16.5
q5 23 27 23q17 0 19 -14t-10 -25z" />
    <glyph glyph-name="uni1EB7" unicode="&#x1eb7;" horiz-adv-x="662" 
d="M100 71q-68 82 -48 192q10 55 36 100.5t65 78t88.5 50.5t105.5 18q41 0 77.5 -13.5t65.5 -37.5t48.5 -57.5t27.5 -73.5l30 172h20l-88 -500h-20l25 141q-39 -70 -106.5 -110.5t-151.5 -40.5q-108 0 -175 81zM72 260q-18 -103 43 -177q61 -75 163 -75q51 0 96.5 17.5
t81.5 48.5t60.5 73.5t33.5 92.5q18 101 -44 177q-62 75 -162 75q-52 0 -97.5 -17.5t-81.5 -48t-60 -73t-33 -93.5zM402 572q-51 0 -78 26.5t-19 71.5h16q-6 -38 16.5 -60.5t64.5 -22.5q43 0 73 22.5t36 60.5h17q-8 -45 -41.5 -71.5t-84.5 -26.5zM266 -134q-7 -7 -16 -7
t-15.5 6.5t-4.5 16.5q5 23 27 23q17 0 19 -14t-10 -25z" />
    <glyph glyph-name="uni1EB8" unicode="&#x1eb8;" 
d="M56 0l123 700h385l-3 -18h-365l-56 -320h340l-3 -18h-341l-57 -326h370l-3 -18h-390zM246 -134q-7 -7 -16 -7t-15.5 6.5t-4.5 16.5q5 23 27 23q17 0 19 -14t-10 -25z" />
    <glyph glyph-name="uni1EB9" unicode="&#x1eb9;" horiz-adv-x="597" 
d="M89 64q-59 74 -39 188q10 56 36 103t64.5 81.5t88.5 54t108 19.5q110 0 164 -77q55 -78 36 -184l-2 -11h-477q-13 -102 40 -167q26 -32 65 -47.5t90 -15.5q69 0 125 27.5t89 75.5l15 -10q-36 -52 -96.5 -81.5t-135.5 -29.5q-112 0 -171 74zM345 492q-53 0 -98.5 -18
t-81.5 -49.5t-60.5 -74.5t-33.5 -94h459q14 107 -37 171q-51 65 -148 65zM256 -134q-7 -7 -16 -7t-15.5 6.5t-4.5 16.5q5 23 27 23q17 0 19 -14t-10 -25z" />
    <glyph glyph-name="uni1EBA" unicode="&#x1eba;" 
d="M56 0l123 700h385l-3 -18h-365l-56 -320h340l-3 -18h-341l-57 -326h370l-3 -18h-390zM333 890q15 19 37 30t46 11q28 0 48.5 -15t15.5 -46q-4 -23 -17.5 -35.5t-28.5 -22t-28 -18.5t-14 -24h-16q3 18 16 29t28.5 21t28.5 21t16 28q4 21 -9 34.5t-42 13.5q-22 0 -38.5 -9
t-31.5 -26q-6 3 -11 8z" />
    <glyph glyph-name="uni1EBB" unicode="&#x1ebb;" horiz-adv-x="597" 
d="M89 64q-59 74 -39 188q10 56 36 103t64.5 81.5t88.5 54t108 19.5q110 0 164 -77q55 -78 36 -184l-2 -11h-477q-13 -102 40 -167q26 -32 65 -47.5t90 -15.5q69 0 125 27.5t89 75.5l15 -10q-36 -52 -96.5 -81.5t-135.5 -29.5q-112 0 -171 74zM345 492q-53 0 -98.5 -18
t-81.5 -49.5t-60.5 -74.5t-33.5 -94h459q14 107 -37 171q-51 65 -148 65zM306 690q15 19 37 30t46 11q28 0 48.5 -15t15.5 -46q-4 -23 -17.5 -35.5t-28.5 -22t-28 -18.5t-14 -24h-16q3 18 16 29t28.5 21t28.5 21t16 28q4 21 -9 34.5t-42 13.5q-22 0 -38.5 -9t-31.5 -26
q-6 3 -11 8z" />
    <glyph glyph-name="uni1EBC" unicode="&#x1ebc;" 
d="M56 0l123 700h385l-3 -18h-365l-56 -320h340l-3 -18h-341l-57 -326h370l-3 -18h-390zM254 790q2 13 8 29t15 30t21.5 23t29.5 9q32 0 66 -43q28 -36 56 -36q13 0 23 7t17 17.5t11.5 23.5t6.5 24h17q-3 -14 -8.5 -30t-14.5 -29.5t-22 -22t-30 -8.5q-33 0 -66 42
q-30 37 -58 37q-20 0 -34.5 -19t-20.5 -54h-17z" />
    <glyph glyph-name="uni1EBD" unicode="&#x1ebd;" horiz-adv-x="597" 
d="M89 64q-59 74 -39 188q10 56 36 103t64.5 81.5t88.5 54t108 19.5q110 0 164 -77q55 -78 36 -184l-2 -11h-477q-13 -102 40 -167q26 -32 65 -47.5t90 -15.5q69 0 125 27.5t89 75.5l15 -10q-36 -52 -96.5 -81.5t-135.5 -29.5q-112 0 -171 74zM345 492q-53 0 -98.5 -18
t-81.5 -49.5t-60.5 -74.5t-33.5 -94h459q14 107 -37 171q-51 65 -148 65zM233 590q2 13 8 29t15 30t21.5 23t29.5 9q32 0 66 -43q28 -36 56 -36q13 0 23 7t17 17.5t11.5 23.5t6.5 24h17q-3 -14 -8.5 -30t-14.5 -29.5t-22 -22t-30 -8.5q-33 0 -66 42q-30 37 -58 37
q-20 0 -34.5 -19t-20.5 -54h-17z" />
    <glyph glyph-name="uni1EBE" unicode="&#x1ebe;" 
d="M179 700h385l-3 -18h-365l-56 -320h340l-3 -18h-341l-57 -326h370l-3 -18h-390zM263 770l124 112h20l85 -112h-18l-77 101l-111 -101h-23zM573 965h20l-96 -112h-17z" />
    <glyph glyph-name="uni1EBF" unicode="&#x1ebf;" horiz-adv-x="597" 
d="M89 64q-59 74 -39 188q10 56 36 103t64.5 81.5t88.5 54t108 19.5q110 0 164 -77q55 -78 36 -184l-2 -11h-477q-13 -102 40 -167q26 -32 65 -47.5t90 -15.5q69 0 125 27.5t89 75.5l15 -10q-36 -52 -96.5 -81.5t-135.5 -29.5q-112 0 -171 74zM345 492q-53 0 -98.5 -18
t-81.5 -49.5t-60.5 -74.5t-33.5 -94h459q14 107 -37 171q-51 65 -148 65zM366 682h20l85 -112h-18l-77 101l-111 -101h-23zM459 653l93 112h20l-96 -112h-17z" />
    <glyph glyph-name="uni1EC0" unicode="&#x1ec0;" 
d="M179 700h385l-3 -18h-365l-56 -320h340l-3 -18h-341l-57 -326h370l-3 -18h-390zM263 770l124 112h20l85 -112h-18l-77 101l-111 -101h-23zM457 965l56 -112h-15l-60 112h19z" />
    <glyph glyph-name="uni1EC1" unicode="&#x1ec1;" horiz-adv-x="597" 
d="M89 64q-59 74 -39 188q10 56 36 103t64.5 81.5t88.5 54t108 19.5q110 0 164 -77q55 -78 36 -184l-2 -11h-477q-13 -102 40 -167q26 -32 65 -47.5t90 -15.5q69 0 125 27.5t89 75.5l15 -10q-36 -52 -96.5 -81.5t-135.5 -29.5q-112 0 -171 74zM345 492q-53 0 -98.5 -18
t-81.5 -49.5t-60.5 -74.5t-33.5 -94h459q14 107 -37 171q-51 65 -148 65zM366 682h20l85 -112h-18l-77 101l-111 -101h-23zM417 765h19l56 -112h-15z" />
    <glyph glyph-name="uni1EC2" unicode="&#x1ec2;" 
d="M56 0l123 700h385l-3 -18h-365l-56 -320h340l-3 -18h-341l-57 -326h370l-3 -18h-390zM263 770l124 112h20l85 -112h-18l-77 101l-111 -101h-23zM445 965q14 17 34 27.5t43 10.5q26 0 45 -14t14 -43q-4 -21 -16.5 -33t-26.5 -20.5t-26 -17t-13 -22.5h-14q3 17 15 27.5
t26 19.5t26.5 19t15.5 26q4 20 -9 32.5t-39 12.5q-38 0 -65 -33q-6 3 -10 8z" />
    <glyph glyph-name="uni1EC3" unicode="&#x1ec3;" horiz-adv-x="597" 
d="M89 64q-59 74 -39 188q10 56 36 103t64.5 81.5t88.5 54t108 19.5q110 0 164 -77q55 -78 36 -184l-2 -11h-477q-13 -102 40 -167q26 -32 65 -47.5t90 -15.5q69 0 125 27.5t89 75.5l15 -10q-36 -52 -96.5 -81.5t-135.5 -29.5q-112 0 -171 74zM345 492q-53 0 -98.5 -18
t-81.5 -49.5t-60.5 -74.5t-33.5 -94h459q14 107 -37 171q-51 65 -148 65zM242 570l124 112h20l85 -112h-18l-77 101l-111 -101h-23zM435 757q-6 3 -10 8q14 17 34 27.5t43 10.5q26 0 45 -14t14 -43q-4 -21 -16.5 -33t-26.5 -20.5t-26 -17t-13 -22.5h-14q3 17 15 27.5
t26 19.5t26.5 19t15.5 26q4 20 -9 32.5t-39 12.5q-38 0 -65 -33z" />
    <glyph glyph-name="uni1EC4" unicode="&#x1ec4;" 
d="M56 0l123 700h385l-3 -18h-365l-56 -320h340l-3 -18h-341l-57 -326h370l-3 -18h-390zM284 914q2 13 7.5 28t13.5 27.5t20 21t28 8.5q29 0 61 -41q25 -33 51 -33q13 0 22.5 6.5t16 16.5t10.5 21.5t6 22.5h16q-3 -14 -7.5 -29t-12.5 -27t-20 -19.5t-29 -7.5q-30 0 -62 38
q-15 18 -28.5 26t-25.5 8q-40 0 -51 -67h-16zM387 882h20l85 -112h-18l-77 101l-111 -101h-23z" />
    <glyph glyph-name="uni1EC5" unicode="&#x1ec5;" horiz-adv-x="597" 
d="M89 64q-59 74 -39 188q10 56 36 103t64.5 81.5t88.5 54t108 19.5q110 0 164 -77q55 -78 36 -184l-2 -11h-477q-13 -102 40 -167q26 -32 65 -47.5t90 -15.5q69 0 125 27.5t89 75.5l15 -10q-36 -52 -96.5 -81.5t-135.5 -29.5q-112 0 -171 74zM345 492q-53 0 -98.5 -18
t-81.5 -49.5t-60.5 -74.5t-33.5 -94h459q14 107 -37 171q-51 65 -148 65zM263 714q2 13 7.5 28t13.5 27.5t20 21t28 8.5q29 0 61 -41q25 -33 51 -33q13 0 22.5 6.5t16 16.5t10.5 21.5t6 22.5h16q-3 -14 -7.5 -29t-12.5 -27t-20 -19.5t-29 -7.5q-30 0 -62 38q-15 18 -28.5 26
t-25.5 8q-40 0 -51 -67h-16zM242 570l124 112h20l85 -112h-18l-77 101l-111 -101h-23z" />
    <glyph glyph-name="uni1EC6" unicode="&#x1ec6;" 
d="M179 700h385l-3 -18h-365l-56 -320h340l-3 -18h-341l-57 -326h370l-3 -18h-390zM387 882h20l85 -112h-18l-77 101l-111 -101h-23zM246 -134q-7 -7 -16 -7t-15.5 6.5t-4.5 16.5q5 23 27 23q17 0 19 -14t-10 -25z" />
    <glyph glyph-name="uni1EC7" unicode="&#x1ec7;" horiz-adv-x="597" 
d="M89 64q-59 74 -39 188q10 56 36 103t64.5 81.5t88.5 54t108 19.5q110 0 164 -77q55 -78 36 -184l-2 -11h-477q-13 -102 40 -167q26 -32 65 -47.5t90 -15.5q69 0 125 27.5t89 75.5l15 -10q-36 -52 -96.5 -81.5t-135.5 -29.5q-112 0 -171 74zM530 256q14 107 -37 171
q-51 65 -148 65q-53 0 -98.5 -18t-81.5 -49.5t-60.5 -74.5t-33.5 -94h459zM366 682h20l85 -112h-18l-77 101l-111 -101h-23zM256 -134q-7 -7 -16 -7t-15.5 6.5t-4.5 16.5q5 23 27 23q17 0 19 -14t-10 -25z" />
    <glyph glyph-name="uni1EC8" unicode="&#x1ec8;" horiz-adv-x="220" 
d="M56 0l123 700h20l-123 -700h-20zM160 882q-6 3 -11 8q15 19 37 30t46 11q28 0 48.5 -15t15.5 -46q-4 -23 -17.5 -35.5t-28.5 -22t-28 -18.5t-14 -24h-16q3 18 16 29t28.5 21t28.5 21t16 28q4 21 -9 34.5t-42 13.5q-22 0 -38.5 -9t-31.5 -26z" />
    <glyph glyph-name="uni1EC9" unicode="&#x1ec9;" horiz-adv-x="200" 
d="M46 0l88 500h20l-88 -500h-20zM105 690q15 19 37 30t46 11q28 0 48.5 -15t15.5 -46q-4 -23 -17.5 -35.5t-28.5 -22t-28 -18.5t-14 -24h-16q3 18 16 29t28.5 21t28.5 21t16 28q4 21 -9 34.5t-42 13.5q-22 0 -38.5 -9t-31.5 -26q-6 3 -11 8z" />
    <glyph glyph-name="uni1ECA" unicode="&#x1eca;" horiz-adv-x="220" 
d="M56 0l123 700h20l-123 -700h-20zM57 -134q-7 -7 -16 -7t-15.5 6.5t-4.5 16.5q5 23 27 23q17 0 19 -14t-10 -25z" />
    <glyph glyph-name="uni1ECB" unicode="&#x1ecb;" horiz-adv-x="200" 
d="M134 500h20l-88 -500h-20zM177 594q-7 -7 -16 -7t-15.5 6.5t-4.5 16.5q5 23 27 23q17 0 19 -14t-10 -25zM48 -134q-7 -7 -16 -7t-15.5 6.5t-4.5 16.5q5 23 27 23q17 0 19 -14t-10 -25z" />
    <glyph glyph-name="uni1ECC" unicode="&#x1ecc;" horiz-adv-x="840" 
d="M139 97q-87 106 -61 256q13 74 52 139t96 113.5t127.5 76.5t146.5 28q148 0 235 -107q88 -107 62 -256q-13 -74 -52 -139t-96 -113.5t-128 -76.5t-146 -28q-149 0 -236 107zM98 350q-25 -141 56 -242q81 -100 223 -100q72 0 138.5 27t120.5 73.5t91.5 109t49.5 132.5
q25 142 -57 242t-222 100q-72 0 -139 -27t-120.5 -73.5t-90.5 -109t-50 -132.5zM336 -134q-7 -7 -16 -7t-15.5 6.5t-4.5 16.5q5 23 27 23q17 0 19 -14t-10 -25z" />
    <glyph glyph-name="uni1ECD" unicode="&#x1ecd;" horiz-adv-x="622" 
d="M95 67q-64 77 -44 187q10 55 38 102t68.5 81t91.5 53.5t107 19.5q108 0 171 -77q64 -77 44 -187q-10 -55 -38 -102t-68.5 -81t-91.5 -53.5t-107 -19.5q-108 0 -171 77zM71 250q-18 -102 39 -172t158 -70q52 0 99 19t85 51.5t64 76.5t35 95q18 102 -40 172t-157 70
q-52 0 -99 -19t-85 -51.5t-64 -76.5t-35 -95zM247 -134q-7 -7 -16 -7t-15.5 6.5t-4.5 16.5q5 23 27 23q17 0 19 -14t-10 -25z" />
    <glyph glyph-name="uni1ECE" unicode="&#x1ece;" horiz-adv-x="840" 
d="M139 97q-87 106 -61 256q13 74 52 139t96 113.5t127.5 76.5t146.5 28q148 0 235 -107q88 -107 62 -256q-13 -74 -52 -139t-96 -113.5t-128 -76.5t-146 -28q-149 0 -236 107zM98 350q-25 -141 56 -242q81 -100 223 -100q72 0 138.5 27t120.5 73.5t91.5 109t49.5 132.5
q25 142 -57 242t-222 100q-72 0 -139 -27t-120.5 -73.5t-90.5 -109t-50 -132.5zM455 890q15 19 37 30t46 11q28 0 48.5 -15t15.5 -46q-4 -23 -17.5 -35.5t-28.5 -22t-28 -18.5t-14 -24h-16q3 18 16 29t28.5 21t28.5 21t16 28q4 21 -9 34.5t-42 13.5q-22 0 -38.5 -9
t-31.5 -26q-6 3 -11 8z" />
    <glyph glyph-name="uni1ECF" unicode="&#x1ecf;" horiz-adv-x="622" 
d="M95 67q-64 77 -44 187q10 55 38 102t68.5 81t91.5 53.5t107 19.5q108 0 171 -77q64 -77 44 -187q-10 -55 -38 -102t-68.5 -81t-91.5 -53.5t-107 -19.5q-108 0 -171 77zM71 250q-18 -102 39 -172t158 -70q52 0 99 19t85 51.5t64 76.5t35 95q18 102 -40 172t-157 70
q-52 0 -99 -19t-85 -51.5t-64 -76.5t-35 -95zM327 682q-6 3 -11 8q15 19 37 30t46 11q28 0 48.5 -15t15.5 -46q-4 -23 -17.5 -35.5t-28.5 -22t-28 -18.5t-14 -24h-16q3 18 16 29t28.5 21t28.5 21t16 28q4 21 -9 34.5t-42 13.5q-22 0 -38.5 -9t-31.5 -26z" />
    <glyph glyph-name="uni1ED0" unicode="&#x1ed0;" horiz-adv-x="840" 
d="M139 97q-87 106 -61 256q13 74 52 139t96 113.5t127.5 76.5t146.5 28q148 0 235 -107q88 -107 62 -256q-13 -74 -52 -139t-96 -113.5t-128 -76.5t-146 -28q-149 0 -236 107zM98 350q-25 -141 56 -242q81 -100 223 -100q72 0 138.5 27t120.5 73.5t91.5 109t49.5 132.5
q25 142 -57 242t-222 100q-72 0 -139 -27t-120.5 -73.5t-90.5 -109t-50 -132.5zM537 882h20l85 -112h-18l-77 101l-111 -101h-23zM630 853l93 112h20l-96 -112h-17z" />
    <glyph glyph-name="uni1ED1" unicode="&#x1ed1;" horiz-adv-x="622" 
d="M95 67q-64 77 -44 187q10 55 38 102t68.5 81t91.5 53.5t107 19.5q108 0 171 -77q64 -77 44 -187q-10 -55 -38 -102t-68.5 -81t-91.5 -53.5t-107 -19.5q-108 0 -171 77zM71 250q-18 -102 39 -172t158 -70q52 0 99 19t85 51.5t64 76.5t35 95q18 102 -40 172t-157 70
q-52 0 -99 -19t-85 -51.5t-64 -76.5t-35 -95zM384 682h20l85 -112h-18l-77 101l-111 -101h-23zM477 653l93 112h20l-96 -112h-17z" />
    <glyph glyph-name="uni1ED2" unicode="&#x1ed2;" horiz-adv-x="840" 
d="M139 97q-87 106 -61 256q13 74 52 139t96 113.5t127.5 76.5t146.5 28q148 0 235 -107q88 -107 62 -256q-13 -74 -52 -139t-96 -113.5t-128 -76.5t-146 -28q-149 0 -236 107zM98 350q-25 -141 56 -242q81 -100 223 -100q72 0 138.5 27t120.5 73.5t91.5 109t49.5 132.5
q25 142 -57 242t-222 100q-72 0 -139 -27t-120.5 -73.5t-90.5 -109t-50 -132.5zM537 882h20l85 -112h-18l-77 101l-111 -101h-23zM588 965h19l56 -112h-15z" />
    <glyph glyph-name="uni1ED3" unicode="&#x1ed3;" horiz-adv-x="622" 
d="M95 67q-64 77 -44 187q10 55 38 102t68.5 81t91.5 53.5t107 19.5q108 0 171 -77q64 -77 44 -187q-10 -55 -38 -102t-68.5 -81t-91.5 -53.5t-107 -19.5q-108 0 -171 77zM71 250q-18 -102 39 -172t158 -70q52 0 99 19t85 51.5t64 76.5t35 95q18 102 -40 172t-157 70
q-52 0 -99 -19t-85 -51.5t-64 -76.5t-35 -95zM384 682h20l85 -112h-18l-77 101l-111 -101h-23zM435 765h19l56 -112h-15z" />
    <glyph glyph-name="uni1ED4" unicode="&#x1ed4;" horiz-adv-x="840" 
d="M139 97q-87 106 -61 256q13 74 52 139t96 113.5t127.5 76.5t146.5 28q148 0 235 -107q88 -107 62 -256q-13 -74 -52 -139t-96 -113.5t-128 -76.5t-146 -28q-149 0 -236 107zM98 350q-25 -141 56 -242q81 -100 223 -100q72 0 138.5 27t120.5 73.5t91.5 109t49.5 132.5
q25 142 -57 242t-222 100q-72 0 -139 -27t-120.5 -73.5t-90.5 -109t-50 -132.5zM413 770l124 112h20l85 -112h-18l-77 101l-111 -101h-23zM597 965q14 17 34 27.5t43 10.5q26 0 45 -14t14 -43q-4 -21 -16.5 -33t-26.5 -20.5t-26 -17t-13 -22.5h-14q3 17 15 27.5t26 19.5
t26.5 19t15.5 26q4 20 -9 32.5t-39 12.5q-38 0 -65 -33q-6 3 -10 8z" />
    <glyph glyph-name="uni1ED5" unicode="&#x1ed5;" horiz-adv-x="622" 
d="M95 67q-64 77 -44 187q10 55 38 102t68.5 81t91.5 53.5t107 19.5q108 0 171 -77q64 -77 44 -187q-10 -55 -38 -102t-68.5 -81t-91.5 -53.5t-107 -19.5q-108 0 -171 77zM71 250q-18 -102 39 -172t158 -70q52 0 99 19t85 51.5t64 76.5t35 95q18 102 -40 172t-157 70
q-52 0 -99 -19t-85 -51.5t-64 -76.5t-35 -95zM260 570l124 112h20l85 -112h-18l-77 101l-111 -101h-23zM443 765q14 17 34 27.5t43 10.5q26 0 45 -14t14 -43q-4 -21 -16.5 -33t-26.5 -20.5t-26 -17t-13 -22.5h-14q3 17 15 27.5t26 19.5t26.5 19t15.5 26q4 20 -9 32.5
t-39 12.5q-38 0 -65 -33q-6 3 -10 8z" />
    <glyph glyph-name="uni1ED6" unicode="&#x1ed6;" horiz-adv-x="840" 
d="M139 97q-87 106 -61 256q13 74 52 139t96 113.5t127.5 76.5t146.5 28q148 0 235 -107q88 -107 62 -256q-13 -74 -52 -139t-96 -113.5t-128 -76.5t-146 -28q-149 0 -236 107zM98 350q-25 -141 56 -242q81 -100 223 -100q72 0 138.5 27t120.5 73.5t91.5 109t49.5 132.5
q25 142 -57 242t-222 100q-72 0 -139 -27t-120.5 -73.5t-90.5 -109t-50 -132.5zM434 914q2 13 7.5 28t13.5 27.5t20 21t28 8.5q29 0 61 -41q25 -33 51 -33q13 0 22.5 6.5t16 16.5t10.5 21.5t6 22.5h16q-3 -14 -7.5 -29t-12.5 -27t-20 -19.5t-29 -7.5q-30 0 -62 38
q-28 34 -54 34q-40 0 -51 -67h-16zM537 882h20l85 -112h-18l-77 101l-111 -101h-23z" />
    <glyph glyph-name="uni1ED7" unicode="&#x1ed7;" horiz-adv-x="622" 
d="M95 67q-64 77 -44 187q10 55 38 102t68.5 81t91.5 53.5t107 19.5q108 0 171 -77q64 -77 44 -187q-10 -55 -38 -102t-68.5 -81t-91.5 -53.5t-107 -19.5q-108 0 -171 77zM71 250q-18 -102 39 -172t158 -70q52 0 99 19t85 51.5t64 76.5t35 95q18 102 -40 172t-157 70
q-52 0 -99 -19t-85 -51.5t-64 -76.5t-35 -95zM281 714q2 13 7.5 28t13.5 27.5t20 21t28 8.5q29 0 61 -41q25 -33 51 -33q13 0 22.5 6.5t16 16.5t10.5 21.5t6 22.5h16q-3 -14 -7.5 -29t-12.5 -27t-20 -19.5t-29 -7.5q-30 0 -62 38q-15 18 -28.5 26t-25.5 8q-40 0 -51 -67h-16
zM260 570l124 112h20l85 -112h-18l-77 101l-111 -101h-23z" />
    <glyph glyph-name="uni1ED8" unicode="&#x1ed8;" horiz-adv-x="840" 
d="M139 97q-87 106 -61 256q13 74 52 139t96 113.5t127.5 76.5t146.5 28q148 0 235 -107q88 -107 62 -256q-13 -74 -52 -139t-96 -113.5t-128 -76.5t-146 -28q-149 0 -236 107zM98 350q-25 -141 56 -242q81 -100 223 -100q72 0 138.5 27t120.5 73.5t91.5 109t49.5 132.5
q25 142 -57 242t-222 100q-72 0 -139 -27t-120.5 -73.5t-90.5 -109t-50 -132.5zM413 770l124 112h20l85 -112h-18l-77 101l-111 -101h-23zM336 -134q-7 -7 -16 -7t-15.5 6.5t-4.5 16.5q5 23 27 23q17 0 19 -14t-10 -25z" />
    <glyph glyph-name="uni1ED9" unicode="&#x1ed9;" horiz-adv-x="622" 
d="M95 67q-64 77 -44 187q10 55 38 102t68.5 81t91.5 53.5t107 19.5q108 0 171 -77q64 -77 44 -187q-10 -55 -38 -102t-68.5 -81t-91.5 -53.5t-107 -19.5q-108 0 -171 77zM71 250q-18 -102 39 -172t158 -70q52 0 99 19t85 51.5t64 76.5t35 95q18 102 -40 172t-157 70
q-52 0 -99 -19t-85 -51.5t-64 -76.5t-35 -95zM260 570l124 112h20l85 -112h-18l-77 101l-111 -101h-23zM247 -134q-7 -7 -16 -7t-15.5 6.5t-4.5 16.5q5 23 27 23q17 0 19 -14t-10 -25z" />
    <glyph glyph-name="uni1EDA" unicode="&#x1eda;" horiz-adv-x="840" 
d="M139 97q-87 106 -61 256q13 74 52 139t96 113.5t127.5 76.5t146.5 28q23 0 44 -2.5t41 -7.5q35 0 55.5 21t27.5 54h21q-7 -36 -25.5 -57t-44.5 -30q34 -13 62.5 -34.5t53.5 -50.5q45 -53 60 -117t2 -139q-13 -74 -52 -139t-96 -113.5t-128 -76.5t-146 -28
q-149 0 -236 107zM98 350q-25 -141 56 -242q81 -100 223 -100q72 0 138.5 27t120.5 73.5t91.5 109t49.5 132.5q25 142 -57 242t-222 100q-72 0 -139 -27t-120.5 -73.5t-90.5 -109t-50 -132.5zM590 890h22l-103 -120h-19z" />
    <glyph glyph-name="uni1EDB" unicode="&#x1edb;" horiz-adv-x="622" 
d="M95 67q-64 77 -44 187q10 55 38 102t68.5 81t91.5 53.5t107 19.5q20 0 37 -2.5t34 -7.5q35 0 56.5 20t27.5 55h21q-7 -38 -26.5 -58.5t-46.5 -29.5q37 -19 68 -54q32 -38 43 -85t1 -102t-38 -102t-68.5 -81t-91.5 -53.5t-107 -19.5q-108 0 -171 77zM71 250
q-18 -102 39 -172t158 -70q52 0 99 19t85 51.5t64 76.5t35 95q18 102 -40 172t-157 70q-52 0 -99 -19t-85 -51.5t-64 -76.5t-35 -95zM448 690h22l-103 -120h-19z" />
    <glyph glyph-name="uni1EDC" unicode="&#x1edc;" horiz-adv-x="840" 
d="M139 97q-87 106 -61 256q13 74 52 139t96 113.5t127.5 76.5t146.5 28q23 0 44 -2.5t41 -7.5q35 0 55.5 21t27.5 54h21q-7 -36 -25.5 -57t-44.5 -30q34 -13 62.5 -34.5t53.5 -50.5q45 -53 60 -117t2 -139q-13 -74 -52 -139t-96 -113.5t-128 -76.5t-146 -28
q-149 0 -236 107zM98 350q-25 -141 56 -242q81 -100 223 -100q72 0 138.5 27t120.5 73.5t91.5 109t49.5 132.5q25 142 -57 242t-222 100q-72 0 -139 -27t-120.5 -73.5t-90.5 -109t-50 -132.5zM445 890h20l60 -120h-16z" />
    <glyph glyph-name="uni1EDD" unicode="&#x1edd;" horiz-adv-x="622" 
d="M95 67q-64 77 -44 187q10 55 38 102t68.5 81t91.5 53.5t107 19.5q20 0 37 -2.5t34 -7.5q35 0 56.5 20t27.5 55h21q-7 -38 -26.5 -58.5t-46.5 -29.5q37 -19 68 -54q32 -38 43 -85t1 -102t-38 -102t-68.5 -81t-91.5 -53.5t-107 -19.5q-108 0 -171 77zM71 250
q-18 -102 39 -172t158 -70q52 0 99 19t85 51.5t64 76.5t35 95q18 102 -40 172t-157 70q-52 0 -99 -19t-85 -51.5t-64 -76.5t-35 -95zM291 690h20l60 -120h-16z" />
    <glyph glyph-name="uni1EDE" unicode="&#x1ede;" horiz-adv-x="840" 
d="M139 97q-87 106 -61 256q13 74 52 139t96 113.5t127.5 76.5t146.5 28q23 0 44 -2.5t41 -7.5q35 0 55.5 21t27.5 54h21q-7 -36 -25.5 -57t-44.5 -30q34 -13 62.5 -34.5t53.5 -50.5q45 -53 60 -117t2 -139q-13 -74 -52 -139t-96 -113.5t-128 -76.5t-146 -28
q-149 0 -236 107zM98 350q-25 -141 56 -242q81 -100 223 -100q72 0 138.5 27t120.5 73.5t91.5 109t49.5 132.5q25 142 -57 242t-222 100q-72 0 -139 -27t-120.5 -73.5t-90.5 -109t-50 -132.5zM466 882q-6 3 -11 8q15 19 37 30t46 11q28 0 48.5 -15t15.5 -46
q-4 -23 -17.5 -35.5t-28.5 -22t-28 -18.5t-14 -24h-16q3 18 16 29t28.5 21t28.5 21t16 28q4 21 -9 34.5t-42 13.5q-22 0 -38.5 -9t-31.5 -26z" />
    <glyph glyph-name="uni1EDF" unicode="&#x1edf;" horiz-adv-x="622" 
d="M95 67q-64 77 -44 187q10 55 38 102t68.5 81t91.5 53.5t107 19.5q20 0 37 -2.5t34 -7.5q35 0 56.5 20t27.5 55h21q-7 -38 -26.5 -58.5t-46.5 -29.5q37 -19 68 -54q32 -38 43 -85t1 -102t-38 -102t-68.5 -81t-91.5 -53.5t-107 -19.5q-108 0 -171 77zM71 250
q-18 -102 39 -172t158 -70q52 0 99 19t85 51.5t64 76.5t35 95q18 102 -40 172t-157 70q-52 0 -99 -19t-85 -51.5t-64 -76.5t-35 -95zM316 690q15 19 37 30t46 11q28 0 48.5 -15t15.5 -46q-4 -23 -17.5 -35.5t-28.5 -22t-28 -18.5t-14 -24h-16q3 18 16 29t28.5 21t28.5 21
t16 28q4 21 -9 34.5t-42 13.5q-22 0 -38.5 -9t-31.5 -26q-6 3 -11 8z" />
    <glyph glyph-name="uni1EE0" unicode="&#x1ee0;" horiz-adv-x="840" 
d="M139 97q-87 106 -61 256q13 74 52 139t96 113.5t127.5 76.5t146.5 28q23 0 44 -2.5t41 -7.5q35 0 55.5 21t27.5 54h21q-7 -36 -25.5 -57t-44.5 -30q34 -13 62.5 -34.5t53.5 -50.5q45 -53 60 -117t2 -139q-13 -74 -52 -139t-96 -113.5t-128 -76.5t-146 -28
q-149 0 -236 107zM98 350q-25 -141 56 -242q81 -100 223 -100q72 0 138.5 27t120.5 73.5t91.5 109t49.5 132.5q25 142 -57 242t-222 100q-72 0 -139 -27t-120.5 -73.5t-90.5 -109t-50 -132.5zM377 790q3 14 8 30t14 29.5t22 22.5t30 9q32 0 66 -43q28 -36 56 -36q13 0 23 7
t17 17.5t11.5 23.5t6.5 24h17q-3 -14 -8.5 -30t-14.5 -29.5t-22 -22t-30 -8.5q-33 0 -66 42q-30 37 -58 37q-20 0 -34.5 -19t-20.5 -54h-17z" />
    <glyph glyph-name="uni1EE1" unicode="&#x1ee1;" horiz-adv-x="622" 
d="M95 67q-64 77 -44 187q10 55 38 102t68.5 81t91.5 53.5t107 19.5q20 0 37 -2.5t34 -7.5q35 0 56.5 20t27.5 55h21q-7 -38 -26.5 -58.5t-46.5 -29.5q37 -19 68 -54q32 -38 43 -85t1 -102t-38 -102t-68.5 -81t-91.5 -53.5t-107 -19.5q-108 0 -171 77zM71 250
q-18 -102 39 -172t158 -70q52 0 99 19t85 51.5t64 76.5t35 95q18 102 -40 172t-157 70q-52 0 -99 -19t-85 -51.5t-64 -76.5t-35 -95zM245 590q3 14 8 30t14 29.5t22 22.5t30 9q32 0 66 -43q28 -36 56 -36q13 0 23 7t17 17.5t11.5 23.5t6.5 24h17q-3 -14 -8.5 -30
t-14.5 -29.5t-22 -22t-30 -8.5q-33 0 -66 42q-30 37 -58 37q-20 0 -34.5 -19t-20.5 -54h-17z" />
    <glyph glyph-name="uni1EE2" unicode="&#x1ee2;" horiz-adv-x="840" 
d="M139 97q-87 106 -61 256q13 74 52 139t96 113.5t127.5 76.5t146.5 28q23 0 44 -2.5t41 -7.5q35 0 55.5 21t27.5 54h21q-7 -36 -25.5 -57t-44.5 -30q34 -13 62.5 -34.5t53.5 -50.5q45 -53 60 -117t2 -139q-13 -74 -52 -139t-96 -113.5t-128 -76.5t-146 -28
q-149 0 -236 107zM98 350q-25 -141 56 -242q81 -100 223 -100q72 0 138.5 27t120.5 73.5t91.5 109t49.5 132.5q25 142 -57 242t-222 100q-72 0 -139 -27t-120.5 -73.5t-90.5 -109t-50 -132.5zM336 -134q-7 -7 -16 -7t-15.5 6.5t-4.5 16.5q5 23 27 23q17 0 19 -14t-10 -25z
" />
    <glyph glyph-name="uni1EE3" unicode="&#x1ee3;" horiz-adv-x="622" 
d="M95 67q-64 77 -44 187q10 55 38 102t68.5 81t91.5 53.5t107 19.5q20 0 37 -2.5t34 -7.5q35 0 56.5 20t27.5 55h21q-7 -38 -26.5 -58.5t-46.5 -29.5q37 -19 68 -54q32 -38 43 -85t1 -102t-38 -102t-68.5 -81t-91.5 -53.5t-107 -19.5q-108 0 -171 77zM71 250
q-18 -102 39 -172t158 -70q52 0 99 19t85 51.5t64 76.5t35 95q18 102 -40 172t-157 70q-52 0 -99 -19t-85 -51.5t-64 -76.5t-35 -95zM247 -134q-7 -7 -16 -7t-15.5 6.5t-4.5 16.5q5 23 27 23q17 0 19 -14t-10 -25z" />
    <glyph glyph-name="uni1EE4" unicode="&#x1ee4;" horiz-adv-x="680" 
d="M125 56q-57 66 -39 169l84 475h20l-84 -475q-17 -96 32 -156q49 -61 160 -61q51 0 96 14.5t80 42.5t58.5 68.5t32.5 91.5l84 475h20l-84 -475q-10 -55 -35 -98.5t-62.5 -74t-85.5 -46.5t-103 -16q-116 0 -174 66zM264 -134q-7 -7 -16 -7t-15.5 6.5t-4.5 16.5q5 23 27 23
q17 0 19 -14t-10 -25z" />
    <glyph glyph-name="uni1EE5" unicode="&#x1ee5;" horiz-adv-x="575" 
d="M92 43q-44 53 -29 139l56 318h20l-56 -318q-6 -38 0.5 -70t24.5 -55t47.5 -36t68.5 -13q47 0 86.5 17t70 46t50.5 68t29 83l49 278h20l-88 -500h-20l23 128q-35 -67 -94 -102.5t-128 -35.5q-85 0 -130 53zM217 -134q-7 -7 -16 -7t-15.5 6.5t-4.5 16.5q5 23 27 23
q17 0 19 -14t-10 -25z" />
    <glyph glyph-name="uni1EE6" unicode="&#x1ee6;" horiz-adv-x="680" 
d="M125 56q-57 66 -39 169l84 475h20l-84 -475q-17 -96 32 -156q49 -61 160 -61q51 0 96 14.5t80 42.5t58.5 68.5t32.5 91.5l84 475h20l-84 -475q-10 -55 -35 -98.5t-62.5 -74t-85.5 -46.5t-103 -16q-116 0 -174 66zM402 882q-6 3 -11 8q15 19 37 30t46 11q28 0 48.5 -15
t15.5 -46q-4 -23 -17.5 -35.5t-28.5 -22t-28 -18.5t-14 -24h-16q3 18 16 29t28.5 21t28.5 21t16 28q4 21 -9 34.5t-42 13.5q-22 0 -38.5 -9t-31.5 -26z" />
    <glyph glyph-name="uni1EE7" unicode="&#x1ee7;" horiz-adv-x="575" 
d="M92 43q-44 53 -29 139l56 318h20l-56 -318q-6 -38 0.5 -70t24.5 -55t47.5 -36t68.5 -13q47 0 86.5 17t70 46t50.5 68t29 83l49 278h20l-88 -500h-20l23 128q-35 -67 -94 -102.5t-128 -35.5q-85 0 -130 53zM290 690q15 19 37 30t46 11q28 0 48.5 -15t15.5 -46
q-4 -23 -17.5 -35.5t-28.5 -22t-28 -18.5t-14 -24h-16q3 18 16 29t28.5 21t28.5 21t16 28q4 21 -9 34.5t-42 13.5q-22 0 -38.5 -9t-31.5 -26q-6 3 -11 8z" />
    <glyph glyph-name="uni1EE8" unicode="&#x1ee8;" horiz-adv-x="680" 
d="M125 56q-57 66 -39 169l84 475h20l-84 -475q-17 -96 32 -156q49 -61 160 -61q51 0 96 14.5t80 42.5t58.5 68.5t32.5 91.5l84 475h3q36 0 57.5 20t27.5 55h21q-8 -45 -33 -66t-59 -26v-1l-81 -457q-10 -55 -35 -98.5t-62.5 -74t-85.5 -46.5t-103 -16q-116 0 -174 66z
M403 770l100 120h22l-103 -120h-19z" />
    <glyph glyph-name="uni1EE9" unicode="&#x1ee9;" horiz-adv-x="575" 
d="M92 43q-44 53 -29 139l56 318h20l-56 -318q-6 -38 0.5 -70t24.5 -55t47.5 -36t68.5 -13q47 0 86.5 17t70 46t50.5 68t29 83l49 278h1q36 0 57.5 20t27.5 55h21q-8 -44 -32.5 -65t-57.5 -27v-1l-85 -482h-20l23 128q-35 -67 -94 -102.5t-128 -35.5q-85 0 -130 53zM322 570
l100 120h22l-103 -120h-19z" />
    <glyph glyph-name="uni1EEA" unicode="&#x1eea;" horiz-adv-x="680" 
d="M125 56q-57 66 -39 169l84 475h20l-84 -475q-17 -96 32 -156q49 -61 160 -61q51 0 96 14.5t80 42.5t58.5 68.5t32.5 91.5l84 475h3q36 0 57.5 20t27.5 55h21q-8 -45 -33 -66t-59 -26v-1l-81 -457q-10 -55 -35 -98.5t-62.5 -74t-85.5 -46.5t-103 -16q-116 0 -174 66z
M373 890h20l60 -120h-16z" />
    <glyph glyph-name="uni1EEB" unicode="&#x1eeb;" horiz-adv-x="575" 
d="M92 43q-44 53 -29 139l56 318h20l-56 -318q-6 -38 0.5 -70t24.5 -55t47.5 -36t68.5 -13q47 0 86.5 17t70 46t50.5 68t29 83l49 278h1q36 0 57.5 20t27.5 55h21q-8 -44 -32.5 -65t-57.5 -27v-1l-85 -482h-20l23 128q-35 -67 -94 -102.5t-128 -35.5q-85 0 -130 53zM304 690
l60 -120h-16l-64 120h20z" />
    <glyph glyph-name="uni1EEC" unicode="&#x1eec;" horiz-adv-x="680" 
d="M125 56q-57 66 -39 169l84 475h20l-84 -475q-17 -96 32 -156q49 -61 160 -61q51 0 96 14.5t80 42.5t58.5 68.5t32.5 91.5l84 475h3q36 0 57.5 20t27.5 55h21q-8 -45 -33 -66t-59 -26v-1l-81 -457q-10 -55 -35 -98.5t-62.5 -74t-85.5 -46.5t-103 -16q-116 0 -174 66z
M402 882q-6 3 -11 8q15 19 37 30t46 11q28 0 48.5 -15t15.5 -46q-4 -23 -17.5 -35.5t-28.5 -22t-28 -18.5t-14 -24h-16q3 18 16 29t28.5 21t28.5 21t16 28q4 21 -9 34.5t-42 13.5q-22 0 -38.5 -9t-31.5 -26z" />
    <glyph glyph-name="uni1EED" unicode="&#x1eed;" horiz-adv-x="575" 
d="M92 43q-44 53 -29 139l56 318h20l-56 -318q-6 -38 0.5 -70t24.5 -55t47.5 -36t68.5 -13q47 0 86.5 17t70 46t50.5 68t29 83l49 278h1q36 0 57.5 20t27.5 55h21q-8 -44 -32.5 -65t-57.5 -27v-1l-85 -482h-20l23 128q-35 -67 -94 -102.5t-128 -35.5q-85 0 -130 53zM301 682
q-6 3 -11 8q15 19 37 30t46 11q28 0 48.5 -15t15.5 -46q-4 -23 -17.5 -35.5t-28.5 -22t-28 -18.5t-14 -24h-16q3 18 16 29t28.5 21t28.5 21t16 28q4 21 -9 34.5t-42 13.5q-22 0 -38.5 -9t-31.5 -26z" />
    <glyph glyph-name="uni1EEE" unicode="&#x1eee;" horiz-adv-x="680" 
d="M125 56q-57 66 -39 169l84 475h20l-84 -475q-17 -96 32 -156q49 -61 160 -61q51 0 96 14.5t80 42.5t58.5 68.5t32.5 91.5l84 475h3q36 0 57.5 20t27.5 55h21q-8 -45 -33 -66t-59 -26v-1l-81 -457q-10 -55 -35 -98.5t-62.5 -74t-85.5 -46.5t-103 -16q-116 0 -174 66z
M303 790q2 13 8 29t15 30t21.5 23t29.5 9q32 0 66 -43q28 -36 56 -36q13 0 23 7t17 17.5t11.5 23.5t6.5 24h17q-3 -14 -8.5 -30t-14.5 -29.5t-22 -22t-30 -8.5q-33 0 -66 42q-30 37 -58 37q-20 0 -34.5 -19t-20.5 -54h-17z" />
    <glyph glyph-name="uni1EEF" unicode="&#x1eef;" horiz-adv-x="575" 
d="M92 43q-44 53 -29 139l56 318h20l-56 -318q-6 -38 0.5 -70t24.5 -55t47.5 -36t68.5 -13q47 0 86.5 17t70 46t50.5 68t29 83l49 278h1q36 0 57.5 20t27.5 55h21q-8 -44 -32.5 -65t-57.5 -27v-1l-85 -482h-20l23 128q-35 -67 -94 -102.5t-128 -35.5q-85 0 -130 53zM214 590
q2 13 8 29t15 30t21.5 23t29.5 9q32 0 66 -43q28 -36 56 -36q13 0 23 7t17 17.5t11.5 23.5t6.5 24h17q-3 -14 -8.5 -30t-14.5 -29.5t-22 -22t-30 -8.5q-33 0 -66 42q-30 37 -58 37q-20 0 -34.5 -19t-20.5 -54h-17z" />
    <glyph glyph-name="uni1EF0" unicode="&#x1ef0;" horiz-adv-x="680" 
d="M125 56q-57 66 -39 169l84 475h20l-84 -475q-17 -96 32 -156q49 -61 160 -61q51 0 96 14.5t80 42.5t58.5 68.5t32.5 91.5l84 475h3q36 0 57.5 20t27.5 55h21q-8 -45 -33 -66t-59 -26v-1l-81 -457q-10 -55 -35 -98.5t-62.5 -74t-85.5 -46.5t-103 -16q-116 0 -174 66z
M264 -134q-7 -7 -16 -7t-15.5 6.5t-4.5 16.5q5 23 27 23q17 0 19 -14t-10 -25z" />
    <glyph glyph-name="uni1EF1" unicode="&#x1ef1;" horiz-adv-x="575" 
d="M92 43q-44 53 -29 139l56 318h20l-56 -318q-6 -38 0.5 -70t24.5 -55t47.5 -36t68.5 -13q47 0 86.5 17t70 46t50.5 68t29 83l49 278h1q36 0 57.5 20t27.5 55h21q-8 -44 -32.5 -65t-57.5 -27v-1l-85 -482h-20l23 128q-35 -67 -94 -102.5t-128 -35.5q-85 0 -130 53z
M217 -134q-7 -7 -16 -7t-15.5 6.5t-4.5 16.5q5 23 27 23q17 0 19 -14t-10 -25z" />
    <glyph glyph-name="Ygrave" unicode="&#x1ef2;" horiz-adv-x="560" 
d="M120 700l176 -354l300 354h23l-315 -371l-58 -329h-20l58 330l-185 370h21zM337 890l60 -120h-16l-64 120h20z" />
    <glyph glyph-name="ygrave" unicode="&#x1ef3;" horiz-adv-x="510" 
d="M4 -182q33 0 62 12t54 32t45.5 45.5t36.5 52.5l9 15l-147 525h19l141 -501l288 501h22l-314 -546q-42 -72 -95.5 -113.5t-110.5 -41.5q-4 0 -7 0.5t-6 0.5zM244 690h20l60 -120h-16z" />
    <glyph glyph-name="uni1EF4" unicode="&#x1ef4;" horiz-adv-x="560" 
d="M120 700l176 -354l300 354h23l-315 -371l-58 -329h-20l58 330l-185 370h21zM230 -134q-7 -7 -16 -7t-15.5 6.5t-4.5 16.5q5 23 27 23q17 0 19 -14t-10 -25z" />
    <glyph glyph-name="uni1EF5" unicode="&#x1ef5;" horiz-adv-x="510" 
d="M4 -182q33 0 62 12t54 32t45.5 45.5t36.5 52.5l9 15l-147 525h19l141 -501l288 501h22l-314 -546q-42 -72 -95.5 -113.5t-110.5 -41.5q-4 0 -7 0.5t-6 0.5zM313 -134q-7 -7 -16 -7t-15.5 6.5t-4.5 16.5q5 23 27 23q17 0 19 -14t-10 -25z" />
    <glyph glyph-name="uni1EF6" unicode="&#x1ef6;" horiz-adv-x="560" 
d="M120 700l176 -354l300 354h23l-315 -371l-58 -329h-20l58 330l-185 370h21zM324 882q-6 3 -11 8q15 19 37 30t46 11q28 0 48.5 -15t15.5 -46q-4 -23 -17.5 -35.5t-28.5 -22t-28 -18.5t-14 -24h-16q3 18 16 29t28.5 21t28.5 21t16 28q4 21 -9 34.5t-42 13.5
q-22 0 -38.5 -9t-31.5 -26z" />
    <glyph glyph-name="uni1EF7" unicode="&#x1ef7;" horiz-adv-x="510" 
d="M4 -182q33 0 62 12t54 32t45.5 45.5t36.5 52.5l9 15l-147 525h19l141 -501l288 501h22l-314 -546q-42 -72 -95.5 -113.5t-110.5 -41.5q-4 0 -7 0.5t-6 0.5zM272 682q-6 3 -11 8q15 19 37 30t46 11q28 0 48.5 -15t15.5 -46q-4 -23 -17.5 -35.5t-28.5 -22t-28 -18.5
t-14 -24h-16q3 18 16 29t28.5 21t28.5 21t16 28q4 21 -9 34.5t-42 13.5q-22 0 -38.5 -9t-31.5 -26z" />
    <glyph glyph-name="uni1EF8" unicode="&#x1ef8;" horiz-adv-x="560" 
d="M99 700h21l176 -354l300 354h23l-315 -371l-58 -329h-20l58 330zM247 790q2 13 8 29t15 30t21.5 23t29.5 9q32 0 66 -43q28 -36 56 -36q13 0 23 7t17 17.5t11.5 23.5t6.5 24h17q-3 -14 -8.5 -30t-14.5 -29.5t-22 -22t-30 -8.5q-33 0 -66 42q-30 37 -58 37
q-20 0 -34.5 -19t-20.5 -54h-17z" />
    <glyph glyph-name="uni1EF9" unicode="&#x1ef9;" horiz-adv-x="510" 
d="M4 -182q33 0 62 12t54 32t45.5 45.5t36.5 52.5l9 15l-147 525h19l141 -501l288 501h22l-314 -546q-42 -72 -95.5 -113.5t-110.5 -41.5q-4 0 -7 0.5t-6 0.5zM174 590q2 13 8 29t15 30t21.5 23t29.5 9q32 0 66 -43q28 -36 56 -36q13 0 23 7t17 17.5t11.5 23.5t6.5 24h17
q-3 -14 -8.5 -30t-14.5 -29.5t-22 -22t-30 -8.5q-33 0 -66 42q-30 37 -58 37q-20 0 -34.5 -19t-20.5 -54h-17z" />
    <glyph glyph-name="endash" unicode="&#x2013;" horiz-adv-x="697" 
d="M109 300l3 18h497l-3 -18h-497z" />
    <glyph glyph-name="emdash" unicode="&#x2014;" horiz-adv-x="797" 
d="M109 300l3 18h597l-3 -18h-597z" />
    <glyph glyph-name="quoteleft" unicode="&#x2018;" horiz-adv-x="190" 
d="M113 525l72 175h19l-64 -175h-27z" />
    <glyph glyph-name="quoteright" unicode="&#x2019;" horiz-adv-x="190" 
d="M204 700l-72 -175h-19l64 175h27z" />
    <glyph glyph-name="quotesinglbase" unicode="&#x201a;" horiz-adv-x="190" 
d="M87 35l-72 -175h-19l64 175h27z" />
    <glyph glyph-name="quotedblleft" unicode="&#x201c;" horiz-adv-x="290" 
d="M213 525l72 175h19l-64 -175h-27zM113 525l72 175h19l-64 -175h-27z" />
    <glyph glyph-name="quotedblright" unicode="&#x201d;" horiz-adv-x="290" 
d="M277 700h27l-72 -175h-19zM177 700h27l-72 -175h-19z" />
    <glyph glyph-name="quotedblbase" unicode="&#x201e;" horiz-adv-x="290" 
d="M160 35h27l-72 -175h-19zM60 35h27l-72 -175h-19z" />
    <glyph glyph-name="dagger" unicode="&#x2020;" horiz-adv-x="460" 
d="M113 494l3 18h150l33 188h20l-33 -188h150l-3 -18h-150l-87 -494h-20l87 494h-150z" />
    <glyph glyph-name="daggerdbl" unicode="&#x2021;" horiz-adv-x="460" 
d="M62 206h150l51 288h-150l3 18h150l33 188h20l-33 -188h150l-3 -18h-150l-51 -288h150l-3 -18h-150l-33 -188h-20l33 188h-150z" />
    <glyph glyph-name="bullet" unicode="&#x2022;" horiz-adv-x="241" 
d="M128 290q-25 0 -40 18.5t-10 44.5q4 25 24.5 41t46.5 16q25 0 39.5 -18t9.5 -43q-4 -25 -24.5 -42t-45.5 -17z" />
    <glyph glyph-name="ellipsis" unicode="&#x2026;" horiz-adv-x="560" 
d="M424 -10q-10 0 -16 7.5t-4 18.5q4 24 29 24q10 0 16 -7.5t4 -18.5q-5 -24 -29 -24zM234 -10q-10 0 -16 7.5t-4 18.5q4 24 29 24q10 0 16 -7.5t4 -18.5q-5 -24 -29 -24zM44 -10q-10 0 -16 7.5t-4 18.5q4 24 29 24q10 0 16 -7.5t4 -18.5q-5 -24 -29 -24z" />
    <glyph glyph-name="perthousand" unicode="&#x2030;" horiz-adv-x="1099" 
d="M359 34q-37 43 -26 106q5 32 21.5 59t40.5 46.5t54 30t62 10.5q64 0 102 -44q37 -43 26 -106q-6 -33 -22 -60t-40 -46t-53.5 -29.5t-62.5 -10.5q-64 0 -102 44zM729 34q-37 43 -26 106q5 32 21.5 59t40.5 46.5t54 30t62 10.5q64 0 102 -44q37 -43 26 -106q-6 -33 -22 -60
t-40 -46t-53.5 -29.5t-62.5 -10.5q-64 0 -102 44zM151 458q-37 43 -26 106q5 32 21.5 59t40.5 46.5t54 30t62 10.5q64 0 102 -44q37 -43 26 -106q-6 -33 -22 -60t-40 -46t-53.5 -29.5t-62.5 -10.5q-64 0 -102 44zM353 138q-5 -28 1 -52t20.5 -41t37 -27t51.5 -10t55 9.5
t46.5 27t35 41t19.5 52.5q5 28 -0.5 52t-20.5 41t-38 27t-51 10q-29 0 -55 -9.5t-46.5 -27t-35 -41.5t-19.5 -52zM145 562q-5 -28 1 -52t20.5 -41t37 -27t51.5 -10t55 9.5t46.5 27t35 41t19.5 52.5q5 28 -0.5 52t-20.5 41t-38 27t-51 10q-29 0 -55 -9.5t-46.5 -27t-35 -41.5
t-19.5 -52zM723 138q-5 -28 1 -52t20.5 -41t37 -27t51.5 -10t55 9.5t46.5 27t35 41t19.5 52.5q5 28 -0.5 52t-20.5 41t-38 27t-51 10q-29 0 -55 -9.5t-46.5 -27t-35 -41.5t-19.5 -52zM82 79l582 551l18 -9l-582 -551z" />
    <glyph glyph-name="guilsinglleft" unicode="&#x2039;" horiz-adv-x="324" 
d="M263 469l-131 -162l71 -158h-21l-72 160l129 160h24z" />
    <glyph glyph-name="guilsinglright" unicode="&#x203a;" horiz-adv-x="325" 
d="M163 469l72 -160l-129 -160h-24l131 162l-71 158h21z" />
    <glyph glyph-name="fraction" unicode="&#x2044;" horiz-adv-x="240" 
d="M-121 0h-23l540 700h23z" />
    <glyph glyph-name="Euro" unicode="&#x20ac;" horiz-adv-x="620" 
d="M34 272l3 18h92q3 31 8 60.5t13 59.5h-92l3 18h94q38 133 116 207.5t183 74.5q69 0 115.5 -35.5t65.5 -98.5l-17 -8q-17 60 -59.5 92t-105.5 32q-94 0 -167 -69t-111 -195h296l-3 -18h-298q-15 -58 -21 -120h298l-3 -18h-296q-7 -126 41.5 -195t142.5 -69q64 0 118 32.5
t91 93.5l17 -9q-83 -135 -229 -135q-51 0 -90 19.5t-65 56.5t-37.5 89t-8.5 117h-94z" />
    <glyph glyph-name="uni20BD" unicode="&#x20bd;" horiz-adv-x="550" 
d="M-16 160l3 18h90l22 122h-90l3 18h90l67 382h220q80 0 129 -61q50 -62 35 -143q-8 -42 -29 -78t-52.5 -62.5t-70.5 -41t-82 -14.5h-200l-22 -122h280l-3 -18h-280l-28 -160h-20l28 160h-90zM122 318h200q39 0 74 14.5t63.5 39t48 57.5t26.5 71q13 74 -31 128t-117 54
h-200z" />
    <glyph glyph-name="uni2116" unicode="&#x2116;" horiz-adv-x="1026" 
d="M770 472q-34 42 -24 100q5 30 20.5 55.5t38 43.5t51 28.5t58.5 10.5q59 0 94 -42q34 -42 24 -100q-6 -31 -21 -56.5t-37 -43.5t-50.5 -28t-59.5 -10q-60 0 -94 42zM766 570q-5 -26 1 -48t19.5 -38.5t34.5 -26t47 -9.5q27 0 51 9t43 25.5t32 39t18 48.5q4 26 -1.5 48
t-19 38.5t-34 26t-46.5 9.5t-50.5 -9.5t-44 -26t-33 -38.5t-17.5 -48zM179 700h20l342 -667l118 667h20l-123 -700h-20l-342 667l-118 -667h-20zM711 314l4 18h266l-4 -18h-266z" />
    <glyph glyph-name="trademark" unicode="&#x2122;" horiz-adv-x="505" 
d="M324 700h20l52 -122l96 122h22l-35 -200h-20l29 164l-94 -118h-4l-52 119l-29 -165h-20zM149 700h142l-3 -19h-62l-32 -181h-20l32 181h-60z" />
    <glyph glyph-name="estimated" unicode="&#x212e;" horiz-adv-x="860" 
d="M141 98q-89 108 -62 262q14 80 53.5 144.5t97 110.5t129.5 70.5t152 24.5q161 0 247 -105q43 -53 59 -116t1 -139q-3 -15 -18 -15h-560q-15 0 -18 -15l-33 -192q-3 -11 3 -19q72 -89 218 -89q72 0 135.5 23t114.5 74q9 9 19 9h35q10 0 12 -6t-6 -13q-68 -56 -145 -86.5
t-171 -30.5q-173 0 -263 108zM233 380q-3 -15 12 -15h410q15 0 18 15l35 194q1 10 -4 19q-29 48 -80.5 67.5t-117.5 19.5q-65 0 -123 -20.5t-106 -68.5q-9 -9 -10 -19z" />
    <glyph glyph-name="oneeighth" unicode="&#x215b;" horiz-adv-x="840" 
d="M618 -12q-30 0 -54 8.5t-40 23.5t-23 36t-2 47q7 40 34 67.5t69 39.5q-30 13 -45.5 37.5t-9.5 57.5q9 51 49 79t94 28q25 0 46.5 -8t36.5 -22.5t21 -35t2 -45.5q-12 -67 -87 -92q35 -13 53 -42t11 -68q-9 -52 -50.5 -81.5t-104.5 -29.5zM519 101q-8 -45 19.5 -70
t81.5 -25q52 0 88.5 25t44.5 70q7 45 -20.5 72t-78.5 27t-89.5 -27t-45.5 -72zM567 303q-6 -38 20.5 -61.5t69.5 -23.5q21 0 41 6t36.5 17.5t27.5 27t14 34.5q8 42 -17.5 66.5t-70.5 24.5t-79 -24t-42 -67zM101 0l540 700h23l-540 -700h-23zM234 700h10l-71 -400h-20l66 373
l-126 -43l-3 18z" />
    <glyph glyph-name="threeeighths" unicode="&#x215c;" horiz-adv-x="938" 
d="M716 -12q-30 0 -54 8.5t-40 23.5t-23 36t-2 47q7 40 34 67.5t69 39.5q-30 13 -45.5 37.5t-9.5 57.5q9 51 49 79t94 28q25 0 46.5 -8t36.5 -22.5t21 -35t2 -45.5q-12 -67 -87 -92q35 -13 53 -42t11 -68q-9 -52 -50.5 -81.5t-104.5 -29.5zM617 101q-8 -45 19.5 -70
t81.5 -25q52 0 88.5 25t44.5 70q7 45 -20.5 72t-78.5 27t-89.5 -27t-45.5 -72zM665 303q-6 -38 20.5 -61.5t69.5 -23.5q21 0 41 6t36.5 17.5t27.5 27t14 34.5q8 42 -17.5 66.5t-70.5 24.5t-79 -24t-42 -67zM174 288q-97 0 -118 74l18 9q17 -65 101 -65q55 0 90 30.5t43 75.5
q7 45 -17 75.5t-79 30.5h-2l-7 13l134 151h-215l3 18h238l-3 -18l-131 -147q54 -4 80 -40t18 -85q-9 -54 -49 -88t-104 -34zM739 700h23l-540 -700h-23z" />
    <glyph glyph-name="fiveeighths" unicode="&#x215d;" horiz-adv-x="932" 
d="M710 -12q-30 0 -54 8.5t-40 23.5t-23 36t-2 47q7 40 34 67.5t69 39.5q-30 13 -45.5 37.5t-9.5 57.5q9 51 49 79t94 28q25 0 46.5 -8t36.5 -22.5t21 -35t2 -45.5q-12 -67 -87 -92q35 -13 53 -42t11 -68q-9 -52 -50.5 -81.5t-104.5 -29.5zM611 101q-8 -45 19.5 -70
t81.5 -25q52 0 88.5 25t44.5 70q7 45 -20.5 72t-78.5 27t-89.5 -27t-45.5 -72zM659 303q-6 -38 20.5 -61.5t69.5 -23.5q21 0 41 6t36.5 17.5t27.5 27t14 34.5q8 42 -17.5 66.5t-70.5 24.5t-79 -24t-42 -67zM72 368q17 -62 100 -62q51 0 87.5 28.5t45.5 77.5t-18 77.5
t-78 28.5h-110l47 182h212l-3 -18h-194l-39 -146h90q29 0 51.5 -9.5t37.5 -26.5t21 -40t2 -50q-9 -54 -51 -88t-102 -34q-93 0 -116 71zM733 700h23l-540 -700h-23z" />
    <glyph glyph-name="seveneighths" unicode="&#x215e;" horiz-adv-x="931" 
d="M709 -12q-30 0 -54 8.5t-40 23.5t-23 36t-2 47q7 40 34 67.5t69 39.5q-30 13 -45.5 37.5t-9.5 57.5q9 51 49 79t94 28q25 0 46.5 -8t36.5 -22.5t21 -35t2 -45.5q-12 -67 -87 -92q35 -13 53 -42t11 -68q-9 -52 -50.5 -81.5t-104.5 -29.5zM610 101q-8 -45 19.5 -70
t81.5 -25q52 0 88.5 25t44.5 70q7 45 -20.5 72t-78.5 27t-89.5 -27t-45.5 -72zM658 303q-6 -38 20.5 -61.5t69.5 -23.5q21 0 41 6t36.5 17.5t27.5 27t14 34.5q8 42 -17.5 66.5t-70.5 24.5t-79 -24t-42 -67zM732 700h23l-540 -700h-23zM106 682l3 18h266l-3 -16l-235 -384
h-22l234 382h-243z" />
    <glyph glyph-name="arrowleft" unicode="&#x2190;" horiz-adv-x="840" 
d="M789 359l-3 -18h-666l239 -291h-24l-247 300l353 300h28l-342 -291h662z" />
    <glyph glyph-name="arrowup" unicode="&#x2191;" horiz-adv-x="740" 
d="M696 400l-4 -25l-239 290l-117 -665h-20l117 661l-342 -290l5 29l353 300z" />
    <glyph glyph-name="arrowright" unicode="&#x2192;" horiz-adv-x="840" 
d="M541 650l247 -300l-353 -300h-28l342 291h-663l3 18h667l-239 291h24z" />
    <glyph glyph-name="arrowdown" unicode="&#x2193;" horiz-adv-x="740" 
d="M343 39l341 289l-5 -28l-353 -300l-247 300l4 23l239 -290l117 667h20z" />
    <glyph glyph-name="arrowboth" unicode="&#x2194;" horiz-adv-x="1020" 
d="M370 590h28l-271 -231h809l-190 231h24l198 -240l-283 -240h-28l272 231h-809l189 -231h-24l-197 240z" />
    <glyph glyph-name="arrowupdn" unicode="&#x2195;" horiz-adv-x="640" 
d="M608 525l-188 228l-146 -806l272 232l-5 -29l-282 -240l-196 240l4 26l187 -229l146 806l-271 -232l5 29l280 240l198 -240z" />
    <glyph glyph-name="uni2196" unicode="&#x2196;" horiz-adv-x="642" 
d="M569 568h-412l388 -469l-16 -13l-386 470l-73 -412l-15 19l75 424h424z" />
    <glyph glyph-name="uni2197" unicode="&#x2197;" horiz-adv-x="642" 
d="M208 587h423l-75 -424l-23 -19l72 410l-550 -470l-12 15l551 469h-409z" />
    <glyph glyph-name="uni2198" unicode="&#x2198;" horiz-adv-x="642" 
d="M603 532l15 -19l-74 -424h-424l-16 19h412l-388 470l15 13l387 -471z" />
    <glyph glyph-name="uni2199" unicode="&#x2199;" horiz-adv-x="642" 
d="M629 575l-551 -467h410l-22 -19h-424l74 424l23 19l-72 -410l549 468z" />
    <glyph glyph-name="partialdiff" unicode="&#x2202;" horiz-adv-x="580" 
d="M81 51q-45 62 -29 151q9 50 31.5 92t56.5 72t77.5 47t96.5 17q116 0 196 -62q21 141 -33 232q-54 92 -163 92q-71 0 -126 -34l4 22q55 30 125 30q115 0 177 -101t33 -263q-11 -60 -34 -123.5t-61 -115t-91.5 -84.5t-124.5 -33q-90 0 -135 61zM71 200q-15 -85 26 -139
q41 -53 121 -53q66 0 115.5 32.5t85 82t57 109.5t31.5 115q-83 65 -195 65q-48 0 -88.5 -16t-72 -44t-52 -67t-28.5 -85z" />
    <glyph glyph-name="emptyset" unicode="&#x2205;" horiz-adv-x="844" 
d="M155 79q-51 51 -71.5 122t-5.5 152q13 75 52 140.5t96 113.5t127.5 75.5t147.5 27.5q122 0 210 -77l87 87h26l-100 -100q51 -51 71 -121.5t6 -151.5q-14 -75 -52.5 -140.5t-95.5 -113.5t-127.5 -75.5t-147.5 -27.5q-124 0 -210 77l-87 -87h-26zM98 350q-27 -157 70 -257
l529 527q-78 72 -197 72q-73 0 -140 -27t-121 -73.5t-91 -108.5t-50 -133zM181 80q79 -72 198 -72q72 0 139.5 27t121.5 73.5t91 108.5t50 133q14 76 -5.5 142.5t-64.5 114.5z" />
    <glyph glyph-name="product" unicode="&#x220f;" horiz-adv-x="640" 
d="M179 700h440l-158 -900h-20l155 882h-400l-155 -882h-20z" />
    <glyph glyph-name="summation" unicode="&#x2211;" horiz-adv-x="542" 
d="M-9 -200l3 20l357 443l-192 423l3 14h404l-3 -18h-384l193 -423l-356 -441h410l-3 -18h-432z" />
    <glyph glyph-name="minus" unicode="&#x2212;" 
d="M86 341l3 18h400l-3 -18h-400z" />
    <glyph glyph-name="radical" unicode="&#x221a;" horiz-adv-x="629" 
d="M270 0l-118 282h-76l3 18h84l118 -280l393 780h22l-404 -800h-22z" />
    <glyph glyph-name="infinity" unicode="&#x221e;" horiz-adv-x="819" 
d="M209 200q-32 0 -57 11t-41 31.5t-22.5 48.5t-0.5 61t21.5 60.5t38 47t50.5 30t60 10.5q26 0 50 -9.5t40 -21.5q16 -11 33 -33q9 -11 15 -19t11.5 -15.5t10.5 -16t12 -20.5l34 37q18 19 38 37t43 31.5t48 21.5t52 8q63 0 97 -43q17 -22 23.5 -48.5t0.5 -60.5
q-6 -33 -21.5 -60.5t-38 -47t-51 -30t-59.5 -10.5q-33 0 -58.5 11.5t-45 30.5t-35.5 43t-31 50q-22 -24 -45.5 -48t-50 -43.5t-56.5 -31.5t-65 -12zM108 350q-10 -58 17.5 -95t84.5 -37q30 0 59 11t58 35l45 39l45 48q-14 24 -29 47.5t-34 42t-42.5 30t-54.5 11.5
q-57 0 -97.5 -36t-51.5 -96zM439 349q13 -24 28 -47.5t33.5 -42t42 -30t54.5 -11.5q57 0 97.5 36t51.5 96t-17 96t-85 36q-31 0 -59.5 -12.5t-54.5 -32t-49 -43t-42 -45.5z" />
    <glyph glyph-name="integral" unicode="&#x222b;" horiz-adv-x="431" 
d="M-76 -184q22 -11 43 -11q35 0 65.5 28t48.5 79l237 680q21 60 57.5 90t83.5 30q25 0 52 -9l-3 -19q-24 10 -49 10q-40 0 -71.5 -27t-49.5 -79l-237 -680q-20 -58 -56.5 -89t-80.5 -31q-11 0 -22 1.5t-22 6.5z" />
    <glyph glyph-name="approxequal" unicode="&#x2248;" horiz-adv-x="572" 
d="M65 224q5 10 15 27t25.5 33t36 27.5t47.5 11.5q22 0 48 -9.5t57 -35.5q26 -22 51.5 -31.5t45.5 -9.5q19 0 35 8t29 20.5t23 28t18 30.5l18 -8q-8 -18 -20 -36t-27.5 -32t-34.5 -22.5t-41 -8.5t-48 10t-58 35q-27 21 -52.5 30.5t-45.5 9.5q-18 0 -34 -7.5t-29.5 -20
t-24 -28t-16.5 -30.5zM94 384q8 19 20 36.5t27.5 31.5t35 22.5t41.5 8.5t48 -10t56 -35q27 -22 52.5 -31.5t45.5 -9.5q19 0 35 8t29 20.5t23 28t17 30.5l18 -8q-7 -16 -17 -32.5t-31 -35.5q-14 -14 -32 -22.5t-40 -8.5q-23 0 -50 10.5t-59 34.5q-28 21 -53 30.5t-45 9.5
q-18 0 -34 -7.5t-29.5 -20t-23.5 -28t-17 -30.5z" />
    <glyph glyph-name="notequal" unicode="&#x2260;" horiz-adv-x="530" 
d="M72 259h147l116 182h-231l3 18h240l106 166h22l-106 -166h128l-3 -18h-137l-116 -182h221l-4 -18h-229l-106 -166h-22l106 166h-139z" />
    <glyph glyph-name="lessequal" unicode="&#x2264;" 
d="M527 580l-3 -21l-404 -152l350 -152l-3 -19l-371 163l4 18zM47 120l3 18h399l-3 -18h-399z" />
    <glyph glyph-name="greaterequal" unicode="&#x2265;" 
d="M128 580l371 -163l-4 -18l-427 -163l3 21l404 152l-350 152zM47 120l3 18h399l-3 -18h-399z" />
    <glyph glyph-name="lozenge" unicode="&#x25ca;" horiz-adv-x="534" 
d="M213 0l-125 350l248 350h20l126 -350l-249 -350h-20zM225 23l235 330l-116 324l-234 -330z" />
    <glyph glyph-name="NULL" horiz-adv-x="0" 
 />
    <glyph glyph-name="i.loclTRK" horiz-adv-x="200" 
d="M134 500h20l-88 -500h-20zM138 588q-7 9 -5 22t12 21q10 9 24 9q11 0 19 -9q7 -8 5 -21t-12 -22q-9 -9 -22 -9q-14 0 -21 9z" />
    <glyph glyph-name="f_f_j" horiz-adv-x="768" 
d="M71 482l3 18h90l7 40q14 83 60.5 127t126.5 44h10.5t11.5 -1l-3 -18q-6 1 -11.5 1h-11.5q-136 0 -163 -153l-7 -40h249l9 50q30 170 209 170q26 0 50.5 -2.5t47.5 -7.5l-3 -18q-23 5 -47.5 7.5t-50.5 2.5q-84 0 -128 -37t-58 -115l-9 -50h269l-104 -590
q-10 -57 -45.5 -89t-93.5 -32h-10.5t-10.5 1l3 18q6 -1 12 -1h11q96 0 114 103l101 572h-249l-85 -482h-20l85 482h-249l-85 -482h-20l85 482h-90z" />
    <glyph glyph-name="f_j" horiz-adv-x="499" 
d="M71 482l3 18h90l7 40q15 87 65.5 128.5t143.5 41.5q26 0 50.5 -2.5t47.5 -7.5l-3 -18q-23 5 -47.5 7.5t-50.5 2.5q-84 0 -128 -37t-58 -115l-7 -40h269l-104 -590q-10 -57 -45.5 -89t-93.5 -32h-10.5t-10.5 1l3 18q6 -1 12 -1h11q96 0 114 103l101 572h-249l-85 -482h-20
l85 482h-90z" />
    <glyph glyph-name="uni0414.loclBGR" horiz-adv-x="710" 
d="M-11 18h63l370 682h25l130 -682h62l-27 -152h-20l24 134h-610l-24 -134h-20zM557 18l-125 661l-358 -661h483z" />
    <glyph glyph-name="uni041B.loclBGR" horiz-adv-x="598" 
d="M366 700h25l143 -700h-20l-138 678l-378 -678h-22z" />
    <glyph glyph-name="uni0424.loclBGR" horiz-adv-x="865" 
d="M135 94q-85 100 -57 260q14 81 52 146t94 111t127 71.5t152 27.5l16 90h20l-16 -90q155 -4 241 -105t58 -259q-14 -81 -52 -146t-94 -111.5t-127.5 -72t-152.5 -26.5l-16 -90h-20l16 90q-156 5 -241 104zM399 8q78 1 145.5 26t120.5 69.5t88.5 107t48.5 139.5
q25 148 -51 243q-77 96 -231 99zM98 350q-26 -149 50 -244q77 -95 231 -98l121 684q-78 -2 -145.5 -26.5t-120 -69t-88 -107t-48.5 -139.5z" />
    <glyph glyph-name="uni0414.ss01" horiz-adv-x="690" 
d="M-19 0l3 18h53q92 81 122 254l75 428h420l-120 -682h70l-3 -18h-620zM514 18l117 664h-380l-72 -410q-30 -172 -115 -254h450z" />
    <glyph glyph-name="uni0426.ss01" horiz-adv-x="690" 
d="M56 0l123 700h20l-120 -682h440l120 682h20l-120 -682h70l-3 -18h-550z" />
    <glyph glyph-name="uni0429.ss01" horiz-adv-x="980" 
d="M179 700h20l-120 -682h355l120 682h20l-120 -682h355l120 682h20l-120 -682h70l-3 -18h-840z" />
    <glyph glyph-name="uni0414.loclBGR.ss01" horiz-adv-x="710" 
d="M-14 0l3 18h63l370 682h25l130 -682h62l-3 -18h-650zM74 18h483l-125 661z" />
    <glyph glyph-name="uni0432.loclBGR" horiz-adv-x="581" 
d="M268 -10q-51 0 -89.5 16.5t-62 47.5t-31.5 75.5t2 100.5l45 256q19 109 78 166.5t156 57.5q75 0 117 -47t32 -107q-8 -45 -40.5 -86t-86.5 -69q78 -13 113 -69t20 -138q-18 -100 -82.5 -152t-170.5 -52zM107 230q-19 -106 24.5 -164t139.5 -58q94 0 154 49.5t76 140.5
q18 102 -43 154q-42 36 -115 36q-17 0 -34 -1.5t-37 -5.5l-143 -26zM275 399q21 4 42 5t42 1q58 28 93 69.5t43 84.5q10 52 -28 93q-37 40 -104 40q-85 0 -139 -53t-72 -153l-20 -113z" />
    <glyph glyph-name="uni0433.loclBGR" horiz-adv-x="465" 
d="M65 30q-42 40 -31 100q9 51 46.5 79.5t85.5 38.5q36 8 73.5 15t69.5 19.5t55 32.5t29 55q4 27 -2.5 49t-23 38.5t-40.5 25.5t-54 9q-114 0 -166 -93l-16 10q26 46 73.5 73.5t111.5 27.5q68 0 107 -41q40 -43 30 -99q-9 -49 -46 -77t-86 -38l-72.5 -14.5t-70 -20
t-55.5 -34t-29 -56.5q-5 -27 2.5 -49t25.5 -38.5t45 -25.5t61 -9q134 0 185 101l16 -9q-57 -110 -204 -110q-77 0 -120 40z" />
    <glyph glyph-name="uni0434.loclBGR" horiz-adv-x="672" 
d="M256 -210q-87 0 -142.5 33.5t-71.5 84.5l17 9q14 -46 65.5 -77.5t132.5 -31.5q53 0 97.5 15t79 44t57.5 70t32 94l19 109q-19 -35 -46 -62.5t-59.5 -47t-70 -30t-76.5 -10.5q-112 0 -180 80q-66 78 -48 193q8 53 34.5 98t65.5 78t88 52t102 19q42 0 79.5 -13t67 -36.5
t49.5 -57t28 -75.5l30 172h20l-83 -469q-20 -112 -94.5 -176.5t-192.5 -64.5zM82 260q-17 -105 44 -178q62 -74 165 -74q47 0 92.5 17.5t82.5 47.5t62 71t31 89l1 8q7 52 -3 96t-41 81q-62 74 -165 74q-98 0 -176 -66q-77 -66 -93 -166z" />
    <glyph glyph-name="uni0436.loclBGR" horiz-adv-x="640" 
d="M295 262l-207 238h23l204 -233l76 433h20l-76 -434l285 234h28l-296 -242l214 -258h-23l-210 253l-45 -253h-20l44 253l-298 -253h-28z" />
    <glyph glyph-name="uni0438.loclBGR" horiz-adv-x="575" 
d="M92 43q-44 53 -29 139l56 318h20l-56 -318q-6 -38 0.5 -70t24.5 -55t47.5 -36t68.5 -13q47 0 86.5 17t70 46t50.5 68t29 83l49 278h20l-88 -500h-20l23 128q-35 -67 -94 -102.5t-128 -35.5q-85 0 -130 53z" />
    <glyph glyph-name="uni0439.loclBGR" horiz-adv-x="575" 
d="M92 43q-44 53 -29 139l56 318h20l-56 -318q-6 -38 0.5 -70t24.5 -55t47.5 -36t68.5 -13q47 0 86.5 17t70 46t50.5 68t29 83l49 278h20l-88 -500h-20l23 128q-35 -67 -94 -102.5t-128 -35.5q-85 0 -130 53zM227 617h240l-3 -16h-240z" />
    <glyph glyph-name="uni043A.loclBGR" horiz-adv-x="461" 
d="M169 700h20l-76 -435l326 235h31l-337 -242l254 -258h-26l-250 254l-45 -254h-20z" />
    <glyph glyph-name="uni043B.loclBGR" horiz-adv-x="492" 
d="M-24 0l303 500h22l127 -500h-19l-121 478l-290 -478h-22z" />
    <glyph glyph-name="uni043F.loclBGR" horiz-adv-x="575" 
d="M46 0l88 500h20l-23 -128q35 67 94 102.5t128 35.5q85 0 129 -53q45 -54 30 -139l-56 -318h-20l56 318q6 38 -0.5 70t-24.5 55t-47.5 36t-68.5 13q-86 0 -151 -59q-66 -60 -85 -155l-49 -278h-20z" />
    <glyph glyph-name="uni0442.loclBGR" horiz-adv-x="875" 
d="M46 0l88 500h20l-20 -114q32 63 85 93.5t111 30.5q61 0 100.5 -33t41.5 -99q32 66 86.5 99t115.5 33q73 0 114 -47q41 -48 25 -136l-57 -327h-20l57 327q14 79 -19.5 122t-102.5 43q-76 0 -133 -52t-76 -148l-51 -292h-20l57 327q14 79 -18.5 122t-101.5 43
q-76 0 -133.5 -52.5t-76.5 -145.5l-52 -294h-20z" />
    <glyph glyph-name="uni0446.loclBGR" horiz-adv-x="595" 
d="M92 43q-44 53 -29 139l56 318h20l-56 -318q-6 -38 0.5 -70t24.5 -55t47.5 -36t68.5 -13q46 0 85 16.5t69 45t50.5 66t30.5 80.5l50 284h20l-76 -430q-9 -52 41 -52h20l-28 -162h-20l25 144q-30 0 -46.5 19.5t-11.5 50.5l10 57q-34 -66 -93 -101.5t-128 -35.5
q-85 0 -130 53z" />
    <glyph glyph-name="uni0448.loclBGR" horiz-adv-x="875" 
d="M87 37q-41 48 -25 136l57 327h20l-57 -327q-14 -79 19.5 -122t102.5 -43q76 0 133 52t76 148l51 292h20l-57 -327q-14 -79 18.5 -122t101.5 -43q76 0 133.5 52.5t76.5 145.5l52 294h20l-88 -500h-20l20 114q-32 -63 -85 -93.5t-111 -30.5q-61 0 -100.5 33t-41.5 99
q-32 -66 -86.5 -99t-115.5 -33q-73 0 -114 47z" />
    <glyph glyph-name="uni0449.loclBGR" horiz-adv-x="895" 
d="M87 37q-41 48 -25 136l57 327h20l-57 -327q-14 -79 19.5 -122t102.5 -43q76 0 133 52t76 148l51 292h20l-57 -327q-14 -79 18.5 -122t101.5 -43q38 0 71.5 13t61 38t47.5 61.5t30 83.5l52 296h20l-76 -430q-9 -52 41 -52h20l-27 -152h-20l24 134q-30 0 -47 19.5t-11 50.5
l7 38q-33 -60 -85.5 -89t-109.5 -29q-61 0 -100.5 33t-41.5 99q-32 -66 -86.5 -99t-115.5 -33q-73 0 -114 47z" />
    <glyph glyph-name="uni044C.loclBGR" horiz-adv-x="485" 
d="M222 -10q-91 0 -133.5 47t-29.5 123l60 340h20l-32 -180h165q81 0 125 -48q44 -49 31 -121q-14 -73 -69 -117t-137 -44zM79 160q-12 -69 24.5 -110.5t118.5 -41.5q34 0 65.5 10t56 28.5t41.5 46t23 62.5q5 32 -2 59t-25 46.5t-46.5 30.5t-65.5 11h-165z" />
    <glyph glyph-name="uni044A.loclBGR" horiz-adv-x="570" 
d="M41 482l3 18h180l-32 -180h165q81 0 125 -48q44 -49 31 -121q-14 -73 -69 -117t-137 -44q-91 0 -133.5 47t-29.5 123l57 322h-160zM164 160q-12 -69 24.5 -110.5t118.5 -41.5q34 0 65.5 10t56 28.5t41.5 46t23 62.5q5 32 -2 59t-25 46.5t-46.5 30.5t-65.5 11h-165z" />
    <glyph glyph-name="uni044E.loclBGR" horiz-adv-x="810" 
d="M169 700h20l-77 -441h128q10 54 38.5 99.5t69 79.5t91 53t105.5 19q108 0 171 -77q64 -77 44 -187q-10 -55 -38 -102t-68.5 -81t-91.5 -53.5t-107 -19.5q-105 0 -168 72q-62 73 -49 179h-129l-42 -241h-20zM259 250q-18 -102 39 -172t158 -70q52 0 99 19t85 51.5t64 76.5
t35 95q18 102 -40 172t-157 70q-52 0 -99 -19t-85 -51.5t-64 -76.5t-35 -95z" />
    <glyph glyph-name="zero.sinf" horiz-adv-x="410" 
d="M22 -113q-36 58 -19 154q8 48 26 87t44 66.5t59 42.5t71 15q75 0 111 -59q36 -58 19 -154q-8 -48 -26 -87t-44 -66.5t-59 -42.5t-71 -15q-75 0 -111 59zM23 40q-16 -88 14 -141t97 -53q40 0 70.5 17.5t52.5 45t36 62t20 69.5q16 88 -14 141t-97 53q-40 0 -70.5 -17.5
t-52.5 -45t-36 -62.5t-20 -69z" />
    <glyph glyph-name="one.sinf" horiz-adv-x="235" 
d="M153 240h10l-71 -400h-20l66 373l-126 -43l-3 18z" />
    <glyph glyph-name="two.sinf" horiz-adv-x="346" 
d="M-32 -160l2 15l221 181q61 50 68 103q5 39 -18.5 67t-69.5 28q-40 0 -74 -21.5t-49 -53.5l-17 9q18 37 55.5 60.5t85.5 23.5q57 0 84.5 -33t21.5 -81q-7 -59 -73 -114l-202 -166h234l-3 -18h-266z" />
    <glyph glyph-name="three.sinf" horiz-adv-x="338" 
d="M92 -172q-97 0 -118 74l18 9q17 -65 101 -65q55 0 90 30.5t43 75.5q7 45 -17 75.5t-79 30.5h-2l-7 13l134 151h-215l3 18h238l-3 -18l-131 -147q54 -4 80 -40t18 -85q-9 -54 -49 -88t-104 -34z" />
    <glyph glyph-name="four.sinf" horiz-adv-x="359" 
d="M-33 -52l205 292h21l-204 -292h205l21 121h20l-21 -121h62l-3 -18h-62l-16 -90h-20l16 90h-227z" />
    <glyph glyph-name="five.sinf" horiz-adv-x="320" 
d="M89 -172q-93 0 -116 71l17 9q17 -62 100 -62q51 0 87.5 28.5t45.5 77.5t-18 77.5t-78 28.5h-110l47 182h212l-3 -18h-194l-39 -146h90q29 0 51.5 -9.5t37.5 -26.5t21 -40t2 -50q-9 -54 -51 -88t-102 -34z" />
    <glyph glyph-name="six.sinf" horiz-adv-x="335" 
d="M3 -134q-34 37 -24 94q8 40 32 70l175 210h24l-139 -167q34 14 67 14q56 0 91 -38q34 -38 24 -93q-5 -29 -19.5 -52.5t-35.5 -40t-47.5 -26t-55.5 -9.5q-57 0 -92 38zM-2 -42q-9 -51 19 -81.5t79 -30.5q25 0 48.5 8t41.5 23t30.5 35.5t17.5 45.5q9 49 -19.5 80t-79.5 31
q-25 0 -48 -8t-41.5 -23t-31 -35.5t-16.5 -44.5z" />
    <glyph glyph-name="seven.sinf" horiz-adv-x="336" 
d="M28 240h266l-3 -16l-235 -384h-22l234 382h-243z" />
    <glyph glyph-name="eight.sinf" horiz-adv-x="355" 
d="M105 -172q-30 0 -54 8.5t-40 23.5t-23 36t-2 47q7 40 34 67.5t69 39.5q-30 13 -45.5 37.5t-9.5 57.5q9 51 49 79t94 28q25 0 46.5 -8t36.5 -22.5t21 -35t2 -45.5q-12 -67 -87 -92q35 -13 53 -42t11 -68q-9 -52 -50.5 -81.5t-104.5 -29.5zM6 -59q-8 -45 19.5 -70t81.5 -25
q52 0 88.5 25t44.5 70q7 45 -20.5 72t-78.5 27t-89.5 -27t-45.5 -72zM54 143q-6 -38 20.5 -61.5t69.5 -23.5q21 0 41 6t36.5 17.5t27.5 27t14 34.5q8 42 -17.5 66.5t-70.5 24.5t-79 -24t-42 -67z" />
    <glyph glyph-name="nine.sinf" horiz-adv-x="335" 
d="M32 30q-35 38 -24 94q5 28 19.5 52t35.5 40.5t47.5 26t55.5 9.5q57 0 92 -38q34 -37 24 -94q-8 -40 -32 -70l-175 -210h-24l139 167q-34 -14 -67 -14q-57 0 -91 37zM27 122q-8 -49 20 -80t79 -31q25 0 48 8t41.5 23t31 35.5t16.5 44.5q8 51 -19.5 81.5t-78.5 30.5
q-26 0 -49 -8t-41 -23t-31 -35.5t-17 -45.5z" />
    <glyph glyph-name="zero.tf" horiz-adv-x="570" 
d="M70 89q-51 98 -22 263q11 62 34.5 125.5t62 115.5t93 84.5t126.5 32.5q119 0 170 -99q51 -100 23 -263q-11 -62 -34.5 -125.5t-62 -115.5t-93 -84.5t-126.5 -32.5q-119 0 -171 99zM68 350q-28 -158 19 -251q46 -91 155 -91q68 0 118.5 32t86.5 81.5t58 110.5t32 118
q28 157 -19 250q-47 92 -155 92q-68 0 -118.5 -32t-86.5 -81.5t-58 -110.5t-32 -118z" />
    <glyph glyph-name="one.tf" horiz-adv-x="570" 
d="M1 0l4 20h255l115 658l-180 -57l-3 17l192 62h15l-119 -680h224l-4 -20h-499z" />
    <glyph glyph-name="two.tf" horiz-adv-x="570" 
d="M16 0l3 18l343 264q156 121 172 218q7 43 -1 78.5t-30.5 60.5t-57.5 39t-82 14q-69 0 -125.5 -34t-90.5 -91l-17 10q38 61 101 97t135 36q98 0 151 -57q53 -59 37 -153q-18 -108 -179 -231l-327 -251h441l-3 -18h-470z" />
    <glyph glyph-name="three.tf" horiz-adv-x="570" 
d="M234 -10q-81 0 -135.5 32.5t-72.5 90.5l19 10q14 -54 63 -84.5t127 -30.5q46 0 89 12t78 36t59 60t33 84q7 42 -2 77t-33.5 60.5t-63.5 40t-92 14.5h-6l-6 12l244 278h-396l3 18h420l-3 -18l-239 -272q101 -5 155 -63q27 -30 37 -66.5t2 -82.5q-9 -53 -35 -92
t-63.5 -64.5t-84.5 -38.5t-97 -13z" />
    <glyph glyph-name="four.tf" horiz-adv-x="570" 
d="M17 178l368 522h23l-367 -522h366l41 232h20l-41 -232h90l-3 -18h-90l-28 -160h-20l28 160h-390z" />
    <glyph glyph-name="five.tf" horiz-adv-x="570" 
d="M54 125q13 -54 61.5 -85.5t126.5 -31.5q45 0 87.5 12.5t76.5 36.5t58 60t32 83q7 42 -2 77t-33 60.5t-62 40t-89 14.5h-196l75 308h385l-3 -18h-367l-66 -272h175q104 0 161 -60q58 -61 42 -153q-9 -51 -34.5 -90t-62.5 -65t-83 -39t-95 -13q-81 0 -135.5 33t-69.5 93z
" />
    <glyph glyph-name="six.tf" horiz-adv-x="570" 
d="M74 55q-57 65 -39 168q15 86 73 145l309 332h24l-258 -279q63 29 135 29q106 0 166 -66q58 -64 40 -167q-9 -54 -35 -96t-63.5 -71t-85 -44.5t-100.5 -15.5q-109 0 -166 65zM55 220q-17 -92 33 -152q49 -60 154 -60q49 0 93 14.5t78.5 42t58 67t32.5 88.5q17 92 -33 152
t-154 60q-50 0 -93.5 -14.5t-78 -41.5t-58 -66.5t-32.5 -89.5z" />
    <glyph glyph-name="seven.tf" horiz-adv-x="570" 
d="M119 700h470l-3 -18l-435 -682h-22l436 682h-449z" />
    <glyph glyph-name="eight.tf" horiz-adv-x="570" 
d="M241 -10q-55 0 -97.5 13.5t-69.5 39t-38 60.5t-3 79q13 70 63.5 117t129.5 63q-61 19 -91 63.5t-18 107.5q9 45 32.5 78.5t56.5 55.5t74 32.5t84 10.5q97 0 150 -51q52 -51 39 -130q-11 -63 -55.5 -106.5t-113.5 -60.5q72 -17 106 -65.5t22 -118.5q-15 -88 -87 -138
t-184 -50zM53 180q-14 -76 34.5 -124t154.5 -48t171 47t79 125q13 78 -35 125t-154 47q-53 0 -96 -12.5t-75.5 -35t-52.5 -54t-26 -70.5zM137 531q-6 -35 2 -64t29.5 -51t56 -34t81.5 -12t86 12t68 34t48 51t25 64q6 34 -2 63.5t-30 51.5t-56.5 34t-81.5 12
q-39 0 -76.5 -9.5t-68 -29.5t-52.5 -50.5t-29 -71.5z" />
    <glyph glyph-name="nine.tf" horiz-adv-x="570" 
d="M121 315q-58 66 -40 168q9 53 35 95t64 71.5t85 45t100 15.5q108 0 165 -66q58 -67 40 -167q-15 -86 -73 -145l-309 -332h-24l258 279q-63 -29 -135 -29q-107 0 -166 65zM101 480q-17 -92 33 -152q49 -60 154 -60q49 0 93 14.5t78.5 42t58 67t32.5 88.5q17 92 -33 152
t-154 60q-50 0 -93.5 -14.5t-78 -41.5t-58 -66.5t-32.5 -89.5z" />
    <glyph glyph-name="zero.dnom" horiz-adv-x="410" 
d="M50 47q-36 58 -19 154q8 48 26 87t44 66.5t59 42.5t71 15q75 0 111 -59q36 -58 19 -154q-8 -48 -26 -87t-44 -66.5t-59 -42.5t-71 -15q-75 0 -111 59zM51 200q-17 -89 14 -142q30 -52 97 -52q40 0 71 17t52.5 44.5t35.5 62.5t20 70q16 88 -14 141t-97 53
q-40 0 -70.5 -17.5t-52.5 -45t-36 -62.5t-20 -69z" />
    <glyph glyph-name="one.dnom" horiz-adv-x="245" 
d="M181 400h10l-71 -400h-20l66 373l-126 -43l-3 18z" />
    <glyph glyph-name="two.dnom" horiz-adv-x="347" 
d="M-3 0l2 15l221 181q61 50 68 103q5 39 -18.5 67t-69.5 28q-40 0 -74 -21.5t-49 -53.5l-17 9q18 37 55.5 60.5t85.5 23.5q57 0 84.5 -33t21.5 -81q-7 -59 -73 -114l-202 -166h234l-3 -18h-266z" />
    <glyph glyph-name="three.dnom" horiz-adv-x="343" 
d="M121 -12q-97 0 -118 74l18 9q17 -65 101 -65q55 0 90 30.5t43 75.5q7 45 -17 75.5t-79 30.5h-2l-7 13l134 151h-215l3 18h238l-3 -18l-131 -147q54 -4 80 -40t18 -85q-9 -54 -49 -88t-104 -34z" />
    <glyph glyph-name="four.dnom" horiz-adv-x="359" 
d="M-5 108l205 292h21l-204 -292h205l21 121h20l-21 -121h62l-3 -18h-62l-16 -90h-20l16 90h-227z" />
    <glyph glyph-name="five.dnom" horiz-adv-x="337" 
d="M118 -12q-93 0 -116 71l17 9q17 -62 100 -62q51 0 87.5 28.5t45.5 77.5t-18 77.5t-78 28.5h-110l47 182h212l-3 -18h-194l-39 -146h90q29 0 51.5 -9.5t37.5 -26.5t21 -40t2 -50q-9 -54 -51 -88t-102 -34z" />
    <glyph glyph-name="six.dnom" horiz-adv-x="335" 
d="M31 25q-35 38 -24 95q8 40 32 70l175 210h24l-139 -167q34 14 67 14q56 0 91 -38q34 -38 24 -93q-5 -29 -19.5 -52.5t-35.5 -40t-47.5 -26t-55.5 -9.5q-58 0 -92 37zM26 118q-9 -51 19 -81.5t79 -30.5q25 0 48.5 8t41.5 23t30.5 35.5t17.5 45.5q9 49 -19.5 80t-79.5 31
q-25 0 -48 -8t-41.5 -23t-31 -35.5t-16.5 -44.5z" />
    <glyph glyph-name="seven.dnom" horiz-adv-x="336" 
d="M56 400h266l-3 -16l-235 -384h-22l234 382h-243z" />
    <glyph glyph-name="eight.dnom" horiz-adv-x="355" 
d="M133 -12q-30 0 -54 8.5t-40 23.5t-23 36t-2 47q7 40 34 67.5t69 39.5q-30 13 -45.5 37.5t-9.5 57.5q9 51 49 79t94 28q25 0 46.5 -8t36.5 -22.5t21 -35t2 -45.5q-12 -67 -87 -92q35 -13 53 -42t11 -68q-9 -52 -50.5 -81.5t-104.5 -29.5zM34 101q-8 -45 19.5 -70t81.5 -25
q52 0 88.5 25t44.5 70q7 45 -20.5 72t-78.5 27t-89.5 -27t-45.5 -72zM82 303q-6 -38 20.5 -61.5t69.5 -23.5q21 0 41 6t36.5 17.5t27.5 27t14 34.5q8 42 -17.5 66.5t-70.5 24.5t-79 -24t-42 -67z" />
    <glyph glyph-name="nine.dnom" horiz-adv-x="335" 
d="M60 190q-35 38 -24 94q5 28 19.5 52t35.5 40.5t47.5 26t55.5 9.5q57 0 92 -38q34 -37 24 -94q-8 -40 -32 -70l-175 -210h-24l139 167q-34 -14 -67 -14q-57 0 -91 37zM55 282q-8 -49 20 -80t79 -31q25 0 48 8t41.5 23t31 35.5t16.5 44.5q8 51 -19.5 81.5t-78.5 30.5
q-26 0 -49 -8t-41 -23t-31 -35.5t-17 -45.5z" />
    <glyph glyph-name="zero.numr" horiz-adv-x="410" 
d="M103 347q-36 58 -19 154q8 48 26 87t44 66.5t59 42.5t71 15q75 0 111 -59q36 -58 19 -154q-8 -48 -26 -87t-44 -66.5t-59 -42.5t-71 -15q-75 0 -111 59zM104 500q-17 -89 14 -142q30 -52 97 -52q40 0 71 17t52.5 44.5t35.5 62.5t20 70q16 88 -14 141t-97 53
q-40 0 -70.5 -17.5t-52.5 -45t-36 -62.5t-20 -69z" />
    <glyph glyph-name="one.numr" horiz-adv-x="245" 
d="M234 700h10l-71 -400h-20l66 373l-126 -43l-3 18z" />
    <glyph glyph-name="two.numr" horiz-adv-x="346" 
d="M49 300l2 15l221 181q61 50 68 103q5 39 -18.5 67t-69.5 28q-40 0 -74 -21.5t-49 -53.5l-17 9q18 37 55.5 60.5t85.5 23.5q57 0 84.5 -33t21.5 -81q-7 -59 -73 -114l-202 -166h234l-3 -18h-266z" />
    <glyph glyph-name="three.numr" horiz-adv-x="343" 
d="M174 288q-97 0 -118 74l18 9q17 -65 101 -65q55 0 90 30.5t43 75.5q7 45 -17 75.5t-79 30.5h-2l-7 13l134 151h-215l3 18h238l-3 -18l-131 -147q54 -4 80 -40t18 -85q-9 -54 -49 -88t-104 -34z" />
    <glyph glyph-name="four.numr" horiz-adv-x="359" 
d="M48 408l205 292h21l-204 -292h205l21 121h20l-21 -121h62l-3 -18h-62l-16 -90h-20l16 90h-227z" />
    <glyph glyph-name="five.numr" horiz-adv-x="337" 
d="M171 288q-93 0 -116 71l17 9q17 -62 100 -62q51 0 87.5 28.5t45.5 77.5t-18 77.5t-78 28.5h-110l47 182h212l-3 -18h-194l-39 -146h90q29 0 51.5 -9.5t37.5 -26.5t21 -40t2 -50q-9 -54 -51 -88t-102 -34z" />
    <glyph glyph-name="six.numr" horiz-adv-x="335" 
d="M84 325q-35 38 -24 95q8 40 32 70l175 210h24l-139 -167q34 14 67 14q56 0 91 -38q34 -38 24 -93q-5 -29 -19.5 -52.5t-35.5 -40t-47.5 -26t-55.5 -9.5q-58 0 -92 37zM79 418q-9 -51 19 -81.5t79 -30.5q25 0 48.5 8t41.5 23t30.5 35.5t17.5 45.5q9 49 -19.5 80t-79.5 31
q-25 0 -48 -8t-41.5 -23t-31 -35.5t-16.5 -44.5z" />
    <glyph glyph-name="seven.numr" horiz-adv-x="336" 
d="M109 700h266l-3 -16l-235 -384h-22l234 382h-243z" />
    <glyph glyph-name="eight.numr" horiz-adv-x="355" 
d="M186 288q-30 0 -54 8.5t-40 23.5t-23 36t-2 47q7 40 34 67.5t69 39.5q-30 13 -45.5 37.5t-9.5 57.5q9 51 49 79t94 28q25 0 46.5 -8t36.5 -22.5t21 -35t2 -45.5q-12 -67 -87 -92q35 -13 53 -42t11 -68q-9 -52 -50.5 -81.5t-104.5 -29.5zM87 401q-8 -45 19.5 -70t81.5 -25
q52 0 88.5 25t44.5 70q7 45 -20.5 72t-78.5 27t-89.5 -27t-45.5 -72zM135 603q-6 -38 20.5 -61.5t69.5 -23.5q21 0 41 6t36.5 17.5t27.5 27t14 34.5q8 42 -17.5 66.5t-70.5 24.5t-79 -24t-42 -67z" />
    <glyph glyph-name="nine.numr" horiz-adv-x="335" 
d="M113 490q-35 38 -24 94q5 28 19.5 52t35.5 40.5t47.5 26t55.5 9.5q57 0 92 -38q34 -37 24 -94q-8 -40 -32 -70l-175 -210h-24l139 167q-34 -14 -67 -14q-57 0 -91 37zM108 582q-8 -49 20 -80t79 -31q25 0 48 8t41.5 23t31 35.5t16.5 44.5q8 51 -19.5 81.5t-78.5 30.5
q-26 0 -49 -8t-41 -23t-31 -35.5t-17 -45.5z" />
    <glyph glyph-name="zero.sups" horiz-adv-x="410" 
d="M131 507q-36 58 -19 154q8 48 26 87t44 66.5t59 42.5t71 15q75 0 111 -59q36 -58 19 -154q-8 -48 -26 -87t-44 -66.5t-59 -42.5t-71 -15q-75 0 -111 59zM132 660q-17 -89 14 -142q30 -52 97 -52q40 0 71 17t52.5 44.5t35.5 62.5t20 70q16 88 -14 141t-97 53
q-40 0 -70.5 -17.5t-52.5 -45t-36 -62.5t-20 -69z" />
    <glyph glyph-name="one.sups" horiz-adv-x="245" 
d="M262 860h10l-71 -400h-20l66 373l-126 -43l-3 18z" />
    <glyph glyph-name="two.sups" horiz-adv-x="347" 
d="M78 460l2 15l221 181q61 50 68 103q5 39 -18.5 67t-69.5 28q-40 0 -74 -21.5t-49 -53.5l-17 9q18 37 55.5 60.5t85.5 23.5q57 0 84.5 -33t21.5 -81q-7 -59 -73 -114l-202 -166h234l-3 -18h-266z" />
    <glyph glyph-name="three.sups" horiz-adv-x="343" 
d="M202 448q-97 0 -118 74l18 9q17 -65 101 -65q55 0 90 30.5t43 75.5q7 45 -17 75.5t-79 30.5h-2l-7 13l134 151h-215l3 18h238l-3 -18l-131 -147q54 -4 80 -40t18 -85q-9 -54 -49 -88t-104 -34z" />
    <glyph glyph-name="four.sups" horiz-adv-x="359" 
d="M76 568l205 292h21l-204 -292h205l21 121h20l-21 -121h62l-3 -18h-62l-16 -90h-20l16 90h-227z" />
    <glyph glyph-name="five.sups" horiz-adv-x="337" 
d="M199 448q-93 0 -116 71l17 9q17 -62 100 -62q51 0 87.5 28.5t45.5 77.5t-18 77.5t-78 28.5h-110l47 182h212l-3 -18h-194l-39 -146h90q29 0 51.5 -9.5t37.5 -26.5t21 -40t2 -50q-9 -54 -51 -88t-102 -34z" />
    <glyph glyph-name="six.sups" horiz-adv-x="335" 
d="M112 485q-35 38 -24 95q8 40 32 70l175 210h24l-139 -167q34 14 67 14q56 0 91 -38q34 -38 24 -93q-5 -29 -19.5 -52.5t-35.5 -40t-47.5 -26t-55.5 -9.5q-58 0 -92 37zM107 578q-9 -51 19 -81.5t79 -30.5q25 0 48.5 8t41.5 23t30.5 35.5t17.5 45.5q9 49 -19.5 80
t-79.5 31q-25 0 -48 -8t-41.5 -23t-31 -35.5t-16.5 -44.5z" />
    <glyph glyph-name="seven.sups" horiz-adv-x="336" 
d="M138 860h266l-3 -16l-235 -384h-22l234 382h-243z" />
    <glyph glyph-name="eight.sups" horiz-adv-x="355" 
d="M214 448q-30 0 -54 8.5t-40 23.5t-23 36t-2 47q7 40 34 67.5t69 39.5q-30 13 -45.5 37.5t-9.5 57.5q9 51 49 79t94 28q25 0 46.5 -8t36.5 -22.5t21 -35t2 -45.5q-12 -67 -87 -92q35 -13 53 -42t11 -68q-9 -52 -50.5 -81.5t-104.5 -29.5zM115 561q-8 -45 19.5 -70
t81.5 -25q52 0 88.5 25t44.5 70q7 45 -20.5 72t-78.5 27t-89.5 -27t-45.5 -72zM163 763q-6 -38 20.5 -61.5t69.5 -23.5q21 0 41 6t36.5 17.5t27.5 27t14 34.5q8 42 -17.5 66.5t-70.5 24.5t-79 -24t-42 -67z" />
    <glyph glyph-name="nine.sups" horiz-adv-x="335" 
d="M141 650q-35 38 -24 94q5 28 19.5 52t35.5 40.5t47.5 26t55.5 9.5q57 0 92 -38q34 -37 24 -94q-8 -40 -32 -70l-175 -210h-24l139 167q-34 -14 -67 -14q-57 0 -91 37zM136 742q-8 -49 20 -80t79 -31q25 0 48 8t41.5 23t31 35.5t16.5 44.5q8 51 -19.5 81.5t-78.5 30.5
q-26 0 -49 -8t-41 -23t-31 -35.5t-17 -45.5z" />
    <glyph glyph-name="cent.tf" horiz-adv-x="570" 
d="M184 110q-67 30 -98.5 95.5t-17.5 147.5q10 55 38 102t69 81.5t92 54t107 19.5q31 0 62 -7l50 97h21l-53 -103q91 -30 116 -109l-17 -10q-26 78 -107 103l-236 -461q34 -12 75 -12q69 0 128 31t95 83l15 -10q-39 -57 -102 -89.5t-139 -32.5q-47 0 -80 13l-53 -103h-21z
M88 350q-13 -76 15.5 -136t89.5 -88l235 460q-27 6 -57 6q-53 0 -100.5 -18.5t-85 -51t-63 -77t-34.5 -95.5z" />
    </font>
</defs>
</svg>
