<?xml version="1.0" standalone="no"?>
<!DOCTYPE svg PUBLIC "-//W3C//DTD SVG 1.1//EN" "http://www.w3.org/Graphics/SVG/1.1/DTD/svg11.dtd" >
<svg xmlns="http://www.w3.org/2000/svg" xmlns:xlink="http://www.w3.org/1999/xlink" version="1.1">
<metadata>
Created by FontForge 20170731 at Thu Oct 21 11:35:14 2021
 By Aleksey,,,
Copyright (c) 2016 by Radomir Tinkov. All rights reserved.
</metadata>
<defs>
<font id="SVN-Gilroy-Heavy" horiz-adv-x="615" >
  <font-face 
    font-family="SVN-Gilroy Heavy"
    font-weight="900"
    font-stretch="normal"
    units-per-em="1000"
    panose-1="0 0 10 0 0 0 0 0 0 0"
    ascent="800"
    descent="-200"
    x-height="500"
    cap-height="700"
    bbox="-466 -277 1184 1087"
    underline-thickness="50"
    underline-position="-150"
    unicode-range="U+0020-FB02"
  />
<missing-glyph horiz-adv-x="500" 
d="M93 -200v1000h317v-1000h-317zM167 118v-113h166v113h-166zM237 -51l-70 -47v-33h166v33h-102l70 47h32v33h-166v-33h70zM167 178h166v113h-100v-56h34v23h33v-47h-100v80h-33v-113zM167 604v-104h166v34h-66v70h-100zM167 630h166v33h-66v37h66v33h-165v-33h65v-37h-66
v-33zM233 440v-37h-66v-33h100v70h66v33h-166v-33h66zM167 313h166v100h-33v-66h-133v-34zM200 38v47h100v-47h-100zM233 570v-36h-33v36h33z" />
    <glyph glyph-name="fi" unicode="fi" horiz-adv-x="572" 
d="M78 500q0 215 252 215q65 0 130 -15v-145q-65 9 -123 9q-46 0 -69.5 -14t-23.5 -50h280v-500h-166v341h-114v-341h-166v341h-63v159h63z" />
    <glyph glyph-name="fl" unicode="fl" horiz-adv-x="572" 
d="M15 500h63q0 215 252 215q46 0 94 -5t100 -15v-695h-166v573q-5 1 -12.5 1h-17.5q-38 0 -61 -18.5t-23 -55.5h66v-159h-66v-341h-166v341h-63v159z" />
    <glyph glyph-name="f_f" unicode="ff" horiz-adv-x="612" 
d="M15 500h63q0 103 57 159.5t170 56.5q6 0 12 -0.5t13 -0.5v-154q-17 0 -32.5 -1.5t-27.5 -8t-19 -18.5t-7 -33h116v10q0 103 57 159.5t170 56.5q6 0 12 -0.5t13 -0.5v-154q-17 0 -32.5 -2t-27 -8t-18.5 -18t-7 -33v-10h85v-159h-85v-341h-167v341h-116v-341h-166v341h-63
v159z" />
    <glyph glyph-name="f_f_i" unicode="ffi" horiz-adv-x="855" 
d="M15 341v159h63q0 103 57 159.5t170 56.5q6 0 12 -0.5t13 -0.5v-154q-17 0 -32.5 -1.5t-27.5 -8t-19 -18.5t-7 -33h116v10q0 215 252 215q65 0 130 -15v-145q-65 9 -123 9q-46 0 -69 -14t-23 -50v-10h280v-500h-167v341h-113v-341h-167v341h-116v-341h-166v341h-63z" />
    <glyph glyph-name="f_f_l" unicode="ffl" horiz-adv-x="855" 
d="M78 500q0 103 57 159.5t170 56.5q6 0 12 -0.5t13 -0.5v-154q-17 0 -32.5 -1.5t-27.5 -8t-19 -18.5t-7 -33h116v10q0 215 252 215q45 0 93.5 -5t101.5 -15v-705h-167v583q-5 1 -12.5 1h-17.5q-38 0 -60.5 -18.5t-22.5 -55.5v-10h65v-159h-65v-341h-167v341h-116v-341h-166
v341h-63v159h63z" />
    <glyph glyph-name=".notdef" horiz-adv-x="500" 
d="M93 -200v1000h317v-1000h-317zM167 118v-113h166v113h-166zM237 -51l-70 -47v-33h166v33h-102l70 47h32v33h-166v-33h70zM167 178h166v113h-100v-56h34v23h33v-47h-100v80h-33v-113zM167 604v-104h166v34h-66v70h-100zM167 630h166v33h-66v37h66v33h-165v-33h65v-37h-66
v-33zM233 440v-37h-66v-33h100v70h66v33h-166v-33h66zM167 313h166v100h-33v-66h-133v-34zM200 38v47h100v-47h-100zM233 570v-36h-33v36h33z" />
    <glyph glyph-name=".null" horiz-adv-x="0" 
 />
    <glyph glyph-name="nonmarkingreturn" horiz-adv-x="333" 
 />
    <glyph glyph-name="space" unicode=" " horiz-adv-x="227" 
 />
    <glyph glyph-name="space" unicode="&#xa0;" horiz-adv-x="227" 
 />
    <glyph glyph-name="exclam" unicode="!" horiz-adv-x="294" 
d="M45 700h204v-200l-33 -245h-138l-33 245v200zM147 -14q-21 0 -40 8t-33.5 22t-22.5 33t-8 41q0 21 8 40t22.5 33.5t33.5 22.5t40 8t40 -8t33.5 -22.5t22.5 -33.5t8 -40q0 -22 -8 -41t-22.5 -33t-33.5 -22t-40 -8z" />
    <glyph glyph-name="quotedbl" unicode="&#x22;" horiz-adv-x="442" 
d="M397 700l-20 -259h-114l-20 259h154zM199 700l-20 -259h-114l-20 259h154z" />
    <glyph glyph-name="numbersign" unicode="#" horiz-adv-x="631" 
d="M39 315h102l12 70h-102l19 120h103l24 145h128l-24 -145h82l24 145h128l-24 -145h100l-19 -120h-101l-12 -70h102l-19 -120h-103l-24 -145h-128l24 145h-82l-24 -145h-128l24 145h-101zM269 315h82l12 70h-82z" />
    <glyph glyph-name="dollar" unicode="$" horiz-adv-x="556" 
d="M254 -14q-88 6 -149.5 48.5t-86.5 114.5l155 87q23 -65 81 -80v119l-9 3q-48 16 -78.5 32.5t-62.5 41.5q-63 51 -63 147q0 47 16 85t44.5 66t67.5 44t85 20v86h70v-88q144 -17 204 -147l-152 -85q-15 47 -52 60v-118h1l59 -23q34 -13 62 -30.5t48.5 -40.5t32 -53.5
t11.5 -69.5q0 -94 -57.5 -150.5t-156.5 -67.5v-87h-70v86zM324 157q40 10 40 45q0 27 -40 45v-90zM215 498q0 -26 39 -45v91q-39 -11 -39 -46z" />
    <glyph glyph-name="percent" unicode="%" horiz-adv-x="823" 
d="M606 -14q-39 0 -72.5 13t-58 37t-39 57t-14.5 72q0 76 52 128t132 52q38 0 71.5 -14t58 -38t38.5 -57t14 -71t-14 -71t-39 -57t-58 -37.5t-71 -13.5zM219 356q-39 0 -72.5 13.5t-58 37.5t-39 57t-14.5 72t14.5 71.5t39.5 56.5t58.5 37.5t71.5 13.5t71.5 -13.5t58 -37.5
t38.5 -56.5t14 -71.5q0 -38 -14 -71t-38.5 -57t-58 -38t-71.5 -14zM139 110l460 500l70 -40l-461 -499zM167 536q0 -24 15 -38.5t39 -14.5t36 16.5t12 36t-11.5 36t-35.5 16.5q-23 0 -39 -14t-16 -38zM554 165q0 -22 14.5 -37t36.5 -15t36.5 15.5t14.5 36.5q0 23 -14.5 38
t-36.5 15t-36.5 -15t-14.5 -38z" />
    <glyph glyph-name="ampersand" unicode="&#x26;" horiz-adv-x="680" 
d="M35 199q0 124 113 195q-32 55 -32 114q0 49 18.5 87.5t50 65t73.5 40.5t88 14q171 0 241 -157l-151 -88q-29 75 -84 75q-26 0 -40.5 -14.5t-14.5 -36.5q0 -17 7.5 -30.5t17.5 -27.5l30 -34l118 -131q20 47 31 102l144 -83q-19 -73 -65 -143l85 -95l-137 -79l-59 64
q-80 -52 -182 -52q-50 0 -95.5 13t-80 39.5t-55.5 67t-21 94.5zM246 280q-30 -27 -30 -67q0 -32 22 -52.5t67 -20.5q32 0 59 12z" />
    <glyph glyph-name="quotesingle" unicode="'" horiz-adv-x="243" 
d="M65 441l-20 259h154l-20 -259h-114z" />
    <glyph glyph-name="parenleft" unicode="(" horiz-adv-x="327" 
d="M155 -100q-111 221 -111 450t111 450h167q-111 -221 -111 -450t111 -450h-167v0z" />
    <glyph glyph-name="parenright" unicode=")" horiz-adv-x="327" 
d="M5 -100q111 221 111 450t-111 450h167q111 -221 111 -450t-111 -450h-167v0z" />
    <glyph glyph-name="asterisk" unicode="*" horiz-adv-x="405" 
d="M359 605v-96l-91 10l57 -70l-80 -50l-43 82l-42 -82l-80 50l56 70l-91 -10v96l91 -10l-56 70l80 50l42 -82l43 82l80 -50l-57 -70z" />
    <glyph glyph-name="plus" unicode="+" horiz-adv-x="560" 
d="M41 271v158h160v160h158v-160h160v-158h-160v-160h-158v160h-160z" />
    <glyph glyph-name="comma" unicode="," horiz-adv-x="302" 
d="M261 174l-84 -314h-134l35 314h183z" />
    <glyph glyph-name="hyphen" unicode="-" horiz-adv-x="500" 
d="M55 222v158h390v-158h-390z" />
    <glyph glyph-name="period" unicode="." horiz-adv-x="289" 
d="M40 90q0 21 8.5 40t22.5 33.5t33.5 22.5t40.5 8t40 -8t33.5 -22.5t22.5 -33.5t8 -40t-8 -40t-22.5 -33.5t-33.5 -22.5t-40 -8q-22 0 -41 8t-33.5 22.5t-22.5 33.5t-8 40z" />
    <glyph glyph-name="slash" unicode="/" horiz-adv-x="520" 
d="M95 -100h-70l400 900h70z" />
    <glyph glyph-name="zero" unicode="0" horiz-adv-x="630" 
d="M315 -15q-79 0 -134.5 31t-90 82t-50 116.5t-15.5 135.5q0 69 16 135t50.5 117t89.5 82t134 31q78 0 133 -31t90 -82.5t51 -117t16 -134.5t-16 -135t-50.5 -117t-89.5 -82t-134 -31zM315 541q-111 0 -111 -191t111 -191t111 191t-111 191z" />
    <glyph glyph-name="one" unicode="1" horiz-adv-x="414" 
d="M195 700h154v-700h-179v512l-122 -31l-43 151z" />
    <glyph glyph-name="two" unicode="2" horiz-adv-x="539" 
d="M10 554q34 79 99.5 120t146.5 41q49 0 93 -15.5t77.5 -44t53 -69.5t19.5 -93q0 -61 -28.5 -112.5t-83.5 -108.5l-95 -99h219v-173h-490v130l232 245q35 38 51 61.5t16 46.5q0 26 -16.5 42t-45.5 16q-63 0 -94 -73z" />
    <glyph glyph-name="three" unicode="3" horiz-adv-x="548" 
d="M265 -15q-88 0 -155 40t-97 118l156 89q22 -73 96 -73q38 0 58.5 18t20.5 48t-20.5 47.5t-58.5 17.5h-38l-69 102l112 137h-235v171h455v-141l-117 -144q67 -21 108 -72t41 -123q0 -57 -20 -101t-54.5 -73.5t-81.5 -45t-101 -15.5z" />
    <glyph glyph-name="four" unicode="4" horiz-adv-x="578" 
d="M224 700h198l-211 -430h111v126h178v-126h70v-163h-70v-107h-178v107h-307v163z" />
    <glyph glyph-name="five" unicode="5" horiz-adv-x="550" 
d="M272 -15q-93 0 -160.5 39.5t-98.5 118.5l156 89q22 -73 103 -73q38 0 58.5 17.5t20.5 47.5q0 31 -20.5 48t-55.5 17h-224l29 411h412v-171h-247l-5 -75h50q52 0 96.5 -15.5t76 -45.5t49.5 -72.5t18 -96.5q0 -58 -19.5 -102.5t-54 -75t-82 -46t-102.5 -15.5z" />
    <glyph glyph-name="six" unicode="6" horiz-adv-x="560" 
d="M15 232q0 81 44 145l207 323h203l-148 -223q49 -6 90.5 -26t71 -51.5t46 -74t16.5 -93.5q0 -58 -20.5 -104t-56 -77.5t-84 -48.5t-104.5 -17t-104.5 17t-84 48.5t-56 77.5t-20.5 104zM194 232q0 -40 24 -61.5t62 -21.5q37 0 61.5 22t24.5 61q0 40 -23.5 62t-62.5 22
t-62.5 -22t-23.5 -62z" />
    <glyph glyph-name="seven" unicode="7" horiz-adv-x="490" 
d="M1 700h474v-148l-219 -552h-193l208 527h-270v173z" />
    <glyph glyph-name="eight" unicode="8" horiz-adv-x="569" 
d="M285 -14q-127 0 -194.5 56t-67.5 155q0 110 93 169q-69 51 -69 140q0 52 19 91t51.5 65t76 39t91.5 13t91 -13t75.5 -39.5t51.5 -65.5t19 -90q0 -89 -69 -140q93 -59 93 -169q0 -99 -67.5 -155t-193.5 -56zM285 295q-38 0 -60.5 -19.5t-22.5 -53.5q0 -33 22.5 -52.5
t60.5 -19.5q37 0 60 19.5t23 52.5q0 34 -23 53.5t-60 19.5zM285 552q-32 0 -50.5 -16.5t-18.5 -43.5q0 -28 18.5 -44t50.5 -16q30 0 49 16.5t19 43.5t-19 43.5t-49 16.5z" />
    <glyph glyph-name="nine" unicode="9" horiz-adv-x="560" 
d="M239 223q-50 7 -91 26.5t-70.5 51t-46 74t-16.5 93.5q0 58 20.5 104t56 77.5t84 48.5t104.5 17t104.5 -17t84 -48.5t56 -77.5t20.5 -104q0 -81 -44 -145l-207 -323h-203zM194 468q0 -40 23.5 -62t62.5 -22t62.5 22t23.5 62t-24 61.5t-62 21.5q-37 0 -61.5 -22t-24.5 -61z
" />
    <glyph glyph-name="colon" unicode=":" horiz-adv-x="289" 
d="M40 90q0 21 8.5 40t22.5 33.5t33.5 22.5t40.5 8t40 -8t33.5 -22.5t22.5 -33.5t8 -40t-8 -40t-22.5 -33.5t-33.5 -22.5t-40 -8q-22 0 -41 8t-33.5 22.5t-22.5 33.5t-8 40zM145 307q-22 0 -41 8t-33.5 22.5t-22.5 33.5t-8 40t8.5 40t22.5 33.5t33.5 22.5t40.5 8t40 -8
t33.5 -22.5t22.5 -33.5t8 -40t-8 -40t-22.5 -33.5t-33.5 -22.5t-40 -8z" />
    <glyph glyph-name="semicolon" unicode=";" horiz-adv-x="304" 
d="M78 174h183l-84 -314h-134zM55 411q0 21 8.5 40t22.5 33.5t33.5 22.5t40.5 8t40 -8t33.5 -22.5t22.5 -33.5t8 -40t-8 -40t-22.5 -33.5t-33.5 -22.5t-40 -8q-22 0 -41 8t-33.5 22.5t-22.5 33.5t-8 40z" />
    <glyph glyph-name="less" unicode="&#x3c;" horiz-adv-x="521" 
d="M36 276v148l450 195v-172l-271 -97l271 -97v-172z" />
    <glyph glyph-name="equal" unicode="=" horiz-adv-x="511" 
d="M35 380v159h440v-159h-440zM475 320v-159h-440v159h440z" />
    <glyph glyph-name="greater" unicode="&#x3e;" horiz-adv-x="521" 
d="M35 81v172l271 97l-271 97v172l450 -195v-148z" />
    <glyph glyph-name="question" unicode="?" horiz-adv-x="547" 
d="M21 550q33 81 101.5 123t153.5 42q45 0 86.5 -13t73.5 -38t51 -62.5t19 -85.5q0 -37 -11.5 -66t-29.5 -52.5t-38 -42t-38 -35t-29.5 -32.5t-11.5 -33h-170q0 42 23.5 78t51.5 58q28 23 51.5 50.5t23.5 52.5q0 48 -59 48q-62 0 -96 -79zM263 -14q-21 0 -40 8t-33.5 22
t-22.5 33t-8 41q0 21 8 40t22.5 33.5t33.5 22.5t40 8t40 -8t33.5 -22.5t22.5 -33.5t8 -40q0 -22 -8 -41t-22.5 -33t-33.5 -22t-40 -8z" />
    <glyph glyph-name="at" unicode="@" horiz-adv-x="769" 
d="M410 -112q-79 0 -148.5 26t-121.5 73.5t-82 114.5t-30 148q0 77 28 143.5t77 115t115.5 76t143.5 27.5q72 0 135.5 -26t111 -71.5t75.5 -108.5t28 -136q0 -108 -43.5 -166t-122.5 -58q-54 0 -89.5 22t-51.5 60q-37 -43 -95 -43q-33 0 -60 12.5t-46.5 34t-30 52
t-10.5 66.5t10.5 66.5t30 52t46.5 34t60 12.5q51 0 86 -33v21h136v-236q0 -63 50 -63q38 0 61.5 40.5t23.5 125.5q0 64 -23.5 119.5t-65 95.5t-97 63t-119.5 23q-68 0 -126.5 -24.5t-101.5 -67.5t-67.5 -102t-24.5 -127q0 -74 26 -133t71.5 -101t107.5 -64.5t133 -22.5
q88 0 151 22v-43q-66 -20 -151 -20zM373 302q-21 0 -31.5 -16.5t-10.5 -36t10.5 -35.5t31.5 -16h5h5q21 0 31.5 16t10.5 35.5t-10.5 36t-31.5 16.5h-5h-5z" />
    <glyph glyph-name="A" unicode="A" horiz-adv-x="671" 
d="M-5 0l231 700h218l231 -700h-193l-30 101h-233l-30 -101h-194zM406 255l-71 238l-70 -238h141z" />
    <glyph glyph-name="B" unicode="B" horiz-adv-x="602" 
d="M55 0v700h276q52 0 95 -14t73 -39.5t46.5 -62.5t16.5 -83q0 -88 -65 -139q88 -52 88 -157q0 -94 -64 -149q-65 -56 -171 -56h-295zM234 278v-118h111q27 0 44 16.5t17 42.5q0 27 -17 43t-44 16h-111zM326 430q24 0 40.5 14.5t16.5 40.5q0 25 -16 40t-41 15h-92v-110h92z
" />
    <glyph glyph-name="C" unicode="C" horiz-adv-x="719" 
d="M28 350q0 79 27.5 145.5t76 115.5t115.5 76.5t146 27.5q46 0 90 -11t83.5 -32.5t72.5 -52.5t57 -70l-155 -89q-20 37 -59.5 58.5t-88.5 21.5q-43 0 -77.5 -14t-59 -39t-37.5 -60t-13 -77q0 -86 50 -138t137 -52q49 0 88.5 21.5t59.5 59.5l155 -90q-46 -78 -126 -122
t-177 -44q-80 0 -146.5 27t-115.5 76t-76 115.5t-27 146.5z" />
    <glyph glyph-name="D" unicode="D" horiz-adv-x="708" 
d="M340 700q74 0 136.5 -27.5t107.5 -75t70.5 -111t25.5 -136.5q0 -74 -25 -137.5t-70 -111t-107.5 -74.5t-137.5 -27h-285v700h285zM340 173q39 0 70 13.5t52 37t32 56t11 70.5q0 37 -11 69.5t-32.5 56.5t-52 37.5t-69.5 13.5h-101v-354h101z" />
    <glyph glyph-name="E" unicode="E" horiz-adv-x="535" 
d="M55 700h445v-167h-266v-97h241v-165h-241v-103h271v-168h-450v700z" />
    <glyph glyph-name="F" unicode="F" horiz-adv-x="518" 
d="M55 700h430v-173h-251v-114h246v-173h-246v-240h-179v700z" />
    <glyph glyph-name="G" unicode="G" horiz-adv-x="778" 
d="M28 349q0 78 28 144.5t77 116t115.5 77.5t144.5 28q92 0 174.5 -41.5t132.5 -119.5l-152 -87q-21 33 -61.5 53t-91.5 20q-42 0 -77 -14.5t-59.5 -40t-38.5 -60.5t-14 -77q0 -45 15 -80.5t41.5 -60.5t63 -38.5t80.5 -13.5q122 0 161 92h-170v154h353v-71
q0 -78 -25.5 -141.5t-71 -108.5t-109.5 -70t-141 -25q-80 0 -148.5 26.5t-118.5 74.5t-79 115t-29 148z" />
    <glyph glyph-name="H" unicode="H" horiz-adv-x="665" 
d="M234 700v-259h197v259h178v-700h-178v269h-197v-269h-179v700h179z" />
    <glyph glyph-name="I" unicode="I" horiz-adv-x="289" 
d="M55 700h179v-700h-179v700z" />
    <glyph glyph-name="J" unicode="J" horiz-adv-x="571" 
d="M267 -15q-171 0 -242 140l153 89q15 -29 35 -42t54 -13q77 0 77 71v470h179v-473q0 -59 -19 -104t-52.5 -75.5t-80.5 -46.5t-104 -16z" />
    <glyph glyph-name="K" unicode="K" horiz-adv-x="631" 
d="M55 0v700h179v-294l191 294h200l-222 -340l232 -360h-200l-201 313v-313h-179z" />
    <glyph glyph-name="L" unicode="L" horiz-adv-x="485" 
d="M234 173h241v-173h-420v700h179v-527z" />
    <glyph glyph-name="M" unicode="M" horiz-adv-x="825" 
d="M55 700h179l178 -299l179 299h178v-700h-178v377l-170 -281h-18l-169 280v-376h-179v700z" />
    <glyph glyph-name="N" unicode="N" horiz-adv-x="675" 
d="M55 700h139l247 -352v352h178v-700h-138l-247 352v-352h-179v700z" />
    <glyph glyph-name="O" unicode="O" horiz-adv-x="790" 
d="M395 -15q-78 0 -145 28t-116.5 76.5t-77.5 115.5t-28 145t28.5 144.5t78 115.5t116.5 77t144 28t144 -28t116.5 -77t78 -116t28.5 -144q0 -78 -28.5 -144.5t-78 -115.5t-116.5 -77t-144 -28zM395 540q-41 0 -75.5 -14.5t-60 -40t-39.5 -60t-14 -75.5t14 -76t39 -60.5
t59.5 -39.5t76.5 -14t76.5 14t59.5 39.5t39 60.5t14 76t-14 75.5t-39.5 60t-60 40t-75.5 14.5z" />
    <glyph glyph-name="P" unicode="P" horiz-adv-x="592" 
d="M327 700q53 0 99 -18t79.5 -50.5t52.5 -77.5t19 -99t-19 -99t-52.5 -77.5t-79.5 -50.5t-99 -18h-93v-210h-179v700h272zM234 380h93q30 0 50.5 21t20.5 54t-20.5 53.5t-50.5 20.5h-93v-149z" />
    <glyph glyph-name="Q" unicode="Q" horiz-adv-x="795" 
d="M28 350q0 78 28.5 144.5t78 115.5t116.5 77t144 28t144 -28t116.5 -77t78 -116t28.5 -144q0 -127 -75 -224l63 -68l-125 -111l-69 74q-75 -36 -161 -36q-78 0 -145 28t-116.5 76.5t-77.5 115.5t-28 145zM395 540q-41 0 -75.5 -14.5t-60 -40t-39.5 -60t-14 -75.5t14 -76
t39 -60.5t59.5 -39.5t76.5 -14q5 0 12.5 0.5t16.5 1.5l-94 101l126 110l107 -114q21 42 21 91q0 41 -14 75.5t-39.5 60t-60 40t-75.5 14.5z" />
    <glyph glyph-name="R" unicode="R" horiz-adv-x="620" 
d="M55 700h280q52 0 98 -18t80 -50t54 -76.5t20 -97.5q0 -63 -32 -115.5t-87 -83.5l144 -259h-192l-122 226h-64v-226h-179v700zM333 378q33 -1 54 21t21 57t-21 57t-54 22h-99v-157h99z" />
    <glyph glyph-name="S" unicode="S" horiz-adv-x="585" 
d="M171 248q39 -93 138 -93q82 0 82 47q0 32 -47 50q-10 4 -32 10.5t-56 16.5q-48 14 -86.5 33t-65.5 45.5t-41.5 61t-14.5 79.5q0 52 19.5 92.5t53 68t77.5 42t93 14.5q88 0 156 -41t104 -119l-150 -88q-33 78 -109 78q-32 0 -48.5 -13t-16.5 -33q0 -12 5.5 -21t19 -18
t36.5 -18t59 -19q43 -13 83.5 -28.5t71.5 -40.5t49.5 -61t18.5 -89q0 -58 -22 -99.5t-59 -68t-85 -39t-100 -12.5q-112 0 -184.5 46.5t-101.5 127.5z" />
    <glyph glyph-name="T" unicode="T" horiz-adv-x="545" 
d="M10 527v173h525v-173h-173v-527h-179v527h-173z" />
    <glyph glyph-name="U" unicode="U" horiz-adv-x="650" 
d="M227 700v-453q0 -88 98 -88t98 88v453h179v-470q0 -60 -22.5 -105.5t-60.5 -76.5t-88 -47t-106 -16t-106.5 15.5t-88.5 46.5t-60 77t-22 106v470h179z" />
    <glyph glyph-name="V" unicode="V" horiz-adv-x="665" 
d="M196 700l136 -482l137 482h196l-226 -700h-213l-226 700h196z" />
    <glyph glyph-name="W" unicode="W" horiz-adv-x="1004" 
d="M198 700l108 -441l125 441h141l125 -441l109 441h192l-195 -700h-189l-112 395l-112 -395h-189l-196 700h193z" />
    <glyph glyph-name="X" unicode="X" horiz-adv-x="632" 
d="M5 0l211 357l-203 343h201l102 -173l102 173h201l-203 -344l210 -356h-200l-110 186l-110 -186h-201z" />
    <glyph glyph-name="Y" unicode="Y" horiz-adv-x="651" 
d="M0 700h201l124 -259l125 259h201l-236 -431v-269h-179v267z" />
    <glyph glyph-name="Z" unicode="Z" horiz-adv-x="542" 
d="M265 173h255v-173h-487v138l247 389h-242v173h474v-138z" />
    <glyph glyph-name="bracketleft" unicode="[" horiz-adv-x="329" 
d="M45 800h264v-159h-97v-582h97v-159h-264v900z" />
    <glyph glyph-name="backslash" unicode="\" horiz-adv-x="520" 
d="M425 -100l-400 900h70l400 -900h-70z" />
    <glyph glyph-name="bracketright" unicode="]" horiz-adv-x="329" 
d="M20 -100v159h97v582h-97v159h264v-900h-264z" />
    <glyph glyph-name="asciicircum" unicode="^" horiz-adv-x="580" 
d="M231 700h118l200 -354h-178l-81 158l-81 -158h-178z" />
    <glyph glyph-name="underscore" unicode="_" horiz-adv-x="515" 
d="M25 -186v158h465v-158h-465z" />
    <glyph glyph-name="grave" unicode="`" horiz-adv-x="314" 
d="M136 555l-116 145h194l80 -145h-158z" />
    <glyph glyph-name="a" unicode="a" 
d="M24 250q0 51 16 99t46.5 84.5t74 58.5t98.5 22q91 0 142 -60v46h166v-500h-166v46q-51 -60 -142 -60q-101 0 -168 75q-67 76 -67 189zM191 250q0 -48 29 -79q28 -30 76 -30q49 0 77 30.5t28 78.5t-28 78.5t-77 30.5t-77 -30.5t-28 -78.5z" />
    <glyph glyph-name="b" unicode="b" 
d="M48 700h166v-246q51 60 142 60q54 0 97.5 -22t74 -59t47 -84.5t16.5 -98.5t-16 -99t-46.5 -84.5t-74 -58.5t-98.5 -22q-91 0 -142 60v-46h-166v700zM319 359q-49 0 -77 -30.5t-28 -78.5t29 -79q28 -30 76 -30q49 0 77 30.5t28 78.5t-28 78.5t-77 30.5z" />
    <glyph glyph-name="c" unicode="c" horiz-adv-x="528" 
d="M24 250q0 57 20.5 105.5t56 83.5t84 55t105.5 20q75 0 135 -34.5t93 -94.5l-142 -82q-27 49 -87 49q-42 0 -70 -28.5t-28 -73.5t28 -73.5t70 -28.5q61 0 87 50l142 -82q-33 -60 -93 -95t-135 -35q-57 0 -105.5 20t-84 55t-56 83.5t-20.5 105.5z" />
    <glyph glyph-name="d" unicode="d" 
d="M24 250q0 51 16 99t46.5 84.5t74 58.5t98.5 22q91 0 142 -60v246h166v-700h-166v46q-51 -60 -142 -60q-101 0 -168 75q-67 76 -67 189zM191 250q0 -48 29 -79q28 -30 76 -30q49 0 77 30.5t28 78.5t-28 78.5t-77 30.5t-77 -30.5t-28 -78.5z" />
    <glyph glyph-name="e" unicode="e" horiz-adv-x="571" 
d="M24 249q0 58 20 106.5t55.5 83.5t84.5 55t106 20t104.5 -20t81.5 -55.5t53 -83.5t19 -104q0 -35 -7 -62h-345q25 -61 112 -61q53 0 91 35l120 -84q-74 -93 -215 -93q-60 0 -111.5 18t-89 51.5t-58.5 82.5t-21 111zM292 374q-77 0 -98 -70h192q-19 70 -94 70z" />
    <glyph glyph-name="f" unicode="f" horiz-adv-x="330" 
d="M78 500q0 103 57 159.5t170 56.5q6 0 12 -0.5t13 -0.5v-154q-17 0 -32.5 -1.5t-27.5 -8t-19 -18.5t-7 -33h86v-159h-86v-341h-166v341h-63v159h63z" />
    <glyph glyph-name="g" unicode="g" horiz-adv-x="618" 
d="M266 6q-54 0 -97.5 20.5t-75 55t-48.5 80.5t-17 98t17 98t48.5 80.5t75 55t97.5 20.5q89 0 140 -62v48h164v-480q0 -62 -22.5 -106.5t-59.5 -73t-84.5 -42t-96.5 -13.5q-84 0 -148.5 31t-97.5 91l138 80q36 -57 106 -57q45 0 73 22.5t28 67.5v48q-51 -62 -140 -62z
M223 334q-29 -29 -29 -74q0 -48 29.5 -76t76.5 -28q46 0 76 28.5t30 75.5q0 46 -30.5 75t-75.5 29q-47 0 -77 -30z" />
    <glyph glyph-name="h" unicode="h" horiz-adv-x="579" 
d="M48 0v700h166v-250q45 64 139 64q40 0 74 -14t58.5 -41.5t38 -67.5t13.5 -92v-299h-166v278q0 39 -20.5 59t-54.5 20q-39 0 -60.5 -23t-21.5 -68v-266h-166z" />
    <glyph glyph-name="i" unicode="i" horiz-adv-x="262" 
d="M48 500h166v-500h-166v500zM64 565q-14 14 -20.5 30.5t-6.5 33.5t6.5 33.5t20.5 29.5q29 26 67 26q37 0 65 -26q14 -13 21 -29t7 -33t-7 -34t-21 -31q-13 -13 -30 -19.5t-34 -6.5q-18 0 -36 6.5t-32 19.5z" />
    <glyph glyph-name="j" unicode="j" horiz-adv-x="277" 
d="M-10 -61q35 0 54 11t19 50v500h166v-500q0 -112 -51 -164t-160 -52h-13.5t-14.5 1v154zM79 565q-14 14 -20.5 30.5t-6.5 33.5t6.5 33.5t20.5 29.5q29 26 67 26q37 0 65 -26q14 -13 21 -29t7 -33t-7 -34t-21 -31q-13 -13 -30 -19.5t-34 -6.5q-18 0 -36 6.5t-32 19.5z" />
    <glyph glyph-name="k" unicode="k" horiz-adv-x="542" 
d="M48 0v700h166v-409l129 209h192l-168 -250l175 -250h-186l-142 213v-213h-166z" />
    <glyph glyph-name="l" unicode="l" horiz-adv-x="262" 
d="M48 0v730h166v-730h-166z" />
    <glyph glyph-name="m" unicode="m" horiz-adv-x="852" 
d="M48 500h166v-47q46 61 135 61q86 0 128 -64q52 64 145 64q88 0 138 -55.5t50 -152.5v-306h-167v287q0 70 -62 70q-34 0 -51.5 -22.5t-17.5 -61.5v-273h-166v287q0 70 -63 70q-34 0 -51.5 -22.5t-17.5 -61.5v-273h-166v500z" />
    <glyph glyph-name="n" unicode="n" horiz-adv-x="579" 
d="M48 0v500h166v-50q45 64 139 64q40 0 74 -14t58.5 -41.5t38 -67.5t13.5 -92v-299h-166v278q0 39 -20.5 59t-54.5 20q-39 0 -60.5 -23t-21.5 -68v-266h-166z" />
    <glyph glyph-name="o" unicode="o" horiz-adv-x="583" 
d="M291 -14q-56 0 -104.5 20t-84.5 55.5t-57 84t-21 104.5t21 104t57 83.5t84.5 56t104.5 20.5q55 0 104 -20.5t85 -56t57 -83.5t21 -104t-21 -104.5t-57 -84t-84.5 -55.5t-104.5 -20zM291 354q-43 0 -71.5 -29t-28.5 -75t28.5 -75t71.5 -29q45 0 73 29t28 75t-28 75t-73 29
z" />
    <glyph glyph-name="p" unicode="p" 
d="M48 500h166v-46q51 60 142 60q100 0 167 -76q68 -76 68 -188q0 -51 -16 -99t-46.5 -84.5t-74 -58.5t-98.5 -22q-91 0 -142 60v-246h-166v700zM319 359q-49 0 -77 -30.5t-28 -78.5t29 -79q28 -30 76 -30q49 0 77 30.5t28 78.5t-28 78.5t-77 30.5z" />
    <glyph glyph-name="q" unicode="q" 
d="M24 250q0 51 16 99t46.5 84.5t74 58.5t98.5 22q91 0 142 -60v46h166v-700h-166v246q-51 -60 -142 -60q-56 0 -99.5 21.5t-73.5 58t-46 84.5t-16 100zM191 250q0 -48 28 -78.5t77 -30.5t77 30.5t28 78.5t-28 78.5t-77 30.5q-48 0 -76 -30q-29 -31 -29 -79z" />
    <glyph glyph-name="r" unicode="r" horiz-adv-x="379" 
d="M214 500v-93q14 49 56 76t94 27v-184q-7 1 -13 1.5t-13 0.5q-41 0 -78 -23q-46 -30 -46 -98v-207h-166v500h166z" />
    <glyph glyph-name="s" unicode="s" horiz-adv-x="475" 
d="M160 178q19 -55 78 -55q45 0 45 27q0 14 -25 23t-61 18q-26 6 -54 16t-51.5 28t-38 45t-14.5 66q0 42 17 73.5t45 52.5t64 31.5t75 10.5q147 0 206 -116l-140 -63q-22 43 -62 43q-37 0 -37 -24q0 -14 25.5 -23t61.5 -17q27 -5 55.5 -15t52 -28.5t38.5 -46.5t15 -70
q0 -46 -18.5 -78t-49 -52t-69.5 -29t-79 -9q-168 0 -224 119z" />
    <glyph glyph-name="t" unicode="t" horiz-adv-x="394" 
d="M13 500h75v90l166 50v-140h104v-159h-104v-145q0 -28 16.5 -37.5t54.5 -9.5h16t17 1v-150q-21 -2 -40.5 -3.5t-37.5 -1.5q-103 0 -147.5 46t-44.5 151v149h-75v159z" />
    <glyph glyph-name="u" unicode="u" horiz-adv-x="579" 
d="M226 -14q-41 0 -74.5 14t-58 41.5t-38 67.5t-13.5 92v299h166v-278q0 -39 20.5 -59t54.5 -20q39 0 60.5 23t21.5 68v266h166v-500h-166v50q-45 -64 -139 -64z" />
    <glyph glyph-name="v" unicode="v" horiz-adv-x="554" 
d="M0 500h184l93 -287l93 287h184l-187 -500h-180z" />
    <glyph glyph-name="w" unicode="w" horiz-adv-x="798" 
d="M12 500h176l66 -272l75 272h140l75 -272l66 272h176l-153 -500h-162l-72 254l-72 -254h-162z" />
    <glyph glyph-name="x" unicode="x" horiz-adv-x="549" 
d="M181 255l-174 245h187l80 -113l80 113h188l-174 -245l181 -255h-188l-87 123l-87 -123h-187z" />
    <glyph glyph-name="y" unicode="y" horiz-adv-x="549" 
d="M186 500l101 -290l78 290h184l-171 -492q-38 -109 -105.5 -159t-174.5 -50q-5 0 -10.5 0.5t-11.5 0.5v156q53 0 80 13t44 47l-200 484h186z" />
    <glyph glyph-name="z" unicode="z" horiz-adv-x="484" 
d="M262 154h187v-154h-409v114l177 232h-167v154h389v-114z" />
    <glyph glyph-name="braceleft" unicode="{" horiz-adv-x="362" 
d="M113 222q0 28 -13.5 39.5t-39.5 11.5h-9.5t-9.5 -1v159q5 -1 9.5 -1h9.5q26 0 39.5 11.5t13.5 39.5v134q0 94 50.5 145t153.5 51h12t13 -1v-154q-4 0 -7 0.5t-6 0.5q-50 0 -50 -42v-134q0 -93 -67 -129q67 -37 67 -130v-134q0 -42 50 -42q3 0 6 0.5t7 0.5v-154
q-7 -1 -13 -1h-12q-103 0 -153.5 51t-50.5 145v134v0z" />
    <glyph glyph-name="bar" unicode="|" horiz-adv-x="277" 
d="M55 -200v920h167v-920h-167z" />
    <glyph glyph-name="braceright" unicode="}" horiz-adv-x="362" 
d="M20 47q4 0 7 -0.5t6 -0.5q50 0 50 42v134q0 93 67 130q-67 36 -67 129v134q0 42 -50 42q-3 0 -6 -0.5t-7 -0.5v154q7 1 13 1h12q103 0 153.5 -51t50.5 -145v-134q0 -28 13.5 -39.5t39.5 -11.5h9.5t9.5 1v-159q-5 1 -9.5 1h-9.5q-26 0 -39.5 -11.5t-13.5 -39.5v-134
q0 -94 -50.5 -145t-153.5 -51h-12t-13 1v154z" />
    <glyph glyph-name="asciitilde" unicode="~" horiz-adv-x="606" 
d="M35 296q25 111 100 149q34 18 73 18q44 0 89 -22q35 -15 57 -22.5t36 -7.5q17 0 27 12t22 38l131 -61q-25 -111 -100 -149q-35 -18 -73 -18q-43 0 -88 22q-33 16 -56.5 23t-38.5 7q-20 0 -31 -16.5t-16 -33.5l-132 61v0z" />
    <glyph glyph-name="exclamdown" unicode="&#xa1;" horiz-adv-x="294" 
d="M45 0l33 245h138l33 -245v-200h-204v200zM147 306q-21 0 -40 8t-33.5 22.5t-22.5 33.5t-8 40q0 22 8 41t22.5 33t33.5 22t40 8t40 -8t33.5 -22t22.5 -33t8 -41q0 -21 -8 -40t-22.5 -33.5t-33.5 -22.5t-40 -8z" />
    <glyph glyph-name="cent" unicode="&#xa2;" horiz-adv-x="528" 
d="M177 109q-35 15 -63 39.5t-48 56t-31 68t-11 77.5q0 57 20.5 105.5t56 83.5t84 55t105.5 20q30 0 49 -4l29 90h63l-35 -107q80 -33 122 -108l-142 -82q-9 18 -30 33l-61 -188h4q61 0 87 50l142 -82q-33 -60 -93 -95t-135 -35q-13 0 -27 1.5t-29 3.5l-29 -91h-63zM288 452
q-42 -1 -69.5 -29t-27.5 -73q0 -53 38 -82z" />
    <glyph glyph-name="sterling" unicode="&#xa3;" horiz-adv-x="575" 
d="M25 0v173h62v99h-52v140h52v76q0 109 68 168q70 59 162 59q169 0 237 -156l-155 -86q-23 71 -75 71q-27 0 -42.5 -17.5t-15.5 -48.5v-66h189v-140h-189v-99h304v-173h-545z" />
    <glyph glyph-name="currency" unicode="&#xa4;" horiz-adv-x="533" 
d="M25 549l43 42l71 -71q55 40 128 40q72 0 128 -39l70 70l43 -42l-69 -69q44 -58 44 -130q0 -75 -45 -130l70 -69l-43 -42l-70 70q-56 -39 -128 -39q-73 0 -128 40l-71 -71l-43 42l70 70q-44 56 -44 129t44 129zM211 350q0 -26 15 -41t41 -15q25 0 40.5 15t15.5 41
t-15.5 41t-40.5 15q-26 0 -41 -15t-15 -41z" />
    <glyph glyph-name="yen" unicode="&#xa5;" horiz-adv-x="631" 
d="M0 700h201l124 -259l125 259h201l-179 -328h85v-94h-137l-5 -9v-32h142v-93h-142v-144h-179v144h-163v93h163v30l-6 11h-157v94h106z" />
    <glyph glyph-name="brokenbar" unicode="&#xa6;" horiz-adv-x="277" 
d="M55 350v370h167v-370h-167zM222 170v-370h-167v370h167z" />
    <glyph glyph-name="section" unicode="&#xa7;" horiz-adv-x="545" 
d="M38 320q0 79 58 124q-26 41 -26 98q0 43 17 75.5t45 54t64.5 32.5t75.5 11q153 0 213 -130l-135 -68q-26 63 -73 63q-20 0 -31 -9.5t-11 -24.5q0 -22 28 -39l29 -14l39 -15q33 -13 66.5 -28t60 -36.5t43 -51t16.5 -71.5q0 -76 -55 -125q31 -41 31 -103q0 -47 -18.5 -80
t-49 -54t-70 -31t-80.5 -10q-172 0 -228 125l143 78q26 -65 85 -65q52 0 52 37q0 9 -6.5 16.5t-15.5 13.5t-19 10t-17 7q-6 3 -16.5 7t-21.5 8l-22 8t-18 7q-70 28 -111.5 69.5t-41.5 110.5zM202 328q0 -21 16.5 -34.5t51.5 -25.5l15 -5t18.5 -7t19 -7t15.5 -5q15 12 15 34
q0 15 -11 26q-11 10 -21.5 15.5t-35.5 15.5l-29 10l-40 16q-14 -12 -14 -33z" />
    <glyph glyph-name="dieresis" unicode="&#xa8;" horiz-adv-x="389" 
d="M215 615q0 33 23.5 56.5t55.5 23.5q33 0 56.5 -23.5t23.5 -56.5t-23.5 -56.5t-56.5 -23.5q-32 0 -55.5 23.5t-23.5 56.5zM20 615q0 33 23.5 56.5t56.5 23.5q32 0 55.5 -23.5t23.5 -56.5t-23.5 -56.5t-55.5 -23.5q-33 0 -56.5 23.5t-23.5 56.5z" />
    <glyph glyph-name="copyright" unicode="&#xa9;" horiz-adv-x="779" 
d="M28 350q0 75 28.5 141t77.5 115t115 77.5t141 28.5t141 -28.5t115 -77.5t77.5 -115t28.5 -141t-28.5 -141t-77.5 -115t-115 -77.5t-141 -28.5t-141 28.5t-115 77.5t-77.5 115t-28.5 141zM390 671q-67 0 -125 -25.5t-101 -69t-67.5 -102t-24.5 -124.5t24.5 -124.5
t67.5 -102t101 -69t125 -25.5t124.5 25.5t100.5 69t67.5 102t24.5 124.5t-24.5 124.5t-67.5 102t-100.5 69t-124.5 25.5zM393 153q-41 0 -77.5 15.5t-63.5 42t-42.5 62.5t-15.5 77t16 77t43 62.5t63 42t77 15.5q51 0 96 -26t72 -71l-118 -69q-20 30 -54 30
q-27 0 -43.5 -18.5t-16.5 -42.5t16.5 -42.5t43.5 -18.5q34 0 54 30l118 -69q-26 -45 -71.5 -71t-96.5 -26z" />
    <glyph glyph-name="guillemotleft" unicode="&#xab;" horiz-adv-x="569" 
d="M372 504h142l-113 -195l113 -195h-142l-112 195zM168 504h141l-112 -195l112 -195h-141l-113 195z" />
    <glyph glyph-name="logicalnot" unicode="&#xac;" horiz-adv-x="569" 
d="M35 429h499v-278h-169v120h-330v158z" />
    <glyph glyph-name="registered" unicode="&#xae;" horiz-adv-x="779" 
d="M28 350q0 75 28.5 141t77.5 115t115 77.5t141 28.5t141 -28.5t115 -77.5t77.5 -115t28.5 -141t-28.5 -141t-77.5 -115t-115 -77.5t-141 -28.5t-141 28.5t-115 77.5t-77.5 115t-28.5 141zM390 671q-67 0 -125 -25.5t-101 -69t-67.5 -102t-24.5 -124.5t24.5 -124.5
t67.5 -102t101 -69t125 -25.5t124.5 25.5t100.5 69t67.5 102t24.5 124.5t-24.5 124.5t-67.5 102t-100.5 69t-124.5 25.5zM240 535h176q28 0 53.5 -8.5t45 -25t31.5 -39.5t12 -53q0 -71 -51 -114l74 -130h-141l-48 97h-21v-97h-131v370zM371 367h24q32 0 32 27q0 26 -32 26
h-24v-53z" />
    <glyph glyph-name="macron" unicode="&#xaf;" horiz-adv-x="349" 
d="M20 554v130h309v-130h-309z" />
    <glyph glyph-name="degree" unicode="&#xb0;" horiz-adv-x="415" 
d="M208 461q-37 0 -69.5 13t-56.5 36.5t-38 55t-14 69.5q0 37 13.5 69.5t37.5 55.5t56.5 36.5t70.5 13.5q37 0 69.5 -13.5t56.5 -36.5t37.5 -55.5t13.5 -69.5q0 -38 -13.5 -70t-37 -55t-56 -36t-70.5 -13zM204 681q-20 0 -30 -14t-10 -31.5t9.5 -31.5t29.5 -14h5h5
q19 0 28.5 14t9.5 31.5t-10 31.5t-29 14h-4h-4z" />
    <glyph glyph-name="plusminus" unicode="&#xb1;" horiz-adv-x="560" 
d="M41 529h160v136h158v-136h160v-158h-160v-136h-158v136h-160v158zM41 180h478v-159h-478v159z" />
    <glyph glyph-name="acute" unicode="&#xb4;" horiz-adv-x="314" 
d="M100 700h194l-116 -145h-158z" />
    <glyph glyph-name="uni00B5" unicode="&#xb5;" horiz-adv-x="608" 
d="M214 500v-278q0 -40 20.5 -60t55.5 -20q38 0 59.5 23.5t21.5 68.5v266h166v-321q0 -30 30 -30h26v-149h-72q-76 0 -117 47q-45 -62 -141 -62q-28 0 -49 7v-192h-166v700h166z" />
    <glyph glyph-name="paragraph" unicode="&#xb6;" horiz-adv-x="727" 
d="M245 251q-47 0 -88 17.5t-71.5 47.5t-48 71t-17.5 88t17.5 88t48 71.5t71.5 48t88 17.5h447v-160h-67v-740h-158v740h-64v-740h-158v451v0z" />
    <glyph glyph-name="periodcentered" unicode="&#xb7;" horiz-adv-x="289" 
d="M40 350q0 21 8.5 40t22.5 33.5t33.5 22.5t40.5 8t40 -8t33.5 -22.5t22.5 -33.5t8 -40t-8 -40t-22.5 -33.5t-33.5 -22.5t-40 -8q-22 0 -41 8t-33.5 22.5t-22.5 33.5t-8 40z" />
    <glyph glyph-name="cedilla" unicode="&#xb8;" horiz-adv-x="274" 
d="M20 -112q12 -1 22.5 -1.5t19.5 -0.5q53 0 53 16q0 15 -53 20v78h134v-46q22 -7 40 -26t18 -51q0 -99 -186 -99h-23t-25 1v109v0z" />
    <glyph glyph-name="guillemotright" unicode="&#xbb;" horiz-adv-x="569" 
d="M260 504h141l113 -195l-113 -195h-141l112 195zM55 114l113 195l-113 195h142l112 -195l-112 -195h-142z" />
    <glyph glyph-name="onequarter" unicode="&#xbc;" horiz-adv-x="818" 
d="M580 400h138l-111 -229h41v63h122v-63h35v-115h-35v-56h-122v56h-184v115zM107 0l404 700h114l-404 -700h-114zM127 700h113v-400h-131v266l-79 -21l-30 109z" />
    <glyph glyph-name="onehalf" unicode="&#xbd;" horiz-adv-x="812" 
d="M471 314q46 100 158 100q28 0 55.5 -8.5t48.5 -25t34 -40.5t13 -55q0 -61 -70 -128l-42 -40h116v-117h-306v89l143 139q29 29 29 48q0 22 -26 22t-46 -44zM511 700h114l-404 -700h-114zM127 700h113v-400h-131v266l-79 -21l-30 109z" />
    <glyph glyph-name="threequarters" unicode="&#xbe;" horiz-adv-x="877" 
d="M165 286q-120 0 -162 94l108 62q15 -43 54 -43q32 0 32 26q0 25 -32 25h-28l-46 68l56 66h-124v116h286v-87l-65 -76q82 -30 82 -112q0 -67 -43 -103t-118 -36zM523 171l116 229h138l-111 -229h41v63h122v-63h35v-115h-35v-56h-122v56h-184v115zM570 700h114l-404 -700
h-114z" />
    <glyph glyph-name="questiondown" unicode="&#xbf;" horiz-adv-x="547" 
d="M271 -215q-45 0 -86.5 13t-73.5 38t-51 62.5t-19 85.5q0 37 11.5 66t29.5 52.5t38 42t38 35t29.5 32.5t11.5 33h170q0 -42 -23.5 -78t-51.5 -59q-28 -22 -51.5 -49.5t-23.5 -52.5q0 -48 59 -48q62 0 96 79l152 -87q-33 -81 -101.5 -123t-153.5 -42zM180 410
q0 45 29.5 74.5t74.5 29.5t74.5 -29.5t29.5 -74.5q0 -21 -8 -40t-22.5 -33.5t-33.5 -22.5t-40 -8t-40 8t-33.5 22.5t-22.5 33.5t-8 40z" />
    <glyph glyph-name="Agrave" unicode="&#xc0;" horiz-adv-x="671" 
d="M-5 0l231 700h218l231 -700h-193l-30 101h-233l-30 -101h-194zM350 900l80 -145h-158l-116 145h194zM265 255h141l-71 238z" />
    <glyph glyph-name="Aacute" unicode="&#xc1;" horiz-adv-x="671" 
d="M-5 0l231 700h218l231 -700h-193l-30 101h-233l-30 -101h-194zM333 900h194l-116 -145h-158zM265 255h141l-71 238z" />
    <glyph glyph-name="Acircumflex" unicode="&#xc2;" horiz-adv-x="671" 
d="M226 700h218l231 -700h-193l-30 101h-233l-30 -101h-194zM247 900h167l106 -155h-150l-39 56l-40 -56h-150zM406 255l-71 238l-70 -238h141z" />
    <glyph glyph-name="Atilde" unicode="&#xc3;" horiz-adv-x="671" 
d="M226 700h218l231 -700h-193l-30 101h-233l-30 -101h-194zM156 748q0 45 9 76t24.5 50.5t36 28.5t43.5 9q19 0 38.5 -5.5t38.5 -15.5q22 -14 33 -14q8 0 12 7.5t4 25.5h120q0 -45 -9 -76t-24 -50.5t-35.5 -28t-42.5 -8.5q-20 0 -40 5.5t-40 15.5q-20 14 -32 14
q-16 0 -16 -34h-120zM406 255l-71 238l-70 -238h141z" />
    <glyph glyph-name="Adieresis" unicode="&#xc4;" horiz-adv-x="671" 
d="M226 700h218l231 -700h-193l-30 101h-233l-30 -101h-194zM238 735q-33 0 -56.5 23.5t-23.5 56.5t23.5 56.5t56.5 23.5q32 0 55.5 -23.5t23.5 -56.5t-23.5 -56.5t-55.5 -23.5zM353 815q0 33 23.5 56.5t55.5 23.5q33 0 56.5 -23.5t23.5 -56.5t-23.5 -56.5t-56.5 -23.5
q-32 0 -55.5 23.5t-23.5 56.5zM406 255l-71 238l-70 -238h141z" />
    <glyph glyph-name="Aring" unicode="&#xc5;" horiz-adv-x="671" 
d="M-5 0l227 689q-27 34 -27 81q0 28 10.5 52.5t29 42t44.5 27.5t56 10q31 0 57 -10t45 -27.5t29 -42t10 -52.5q0 -48 -28 -83l227 -687h-193l-30 101h-233l-30 -101h-194zM406 255l-71 238l-70 -238h141zM335 802q-16 0 -24 -10t-8 -22t8 -22t24 -10q34 0 34 32t-34 32z
" />
    <glyph glyph-name="AE" unicode="&#xc6;" horiz-adv-x="885" 
d="M395 700h455v-167h-231v-97h206v-165h-206v-103h236v-168h-410v101h-194l-57 -101h-199zM445 255v192l-108 -192h108z" />
    <glyph glyph-name="Ccedilla" unicode="&#xc7;" horiz-adv-x="719" 
d="M331 -10q-69 10 -125 41.5t-95.5 79.5t-61 109t-21.5 130q0 79 27.5 145.5t76 115.5t115.5 76.5t146 27.5q46 0 90 -11t83.5 -32.5t72.5 -52.5t57 -70l-155 -89q-20 37 -59.5 58.5t-88.5 21.5q-43 0 -77.5 -14t-59 -39t-37.5 -60t-13 -77q0 -86 50 -138t137 -52
q49 0 88.5 21.5t59.5 59.5l155 -90q-37 -63 -97.5 -104t-133.5 -55v-38q22 -7 40 -26t18 -51q0 -99 -186 -99h-23t-25 1v109q12 -1 22.5 -1.5t19.5 -0.5q53 0 53 16q0 15 -53 20v68v0z" />
    <glyph glyph-name="Egrave" unicode="&#xc8;" horiz-adv-x="535" 
d="M55 700h445v-167h-266v-97h241v-165h-241v-103h271v-168h-450v700zM293 900l80 -145h-158l-116 145h194z" />
    <glyph glyph-name="Eacute" unicode="&#xc9;" horiz-adv-x="535" 
d="M55 700h445v-167h-266v-97h241v-165h-241v-103h271v-168h-450v700zM259 900h194l-116 -145h-158z" />
    <glyph glyph-name="Ecircumflex" unicode="&#xca;" horiz-adv-x="535" 
d="M500 700v-167h-266v-97h241v-165h-241v-103h271v-168h-450v700h445zM190 900h167l106 -155h-150l-39 56l-40 -56h-150z" />
    <glyph glyph-name="Edieresis" unicode="&#xcb;" horiz-adv-x="535" 
d="M500 700v-167h-266v-97h241v-165h-241v-103h271v-168h-450v700h445zM296 815q0 33 23.5 56.5t55.5 23.5q33 0 56.5 -23.5t23.5 -56.5t-23.5 -56.5t-56.5 -23.5q-32 0 -55.5 23.5t-23.5 56.5zM181 735q-33 0 -56.5 23.5t-23.5 56.5t23.5 56.5t56.5 23.5q32 0 55.5 -23.5
t23.5 -56.5t-23.5 -56.5t-55.5 -23.5z" />
    <glyph glyph-name="Igrave" unicode="&#xcc;" horiz-adv-x="289" 
d="M82 755l-116 145h194l80 -145h-158zM55 0h179v700h-179v-700z" />
    <glyph glyph-name="Iacute" unicode="&#xcd;" horiz-adv-x="289" 
d="M126 900h194l-116 -145h-158zM55 0h179v700h-179v-700z" />
    <glyph glyph-name="Icircumflex" unicode="&#xce;" horiz-adv-x="289" 
d="M234 700v-700h-179v700h179zM57 900h167l106 -155h-150l-39 56l-40 -56h-150z" />
    <glyph glyph-name="Idieresis" unicode="&#xcf;" horiz-adv-x="289" 
d="M234 700v-700h-179v700h179zM163 815q0 33 23.5 56.5t55.5 23.5q33 0 56.5 -23.5t23.5 -56.5t-23.5 -56.5t-56.5 -23.5q-32 0 -55.5 23.5t-23.5 56.5zM48 735q-33 0 -56.5 23.5t-23.5 56.5t23.5 56.5t56.5 23.5q32 0 55.5 -23.5t23.5 -56.5t-23.5 -56.5t-55.5 -23.5z" />
    <glyph glyph-name="Eth" unicode="&#xd0;" horiz-adv-x="738" 
d="M10 263v158h76v279h285q74 0 136.5 -27.5t107.5 -75t70.5 -111t25.5 -136.5q0 -74 -25 -137.5t-70 -111t-107.5 -74.5t-137.5 -27h-285v263h-76zM270 263v-90h101q39 0 70 13.5t52 37t32 56t11 70.5q0 37 -11 69.5t-32.5 56.5t-52 37.5t-69.5 13.5h-101v-106h130v-158
h-130z" />
    <glyph glyph-name="Ntilde" unicode="&#xd1;" horiz-adv-x="675" 
d="M55 700h139l247 -352v352h178v-700h-138l-247 352v-352h-179v700zM146 748q0 45 9 76t24.5 50.5t36 28.5t43.5 9q19 0 38.5 -5.5t38.5 -15.5q22 -14 33 -14q8 0 12 7.5t4 25.5h120q0 -45 -9 -76t-24 -50.5t-35.5 -28t-42.5 -8.5q-20 0 -40 5.5t-40 15.5q-20 14 -32 14
q-16 0 -16 -34h-120z" />
    <glyph glyph-name="Ograve" unicode="&#xd2;" horiz-adv-x="790" 
d="M28 350q0 78 28.5 144.5t78 115.5t116.5 77t144 28t144 -28t116.5 -77t78 -116t28.5 -144q0 -78 -28.5 -144.5t-78 -115.5t-116.5 -77t-144 -28q-78 0 -145 28t-116.5 76.5t-77.5 115.5t-28 145zM206 350q0 -41 14 -76t39 -60.5t59.5 -39.5t76.5 -14t76.5 14t59.5 39.5
t39 60.5t14 76t-14 75.5t-39.5 60t-60 40t-75.5 14.5t-75.5 -14.5t-60 -40t-39.5 -60t-14 -75.5zM483 765h-158l-116 145h194z" />
    <glyph glyph-name="Oacute" unicode="&#xd3;" horiz-adv-x="790" 
d="M395 -15q-78 0 -145 28t-116.5 76.5t-77.5 115.5t-28 145t28.5 144.5t78 115.5t116.5 77t144 28t144 -28t116.5 -77t78 -116t28.5 -144q0 -78 -28.5 -144.5t-78 -115.5t-116.5 -77t-144 -28zM395 540q-41 0 -75.5 -14.5t-60 -40t-39.5 -60t-14 -75.5t14 -76t39 -60.5
t59.5 -39.5t76.5 -14t76.5 14t59.5 39.5t39 60.5t14 76t-14 75.5t-39.5 60t-60 40t-75.5 14.5zM384 910h194l-116 -145h-158z" />
    <glyph glyph-name="Ocircumflex" unicode="&#xd4;" horiz-adv-x="790" 
d="M28 350q0 78 28.5 144.5t78 115.5t116.5 77t144 28t144 -28t116.5 -77t78 -116t28.5 -144q0 -78 -28.5 -144.5t-78 -115.5t-116.5 -77t-144 -28q-78 0 -145 28t-116.5 76.5t-77.5 115.5t-28 145zM395 540q-41 0 -75.5 -14.5t-60 -40t-39.5 -60t-14 -75.5t14 -76t39 -60.5
t59.5 -39.5t76.5 -14t76.5 14t59.5 39.5t39 60.5t14 76t-14 75.5t-39.5 60t-60 40t-75.5 14.5zM201 755l106 155h167l106 -155h-150l-39 56l-40 -56h-150z" />
    <glyph glyph-name="Otilde" unicode="&#xd5;" horiz-adv-x="790" 
d="M395 -15q-78 0 -145 28t-116.5 76.5t-77.5 115.5t-28 145t28.5 144.5t78 115.5t116.5 77t144 28t144 -28t116.5 -77t78 -116t28.5 -144q0 -78 -28.5 -144.5t-78 -115.5t-116.5 -77t-144 -28zM206 350q0 -83 54 -137q53 -53 135 -53q42 0 76.5 14t59.5 39.5t39 60.5t14 76
t-14 75.5t-39.5 60t-60 40t-75.5 14.5t-75.5 -14.5t-60 -40t-39.5 -60t-14 -75.5zM216 758q0 45 9 76t24.5 50.5t36 28.5t43.5 9q19 0 38.5 -5.5t38.5 -15.5q22 -14 33 -14q8 0 12 7.5t4 25.5h120q0 -45 -9 -76t-24 -50.5t-35.5 -28t-42.5 -8.5q-20 0 -40 5.5t-40 15.5
q-20 14 -32 14q-16 0 -16 -34h-120z" />
    <glyph glyph-name="Odieresis" unicode="&#xd6;" horiz-adv-x="790" 
d="M28 350q0 78 28.5 144.5t78 115.5t116.5 77t144 28t144 -28t116.5 -77t78 -116t28.5 -144q0 -78 -28.5 -144.5t-78 -115.5t-116.5 -77t-144 -28q-78 0 -145 28t-116.5 76.5t-77.5 115.5t-28 145zM395 540q-41 0 -75.5 -14.5t-60 -40t-39.5 -60t-14 -75.5t14 -76t39 -60.5
t59.5 -39.5t76.5 -14t76.5 14t59.5 39.5t39 60.5t14 76t-14 75.5t-39.5 60t-60 40t-75.5 14.5zM492 745q-32 0 -55.5 23.5t-23.5 56.5t23.5 56.5t55.5 23.5q33 0 56.5 -23.5t23.5 -56.5t-23.5 -56.5t-56.5 -23.5zM218 825q0 33 23.5 56.5t56.5 23.5q32 0 55.5 -23.5
t23.5 -56.5t-23.5 -56.5t-55.5 -23.5q-33 0 -56.5 23.5t-23.5 56.5z" />
    <glyph glyph-name="multiply" unicode="&#xd7;" horiz-adv-x="538" 
d="M153 578l116 -116l116 116l112 -112l-116 -116l116 -116l-112 -112l-116 116l-116 -116l-112 112l116 116l-116 116z" />
    <glyph glyph-name="Oslash" unicode="&#xd8;" horiz-adv-x="795" 
d="M33 350q0 78 28.5 144.5t78 115.5t116.5 77t144 28q109 0 198 -56l45 55l75 -43l-54 -66q103 -104 103 -255q0 -78 -28.5 -144.5t-78 -115.5t-116.5 -77t-144 -28q-106 0 -198 56l-46 -55l-75 43l54 66q-102 105 -102 255zM314 179q39 -19 86 -19q42 0 76.5 14t59.5 39.5
t39 60.5t14 76q0 66 -38 118zM400 540q-41 0 -75.5 -14.5t-60 -40t-39.5 -60t-14 -75.5q0 -68 37 -117l237 289q-41 18 -85 18z" />
    <glyph glyph-name="Ugrave" unicode="&#xd9;" horiz-adv-x="650" 
d="M227 700v-453q0 -88 98 -88t98 88v453h179v-470q0 -60 -22.5 -105.5t-60.5 -76.5t-88 -47t-106 -16t-106.5 15.5t-88.5 46.5t-60 77t-22 106v470h179zM330 900l80 -145h-158l-116 145h194z" />
    <glyph glyph-name="Uacute" unicode="&#xda;" horiz-adv-x="650" 
d="M227 700v-453q0 -88 98 -88t98 88v453h179v-470q0 -60 -22.5 -105.5t-60.5 -76.5t-88 -47t-106 -16t-106.5 15.5t-88.5 46.5t-60 77t-22 106v470h179zM319 900h194l-116 -145h-158z" />
    <glyph glyph-name="Ucircumflex" unicode="&#xdb;" horiz-adv-x="650" 
d="M48 700h179v-453q0 -88 98 -88t98 88v453h179v-470q0 -60 -22.5 -105.5t-60.5 -76.5t-88 -47t-106 -16t-106.5 15.5t-88.5 46.5t-60 77t-22 106v470zM131 745l106 155h167l106 -155h-150l-39 56l-40 -56h-150z" />
    <glyph glyph-name="Udieresis" unicode="&#xdc;" horiz-adv-x="650" 
d="M325 -15q-56 0 -106.5 15.5t-88.5 46.5t-60 77t-22 106v470h179v-453q0 -88 98 -88t98 88v453h179v-470q0 -60 -22.5 -105.5t-60.5 -76.5t-88 -47t-106 -16zM422 735q-32 0 -55.5 23.5t-23.5 56.5t23.5 56.5t55.5 23.5q33 0 56.5 -23.5t23.5 -56.5t-23.5 -56.5
t-56.5 -23.5zM148 815q0 33 23.5 56.5t56.5 23.5q32 0 55.5 -23.5t23.5 -56.5t-23.5 -56.5t-55.5 -23.5q-33 0 -56.5 23.5t-23.5 56.5z" />
    <glyph glyph-name="Yacute" unicode="&#xdd;" horiz-adv-x="651" 
d="M0 700h201l124 -259l125 259h201l-236 -431v-269h-179v267zM321 900h194l-116 -145h-158z" />
    <glyph glyph-name="Thorn" unicode="&#xde;" horiz-adv-x="592" 
d="M55 0v700h179v-104h96q52 0 97.5 -19t78.5 -52t52 -78t19 -97q0 -53 -19 -98t-52 -77.5t-78.5 -51t-97.5 -18.5h-96v-105h-179zM234 425v-149h96q28 0 48 21t20 53t-20 53.5t-48 21.5h-96z" />
    <glyph glyph-name="germandbls" unicode="&#xdf;" horiz-adv-x="551" 
d="M48 0v497q0 51 16 91t46 68.5t72.5 43.5t95.5 15q39 0 77 -10.5t68.5 -32t49.5 -54t19 -75.5q0 -26 -7.5 -47t-16.5 -39t-16.5 -32.5t-7.5 -26.5q-2 -15 14 -41t34.5 -59t34 -71.5t14.5 -78.5q0 -84 -62 -128q-44 -30 -127 -30q-17 0 -36.5 1t-41.5 4v148q19 -3 34 -3
q66 0 66 48q0 31 -49 102t-49 100q0 24 22 61q23 38 23 65q0 22 -13 37t-37 15q-26 0 -41.5 -17.5t-15.5 -48.5v-502h-166z" />
    <glyph glyph-name="agrave" unicode="&#xe0;" 
d="M24 250q0 51 16 99t46.5 84.5t74 58.5t98.5 22q91 0 142 -60v46h166v-500h-166v46q-51 -60 -142 -60q-101 0 -168 75q-67 76 -67 189zM191 250q0 -48 29 -79q28 -30 76 -30q49 0 77 30.5t28 78.5t-28 78.5t-77 30.5t-77 -30.5t-28 -78.5zM312 700l80 -145h-158l-116 145
h194z" />
    <glyph glyph-name="aacute" unicode="&#xe1;" 
d="M24 250q0 51 16 99t46.5 84.5t74 58.5t98.5 22q91 0 142 -60v46h166v-500h-166v46q-51 -60 -142 -60q-56 0 -99.5 21.5t-73.5 58t-46 84.5t-16 100zM296 359q-49 0 -77 -30.5t-28 -78.5t28 -78.5t77 -30.5t77 30.5t28 78.5t-28 78.5t-77 30.5zM217 555l80 145h194
l-116 -145h-158z" />
    <glyph glyph-name="acircumflex" unicode="&#xe2;" 
d="M24 250q0 51 16 99t46.5 84.5t74 58.5t98.5 22q91 0 142 -60v46h166v-500h-166v46q-51 -60 -142 -60q-56 0 -99.5 21.5t-73.5 58t-46 84.5t-16 100zM221 700h167l106 -155h-150l-39 56l-40 -56h-150zM191 250q0 -48 28 -78.5t77 -30.5t77 30.5t28 78.5t-28 78.5t-77 30.5
t-77 -30.5t-28 -78.5z" />
    <glyph glyph-name="atilde" unicode="&#xe3;" 
d="M259 -14q-56 0 -99.5 21.5t-73.5 58t-46 84.5t-16 100q0 51 16 99t46.5 84.5t74 58.5t98.5 22q91 0 142 -60v46h166v-500h-166v46q-51 -60 -142 -60zM141 548q0 45 9 76t24.5 50.5t36 28.5t43.5 9q19 0 38.5 -5.5t38.5 -15.5q22 -14 33 -14q8 0 12 7.5t4 25.5h120
q0 -45 -9 -76t-24 -50.5t-35.5 -28t-42.5 -8.5q-20 0 -40 5.5t-40 15.5q-20 14 -32 14q-16 0 -16 -34h-120zM191 250q0 -48 29 -79q28 -30 76 -30q49 0 77 30.5t28 78.5t-28 78.5t-77 30.5t-77 -30.5t-28 -78.5z" />
    <glyph glyph-name="adieresis" unicode="&#xe4;" 
d="M259 -14q-56 0 -99.5 21.5t-73.5 58t-46 84.5t-16 100q0 51 16 99t46.5 84.5t74 58.5t98.5 22q91 0 142 -60v46h166v-500h-166v46q-51 -60 -142 -60zM191 250q0 -48 28 -78.5t77 -30.5t77 30.5t28 78.5t-28 78.5t-77 30.5t-77 -30.5t-28 -78.5zM325 615q0 33 23.5 56.5
t55.5 23.5q33 0 56.5 -23.5t23.5 -56.5t-23.5 -56.5t-56.5 -23.5q-32 0 -55.5 23.5t-23.5 56.5zM210 535q-33 0 -56.5 23.5t-23.5 56.5t23.5 56.5t56.5 23.5q32 0 55.5 -23.5t23.5 -56.5t-23.5 -56.5t-55.5 -23.5z" />
    <glyph glyph-name="aring" unicode="&#xe5;" 
d="M24 250q0 51 16 99t46.5 84.5t74 58.5t98.5 22q91 0 142 -60v46h166v-500h-166v46q-51 -60 -142 -60q-56 0 -99.5 21.5t-73.5 58t-46 84.5t-16 100zM307 533q-30 0 -56 10t-44.5 27.5t-29 41.5t-10.5 53q0 28 10.5 52.5t29 42t44.5 27.5t56 10q31 0 57 -10t45 -27.5
t29 -42t10 -52.5q0 -29 -10 -53t-29 -41.5t-45 -27.5t-57 -10zM296 359q-49 0 -77 -30.5t-28 -78.5t29 -79q28 -30 76 -30q49 0 77 30.5t28 78.5t-28 78.5t-77 30.5zM307 697q-16 0 -24 -10t-8 -22t8 -22t24 -10q34 0 34 32t-34 32z" />
    <glyph glyph-name="ae" unicode="&#xe6;" horiz-adv-x="948" 
d="M24 250q0 52 17 99.5t48 84t75 58.5t99 22q89 0 138 -55v41h151v-46q57 60 146 60q101 0 164 -75q63 -74 63 -188q0 -35 -7 -62h-344q28 -66 113 -66q59 0 94 38l118 -80q-74 -95 -192 -95q-95 0 -155 63v-49h-151v41q-49 -55 -138 -55q-55 0 -99 22t-75 58.5t-48 84
t-17 99.5zM296 357q-48 0 -76.5 -29.5t-28.5 -77.5q0 -49 29 -78t76 -29q49 0 77 29.5t28 77.5t-28.5 77.5t-76.5 29.5zM764 305q-20 69 -94 69q-77 0 -99 -69h193z" />
    <glyph glyph-name="ccedilla" unicode="&#xe7;" horiz-adv-x="528" 
d="M81 83q-57 72 -57 167q0 57 20.5 105.5t56 83.5t84 55t105.5 20q75 0 135 -34.5t93 -94.5l-142 -82q-27 49 -87 49q-42 0 -70 -28.5t-28 -73.5t28 -73.5t70 -28.5q61 0 87 50l142 -82q-49 -91 -155 -120v-42q22 -7 40 -26t18 -51q0 -99 -186 -99h-23t-25 1v109
q12 -1 22.5 -1.5t19.5 -0.5q53 0 53 16q0 15 -53 20v70q-90 19 -148 91z" />
    <glyph glyph-name="egrave" unicode="&#xe8;" horiz-adv-x="571" 
d="M304 -14q-60 0 -111 18t-88.5 51.5t-59 82.5t-21.5 111q0 58 20 106.5t55.5 83.5t84.5 55t106 20t104.5 -20t81.5 -55.5t53 -83.5t19 -104q0 -35 -7 -62h-345q25 -61 112 -61q53 0 91 35l120 -84q-74 -93 -215 -93zM306 707l80 -145h-158l-116 145h194zM386 304
q-19 70 -94 70q-77 0 -98 -70h192z" />
    <glyph glyph-name="eacute" unicode="&#xe9;" horiz-adv-x="571" 
d="M24 249q0 58 20 106.5t55.5 83.5t84.5 55t106 20t104.5 -20t81.5 -55.5t53 -83.5t19 -104q0 -35 -7 -62h-345q25 -61 112 -61q53 0 91 35l120 -84q-74 -93 -215 -93q-60 0 -111.5 18t-89 51.5t-58.5 82.5t-21 111zM286 707h194l-116 -145h-158zM292 374q-77 0 -98 -70
h192q-19 70 -94 70z" />
    <glyph glyph-name="ecircumflex" unicode="&#xea;" horiz-adv-x="571" 
d="M304 -14q-60 0 -111 18t-88.5 51.5t-59 82.5t-21.5 111q0 58 20 106.5t55.5 83.5t84.5 55t106 20t104.5 -20t81.5 -55.5t53 -83.5t19 -104q0 -35 -7 -62h-345q25 -61 112 -61q53 0 91 35l120 -84q-74 -93 -215 -93zM209 707h167l106 -155h-150l-39 56l-40 -56h-150z
M386 304q-19 70 -94 70q-77 0 -98 -70h192z" />
    <glyph glyph-name="edieresis" unicode="&#xeb;" horiz-adv-x="571" 
d="M24 249q0 58 20 106.5t55.5 83.5t84.5 55t106 20t104.5 -20t81.5 -55.5t53 -83.5t19 -104q0 -35 -7 -62h-345q25 -61 112 -61q53 0 91 35l120 -84q-74 -93 -215 -93q-60 0 -111.5 18t-89 51.5t-58.5 82.5t-21 111zM193 542q-33 0 -56.5 23.5t-23.5 56.5t23.5 56.5
t56.5 23.5q32 0 55.5 -23.5t23.5 -56.5t-23.5 -56.5t-55.5 -23.5zM387 542q-32 0 -55.5 23.5t-23.5 56.5t23.5 56.5t55.5 23.5q33 0 56.5 -23.5t23.5 -56.5t-23.5 -56.5t-56.5 -23.5zM292 374q-77 0 -98 -70h192q-19 70 -94 70z" />
    <glyph glyph-name="igrave" unicode="&#xec;" horiz-adv-x="262" 
d="M51 550l-70 150h188l40 -150h-158zM214 500h-166v-500h166v500z" />
    <glyph glyph-name="iacute" unicode="&#xed;" horiz-adv-x="262" 
d="M88 700h189l-71 -150h-158zM214 0v500h-166v-500h166z" />
    <glyph glyph-name="icircumflex" unicode="&#xee;" horiz-adv-x="262" 
d="M214 500v-500h-166v500h166zM48 700h166l92 -155h-145l-30 49l-30 -49h-145z" />
    <glyph glyph-name="idieresis" unicode="&#xef;" horiz-adv-x="262" 
d="M48 500h166v-500h-166v500zM167 565q-12 12 -17.5 26t-5.5 29t5.5 29t17.5 25q23 23 54 23q14 0 28.5 -5.5t25.5 -17.5q12 -11 17.5 -25t5.5 -29t-5.5 -29t-17.5 -26q-24 -22 -54 -22q-29 0 -54 22zM-13 565q-12 12 -17.5 26t-5.5 29t5.5 29t17.5 25q23 23 54 23
q14 0 28.5 -5.5t25.5 -17.5q12 -11 17.5 -25t5.5 -29t-5.5 -29t-17.5 -26q-24 -22 -54 -22q-29 0 -54 22z" />
    <glyph glyph-name="eth" unicode="&#xf0;" horiz-adv-x="564" 
d="M282 -14q-54 0 -101.5 17t-82 48.5t-54.5 77t-20 101.5q0 44 16 83.5t43.5 70t65.5 49.5t82 24l-38 53l-127 -50v118l61 24l-70 98h191l29 -39l130 51v-119l-61 -24l148 -199q46 -62 46 -140q0 -55 -20 -100t-55 -77t-82 -49.5t-101 -17.5zM191 228q0 -43 24.5 -66.5
t66.5 -23.5t66.5 23.5t24.5 66.5q0 41 -25.5 63.5t-65.5 22.5q-42 0 -66.5 -23t-24.5 -63z" />
    <glyph glyph-name="ntilde" unicode="&#xf1;" horiz-adv-x="579" 
d="M48 500h166v-50q45 64 139 64q40 0 74 -14t58.5 -41.5t38 -67.5t13.5 -92v-299h-166v278q0 39 -20.5 59t-54.5 20q-39 0 -60.5 -23t-21.5 -68v-266h-166v500zM119 558q0 45 9 76t24.5 50.5t36 28.5t43.5 9q19 0 38.5 -5.5t38.5 -15.5q22 -14 33 -14q8 0 12 7.5t4 25.5
h120q0 -45 -9 -76t-24 -50.5t-35.5 -28t-42.5 -8.5q-20 0 -40 5.5t-40 15.5q-20 14 -32 14q-16 0 -16 -34h-120z" />
    <glyph glyph-name="ograve" unicode="&#xf2;" horiz-adv-x="583" 
d="M291 -14q-56 0 -104.5 20t-84.5 55.5t-57 84t-21 104.5q0 110 78 187q79 77 189 77q55 0 104 -20.5t85 -56t57 -83.5t21 -104t-21 -104.5t-57 -84t-84.5 -55.5t-104.5 -20zM291 354q-43 0 -71.5 -29t-28.5 -75t28.5 -75t71.5 -29q45 0 73 29t28 75t-28 75t-73 29z
M380 565h-158l-116 145h194z" />
    <glyph glyph-name="oacute" unicode="&#xf3;" horiz-adv-x="583" 
d="M291 -14q-56 0 -104.5 20t-84.5 55.5t-57 84t-21 104.5q0 110 78 187q79 77 189 77q55 0 104 -20.5t85 -56t57 -83.5t21 -104t-21 -104.5t-57 -84t-84.5 -55.5t-104.5 -20zM291 354q-43 0 -71.5 -29t-28.5 -75t28.5 -75t71.5 -29q45 0 73 29t28 75t-28 75t-73 29z
M282 710h194l-116 -145h-158z" />
    <glyph glyph-name="ocircumflex" unicode="&#xf4;" horiz-adv-x="583" 
d="M291 -14q-56 0 -104.5 20t-84.5 55.5t-57 84t-21 104.5t21 104t57 83.5t84.5 56t104.5 20.5q55 0 104 -20.5t85 -56t57 -83.5t21 -104t-21 -104.5t-57 -84t-84.5 -55.5t-104.5 -20zM105 555l106 155h167l106 -155h-150l-39 56l-40 -56h-150zM191 250q0 -46 28.5 -75
t71.5 -29q45 0 73 29t28 75t-28 75t-73 29q-43 0 -71.5 -29t-28.5 -75z" />
    <glyph glyph-name="otilde" unicode="&#xf5;" horiz-adv-x="583" 
d="M291 -14q-56 0 -104.5 20t-84.5 55.5t-57 84t-21 104.5t21 104t57 83.5t84.5 56t104.5 20.5q55 0 104 -20.5t85 -56t57 -83.5t21 -104q0 -110 -78 -188q-76 -76 -189 -76zM106 558q0 45 9 76t24.5 50.5t36 28.5t43.5 9q19 0 38.5 -5.5t38.5 -15.5q22 -14 33 -14
q8 0 12 7.5t4 25.5h120q0 -45 -9 -76t-24 -50.5t-35.5 -28t-42.5 -8.5q-20 0 -40 5.5t-40 15.5q-20 14 -32 14q-16 0 -16 -34h-120zM291 354q-43 0 -71.5 -29t-28.5 -75t28.5 -75t71.5 -29q45 0 73 29t28 75t-28 75t-73 29z" />
    <glyph glyph-name="odieresis" unicode="&#xf6;" horiz-adv-x="583" 
d="M291 -14q-56 0 -104.5 20t-84.5 55.5t-57 84t-21 104.5t21 104t57 83.5t84.5 56t104.5 20.5q55 0 104 -20.5t85 -56t57 -83.5t21 -104t-21 -104.5t-57 -84t-84.5 -55.5t-104.5 -20zM291 354q-43 0 -71.5 -29t-28.5 -75t28.5 -75t71.5 -29q45 0 73 29t28 75t-28 75t-73 29
zM388 545q-32 0 -55.5 23.5t-23.5 56.5t23.5 56.5t55.5 23.5q33 0 56.5 -23.5t23.5 -56.5t-23.5 -56.5t-56.5 -23.5zM194 545q-33 0 -56.5 23.5t-23.5 56.5t23.5 56.5t56.5 23.5q32 0 55.5 -23.5t23.5 -56.5t-23.5 -56.5t-55.5 -23.5z" />
    <glyph glyph-name="divide" unicode="&#xf7;" horiz-adv-x="551" 
d="M35 429h480v-158h-480v158zM275 459q-40 0 -67 27.5t-27 67.5t27 67.5t67 27.5q42 0 68.5 -27.5t26.5 -67.5t-26.5 -67.5t-68.5 -27.5zM275 51q-40 0 -67 27.5t-27 67.5t27 67.5t67 27.5q42 0 68.5 -27.5t26.5 -67.5t-26.5 -67.5t-68.5 -27.5z" />
    <glyph glyph-name="oslash" unicode="&#xf8;" horiz-adv-x="583" 
d="M24 250q0 56 21 104t57 83.5t84.5 56t104.5 20.5q76 0 141 -39l30 37l61 -35l-37 -45q72 -75 72 -182q0 -56 -21 -104.5t-57 -84t-84.5 -55.5t-104.5 -20q-76 0 -140 39l-30 -37l-61 34l37 45q-73 76 -73 183zM256 152q16 -6 35 -6q45 0 73 29t28 75q0 30 -12 53z
M291 354q-43 0 -71.5 -29t-28.5 -75q0 -31 12 -53l124 151q-17 6 -36 6z" />
    <glyph glyph-name="ugrave" unicode="&#xf9;" horiz-adv-x="579" 
d="M42 500h166v-278q0 -39 20.5 -59t54.5 -20q39 0 60.5 23t21.5 68v266h166v-500h-166v50q-45 -64 -139 -64q-41 0 -74.5 14t-58 41.5t-38 67.5t-13.5 92v299zM98 700h194l80 -145h-158z" />
    <glyph glyph-name="uacute" unicode="&#xfa;" horiz-adv-x="579" 
d="M42 500h166v-278q0 -39 20.5 -59t54.5 -20q39 0 60.5 23t21.5 68v266h166v-500h-166v50q-45 -64 -139 -64q-41 0 -74.5 14t-58 41.5t-38 67.5t-13.5 92v299zM202 555l80 145h194l-116 -145h-158z" />
    <glyph glyph-name="ucircumflex" unicode="&#xfb;" horiz-adv-x="579" 
d="M226 -14q-41 0 -74.5 14t-58 41.5t-38 67.5t-13.5 92v299h166v-278q0 -39 20.5 -59t54.5 -20q39 0 60.5 23t21.5 68v266h166v-500h-166v50q-45 -64 -139 -64zM199 700h167l106 -155h-150l-39 56l-40 -56h-150z" />
    <glyph glyph-name="udieresis" unicode="&#xfc;" horiz-adv-x="579" 
d="M42 500h166v-278q0 -39 20.5 -59t54.5 -20q39 0 60.5 23t21.5 68v266h166v-500h-166v50q-45 -64 -139 -64q-41 0 -74.5 14t-58 41.5t-38 67.5t-13.5 92v299zM384 535q-32 0 -55.5 23.5t-23.5 56.5t23.5 56.5t55.5 23.5q33 0 56.5 -23.5t23.5 -56.5t-23.5 -56.5
t-56.5 -23.5zM190 535q-33 0 -56.5 23.5t-23.5 56.5t23.5 56.5t56.5 23.5q32 0 55.5 -23.5t23.5 -56.5t-23.5 -56.5t-55.5 -23.5z" />
    <glyph glyph-name="yacute" unicode="&#xfd;" horiz-adv-x="549" 
d="M186 500l101 -290l78 290h184l-171 -492q-38 -109 -105.5 -159t-174.5 -50q-5 0 -10.5 0.5t-11.5 0.5v156q53 0 80 13t44 47l-200 484h186zM195 555l80 145h194l-116 -145h-158z" />
    <glyph glyph-name="thorn" unicode="&#xfe;" 
d="M48 700h166v-246q51 60 142 60q54 0 97.5 -22t74 -59t47 -84.5t16.5 -98.5t-16 -99t-46.5 -84.5t-74 -58.5t-98.5 -22q-91 0 -142 60v-246h-166v900zM319 359q-49 0 -77 -30.5t-28 -78.5t29 -79q28 -30 76 -30q49 0 77 30.5t28 78.5t-28 78.5t-77 30.5z" />
    <glyph glyph-name="ydieresis" unicode="&#xff;" horiz-adv-x="549" 
d="M186 500l101 -290l78 290h184l-171 -492q-38 -109 -105.5 -159t-174.5 -50q-5 0 -10.5 0.5t-11.5 0.5v156q53 0 80 13t44 47l-200 484h186zM375 535q-32 0 -55.5 23.5t-23.5 56.5t23.5 56.5t55.5 23.5q33 0 56.5 -23.5t23.5 -56.5t-23.5 -56.5t-56.5 -23.5zM181 535
q-33 0 -56.5 23.5t-23.5 56.5t23.5 56.5t56.5 23.5q32 0 55.5 -23.5t23.5 -56.5t-23.5 -56.5t-55.5 -23.5z" />
    <glyph glyph-name="Amacron" unicode="&#x100;" horiz-adv-x="671" 
d="M-5 0l231 700h218l231 -700h-193l-30 101h-233l-30 -101h-194zM489 884v-130h-309v130h309zM265 255h141l-71 238z" />
    <glyph glyph-name="amacron" unicode="&#x101;" 
d="M24 250q0 51 16 99t46.5 84.5t74 58.5t98.5 22q91 0 142 -60v46h166v-500h-166v46q-51 -60 -142 -60q-101 0 -168 75q-67 76 -67 189zM152 554v130h309v-130h-309zM296 359q-49 0 -77 -30.5t-28 -78.5t29 -79q28 -30 76 -30q49 0 77 30.5t28 78.5t-28 78.5t-77 30.5z" />
    <glyph glyph-name="Abreve" unicode="&#x102;" horiz-adv-x="671" 
d="M226 700h218l231 -700h-193l-30 101h-233l-30 -101h-194zM296 897q0 -44 39 -44q40 0 40 44h140q0 -78 -46 -119t-134 -41t-133.5 41t-45.5 119h140zM265 255h141l-71 238z" />
    <glyph glyph-name="abreve" unicode="&#x103;" 
d="M259 -14q-56 0 -99.5 21.5t-73.5 58t-46 84.5t-16 100q0 51 16 99t46.5 84.5t74 58.5t98.5 22q91 0 142 -60v46h166v-500h-166v46q-51 -60 -142 -60zM272 697q0 -44 39 -44q40 0 40 44h140q0 -78 -46 -119t-134 -41t-133.5 41t-45.5 119h140zM296 359q-49 0 -77 -30.5
t-28 -78.5t29 -79q28 -30 76 -30q49 0 77 30.5t28 78.5t-28 78.5t-77 30.5z" />
    <glyph glyph-name="Aogonek" unicode="&#x104;" horiz-adv-x="671" 
d="M-5 0l231 700h218l231 -700q-42 -47 -42 -78q-2 -23 21 -23q10 0 21 3v-99q-40 -17 -83 -17q-23 0 -43 5.5t-35 16.5t-23.5 28t-7.5 41q0 59 61 123h-62l-30 101h-233l-30 -101h-194zM406 255l-71 238l-70 -238h141z" />
    <glyph glyph-name="aogonek" unicode="&#x105;" 
d="M24 250q0 51 16 99t46.5 84.5t74 58.5t98.5 22q91 0 142 -60v46h166v-500q-43 -47 -43 -78q0 -23 22 -23q10 0 21 3v-99q-40 -17 -83 -17q-23 0 -43 5.5t-35.5 16.5t-24 28t-7.5 41q0 58 62 123h-35v46q-51 -60 -142 -60q-56 0 -99.5 21.5t-73.5 58t-46 84.5t-16 100z
M220 329q-29 -31 -29 -79t28 -78.5t77 -30.5t77 30.5t28 78.5t-28 78.5t-77 30.5q-48 0 -76 -30z" />
    <glyph glyph-name="Cacute" unicode="&#x106;" horiz-adv-x="719" 
d="M28 350q0 79 27.5 145.5t76 115.5t115.5 76.5t146 27.5q46 0 90 -11t83.5 -32.5t72.5 -52.5t57 -70l-155 -89q-20 37 -59.5 58.5t-88.5 21.5q-43 0 -77.5 -14t-59 -39t-37.5 -60t-13 -77q0 -86 50 -138t137 -52q49 0 88.5 21.5t59.5 59.5l155 -90q-46 -78 -126 -122
t-177 -44q-80 0 -146.5 27t-115.5 76t-76 115.5t-27 146.5zM374 910h194l-116 -145h-158z" />
    <glyph glyph-name="cacute" unicode="&#x107;" horiz-adv-x="528" 
d="M290 -14q-57 0 -105.5 20t-84 55t-56 83.5t-20.5 105.5q0 112 76 188t190 76q75 0 135 -34.5t93 -94.5l-142 -82q-27 49 -87 49q-42 0 -70 -28.5t-28 -73.5t28 -73.5t70 -28.5q61 0 87 50l142 -82q-33 -60 -93 -95t-135 -35zM272 705h194l-116 -145h-158z" />
    <glyph glyph-name="Cdotaccent" unicode="&#x10a;" horiz-adv-x="719" 
d="M393 -15q-80 0 -146.5 27t-115.5 76t-76 115.5t-27 146.5q0 79 27.5 145.5t76 115.5t115.5 76.5t146 27.5q46 0 90 -11t83.5 -32.5t72.5 -52.5t57 -70l-155 -89q-20 37 -59.5 58.5t-88.5 21.5q-43 0 -77.5 -14t-59 -39t-37.5 -60t-13 -77q0 -86 50 -138t137 -52
q49 0 88.5 21.5t59.5 59.5l155 -90q-46 -78 -126 -122t-177 -44zM303 842q0 37 26.5 63.5t63.5 26.5q18 0 34 -7t28.5 -19.5t19.5 -29t7 -34.5t-7 -34t-19.5 -28.5t-28.5 -19.5t-34 -7t-34.5 7t-29 19.5t-19.5 28.5t-7 34z" />
    <glyph glyph-name="cdotaccent" unicode="&#x10b;" horiz-adv-x="528" 
d="M24 250q0 57 20.5 105.5t56 83.5t84 55t105.5 20q75 0 135 -34.5t93 -94.5l-142 -82q-27 49 -87 49q-42 0 -70 -28.5t-28 -73.5t28 -73.5t70 -28.5q61 0 87 50l142 -82q-33 -60 -93 -95t-135 -35q-57 0 -105.5 20t-84 55t-56 83.5t-20.5 105.5zM201 637q0 37 26.5 63.5
t63.5 26.5q18 0 34 -7t28.5 -19.5t19.5 -29t7 -34.5t-7 -34t-19.5 -28.5t-28.5 -19.5t-34 -7t-34.5 7t-29 19.5t-19.5 28.5t-7 34z" />
    <glyph glyph-name="Ccaron" unicode="&#x10c;" horiz-adv-x="719" 
d="M393 -15q-80 0 -146.5 27t-115.5 76t-76 115.5t-27 146.5q0 79 27.5 145.5t76 115.5t115.5 76.5t146 27.5q46 0 90 -11t83.5 -32.5t72.5 -52.5t57 -70l-155 -89q-20 37 -59.5 58.5t-88.5 21.5q-43 0 -77.5 -14t-59 -39t-37.5 -60t-13 -77q0 -86 50 -138t137 -52
q49 0 88.5 21.5t59.5 59.5l155 -90q-46 -78 -126 -122t-177 -44zM349 910l40 -56l39 56h150l-106 -155h-167l-106 155h150z" />
    <glyph glyph-name="ccaron" unicode="&#x10d;" horiz-adv-x="528" 
d="M24 250q0 57 20.5 105.5t56 83.5t84 55t105.5 20q75 0 135 -34.5t93 -94.5l-142 -82q-27 49 -87 49q-42 0 -70 -28.5t-28 -73.5t28 -73.5t70 -28.5q61 0 87 50l142 -82q-33 -60 -93 -95t-135 -35q-57 0 -105.5 20t-84 55t-56 83.5t-20.5 105.5zM97 705h150l40 -56l39 56
h150l-106 -155h-167z" />
    <glyph glyph-name="Dcaron" unicode="&#x10e;" horiz-adv-x="708" 
d="M340 700q74 0 136.5 -27.5t107.5 -75t70.5 -111t25.5 -136.5q0 -74 -25 -137.5t-70 -111t-107.5 -74.5t-137.5 -27h-285v700h285zM239 527v-354h101q39 0 70 13.5t52 37t32 56t11 70.5q0 37 -11 69.5t-32.5 56.5t-52 37.5t-69.5 13.5h-101zM286 900l40 -56l39 56h150
l-106 -155h-167l-106 155h150z" />
    <glyph glyph-name="dcaron" unicode="&#x10f;" horiz-adv-x="755" 
d="M24 250q0 51 16 99t46.5 84.5t74 58.5t98.5 22q91 0 142 -60v246h166v-700h-166v46q-51 -60 -142 -60q-56 0 -99.5 21.5t-73.5 58t-46 84.5t-16 100zM191 250q0 -48 29 -79q28 -30 76 -30q49 0 77 30.5t28 78.5t-28 78.5t-77 30.5t-77 -30.5t-28 -78.5zM606 481l10 219
h154l-35 -219h-129z" />
    <glyph glyph-name="Dcroat" unicode="&#x110;" horiz-adv-x="738" 
d="M33 277v142h53v281h285q74 0 136.5 -27.5t107.5 -75t70.5 -111t25.5 -136.5q0 -74 -25 -137.5t-70 -111t-107.5 -74.5t-137.5 -27h-285v277h-53zM270 277v-104h101q39 0 70 13.5t52 37t32 56t11 70.5q0 37 -11 69.5t-32.5 56.5t-52 37.5t-69.5 13.5h-101v-108h123v-142
h-123z" />
    <glyph glyph-name="dcroat" unicode="&#x111;" horiz-adv-x="625" 
d="M24 245q0 51 17 98t48.5 83t75.5 57.5t98 21.5q89 0 138 -55v87h-136v105h136v58h166v-58h58v-105h-58v-537h-166v41q-49 -55 -138 -55q-54 0 -98 21t-75.5 57t-48.5 83t-17 98zM191 245q0 -48 28.5 -77t76.5 -29q47 0 76 29.5t29 76.5q0 46 -29 76.5t-76 30.5
q-48 0 -76.5 -29.5t-28.5 -77.5z" />
    <glyph glyph-name="Emacron" unicode="&#x112;" horiz-adv-x="535" 
d="M55 700h445v-167h-266v-97h241v-165h-241v-103h271v-168h-450v700zM123 884h309v-130h-309v130z" />
    <glyph glyph-name="emacron" unicode="&#x113;" horiz-adv-x="571" 
d="M304 -14q-60 0 -111 18t-88.5 51.5t-59 82.5t-21.5 111q0 58 20 106.5t55.5 83.5t84.5 55t106 20t104.5 -20t81.5 -55.5t53 -83.5t19 -104q0 -35 -7 -62h-345q25 -61 112 -61q53 0 91 35l120 -84q-74 -93 -215 -93zM444 691v-130h-309v130h309zM386 304q-19 70 -94 70
q-77 0 -98 -70h192z" />
    <glyph glyph-name="Edotaccent" unicode="&#x116;" horiz-adv-x="535" 
d="M55 0v700h445v-167h-266v-97h241v-165h-241v-103h271v-168h-450zM278 743q-18 0 -34.5 7t-29 19.5t-19.5 28.5t-7 34q0 37 26.5 63.5t63.5 26.5q18 0 34 -7t28.5 -19.5t19.5 -29t7 -34.5t-7 -34t-19.5 -28.5t-28.5 -19.5t-34 -7z" />
    <glyph glyph-name="edotaccent" unicode="&#x117;" horiz-adv-x="571" 
d="M304 -14q-60 0 -111 18t-88.5 51.5t-59 82.5t-21.5 111q0 58 20 106.5t55.5 83.5t84.5 55t106 20t104.5 -20t81.5 -55.5t53 -83.5t19 -104q0 -35 -7 -62h-345q25 -61 112 -61q53 0 91 35l120 -84q-74 -93 -215 -93zM290 550q-18 0 -34.5 7t-29 19.5t-19.5 28.5t-7 34
q0 37 26.5 63.5t63.5 26.5q18 0 34 -7t28.5 -19.5t19.5 -29t7 -34.5t-7 -34t-19.5 -28.5t-28.5 -19.5t-34 -7zM292 374q-77 0 -98 -70h192q-19 70 -94 70z" />
    <glyph glyph-name="Eogonek" unicode="&#x118;" horiz-adv-x="535" 
d="M55 700h445v-167h-266v-97h241v-165h-241v-103h271v-168q-43 -46 -43 -78q-2 -23 22 -23q10 0 21 3v-99q-40 -17 -83 -17q-23 0 -43 5.5t-35.5 16.5t-24 28t-7.5 41q0 58 62 123h-319v700z" />
    <glyph glyph-name="eogonek" unicode="&#x119;" horiz-adv-x="571" 
d="M304 -14q-60 0 -111 18t-88.5 51.5t-59 82.5t-21.5 111q0 58 20 106.5t55.5 83.5t84.5 55t106 20t104.5 -20t81.5 -55.5t53 -83.5t19 -104q0 -35 -7 -62h-345q25 -61 112 -61q53 0 91 35l120 -84q-16 -20 -32 -33q-70 -86 -70 -124q0 -23 22 -23q10 0 21 3v-99
q-40 -17 -83 -17q-23 0 -43 5.5t-35.5 16.5t-24 28t-7.5 41q0 56 70 110q-5 -1 -13.5 -1h-19.5zM292 374q-77 0 -98 -70h192q-19 70 -94 70z" />
    <glyph glyph-name="Ecaron" unicode="&#x11a;" horiz-adv-x="535" 
d="M55 700h445v-167h-266v-97h241v-165h-241v-103h271v-168h-450v700zM84 900h150l40 -56l39 56h150l-106 -155h-167z" />
    <glyph glyph-name="ecaron" unicode="&#x11b;" horiz-adv-x="571" 
d="M24 249q0 58 20 106.5t55.5 83.5t84.5 55t106 20t104.5 -20t81.5 -55.5t53 -83.5t19 -104q0 -35 -7 -62h-345q25 -61 112 -61q53 0 91 35l120 -84q-74 -93 -215 -93q-60 0 -111.5 18t-89 51.5t-58.5 82.5t-21 111zM96 707h150l40 -56l39 56h150l-106 -155h-167zM292 374
q-77 0 -98 -70h192q-19 70 -94 70z" />
    <glyph glyph-name="Gbreve" unicode="&#x11e;" horiz-adv-x="778" 
d="M403 -15q-80 0 -148.5 26.5t-118.5 74.5t-79 115t-29 148q0 78 28 144.5t77 116t115.5 77.5t144.5 28q92 0 174.5 -41.5t132.5 -119.5l-152 -87q-21 33 -61.5 53t-91.5 20q-42 0 -77 -14.5t-59.5 -40t-38.5 -60.5t-14 -77q0 -82 52 -137q53 -56 148 -56q122 0 161 92
h-170v154h353v-71q0 -78 -25.5 -141.5t-71 -108.5t-109.5 -70t-141 -25zM356 907q0 -44 39 -44q40 0 40 44h140q0 -78 -46 -119t-134 -41t-133.5 41t-45.5 119h140z" />
    <glyph glyph-name="gbreve" unicode="&#x11f;" horiz-adv-x="618" 
d="M266 6q-54 0 -97.5 20.5t-75 55t-48.5 80.5t-17 98q0 107 67 180q68 74 171 74q89 0 140 -62v48h164v-480q0 -62 -22.5 -106.5t-59.5 -73t-84.5 -42t-96.5 -13.5q-84 0 -148.5 31t-97.5 91l138 80q36 -57 106 -57q45 0 73 22.5t28 67.5v48q-51 -62 -140 -62zM261 707
q0 -44 39 -44q40 0 40 44h140q0 -78 -46 -119t-134 -41q-87 0 -133 41t-46 119h140zM223 334q-29 -29 -29 -74q0 -48 29.5 -76t76.5 -28q46 0 76 28.5t30 75.5q0 46 -30.5 75t-75.5 29q-47 0 -77 -30z" />
    <glyph glyph-name="Gdotaccent" unicode="&#x120;" horiz-adv-x="778" 
d="M28 349q0 78 28 144.5t77 116t115.5 77.5t144.5 28q92 0 174.5 -41.5t132.5 -119.5l-152 -87q-21 33 -61.5 53t-91.5 20q-42 0 -77 -14.5t-59.5 -40t-38.5 -60.5t-14 -77q0 -45 15 -80.5t41.5 -60.5t63 -38.5t80.5 -13.5q122 0 161 92h-170v154h353v-71
q0 -78 -25.5 -141.5t-71 -108.5t-109.5 -70t-141 -25q-80 0 -148.5 26.5t-118.5 74.5t-79 115t-29 148zM305 842q0 37 26.5 63.5t63.5 26.5q18 0 34 -7t28.5 -19.5t19.5 -29t7 -34.5t-7 -34t-19.5 -28.5t-28.5 -19.5t-34 -7t-34.5 7t-29 19.5t-19.5 28.5t-7 34z" />
    <glyph glyph-name="gdotaccent" unicode="&#x121;" horiz-adv-x="618" 
d="M28 260q0 52 17 98t48.5 80.5t75 55t97.5 20.5q89 0 140 -62v48h164v-480q0 -62 -22.5 -106.5t-59.5 -73t-84.5 -42t-96.5 -13.5q-84 0 -148.5 31t-97.5 91l138 80q36 -57 106 -57q45 0 73 22.5t28 67.5v48q-51 -62 -140 -62q-54 0 -97.5 20.5t-75 55t-48.5 80.5t-17 98z
M194 260q0 -48 29.5 -76t76.5 -28q46 0 76 28.5t30 75.5q0 46 -30.5 75t-75.5 29q-47 0 -77 -30q-29 -29 -29 -74zM210 642q0 37 26.5 63.5t63.5 26.5q18 0 34 -7t28.5 -19.5t19.5 -29t7 -34.5t-7 -34t-19.5 -28.5t-28.5 -19.5t-34 -7t-34.5 7t-29 19.5t-19.5 28.5t-7 34z
" />
    <glyph glyph-name="uni0122" unicode="&#x122;" horiz-adv-x="778" 
d="M28 349q0 78 28 144.5t77 116t115.5 77.5t144.5 28q92 0 174.5 -41.5t132.5 -119.5l-152 -87q-21 33 -61.5 53t-91.5 20q-42 0 -77 -14.5t-59.5 -40t-38.5 -60.5t-14 -77q0 -45 15 -80.5t41.5 -60.5t63 -38.5t80.5 -13.5q122 0 161 92h-170v154h353v-71
q0 -78 -25.5 -141.5t-71 -108.5t-109.5 -70t-141 -25q-80 0 -148.5 26.5t-118.5 74.5t-79 115t-29 148zM329 -57h154l-35 -220h-129z" />
    <glyph glyph-name="uni0123" unicode="&#x123;" horiz-adv-x="618" 
d="M266 6q-54 0 -97.5 20.5t-75 55t-48.5 80.5t-17 98t17 98t48.5 80.5t75 55t97.5 20.5q89 0 140 -62v48h164v-480q0 -62 -22.5 -106.5t-59.5 -73t-84.5 -42t-96.5 -13.5q-84 0 -148.5 31t-97.5 91l138 80q36 -57 106 -57q45 0 73 22.5t28 67.5v48q-51 -62 -140 -62z
M194 260q0 -48 29.5 -76t76.5 -28q46 0 76 28.5t30 75.5q0 46 -30.5 75t-75.5 29q-47 0 -77 -30q-29 -29 -29 -74zM211 575l35 220h129l-10 -220h-154z" />
    <glyph glyph-name="Hbar" unicode="&#x126;" horiz-adv-x="705" 
d="M15 478v130h60v92h179v-92h197v92h178v-92h60v-130h-60v-478h-178v220h-197v-220h-179v478h-60zM254 478v-85h197v85h-197z" />
    <glyph glyph-name="hbar" unicode="&#x127;" horiz-adv-x="589" 
d="M0 642h58v58h166v-58h135v-105h-135v-98q43 63 139 63q40 0 74 -14t58.5 -41.5t38 -67.5t13.5 -92v-287h-166v266q0 39 -21 59.5t-55 20.5q-38 0 -59.5 -23.5t-21.5 -68.5v-254h-166v537h-58v105z" />
    <glyph glyph-name="Itilde" unicode="&#x128;" horiz-adv-x="289" 
d="M234 700v-700h-179v700h179zM-34 748q0 45 9 76t24.5 50.5t36 28.5t43.5 9q19 0 38.5 -5.5t38.5 -15.5q22 -14 33 -14q8 0 12 7.5t4 25.5h120q0 -45 -9 -76t-24 -50.5t-35.5 -28t-42.5 -8.5q-20 0 -40 5.5t-40 15.5q-20 14 -32 14q-16 0 -16 -34h-120z" />
    <glyph glyph-name="itilde" unicode="&#x129;" horiz-adv-x="262" 
d="M48 500h166v-500h-166v500zM-17 548q0 45 8 76t21.5 50.5t31 28.5t37.5 9q17 0 33.5 -5.5t33.5 -15.5q17 -14 28 -14q7 0 10.5 7.5t3.5 25.5h104q0 -45 -7.5 -76t-21 -50.5t-31 -28t-36.5 -8.5q-17 0 -34.5 5.5t-34.5 15.5q-19 14 -28 14q-14 0 -14 -34h-104z" />
    <glyph glyph-name="Imacron" unicode="&#x12a;" horiz-adv-x="289" 
d="M-10 754v130h309v-130h-309zM55 700h179v-700h-179v700z" />
    <glyph glyph-name="imacron" unicode="&#x12b;" horiz-adv-x="262" 
d="M2 554v135h259v-135h-259zM48 0v500h166v-500h-166z" />
    <glyph glyph-name="Iogonek" unicode="&#x12e;" horiz-adv-x="289" 
d="M242 -197q-40 -17 -83 -17q-23 0 -43 5.5t-35.5 16.5t-24 28t-7.5 41q0 58 54 123h-48v700h179v-700q-35 -46 -35 -78q0 -23 22 -23q10 0 21 3v-99v0z" />
    <glyph glyph-name="iogonek" unicode="&#x12f;" horiz-adv-x="262" 
d="M198 569q-28 -28 -67 -28q-37 0 -68 28q-14 15 -21 32.5t-7 36t7 35.5t21 31q15 14 32.5 21t35.5 7q37 0 67 -28q15 -14 22 -31.5t7 -35.5t-7 -35.5t-22 -32.5zM204 -101q10 0 21 3v-99q-40 -17 -83 -17q-23 0 -43 5.5t-35.5 16.5t-24 28t-7.5 41q0 59 44 123h-28v500
h166v-500q-32 -47 -32 -78q0 -23 22 -23z" />
    <glyph glyph-name="Idotaccent" unicode="&#x130;" horiz-adv-x="289" 
d="M234 700v-700h-179v700h179zM145 743q-18 0 -34.5 7t-29 19.5t-19.5 28.5t-7 34q0 37 26.5 63.5t63.5 26.5q18 0 34 -7t28.5 -19.5t19.5 -29t7 -34.5t-7 -34t-19.5 -28.5t-28.5 -19.5t-34 -7z" />
    <glyph glyph-name="dotlessi" unicode="&#x131;" horiz-adv-x="262" 
d="M48 0v500h166v-500h-166z" />
    <glyph glyph-name="uni0136" unicode="&#x136;" horiz-adv-x="631" 
d="M234 700v-294l191 294h200l-222 -340l232 -360h-200l-201 313v-313h-179v700h179zM241 -57h154l-35 -220h-129z" />
    <glyph glyph-name="uni0137" unicode="&#x137;" horiz-adv-x="542" 
d="M214 700v-409l129 209h192l-168 -250l175 -250h-186l-142 213v-213h-166v700h166zM214 -57h154l-35 -220h-129z" />
    <glyph glyph-name="Lacute" unicode="&#x139;" horiz-adv-x="485" 
d="M327 900l-116 -145h-158l80 145h194zM234 173h241v-173h-420v700h179v-527z" />
    <glyph glyph-name="lacute" unicode="&#x13a;" horiz-adv-x="262" 
d="M127 905h194l-116 -145h-158zM214 0v730h-166v-730h166z" />
    <glyph glyph-name="uni013B" unicode="&#x13b;" horiz-adv-x="485" 
d="M234 173h241v-173h-420v700h179v-527zM187 -277l10 220h154l-35 -220h-129z" />
    <glyph glyph-name="uni013C" unicode="&#x13c;" horiz-adv-x="262" 
d="M48 0v730h166v-730h-166zM45 -277l10 220h154l-35 -220h-129z" />
    <glyph glyph-name="Lcaron" unicode="&#x13d;" horiz-adv-x="485" 
d="M55 0v700h179v-527h241v-173h-420zM290 700h164l-34 -199h-140z" />
    <glyph glyph-name="lcaron" unicode="&#x13e;" horiz-adv-x="400" 
d="M48 0v730h166v-730h-166zM260 730h154l-34 -219h-130z" />
    <glyph glyph-name="Lslash" unicode="&#x141;" horiz-adv-x="505" 
d="M75 375v325h179v-222l120 70v-177l-120 -70v-128h241v-173h-420v198l-60 -35v177z" />
    <glyph glyph-name="lslash" unicode="&#x142;" horiz-adv-x="279" 
d="M57 369v361h166v-255l51 32v-157l-51 -32v-318h-166v212l-52 -33v157z" />
    <glyph glyph-name="Nacute" unicode="&#x143;" horiz-adv-x="675" 
d="M194 700l247 -352v352h178v-700h-138l-247 352v-352h-179v700h139zM306 900h194l-116 -145h-158z" />
    <glyph glyph-name="nacute" unicode="&#x144;" horiz-adv-x="579" 
d="M48 500h166v-50q45 64 139 64q40 0 74 -14t58.5 -41.5t38 -67.5t13.5 -92v-299h-166v278q0 39 -20.5 59t-54.5 20q-39 0 -60.5 -23t-21.5 -68v-266h-166v500zM279 710h194l-116 -145h-158z" />
    <glyph glyph-name="uni0145" unicode="&#x145;" horiz-adv-x="675" 
d="M55 700h139l247 -352v352h178v-700h-138l-247 352v-352h-179v700zM274 -57h154l-35 -220h-129z" />
    <glyph glyph-name="uni0146" unicode="&#x146;" horiz-adv-x="579" 
d="M48 500h166v-50q45 64 139 64q40 0 74 -14t58.5 -41.5t38 -67.5t13.5 -92v-299h-166v278q0 39 -20.5 59t-54.5 20q-39 0 -60.5 -23t-21.5 -68v-266h-166v500zM225 -57h154l-35 -220h-129z" />
    <glyph glyph-name="Ncaron" unicode="&#x147;" horiz-adv-x="675" 
d="M194 700l247 -352v352h178v-700h-138l-247 352v-352h-179v700h139zM281 900l40 -56l39 56h150l-106 -155h-167l-106 155h150z" />
    <glyph glyph-name="ncaron" unicode="&#x148;" horiz-adv-x="579" 
d="M48 500h166v-50q45 64 139 64q40 0 74 -14t58.5 -41.5t38 -67.5t13.5 -92v-299h-166v278q0 39 -20.5 59t-54.5 20q-39 0 -60.5 -23t-21.5 -68v-266h-166v500zM104 710h150l40 -56l39 56h150l-106 -155h-167z" />
    <glyph glyph-name="Eng" unicode="&#x14a;" horiz-adv-x="675" 
d="M55 700h139l247 -352v352h178v-700q0 -208 -214 -208h-15t-15 1v154q16 0 29.5 2t23 8t15 17.5t5.5 30.5v42l-214 305v-352h-179v700z" />
    <glyph glyph-name="eng" unicode="&#x14b;" horiz-adv-x="579" 
d="M48 500h166v-50q45 64 139 64q40 0 74 -14t58.5 -41.5t38 -67.5t13.5 -92v-299q0 -210 -195 -210h-14t-15 1v150q32 0 45 13t13 46v278q0 39 -20.5 59t-54.5 20q-39 0 -60.5 -23t-21.5 -68v-266h-166v500z" />
    <glyph glyph-name="Omacron" unicode="&#x14c;" horiz-adv-x="790" 
d="M28 350q0 78 28.5 144.5t78 115.5t116.5 77t144 28t144 -28t116.5 -77t78 -116t28.5 -144q0 -78 -28.5 -144.5t-78 -115.5t-116.5 -77t-144 -28q-78 0 -145 28t-116.5 76.5t-77.5 115.5t-28 145zM206 350q0 -41 14 -76t39 -60.5t59.5 -39.5t76.5 -14t76.5 14t59.5 39.5
t39 60.5t14 76t-14 75.5t-39.5 60t-60 40t-75.5 14.5t-75.5 -14.5t-60 -40t-39.5 -60t-14 -75.5zM240 764v130h309v-130h-309z" />
    <glyph glyph-name="omacron" unicode="&#x14d;" horiz-adv-x="583" 
d="M291 -14q-56 0 -104.5 20t-84.5 55.5t-57 84t-21 104.5t21 104t57 83.5t84.5 56t104.5 20.5q55 0 104 -20.5t85 -56t57 -83.5t21 -104q0 -110 -78 -188q-76 -76 -189 -76zM136 694h309v-130h-309v130zM291 354q-43 0 -71.5 -29t-28.5 -75t28.5 -75t71.5 -29q45 0 73 29
t28 75t-28 75t-73 29z" />
    <glyph glyph-name="Ohungarumlaut" unicode="&#x150;" horiz-adv-x="790" 
d="M395 -15q-78 0 -145 28t-116.5 76.5t-77.5 115.5t-28 145t28.5 144.5t78 115.5t116.5 77t144 28t144 -28t116.5 -77t78 -116t28.5 -144q0 -78 -28.5 -144.5t-78 -115.5t-116.5 -77t-144 -28zM206 350q0 -41 14 -76t39 -60.5t59.5 -39.5t76.5 -14t76.5 14t59.5 39.5
t39 60.5t14 76t-14 75.5t-39.5 60t-60 40t-75.5 14.5t-75.5 -14.5t-60 -40t-39.5 -60t-14 -75.5zM642 905l-96 -150h-158l90 150h164zM439 905l-86 -150h-157l80 150h163z" />
    <glyph glyph-name="ohungarumlaut" unicode="&#x151;" horiz-adv-x="583" 
d="M24 250q0 56 21 104t57 83.5t84.5 56t104.5 20.5q55 0 104 -20.5t85 -56t57 -83.5t21 -104t-21 -104.5t-57 -84t-84.5 -55.5t-104.5 -20t-104.5 20t-84.5 55.5t-57 84t-21 104.5zM291 354q-43 0 -71.5 -29t-28.5 -75t28.5 -75t71.5 -29q45 0 73 29t28 75t-28 75t-73 29z
M374 705h164l-96 -150h-158zM335 705l-86 -150h-157l80 150h163z" />
    <glyph glyph-name="OE" unicode="&#x152;" horiz-adv-x="934" 
d="M28 350q0 77 27.5 143.5t76 116t115 77.5t143.5 28q54 0 105 -15h404v-167h-225v-97h200v-165h-200v-103h230v-168h-409q-51 -15 -105 -15q-78 0 -144.5 28t-114.5 77t-75.5 115.5t-27.5 144.5zM390 540q-42 0 -76 -14t-58 -39.5t-37 -60.5t-13 -76t13 -76t37 -60.5
t58 -39.5t76 -14q60 0 105 18v344q-45 18 -105 18z" />
    <glyph glyph-name="oe" unicode="&#x153;" horiz-adv-x="937" 
d="M284 -14q-56 0 -103.5 20.5t-82.5 55.5t-54.5 83t-19.5 104t19.5 104.5t54 84t82.5 56t104 20.5q122 0 190 -89q71 89 195 89q56 0 101 -21t77 -57t49.5 -83.5t17.5 -101.5q0 -35 -7 -62h-345q25 -61 109 -61q56 0 94 35l120 -84q-74 -93 -215 -93q-127 0 -196 90
q-66 -90 -190 -90zM191 250q0 -46 28.5 -75t71.5 -29q45 0 73 29t28 75t-28 75t-73 29q-43 0 -71.5 -29t-28.5 -75zM752 305q-20 69 -93 69q-77 0 -99 -69h192z" />
    <glyph glyph-name="Racute" unicode="&#x154;" horiz-adv-x="620" 
d="M55 0v700h280q52 0 98 -18t80 -50t54 -76.5t20 -97.5q0 -63 -32 -115.5t-87 -83.5l144 -259h-192l-122 226h-64v-226h-179zM234 378h99q33 -1 54 21t21 57t-21 57t-54 22h-99v-157zM271 900h194l-116 -145h-158z" />
    <glyph glyph-name="racute" unicode="&#x155;" horiz-adv-x="379" 
d="M214 500v-93q14 49 56 76t94 27v-184q-7 1 -13 1.5t-13 0.5q-41 0 -78 -23q-46 -30 -46 -98v-207h-166v500h166zM96 555l80 145h194l-116 -145h-158z" />
    <glyph glyph-name="uni0156" unicode="&#x156;" horiz-adv-x="620" 
d="M55 700h280q52 0 98 -18t80 -50t54 -76.5t20 -97.5q0 -63 -32 -115.5t-87 -83.5l144 -259h-192l-122 226h-64v-226h-179v700zM252 -57h154l-35 -220h-129zM333 378q33 -1 54 21t21 57t-21 57t-54 22h-99v-157h99z" />
    <glyph glyph-name="uni0157" unicode="&#x157;" horiz-adv-x="379" 
d="M48 0v500h166v-93q14 49 56 76t94 27v-184q-7 1 -13 1.5t-13 0.5q-41 0 -78 -23q-46 -30 -46 -98v-207h-166zM44 -277l10 220h154l-35 -220h-129z" />
    <glyph glyph-name="Rcaron" unicode="&#x158;" horiz-adv-x="620" 
d="M335 700q52 0 98 -18t80 -50t54 -76.5t20 -97.5q0 -63 -32 -115.5t-87 -83.5l144 -259h-192l-122 226h-64v-226h-179v700h280zM246 900l40 -56l39 56h150l-106 -155h-167l-106 155h150zM333 378q33 -1 54 21t21 57t-21 57t-54 22h-99v-157h99z" />
    <glyph glyph-name="rcaron" unicode="&#x159;" horiz-adv-x="379" 
d="M48 500h166v-93q14 49 56 76t94 27v-184q-7 1 -13 1.5t-13 0.5q-41 0 -78 -23q-46 -30 -46 -98v-207h-166v500zM151 700l40 -56l39 56h150l-106 -155h-167l-106 155h150z" />
    <glyph glyph-name="Sacute" unicode="&#x15a;" horiz-adv-x="585" 
d="M171 248q39 -93 138 -93q82 0 82 47q0 32 -47 50q-10 4 -32 10.5t-56 16.5q-48 14 -86.5 33t-65.5 45.5t-41.5 61t-14.5 79.5q0 52 19.5 92.5t53 68t77.5 42t93 14.5q88 0 156 -41t104 -119l-150 -88q-33 78 -109 78q-32 0 -48.5 -13t-16.5 -33q0 -12 5.5 -21t19 -18
t36.5 -18t59 -19q43 -13 83.5 -28.5t71.5 -40.5t49.5 -61t18.5 -89q0 -58 -22 -99.5t-59 -68t-85 -39t-100 -12.5q-112 0 -184.5 46.5t-101.5 127.5zM272 910h194l-116 -145h-158z" />
    <glyph glyph-name="sacute" unicode="&#x15b;" horiz-adv-x="475" 
d="M239 -14q-168 0 -224 119l145 73q19 -55 78 -55q45 0 45 27q0 14 -25 23t-61 18q-26 6 -54 16t-51.5 28t-38 45t-14.5 66q0 42 17 73.5t45 52.5t64 31.5t75 10.5q147 0 206 -116l-140 -63q-22 43 -62 43q-37 0 -37 -24q0 -14 25.5 -23t61.5 -17q27 -5 55.5 -15t52 -28.5
t38.5 -46.5t15 -70q0 -46 -18.5 -78t-49 -52t-69.5 -29t-79 -9zM216 710h194l-116 -145h-158z" />
    <glyph glyph-name="Scedilla" unicode="&#x15e;" horiz-adv-x="585" 
d="M171 248q39 -93 138 -93q82 0 82 47q0 32 -47 50q-10 4 -32 10.5t-56 16.5q-48 14 -86.5 33t-65.5 45.5t-41.5 61t-14.5 79.5q0 52 19.5 92.5t53 68t77.5 42t93 14.5q88 0 156 -41t104 -119l-150 -88q-33 78 -109 78q-32 0 -48.5 -13t-16.5 -33q0 -12 5.5 -21t19 -18
t36.5 -18t59 -19q43 -13 83.5 -28.5t71.5 -40.5t49.5 -61t18.5 -89q0 -87 -51.5 -142t-142.5 -71v-37q22 -7 40 -26t18 -51q0 -99 -186 -99h-23t-25 1v109q12 -1 22.5 -1.5t19.5 -0.5q53 0 53 16q0 15 -53 20v67q-85 12 -142 56.5t-82 113.5z" />
    <glyph glyph-name="scedilla" unicode="&#x15f;" horiz-adv-x="475" 
d="M160 178q19 -55 78 -55q45 0 45 27q0 14 -25 23t-61 18q-26 6 -54 16t-51.5 28t-38 45t-14.5 66q0 42 17 73.5t45 52.5t64 31.5t75 10.5q147 0 206 -116l-140 -63q-22 43 -62 43q-37 0 -37 -24q0 -14 25.5 -23t61.5 -17q27 -5 55.5 -15t52 -28.5t38.5 -46.5t15 -70
q0 -66 -37.5 -104.5t-97.5 -53.5v-42q22 -7 40 -26t18 -51q0 -99 -186 -99h-23t-25 1v109q12 -1 22.5 -1.5t19.5 -0.5q53 0 53 16q0 15 -53 20v67q-124 16 -171 116z" />
    <glyph glyph-name="Scaron" unicode="&#x160;" horiz-adv-x="585" 
d="M171 248q39 -93 138 -93q82 0 82 47q0 32 -47 50q-10 4 -32 10.5t-56 16.5q-48 14 -86.5 33t-65.5 45.5t-41.5 61t-14.5 79.5q0 52 19.5 92.5t53 68t77.5 42t93 14.5q88 0 156 -41t104 -119l-150 -88q-33 78 -109 78q-32 0 -48.5 -13t-16.5 -33q0 -12 5.5 -21t19 -18
t36.5 -18t59 -19q43 -13 83.5 -28.5t71.5 -40.5t49.5 -61t18.5 -89q0 -58 -22 -99.5t-59 -68t-85 -39t-100 -12.5q-112 0 -184.5 46.5t-101.5 127.5zM97 910h150l40 -56l39 56h150l-106 -155h-167z" />
    <glyph glyph-name="scaron" unicode="&#x161;" horiz-adv-x="475" 
d="M239 -14q-168 0 -224 119l145 73q19 -55 78 -55q45 0 45 27q0 14 -25 23t-61 18q-26 6 -54 16t-51.5 28t-38 45t-14.5 66q0 42 17 73.5t45 52.5t64 31.5t75 10.5q147 0 206 -116l-140 -63q-22 43 -62 43q-37 0 -37 -24q0 -14 25.5 -23t61.5 -17q27 -5 55.5 -15t52 -28.5
t38.5 -46.5t15 -70q0 -46 -18.5 -78t-49 -52t-69.5 -29t-79 -9zM191 710l40 -56l39 56h150l-106 -155h-167l-106 155h150z" />
    <glyph glyph-name="uni0162" unicode="&#x162;" horiz-adv-x="545" 
d="M10 527v173h525v-173h-173v-527h-179v527h-173zM198 -57h154l-35 -220h-129z" />
    <glyph glyph-name="uni0163" unicode="&#x163;" horiz-adv-x="394" 
d="M13 500h75v90l166 50v-140h104v-159h-104v-145q0 -28 16.5 -37.5t54.5 -9.5h16t17 1v-150q-21 -2 -40.5 -3.5t-37.5 -1.5q-103 0 -147.5 46t-44.5 151v149h-75v159zM156 -52h154l-35 -220h-129z" />
    <glyph glyph-name="Tcaron" unicode="&#x164;" horiz-adv-x="545" 
d="M10 527v173h525v-173h-173v-527h-179v527h-173zM78 900h150l40 -56l39 56h150l-106 -155h-167z" />
    <glyph glyph-name="tcaron" unicode="&#x165;" horiz-adv-x="430" 
d="M13 500h75v90l166 50v-140h104v-159h-104v-145q0 -28 16.5 -37.5t54.5 -9.5h16t17 1v-150q-21 -2 -40.5 -3.5t-37.5 -1.5q-103 0 -147.5 46t-44.5 151v149h-75v159zM301 726h149l-35 -190h-124z" />
    <glyph glyph-name="Tbar" unicode="&#x166;" horiz-adv-x="545" 
d="M10 700h525v-173h-173v-115h105v-158h-105v-254h-179v254h-105v158h105v115h-173v173z" />
    <glyph glyph-name="tbar" unicode="&#x167;" horiz-adv-x="394" 
d="M13 355v145h75v90l166 50v-140h104v-145h-104v-41h73v-120h-73q0 -28 18 -36.5t50 -8.5h17t19 1v-150q-21 -2 -40.5 -3.5t-37.5 -1.5q-103 0 -147.5 46t-44.5 151v2h-50v120h50v41h-75z" />
    <glyph glyph-name="Utilde" unicode="&#x168;" horiz-adv-x="650" 
d="M227 700v-453q0 -88 98 -88t98 88v453h179v-470q0 -60 -22.5 -105.5t-60.5 -76.5t-88 -47t-106 -16t-106.5 15.5t-88.5 46.5t-60 77t-22 106v470h179zM146 748q0 45 9 76t24.5 50.5t36 28.5t43.5 9q19 0 38.5 -5.5t38.5 -15.5q22 -14 33 -14q8 0 12 7.5t4 25.5h120
q0 -45 -9 -76t-24 -50.5t-35.5 -28t-42.5 -8.5q-20 0 -40 5.5t-40 15.5q-20 14 -32 14q-16 0 -16 -34h-120z" />
    <glyph glyph-name="utilde" unicode="&#x169;" horiz-adv-x="579" 
d="M42 500h166v-278q0 -39 20.5 -59t54.5 -20q39 0 60.5 23t21.5 68v266h166v-500h-166v50q-45 -64 -139 -64q-41 0 -74.5 14t-58 41.5t-38 67.5t-13.5 92v299zM108 548q0 45 9 76t24.5 50.5t36 28.5t43.5 9q19 0 38.5 -5.5t38.5 -15.5q22 -14 33 -14q8 0 12 7.5t4 25.5h120
q0 -45 -9 -76t-24 -50.5t-35.5 -28t-42.5 -8.5q-20 0 -40 5.5t-40 15.5q-20 14 -32 14q-16 0 -16 -34h-120z" />
    <glyph glyph-name="Umacron" unicode="&#x16a;" horiz-adv-x="650" 
d="M227 700v-453q0 -88 98 -88t98 88v453h179v-470q0 -60 -22.5 -105.5t-60.5 -76.5t-88 -47t-106 -16t-106.5 15.5t-88.5 46.5t-60 77t-22 106v470h179zM170 884h309v-130h-309v130z" />
    <glyph glyph-name="umacron" unicode="&#x16b;" horiz-adv-x="579" 
d="M42 500h166v-278q0 -39 20.5 -59t54.5 -20q39 0 60.5 23t21.5 68v266h166v-500h-166v50q-45 -64 -139 -64q-41 0 -74.5 14t-58 41.5t-38 67.5t-13.5 92v299zM132 554v130h309v-130h-309z" />
    <glyph glyph-name="Uring" unicode="&#x16e;" horiz-adv-x="650" 
d="M325 -15q-56 0 -106.5 15.5t-88.5 46.5t-60 77t-22 106v470h179v-453q0 -88 98 -88t98 88v453h179v-470q0 -60 -22.5 -105.5t-60.5 -76.5t-88 -47t-106 -16zM185 840q0 28 10.5 52.5t29 42t44.5 27.5t56 10q31 0 57 -10t45 -27.5t29 -42t10 -52.5q0 -29 -10 -53
t-29 -41.5t-45 -27.5t-57 -10q-30 0 -56 10t-44.5 27.5t-29 41.5t-10.5 53zM325 872q-16 0 -24 -10t-8 -22t8 -22t24 -10q34 0 34 32t-34 32z" />
    <glyph glyph-name="uring" unicode="&#x16f;" horiz-adv-x="579" 
d="M226 -14q-41 0 -74.5 14t-58 41.5t-38 67.5t-13.5 92v299h166v-278q0 -39 20.5 -59t54.5 -20q39 0 60.5 23t21.5 68v266h166v-500h-166v50q-45 -64 -139 -64zM287 533q-30 0 -56 10t-44.5 27.5t-29 41.5t-10.5 53q0 28 10.5 52.5t29 42t44.5 27.5t56 10q31 0 57 -10
t45 -27.5t29 -42t10 -52.5q0 -29 -10 -53t-29 -41.5t-45 -27.5t-57 -10zM287 697q-16 0 -24 -10t-8 -22t8 -22t24 -10q34 0 34 32t-34 32z" />
    <glyph glyph-name="Uhungarumlaut" unicode="&#x170;" horiz-adv-x="650" 
d="M227 700v-453q0 -88 98 -88t98 88v453h179v-470q0 -60 -22.5 -105.5t-60.5 -76.5t-88 -47t-106 -16t-106.5 15.5t-88.5 46.5t-60 77t-22 106v470h179zM572 895l-96 -150h-158l90 150h164zM206 895h163l-86 -150h-157z" />
    <glyph glyph-name="uhungarumlaut" unicode="&#x171;" horiz-adv-x="579" 
d="M226 -14q-41 0 -74.5 14t-58 41.5t-38 67.5t-13.5 92v299h166v-278q0 -39 20.5 -59t54.5 -20q39 0 60.5 23t21.5 68v266h166v-500h-166v50q-45 -64 -139 -64zM280 545l90 150h164l-96 -150h-158zM88 545l80 150h163l-86 -150h-157z" />
    <glyph glyph-name="Uogonek" unicode="&#x172;" horiz-adv-x="650" 
d="M48 700h179v-453q0 -88 98 -88t98 88v453h179v-470q0 -122 -92 -190q-45 -41 -62.5 -67t-18.5 -51q0 -22 21 -23q4 0 9 0.5t12 2.5v-99q-40 -17 -83 -17q-23 0 -43 5.5t-35 16.5t-23.5 28t-7.5 41q0 49 48 108h-2q-56 0 -106.5 15.5t-88.5 46.5t-60 77t-22 106v470z" />
    <glyph glyph-name="uogonek" unicode="&#x173;" horiz-adv-x="579" 
d="M208 500v-278q0 -39 20.5 -59t54.5 -20q39 0 60.5 23t21.5 68v266h166v-500q-42 -47 -42 -78q-2 -23 21 -23q10 0 21 3v-99q-40 -17 -83 -17q-23 0 -43 5.5t-35 16.5t-23.5 28t-7.5 41q0 59 61 123h-35v50q-45 -64 -139 -64q-41 0 -74.5 14t-58 41.5t-38 67.5t-13.5 92
v299h166z" />
    <glyph glyph-name="Wcircumflex" unicode="&#x174;" horiz-adv-x="1004" 
d="M5 700h193l108 -441l125 441h141l125 -441l109 441h192l-195 -700h-189l-112 395l-112 -395h-189zM340 745l106 155h167l106 -155h-150l-39 56l-40 -56h-150z" />
    <glyph glyph-name="wcircumflex" unicode="&#x175;" horiz-adv-x="798" 
d="M12 500h176l66 -272l75 272h140l75 -272l66 272h176l-153 -500h-162l-72 254l-72 -254h-162zM205 545l106 155h167l106 -155h-150l-39 56l-40 -56h-150z" />
    <glyph glyph-name="Ycircumflex" unicode="&#x176;" horiz-adv-x="651" 
d="M201 700l124 -259l125 259h201l-236 -431v-269h-179v267l-236 433h201zM131 745l106 155h167l106 -155h-150l-39 56l-40 -56h-150z" />
    <glyph glyph-name="ycircumflex" unicode="&#x177;" horiz-adv-x="549" 
d="M186 500l101 -290l78 290h184l-171 -492q-38 -109 -105.5 -159t-174.5 -50q-5 0 -10.5 0.5t-11.5 0.5v156q53 0 80 13t44 47l-200 484h186zM190 700h167l106 -155h-150l-39 56l-40 -56h-150z" />
    <glyph glyph-name="Ydieresis" unicode="&#x178;" horiz-adv-x="651" 
d="M0 700h201l124 -259l125 259h201l-236 -431v-269h-179v267zM343 815q0 33 23.5 56.5t55.5 23.5q33 0 56.5 -23.5t23.5 -56.5t-23.5 -56.5t-56.5 -23.5q-32 0 -55.5 23.5t-23.5 56.5zM228 735q-33 0 -56.5 23.5t-23.5 56.5t23.5 56.5t56.5 23.5q32 0 55.5 -23.5
t23.5 -56.5t-23.5 -56.5t-55.5 -23.5z" />
    <glyph glyph-name="Zacute" unicode="&#x179;" horiz-adv-x="542" 
d="M453 900l-116 -145h-158l80 145h194zM265 173h255v-173h-487v138l247 389h-242v173h474v-138z" />
    <glyph glyph-name="zacute" unicode="&#x17a;" horiz-adv-x="484" 
d="M420 700l-116 -145h-158l80 145h194zM262 154h187v-154h-409v114l177 232h-167v154h389v-114z" />
    <glyph glyph-name="Zdotaccent" unicode="&#x17b;" horiz-adv-x="542" 
d="M33 138l247 389h-242v173h474v-138l-247 -389h255v-173h-487v138zM188 832q0 37 26.5 63.5t63.5 26.5q18 0 34 -7t28.5 -19.5t19.5 -29t7 -34.5t-7 -34t-19.5 -28.5t-28.5 -19.5t-34 -7t-34.5 7t-29 19.5t-19.5 28.5t-7 34z" />
    <glyph glyph-name="zdotaccent" unicode="&#x17c;" horiz-adv-x="484" 
d="M40 0v114l177 232h-167v154h389v-114l-177 -232h187v-154h-409zM245 543q-18 0 -34.5 7t-29 19.5t-19.5 28.5t-7 34q0 37 26.5 63.5t63.5 26.5q18 0 34 -7t28.5 -19.5t19.5 -29t7 -34.5t-7 -34t-19.5 -28.5t-28.5 -19.5t-34 -7z" />
    <glyph glyph-name="Zcaron" unicode="&#x17d;" horiz-adv-x="542" 
d="M280 527h-242v173h474v-138l-247 -389h255v-173h-487v138zM84 900h150l40 -56l39 56h150l-106 -155h-167z" />
    <glyph glyph-name="zcaron" unicode="&#x17e;" horiz-adv-x="484" 
d="M40 114l177 232h-167v154h389v-114l-177 -232h187v-154h-409v114zM201 700l40 -56l39 56h150l-106 -155h-167l-106 155h150z" />
    <glyph glyph-name="florin" unicode="&#x192;" horiz-adv-x="461" 
d="M0 -36q15 -9 31 -9q28 0 46 17t23 44l44 256h-68v159h95l18 106q20 113 93 152q49 26 107 26q34 0 72 -9v-164q-15 9 -31 9q-28 0 -46 -16.5t-23 -44.5l-10 -59h74v-159h-101l-52 -303q-19 -112 -94 -152q-47 -26 -106 -26q-35 0 -72 9v164z" />
    <glyph glyph-name="Ohorn" unicode="&#x1a0;" horiz-adv-x="790" 
d="M395 -15q-78 0 -145 28t-116.5 76.5t-77.5 115.5t-28 145t28.5 144.5t78 115.5t116.5 77t144 28q58 0 109 -15q35 0 52.5 20.5t17.5 54.5h148q0 -51 -23.5 -90.5t-61.5 -58.5q5 -5 9 -8.5t9 -8.5q107 -107 107 -259q0 -78 -28.5 -144.5t-78 -115.5t-116.5 -77t-144 -28z
M395 540q-41 0 -75.5 -14.5t-60 -40t-39.5 -60t-14 -75.5t14 -76t39 -60.5t59.5 -39.5t76.5 -14t76.5 14t59.5 39.5t39 60.5t14 76t-14 75.5t-39.5 60t-60 40t-75.5 14.5z" />
    <glyph glyph-name="ohorn" unicode="&#x1a1;" horiz-adv-x="583" 
d="M291 -14q-56 0 -104.5 20t-84.5 55.5t-57 84t-21 104.5t21 104t57 83.5t84.5 56t104.5 20.5q24 0 46 -3.5t43 -10.5h2q12 0 23.5 4t21.5 12.5t16 23t6 35.5h148q0 -56 -28 -98.5t-73 -57.5q62 -71 62 -169q0 -56 -21 -104.5t-57 -84t-84.5 -55.5t-104.5 -20zM291 354
q-43 0 -71.5 -29t-28.5 -75t28.5 -75t71.5 -29q45 0 73 29t28 75t-28 75t-73 29z" />
    <glyph glyph-name="Uhorn" unicode="&#x1af;" horiz-adv-x="650" 
d="M48 700h179v-453q0 -88 98 -88t98 88v453h68q22 2 41 18.5t19 56.5h148q0 -55 -26.5 -96.5t-70.5 -57.5v-391q0 -60 -22.5 -105.5t-60.5 -76.5t-88 -47t-106 -16t-106.5 15.5t-88.5 46.5t-60 77t-22 106v470z" />
    <glyph glyph-name="uhorn" unicode="&#x1b0;" horiz-adv-x="579" 
d="M208 500v-278q0 -39 20.5 -59t54.5 -20q39 0 60.5 23t21.5 68v266h56q22 2 41 18.5t19 56.5h148q0 -55 -27 -97t-71 -58v-420h-166v50q-45 -64 -139 -64q-41 0 -74.5 14t-58 41.5t-38 67.5t-13.5 92v299h166z" />
    <glyph glyph-name="uni0218" unicode="&#x218;" horiz-adv-x="585" 
d="M171 248q39 -93 138 -93q82 0 82 47q0 32 -47 50q-10 4 -32 10.5t-56 16.5q-48 14 -86.5 33t-65.5 45.5t-41.5 61t-14.5 79.5q0 52 19.5 92.5t53 68t77.5 42t93 14.5q88 0 156 -41t104 -119l-150 -88q-33 78 -109 78q-32 0 -48.5 -13t-16.5 -33q0 -12 5.5 -21t19 -18
t36.5 -18t59 -19q43 -13 83.5 -28.5t71.5 -40.5t49.5 -61t18.5 -89q0 -58 -22 -99.5t-59 -68t-85 -39t-100 -12.5q-112 0 -184.5 46.5t-101.5 127.5zM238 -57h154l-35 -220h-129z" />
    <glyph glyph-name="uni0219" unicode="&#x219;" horiz-adv-x="475" 
d="M160 178q19 -55 78 -55q45 0 45 27q0 14 -25 23t-61 18q-26 6 -54 16t-51.5 28t-38 45t-14.5 66q0 42 17 73.5t45 52.5t64 31.5t75 10.5q147 0 206 -116l-140 -63q-22 43 -62 43q-37 0 -37 -24q0 -14 25.5 -23t61.5 -17q27 -5 55.5 -15t52 -28.5t38.5 -46.5t15 -70
q0 -46 -18.5 -78t-49 -52t-69.5 -29t-79 -9q-168 0 -224 119zM172 -277l10 220h154l-35 -220h-129z" />
    <glyph glyph-name="uni021A" unicode="&#x21a;" horiz-adv-x="545" 
d="M10 527v173h525v-173h-173v-527h-179v527h-173zM198 -57h154l-35 -220h-129z" />
    <glyph glyph-name="uni021B" unicode="&#x21b;" horiz-adv-x="394" 
d="M13 500h75v90l166 50v-140h104v-159h-104v-145q0 -28 16.5 -37.5t54.5 -9.5h16t17 1v-150q-21 -2 -40.5 -3.5t-37.5 -1.5q-103 0 -147.5 46t-44.5 151v149h-75v159zM156 -52h154l-35 -220h-129z" />
    <glyph glyph-name="circumflex" unicode="&#x2c6;" horiz-adv-x="419" 
d="M20 545l106 155h167l106 -155h-150l-39 56l-40 -56h-150z" />
    <glyph glyph-name="caron" unicode="&#x2c7;" horiz-adv-x="419" 
d="M20 700h150l40 -56l39 56h150l-106 -155h-167z" />
    <glyph glyph-name="breve" unicode="&#x2d8;" horiz-adv-x="399" 
d="M160 697q0 -44 39 -44q40 0 40 44h140q0 -78 -46 -119t-134 -41t-133.5 41t-45.5 119h140z" />
    <glyph glyph-name="dotaccent" unicode="&#x2d9;" horiz-adv-x="225" 
d="M20 632q0 37 26.5 63.5t63.5 26.5q18 0 34 -7t28.5 -19.5t19.5 -29t7 -34.5t-7 -34t-19.5 -28.5t-28.5 -19.5t-34 -7t-34.5 7t-29 19.5t-19.5 28.5t-7 34z" />
    <glyph glyph-name="ring" unicode="&#x2da;" horiz-adv-x="321" 
d="M20 665q0 28 10.5 52.5t29 42t44.5 27.5t56 10q31 0 57 -10t45 -27.5t29 -42t10 -52.5q0 -29 -10 -53t-29 -41.5t-45 -27.5t-57 -10q-30 0 -56 10t-44.5 27.5t-29 41.5t-10.5 53zM160 697q-16 0 -24 -10t-8 -22t8 -22t24 -10q34 0 34 32t-34 32z" />
    <glyph glyph-name="ogonek" unicode="&#x2db;" horiz-adv-x="233" 
d="M213 -197q-40 -17 -83 -17q-23 0 -43 5.5t-35.5 16.5t-24 28t-7.5 41q0 58 62 123h131q-43 -46 -43 -78q-2 -23 22 -23q10 0 21 3v-99v0z" />
    <glyph glyph-name="tilde" unicode="&#x2dc;" horiz-adv-x="399" 
d="M20 548q0 45 9 76t24.5 50.5t36 28.5t43.5 9q19 0 38.5 -5.5t38.5 -15.5q22 -14 33 -14q8 0 12 7.5t4 25.5h120q0 -45 -9 -76t-24 -50.5t-35.5 -28t-42.5 -8.5q-20 0 -40 5.5t-40 15.5q-20 14 -32 14q-16 0 -16 -34h-120v0z" />
    <glyph glyph-name="hungarumlaut" unicode="&#x2dd;" horiz-adv-x="486" 
d="M212 545l90 150h164l-96 -150h-158zM20 545l80 150h163l-86 -150h-157z" />
    <glyph glyph-name="gravecomb" unicode="&#x300;" horiz-adv-x="0" 
d="M-178 555l-116 145h194l80 -145h-158z" />
    <glyph glyph-name="acutecomb" unicode="&#x301;" horiz-adv-x="0" 
d="M-200 700h194l-116 -145h-158z" />
    <glyph glyph-name="uni0302" unicode="&#x302;" horiz-adv-x="0" 
d="M-399 545l106 155h167l106 -155h-150l-39 56l-40 -56h-150z" />
    <glyph glyph-name="tildecomb" unicode="&#x303;" horiz-adv-x="0" 
d="M-373 548q0 45 9 76t24.5 50.5t36 28.5t43.5 9q19 0 38.5 -5.5t38.5 -15.5q22 -14 33 -14q8 0 12 7.5t4 25.5h120q0 -45 -9 -76t-24 -50.5t-35.5 -28t-42.5 -8.5q-20 0 -40 5.5t-40 15.5q-20 14 -32 14q-16 0 -16 -34h-120v0z" />
    <glyph glyph-name="uni0304" unicode="&#x304;" horiz-adv-x="0" 
d="M-329 554v130h309v-130h-309z" />
    <glyph glyph-name="uni0306" unicode="&#x306;" horiz-adv-x="0" 
d="M-244 697q0 -44 39 -44q40 0 40 44h140q0 -78 -46 -119t-134 -41t-133.5 41t-45.5 119h140z" />
    <glyph glyph-name="uni0307" unicode="&#x307;" horiz-adv-x="0" 
d="M-199 632q0 37 26.5 63.5t63.5 26.5q18 0 34 -7t28.5 -19.5t19.5 -29t7 -34.5t-7 -34t-19.5 -28.5t-28.5 -19.5t-34 -7t-34.5 7t-29 19.5t-19.5 28.5t-7 34z" />
    <glyph glyph-name="uni0308" unicode="&#x308;" horiz-adv-x="0" 
d="M-179 615q0 33 23.5 56.5t55.5 23.5q33 0 56.5 -23.5t23.5 -56.5t-23.5 -56.5t-56.5 -23.5q-32 0 -55.5 23.5t-23.5 56.5zM-374 615q0 33 23.5 56.5t56.5 23.5q32 0 55.5 -23.5t23.5 -56.5t-23.5 -56.5t-55.5 -23.5q-33 0 -56.5 23.5t-23.5 56.5z" />
    <glyph glyph-name="uni030A" unicode="&#x30a;" horiz-adv-x="0" 
d="M-303 665q0 28 10.5 52.5t29 42t44.5 27.5t56 10q31 0 57 -10t45 -27.5t29 -42t10 -52.5q0 -29 -10 -53t-29 -41.5t-45 -27.5t-57 -10q-30 0 -56 10t-44.5 27.5t-29 41.5t-10.5 53zM-163 697q-16 0 -24 -10t-8 -22t8 -22t24 -10q34 0 34 32t-34 32z" />
    <glyph glyph-name="uni030B" unicode="&#x30b;" horiz-adv-x="0" 
d="M-274 545l90 150h164l-96 -150h-158zM-466 545l80 150h163l-86 -150h-157z" />
    <glyph glyph-name="uni030C" unicode="&#x30c;" horiz-adv-x="0" 
d="M-399 700h150l40 -56l39 56h150l-106 -155h-167z" />
    <glyph glyph-name="uni0312" unicode="&#x312;" horiz-adv-x="0" 
d="M-20 985l-10 -220h-154l35 220h129z" />
    <glyph glyph-name="uni0326" unicode="&#x326;" horiz-adv-x="0" 
d="M-184 -277l10 220h154l-35 -220h-129z" />
    <glyph glyph-name="uni0327" unicode="&#x327;" horiz-adv-x="0" 
d="M-254 -112q12 -1 22.5 -1.5t19.5 -0.5q53 0 53 16q0 15 -53 20v78h134v-46q22 -7 40 -26t18 -51q0 -99 -186 -99h-23t-25 1v109v0z" />
    <glyph glyph-name="uni0328" unicode="&#x328;" horiz-adv-x="0" 
d="M-25 -197q-40 -17 -83 -17q-23 0 -43 5.5t-35.5 16.5t-24 28t-7.5 41q0 58 62 123h131q-43 -46 -43 -78q-2 -23 22 -23q10 0 21 3v-99v0z" />
    <glyph glyph-name="uni0394" unicode="&#x394;" horiz-adv-x="660" 
d="M437 700l228 -700h-670l228 700h214zM233 155h194l-97 342z" />
    <glyph glyph-name="uni03A9" unicode="&#x3a9;" horiz-adv-x="775" 
d="M20 370q0 78 29 141.5t79.5 108.5t117 70t141.5 25t141.5 -25t117 -70.5t80 -109t29.5 -140.5q0 -119 -83 -202h68v-168h-281v173q54 20 85.5 67t31.5 110q0 41 -14 75.5t-39.5 60t-60 40t-75.5 14.5t-75.5 -14.5t-59.5 -40t-39 -60t-14 -75.5q0 -63 31.5 -110t85.5 -67
v-173h-281v168h67q-82 83 -82 202z" />
    <glyph glyph-name="pi" unicode="&#x3c0;" horiz-adv-x="661" 
d="M15 343v157h630v-157h-74v-343h-166v343h-147v-343h-166v343h-77z" />
    <glyph glyph-name="uni0401" unicode="&#x401;" horiz-adv-x="535" 
d="M500 700v-167h-266v-97h241v-165h-241v-103h271v-168h-450v700h445zM296 815q0 33 23.5 56.5t55.5 23.5q33 0 56.5 -23.5t23.5 -56.5t-23.5 -56.5t-56.5 -23.5q-32 0 -55.5 23.5t-23.5 56.5zM181 735q-33 0 -56.5 23.5t-23.5 56.5t23.5 56.5t56.5 23.5q32 0 55.5 -23.5
t23.5 -56.5t-23.5 -56.5t-55.5 -23.5z" />
    <glyph glyph-name="uni0402" unicode="&#x402;" horiz-adv-x="705" 
d="M535 700v-173h-183v-94q71 17 130 17q87 0 135 -49.5t48 -146.5v-52q0 -111 -51 -163.5t-157 -52.5h-13.5t-13.5 1v159q33 0 45.5 10.5t12.5 45.5v31q0 57 -57 57q-35 0 -79 -14v-276h-179v527h-163v173h525z" />
    <glyph glyph-name="uni0403" unicode="&#x403;" horiz-adv-x="475" 
d="M432 899l-116 -145h-158l80 145h194zM469 700v-173h-235v-527h-179v700h414z" />
    <glyph glyph-name="uni0404" unicode="&#x404;" horiz-adv-x="719" 
d="M393 -15q-80 0 -146.5 27t-115.5 76t-76 115.5t-27 146.5q0 79 27.5 146t76 115.5t115.5 76t146 27.5q45 0 89.5 -11t84 -32.5t73 -52.5t56.5 -70l-154 -89q-21 38 -60.5 60.5t-90.5 22.5q-63 0 -107.5 -29.5t-65.5 -81.5h253v-164h-253q21 -52 65.5 -81.5t107.5 -29.5
q51 0 91 22.5t60 61.5l154 -90q-23 -38 -55 -68.5t-71 -52.5t-84 -33.5t-93 -11.5z" />
    <glyph glyph-name="uni0405" unicode="&#x405;" horiz-adv-x="585" 
d="M171 248q39 -93 138 -93q82 0 82 47q0 32 -47 50q-10 4 -32 10.5t-56 16.5q-48 14 -86.5 33t-65.5 45.5t-41.5 61t-14.5 79.5q0 52 19.5 92.5t53 68t77.5 42t93 14.5q88 0 156 -41t104 -119l-150 -88q-33 78 -109 78q-32 0 -48.5 -13t-16.5 -33q0 -12 5.5 -21t19 -18
t36.5 -18t59 -19q43 -13 83.5 -28.5t71.5 -40.5t49.5 -61t18.5 -89q0 -58 -22 -99.5t-59 -68t-85 -39t-100 -12.5q-112 0 -184.5 46.5t-101.5 127.5z" />
    <glyph glyph-name="uni0406" unicode="&#x406;" horiz-adv-x="289" 
d="M55 700h179v-700h-179v700z" />
    <glyph glyph-name="uni0407" unicode="&#x407;" horiz-adv-x="289" 
d="M234 700v-700h-179v700h179zM163 815q0 33 23.5 56.5t55.5 23.5q33 0 56.5 -23.5t23.5 -56.5t-23.5 -56.5t-56.5 -23.5q-32 0 -55.5 23.5t-23.5 56.5zM48 735q-33 0 -56.5 23.5t-23.5 56.5t23.5 56.5t56.5 23.5q32 0 55.5 -23.5t23.5 -56.5t-23.5 -56.5t-55.5 -23.5z" />
    <glyph glyph-name="uni0408" unicode="&#x408;" horiz-adv-x="571" 
d="M267 -15q-171 0 -242 140l153 89q15 -29 35 -42t54 -13q77 0 77 71v470h179v-473q0 -59 -19 -104t-52.5 -75.5t-80.5 -46.5t-104 -16z" />
    <glyph glyph-name="uni0409" unicode="&#x409;" horiz-adv-x="938" 
d="M199 40q-67 -44 -154 -44q-10 0 -19.5 0.5t-20.5 1.5v167q6 -1 12 -1h12q44 0 63.5 25.5t19.5 91.5v419h488v-236h73q51 0 96.5 -16.5t79.5 -46.5t54 -73t20 -96q0 -54 -19.5 -97t-53.5 -73t-79.5 -46t-97.5 -16h-252v527h-130v-254q0 -87 -24.5 -146t-67.5 -87zM600 294
v-124h73q71 0 71 62t-71 62h-73z" />
    <glyph glyph-name="uni040A" unicode="&#x40a;" horiz-adv-x="943" 
d="M55 0v700h179v-235h192v235h179v-235h73q51 0 96.5 -16.5t79.5 -46.5t54 -73t20 -97q0 -53 -20 -96t-54 -73t-79.5 -46.5t-96.5 -16.5h-252v294h-192v-294h-179zM605 294v-123h73q71 0 71 61q0 62 -71 62h-73z" />
    <glyph glyph-name="uni040B" unicode="&#x40b;" horiz-adv-x="710" 
d="M535 700v-173h-183v-90q73 18 130 18q87 0 135 -49.5t48 -146.5v-259h-177v237q0 58 -57 58q-35 0 -79 -14v-281h-179v527h-163v173h525z" />
    <glyph glyph-name="uni040C" unicode="&#x40c;" horiz-adv-x="631" 
d="M55 700h179v-294l191 294h200l-222 -340l232 -360h-200l-201 313v-313h-179v700zM297 899h194l-116 -145h-158z" />
    <glyph glyph-name="uni040E" unicode="&#x40e;" horiz-adv-x="629" 
d="M199 700l129 -286l112 286h183l-202 -485q-45 -109 -118 -162t-179 -53h-20v167q5 -1 10.5 -1h10.5q79 0 119 52l-229 482h184zM158 753v140h323v-140h-323z" />
    <glyph glyph-name="uni040F" unicode="&#x40f;" horiz-adv-x="650" 
d="M55 700h179v-527h182v527h179v-700h-181v-134h-178v134h-181v700z" />
    <glyph glyph-name="uni0410" unicode="&#x410;" horiz-adv-x="671" 
d="M-5 0l231 700h218l231 -700h-193l-30 101h-233l-30 -101h-194zM406 255l-71 238l-70 -238h141z" />
    <glyph glyph-name="uni0411" unicode="&#x411;" horiz-adv-x="592" 
d="M55 700h464v-173h-285v-85h110q51 0 94 -14.5t74.5 -42.5t49 -69t17.5 -94t-17.5 -94t-49 -69.5t-74.5 -43.5t-94 -15h-289v700zM234 281v-117h103q29 0 46.5 14.5t17.5 43.5t-17.5 44t-46.5 15h-103z" />
    <glyph glyph-name="uni0412" unicode="&#x412;" horiz-adv-x="602" 
d="M55 0v700h276q52 0 95 -14t73 -39.5t46.5 -62.5t16.5 -83q0 -88 -65 -139q88 -52 88 -157q0 -94 -64 -149q-65 -56 -171 -56h-295zM234 278v-118h111q27 0 44 16.5t17 42.5q0 27 -17 43t-44 16h-111zM326 430q24 0 40.5 14.5t16.5 40.5q0 25 -16 40t-41 15h-92v-110h92z
" />
    <glyph glyph-name="uni0413" unicode="&#x413;" horiz-adv-x="475" 
d="M469 700v-173h-235v-527h-179v700h414z" />
    <glyph glyph-name="uni0414" unicode="&#x414;" horiz-adv-x="712" 
d="M84 173q48 76 48 222v305h487v-527h75v-307h-178v134h-327v-134h-179v307h74zM310 393q0 -141 -40 -220h171v361h-131v-141z" />
    <glyph glyph-name="uni0415" unicode="&#x415;" horiz-adv-x="535" 
d="M55 700h445v-167h-266v-97h241v-165h-241v-103h271v-168h-450v700z" />
    <glyph glyph-name="uni0416" unicode="&#x416;" horiz-adv-x="927" 
d="M216 354l-201 346h198l161 -303v303h179v-303l160 303h198l-200 -346l210 -354h-198l-170 305v-305h-179v305l-171 -305h-198z" />
    <glyph glyph-name="uni0417" unicode="&#x417;" horiz-adv-x="560" 
d="M281 -15q-203 0 -271 164l153 88q30 -83 118 -83q83 0 83 62q0 54 -67 60l-106 1v155h69q81 0 81 58t-72 58q-71 0 -100 -71l-150 87q32 72 97 111.5t156 39.5q48 0 93 -13t79.5 -39t55 -65.5t20.5 -92.5q0 -91 -71 -144q94 -52 94 -164q0 -56 -22.5 -96t-59 -65.5
t-84 -38t-96.5 -12.5z" />
    <glyph glyph-name="uni0418" unicode="&#x418;" horiz-adv-x="675" 
d="M234 700v-352l247 352h138v-700h-178v352l-247 -352h-139v700h179z" />
    <glyph glyph-name="uni0419" unicode="&#x419;" horiz-adv-x="675" 
d="M234 700v-352l247 352h138v-700h-178v352l-247 -352h-139v700h179zM498 894v-140h-323v140h323z" />
    <glyph glyph-name="uni041A" unicode="&#x41a;" horiz-adv-x="631" 
d="M55 0v700h179v-294l191 294h200l-222 -340l232 -360h-200l-201 313v-313h-179z" />
    <glyph glyph-name="uni041B" unicode="&#x41b;" horiz-adv-x="665" 
d="M5 167q7 -1 13.5 -1.5t12.5 -0.5q43 0 62 25.5t19 90.5v419h498v-700h-179v527h-140v-254q0 -62 -13.5 -112.5t-43 -86.5t-75.5 -56t-110 -20h-22t-22 2v167v0z" />
    <glyph glyph-name="uni041C" unicode="&#x41c;" horiz-adv-x="825" 
d="M55 700h179l178 -299l179 299h178v-700h-178v377l-170 -281h-18l-169 280v-376h-179v700z" />
    <glyph glyph-name="uni041D" unicode="&#x41d;" horiz-adv-x="665" 
d="M234 700v-259h197v259h178v-700h-178v269h-197v-269h-179v700h179z" />
    <glyph glyph-name="uni041E" unicode="&#x41e;" horiz-adv-x="790" 
d="M395 -15q-78 0 -145 28t-116.5 76.5t-77.5 115.5t-28 145t28.5 144.5t78 115.5t116.5 77t144 28t144 -28t116.5 -77t78 -116t28.5 -144q0 -78 -28.5 -144.5t-78 -115.5t-116.5 -77t-144 -28zM395 540q-41 0 -75.5 -14.5t-60 -40t-39.5 -60t-14 -75.5t14 -76t39 -60.5
t59.5 -39.5t76.5 -14t76.5 14t59.5 39.5t39 60.5t14 76t-14 75.5t-39.5 60t-60 40t-75.5 14.5z" />
    <glyph glyph-name="uni041F" unicode="&#x41f;" horiz-adv-x="650" 
d="M55 0v700h540v-700h-179v527h-182v-527h-179z" />
    <glyph glyph-name="uni0420" unicode="&#x420;" horiz-adv-x="592" 
d="M327 700q53 0 99 -18t79.5 -50.5t52.5 -77.5t19 -99t-19 -99t-52.5 -77.5t-79.5 -50.5t-99 -18h-93v-210h-179v700h272zM234 380h93q30 0 50.5 21t20.5 54t-20.5 53.5t-50.5 20.5h-93v-149z" />
    <glyph glyph-name="uni0421" unicode="&#x421;" horiz-adv-x="719" 
d="M28 350q0 79 27.5 145.5t76 115.5t115.5 76.5t146 27.5q46 0 90 -11t83.5 -32.5t72.5 -52.5t57 -70l-155 -89q-20 37 -59.5 58.5t-88.5 21.5q-43 0 -77.5 -14t-59 -39t-37.5 -60t-13 -77q0 -86 50 -138t137 -52q49 0 88.5 21.5t59.5 59.5l155 -90q-46 -78 -126 -122
t-177 -44q-80 0 -146.5 27t-115.5 76t-76 115.5t-27 146.5z" />
    <glyph glyph-name="uni0422" unicode="&#x422;" horiz-adv-x="545" 
d="M10 527v173h525v-173h-173v-527h-179v527h-173z" />
    <glyph glyph-name="uni0423" unicode="&#x423;" horiz-adv-x="629" 
d="M199 700l129 -286l112 286h183l-202 -485q-45 -109 -118 -162t-179 -53h-20v167q5 -1 10.5 -1h10.5q79 0 119 52l-229 482h184z" />
    <glyph glyph-name="uni0424" unicode="&#x424;" horiz-adv-x="833" 
d="M331 63q-73 9 -131 33t-98 60.5t-61 85.5t-21 108t21 108t61 85.5t98 60.5t131 33v83h172v-83q73 -9 130.5 -33t97.5 -60.5t61 -85.5t21 -108t-21 -108t-61 -85.5t-97.5 -60.5t-130.5 -33v-83h-172v83zM503 227q69 10 100.5 40.5t31.5 82.5q0 54 -31.5 85t-100.5 41v-249
zM331 476q-69 -10 -100.5 -41t-31.5 -85q0 -104 132 -123v249z" />
    <glyph glyph-name="uni0425" unicode="&#x425;" horiz-adv-x="632" 
d="M5 0l211 357l-203 343h201l102 -173l102 173h201l-203 -344l210 -356h-200l-110 186l-110 -186h-201z" />
    <glyph glyph-name="uni0426" unicode="&#x426;" horiz-adv-x="702" 
d="M239 700v-527h182v527h183v-527h80v-307h-179v134h-450v700h184z" />
    <glyph glyph-name="uni0427" unicode="&#x427;" horiz-adv-x="647" 
d="M221 700v-231q0 -40 24 -62t62 -22q55 0 106 18v297h178v-700h-178v232q-56 -19 -119 -19q-55 0 -101 15.5t-79.5 46t-52 74.5t-18.5 101v250h178z" />
    <glyph glyph-name="uni0428" unicode="&#x428;" horiz-adv-x="949" 
d="M55 700h179v-527h151v527h179v-527h151v527h179v-700h-839v700z" />
    <glyph glyph-name="uni0429" unicode="&#x429;" horiz-adv-x="992" 
d="M55 0v700h179v-527h151v527h179v-527h151v527h179v-527h80v-307h-179v134h-740z" />
    <glyph glyph-name="uni042A" unicode="&#x42a;" horiz-adv-x="697" 
d="M339 700v-210h93q52 0 98 -18.5t79.5 -51t53 -77.5t19.5 -98q0 -54 -19 -99t-52.5 -77.5t-79.5 -50.5t-99 -18h-272v527h-160v173h339zM339 319v-149h93q30 0 50.5 21t20.5 54t-20.5 53.5t-50.5 20.5h-93z" />
    <glyph glyph-name="uni042B" unicode="&#x42b;" horiz-adv-x="869" 
d="M55 700h179v-210h93q53 0 98.5 -18.5t79.5 -51t53 -77.5t19 -98q0 -54 -19 -99t-52.5 -77.5t-79.5 -50.5t-99 -18h-272v700zM635 700h178v-700h-178v700zM327 170q30 0 50.5 21t20.5 54t-20.5 53.5t-50.5 20.5h-93v-149h93z" />
    <glyph glyph-name="uni042C" unicode="&#x42c;" horiz-adv-x="592" 
d="M55 700h179v-210h93q53 0 99 -18t79.5 -50.5t52.5 -77.5t19 -99t-19 -99t-52.5 -77.5t-79.5 -50.5t-99 -18h-272v700zM234 320v-149h93q30 0 50.5 20.5t20.5 53.5t-20.5 54t-50.5 21h-93z" />
    <glyph glyph-name="uni042D" unicode="&#x42d;" horiz-adv-x="719" 
d="M326 -15q-48 0 -93 11.5t-84 33.5t-71.5 52.5t-54.5 68.5l154 90q20 -39 60 -61.5t91 -22.5q63 0 107.5 29.5t65.5 81.5h-253v164h253q-21 52 -65.5 81.5t-107.5 29.5q-51 0 -90.5 -22.5t-60.5 -60.5l-154 89q24 40 57 71t72.5 52t83.5 32t90 11q79 0 146 -27.5
t115.5 -76.5t76 -115.5t27.5 -145.5q0 -80 -27 -146.5t-76 -115.5t-116 -76t-146 -27z" />
    <glyph glyph-name="uni042E" unicode="&#x42e;" horiz-adv-x="1068" 
d="M234 700v-254h91q15 61 48 110.5t78.5 85t102 54.5t119.5 19q77 0 144 -28t116.5 -77t78 -116t28.5 -144t-28.5 -144t-78 -116t-116.5 -77t-144 -28q-133 0 -230 81q-98 81 -123 208h-86v-274h-179v700h179zM673 540q-42 0 -76.5 -14t-59.5 -39.5t-39 -60.5t-14 -76
t14 -76t39 -60.5t59.5 -39.5t76.5 -14t76.5 14t59.5 39.5t39 60.5t14 76q0 83 -54 136q-28 26 -61 40t-74 14z" />
    <glyph glyph-name="uni042F" unicode="&#x42f;" horiz-adv-x="630" 
d="M178 251q-63 29 -99 83.5t-36 123.5q0 54 19.5 98.5t53.5 76.5t79.5 49.5t98.5 17.5h280v-700h-178v226h-38l-141 -226h-199zM296 535q-32 0 -53.5 -22.5t-21.5 -56.5q0 -35 21.5 -57t53.5 -21h100v157h-100z" />
    <glyph glyph-name="uni0430" unicode="&#x430;" 
d="M24 250q0 51 16 99t46.5 84.5t74 58.5t98.5 22q91 0 142 -60v46h166v-500h-166v46q-51 -60 -142 -60q-101 0 -168 75q-67 76 -67 189zM191 250q0 -48 29 -79q28 -30 76 -30q49 0 77 30.5t28 78.5t-28 78.5t-77 30.5t-77 -30.5t-28 -78.5z" />
    <glyph glyph-name="uni0431" unicode="&#x431;" horiz-adv-x="569" 
d="M25 262q0 59 8.5 107t29.5 87t56.5 71t90.5 59q113 56 139 76q15 11 26 26.5t19 34.5l136 -78q-8 -28 -21.5 -49.5t-35 -39.5t-52 -34t-72.5 -32q-33 -13 -56 -24.5t-38.5 -22.5t-25 -22.5t-15.5 -25.5q49 43 129 43q46 0 85 -17t67.5 -47t45 -70t16.5 -85
q0 -56 -20.5 -99.5t-56 -73.5t-82.5 -45.5t-100 -15.5q-63 0 -113.5 20t-86 56t-54.5 87t-19 114zM293 308q-38 0 -66 -23.5t-28 -63.5q0 -42 28 -67t69 -25q42 0 68 25.5t26 63.5q0 39 -27.5 64.5t-69.5 25.5z" />
    <glyph glyph-name="uni0432" unicode="&#x432;" horiz-adv-x="520" 
d="M48 0v500h262q35 0 66.5 -8t55.5 -25.5t38 -44.5t14 -66q0 -67 -52 -101q70 -33 70 -111q0 -66 -45 -105t-130 -39h-279zM207 194v-68h91q39 0 39 35q0 33 -39 33h-91zM285 310q40 0 40 32q0 34 -40 34h-78v-66h78z" />
    <glyph glyph-name="uni0433" unicode="&#x433;" horiz-adv-x="417" 
d="M407 500v-159h-193v-341h-166v500h359z" />
    <glyph glyph-name="uni0434" unicode="&#x434;" horiz-adv-x="600" 
d="M65 157q38 62 38 170v173h417v-343h65v-291h-160v134h-260v-134h-160v291h60zM265 327q0 -101 -28 -170h121v195h-93v-25z" />
    <glyph glyph-name="uni0435" unicode="&#x435;" horiz-adv-x="571" 
d="M24 249q0 58 20 106.5t55.5 83.5t84.5 55t106 20t104.5 -20t81.5 -55.5t53 -83.5t19 -104q0 -35 -7 -62h-345q25 -61 112 -61q53 0 91 35l120 -84q-74 -93 -215 -93q-60 0 -111.5 18t-89 51.5t-58.5 82.5t-21 111zM292 374q-77 0 -98 -70h192q-19 70 -94 70z" />
    <glyph glyph-name="uni0436" unicode="&#x436;" horiz-adv-x="779" 
d="M161 250l-146 250h183l109 -202v202h165v-202l109 202h183l-146 -250l156 -250h-183l-119 205v-205h-165v205l-119 -205h-183z" />
    <glyph glyph-name="uni0437" unicode="&#x437;" horiz-adv-x="456" 
d="M227 -15q-157 0 -217 120l130 76q22 -58 84 -58q21 0 35 9t14 25q0 31 -41 31h-60v130h52q37 0 37 30q0 32 -44 32q-51 0 -72 -54l-130 71q66 117 210 117q33 0 68 -9t63 -27.5t46 -46.5t18 -67q0 -73 -56 -109q74 -39 74 -119q0 -33 -15 -60.5t-42.5 -48t-66.5 -31.5
t-87 -11z" />
    <glyph glyph-name="uni0438" unicode="&#x438;" horiz-adv-x="580" 
d="M48 0v500h162v-234l194 234h128v-500h-162v234l-194 -234h-128z" />
    <glyph glyph-name="uni0439" unicode="&#x439;" horiz-adv-x="580" 
d="M48 0v500h162v-234l194 234h128v-500h-162v234l-194 -234h-128zM451 694v-140h-323v140h323z" />
    <glyph glyph-name="uni043A" unicode="&#x43a;" horiz-adv-x="542" 
d="M48 500h166v-209l129 209h192l-168 -250l175 -250h-186l-142 213v-213h-166v500z" />
    <glyph glyph-name="uni043B" unicode="&#x43b;" horiz-adv-x="562" 
d="M10 154q12 -3 22 -3q50 0 50 80v269h432v-500h-166v341h-100v-134q0 -106 -47 -158t-145 -52q-22 0 -46 3v154v0z" />
    <glyph glyph-name="uni043C" unicode="&#x43c;" horiz-adv-x="648" 
d="M48 500h161l115 -180l116 180h160v-500h-160v241l-107 -166h-18l-106 165v-240h-161v500z" />
    <glyph glyph-name="uni043D" unicode="&#x43d;" horiz-adv-x="575" 
d="M214 500v-172h147v172h166v-500h-166v172h-147v-172h-166v500h166z" />
    <glyph glyph-name="uni043E" unicode="&#x43e;" horiz-adv-x="583" 
d="M291 -14q-56 0 -104.5 20t-84.5 55.5t-57 84t-21 104.5t21 104t57 83.5t84.5 56t104.5 20.5q55 0 104 -20.5t85 -56t57 -83.5t21 -104t-21 -104.5t-57 -84t-84.5 -55.5t-104.5 -20zM291 354q-43 0 -71.5 -29t-28.5 -75t28.5 -75t71.5 -29q45 0 73 29t28 75t-28 75t-73 29
z" />
    <glyph glyph-name="uni043F" unicode="&#x43f;" horiz-adv-x="575" 
d="M48 0v500h479v-500h-166v343h-147v-343h-166z" />
    <glyph glyph-name="uni0440" unicode="&#x440;" 
d="M48 500h166v-46q51 60 142 60q100 0 167 -76q68 -76 68 -188q0 -51 -16 -99t-46.5 -84.5t-74 -58.5t-98.5 -22q-91 0 -142 60v-246h-166v700zM319 359q-49 0 -77 -30.5t-28 -78.5t29 -79q28 -30 76 -30q49 0 77 30.5t28 78.5t-28 78.5t-77 30.5z" />
    <glyph glyph-name="uni0441" unicode="&#x441;" horiz-adv-x="528" 
d="M24 250q0 57 20.5 105.5t56 83.5t84 55t105.5 20q75 0 135 -34.5t93 -94.5l-142 -82q-27 49 -87 49q-42 0 -70 -28.5t-28 -73.5t28 -73.5t70 -28.5q61 0 87 50l142 -82q-33 -60 -93 -95t-135 -35q-57 0 -105.5 20t-84 55t-56 83.5t-20.5 105.5z" />
    <glyph glyph-name="uni0442" unicode="&#x442;" horiz-adv-x="470" 
d="M8 341v159h454v-159h-143v-341h-166v341h-145z" />
    <glyph glyph-name="uni0443" unicode="&#x443;" horiz-adv-x="549" 
d="M183 500l103 -290l79 290h184l-169 -485q-75 -215 -284 -215h-20v156q52 0 79 11t43 41l-198 492h183z" />
    <glyph glyph-name="uni0444" unicode="&#x444;" horiz-adv-x="709" 
d="M24 250q0 49 16.5 92t48 77t78 56.5t106.5 31.5v193h162v-193q60 -9 106.5 -31.5t78 -56.5t48 -77t16.5 -92q0 -50 -16.5 -93t-48 -76.5t-78 -56.5t-106.5 -32v-192h-162v192q-60 9 -106.5 32t-78 56.5t-48 76.5t-16.5 93zM435 150q84 22 84 100q0 77 -84 100v-200z
M189 250q0 -76 84 -100v200q-84 -24 -84 -100z" />
    <glyph glyph-name="uni0445" unicode="&#x445;" horiz-adv-x="549" 
d="M181 255l-174 245h187l80 -113l80 113h188l-174 -245l181 -255h-188l-87 123l-87 -123h-187z" />
    <glyph glyph-name="uni0446" unicode="&#x446;" horiz-adv-x="612" 
d="M214 500v-343h132v343h166v-343h85v-291h-160v134h-389v500h166z" />
    <glyph glyph-name="uni0447" unicode="&#x447;" horiz-adv-x="543" 
d="M228 127q-45 0 -82.5 12.5t-64 36t-41.5 58t-15 79.5v187h167v-158q0 -61 73 -61q34 0 63 10v209h167v-500h-167v140q-51 -13 -100 -13z" />
    <glyph glyph-name="uni0448" unicode="&#x448;" horiz-adv-x="835" 
d="M48 500h166v-343h122v343h164v-343h121v343h166v-500h-739v500z" />
    <glyph glyph-name="uni0449" unicode="&#x449;" horiz-adv-x="862" 
d="M48 0v500h166v-343h114v343h164v-343h114v343h166v-343h74v-291h-159v134h-639z" />
    <glyph glyph-name="uni044A" unicode="&#x44a;" horiz-adv-x="583" 
d="M0 341v159h290v-141h81q45 0 81 -12.5t61.5 -36t39.5 -56.5t14 -74q0 -84 -52.5 -132t-143.5 -48h-248v341h-123zM290 220v-81h71q20 0 32 11t12 30q0 18 -12 29t-32 11h-71z" />
    <glyph glyph-name="uni044B" unicode="&#x44b;" horiz-adv-x="747" 
d="M48 0v500h166v-141h82q45 0 81 -12.5t61.5 -36t39.5 -56.5t14 -74q0 -84 -52.5 -132t-143.5 -48h-248zM533 0v500h166v-500h-166zM214 220v-81h72q20 0 32 11t12 30q0 18 -12 29t-32 11h-72z" />
    <glyph glyph-name="uni044C" unicode="&#x44c;" horiz-adv-x="507" 
d="M48 0v500h166v-141h82q45 0 81 -12.5t61.5 -36t39.5 -56.5t14 -74q0 -84 -52.5 -132t-143.5 -48h-248zM214 220v-81h72q20 0 32 11t12 30q0 18 -12 29t-32 11h-72z" />
    <glyph glyph-name="uni044D" unicode="&#x44d;" horiz-adv-x="529" 
d="M8 385q33 60 94 94.5t136 34.5q58 0 107 -19.5t84 -54t55 -83.5t20 -107q0 -59 -20 -107.5t-55 -83t-84 -54t-107 -19.5q-75 0 -136 35t-94 95l136 78q9 -26 34 -42t64 -16q58 0 89 46h-135v136h135q-31 46 -89 46q-76 0 -98 -57z" />
    <glyph glyph-name="uni044E" unicode="&#x44e;" horiz-adv-x="807" 
d="M48 0v500h166v-172h53q12 42 36 76.5t56.5 59t72.5 37.5t84 13q55 0 104 -20.5t85 -56t57 -83.5t21 -104t-21 -104.5t-57 -84t-84.5 -55.5t-104.5 -20q-91 0 -158 51q-66 50 -91 135h-53v-172h-166zM415 250q0 -46 28 -75t73 -29q43 0 71.5 29t28.5 75t-28.5 75t-71.5 29
q-45 0 -73 -29t-28 -75z" />
    <glyph glyph-name="uni044F" unicode="&#x44f;" horiz-adv-x="532" 
d="M130 167q-43 24 -66.5 64t-23.5 88q0 42 14.5 76t40 57t60.5 35.5t76 12.5h253v-500h-164v142h-23l-95 -142h-189zM249 360q-21 0 -34 -11.5t-13 -32.5q0 -20 13 -31t34 -11h71v86h-71z" />
    <glyph glyph-name="uni0451" unicode="&#x451;" horiz-adv-x="571" 
d="M24 249q0 58 20 106.5t55.5 83.5t84.5 55t106 20t104.5 -20t81.5 -55.5t53 -83.5t19 -104q0 -35 -7 -62h-345q25 -61 112 -61q53 0 91 35l120 -84q-74 -93 -215 -93q-60 0 -111.5 18t-89 51.5t-58.5 82.5t-21 111zM193 542q-33 0 -56.5 23.5t-23.5 56.5t23.5 56.5
t56.5 23.5q32 0 55.5 -23.5t23.5 -56.5t-23.5 -56.5t-55.5 -23.5zM387 542q-32 0 -55.5 23.5t-23.5 56.5t23.5 56.5t55.5 23.5q33 0 56.5 -23.5t23.5 -56.5t-23.5 -56.5t-56.5 -23.5zM292 374q-77 0 -98 -70h192q-19 70 -94 70z" />
    <glyph glyph-name="uni0452" unicode="&#x452;" horiz-adv-x="589" 
d="M58 645v55h166v-55h135v-106h-135v-100q43 63 139 63q40 0 74 -14t58.5 -41.5t38 -67.5t13.5 -92v-287q0 -112 -51 -164t-160 -52h-13.5t-14.5 1v154q35 0 54 11t19 50v266q0 39 -21 59.5t-55 20.5q-38 0 -59.5 -23.5t-21.5 -68.5v-254h-166v539h-58v106h58z" />
    <glyph glyph-name="uni0453" unicode="&#x453;" horiz-adv-x="417" 
d="M382 700l-116 -145h-158l80 145h194zM407 500v-159h-193v-341h-166v500h359z" />
    <glyph glyph-name="uni0454" unicode="&#x454;" horiz-adv-x="529" 
d="M291 -14q-58 0 -107 19.5t-84 54t-55 83t-20 107.5q0 58 20 107t55 83.5t84 54t107 19.5q75 0 136 -34.5t94 -94.5l-136 -78q-23 57 -98 57q-58 0 -89 -46h135v-136h-135q31 -46 89 -46q39 0 64 16t34 42l136 -78q-33 -60 -94 -95t-136 -35z" />
    <glyph glyph-name="uni0455" unicode="&#x455;" horiz-adv-x="475" 
d="M160 178q19 -55 78 -55q45 0 45 27q0 14 -25 23t-61 18q-26 6 -54 16t-51.5 28t-38 45t-14.5 66q0 42 17 73.5t45 52.5t64 31.5t75 10.5q147 0 206 -116l-140 -63q-22 43 -62 43q-37 0 -37 -24q0 -14 25.5 -23t61.5 -17q27 -5 55.5 -15t52 -28.5t38.5 -46.5t15 -70
q0 -46 -18.5 -78t-49 -52t-69.5 -29t-79 -9q-168 0 -224 119z" />
    <glyph glyph-name="uni0456" unicode="&#x456;" horiz-adv-x="262" 
d="M48 500h166v-500h-166v500zM63 569q-14 15 -21 32.5t-7 35.5t7 35.5t21 31.5t31.5 21t35.5 7q40 0 68 -28q14 -14 21.5 -31.5t7.5 -35.5t-7 -35.5t-22 -32.5q-28 -28 -67 -28q-37 0 -68 28z" />
    <glyph glyph-name="uni0457" unicode="&#x457;" horiz-adv-x="262" 
d="M48 500h166v-500h-166v500zM148 615q0 33 23.5 56.5t55.5 23.5q33 0 56.5 -23.5t23.5 -56.5t-23.5 -56.5t-56.5 -23.5q-32 0 -55.5 23.5t-23.5 56.5zM33 535q-33 0 -56.5 23.5t-23.5 56.5t23.5 56.5t56.5 23.5q32 0 55.5 -23.5t23.5 -56.5t-23.5 -56.5t-55.5 -23.5z" />
    <glyph glyph-name="uni0458" unicode="&#x458;" horiz-adv-x="277" 
d="M-10 -61q35 0 54 11t19 50v500h166v-500q0 -112 -51 -164t-160 -52h-13.5t-14.5 1v154zM78 569q-14 15 -21 32.5t-7 35.5t7 35.5t21 31.5t31.5 21t35.5 7q40 0 68 -28q14 -14 21.5 -31.5t7.5 -35.5t-7 -35.5t-22 -32.5q-28 -28 -67 -28q-37 0 -68 28z" />
    <glyph glyph-name="uni0459" unicode="&#x459;" horiz-adv-x="777" 
d="M248 207q0 -111 -51.5 -163.5t-159.5 -52.5h-13.5t-13.5 1v154q5 -1 14 -1q58 0 58 86v269h425v-151h74q40 0 73.5 -12t57.5 -34.5t37 -55t13 -72.5q0 -41 -13 -73t-37 -55t-57.5 -35t-73.5 -12h-241v341h-92v-134zM507 139h64q14 0 24 9.5t10 26.5q0 16 -10 25.5
t-24 9.5h-64v-71z" />
    <glyph glyph-name="uni045A" unicode="&#x45a;" horiz-adv-x="783" 
d="M38 0v500h166v-151h137v151h166v-151h75q39 0 73 -12t59 -34.5t39.5 -54.5t14.5 -73t-14 -73.5t-39 -55t-59 -34.5t-74 -12h-241v197h-137v-197h-166zM507 210v-71h64q15 0 25 9.5t10 26.5q0 16 -10 25.5t-25 9.5h-64z" />
    <glyph glyph-name="uni045B" unicode="&#x45b;" horiz-adv-x="589" 
d="M0 642h58v58h166v-58h135v-105h-135v-98q43 63 139 63q40 0 74 -14t58.5 -41.5t38 -67.5t13.5 -92v-287h-166v266q0 39 -21 59.5t-55 20.5q-38 0 -59.5 -23.5t-21.5 -68.5v-254h-166v537h-58v105z" />
    <glyph glyph-name="uni045C" unicode="&#x45c;" horiz-adv-x="542" 
d="M48 500h166v-209l129 209h192l-168 -250l175 -250h-186l-142 213v-213h-166v500zM248 700h194l-116 -145h-158z" />
    <glyph glyph-name="uni045E" unicode="&#x45e;" horiz-adv-x="549" 
d="M183 500l103 -290l79 290h184l-169 -485q-75 -215 -284 -215h-20v156q52 0 79 11t43 41l-198 492h183zM116 554v140h323v-140h-323z" />
    <glyph glyph-name="uni045F" unicode="&#x45f;" horiz-adv-x="575" 
d="M214 500v-343h147v343h166v-500h-159v-134h-160v134h-160v500h166z" />
    <glyph glyph-name="uni0490" unicode="&#x490;" horiz-adv-x="475" 
d="M291 820h178v-293h-235v-527h-179v700h236v120z" />
    <glyph glyph-name="uni0491" unicode="&#x491;" horiz-adv-x="417" 
d="M248 602h159v-261h-193v-341h-166v500h200v102z" />
    <glyph glyph-name="Wgrave" unicode="&#x1e80;" horiz-adv-x="1004" 
d="M5 700h193l108 -441l125 441h141l125 -441l109 441h192l-195 -700h-189l-112 395l-112 -395h-189zM549 900l80 -145h-158l-116 145h194z" />
    <glyph glyph-name="wgrave" unicode="&#x1e81;" horiz-adv-x="798" 
d="M12 500h176l66 -272l75 272h140l75 -272l66 272h176l-153 -500h-162l-72 254l-72 -254h-162zM414 700l80 -145h-158l-116 145h194z" />
    <glyph glyph-name="Wacute" unicode="&#x1e82;" horiz-adv-x="1004" 
d="M5 700h193l108 -441l125 441h141l125 -441l109 441h192l-195 -700h-189l-112 395l-112 -395h-189zM709 900l-116 -145h-158l80 145h194z" />
    <glyph glyph-name="wacute" unicode="&#x1e83;" horiz-adv-x="798" 
d="M12 500h176l66 -272l75 272h140l75 -272l66 272h176l-153 -500h-162l-72 254l-72 -254h-162zM380 700h194l-116 -145h-158z" />
    <glyph glyph-name="Wdieresis" unicode="&#x1e84;" horiz-adv-x="1004" 
d="M5 700h193l108 -441l125 441h141l125 -441l109 441h192l-195 -700h-189l-112 395l-112 -395h-189zM552 815q0 33 23.5 56.5t55.5 23.5q33 0 56.5 -23.5t23.5 -56.5t-23.5 -56.5t-56.5 -23.5q-32 0 -55.5 23.5t-23.5 56.5zM357 815q0 33 23.5 56.5t56.5 23.5
q32 0 55.5 -23.5t23.5 -56.5t-23.5 -56.5t-55.5 -23.5q-33 0 -56.5 23.5t-23.5 56.5z" />
    <glyph glyph-name="wdieresis" unicode="&#x1e85;" horiz-adv-x="798" 
d="M188 500l66 -272l75 272h140l75 -272l66 272h176l-153 -500h-162l-72 254l-72 -254h-162l-153 500h176zM417 615q0 33 23.5 56.5t55.5 23.5q33 0 56.5 -23.5t23.5 -56.5t-23.5 -56.5t-56.5 -23.5q-32 0 -55.5 23.5t-23.5 56.5zM222 615q0 33 23.5 56.5t56.5 23.5
q32 0 55.5 -23.5t23.5 -56.5t-23.5 -56.5t-55.5 -23.5q-33 0 -56.5 23.5t-23.5 56.5z" />
    <glyph glyph-name="uni1EA0" unicode="&#x1ea0;" horiz-adv-x="671" 
d="M226 700h218l231 -700h-193l-30 101h-233l-30 -101h-194zM268 -209q-14 14 -20.5 30.5t-6.5 33.5t6.5 33.5t20.5 29.5t31.5 19t35.5 6t34.5 -6t30.5 -19t21 -29t7 -33t-7 -34t-21 -31q-13 -13 -30 -19.5t-34 -6.5q-18 0 -36 6.5t-32 19.5zM406 255l-71 238l-70 -238h141z
" />
    <glyph glyph-name="uni1EA1" unicode="&#x1ea1;" 
d="M259 -14q-56 0 -99.5 21.5t-73.5 58t-46 84.5t-16 100q0 114 67 188q67 76 168 76q91 0 142 -60v46h166v-500h-166v46q-51 -60 -142 -60zM191 250q0 -48 28 -78.5t77 -30.5t77 30.5t28 78.5t-28 78.5t-77 30.5t-77 -30.5t-28 -78.5zM221 -209q-14 14 -20.5 30.5
t-6.5 33.5t6.5 33.5t20.5 29.5t31.5 19t35.5 6t34.5 -6t30.5 -19t21 -29t7 -33t-7 -34t-21 -31q-13 -13 -30 -19.5t-34 -6.5q-18 0 -36 6.5t-32 19.5z" />
    <glyph glyph-name="uni1EA2" unicode="&#x1ea2;" horiz-adv-x="671" 
d="M-5 0l231 700h218l231 -700h-193l-30 101h-233l-30 -101h-194zM208 890q26 30 57 42.5t73 12.5q57 0 91.5 -21t34.5 -63q0 -26 -11 -42.5t-25 -29t-26 -22.5t-13 -22h-112q3 23 13 37t21 23.5t19.5 16.5t8.5 16q0 6 -4.5 11t-16.5 5t-23.5 -6t-19.5 -18zM265 255h141
l-71 238z" />
    <glyph glyph-name="uni1EA3" unicode="&#x1ea3;" 
d="M24 250q0 51 16 99t46.5 84.5t74 58.5t98.5 22q91 0 142 -60v46h166v-500h-166v46q-51 -60 -142 -60q-56 0 -99.5 21.5t-73.5 58t-46 84.5t-16 100zM296 359q-49 0 -77 -30.5t-28 -78.5t28 -78.5t77 -30.5t77 30.5t28 78.5t-28 78.5t-77 30.5zM181 700q26 30 57 42.5
t73 12.5q57 0 91.5 -21t34.5 -63q0 -26 -11 -42.5t-25 -29t-26 -22.5t-13 -22h-112q3 23 13 37t21 23.5t19.5 16.5t8.5 16q0 6 -4.5 11t-16.5 5t-23.5 -6t-19.5 -18z" />
    <glyph glyph-name="uni1EA4" unicode="&#x1ea4;" horiz-adv-x="671" 
d="M-5 0l231 700h218l231 -700h-193l-30 101h-233l-30 -101h-194zM253 889h155l99 -144h-140l-36 52l-37 -52h-140zM523 984h180l-107 -135h-147zM265 255h141l-71 238z" />
    <glyph glyph-name="uni1EA5" unicode="&#x1ea5;" 
d="M24 250q0 51 16 99t46.5 84.5t74 58.5t98.5 22q91 0 142 -60v46h166v-500h-166v46q-51 -60 -142 -60q-56 0 -99.5 21.5t-73.5 58t-46 84.5t-16 100zM191 250q0 -48 28 -78.5t77 -30.5t77 30.5t28 78.5t-28 78.5t-77 30.5t-77 -30.5t-28 -78.5zM128 545l99 144h155
l99 -144h-140l-36 52l-37 -52h-140zM423 649l74 135h180l-107 -135h-147z" />
    <glyph glyph-name="uni1EA6" unicode="&#x1ea6;" horiz-adv-x="671" 
d="M226 700h218l231 -700h-193l-30 101h-233l-30 -101h-194zM154 745l99 144h155l99 -144h-140l-36 52l-37 -52h-140zM355 984h181l74 -135h-147zM265 255h141l-71 238z" />
    <glyph glyph-name="uni1EA7" unicode="&#x1ea7;" 
d="M24 250q0 51 16 99t46.5 84.5t74 58.5t98.5 22q91 0 142 -60v46h166v-500h-166v46q-51 -60 -142 -60q-56 0 -99.5 21.5t-73.5 58t-46 84.5t-16 100zM191 250q0 -48 28 -78.5t77 -30.5t77 30.5t28 78.5t-28 78.5t-77 30.5t-77 -30.5t-28 -78.5zM128 545l99 144h155
l99 -144h-140l-36 52l-37 -52h-140zM329 784h181l74 -135h-147z" />
    <glyph glyph-name="uni1EA8" unicode="&#x1ea8;" horiz-adv-x="671" 
d="M226 700h218l231 -700h-193l-30 101h-233l-30 -101h-194zM154 745l99 144h155l99 -144h-140l-36 52l-37 -52h-140zM390 984q24 28 53.5 39.5t67.5 11.5q53 0 85 -19.5t32 -58.5q0 -24 -10.5 -39.5t-23 -27t-24 -21t-12.5 -20.5h-104q3 22 12 35t19.5 21.5t18.5 15t8 14.5
q0 6 -4.5 10.5t-15.5 4.5q-25 0 -40 -22zM265 255h141l-71 238z" />
    <glyph glyph-name="uni1EA9" unicode="&#x1ea9;" 
d="M24 250q0 51 16 99t46.5 84.5t74 58.5t98.5 22q91 0 142 -60v46h166v-500h-166v46q-51 -60 -142 -60q-56 0 -99.5 21.5t-73.5 58t-46 84.5t-16 100zM191 250q0 -48 28 -78.5t77 -30.5t77 30.5t28 78.5t-28 78.5t-77 30.5t-77 -30.5t-28 -78.5zM227 689h155l99 -144h-140
l-36 52l-37 -52h-140zM365 784q24 28 53.5 39.5t67.5 11.5q53 0 85 -19.5t32 -58.5q0 -24 -10.5 -39.5t-23 -27t-24 -21t-12.5 -20.5h-104q3 22 12 35t19.5 21.5t18.5 15t8 14.5q0 6 -4.5 10.5t-15.5 4.5q-25 0 -40 -22z" />
    <glyph glyph-name="uni1EAA" unicode="&#x1eaa;" horiz-adv-x="671" 
d="M-5 0l231 700h218l231 -700h-193l-30 101h-233l-30 -101h-194zM179 907q0 39 8 66t21.5 44.5t31 25t37.5 7.5q33 0 68 -19q17 -11 27 -11q15 0 15 29h105q0 -39 -7.5 -66t-21 -44t-31 -24.5t-37.5 -7.5q-33 0 -71 19q-17 11 -26 11q-15 0 -15 -30h-104zM154 745l99 144
h155l99 -144h-140l-36 52l-37 -52h-140zM406 255l-71 238l-70 -238h141z" />
    <glyph glyph-name="uni1EAB" unicode="&#x1eab;" 
d="M24 250q0 51 16 99t46.5 84.5t74 58.5t98.5 22q91 0 142 -60v46h166v-500h-166v46q-51 -60 -142 -60q-56 0 -99.5 21.5t-73.5 58t-46 84.5t-16 100zM153 707q0 39 8 66t21.5 44.5t31 25t37.5 7.5q33 0 68 -19q17 -11 27 -11q15 0 15 29h105q0 -39 -7.5 -66t-21 -44
t-31 -24.5t-37.5 -7.5q-33 0 -71 19q-17 11 -26 11q-15 0 -15 -30h-104zM296 359q-49 0 -77 -30.5t-28 -78.5t28 -78.5t77 -30.5t77 30.5t28 78.5t-28 78.5t-77 30.5zM227 689h155l99 -144h-140l-36 52l-37 -52h-140z" />
    <glyph glyph-name="uni1EAC" unicode="&#x1eac;" horiz-adv-x="671" 
d="M-5 0l231 700h218l231 -700h-193l-30 101h-233l-30 -101h-194zM154 745l99 144h155l99 -144h-140l-36 52l-37 -52h-140zM268 -209q-14 14 -20.5 30.5t-6.5 33.5t6.5 33.5t20.5 29.5t31.5 19t35.5 6t34.5 -6t30.5 -19t21 -29t7 -33t-7 -34t-21 -31q-13 -13 -30 -19.5
t-34 -6.5q-18 0 -36 6.5t-32 19.5zM265 255h141l-71 238z" />
    <glyph glyph-name="uni1EAD" unicode="&#x1ead;" 
d="M24 250q0 51 16 99t46.5 84.5t74 58.5t98.5 22q91 0 142 -60v46h166v-500h-166v46q-51 -60 -142 -60q-56 0 -99.5 21.5t-73.5 58t-46 84.5t-16 100zM191 250q0 -48 28 -78.5t77 -30.5t77 30.5t28 78.5t-28 78.5t-77 30.5t-77 -30.5t-28 -78.5zM227 689h155l99 -144h-140
l-36 52l-37 -52h-140zM221 -209q-14 14 -20.5 30.5t-6.5 33.5t6.5 33.5t20.5 29.5t31.5 19t35.5 6t34.5 -6t30.5 -19t21 -29t7 -33t-7 -34t-21 -31q-13 -13 -30 -19.5t-34 -6.5q-18 0 -36 6.5t-32 19.5z" />
    <glyph glyph-name="uni1EAE" unicode="&#x1eae;" horiz-adv-x="671" 
d="M226 700h218l231 -700h-193l-30 101h-233l-30 -101h-194zM335 737q-81 0 -124 38t-43 111h130q0 -41 37 -41t37 41h130q0 -73 -43 -111t-124 -38zM321 1036h180l-107 -135h-147zM265 255h141l-71 238z" />
    <glyph glyph-name="uni1EAF" unicode="&#x1eaf;" 
d="M259 -14q-56 0 -99.5 21.5t-73.5 58t-46 84.5t-16 100q0 51 16 99t46.5 84.5t74 58.5t98.5 22q91 0 142 -60v46h166v-500h-166v46q-51 -60 -142 -60zM311 537q-81 0 -124 38t-43 111h130q0 -41 37 -41t37 41h130q0 -73 -43 -111t-124 -38zM296 359q-49 0 -77 -30.5
t-28 -78.5t28 -78.5t77 -30.5t77 30.5t28 78.5t-28 78.5t-77 30.5zM223 701l74 135h180l-107 -135h-147z" />
    <glyph glyph-name="uni1EB0" unicode="&#x1eb0;" horiz-adv-x="671" 
d="M226 700h218l231 -700h-193l-30 101h-233l-30 -101h-194zM335 737q-81 0 -124 38t-43 111h130q0 -41 37 -41t37 41h130q0 -73 -43 -111t-124 -38zM349 1036l74 -135h-147l-108 135h181zM406 255l-71 238l-70 -238h141z" />
    <glyph glyph-name="uni1EB1" unicode="&#x1eb1;" 
d="M259 -14q-56 0 -99.5 21.5t-73.5 58t-46 84.5t-16 100q0 51 16 99t46.5 84.5t74 58.5t98.5 22q91 0 142 -60v46h166v-500h-166v46q-51 -60 -142 -60zM311 537q-81 0 -124 38t-43 111h130q0 -41 37 -41t37 41h130q0 -73 -43 -111t-124 -38zM191 250q0 -48 28 -78.5
t77 -30.5t77 30.5t28 78.5t-28 78.5t-77 30.5t-77 -30.5t-28 -78.5zM325 836l74 -135h-147l-108 135h181z" />
    <glyph glyph-name="uni1EB2" unicode="&#x1eb2;" horiz-adv-x="671" 
d="M226 700h218l231 -700h-193l-30 101h-233l-30 -101h-194zM298 886q0 -41 37 -41t37 41h130q0 -73 -43 -111t-124 -38t-124 38t-43 111h130zM220 1036q24 28 53.5 39.5t67.5 11.5q53 0 85 -19.5t32 -58.5q0 -24 -10.5 -39.5t-23 -27t-24 -21t-12.5 -20.5h-104q3 22 12 35
t19.5 21.5t18.5 15t8 14.5q0 6 -4.5 10.5t-15.5 4.5q-25 0 -40 -22zM265 255h141l-71 238z" />
    <glyph glyph-name="uni1EB3" unicode="&#x1eb3;" 
d="M24 250q0 51 16 99t46.5 84.5t74 58.5t98.5 22q91 0 142 -60v46h166v-500h-166v46q-51 -60 -142 -60q-56 0 -99.5 21.5t-73.5 58t-46 84.5t-16 100zM311 537q-81 0 -124 38t-43 111h130q0 -41 37 -41t37 41h130q0 -73 -43 -111t-124 -38zM191 250q0 -48 28 -78.5
t77 -30.5t77 30.5t28 78.5t-28 78.5t-77 30.5t-77 -30.5t-28 -78.5zM196 836q24 28 53.5 39.5t67.5 11.5q53 0 85 -19.5t32 -58.5q0 -24 -10.5 -39.5t-23 -27t-24 -21t-12.5 -20.5h-104q3 22 12 35t19.5 21.5t18.5 15t8 14.5q0 6 -4.5 10.5t-15.5 4.5q-25 0 -40 -22z" />
    <glyph glyph-name="uni1EB4" unicode="&#x1eb4;" horiz-adv-x="671" 
d="M-5 0l231 700h218l231 -700h-193l-30 101h-233l-30 -101h-194zM177 904q0 39 8 66t22 44.5t32.5 25t39.5 7.5q35 0 71 -19q19 -11 28 -11q16 0 16 29h109q0 -39 -8 -66t-22 -44t-32 -24.5t-39 -7.5q-36 0 -74 19q-17 11 -28 11q-15 0 -15 -30h-108zM298 886q0 -41 37 -41
t37 41h130q0 -73 -43 -111t-124 -38t-124 38t-43 111h130zM265 255h141l-71 238z" />
    <glyph glyph-name="uni1EB5" unicode="&#x1eb5;" 
d="M24 250q0 51 16 99t46.5 84.5t74 58.5t98.5 22q91 0 142 -60v46h166v-500h-166v46q-51 -60 -142 -60q-56 0 -99.5 21.5t-73.5 58t-46 84.5t-16 100zM153 704q0 39 8 66t22 44.5t32.5 25t39.5 7.5q35 0 71 -19q19 -11 28 -11q16 0 16 29h109q0 -39 -8 -66t-22 -44
t-32 -24.5t-39 -7.5q-36 0 -74 19q-17 11 -28 11q-15 0 -15 -30h-108zM311 537q-81 0 -124 38t-43 111h130q0 -41 37 -41t37 41h130q0 -73 -43 -111t-124 -38zM296 359q-49 0 -77 -30.5t-28 -78.5t28 -78.5t77 -30.5t77 30.5t28 78.5t-28 78.5t-77 30.5z" />
    <glyph glyph-name="uni1EB6" unicode="&#x1eb6;" horiz-adv-x="671" 
d="M226 700h218l231 -700h-193l-30 101h-233l-30 -101h-194zM298 886q0 -41 37 -41t37 41h130q0 -73 -43 -111t-124 -38t-124 38t-43 111h130zM268 -209q-14 14 -20.5 30.5t-6.5 33.5t6.5 33.5t20.5 29.5t31.5 19t35.5 6t34.5 -6t30.5 -19t21 -29t7 -33t-7 -34t-21 -31
q-13 -13 -30 -19.5t-34 -6.5q-18 0 -36 6.5t-32 19.5zM406 255l-71 238l-70 -238h141z" />
    <glyph glyph-name="uni1EB7" unicode="&#x1eb7;" 
d="M259 -14q-56 0 -99.5 21.5t-73.5 58t-46 84.5t-16 100q0 51 16 99t46.5 84.5t74 58.5t98.5 22q91 0 142 -60v46h166v-500h-166v46q-51 -60 -142 -60zM311 537q-81 0 -124 38t-43 111h130q0 -41 37 -41t37 41h130q0 -73 -43 -111t-124 -38zM191 250q0 -48 28 -78.5
t77 -30.5t77 30.5t28 78.5t-28 78.5t-77 30.5t-77 -30.5t-28 -78.5zM221 -209q-14 14 -20.5 30.5t-6.5 33.5t6.5 33.5t20.5 29.5t31.5 19t35.5 6t34.5 -6t30.5 -19t21 -29t7 -33t-7 -34t-21 -31q-13 -13 -30 -19.5t-34 -6.5q-18 0 -36 6.5t-32 19.5z" />
    <glyph glyph-name="uni1EB8" unicode="&#x1eb8;" horiz-adv-x="535" 
d="M500 700v-167h-266v-97h241v-165h-241v-103h271v-168h-450v700h445zM201 -209q-14 14 -20.5 30.5t-6.5 33.5t6.5 33.5t20.5 29.5t31.5 19t35.5 6t34.5 -6t30.5 -19t21 -29t7 -33t-7 -34t-21 -31q-13 -13 -30 -19.5t-34 -6.5q-18 0 -36 6.5t-32 19.5z" />
    <glyph glyph-name="uni1EB9" unicode="&#x1eb9;" horiz-adv-x="571" 
d="M304 -14q-60 0 -111 18t-88.5 51.5t-59 82.5t-21.5 111q0 58 20 106.5t55.5 83.5t84.5 55t106 20t104.5 -20t81.5 -55.5t53 -83.5t19 -104q0 -35 -7 -62h-345q25 -61 112 -61q53 0 91 35l120 -84q-74 -93 -215 -93zM215 -209q-14 14 -20.5 30.5t-6.5 33.5t6.5 33.5
t20.5 29.5t31.5 19t35.5 6t34.5 -6t30.5 -19t21 -29t7 -33t-7 -34t-21 -31q-13 -13 -30 -19.5t-34 -6.5q-18 0 -36 6.5t-32 19.5zM292 374q-77 0 -98 -70h192q-19 70 -94 70z" />
    <glyph glyph-name="uni1EBA" unicode="&#x1eba;" horiz-adv-x="535" 
d="M55 700h445v-167h-266v-97h241v-165h-241v-103h271v-168h-450v700zM156 890q26 30 57 42.5t73 12.5q57 0 91.5 -21t34.5 -63q0 -26 -11 -42.5t-25 -29t-26 -22.5t-13 -22h-112q3 23 13 37t21 23.5t19.5 16.5t8.5 16q0 6 -4.5 11t-16.5 5t-23.5 -6t-19.5 -18z" />
    <glyph glyph-name="uni1EBB" unicode="&#x1ebb;" horiz-adv-x="571" 
d="M24 249q0 58 20 106.5t55.5 83.5t84.5 55t106 20t104.5 -20t81.5 -55.5t53 -83.5t19 -104q0 -35 -7 -62h-345q25 -61 112 -61q53 0 91 35l120 -84q-74 -93 -215 -93q-60 0 -111.5 18t-89 51.5t-58.5 82.5t-21 111zM168 700q26 30 57 42.5t73 12.5q57 0 91.5 -21t34.5 -63
q0 -26 -11 -42.5t-25 -29t-26 -22.5t-13 -22h-112q3 23 13 37t21 23.5t19.5 16.5t8.5 16q0 6 -4.5 11t-16.5 5t-23.5 -6t-19.5 -18zM292 374q-77 0 -98 -70h192q-19 70 -94 70z" />
    <glyph glyph-name="uni1EBC" unicode="&#x1ebc;" horiz-adv-x="535" 
d="M55 0v700h445v-167h-266v-97h241v-165h-241v-103h271v-168h-450zM99 748q0 45 9 76t24.5 50.5t36 28.5t43.5 9q19 0 38.5 -5.5t38.5 -15.5q22 -14 33 -14q8 0 12 7.5t4 25.5h120q0 -45 -9 -76t-24 -50.5t-35.5 -28t-42.5 -8.5q-20 0 -40 5.5t-40 15.5q-20 14 -32 14
q-16 0 -16 -34h-120z" />
    <glyph glyph-name="uni1EBD" unicode="&#x1ebd;" horiz-adv-x="571" 
d="M24 249q0 58 20 106.5t55.5 83.5t84.5 55t106 20t104.5 -20t81.5 -55.5t53 -83.5t19 -104q0 -35 -7 -62h-345q25 -61 112 -61q53 0 91 35l120 -84q-74 -93 -215 -93q-60 0 -111.5 18t-89 51.5t-58.5 82.5t-21 111zM111 555q0 45 9 76t24.5 50.5t36 28.5t43.5 9
q19 0 38.5 -5.5t38.5 -15.5q22 -14 33 -14q8 0 12 7.5t4 25.5h120q0 -45 -9 -76t-24 -50.5t-35.5 -28t-42.5 -8.5q-20 0 -40 5.5t-40 15.5q-20 14 -32 14q-16 0 -16 -34h-120zM386 304q-19 70 -94 70q-77 0 -98 -70h192z" />
    <glyph glyph-name="uni1EBE" unicode="&#x1ebe;" horiz-adv-x="535" 
d="M500 700v-167h-266v-97h241v-165h-241v-103h271v-168h-450v700h445zM196 889h155l99 -144h-140l-36 52l-37 -52h-140zM392 849l74 135h180l-107 -135h-147z" />
    <glyph glyph-name="uni1EBF" unicode="&#x1ebf;" horiz-adv-x="571" 
d="M304 -14q-60 0 -111 18t-88.5 51.5t-59 82.5t-21.5 111q0 58 20 106.5t55.5 83.5t84.5 55t106 20t104.5 -20t81.5 -55.5t53 -83.5t19 -104q0 -35 -7 -62h-345q25 -61 112 -61q53 0 91 35l120 -84q-74 -93 -215 -93zM215 696h155l99 -144h-140l-36 52l-37 -52h-140z
M411 656l74 135h180l-107 -135h-147zM292 374q-77 0 -98 -70h192q-19 70 -94 70z" />
    <glyph glyph-name="uni1EC0" unicode="&#x1ec0;" horiz-adv-x="535" 
d="M500 700v-167h-266v-97h241v-165h-241v-103h271v-168h-450v700h445zM196 889h155l99 -144h-140l-36 52l-37 -52h-140zM479 984l74 -135h-147l-108 135h181z" />
    <glyph glyph-name="uni1EC1" unicode="&#x1ec1;" horiz-adv-x="571" 
d="M304 -14q-60 0 -111 18t-88.5 51.5t-59 82.5t-21.5 111q0 58 20 106.5t55.5 83.5t84.5 55t106 20t104.5 -20t81.5 -55.5t53 -83.5t19 -104q0 -35 -7 -62h-345q25 -61 112 -61q53 0 91 35l120 -84q-74 -93 -215 -93zM215 696h155l99 -144h-140l-36 52l-37 -52h-140z
M314 801h194l80 -145h-158zM386 304q-19 70 -94 70q-77 0 -98 -70h192z" />
    <glyph glyph-name="uni1EC2" unicode="&#x1ec2;" horiz-adv-x="535" 
d="M55 700h445v-167h-266v-97h241v-165h-241v-103h271v-168h-450v700zM97 745l99 144h155l99 -144h-140l-36 52l-37 -52h-140zM333 984q24 28 53.5 39.5t67.5 11.5q53 0 85 -19.5t32 -58.5q0 -24 -10.5 -39.5t-23 -27t-24 -21t-12.5 -20.5h-104q3 22 12 35t19.5 21.5
t18.5 15t8 14.5q0 6 -4.5 10.5t-15.5 4.5q-25 0 -40 -22z" />
    <glyph glyph-name="uni1EC3" unicode="&#x1ec3;" horiz-adv-x="571" 
d="M304 -14q-60 0 -111 18t-88.5 51.5t-59 82.5t-21.5 111q0 58 20 106.5t55.5 83.5t84.5 55t106 20t104.5 -20t81.5 -55.5t53 -83.5t19 -104q0 -35 -7 -62h-345q25 -61 112 -61q53 0 91 35l120 -84q-74 -93 -215 -93zM116 552l99 144h155l99 -144h-140l-36 52l-37 -52h-140
zM352 791q24 28 53.5 39.5t67.5 11.5q53 0 85 -19.5t32 -58.5q0 -24 -10.5 -39.5t-23 -27t-24 -21t-12.5 -20.5h-104q3 22 12 35t19.5 21.5t18.5 15t8 14.5q0 6 -4.5 10.5t-15.5 4.5q-25 0 -40 -22zM386 304q-19 70 -94 70q-77 0 -98 -70h192z" />
    <glyph glyph-name="uni1EC4" unicode="&#x1ec4;" horiz-adv-x="535" 
d="M55 0v700h445v-167h-266v-97h241v-165h-241v-103h271v-168h-450zM122 907q0 39 8 66t21.5 44.5t31 25t37.5 7.5q33 0 68 -19q17 -11 27 -11q15 0 15 29h105q0 -39 -7.5 -66t-21 -44t-31 -24.5t-37.5 -7.5q-33 0 -71 19q-17 11 -26 11q-15 0 -15 -30h-104zM196 889h155
l99 -144h-140l-36 52l-37 -52h-140z" />
    <glyph glyph-name="uni1EC5" unicode="&#x1ec5;" horiz-adv-x="571" 
d="M304 -14q-60 0 -111 18t-88.5 51.5t-59 82.5t-21.5 111q0 58 20 106.5t55.5 83.5t84.5 55t106 20t104.5 -20t81.5 -55.5t53 -83.5t19 -104q0 -35 -7 -62h-345q25 -61 112 -61q53 0 91 35l120 -84q-74 -93 -215 -93zM141 714q0 39 8 66t21.5 44.5t31 25t37.5 7.5
q33 0 68 -19q17 -11 27 -11q15 0 15 29h105q0 -39 -7.5 -66t-21 -44t-31 -24.5t-37.5 -7.5q-33 0 -71 19q-17 11 -26 11q-15 0 -15 -30h-104zM215 696h155l99 -144h-140l-36 52l-37 -52h-140zM292 374q-77 0 -98 -70h192q-19 70 -94 70z" />
    <glyph glyph-name="uni1EC6" unicode="&#x1ec6;" horiz-adv-x="535" 
d="M55 700h445v-167h-266v-97h241v-165h-241v-103h271v-168h-450v700zM91 745l99 144h155l99 -144h-140l-36 52l-37 -52h-140zM201 -209q-14 14 -20.5 30.5t-6.5 33.5t6.5 33.5t20.5 29.5t31.5 19t35.5 6t34.5 -6t30.5 -19t21 -29t7 -33t-7 -34t-21 -31q-13 -13 -30 -19.5
t-34 -6.5q-18 0 -36 6.5t-32 19.5z" />
    <glyph glyph-name="uni1EC7" unicode="&#x1ec7;" horiz-adv-x="571" 
d="M304 -14q-60 0 -111 18t-88.5 51.5t-59 82.5t-21.5 111q0 58 20 106.5t55.5 83.5t84.5 55t106 20t104.5 -20t81.5 -55.5t53 -83.5t19 -104q0 -35 -7 -62h-345q25 -61 112 -61q53 0 91 35l120 -84q-74 -93 -215 -93zM109 545l99 144h155l99 -144h-140l-36 52l-37 -52h-140
zM215 -209q-14 14 -20.5 30.5t-6.5 33.5t6.5 33.5t20.5 29.5t31.5 19t35.5 6t34.5 -6t30.5 -19t21 -29t7 -33t-7 -34t-21 -31q-13 -13 -30 -19.5t-34 -6.5q-18 0 -36 6.5t-32 19.5zM292 374q-77 0 -98 -70h192q-19 70 -94 70z" />
    <glyph glyph-name="uni1EC8" unicode="&#x1ec8;" horiz-adv-x="289" 
d="M55 700h179v-700h-179v700zM20 890q26 30 57 42.5t73 12.5q57 0 91.5 -21t34.5 -63q0 -26 -11 -42.5t-25 -29t-26 -22.5t-13 -22h-112q3 23 13 37t21 23.5t19.5 16.5t8.5 16q0 6 -4.5 11t-16.5 5t-23.5 -6t-19.5 -18z" />
    <glyph glyph-name="uni1EC9" unicode="&#x1ec9;" horiz-adv-x="262" 
d="M214 500v-500h-166v500h166zM3 700q26 30 57 42.5t73 12.5q57 0 91.5 -21t34.5 -63q0 -26 -11 -42.5t-25 -29t-26 -22.5t-13 -22h-112q3 23 13 37t21 23.5t19.5 16.5t8.5 16q0 6 -4.5 11t-16.5 5t-23.5 -6t-19.5 -18z" />
    <glyph glyph-name="uni1ECA" unicode="&#x1eca;" horiz-adv-x="289" 
d="M234 700v-700h-179v700h179zM77 -209q-14 14 -20.5 30.5t-6.5 33.5t6.5 33.5t20.5 29.5t31.5 19t35.5 6t34.5 -6t30.5 -19t21 -29t7 -33t-7 -34t-21 -31q-13 -13 -30 -19.5t-34 -6.5q-18 0 -36 6.5t-32 19.5z" />
    <glyph glyph-name="uni1ECB" unicode="&#x1ecb;" horiz-adv-x="262" 
d="M214 500v-500h-166v500h166zM64 565q-14 14 -20.5 30.5t-6.5 33.5t6.5 33.5t20.5 29.5q29 26 67 26q37 0 65 -26q14 -13 21 -29t7 -33t-7 -34t-21 -31q-13 -13 -30 -19.5t-34 -6.5q-18 0 -36 6.5t-32 19.5zM64 -209q-14 14 -20.5 30.5t-6.5 33.5t6.5 33.5t20.5 29.5
t31.5 19t35.5 6t34.5 -6t30.5 -19t21 -29t7 -33t-7 -34t-21 -31q-13 -13 -30 -19.5t-34 -6.5q-18 0 -36 6.5t-32 19.5z" />
    <glyph glyph-name="uni1ECC" unicode="&#x1ecc;" horiz-adv-x="790" 
d="M28 350q0 78 28.5 144.5t78 115.5t116.5 77t144 28t144 -28t116.5 -77t78 -116t28.5 -144q0 -78 -28.5 -144.5t-78 -115.5t-116.5 -77t-144 -28q-78 0 -145 28t-116.5 76.5t-77.5 115.5t-28 145zM395 540q-41 0 -75.5 -14.5t-60 -40t-39.5 -60t-14 -75.5t14 -76t39 -60.5
t59.5 -39.5t76.5 -14t76.5 14t59.5 39.5t39 60.5t14 76t-14 75.5t-39.5 60t-60 40t-75.5 14.5zM327 -209q-14 14 -20.5 30.5t-6.5 33.5t6.5 33.5t20.5 29.5t31.5 19t35.5 6t34.5 -6t30.5 -19t21 -29t7 -33t-7 -34t-21 -31q-13 -13 -30 -19.5t-34 -6.5q-18 0 -36 6.5
t-32 19.5z" />
    <glyph glyph-name="uni1ECD" unicode="&#x1ecd;" horiz-adv-x="583" 
d="M24 250q0 56 21 104t57 83.5t84.5 56t104.5 20.5q55 0 104 -20.5t85 -56t57 -83.5t21 -104t-21 -104.5t-57 -84t-84.5 -55.5t-104.5 -20t-104.5 20t-84.5 55.5t-57 84t-21 104.5zM191 250q0 -46 28.5 -75t71.5 -29q45 0 73 29t28 75t-28 75t-73 29q-43 0 -71.5 -29
t-28.5 -75zM224 -209q-14 14 -20.5 30.5t-6.5 33.5t6.5 33.5t20.5 29.5t31.5 19t35.5 6t34.5 -6t30.5 -19t21 -29t7 -33t-7 -34t-21 -31q-13 -13 -30 -19.5t-34 -6.5q-18 0 -36 6.5t-32 19.5z" />
    <glyph glyph-name="uni1ECE" unicode="&#x1ece;" horiz-adv-x="790" 
d="M28 350q0 78 28.5 144.5t78 115.5t116.5 77t144 28t144 -28t116.5 -77t78 -116t28.5 -144q0 -78 -28.5 -144.5t-78 -115.5t-116.5 -77t-144 -28q-78 0 -145 28t-116.5 76.5t-77.5 115.5t-28 145zM206 350q0 -41 14 -76t39 -60.5t59.5 -39.5t76.5 -14t76.5 14t59.5 39.5
t39 60.5t14 76t-14 75.5t-39.5 60t-60 40t-75.5 14.5t-75.5 -14.5t-60 -40t-39.5 -60t-14 -75.5zM269 890q26 30 57 42.5t73 12.5q57 0 91.5 -21t34.5 -63q0 -26 -11 -42.5t-25 -29t-26 -22.5t-13 -22h-112q3 23 13 37t21 23.5t19.5 16.5t8.5 16q0 6 -4.5 11t-16.5 5
t-23.5 -6t-19.5 -18z" />
    <glyph glyph-name="uni1ECF" unicode="&#x1ecf;" horiz-adv-x="583" 
d="M24 250q0 56 21 104t57 83.5t84.5 56t104.5 20.5q55 0 104 -20.5t85 -56t57 -83.5t21 -104t-21 -104.5t-57 -84t-84.5 -55.5t-104.5 -20t-104.5 20t-84.5 55.5t-57 84t-21 104.5zM291 354q-43 0 -71.5 -29t-28.5 -75t28.5 -75t71.5 -29q45 0 73 29t28 75t-28 75t-73 29z
M167 700q26 30 57 42.5t73 12.5q57 0 91.5 -21t34.5 -63q0 -26 -11 -42.5t-25 -29t-26 -22.5t-13 -22h-112q3 23 13 37t21 23.5t19.5 16.5t8.5 16q0 6 -4.5 11t-16.5 5t-23.5 -6t-19.5 -18z" />
    <glyph glyph-name="uni1ED0" unicode="&#x1ed0;" horiz-adv-x="790" 
d="M28 350q0 78 28.5 144.5t78 115.5t116.5 77t144 28t144 -28t116.5 -77t78 -116t28.5 -144q0 -78 -28.5 -144.5t-78 -115.5t-116.5 -77t-144 -28q-78 0 -145 28t-116.5 76.5t-77.5 115.5t-28 145zM395 540q-41 0 -75.5 -14.5t-60 -40t-39.5 -60t-14 -75.5t14 -76t39 -60.5
t59.5 -39.5t76.5 -14t76.5 14t59.5 39.5t39 60.5t14 76t-14 75.5t-39.5 60t-60 40t-75.5 14.5zM313 899h155l99 -144h-140l-36 52l-37 -52h-140zM509 859l74 135h180l-107 -135h-147z" />
    <glyph glyph-name="uni1ED1" unicode="&#x1ed1;" horiz-adv-x="583" 
d="M291 -14q-56 0 -104.5 20t-84.5 55.5t-57 84t-21 104.5t21 104t57 83.5t84.5 56t104.5 20.5q55 0 104 -20.5t85 -56t57 -83.5t21 -104t-21 -104.5t-57 -84t-84.5 -55.5t-104.5 -20zM191 250q0 -46 28.5 -75t71.5 -29q45 0 73 29t28 75t-28 75t-73 29q-43 0 -71.5 -29
t-28.5 -75zM118 555l99 144h155l99 -144h-140l-36 52l-37 -52h-140zM413 659l74 135h180l-107 -135h-147z" />
    <glyph glyph-name="uni1ED2" unicode="&#x1ed2;" horiz-adv-x="790" 
d="M28 350q0 78 28.5 144.5t78 115.5t116.5 77t144 28t144 -28t116.5 -77t78 -116t28.5 -144q0 -78 -28.5 -144.5t-78 -115.5t-116.5 -77t-144 -28q-78 0 -145 28t-116.5 76.5t-77.5 115.5t-28 145zM206 350q0 -41 14 -76t39 -60.5t59.5 -39.5t76.5 -14t76.5 14t59.5 39.5
t39 60.5t14 76t-14 75.5t-39.5 60t-60 40t-75.5 14.5t-75.5 -14.5t-60 -40t-39.5 -60t-14 -75.5zM214 755l99 144h155l99 -144h-140l-36 52l-37 -52h-140zM596 994l74 -135h-147l-108 135h181z" />
    <glyph glyph-name="uni1ED3" unicode="&#x1ed3;" horiz-adv-x="583" 
d="M291 -14q-56 0 -104.5 20t-84.5 55.5t-57 84t-21 104.5t21 104t57 83.5t84.5 56t104.5 20.5q55 0 104 -20.5t85 -56t57 -83.5t21 -104t-21 -104.5t-57 -84t-84.5 -55.5t-104.5 -20zM191 250q0 -46 28.5 -75t71.5 -29q45 0 73 29t28 75t-28 75t-73 29q-43 0 -71.5 -29
t-28.5 -75zM118 555l99 144h155l99 -144h-140l-36 52l-37 -52h-140zM500 794l74 -135h-147l-108 135h181z" />
    <glyph glyph-name="uni1ED4" unicode="&#x1ed4;" horiz-adv-x="790" 
d="M28 350q0 78 28.5 144.5t78 115.5t116.5 77t144 28t144 -28t116.5 -77t78 -116t28.5 -144q0 -78 -28.5 -144.5t-78 -115.5t-116.5 -77t-144 -28q-78 0 -145 28t-116.5 76.5t-77.5 115.5t-28 145zM395 540q-41 0 -75.5 -14.5t-60 -40t-39.5 -60t-14 -75.5t14 -76t39 -60.5
t59.5 -39.5t76.5 -14t76.5 14t59.5 39.5t39 60.5t14 76t-14 75.5t-39.5 60t-60 40t-75.5 14.5zM214 755l99 144h155l99 -144h-140l-36 52l-37 -52h-140zM450 994q24 28 53.5 39.5t67.5 11.5q53 0 85 -19.5t32 -58.5q0 -24 -10.5 -39.5t-23 -27t-24 -21t-12.5 -20.5h-104
q3 22 12 35t19.5 21.5t18.5 15t8 14.5q0 6 -4.5 10.5t-15.5 4.5q-25 0 -40 -22z" />
    <glyph glyph-name="uni1ED5" unicode="&#x1ed5;" horiz-adv-x="583" 
d="M291 -14q-56 0 -104.5 20t-84.5 55.5t-57 84t-21 104.5t21 104t57 83.5t84.5 56t104.5 20.5q55 0 104 -20.5t85 -56t57 -83.5t21 -104t-21 -104.5t-57 -84t-84.5 -55.5t-104.5 -20zM191 250q0 -46 28.5 -75t71.5 -29q45 0 73 29t28 75t-28 75t-73 29q-43 0 -71.5 -29
t-28.5 -75zM217 699h155l99 -144h-140l-36 52l-37 -52h-140zM354 794q24 28 53.5 39.5t67.5 11.5q53 0 85 -19.5t32 -58.5q0 -24 -10.5 -39.5t-23 -27t-24 -21t-12.5 -20.5h-104q3 22 12 35t19.5 21.5t18.5 15t8 14.5q0 6 -4.5 10.5t-15.5 4.5q-25 0 -40 -22z" />
    <glyph glyph-name="uni1ED6" unicode="&#x1ed6;" horiz-adv-x="790" 
d="M28 350q0 78 28.5 144.5t78 115.5t116.5 77t144 28t144 -28t116.5 -77t78 -116t28.5 -144q0 -78 -28.5 -144.5t-78 -115.5t-116.5 -77t-144 -28q-78 0 -145 28t-116.5 76.5t-77.5 115.5t-28 145zM395 540q-41 0 -75.5 -14.5t-60 -40t-39.5 -60t-14 -75.5t14 -76t39 -60.5
t59.5 -39.5t76.5 -14t76.5 14t59.5 39.5t39 60.5t14 76t-14 75.5t-39.5 60t-60 40t-75.5 14.5zM239 917q0 39 8 66t21.5 44.5t31 25t37.5 7.5q33 0 68 -19q17 -11 27 -11q15 0 15 29h105q0 -39 -7.5 -66t-21 -44t-31 -24.5t-37.5 -7.5q-33 0 -71 19q-17 11 -26 11
q-15 0 -15 -30h-104zM214 755l99 144h155l99 -144h-140l-36 52l-37 -52h-140z" />
    <glyph glyph-name="uni1ED7" unicode="&#x1ed7;" horiz-adv-x="583" 
d="M291 -14q-56 0 -104.5 20t-84.5 55.5t-57 84t-21 104.5t21 104t57 83.5t84.5 56t104.5 20.5q55 0 104 -20.5t85 -56t57 -83.5t21 -104t-21 -104.5t-57 -84t-84.5 -55.5t-104.5 -20zM143 717q0 39 8 66t21.5 44.5t31 25t37.5 7.5q33 0 68 -19q17 -11 27 -11q15 0 15 29
h105q0 -39 -7.5 -66t-21 -44t-31 -24.5t-37.5 -7.5q-33 0 -71 19q-17 11 -26 11q-15 0 -15 -30h-104zM191 250q0 -46 28.5 -75t71.5 -29q45 0 73 29t28 75t-28 75t-73 29q-43 0 -71.5 -29t-28.5 -75zM118 555l99 144h155l99 -144h-140l-36 52l-37 -52h-140z" />
    <glyph glyph-name="uni1ED8" unicode="&#x1ed8;" horiz-adv-x="790" 
d="M395 -15q-78 0 -145 28t-116.5 76.5t-77.5 115.5t-28 145t28.5 144.5t78 115.5t116.5 77t144 28t144 -28t116.5 -77t78 -116t28.5 -144q0 -78 -28.5 -144.5t-78 -115.5t-116.5 -77t-144 -28zM206 350q0 -41 14 -76t39 -60.5t59.5 -39.5t76.5 -14t76.5 14t59.5 39.5
t39 60.5t14 76t-14 75.5t-39.5 60t-60 40t-75.5 14.5t-75.5 -14.5t-60 -40t-39.5 -60t-14 -75.5zM214 755l99 144h155l99 -144h-140l-36 52l-37 -52h-140zM327 -209q-14 14 -20.5 30.5t-6.5 33.5t6.5 33.5t20.5 29.5t31.5 19t35.5 6t34.5 -6t30.5 -19t21 -29t7 -33t-7 -34
t-21 -31q-13 -13 -30 -19.5t-34 -6.5q-18 0 -36 6.5t-32 19.5z" />
    <glyph glyph-name="uni1ED9" unicode="&#x1ed9;" horiz-adv-x="583" 
d="M102 62q-78 76 -78 188q0 110 78 187q79 77 189 77q55 0 104 -20.5t85 -56t57 -83.5t21 -104t-21 -104.5t-57 -84t-84.5 -55.5t-104.5 -20q-112 0 -189 76zM191 250q0 -46 28.5 -75t71.5 -29q45 0 73 29t28 75t-28 75t-73 29q-43 0 -71.5 -29t-28.5 -75zM115 545l99 144
h155l99 -144h-140l-36 52l-37 -52h-140zM224 -209q-14 14 -20.5 30.5t-6.5 33.5t6.5 33.5t20.5 29.5t31.5 19t35.5 6t34.5 -6t30.5 -19t21 -29t7 -33t-7 -34t-21 -31q-13 -13 -30 -19.5t-34 -6.5q-18 0 -36 6.5t-32 19.5z" />
    <glyph glyph-name="uni1EDA" unicode="&#x1eda;" horiz-adv-x="790" 
d="M28 350q0 78 28.5 144.5t78 115.5t116.5 77t144 28q58 0 109 -15q35 0 52.5 20.5t17.5 54.5h148q0 -51 -23.5 -90.5t-61.5 -58.5q5 -5 9 -8.5t9 -8.5q107 -107 107 -259q0 -78 -28.5 -144.5t-78 -115.5t-116.5 -77t-144 -28q-78 0 -145 28t-116.5 76.5t-77.5 115.5
t-28 145zM206 350q0 -41 14 -76t39 -60.5t59.5 -39.5t76.5 -14t76.5 14t59.5 39.5t39 60.5t14 76t-14 75.5t-39.5 60t-60 40t-75.5 14.5t-75.5 -14.5t-60 -40t-39.5 -60t-14 -75.5zM384 910h194l-116 -145h-158z" />
    <glyph glyph-name="uni1EDB" unicode="&#x1edb;" horiz-adv-x="583" 
d="M24 250q0 56 21 104t57 83.5t84.5 56t104.5 20.5q24 0 46 -3.5t43 -10.5h2q12 0 23.5 4t21.5 12.5t16 23t6 35.5h148q0 -56 -28 -98.5t-73 -57.5q62 -71 62 -169q0 -56 -21 -104.5t-57 -84t-84.5 -55.5t-104.5 -20t-104.5 20t-84.5 55.5t-57 84t-21 104.5zM191 250
q0 -46 28.5 -75t71.5 -29q45 0 73 29t28 75t-28 75t-73 29q-43 0 -71.5 -29t-28.5 -75zM282 710h194l-116 -145h-158z" />
    <glyph glyph-name="uni1EDC" unicode="&#x1edc;" horiz-adv-x="790" 
d="M28 350q0 78 28.5 144.5t78 115.5t116.5 77t144 28q58 0 109 -15q35 0 52.5 20.5t17.5 54.5h148q0 -51 -23.5 -90.5t-61.5 -58.5q5 -5 9 -8.5t9 -8.5q107 -107 107 -259q0 -78 -28.5 -144.5t-78 -115.5t-116.5 -77t-144 -28q-78 0 -145 28t-116.5 76.5t-77.5 115.5
t-28 145zM206 350q0 -41 14 -76t39 -60.5t59.5 -39.5t76.5 -14t76.5 14t59.5 39.5t39 60.5t14 76t-14 75.5t-39.5 60t-60 40t-75.5 14.5t-75.5 -14.5t-60 -40t-39.5 -60t-14 -75.5zM403 910l80 -145h-158l-116 145h194z" />
    <glyph glyph-name="uni1EDD" unicode="&#x1edd;" horiz-adv-x="583" 
d="M291 -14q-56 0 -104.5 20t-84.5 55.5t-57 84t-21 104.5t21 104t57 83.5t84.5 56t104.5 20.5q24 0 46 -3.5t43 -10.5h2q12 0 23.5 4t21.5 12.5t16 23t6 35.5h148q0 -56 -28 -98.5t-73 -57.5q62 -71 62 -169q0 -56 -21 -104.5t-57 -84t-84.5 -55.5t-104.5 -20zM191 250
q0 -46 28.5 -75t71.5 -29q45 0 73 29t28 75t-28 75t-73 29q-43 0 -71.5 -29t-28.5 -75zM106 710h194l80 -145h-158z" />
    <glyph glyph-name="uni1EDE" unicode="&#x1ede;" horiz-adv-x="790" 
d="M395 -15q-78 0 -145 28t-116.5 76.5t-77.5 115.5t-28 145t28.5 144.5t78 115.5t116.5 77t144 28q58 0 109 -15q35 0 52.5 20.5t17.5 54.5h148q0 -51 -23.5 -90.5t-61.5 -58.5q5 -5 9 -8.5t9 -8.5q107 -107 107 -259q0 -78 -28.5 -144.5t-78 -115.5t-116.5 -77t-144 -28z
M206 350q0 -41 14 -76t39 -60.5t59.5 -39.5t76.5 -14t76.5 14t59.5 39.5t39 60.5t14 76t-14 75.5t-39.5 60t-60 40t-75.5 14.5t-75.5 -14.5t-60 -40t-39.5 -60t-14 -75.5zM269 890q26 30 57 42.5t73 12.5q57 0 91.5 -21t34.5 -63q0 -26 -11 -42.5t-25 -29t-26 -22.5t-13 -22
h-112q3 23 13 37t21 23.5t19.5 16.5t8.5 16q0 6 -4.5 11t-16.5 5t-23.5 -6t-19.5 -18z" />
    <glyph glyph-name="uni1EDF" unicode="&#x1edf;" horiz-adv-x="583" 
d="M24 250q0 56 21 104t57 83.5t84.5 56t104.5 20.5q24 0 46 -3.5t43 -10.5h2q12 0 23.5 4t21.5 12.5t16 23t6 35.5h148q0 -56 -28 -98.5t-73 -57.5q62 -71 62 -169q0 -56 -21 -104.5t-57 -84t-84.5 -55.5t-104.5 -20t-104.5 20t-84.5 55.5t-57 84t-21 104.5zM291 354
q-43 0 -71.5 -29t-28.5 -75t28.5 -75t71.5 -29q45 0 73 29t28 75t-28 75t-73 29zM167 700q26 30 57 42.5t73 12.5q57 0 91.5 -21t34.5 -63q0 -26 -11 -42.5t-25 -29t-26 -22.5t-13 -22h-112q3 23 13 37t21 23.5t19.5 16.5t8.5 16q0 6 -4.5 11t-16.5 5t-23.5 -6t-19.5 -18z
" />
    <glyph glyph-name="uni1EE0" unicode="&#x1ee0;" horiz-adv-x="790" 
d="M395 -15q-78 0 -145 28t-116.5 76.5t-77.5 115.5t-28 145t28.5 144.5t78 115.5t116.5 77t144 28q58 0 109 -15q35 0 52.5 20.5t17.5 54.5h148q0 -51 -23.5 -90.5t-61.5 -58.5q5 -5 9 -8.5t9 -8.5q107 -107 107 -259q0 -78 -28.5 -144.5t-78 -115.5t-116.5 -77t-144 -28z
M206 350q0 -41 14 -76t39 -60.5t59.5 -39.5t76.5 -14t76.5 14t59.5 39.5t39 60.5t14 76t-14 75.5t-39.5 60t-60 40t-75.5 14.5t-75.5 -14.5t-60 -40t-39.5 -60t-14 -75.5zM216 758q0 45 9 76t24.5 50.5t36 28.5t43.5 9q19 0 38.5 -5.5t38.5 -15.5q22 -14 33 -14q8 0 12 7.5
t4 25.5h120q0 -45 -9 -76t-24 -50.5t-35.5 -28t-42.5 -8.5q-20 0 -40 5.5t-40 15.5q-20 14 -32 14q-16 0 -16 -34h-120z" />
    <glyph glyph-name="uni1EE1" unicode="&#x1ee1;" horiz-adv-x="583" 
d="M291 -14q-56 0 -104.5 20t-84.5 55.5t-57 84t-21 104.5t21 104t57 83.5t84.5 56t104.5 20.5q24 0 46 -3.5t43 -10.5h2q12 0 23.5 4t21.5 12.5t16 23t6 35.5h148q0 -56 -28 -98.5t-73 -57.5q62 -71 62 -169q0 -56 -21 -104.5t-57 -84t-84.5 -55.5t-104.5 -20zM106 558
q0 45 9 76t24.5 50.5t36 28.5t43.5 9q19 0 38.5 -5.5t38.5 -15.5q22 -14 33 -14q8 0 12 7.5t4 25.5h120q0 -45 -9 -76t-24 -50.5t-35.5 -28t-42.5 -8.5q-20 0 -40 5.5t-40 15.5q-20 14 -32 14q-16 0 -16 -34h-120zM191 250q0 -46 28.5 -75t71.5 -29q45 0 73 29t28 75t-28 75
t-73 29q-43 0 -71.5 -29t-28.5 -75z" />
    <glyph glyph-name="uni1EE2" unicode="&#x1ee2;" horiz-adv-x="790" 
d="M28 350q0 78 28.5 144.5t78 115.5t116.5 77t144 28q58 0 109 -15q35 0 52.5 20.5t17.5 54.5h148q0 -51 -23.5 -90.5t-61.5 -58.5q5 -5 9 -8.5t9 -8.5q107 -107 107 -259q0 -78 -28.5 -144.5t-78 -115.5t-116.5 -77t-144 -28q-78 0 -145 28t-116.5 76.5t-77.5 115.5
t-28 145zM206 350q0 -41 14 -76t39 -60.5t59.5 -39.5t76.5 -14t76.5 14t59.5 39.5t39 60.5t14 76t-14 75.5t-39.5 60t-60 40t-75.5 14.5t-75.5 -14.5t-60 -40t-39.5 -60t-14 -75.5zM327 -209q-14 14 -20.5 30.5t-6.5 33.5t6.5 33.5t20.5 29.5t31.5 19t35.5 6t34.5 -6
t30.5 -19t21 -29t7 -33t-7 -34t-21 -31q-13 -13 -30 -19.5t-34 -6.5q-18 0 -36 6.5t-32 19.5z" />
    <glyph glyph-name="uni1EE3" unicode="&#x1ee3;" horiz-adv-x="583" 
d="M291 -14q-56 0 -104.5 20t-84.5 55.5t-57 84t-21 104.5t21 104t57 83.5t84.5 56t104.5 20.5q24 0 46 -3.5t43 -10.5h2q12 0 23.5 4t21.5 12.5t16 23t6 35.5h148q0 -56 -28 -98.5t-73 -57.5q62 -71 62 -169q0 -56 -21 -104.5t-57 -84t-84.5 -55.5t-104.5 -20zM191 250
q0 -46 28.5 -75t71.5 -29q45 0 73 29t28 75t-28 75t-73 29q-43 0 -71.5 -29t-28.5 -75zM224 -209q-14 14 -20.5 30.5t-6.5 33.5t6.5 33.5t20.5 29.5t31.5 19t35.5 6t34.5 -6t30.5 -19t21 -29t7 -33t-7 -34t-21 -31q-13 -13 -30 -19.5t-34 -6.5q-18 0 -36 6.5t-32 19.5z" />
    <glyph glyph-name="uni1EE4" unicode="&#x1ee4;" horiz-adv-x="650" 
d="M227 700v-453q0 -88 98 -88t98 88v453h179v-470q0 -60 -22.5 -105.5t-60.5 -76.5t-88 -47t-106 -16t-106.5 15.5t-88.5 46.5t-60 77t-22 106v470h179zM256 -209q-14 14 -20.5 30.5t-6.5 33.5t6.5 33.5t20.5 29.5t31.5 19t35.5 6t34.5 -6t30.5 -19t21 -29t7 -33t-7 -34
t-21 -31q-13 -13 -30 -19.5t-34 -6.5q-18 0 -36 6.5t-32 19.5z" />
    <glyph glyph-name="uni1EE5" unicode="&#x1ee5;" horiz-adv-x="579" 
d="M42 500h166v-278q0 -39 20.5 -59t54.5 -20q39 0 60.5 23t21.5 68v266h166v-500h-166v50q-45 -64 -139 -64q-41 0 -74.5 14t-58 41.5t-38 67.5t-13.5 92v299zM207 -209q-14 14 -20.5 30.5t-6.5 33.5t6.5 33.5t20.5 29.5t31.5 19t35.5 6t34.5 -6t30.5 -19t21 -29t7 -33
t-7 -34t-21 -31q-13 -13 -30 -19.5t-34 -6.5q-18 0 -36 6.5t-32 19.5z" />
    <glyph glyph-name="uni1EE6" unicode="&#x1ee6;" horiz-adv-x="650" 
d="M227 700v-453q0 -88 98 -88t98 88v453h179v-470q0 -60 -22.5 -105.5t-60.5 -76.5t-88 -47t-106 -16t-106.5 15.5t-88.5 46.5t-60 77t-22 106v470h179zM197 890q26 30 57 42.5t73 12.5q57 0 91.5 -21t34.5 -63q0 -26 -11 -42.5t-25 -29t-26 -22.5t-13 -22h-112q3 23 13 37
t21 23.5t19.5 16.5t8.5 16q0 6 -4.5 11t-16.5 5t-23.5 -6t-19.5 -18z" />
    <glyph glyph-name="uni1EE7" unicode="&#x1ee7;" horiz-adv-x="579" 
d="M42 500h166v-278q0 -39 20.5 -59t54.5 -20q39 0 60.5 23t21.5 68v266h166v-500h-166v50q-45 -64 -139 -64q-41 0 -74.5 14t-58 41.5t-38 67.5t-13.5 92v299zM162 700q26 30 57 42.5t73 12.5q57 0 91.5 -21t34.5 -63q0 -26 -11 -42.5t-25 -29t-26 -22.5t-13 -22h-112
q3 23 13 37t21 23.5t19.5 16.5t8.5 16q0 6 -4.5 11t-16.5 5t-23.5 -6t-19.5 -18z" />
    <glyph glyph-name="uni1EE8" unicode="&#x1ee8;" horiz-adv-x="650" 
d="M48 700h179v-453q0 -88 98 -88t98 88v453h68q22 2 41 18.5t19 56.5h148q0 -55 -26.5 -96.5t-70.5 -57.5v-391q0 -60 -22.5 -105.5t-60.5 -76.5t-88 -47t-106 -16t-106.5 15.5t-88.5 46.5t-60 77t-22 106v470zM239 755l80 145h194l-116 -145h-158z" />
    <glyph glyph-name="uni1EE9" unicode="&#x1ee9;" horiz-adv-x="579" 
d="M42 500h166v-278q0 -39 20.5 -59t54.5 -20q39 0 60.5 23t21.5 68v266h56q22 2 41 18.5t19 56.5h148q0 -55 -27 -97t-71 -58v-420h-166v50q-45 -64 -139 -64q-41 0 -74.5 14t-58 41.5t-38 67.5t-13.5 92v299zM202 555l80 145h194l-116 -145h-158z" />
    <glyph glyph-name="uni1EEA" unicode="&#x1eea;" horiz-adv-x="650" 
d="M325 -15q-56 0 -106.5 15.5t-88.5 46.5t-60 77t-22 106v470h179v-453q0 -88 98 -88t98 88v453h68q22 2 41 18.5t19 56.5h148q0 -55 -26.5 -96.5t-70.5 -57.5v-391q0 -60 -22.5 -105.5t-60.5 -76.5t-88 -47t-106 -16zM136 900h194l80 -145h-158z" />
    <glyph glyph-name="uni1EEB" unicode="&#x1eeb;" horiz-adv-x="579" 
d="M42 500h166v-278q0 -39 20.5 -59t54.5 -20q39 0 60.5 23t21.5 68v266h56q22 2 41 18.5t19 56.5h148q0 -55 -27 -97t-71 -58v-420h-166v50q-45 -64 -139 -64q-41 0 -74.5 14t-58 41.5t-38 67.5t-13.5 92v299zM98 700h194l80 -145h-158z" />
    <glyph glyph-name="uni1EEC" unicode="&#x1eec;" horiz-adv-x="650" 
d="M227 700v-453q0 -88 98 -88t98 88v453h68q22 2 41 18.5t19 56.5h148q0 -55 -26.5 -96.5t-70.5 -57.5v-391q0 -60 -22.5 -105.5t-60.5 -76.5t-88 -47t-106 -16t-106.5 15.5t-88.5 46.5t-60 77t-22 106v470h179zM197 890q26 30 57 42.5t73 12.5q57 0 91.5 -21t34.5 -63
q0 -26 -11 -42.5t-25 -29t-26 -22.5t-13 -22h-112q3 23 13 37t21 23.5t19.5 16.5t8.5 16q0 6 -4.5 11t-16.5 5t-23.5 -6t-19.5 -18z" />
    <glyph glyph-name="uni1EED" unicode="&#x1eed;" horiz-adv-x="579" 
d="M208 500v-278q0 -39 20.5 -59t54.5 -20q39 0 60.5 23t21.5 68v266h56q22 2 41 18.5t19 56.5h148q0 -55 -27 -97t-71 -58v-420h-166v50q-45 -64 -139 -64q-41 0 -74.5 14t-58 41.5t-38 67.5t-13.5 92v299h166zM162 700q26 30 57 42.5t73 12.5q57 0 91.5 -21t34.5 -63
q0 -26 -11 -42.5t-25 -29t-26 -22.5t-13 -22h-112q3 23 13 37t21 23.5t19.5 16.5t8.5 16q0 6 -4.5 11t-16.5 5t-23.5 -6t-19.5 -18z" />
    <glyph glyph-name="uni1EEE" unicode="&#x1eee;" horiz-adv-x="650" 
d="M325 -15q-56 0 -106.5 15.5t-88.5 46.5t-60 77t-22 106v470h179v-453q0 -88 98 -88t98 88v453h68q22 2 41 18.5t19 56.5h148q0 -55 -26.5 -96.5t-70.5 -57.5v-391q0 -60 -22.5 -105.5t-60.5 -76.5t-88 -47t-106 -16zM146 748q0 45 9 76t24.5 50.5t36 28.5t43.5 9
q19 0 38.5 -5.5t38.5 -15.5q22 -14 33 -14q8 0 12 7.5t4 25.5h120q0 -45 -9 -76t-24 -50.5t-35.5 -28t-42.5 -8.5q-20 0 -40 5.5t-40 15.5q-20 14 -32 14q-16 0 -16 -34h-120z" />
    <glyph glyph-name="uni1EEF" unicode="&#x1eef;" horiz-adv-x="579" 
d="M226 -14q-41 0 -74.5 14t-58 41.5t-38 67.5t-13.5 92v299h166v-278q0 -39 20.5 -59t54.5 -20q39 0 60.5 23t21.5 68v266h56q22 2 41 18.5t19 56.5h148q0 -55 -27 -97t-71 -58v-420h-166v50q-45 -64 -139 -64zM108 548q0 45 9 76t24.5 50.5t36 28.5t43.5 9q19 0 38.5 -5.5
t38.5 -15.5q22 -14 33 -14q8 0 12 7.5t4 25.5h120q0 -45 -9 -76t-24 -50.5t-35.5 -28t-42.5 -8.5q-20 0 -40 5.5t-40 15.5q-20 14 -32 14q-16 0 -16 -34h-120z" />
    <glyph glyph-name="uni1EF0" unicode="&#x1ef0;" horiz-adv-x="650" 
d="M325 -15q-56 0 -106.5 15.5t-88.5 46.5t-60 77t-22 106v470h179v-453q0 -88 98 -88t98 88v453h68q22 2 41 18.5t19 56.5h148q0 -55 -26.5 -96.5t-70.5 -57.5v-391q0 -60 -22.5 -105.5t-60.5 -76.5t-88 -47t-106 -16zM256 -209q-14 14 -20.5 30.5t-6.5 33.5t6.5 33.5
t20.5 29.5t31.5 19t35.5 6t34.5 -6t30.5 -19t21 -29t7 -33t-7 -34t-21 -31q-13 -13 -30 -19.5t-34 -6.5q-18 0 -36 6.5t-32 19.5z" />
    <glyph glyph-name="uni1EF1" unicode="&#x1ef1;" horiz-adv-x="579" 
d="M208 500v-278q0 -39 20.5 -59t54.5 -20q39 0 60.5 23t21.5 68v266h56q22 2 41 18.5t19 56.5h148q0 -55 -27 -97t-71 -58v-420h-166v50q-45 -64 -139 -64q-41 0 -74.5 14t-58 41.5t-38 67.5t-13.5 92v299h166zM207 -209q-14 14 -20.5 30.5t-6.5 33.5t6.5 33.5t20.5 29.5
t31.5 19t35.5 6t34.5 -6t30.5 -19t21 -29t7 -33t-7 -34t-21 -31q-13 -13 -30 -19.5t-34 -6.5q-18 0 -36 6.5t-32 19.5z" />
    <glyph glyph-name="Ygrave" unicode="&#x1ef2;" horiz-adv-x="651" 
d="M0 700h201l124 -259l125 259h201l-236 -431v-269h-179v267zM330 900l80 -145h-158l-116 145h194z" />
    <glyph glyph-name="ygrave" unicode="&#x1ef3;" horiz-adv-x="549" 
d="M186 500l101 -290l78 290h184l-171 -492q-38 -109 -105.5 -159t-174.5 -50q-5 0 -10.5 0.5t-11.5 0.5v156q53 0 80 13t44 47l-200 484h186zM283 700l80 -145h-158l-116 145h194z" />
    <glyph glyph-name="uni1EF4" unicode="&#x1ef4;" horiz-adv-x="651" 
d="M201 700l124 -259l125 259h201l-236 -431v-269h-179v267l-236 433h201zM260 -209q-14 14 -20.5 30.5t-6.5 33.5t6.5 33.5t20.5 29.5t31.5 19t35.5 6t34.5 -6t30.5 -19t21 -29t7 -33t-7 -34t-21 -31q-13 -13 -30 -19.5t-34 -6.5q-18 0 -36 6.5t-32 19.5z" />
    <glyph glyph-name="uni1EF5" unicode="&#x1ef5;" horiz-adv-x="549" 
d="M186 500l101 -290l78 290h184l-171 -492q-38 -109 -105.5 -159t-174.5 -50q-5 0 -10.5 0.5t-11.5 0.5v156q53 0 80 13t44 47l-200 484h186zM393 -209q-14 14 -20.5 30.5t-6.5 33.5t6.5 33.5t20.5 29.5t31.5 19t35.5 6t34.5 -6t30.5 -19t21 -29t7 -33t-7 -34t-21 -31
q-13 -13 -30 -19.5t-34 -6.5q-18 0 -36 6.5t-32 19.5z" />
    <glyph glyph-name="uni1EF6" unicode="&#x1ef6;" horiz-adv-x="651" 
d="M201 700l124 -259l125 259h201l-236 -431v-269h-179v267l-236 433h201zM200 890q26 30 57 42.5t73 12.5q57 0 91.5 -21t34.5 -63q0 -26 -11 -42.5t-25 -29t-26 -22.5t-13 -22h-112q3 23 13 37t21 23.5t19.5 16.5t8.5 16q0 6 -4.5 11t-16.5 5t-23.5 -6t-19.5 -18z" />
    <glyph glyph-name="uni1EF7" unicode="&#x1ef7;" horiz-adv-x="549" 
d="M186 500l101 -290l78 290h184l-171 -492q-38 -109 -105.5 -159t-174.5 -50q-5 0 -10.5 0.5t-11.5 0.5v156q53 0 80 13t44 47l-200 484h186zM152 700q26 30 57 42.5t73 12.5q57 0 91.5 -21t34.5 -63q0 -26 -11 -42.5t-25 -29t-26 -22.5t-13 -22h-112q3 23 13 37t21 23.5
t19.5 16.5t8.5 16q0 6 -4.5 11t-16.5 5t-23.5 -6t-19.5 -18z" />
    <glyph glyph-name="uni1EF8" unicode="&#x1ef8;" horiz-adv-x="651" 
d="M201 700l124 -259l125 259h201l-236 -431v-269h-179v267l-236 433h201zM146 748q0 45 9 76t24.5 50.5t36 28.5t43.5 9q19 0 38.5 -5.5t38.5 -15.5q22 -14 33 -14q8 0 12 7.5t4 25.5h120q0 -45 -9 -76t-24 -50.5t-35.5 -28t-42.5 -8.5q-20 0 -40 5.5t-40 15.5
q-20 14 -32 14q-16 0 -16 -34h-120z" />
    <glyph glyph-name="uni1EF9" unicode="&#x1ef9;" horiz-adv-x="549" 
d="M186 500l101 -290l78 290h184l-171 -492q-38 -109 -105.5 -159t-174.5 -50q-5 0 -10.5 0.5t-11.5 0.5v156q53 0 80 13t44 47l-200 484h186zM99 548q0 45 9 76t24.5 50.5t36 28.5t43.5 9q19 0 38.5 -5.5t38.5 -15.5q22 -14 33 -14q8 0 12 7.5t4 25.5h120q0 -45 -9 -76
t-24 -50.5t-35.5 -28t-42.5 -8.5q-20 0 -40 5.5t-40 15.5q-20 14 -32 14q-16 0 -16 -34h-120z" />
    <glyph glyph-name="endash" unicode="&#x2013;" horiz-adv-x="640" 
d="M55 222v158h530v-158h-530z" />
    <glyph glyph-name="emdash" unicode="&#x2014;" horiz-adv-x="740" 
d="M55 222v158h630v-158h-630z" />
    <glyph glyph-name="quoteleft" unicode="&#x2018;" horiz-adv-x="302" 
d="M41 386l84 314h134l-35 -314h-183z" />
    <glyph glyph-name="quoteright" unicode="&#x2019;" horiz-adv-x="302" 
d="M261 700l-84 -314h-134l35 314h183z" />
    <glyph glyph-name="quotesinglbase" unicode="&#x201a;" horiz-adv-x="302" 
d="M261 174l-84 -314h-134l35 314h183z" />
    <glyph glyph-name="quotedblleft" unicode="&#x201c;" horiz-adv-x="525" 
d="M348 700h134l-35 -314h-183zM41 386l84 314h134l-35 -314h-183z" />
    <glyph glyph-name="quotedblright" unicode="&#x201d;" horiz-adv-x="525" 
d="M301 700h183l-84 -314h-134zM78 700h183l-84 -314h-134z" />
    <glyph glyph-name="quotedblbase" unicode="&#x201e;" horiz-adv-x="525" 
d="M301 174h183l-84 -314h-134zM78 174h183l-84 -314h-134z" />
    <glyph glyph-name="dagger" unicode="&#x2020;" horiz-adv-x="471" 
d="M35 424v158h117v118h167v-118h116v-158h-116v-424h-167v424h-117z" />
    <glyph glyph-name="daggerdbl" unicode="&#x2021;" horiz-adv-x="471" 
d="M35 582h117v118h167v-118h116v-158h-116v-148h116v-158h-116v-118h-167v118h-117v158h117v148h-117v158z" />
    <glyph glyph-name="bullet" unicode="&#x2022;" horiz-adv-x="399" 
d="M201 186q-35 0 -65.5 12.5t-53 35t-35 53t-12.5 65.5q0 34 13 64t35.5 51.5t53 34t64.5 12.5q33 0 62.5 -13t51.5 -35t35 -51.5t13 -62.5q0 -34 -12.5 -64.5t-34 -53t-51.5 -35.5t-64 -13z" />
    <glyph glyph-name="ellipsis" unicode="&#x2026;" horiz-adv-x="788" 
d="M539 90q0 21 8.5 40t22.5 33.5t33.5 22.5t40.5 8t40 -8t33.5 -22.5t22.5 -33.5t8 -40t-8 -40t-22.5 -33.5t-33.5 -22.5t-40 -8q-22 0 -41 8t-33.5 22.5t-22.5 33.5t-8 40zM394 -14q-22 0 -41 8t-33.5 22.5t-22.5 33.5t-8 40t8.5 40t22.5 33.5t33.5 22.5t40.5 8t40 -8
t33.5 -22.5t22.5 -33.5t8 -40t-8 -40t-22.5 -33.5t-33.5 -22.5t-40 -8zM40 90q0 21 8.5 40t22.5 33.5t33.5 22.5t40.5 8t40 -8t33.5 -22.5t22.5 -33.5t8 -40t-8 -40t-22.5 -33.5t-33.5 -22.5t-40 -8q-22 0 -41 8t-33.5 22.5t-22.5 33.5t-8 40z" />
    <glyph glyph-name="perthousand" unicode="&#x2030;" horiz-adv-x="1220" 
d="M422 165q0 76 52 128t132 52q38 0 71.5 -14t58 -38t38.5 -57t14 -71t-14 -71t-39 -57t-58 -37.5t-71 -13.5q-39 0 -72.5 13t-58 37t-39 57t-14.5 72zM818 165q0 39 14 72t39 57t58.5 37.5t72.5 13.5q38 0 71.5 -14t58 -38t38.5 -57t14 -71t-14 -71t-39 -57t-58 -37.5
t-71 -13.5q-39 0 -72.5 13t-58 37t-39 57t-14.5 72zM219 356q-39 0 -72.5 13.5t-58 37.5t-39 57t-14.5 72t14.5 71.5t39.5 56.5t58.5 37.5t71.5 13.5t71.5 -13.5t58 -37.5t38.5 -56.5t14 -71.5q0 -38 -14 -71t-38.5 -57t-58 -38t-71.5 -14zM139 110l460 500l70 -40
l-461 -499zM167 536q0 -24 15 -38.5t39 -14.5t36 16.5t12 36t-11.5 36t-35.5 16.5q-23 0 -39 -14t-16 -38zM1001 218q-22 0 -36.5 -15t-14.5 -38q0 -22 14.5 -37t36.5 -15t37 15.5t15 36.5q0 23 -15 38t-37 15zM605 218q-22 0 -36.5 -15t-14.5 -38q0 -22 14.5 -37t36.5 -15
t36.5 15.5t14.5 36.5q0 23 -14.5 38t-36.5 15z" />
    <glyph glyph-name="guilsinglleft" unicode="&#x2039;" horiz-adv-x="364" 
d="M309 504l-112 -195l112 -195h-141l-113 195l113 195h141z" />
    <glyph glyph-name="guilsinglright" unicode="&#x203a;" horiz-adv-x="364" 
d="M196 504l113 -195l-113 -195h-141l112 195l-112 195h141z" />
    <glyph glyph-name="fraction" unicode="&#x2044;" horiz-adv-x="180" 
d="M-55 0h-114l404 700h114z" />
    <glyph glyph-name="Euro" unicode="&#x20ac;" horiz-adv-x="629" 
d="M13 250v84h60v35h-60v84h69q22 123 96 192.5t189 69.5q166 0 241 -153l-149 -86q-33 65 -92 65q-78 0 -103 -88h166v-84h-179v-35h179v-84h-167q25 -91 104 -91q60 0 96 73l150 -86q-77 -161 -246 -161q-115 0 -189.5 71t-96.5 194h-68z" />
    <glyph glyph-name="uni20BD" unicode="&#x20bd;" horiz-adv-x="610" 
d="M10 92v99h65v40h-65v159h65v310h272q52 0 97.5 -17t79.5 -47.5t53.5 -74t19.5 -96.5q0 -56 -19 -99.5t-52.5 -73.5t-79 -45.5t-99.5 -15.5h-93v-40h205v-99h-205v-92h-179v92h-65zM254 390h93q31 0 51 19t20 51t-20 51t-51 19h-93v-140z" />
    <glyph glyph-name="uni2116" unicode="&#x2116;" horiz-adv-x="1055" 
d="M55 0v700h139l247 -352v352h178v-700h-138l-247 352v-352h-179zM853 366q-37 0 -69.5 13t-56.5 36.5t-38 55t-14 69.5t13.5 70t37.5 55.5t56.5 36.5t70.5 13q37 0 69.5 -13.5t56.5 -36.5t37.5 -55.5t13.5 -69.5q0 -38 -13.5 -70t-37 -55t-56 -36t-70.5 -13zM1017 325
v-159h-327v159h327zM849 586q-20 0 -30 -14t-10 -31.5t9.5 -31.5t29.5 -14h5h5q19 0 28.5 14t9.5 31.5t-10 31.5t-29 14h-4h-4z" />
    <glyph glyph-name="trademark" unicode="&#x2122;" horiz-adv-x="481" 
d="M223 700h70l44 -67l44 67h70v-200h-70v95l-41 -62h-7l-40 61v-94h-70v200zM30 700h175v-69h-51v-131h-73v131h-51v69z" />
    <glyph glyph-name="estimated" unicode="&#x212e;" horiz-adv-x="780" 
d="M127 93q-107 104 -107 257q0 80 28.5 146t78 113.5t117 74t146.5 26.5q78 0 146 -26.5t117.5 -74t78 -114t28.5 -145.5q0 -15 -15 -15h-560q-15 0 -15 -15v-192q0 -12 7 -19q44 -44 101 -66.5t132 -22.5q73 0 131 23.5t100 73.5q7 9 18 9h37q10 0 13 -6t-4 -13
q-57 -57 -129 -87t-166 -30q-177 0 -283 103zM170 380q0 -15 15 -15h410q15 0 15 15v192q0 12 -7 19q-44 44 -96 66.5t-117 22.5t-117 -22.5t-96 -66.5q-7 -7 -7 -19v-192z" />
    <glyph glyph-name="oneeighth" unicode="&#x215b;" horiz-adv-x="805" 
d="M471 110q0 65 58 99q-44 33 -44 83q0 28 11 50.5t30.5 38.5t46 24.5t58.5 8.5q31 0 58 -8.5t46 -24.5t30 -38.5t11 -50.5q0 -52 -43 -83q57 -35 57 -99q0 -57 -42 -90.5t-117 -33.5t-117.5 33.5t-42.5 90.5zM511 700h114l-404 -700h-114zM0 654l127 46h113v-400h-131v266
l-79 -21zM636 160q-18 0 -30.5 -6t-12.5 -27q0 -34 38 -34h4q16 0 24.5 10.5t9 23t-8 23t-24.5 10.5zM631 308q-34 0 -34 -28q0 -27 34 -27q33 0 33 27q0 28 -33 28z" />
    <glyph glyph-name="threeeighths" unicode="&#x215c;" horiz-adv-x="864" 
d="M690 -14q-75 0 -117.5 33.5t-42.5 90.5q0 65 58 99q-44 33 -44 83q0 28 11 50.5t30.5 38.5t46 24.5t58.5 8.5q31 0 58 -8.5t46 -24.5t30 -38.5t11 -50.5q0 -52 -43 -83q57 -35 57 -99q0 -57 -42 -90.5t-117 -33.5zM165 286q-120 0 -162 94l108 62q15 -43 54 -43
q32 0 32 26q0 25 -32 25h-28l-46 68l56 66h-124v116h286v-87l-65 -76q82 -30 82 -112q0 -67 -43 -103t-118 -36zM570 700h114l-404 -700h-114zM695 160q-18 0 -30.5 -6t-12.5 -27q0 -34 38 -34h4q16 0 24.5 10.5t9 23t-8 23t-24.5 10.5zM656 280q0 -27 34 -27q33 0 33 27
q0 28 -33 28q-34 0 -34 -28z" />
    <glyph glyph-name="fiveeighths" unicode="&#x215d;" horiz-adv-x="860" 
d="M686 -14q-75 0 -117.5 33.5t-42.5 90.5q0 65 58 99q-44 33 -44 83q0 28 11 50.5t30.5 38.5t46 24.5t58.5 8.5q31 0 58 -8.5t46 -24.5t30 -38.5t11 -50.5q0 -52 -43 -83q57 -35 57 -99q0 -57 -42 -90.5t-117 -33.5zM112 436q15 -41 52 -41q35 0 35 27t-34 27h-133l17 251
h252v-116h-142l-3 -33h16q69 0 108 -32.5t39 -98.5q0 -67 -41.5 -100.5t-110.5 -33.5q-120 0 -162 94zM566 700h114l-404 -700h-114zM648 127q0 -34 38 -34h4q16 0 24.5 10.5t9 23t-8 23t-24.5 10.5q-18 0 -30.5 -6t-12.5 -27zM652 280q0 -27 34 -27q33 0 33 27q0 28 -33 28
q-34 0 -34 -28z" />
    <glyph glyph-name="seveneighths" unicode="&#x215e;" horiz-adv-x="831" 
d="M657 -14q-75 0 -117.5 33.5t-42.5 90.5q0 65 58 99q-44 33 -44 83q0 28 11 50.5t30.5 38.5t46 24.5t58.5 8.5q31 0 58 -8.5t46 -24.5t30 -38.5t11 -50.5q0 -52 -43 -83q57 -35 57 -99q0 -57 -42 -90.5t-117 -33.5zM537 700h114l-404 -700h-114zM289 700v-99l-113 -301
h-135l107 284h-148v116h289zM662 160q-18 0 -30.5 -6t-12.5 -27q0 -34 38 -34h4q16 0 24.5 10.5t9 23t-8 23t-24.5 10.5zM657 308q-34 0 -34 -28q0 -27 34 -27q33 0 33 27q0 28 -33 28z" />
    <glyph glyph-name="arrowleft" unicode="&#x2190;" horiz-adv-x="785" 
d="M750 429v-158h-419l221 -221h-217l-300 300l300 300h217l-221 -221h419z" />
    <glyph glyph-name="arrowup" unicode="&#x2191;" horiz-adv-x="671" 
d="M635 400v-217l-216 216v-399h-167v400l-217 -217v217l300 300z" />
    <glyph glyph-name="arrowright" unicode="&#x2192;" horiz-adv-x="785" 
d="M450 650l300 -300l-300 -300h-217l221 221h-419v158h419l-221 221h217z" />
    <glyph glyph-name="arrowdown" unicode="&#x2193;" horiz-adv-x="671" 
d="M419 301l216 216v-217l-300 -300l-300 300v217l217 -217v400h167v-399z" />
    <glyph glyph-name="arrowboth" unicode="&#x2194;" horiz-adv-x="1137" 
d="M35 350l285 285h215l-206 -206h479l-205 206h214l285 -285l-285 -285h-214l204 206h-478l206 -206h-215z" />
    <glyph glyph-name="arrowupdn" unicode="&#x2195;" horiz-adv-x="640" 
d="M237 119v462l-202 -202v215l285 285l285 -285v-215l-202 202v-462l202 202v-215l-285 -285l-285 285v215z" />
    <glyph glyph-name="uni2196" unicode="&#x2196;" horiz-adv-x="652" 
d="M617 160l-115 -115l-314 313v-308l-153 153v424h424l153 -153h-309z" />
    <glyph glyph-name="uni2197" unicode="&#x2197;" horiz-adv-x="652" 
d="M193 627h424v-424l-153 -153v308l-314 -313l-115 115l314 314h-309z" />
    <glyph glyph-name="uni2198" unicode="&#x2198;" horiz-adv-x="652" 
d="M464 642l153 -153v-424h-424l-153 153h308l-313 313l115 115l314 -313v309z" />
    <glyph glyph-name="uni2199" unicode="&#x2199;" horiz-adv-x="652" 
d="M617 531l-313 -313h308l-153 -153h-424v424l153 153v-309l314 313z" />
    <glyph glyph-name="partialdiff" unicode="&#x2202;" horiz-adv-x="584" 
d="M31 200q0 51 16 94.5t45.5 74.5t71.5 48.5t95 17.5q57 0 111 -26q-11 74 -49 112t-102 38q-32 0 -59.5 -8t-55.5 -23v151q55 36 136 36q125 0 214 -102q45 -51 67.5 -116.5t22.5 -146.5q0 -177 -81 -271t-209 -94q-49 0 -90 15t-70.5 43t-46 67.5t-16.5 89.5zM281 291
q-36 0 -60 -22.5t-24 -61.5q0 -31 19 -49.5t48 -18.5q85 0 106 128q-41 24 -89 24z" />
    <glyph glyph-name="emptyset" unicode="&#x2205;" horiz-adv-x="804" 
d="M144 96q-104 107 -104 254q0 75 28.5 141t77.5 115t115 77.5t141 28.5q95 0 177 -46l41 54h129l-89 -116q104 -107 104 -254q0 -75 -28.5 -141t-77.5 -115t-115 -77.5t-141 -28.5q-95 0 -177 46l-41 -54h-129zM402 600q-53 0 -98 -19.5t-78.5 -53.5t-52.5 -79.5
t-19 -97.5q0 -92 59 -163l297 389q-53 24 -108 24zM294 124q52 -24 108 -24q52 0 97.5 19.5t79 53.5t52.5 79.5t19 97.5q0 92 -59 163z" />
    <glyph glyph-name="product" unicode="&#x220f;" horiz-adv-x="631" 
d="M55 700h520v-900h-166v741h-187v-741h-167v900z" />
    <glyph glyph-name="summation" unicode="&#x2211;" horiz-adv-x="561" 
d="M25 -200v139l196 321l-181 300v140h470v-163h-266l166 -277l-180 -297h295v-163h-500z" />
    <glyph glyph-name="minus" unicode="&#x2212;" horiz-adv-x="560" 
d="M41 271v158h478v-158h-478z" />
    <glyph glyph-name="radical" unicode="&#x221a;" horiz-adv-x="693" 
d="M253 0l-113 179h-109v158h204l84 -146l204 609h170l-280 -800h-160z" />
    <glyph glyph-name="infinity" unicode="&#x221e;" horiz-adv-x="819" 
d="M236 158q-43 0 -78.5 14t-61.5 39t-40.5 60.5t-14.5 78.5q0 86 55 138q29 26 63 40t77 14q90 0 174 -86q84 86 174 86q42 0 77.5 -14t62 -39.5t41 -61t14.5 -77.5q0 -43 -14.5 -78t-40.5 -60.5t-62 -39.5t-78 -14q-90 0 -174 86q-84 -86 -174 -86zM209 350
q0 -18 12.5 -29t30.5 -11q35 0 69 40q-34 40 -69 40q-18 0 -30.5 -11t-12.5 -29zM499 350q34 -40 69 -40q18 0 30 11t12 29t-12 29t-30 11q-35 0 -69 -40z" />
    <glyph glyph-name="integral" unicode="&#x222b;" horiz-adv-x="461" 
d="M0 -40q15 -9 31 -9q27 0 45.5 17t23.5 44l89 521q20 113 93 152q49 26 107 26q34 0 72 -9v-164q-15 9 -31 9q-28 0 -46 -16.5t-23 -44.5l-89 -521q-14 -85 -64 -131.5t-136 -46.5q-35 0 -72 9v164v0z" />
    <glyph glyph-name="approxequal" unicode="&#x2248;" horiz-adv-x="568" 
d="M35 189q16 78 57.5 118.5t98.5 40.5q40 0 87 -21q26 -11 51.5 -18.5t53.5 -7.5q20 0 35.5 6.5t35.5 18.5l79 -39q-18 -80 -58.5 -119.5t-96.5 -39.5q-42 0 -88 21q-29 14 -49.5 21t-35.5 7q-32 0 -45 -46zM35 411q18 80 58.5 119.5t96.5 39.5q41 0 88 -21
q29 -14 49.5 -21t35.5 -7q32 0 45 46l125 -58q-16 -78 -57.5 -118.5t-99.5 -40.5q-41 0 -86 21q-25 11 -51 18.5t-53 7.5q-20 0 -35.5 -6t-35.5 -18z" />
    <glyph glyph-name="notequal" unicode="&#x2260;" horiz-adv-x="511" 
d="M35 161v159h164l27 60h-191v159h261l49 111h86l-49 -111h93v-159h-164l-26 -60h190v-159h-261l-49 -111h-85l49 111h-94z" />
    <glyph glyph-name="lessequal" unicode="&#x2264;" horiz-adv-x="521" 
d="M486 684v-173l-280 -69l280 -69v-173l-450 158v168zM486 180v-159h-450v159h450z" />
    <glyph glyph-name="greaterequal" unicode="&#x2265;" horiz-adv-x="521" 
d="M485 526v-168l-450 -158v173l280 69l-280 69v173zM35 180h450v-159h-450v159z" />
    <glyph glyph-name="lozenge" unicode="&#x25ca;" horiz-adv-x="588" 
d="M221 0l-186 350l186 350h146l186 -350l-186 -350h-146zM294 207l76 143l-76 143l-76 -143z" />
    <glyph glyph-name="NULL" horiz-adv-x="0" 
 />
    <glyph glyph-name="i.loclTRK" horiz-adv-x="262" 
d="M48 0v500h166v-500h-166zM40 632q0 37 26.5 63.5t63.5 26.5q18 0 34 -7t28.5 -19.5t19.5 -29t7 -34.5t-7 -34t-19.5 -28.5t-28.5 -19.5t-34 -7t-34.5 7t-29 19.5t-19.5 28.5t-7 34z" />
    <glyph glyph-name="f_f_j" horiz-adv-x="855" 
d="M15 500h63q0 103 57 159.5t170 56.5q6 0 12 -0.5t13 -0.5v-154q-17 0 -32.5 -1.5t-27.5 -8t-19 -18.5t-7 -33h116v10q0 215 252 215q65 0 130 -15v-145q-65 9 -123 9q-46 0 -69 -14t-23 -50v-10h280v-500q0 -112 -51.5 -164t-160.5 -52h-13.5t-14.5 1v154q35 0 54 11
t19 50v341h-113v-341h-167v341h-116v-341h-166v341h-63v159z" />
    <glyph glyph-name="f_j" horiz-adv-x="572" 
d="M15 341v159h63q0 215 252 215q65 0 130 -15v-145q-65 9 -123 9q-46 0 -69.5 -14t-23.5 -50h280v-500q0 -112 -51 -164t-160 -52h-13.5t-14.5 1v154q35 0 54 11t19 50v341h-114v-341h-166v341h-63z" />
    <glyph glyph-name="uni0414.loclBGR" horiz-adv-x="740" 
d="M92 173l171 527h214l171 -527h82v-307h-179v134h-362v-134h-179v307h82zM277 173h186l-93 327z" />
    <glyph glyph-name="uni041B.loclBGR" horiz-adv-x="665" 
d="M226 700h213l226 -700h-196l-137 482l-136 -482h-196z" />
    <glyph glyph-name="uni0424.loclBGR" horiz-adv-x="869" 
d="M350 -6q-72 11 -131.5 40t-101.5 74.5t-65.5 106t-23.5 135.5t23.5 135.5t65.5 106t101.5 74.5t131.5 40v94h169v-94q72 -11 131 -40t101.5 -75t66 -106.5t23.5 -134.5q0 -75 -23.5 -135.5t-65.5 -106t-101.5 -74.5t-131.5 -40v-94h-169v94zM350 539q-144 -33 -144 -189
t144 -189v378zM519 162q143 32 143 188t-143 188v-376z" />
    <glyph glyph-name="uni0414.ss01" horiz-adv-x="712" 
d="M10 173h74q48 76 48 222v305h487v-527h75v-173h-684v173zM441 173v361h-131v-141q0 -141 -40 -220h171z" />
    <glyph glyph-name="uni0426.ss01" horiz-adv-x="702" 
d="M55 0v700h184v-527h182v527h183v-527h80v-173h-629z" />
    <glyph glyph-name="uni0429.ss01" horiz-adv-x="992" 
d="M55 0v700h179v-527h151v527h179v-527h151v527h179v-527h80v-173h-919z" />
    <glyph glyph-name="uni0414.loclBGR.ss01" horiz-adv-x="740" 
d="M92 173l171 527h214l171 -527h82v-173h-720v173h82zM463 173l-93 327l-93 -327h186z" />
    <glyph glyph-name="uni0432.loclBGR" horiz-adv-x="562" 
d="M48 467q0 54 16 99.5t46 78t73.5 51t99.5 18.5q46 0 84 -12.5t64.5 -36t41 -57t14.5 -75.5q0 -66 -55 -124q105 -51 105 -191q0 -109 -65 -170.5t-182 -61.5q-55 0 -100 17t-76.5 48.5t-48.5 76.5t-17 100v239zM214 228q0 -38 21.5 -61t57.5 -23q37 0 57.5 19.5
t20.5 54.5q0 34 -21 51.5t-59 17.5q-10 0 -20.5 -1.5t-22.5 -3.5l-34 -7v-47zM234 423q16 3 27.5 4.5t19.5 2.5q44 38 44 78q0 52 -47 52q-29 0 -46.5 -23t-17.5 -63v-55z" />
    <glyph glyph-name="uni0433.loclBGR" horiz-adv-x="473" 
d="M237 -14q-41 0 -79 9t-67.5 29t-47.5 52t-18 78q0 48 18 77t45 47t58.5 27t58.5 15t45 13t18 21q0 24 -37 24q-41 0 -62 -43l-139 63q59 116 207 116q38 0 74 -10.5t63.5 -31.5t44.5 -52.5t17 -73.5q0 -51 -24.5 -84t-59.5 -47q-26 -10 -53 -17t-49.5 -14t-37 -14.5
t-14.5 -18.5q0 -28 44 -28q58 0 79 55l139 -73q-56 -119 -223 -119z" />
    <glyph glyph-name="uni0434.loclBGR" horiz-adv-x="618" 
d="M266 6q-54 0 -97.5 20.5t-75 55t-48.5 80.5t-17 98t17 98t48.5 80.5t75 55t97.5 20.5q89 0 140 -62v48h164v-480q0 -62 -22.5 -106.5t-59.5 -73t-84.5 -42t-96.5 -13.5q-84 0 -148.5 31t-97.5 91l138 80q36 -57 106 -57q45 0 73 22.5t28 67.5v48q-51 -62 -140 -62z
M223 334q-29 -29 -29 -74q0 -48 29.5 -76t76.5 -28q46 0 76 28.5t30 75.5q0 46 -30.5 75t-75.5 29q-47 0 -77 -30z" />
    <glyph glyph-name="uni0436.loclBGR" horiz-adv-x="779" 
d="M161 250l-146 250h183l109 -201v401h165v-401l109 201h183l-146 -250l156 -250h-183l-119 205v-205h-165v205l-119 -205h-183z" />
    <glyph glyph-name="uni0438.loclBGR" horiz-adv-x="579" 
d="M226 -14q-41 0 -74.5 14t-58 41.5t-38 67.5t-13.5 92v299h166v-278q0 -39 20.5 -59t54.5 -20q39 0 60.5 23t21.5 68v266h166v-500h-166v50q-45 -64 -139 -64z" />
    <glyph glyph-name="uni0439.loclBGR" horiz-adv-x="579" 
d="M42 500h166v-278q0 -39 20.5 -59t54.5 -20q39 0 60.5 23t21.5 68v266h166v-500h-166v50q-45 -64 -139 -64q-41 0 -74.5 14t-58 41.5t-38 67.5t-13.5 92v299zM125 554v140h323v-140h-323z" />
    <glyph glyph-name="uni043A.loclBGR" horiz-adv-x="542" 
d="M48 0v700h166v-409l129 209h192l-168 -250l175 -250h-186l-142 213v-213h-166z" />
    <glyph glyph-name="uni043B.loclBGR" horiz-adv-x="554" 
d="M0 0l187 500h180l187 -500h-184l-93 287l-93 -287h-184z" />
    <glyph glyph-name="uni043F.loclBGR" horiz-adv-x="579" 
d="M48 0v500h166v-50q45 64 139 64q40 0 74 -14t58.5 -41.5t38 -67.5t13.5 -92v-299h-166v278q0 39 -20.5 59t-54.5 20q-39 0 -60.5 -23t-21.5 -68v-266h-166z" />
    <glyph glyph-name="uni0442.loclBGR" horiz-adv-x="852" 
d="M48 500h166v-47q46 61 135 61q86 0 128 -64q52 64 145 64q88 0 138 -55.5t50 -152.5v-306h-167v287q0 70 -62 70q-34 0 -51.5 -22.5t-17.5 -61.5v-273h-166v287q0 70 -63 70q-34 0 -51.5 -22.5t-17.5 -61.5v-273h-166v500z" />
    <glyph glyph-name="uni0446.loclBGR" horiz-adv-x="622" 
d="M208 500v-278q0 -39 20.5 -59t55.5 -20q38 0 59.5 23t21.5 68v266h166v-318q0 -30 30 -30h45v-286h-157v148q-35 14 -58 47q-51 -75 -165 -75q-40 0 -74 14t-58.5 41.5t-38 67.5t-13.5 92v299h166z" />
    <glyph glyph-name="uni0448.loclBGR" horiz-adv-x="852" 
d="M209 500v-287q0 -70 62 -70q34 0 51.5 22.5t17.5 61.5v273h166v-287q0 -70 63 -70q34 0 51.5 22.5t17.5 61.5v273h166v-500h-166v47q-46 -61 -135 -61q-86 0 -128 64q-52 -64 -145 -64q-88 0 -138 55.5t-50 152.5v306h167z" />
    <glyph glyph-name="uni0449.loclBGR" horiz-adv-x="894" 
d="M230 -14q-88 0 -138 55.5t-50 152.5v306h166v-287q0 -33 16 -51.5t46 -18.5q34 0 52 22.5t18 61.5v273h166v-287q0 -70 62 -70q34 0 51.5 22.5t17.5 61.5v273h167v-318q0 -30 30 -30h45v-286h-158v148q-33 13 -55 43q-53 -71 -154 -71q-93 0 -136 66q-53 -66 -146 -66z
" />
    <glyph glyph-name="uni044C.loclBGR" horiz-adv-x="497" 
d="M42 500h162v-127h68q103 0 156 -51t53 -141q0 -48 -17.5 -84.5t-47.5 -61t-69.5 -37.5t-84.5 -13q-106 0 -163 54.5t-57 151.5v309zM204 193q0 -26 15.5 -41t42.5 -15q26 0 41.5 14t15.5 34q0 48 -52 48h-63v-40z" />
    <glyph glyph-name="uni044A.loclBGR" horiz-adv-x="578" 
d="M0 346v154h285v-127h68q103 0 156.5 -51t53.5 -141q0 -48 -17.5 -84.5t-47.5 -61t-70 -37.5t-85 -13q-106 0 -163 54.5t-57 151.5v155h-123zM285 193q0 -26 15.5 -41t42.5 -15q26 0 42 14t16 34q0 48 -53 48h-63v-40z" />
    <glyph glyph-name="uni044E.loclBGR" horiz-adv-x="807" 
d="M48 0v700h166v-372h53q12 42 36 76.5t56.5 59t72.5 37.5t84 13q55 0 104 -20.5t85 -56t57 -83.5t21 -104t-21 -104.5t-57 -84t-84.5 -55.5t-104.5 -20q-91 0 -158 51q-66 50 -91 135h-53v-172h-166zM415 250q0 -46 28 -75t73 -29q43 0 71.5 29t28.5 75t-28.5 75t-71.5 29
q-45 0 -73 -29t-28 -75z" />
    <glyph glyph-name="zero.sinf" horiz-adv-x="409" 
d="M204 -174q-47 0 -82 17t-58 46.5t-34.5 68t-11.5 82.5q0 43 11.5 82t34.5 68.5t58 46.5t82 17q46 0 81.5 -17t58.5 -46.5t35 -68.5t12 -82t-12 -82t-35 -68t-58.5 -46.5t-81.5 -17.5zM204 123q-51 0 -51 -83t51 -83t51 83t-51 83z" />
    <glyph glyph-name="one.sinf" horiz-adv-x="278" 
d="M127 240h113v-400h-131v266l-79 -21l-30 109z" />
    <glyph glyph-name="two.sinf" horiz-adv-x="351" 
d="M15 154q46 100 158 100q28 0 55.5 -8.5t48.5 -25t34 -40.5t13 -55q0 -61 -70 -128l-42 -40h116v-117h-306v89l143 139q29 29 29 48q0 22 -26 22t-46 -44z" />
    <glyph glyph-name="three.sinf" horiz-adv-x="341" 
d="M165 -174q-120 0 -162 94l108 62q15 -43 54 -43q32 0 32 26q0 25 -32 25h-28l-46 68l56 66h-124v116h286v-87l-65 -76q82 -30 82 -112q0 -67 -43 -103t-118 -36z" />
    <glyph glyph-name="four.sinf" horiz-adv-x="362" 
d="M8 11l116 229h138l-111 -229h41v63h122v-63h35v-115h-35v-56h-122v56h-184v115z" />
    <glyph glyph-name="five.sinf" horiz-adv-x="335" 
d="M167 -174q-120 0 -162 94l107 56q15 -41 52 -41q35 0 35 27t-34 27h-133l17 251h252v-116h-142l-3 -33h16q69 0 108 -32.5t39 -98.5q0 -67 -41.5 -100.5t-110.5 -33.5z" />
    <glyph glyph-name="six.sinf" horiz-adv-x="343" 
d="M13 -29q0 42 20 77l117 192h134l-77 -127q57 -10 90 -47.5t33 -94.5q0 -66 -43 -105.5t-116 -39.5q-36 0 -65 10.5t-50 30t-32 46t-11 58.5zM134 -29q0 -37 37 -37q38 0 38 37q0 36 -38 36q-37 0 -37 -36z" />
    <glyph glyph-name="seven.sinf" horiz-adv-x="302" 
d="M0 240h289v-99l-113 -301h-135l107 284h-148v116z" />
    <glyph glyph-name="eight.sinf" horiz-adv-x="349" 
d="M175 -174q-75 0 -117.5 33.5t-42.5 90.5q0 65 58 99q-44 33 -44 83q0 28 11 50.5t30.5 38.5t46 24.5t58.5 8.5q31 0 58 -8.5t46 -24.5t30 -38.5t11 -50.5q0 -52 -43 -83q57 -35 57 -99q0 -57 -42 -90.5t-117 -33.5zM180 0q-18 0 -30.5 -6t-12.5 -27q0 -34 38 -34h4
q16 0 24.5 10.5t9 23t-8 23t-24.5 10.5zM141 120q0 -27 34 -27q33 0 33 27q0 28 -33 28q-34 0 -34 -28z" />
    <glyph glyph-name="nine.sinf" horiz-adv-x="343" 
d="M136 -33q-57 9 -90 47t-33 95q0 32 11 58.5t32 46t50 30t65 10.5q73 0 116 -39.5t43 -105.5q0 -42 -20 -77l-117 -192h-134zM171 146q-37 0 -37 -37q0 -36 37 -36q38 0 38 36q0 37 -38 37z" />
    <glyph glyph-name="zero.tf" horiz-adv-x="589" 
d="M295 -15q-79 0 -134.5 31t-90 82t-50 116.5t-15.5 135.5q0 69 16 135t50.5 117t89.5 82t134 31q78 0 133 -31.5t89.5 -82.5t50.5 -116.5t16 -134.5t-16 -134.5t-50.5 -117t-89.5 -82.5t-133 -31zM295 541q-111 0 -111 -191t111 -191t111 191t-111 191z" />
    <glyph glyph-name="one.tf" horiz-adv-x="589" 
d="M219 173v339l-123 -31l-42 151l189 68h154v-527h177v-173h-549v173h194z" />
    <glyph glyph-name="two.tf" horiz-adv-x="589" 
d="M25 545q36 85 106 127.5t158 42.5q51 0 97.5 -15.5t81 -45.5t55 -73t20.5 -97q0 -62 -29.5 -112.5t-90.5 -106.5l-102 -92h234v-173h-524v130l262 236q71 65 71 109q0 27 -19.5 46.5t-56.5 19.5q-70 0 -110 -85z" />
    <glyph glyph-name="three.tf" horiz-adv-x="589" 
d="M297 -15q-102 0 -175 44t-104 132l155 89q30 -91 119 -91q94 0 94 68t-96 68h-34l-72 105l115 129h-255v171h485v-141l-121 -138q72 -21 114 -71.5t42 -126.5q0 -60 -20.5 -105t-56.5 -74.5t-84.5 -44t-105.5 -14.5z" />
    <glyph glyph-name="four.tf" horiz-adv-x="589" 
d="M223 700h198l-219 -430h124v131h178v-131h70v-163h-70v-107h-178v107h-321v163z" />
    <glyph glyph-name="five.tf" horiz-adv-x="589" 
d="M297 -15q-100 0 -172 42.5t-105 127.5l156 87q29 -83 119 -83q93 0 93 65q0 64 -93 64h-236l29 412h439v-171h-275l-6 -75h59q60 0 108 -14.5t82.5 -44t53 -73t18.5 -100.5q0 -60 -21.5 -104.5t-58 -74t-86 -44t-104.5 -14.5z" />
    <glyph glyph-name="six.tf" horiz-adv-x="589" 
d="M15 237q0 90 50 155l215 308h203l-149 -213q53 -5 97 -24t76 -51.5t49.5 -76.5t17.5 -98q0 -62 -22 -109t-59.5 -78.5t-88.5 -48t-109 -16.5q-59 0 -110 16t-89 47.5t-59.5 78.5t-21.5 110zM194 237q0 -42 26.5 -65t74.5 -23t74.5 23t26.5 65t-27.5 65.5t-73.5 23.5
q-48 0 -74.5 -23.5t-26.5 -65.5z" />
    <glyph glyph-name="seven.tf" horiz-adv-x="589" 
d="M20 700h539v-148l-248 -552h-194l236 527h-333v173z" />
    <glyph glyph-name="eight.tf" horiz-adv-x="589" 
d="M295 -14q-133 0 -206.5 57t-73.5 154q0 109 99 168q-75 52 -75 141q0 55 21.5 94t57.5 64.5t82 37.5t95 12q48 0 94 -12.5t82 -38t57.5 -64.5t21.5 -93q0 -89 -75 -141q99 -59 99 -168q0 -97 -73 -154t-206 -57zM295 295q-49 0 -75 -19.5t-26 -53.5q0 -72 101 -72
q100 0 100 72q0 34 -25.5 53.5t-74.5 19.5zM295 552q-42 0 -64 -16t-22 -44t22 -44t64 -16q40 0 63 16t23 44q0 27 -23 43.5t-63 16.5z" />
    <glyph glyph-name="nine.tf" horiz-adv-x="589" 
d="M255 213q-53 5 -97 24t-76 51.5t-49.5 76.5t-17.5 98q0 62 22 109t59.5 79t88.5 48t110 16q58 0 109 -16t89 -48t59.5 -79t21.5 -109q0 -42 -10 -78t-32 -67l-223 -318h-203zM194 463q0 -47 28.5 -68t72.5 -21q42 0 71.5 21.5t29.5 67.5t-29 67t-72 21t-72 -21t-29 -67z
" />
    <glyph glyph-name="zero.dnom" horiz-adv-x="409" 
d="M204 -14q-47 0 -82 17t-58 46t-34.5 68t-11.5 83q0 43 11.5 82t34.5 68.5t58 46.5t82 17q46 0 81.5 -17t58.5 -46.5t35 -68.5t12 -82q0 -44 -11.5 -83t-35 -68t-58.5 -46t-82 -17zM204 283q-51 0 -51 -83t51 -83t51 83t-51 83z" />
    <glyph glyph-name="one.dnom" horiz-adv-x="276" 
d="M127 400h113v-400h-131v266l-79 -21l-30 109z" />
    <glyph glyph-name="two.dnom" horiz-adv-x="356" 
d="M15 314q46 100 158 100q28 0 55.5 -8.5t48.5 -25t34 -40.5t13 -55q0 -61 -70 -128l-42 -40h116v-117h-306v89l143 139q29 29 29 48q0 22 -26 22t-46 -44z" />
    <glyph glyph-name="three.dnom" horiz-adv-x="335" 
d="M165 -14q-120 0 -162 94l108 62q15 -43 54 -43q32 0 32 26q0 25 -32 25h-28l-46 68l56 66h-124v116h286v-87l-65 -76q82 -30 82 -112q0 -67 -43 -103t-118 -36z" />
    <glyph glyph-name="four.dnom" horiz-adv-x="362" 
d="M8 171l116 229h138l-111 -229h41v63h122v-63h35v-115h-35v-56h-122v56h-184v115z" />
    <glyph glyph-name="five.dnom" horiz-adv-x="331" 
d="M167 -14q-120 0 -162 94l107 56q15 -41 52 -41q35 0 35 27t-34 27h-133l17 251h252v-116h-142l-3 -33h16q69 0 108 -32.5t39 -98.5q0 -67 -41.5 -100.5t-110.5 -33.5z" />
    <glyph glyph-name="six.dnom" horiz-adv-x="343" 
d="M13 131q0 42 20 77l117 192h134l-77 -127q57 -10 90 -47.5t33 -94.5q0 -66 -43 -105.5t-116 -39.5q-36 0 -65 10.5t-50 30t-32 46t-11 58.5zM134 131q0 -37 37 -37q38 0 38 37q0 36 -38 36q-37 0 -37 -36z" />
    <glyph glyph-name="seven.dnom" horiz-adv-x="302" 
d="M0 400h289v-99l-113 -301h-135l107 284h-148v116z" />
    <glyph glyph-name="eight.dnom" horiz-adv-x="349" 
d="M175 -14q-75 0 -117.5 33.5t-42.5 90.5q0 65 58 99q-44 33 -44 83q0 28 11 50.5t30.5 38.5t46 24.5t58.5 8.5q31 0 58 -8.5t46 -24.5t30 -38.5t11 -50.5q0 -52 -43 -83q57 -35 57 -99q0 -57 -42 -90.5t-117 -33.5zM180 160q-18 0 -30.5 -6t-12.5 -27q0 -34 38 -34h4
q16 0 24.5 10.5t9 23t-8 23t-24.5 10.5zM141 280q0 -27 34 -27q33 0 33 27q0 28 -33 28q-34 0 -34 -28z" />
    <glyph glyph-name="nine.dnom" horiz-adv-x="343" 
d="M134 127q-57 9 -90 47t-33 95q0 32 11 58.5t32 46t50 30t65 10.5q73 0 116 -39.5t43 -105.5q0 -42 -20 -77l-117 -192h-134zM169 306q-37 0 -37 -37q0 -36 37 -36q38 0 38 36q0 37 -38 37z" />
    <glyph glyph-name="zero.numr" horiz-adv-x="409" 
d="M204 286q-47 0 -82 17t-58 46t-34.5 68t-11.5 83q0 43 11.5 82t34.5 68.5t58 46.5t82 17q46 0 81.5 -17t58.5 -46.5t35 -68.5t12 -82q0 -44 -11.5 -83t-35 -68t-58.5 -46t-82 -17zM204 583q-51 0 -51 -83t51 -83t51 83t-51 83z" />
    <glyph glyph-name="one.numr" horiz-adv-x="276" 
d="M127 700h113v-400h-131v266l-79 -21l-30 109z" />
    <glyph glyph-name="two.numr" horiz-adv-x="356" 
d="M15 614q46 100 158 100q28 0 55.5 -8.5t48.5 -25t34 -40.5t13 -55q0 -61 -70 -128l-42 -40h116v-117h-306v89l143 139q29 29 29 48q0 22 -26 22t-46 -44z" />
    <glyph glyph-name="three.numr" horiz-adv-x="335" 
d="M165 286q-120 0 -162 94l108 62q15 -43 54 -43q32 0 32 26q0 25 -32 25h-28l-46 68l56 66h-124v116h286v-87l-65 -76q82 -30 82 -112q0 -67 -43 -103t-118 -36z" />
    <glyph glyph-name="four.numr" horiz-adv-x="362" 
d="M8 471l116 229h138l-111 -229h41v63h122v-63h35v-115h-35v-56h-122v56h-184v115z" />
    <glyph glyph-name="five.numr" horiz-adv-x="331" 
d="M167 286q-120 0 -162 94l107 56q15 -41 52 -41q35 0 35 27t-34 27h-133l17 251h252v-116h-142l-3 -33h16q69 0 108 -32.5t39 -98.5q0 -67 -41.5 -100.5t-110.5 -33.5z" />
    <glyph glyph-name="six.numr" horiz-adv-x="343" 
d="M13 431q0 42 20 77l117 192h134l-77 -127q57 -10 90 -47.5t33 -94.5q0 -66 -43 -105.5t-116 -39.5q-36 0 -65 10.5t-50 30t-32 46t-11 58.5zM134 431q0 -37 37 -37q38 0 38 37q0 36 -38 36q-37 0 -37 -36z" />
    <glyph glyph-name="seven.numr" horiz-adv-x="302" 
d="M0 700h289v-99l-113 -301h-135l107 284h-148v116z" />
    <glyph glyph-name="eight.numr" horiz-adv-x="349" 
d="M175 286q-75 0 -117.5 33.5t-42.5 90.5q0 65 58 99q-44 33 -44 83q0 28 11 50.5t30.5 38.5t46 24.5t58.5 8.5q31 0 58 -8.5t46 -24.5t30 -38.5t11 -50.5q0 -52 -43 -83q57 -35 57 -99q0 -57 -42 -90.5t-117 -33.5zM180 460q-18 0 -30.5 -6t-12.5 -27q0 -34 38 -34h4
q16 0 24.5 10.5t9 23t-8 23t-24.5 10.5zM141 580q0 -27 34 -27q33 0 33 27q0 28 -33 28q-34 0 -34 -28z" />
    <glyph glyph-name="nine.numr" horiz-adv-x="343" 
d="M134 427q-57 9 -90 47t-33 95q0 32 11 58.5t32 46t50 30t65 10.5q73 0 116 -39.5t43 -105.5q0 -42 -20 -77l-117 -192h-134zM169 606q-37 0 -37 -37q0 -36 37 -36q38 0 38 36q0 37 -38 37z" />
    <glyph glyph-name="zero.sups" horiz-adv-x="409" 
d="M204 446q-47 0 -82 17t-58 46t-34.5 68t-11.5 83q0 43 11.5 82t34.5 68.5t58 46.5t82 17q46 0 81.5 -17t58.5 -46.5t35 -68.5t12 -82q0 -44 -11.5 -83t-35 -68t-58.5 -46t-82 -17zM204 743q-51 0 -51 -83t51 -83t51 83t-51 83z" />
    <glyph glyph-name="one.sups" horiz-adv-x="276" 
d="M127 860h113v-400h-131v266l-79 -21l-30 109z" />
    <glyph glyph-name="two.sups" horiz-adv-x="356" 
d="M15 774q46 100 158 100q28 0 55.5 -8.5t48.5 -25t34 -40.5t13 -55q0 -61 -70 -128l-42 -40h116v-117h-306v89l143 139q29 29 29 48q0 22 -26 22t-46 -44z" />
    <glyph glyph-name="three.sups" horiz-adv-x="335" 
d="M165 446q-120 0 -162 94l108 62q15 -43 54 -43q32 0 32 26q0 25 -32 25h-28l-46 68l56 66h-124v116h286v-87l-65 -76q82 -30 82 -112q0 -67 -43 -103t-118 -36z" />
    <glyph glyph-name="four.sups" horiz-adv-x="362" 
d="M8 631l116 229h138l-111 -229h41v63h122v-63h35v-115h-35v-56h-122v56h-184v115z" />
    <glyph glyph-name="five.sups" horiz-adv-x="331" 
d="M167 446q-120 0 -162 94l107 56q15 -41 52 -41q35 0 35 27t-34 27h-133l17 251h252v-116h-142l-3 -33h16q69 0 108 -32.5t39 -98.5q0 -67 -41.5 -100.5t-110.5 -33.5z" />
    <glyph glyph-name="six.sups" horiz-adv-x="343" 
d="M13 591q0 42 20 77l117 192h134l-77 -127q57 -10 90 -47.5t33 -94.5q0 -66 -43 -105.5t-116 -39.5q-36 0 -65 10.5t-50 30t-32 46t-11 58.5zM134 591q0 -37 37 -37q38 0 38 37q0 36 -38 36q-37 0 -37 -36z" />
    <glyph glyph-name="seven.sups" horiz-adv-x="302" 
d="M0 860h289v-99l-113 -301h-135l107 284h-148v116z" />
    <glyph glyph-name="eight.sups" horiz-adv-x="349" 
d="M175 446q-75 0 -117.5 33.5t-42.5 90.5q0 65 58 99q-44 33 -44 83q0 28 11 50.5t30.5 38.5t46 24.5t58.5 8.5q31 0 58 -8.5t46 -24.5t30 -38.5t11 -50.5q0 -52 -43 -83q57 -35 57 -99q0 -57 -42 -90.5t-117 -33.5zM180 620q-18 0 -30.5 -6t-12.5 -27q0 -34 38 -34h4
q16 0 24.5 10.5t9 23t-8 23t-24.5 10.5zM141 740q0 -27 34 -27q33 0 33 27q0 28 -33 28q-34 0 -34 -28z" />
    <glyph glyph-name="nine.sups" horiz-adv-x="343" 
d="M134 587q-57 9 -90 47t-33 95q0 32 11 58.5t32 46t50 30t65 10.5q73 0 116 -39.5t43 -105.5q0 -42 -20 -77l-117 -192h-134zM169 766q-37 0 -37 -37q0 -36 37 -36q38 0 38 36q0 37 -38 37z" />
    <glyph glyph-name="cent.tf" horiz-adv-x="589" 
d="M211 109q-35 15 -63 39.5t-48 56t-31 68t-11 77.5q0 57 20.5 105.5t56 83.5t84 55t105.5 20q30 0 49 -4l29 90h63l-35 -107q80 -33 122 -108l-142 -82q-9 18 -30 33l-61 -188h4q61 0 87 50l142 -82q-33 -60 -93 -95t-135 -35q-13 0 -27 1.5t-29 3.5l-29 -91h-63zM322 452
q-42 -1 -69.5 -29t-27.5 -73q0 -53 38 -82z" />
    <glyph glyph-name="dollar.tf" horiz-adv-x="589" 
d="M341 153q52 7 52 43q0 17 -12 28t-40 23v-94zM220 502q0 -30 51 -52v97q-51 -8 -51 -45zM569 203q0 -94 -61.5 -150.5t-166.5 -65.5v-87h-70v86q-97 6 -161.5 51t-91.5 120l155 87q30 -75 98 -89v119q-1 1 -2 1q-43 15 -84 32.5t-72.5 43t-50.5 61.5t-19 89q0 51 18 89.5
t49 65t72.5 41t88.5 17.5v86h70v-88q153 -19 214 -155l-152 -85q-18 52 -62 69v-118q17 -6 39.5 -14t45 -18t43 -21.5t32.5 -22.5q28 -22 49.5 -58.5t18.5 -85.5z" />
    <glyph glyph-name="Euro.tf" horiz-adv-x="589" 
d="M13 250v84h60v35h-60v84h68q21 123 90.5 192.5t175.5 69.5q79 0 137 -41t90 -113l-150 -86q-26 66 -77 66q-64 0 -85 -88h135v-84h-145v-35h145v-84h-135q21 -91 88 -91q51 0 80 68l149 -86q-30 -72 -89 -114t-140 -42q-108 0 -178 71t-91 194h-68z" />
    <glyph glyph-name="florin.tf" horiz-adv-x="589" 
d="M15 -36q29 -8 49 -8q58 0 75 60l68 256h-106v159h149l28 106q29 111 111 151q54 26 114 26q17 0 34.5 -1.5t36.5 -6.5v-164q-26 8 -47 8q-30 0 -51.5 -15.5t-29.5 -44.5l-15 -59h108v-159h-149l-79 -303q-29 -112 -111 -152q-52 -26 -112 -26q-36 0 -73 9v164z" />
    <glyph glyph-name="uni20BD.tf" horiz-adv-x="589" 
d="M10 92v99h63v40h-63v159h63v310h251q52 0 97.5 -17t79.5 -47.5t53.5 -74t19.5 -96.5q0 -56 -19 -99.5t-52.5 -73.5t-79 -45.5t-99.5 -15.5h-72v-40h184v-99h-184v-92h-179v92h-63zM252 390h72q31 0 51 19t20 51t-20 51t-51 19h-72v-140z" />
    <glyph glyph-name="sterling.tf" horiz-adv-x="589" 
d="M25 173h62v99h-52v140h52v74q0 110 69 169q70 60 165 60q171 0 242 -156l-155 -86q-12 37 -29.5 54t-47.5 17q-31 0 -48 -18.5t-17 -49.5v-64h203v-140h-203v-99h313v-173h-554v173z" />
    <glyph glyph-name="yen.tf" horiz-adv-x="589" 
d="M0 700h201l94 -211l94 211h200l-172 -328h120v-94h-153v-41h153v-93h-153v-144h-179v144h-152v93h152v41h-152v94h120z" />
    <glyph glyph-name="brevecy" horiz-adv-x="403" 
d="M40 554v140h323v-140h-323z" />
    </font>
</defs>
</svg>
