<?xml version="1.0" standalone="no"?>
<!DOCTYPE svg PUBLIC "-//W3C//DTD SVG 1.1//EN" "http://www.w3.org/Graphics/SVG/1.1/DTD/svg11.dtd" >
<svg xmlns="http://www.w3.org/2000/svg" xmlns:xlink="http://www.w3.org/1999/xlink" version="1.1">
<metadata>
Created by FontForge 20170731 at Thu Oct 21 11:36:23 2021
 By Aleksey,,,
Copyright (c) 2015 by Radomir Tinkov. All rights reserved.
</metadata>
<defs>
<font id="SVN-Gilroy-XBoldItalic" horiz-adv-x="580" >
  <font-face 
    font-family="SVN-Gilroy XBold"
    font-weight="800"
    font-style="italic"
    font-stretch="normal"
    units-per-em="1000"
    panose-1="0 0 9 0 0 0 0 0 0 0"
    ascent="800"
    descent="-200"
    x-height="500"
    cap-height="700"
    bbox="-394 -270 1109.13 1085"
    underline-thickness="50"
    underline-position="-150"
    slope="-10"
    unicode-range="U+0020-FB02"
  />
<missing-glyph horiz-adv-x="500" 
d="M93 -200v1000h317v-1000h-317zM167 118v-113h166v113h-166zM237 -51l-70 -47v-33h166v33h-102l70 47h32v33h-166v-33h70zM167 178h166v113h-100v-56h34v23h33v-47h-100v80h-33v-113zM167 604v-104h166v34h-66v70h-100zM167 630h166v33h-66v37h66v33h-165v-33h65v-37h-66
v-33zM233 440v-37h-66v-33h100v70h66v33h-166v-33h66zM167 313h166v100h-33v-66h-133v-34zM200 38v47h100v-47h-100zM233 570v-36h-33v36h33z" />
    <glyph glyph-name="fi" unicode="fi" horiz-adv-x="570" 
d="M64 500h67q19 112 87 163t194 51q29 0 59.5 -3.5t62.5 -10.5l-24 -138q-46 8 -100 8q-117 0 -129 -70h278l-88 -500h-150l63 356h-128l-63 -356h-150l63 356h-67z" />
    <glyph glyph-name="fl" unicode="fl" horiz-adv-x="570" 
d="M64 500h67q19 112 87 163t194 51q77 0 181 -24l-122 -690h-150l102 583q-5 1 -14 1h-20q-95 0 -108 -84h73l-25 -144h-73l-63 -356h-150l63 356h-67z" />
    <glyph glyph-name="f_f" unicode="ff" horiz-adv-x="610" 
d="M39 356l25 144h67q37 215 252 215h14t15 -1l-25 -144q-5 0 -8.5 0.5t-7.5 0.5q-78 0 -90 -71h130l2 10q22 108 83 161.5t169 53.5h14.5t14.5 -1l-26 -144q-4 0 -8 0.5t-8 0.5q-75 0 -89 -71l-2 -10h93l-25 -144h-93l-63 -356h-150l63 356h-130l-63 -356h-150l63 356h-67z
" />
    <glyph glyph-name="f_f_i" unicode="ffi" horiz-adv-x="850" 
d="M64 500h67q37 215 252 215h14t15 -1l-25 -144q-5 0 -8.5 0.5t-7.5 0.5q-78 0 -90 -71h130l2 10q22 111 86.5 162.5t184.5 51.5q65 0 132 -14l-24 -138q-46 8 -100 8q-116 0 -129 -70l-2 -10h278l-88 -500h-150l63 356h-128l-63 -356h-150l63 356h-130l-63 -356h-150
l63 356h-67z" />
    <glyph glyph-name="f_f_l" unicode="ffl" horiz-adv-x="850" 
d="M39 356l25 144h67q37 215 252 215h14t15 -1l-25 -144q-5 0 -8.5 0.5t-7.5 0.5q-78 0 -90 -71h130l2 10q22 111 89 162.5t192 51.5q78 0 180 -24l-123 -700h-150l104 593q-5 1 -14 1h-20q-92 0 -108 -84l-2 -10h73l-25 -144h-73l-63 -356h-150l63 356h-130l-63 -356h-150
l63 356h-67z" />
    <glyph glyph-name=".notdef" horiz-adv-x="500" 
d="M93 -200v1000h317v-1000h-317zM167 118v-113h166v113h-166zM237 -51l-70 -47v-33h166v33h-102l70 47h32v33h-166v-33h70zM167 178h166v113h-100v-56h34v23h33v-47h-100v80h-33v-113zM167 604v-104h166v34h-66v70h-100zM167 630h166v33h-66v37h66v33h-165v-33h65v-37h-66
v-33zM233 440v-37h-66v-33h100v70h66v33h-166v-33h66zM167 313h166v100h-33v-66h-133v-34zM200 38v47h100v-47h-100zM233 570v-36h-33v36h33z" />
    <glyph glyph-name=".null" horiz-adv-x="0" 
 />
    <glyph glyph-name="nonmarkingreturn" horiz-adv-x="333" 
 />
    <glyph glyph-name="space" unicode=" " horiz-adv-x="250" 
 />
    <glyph glyph-name="space" unicode="&#xa0;" horiz-adv-x="250" 
 />
    <glyph glyph-name="exclam" unicode="!" horiz-adv-x="280" 
d="M80 250l14 250l35 200h180l-35 -200l-74 -250h-120zM93 -14q-20 0 -35.5 8t-26 21t-15 30.5t-1.5 37.5q7 39 38.5 66t73.5 27q19 0 35 -8t26.5 -21t15 -31t1.5 -37q-7 -40 -38 -66.5t-74 -26.5z" />
    <glyph glyph-name="quotedbl" unicode="&#x22;" horiz-adv-x="400" 
d="M299 700h140l-62 -240h-100zM97 460l22 240h140l-62 -240h-100z" />
    <glyph glyph-name="numbersign" unicode="#" horiz-adv-x="621" 
d="M49 310h106l28 80h-107l37 110h108l51 150h114l-51 -150h92l51 150h114l-51 -150h104l-37 -110h-105l-28 -80h106l-37 -110h-106l-52 -150h-114l52 150h-92l-52 -150h-114l52 150h-107zM269 310h92l28 80h-92z" />
    <glyph glyph-name="dollar" unicode="$" horiz-adv-x="559" 
d="M148 224q22 -68 87 -81l25 143h-1l-1 1q-44 19 -73.5 36.5t-57.5 44.5q-56 54 -39 152q8 47 30.5 83t55.5 60.5t74.5 37t87.5 13.5l15 86h70l-17 -94q55 -13 97 -49t64 -91l-141 -74q-20 39 -48 55l-23 -131q90 -41 119 -66q74 -62 55 -169q-17 -91 -83.5 -140
t-166.5 -54l-15 -87h-70l16 89q-81 10 -134 52t-72 108zM251 507q-5 -34 38 -59l19 111q-24 -4 -39 -17.5t-18 -34.5zM305 144q48 14 57 55q8 35 -37 58z" />
    <glyph glyph-name="percent" unicode="%" horiz-adv-x="784" 
d="M124 424q-41 51 -32 118q5 39 22 70.5t43.5 54t60.5 35t73 12.5q79 0 120 -57t26 -127q-7 -33 -24 -61.5t-42 -49.5t-58 -33t-72 -12q-76 0 -117 50zM412 40q-41 53 -30 121q6 38 23 69t43.5 52.5t60 33.5t71.5 12q77 0 118 -56q41 -57 28 -124q-7 -36 -25 -65.5
t-43.5 -50.5t-58 -32.5t-69.5 -11.5q-78 0 -118 52zM97 111l539 501l64 -41l-539 -502zM213 544q-5 -23 7 -39t35 -16t41 16.5t22 38.5q5 24 -7 39.5t-36 15.5q-23 0 -40.5 -16t-21.5 -39zM502 158q-5 -23 7 -39t35 -16t41 16.5t22 38.5q5 24 -7 39.5t-36 15.5
q-23 0 -40 -15.5t-22 -39.5z" />
    <glyph glyph-name="ampersand" unicode="&#x26;" horiz-adv-x="691" 
d="M74 50q-59 65 -41 159q24 124 152 192q-27 58 -16 123q8 47 30.5 82.5t56 59.5t75 36t87.5 12q168 0 219 -153l-146 -77q-24 74 -87 74q-30 0 -52 -16t-26 -46q-3 -24 6.5 -44.5t32.5 -51.5l104 -143q14 23 27 50.5t25 59.5l131 -80q-20 -45 -44 -82t-50 -69l75 -104
l-135 -71l-55 76q-87 -51 -193 -51q-116 0 -176 64zM196 216q-6 -36 16.5 -60t73.5 -24q38 0 75 17l-108 148q-48 -32 -57 -81z" />
    <glyph glyph-name="quotesingle" unicode="'" horiz-adv-x="220" 
d="M97 460l22 240h140l-62 -240h-100z" />
    <glyph glyph-name="parenleft" unicode="(" horiz-adv-x="320" 
d="M98 -100q-72 216 -29 460q41 232 188 440h150q-150 -220 -189.5 -450t30.5 -450h-150v0z" />
    <glyph glyph-name="parenright" unicode=")" horiz-adv-x="319" 
d="M-52 -100q150 220 189.5 450t-30.5 450h150q72 -216 29 -460q-41 -232 -188 -440h-150v0z" />
    <glyph glyph-name="asterisk" unicode="*" horiz-adv-x="400" 
d="M413 608l-15 -88l-89 9l43 -69l-77 -46l-27 85l-57 -85l-69 46l67 69l-91 -9l15 88l89 -9l-43 69l77 46l27 -85l57 85l69 -46l-67 -69z" />
    <glyph glyph-name="plus" unicode="+" horiz-adv-x="560" 
d="M55 280l25 140h160l28 160h140l-28 -160h160l-25 -140h-160l-28 -160h-140l28 160h-160z" />
    <glyph glyph-name="comma" unicode="," horiz-adv-x="290" 
d="M228 155l-132 -295h-120l92 295h160z" />
    <glyph glyph-name="hyphen" unicode="-" horiz-adv-x="500" 
d="M56 227l25 144h380l-25 -144h-380z" />
    <glyph glyph-name="period" unicode="." horiz-adv-x="280" 
d="M93 -14q-20 0 -35.5 8t-26 21t-14.5 30.5t-1 37.5q7 40 38 66.5t73 26.5q19 0 35 -8t26.5 -21t15 -31t1.5 -37q-7 -40 -38 -66.5t-74 -26.5z" />
    <glyph glyph-name="slash" unicode="/" horiz-adv-x="520" 
d="M33 -100h-65l554 900h65z" />
    <glyph glyph-name="zero" unicode="0" horiz-adv-x="630" 
d="M81 90q-61 104 -32 270q12 67 37.5 131t67 113.5t99.5 79.5t134 30q135 0 197 -105q61 -102 32 -269q-12 -67 -37.5 -131t-67 -113.5t-99 -79.5t-133.5 -30q-136 0 -198 104zM209 350q-37 -208 87 -208q123 0 160 208t-87 208q-123 0 -160 -208z" />
    <glyph glyph-name="one" unicode="1" horiz-adv-x="404" 
d="M273 700h140l-123 -700h-160l92 525l-129 -34l-15 143z" />
    <glyph glyph-name="two" unicode="2" horiz-adv-x="534" 
d="M-21 0l20 116l278 244q84 73 93 124q6 33 -10 53.5t-48 20.5q-65 0 -114 -79l-128 82q48 76 116 114.5t147 38.5q92 0 155 -66q61 -64 43 -167q-11 -60 -44 -109t-94 -101l-136 -117h225l-27 -154h-476z" />
    <glyph glyph-name="three" unicode="3" horiz-adv-x="550" 
d="M229 -14q-84 0 -144 37.5t-85 112.5l147 78q11 -36 33.5 -54t65.5 -18q48 0 74.5 21.5t32.5 56.5t-12.5 56.5t-66.5 21.5h-34l-45 91l149 161h-249l26 150h450l-22 -130l-147 -158q60 -28 91.5 -80.5t19.5 -121.5q-10 -55 -35 -96.5t-62.5 -70t-85 -43t-101.5 -14.5z" />
    <glyph glyph-name="four" unicode="4" 
d="M22 260l292 440h180l-293 -440h139l26 150h162l-26 -150h70l-26 -148h-70l-20 -112h-162l20 112h-318z" />
    <glyph glyph-name="five" unicode="5" horiz-adv-x="549" 
d="M148 213q24 -71 107 -71q45 0 70.5 22t31.5 56q6 35 -12.5 56.5t-61.5 21.5h-219l99 402h405l-26 -150h-251l-24 -96h53q96 0 156 -67q60 -68 41 -177q-10 -54 -34.5 -96t-61 -70.5t-83 -43t-100.5 -14.5q-181 0 -238 150z" />
    <glyph glyph-name="six" unicode="6" horiz-adv-x="560" 
d="M64 60q-66 75 -45 183q17 89 72 149l263 308h192l-192 -223q92 -15 145 -87q53 -71 36 -167q-10 -56 -35.5 -100t-63.5 -74.5t-87 -46.5t-105 -16q-115 0 -180 74zM179 233q-8 -45 15.5 -71t65.5 -26t74.5 26t40.5 71t-15.5 71t-65.5 26t-74.5 -26t-40.5 -71z" />
    <glyph glyph-name="seven" unicode="7" horiz-adv-x="490" 
d="M89 700h460l-23 -134l-320 -566h-178l309 546h-275z" />
    <glyph glyph-name="eight" unicode="8" horiz-adv-x="574" 
d="M67 48q-62 61 -45 159q18 107 122 163q-62 53 -45 142q9 51 33 88.5t59 63t78.5 38t93.5 12.5q100 0 159 -58q60 -58 43 -156q-15 -90 -95 -140q83 -65 63 -173q-17 -97 -90 -149t-194 -52q-120 0 -182 62zM185 220q-7 -39 16 -62q22 -22 66 -22t73 22q30 22 38 62
q7 38 -16 61t-65 23q-41 0 -72.5 -21t-39.5 -63zM285 545q-23 -19 -28 -49t11 -49q19 -19 50 -19q32 0 56 19t29 49t-12 49q-18 19 -49 19q-34 0 -57 -19z" />
    <glyph glyph-name="nine" unicode="9" horiz-adv-x="560" 
d="M49 0l192 224q-93 15 -146 86q-52 70 -35 167q10 56 35.5 100t63.5 74.5t86.5 46.5t105.5 16q115 0 180 -74q66 -75 45 -183q-17 -89 -72 -149l-263 -308h-192zM220 467q-8 -45 15.5 -71t65.5 -26t74.5 26t40.5 71t-15.5 71t-65.5 26t-74.5 -26t-40.5 -71z" />
    <glyph glyph-name="colon" unicode=":" horiz-adv-x="280" 
d="M153 326q-20 0 -35.5 8t-26 21t-14.5 30.5t-1 37.5q7 40 38 66.5t73 26.5q19 0 35 -8t26.5 -21t15 -31t1.5 -37q-7 -40 -38 -66.5t-74 -26.5zM93 -14q-20 0 -35.5 8t-26 21t-14.5 30.5t-1 37.5q7 40 38 66.5t73 26.5q19 0 35 -8t26.5 -21t15 -31t1.5 -37
q-7 -40 -38 -66.5t-74 -26.5z" />
    <glyph glyph-name="semicolon" unicode=";" horiz-adv-x="290" 
d="M68 155h160l-132 -295h-120zM163 326q-20 0 -35.5 8t-26 21t-14.5 30.5t-1 37.5q7 40 38 66.5t73 26.5q19 0 35 -8t26.5 -21t15 -31t1.5 -37q-7 -40 -38 -66.5t-74 -26.5z" />
    <glyph glyph-name="less" unicode="&#x3c;" horiz-adv-x="530" 
d="M554 610l-29 -162l-298 -106l261 -106l-26 -146l-416 195l23 130z" />
    <glyph glyph-name="equal" unicode="=" horiz-adv-x="520" 
d="M64 385l25 140h439l-25 -140h-439zM27 175l25 140h439l-25 -140h-439z" />
    <glyph glyph-name="greater" unicode="&#x3e;" horiz-adv-x="530" 
d="M104 610l415 -195l-23 -130l-484 -195l29 162l299 106l-262 106z" />
    <glyph glyph-name="question" unicode="?" horiz-adv-x="560" 
d="M83 553q19 38 48 68t64.5 50.5t76.5 31.5t85 11q98 0 156 -58t42 -152q-8 -42 -30.5 -76.5t-50.5 -58.5q-20 -17 -41 -32.5t-38.5 -30t-30 -28.5t-14.5 -28h-160q3 23 13.5 44t25 39.5t31 33.5t33.5 26t33.5 23.5t30 26t23 28t12.5 29.5q5 26 -10 42t-44 16
q-45 0 -74 -23t-51 -65zM223 -14q-20 0 -35.5 8t-26 21t-14.5 30.5t-1 37.5q7 40 38 66.5t73 26.5q19 0 35 -8t26.5 -21t15 -31t1.5 -37q-7 -40 -38 -66.5t-74 -26.5z" />
    <glyph glyph-name="at" unicode="@" horiz-adv-x="774" 
d="M94 -5q-91 106 -63 263q13 76 51.5 141t95.5 112t128 74t148 27q105 0 179 -54t101 -132.5t12 -163.5q-19 -105 -72.5 -158t-128.5 -53q-46 0 -78 20.5t-43 55.5q-44 -42 -104 -42q-62 0 -95 50q-33 52 -20 123q6 29 19.5 57.5t33.5 50.5t47 35.5t59 13.5q57 0 90 -43
l6 31h122l-42 -236q-11 -66 45 -66q42 0 75.5 42.5t47.5 126.5q22 129 -51 217q-74 89 -205 89q-70 0 -134 -25.5t-115 -69.5t-86 -103.5t-47 -127.5q-25 -141 56 -234q81 -92 229 -92q89 0 163 24l-7 -38q-70 -22 -161 -22q-164 0 -256 107zM329 250q-5 -25 6.5 -41
t35.5 -16q23 0 39.5 16t21.5 41q5 26 -6.5 41.5t-34.5 15.5q-24 0 -40.5 -15.5t-21.5 -41.5z" />
    <glyph glyph-name="A" unicode="A" horiz-adv-x="680" 
d="M317 700h204l115 -700h-175l-14 110h-260l-56 -110h-175zM429 260l-33 265l-134 -265h167z" />
    <glyph glyph-name="B" unicode="B" horiz-adv-x="600" 
d="M139 700h264q94 0 152 -58q57 -57 43 -147q-13 -86 -84 -136q70 -56 57 -159q-12 -90 -81 -145t-190 -55h-284zM202 150h129q33 0 55.5 18.5t27.5 48.5t-10.5 48.5t-48.5 18.5h-129zM251 426h109q30 0 51 17t26 45q5 26 -9 44t-46 18h-109z" />
    <glyph glyph-name="C" unicode="C" horiz-adv-x="723" 
d="M111 95q-88 108 -62 265q13 77 50 142t91.5 112t124.5 73.5t149 26.5q100 0 171.5 -42.5t106.5 -120.5l-147 -77q-41 84 -148 84q-48 0 -88 -15t-70.5 -42.5t-51 -66t-28.5 -84.5q-16 -92 28 -151q43 -57 131 -57q114 0 182 89l130 -85q-57 -75 -140.5 -117.5
t-180.5 -42.5q-160 0 -248 109z" />
    <glyph glyph-name="D" unicode="D" horiz-adv-x="712" 
d="M139 700h280q139 0 221 -106q83 -107 58 -254q-13 -75 -48.5 -137.5t-88.5 -107.5t-121 -70t-144 -25h-280zM313 154q46 0 84.5 15t68.5 41.5t50 63.5t28 81q8 45 1 80t-27 60t-52 38t-74 13h-120l-69 -392h110z" />
    <glyph glyph-name="E" unicode="E" horiz-adv-x="530" 
d="M547 546h-275l-21 -117h251l-27 -150h-250l-22 -125h280l-27 -154h-440l123 700h435z" />
    <glyph glyph-name="F" unicode="F" horiz-adv-x="520" 
d="M537 546h-265l-24 -135h260l-27 -154h-260l-45 -257h-160l123 700h425z" />
    <glyph glyph-name="G" unicode="G" horiz-adv-x="784" 
d="M111 95q-88 108 -62 265q13 77 50 142t91.5 112t124.5 73.5t149 26.5q105 0 179.5 -43.5t113.5 -124.5l-147 -77q-48 89 -163 89q-48 0 -88 -15t-71 -42.5t-51 -66t-28 -84.5q-17 -95 29 -151q46 -57 140 -57q149 0 205 108h-180l24 140h351l-10 -60q-13 -79 -48 -142.5
t-88 -108.5t-121.5 -69t-148.5 -24q-163 0 -251 109z" />
    <glyph glyph-name="H" unicode="H" horiz-adv-x="660" 
d="M139 700h160l-47 -268h220l47 268h160l-123 -700h-160l49 278h-220l-49 -278h-160z" />
    <glyph glyph-name="I" unicode="I" horiz-adv-x="280" 
d="M139 700h160l-123 -700h-160z" />
    <glyph glyph-name="J" unicode="J" horiz-adv-x="570" 
d="M155 207q10 -35 31 -50t60 -15q94 0 109 83l84 475h160l-84 -475q-21 -121 -94.5 -180t-188.5 -59q-172 0 -224 141z" />
    <glyph glyph-name="K" unicode="K" horiz-adv-x="626" 
d="M139 700h160l-52 -293l269 293h189l-318 -344l195 -356h-165l-183 333l-58 -333h-160z" />
    <glyph glyph-name="L" unicode="L" horiz-adv-x="480" 
d="M203 154h250l-27 -154h-410l123 700h160z" />
    <glyph glyph-name="M" unicode="M" horiz-adv-x="820" 
d="M16 0l123 700h160l121 -316l245 316h174l-123 -700h-160l72 410l-239 -300h-18l-123 302l-72 -412h-160z" />
    <glyph glyph-name="N" unicode="N" horiz-adv-x="670" 
d="M139 700h120l201 -393l69 393h160l-123 -700h-120l-200 393l-70 -393h-160z" />
    <glyph glyph-name="O" unicode="O" horiz-adv-x="788" 
d="M110 96q-89 111 -61 264q15 80 52 145t92.5 111.5t126.5 72t152 25.5q150 0 239 -110q90 -111 63 -264q-14 -79 -51.5 -144.5t-93 -112t-126.5 -72t-151 -25.5q-152 0 -242 110zM209 350q-16 -92 29 -151q45 -57 131 -57q46 0 87 16t73.5 43.5t54.5 65.5t30 83
q16 91 -32 150q-48 58 -134 58q-46 0 -86 -16t-71.5 -44t-52.5 -66t-29 -82z" />
    <glyph glyph-name="P" unicode="P" horiz-adv-x="590" 
d="M139 700h253q108 0 168 -72q60 -71 45 -178q-8 -56 -33.5 -99t-63.5 -72t-86.5 -44t-103.5 -15h-103l-39 -220h-160zM334 370q45 0 74 24t37 66t-11.5 66t-67.5 24h-93l-32 -180h93z" />
    <glyph glyph-name="Q" unicode="Q" horiz-adv-x="793" 
d="M113 96q-91 111 -64 264q13 78 51.5 143t94.5 112t127 73t150 26q150 0 239 -110q45 -55 61 -120.5t2 -143.5q-24 -134 -119 -229l53 -69l-123 -92l-56 74q-84 -38 -177 -38q-147 0 -239 110zM209 350q-16 -92 29 -151q45 -57 131 -57q28 0 62 8l-83 109l123 92l90 -117
q41 52 53 116q16 91 -32 150q-48 58 -134 58q-46 0 -86 -16t-71.5 -44t-52.5 -66t-29 -82z" />
    <glyph glyph-name="R" unicode="R" horiz-adv-x="615" 
d="M16 0l123 700h270q100 0 163 -76q63 -75 45 -174q-13 -70 -56 -121.5t-107 -76.5l102 -252h-162l-91 230h-87l-40 -230h-160zM361 370q36 0 62.5 25.5t33.5 64.5t-13.5 64.5t-60.5 25.5h-110l-32 -180h120z" />
    <glyph glyph-name="S" unicode="S" horiz-adv-x="586" 
d="M150 234q25 -94 134 -94q92 0 103 59q5 30 -21 47.5t-93 40.5q-100 35 -148 84q-49 50 -32 145q9 50 33 87t58.5 62t77.5 37t92 12q87 0 150 -41t90 -117l-140 -74q-38 78 -114 78q-36 0 -57.5 -15t-26.5 -38q-7 -29 19 -47.5t89 -41.5q36 -13 75.5 -30t67.5 -43
q28 -27 41.5 -64t3.5 -96q-9 -48 -32.5 -85t-60 -62.5t-84.5 -38.5t-105 -13q-111 0 -179 46t-87 127z" />
    <glyph glyph-name="T" unicode="T" horiz-adv-x="540" 
d="M89 700h520l-27 -154h-180l-96 -546h-160l96 546h-180z" />
    <glyph glyph-name="U" unicode="U" horiz-adv-x="641" 
d="M95 53q-67 67 -49 173l84 474h160l-81 -460q-17 -98 93 -98t127 98l81 460h160l-84 -474q-11 -60 -37 -105t-64.5 -75t-88 -45t-106.5 -15q-127 0 -195 67z" />
    <glyph glyph-name="V" unicode="V" horiz-adv-x="640" 
d="M246 700l55 -515l235 515h183l-341 -700h-204l-95 700h167z" />
    <glyph glyph-name="W" unicode="W" horiz-adv-x="998" 
d="M249 700l37 -490l221 490h130l49 -490l207 490h174l-316 -700h-182l-42 413l-186 -413h-182l-70 700h160z" />
    <glyph glyph-name="X" unicode="X" horiz-adv-x="620" 
d="M-34 0l273 365l-140 335h174l78 -185l138 185h190l-260 -348l147 -352h-174l-85 202l-151 -202h-190z" />
    <glyph glyph-name="Y" unicode="Y" horiz-adv-x="610" 
d="M79 700h173l82 -236l164 236h191l-294 -394l-54 -306h-160l54 307z" />
    <glyph glyph-name="Z" unicode="Z" horiz-adv-x="540" 
d="M589 700l-21 -124l-340 -422h270l-27 -154h-480l22 124l341 422h-262l27 154h470z" />
    <glyph glyph-name="bracketleft" unicode="[" horiz-adv-x="320" 
d="M372 656h-100l-109 -612h101l-26 -144h-250l159 900h250z" />
    <glyph glyph-name="backslash" unicode="\" horiz-adv-x="520" 
d="M370 -100l-243 900h58l243 -900h-58z" />
    <glyph glyph-name="bracketright" unicode="]" horiz-adv-x="320" 
d="M367 800l-159 -900h-250l26 144h99l109 612h-100l25 144h250z" />
    <glyph glyph-name="asciicircum" unicode="^" 
d="M315 700h108l136 -340h-156l-58 167l-122 -167h-164z" />
    <glyph glyph-name="underscore" unicode="_" horiz-adv-x="520" 
d="M-46 -181l25 144h460l-25 -144h-460z" />
    <glyph glyph-name="grave" unicode="`" horiz-adv-x="300" 
d="M194 560l-95 140h173l63 -140h-141z" />
    <glyph glyph-name="a" unicode="a" horiz-adv-x="623" 
d="M63 69q-52 83 -31 193q10 52 34 98t60.5 80.5t83.5 54t103 19.5q94 0 140 -67l9 53h150l-88 -500h-150l6 34q-57 -48 -150 -48q-114 0 -167 83zM182 250q-10 -57 17 -89.5t79 -32.5t91 33t49 88v1q10 57 -17.5 89.5t-79.5 32.5t-90.5 -32.5t-48.5 -89.5z" />
    <glyph glyph-name="b" unicode="b" horiz-adv-x="623" 
d="M11 0l123 700h150l-43 -242q62 56 148 56q55 0 97.5 -23t68.5 -61.5t35.5 -88t0.5 -101.5q-8 -53 -31 -99t-58 -80.5t-81.5 -54.5t-101.5 -20q-103 0 -148 71l-10 -57h-150zM205 250q-9 -57 19 -89.5t80 -32.5q51 0 89 32.5t48 89.5t-17.5 89.5t-78.5 32.5
q-52 0 -91.5 -32.5t-48.5 -89.5z" />
    <glyph glyph-name="c" unicode="c" horiz-adv-x="535" 
d="M80 65q-66 79 -48 195q8 56 34.5 102.5t66.5 80.5t90.5 52.5t106.5 18.5q78 0 133 -35t80 -95l-137 -72q-23 54 -89 54q-25 0 -47.5 -8.5t-40.5 -23.5t-30.5 -36t-16.5 -46q-9 -51 18 -84.5t76 -33.5q63 0 104 56l121 -77q-38 -63 -101 -95t-135 -32q-119 0 -185 79z" />
    <glyph glyph-name="d" unicode="d" horiz-adv-x="625" 
d="M63 69q-52 83 -31 193q10 52 34 98t60.5 80.5t83.5 54t103 19.5q96 0 141 -69l45 255h150l-123 -700h-150l6 36q-59 -50 -152 -50q-114 0 -167 83zM182 250q-10 -55 17 -88.5t81 -33.5q51 0 89.5 31.5t49.5 85.5l2 10q7 54 -20 85.5t-78 31.5q-54 0 -92.5 -33.5
t-48.5 -88.5z" />
    <glyph glyph-name="e" unicode="e" horiz-adv-x="582" 
d="M78 65q-65 81 -46 195q8 55 35 101.5t67.5 80.5t91 53t105.5 19q112 0 176 -76q66 -78 45 -188q-2 -16 -6.5 -31t-9.5 -29h-358q10 -70 103 -70q63 0 105 39l105 -86q-86 -87 -220 -87q-127 0 -193 79zM321 381q-83 0 -122 -77h212q-8 77 -90 77z" />
    <glyph glyph-name="f" unicode="f" horiz-adv-x="331" 
d="M64 500h67q18 105 82 160t174 55q6 0 12 -0.5t13 -0.5l-25 -144q-5 0 -8.5 0.5t-7.5 0.5q-78 0 -90 -71h93l-25 -144h-93l-63 -356h-150l63 356h-67z" />
    <glyph glyph-name="g" unicode="g" horiz-adv-x="624" 
d="M141 -23q29 -59 110 -59q54 0 88.5 27.5t43.5 79.5l6 35q-59 -54 -150 -54q-115 0 -169 79q-54 80 -36 187q9 51 32.5 95.5t59.5 77t82 51t99 18.5q107 0 150 -73l10 59h146l-84 -475q-11 -63 -36.5 -108t-63 -74.5t-85.5 -43t-104 -13.5q-178 0 -233 121zM183 260
q-9 -51 18.5 -82.5t81.5 -31.5q51 0 89.5 29t50.5 75l4 21q4 46 -24 74.5t-79 28.5q-54 0 -93 -31.5t-48 -82.5z" />
    <glyph glyph-name="h" unicode="h" 
d="M134 700h150l-43 -247q55 61 147 61q80 0 127 -56q46 -55 30 -151l-54 -307h-150l50 285q8 46 -12.5 68.5t-59.5 22.5q-42 0 -71.5 -25.5t-38.5 -77.5l-48 -273h-150z" />
    <glyph glyph-name="i" unicode="i" horiz-adv-x="260" 
d="M11 0l88 500h150l-88 -500h-150zM183 544q-36 0 -56.5 25.5t-14.5 60.5q3 17 12 32.5t22.5 27.5t30 19t34.5 7q35 0 56.5 -25.5t16.5 -60.5q-3 -18 -12 -33.5t-22.5 -27t-31 -18.5t-35.5 -7z" />
    <glyph glyph-name="j" unicode="j" horiz-adv-x="275" 
d="M-66 -70q41 0 62.5 14t29.5 56l88 500h150l-88 -500q-10 -57 -28.5 -98t-47.5 -67t-69.5 -38t-92.5 -12h-15t-15 1zM198 544q-36 0 -56.5 25.5t-14.5 60.5q3 17 12 32.5t22.5 27.5t30 19t34.5 7q35 0 56.5 -25.5t16.5 -60.5q-3 -18 -12 -33.5t-22.5 -27t-31 -18.5
t-35.5 -7z" />
    <glyph glyph-name="k" unicode="k" horiz-adv-x="525" 
d="M134 700h150l-72 -407l179 207h173l-221 -250l138 -250h-160l-120 228l-40 -228h-150z" />
    <glyph glyph-name="l" unicode="l" horiz-adv-x="261" 
d="M12 0l128 730h150l-128 -730h-150z" />
    <glyph glyph-name="m" unicode="m" horiz-adv-x="850" 
d="M99 500h150l-8 -45q53 59 139 59q89 0 122 -68q62 68 154 68q88 0 131 -58q44 -58 28 -149l-54 -307h-150l51 294q7 38 -7.5 60t-49.5 22q-74 0 -93 -87l-51 -289h-150l51 294q7 38 -7.5 60t-49.5 22q-74 0 -93 -85l-51 -291h-150z" />
    <glyph glyph-name="n" unicode="n" 
d="M99 500h150l-8 -47q55 61 147 61q80 0 127 -56q46 -55 30 -151l-54 -307h-150l50 285q8 46 -12.5 68.5t-59.5 22.5q-40 0 -69.5 -24t-39.5 -73l-49 -279h-150z" />
    <glyph glyph-name="o" unicode="o" horiz-adv-x="590" 
d="M117 29q-58 45 -77.5 108t-5.5 133q11 55 38.5 100t67 77t89 49.5t105.5 17.5q119 0 181 -87q62 -86 42 -193q-9 -53 -36 -98t-66 -78.5t-88 -52.5t-103 -19q-89 0 -147 43zM184 250q-9 -54 16 -86t74 -32t87 32t47 86t-17 86t-75 32t-85.5 -32t-46.5 -86z" />
    <glyph glyph-name="p" unicode="p" horiz-adv-x="623" 
d="M99 500h150l-7 -42q62 56 149 56q106 0 162 -83q55 -81 38 -191q-15 -101 -89 -178q-73 -76 -184 -76q-100 0 -147 71l-45 -257h-150zM204 246q-7 -54 20 -86t79 -32q56 0 92 34t46 88q11 57 -16 89.5t-79 32.5q-51 0 -89.5 -31.5t-50.5 -85.5z" />
    <glyph glyph-name="q" unicode="q" horiz-adv-x="623" 
d="M102 27q-51 42 -66.5 103.5t-3.5 131.5q10 52 34 98t60.5 80.5t83.5 54t103 19.5q94 0 140 -67l9 53h150l-123 -700h-150l41 234q-57 -48 -150 -48q-76 0 -128 41zM182 250q-10 -55 17 -89q27 -33 79 -33q56 0 93 34t47 88q11 56 -18 89t-79 33q-54 0 -91 -33t-48 -89z
" />
    <glyph glyph-name="r" unicode="r" horiz-adv-x="371" 
d="M99 500h150l-16 -90q22 49 66.5 74.5t101.5 25.5l-29 -170q-8 1 -14.5 1.5t-14.5 0.5q-53 0 -93 -31t-49 -85l1 6l-41 -232h-150z" />
    <glyph glyph-name="s" unicode="s" horiz-adv-x="468" 
d="M130 177q22 -57 89 -57q50 0 55 26q3 16 -22 27t-61 21q-26 6 -53.5 17.5t-48.5 31t-31 49t-2 71.5q7 40 28 68.5t50.5 47t64 27t67.5 8.5q66 0 116.5 -28t74.5 -79l-135 -67q-18 44 -65 44q-45 0 -51 -31q-4 -20 20.5 -31t60.5 -20q26 -5 53.5 -15t48.5 -29t31.5 -48.5
t2.5 -74.5q-7 -38 -26 -66t-47.5 -46.5t-65 -27.5t-78.5 -9q-156 0 -211 123z" />
    <glyph glyph-name="t" unicode="t" horiz-adv-x="389" 
d="M34 356l26 144h79l17 95l158 45l-25 -140h104l-26 -144h-103l-31 -177q-5 -26 9.5 -35t50.5 -9h17t19 1l-24 -136q-17 -2 -33 -3t-30 -1q-100 0 -138 45t-21 138l31 177h-80z" />
    <glyph glyph-name="u" unicode="u" 
d="M64 41q-46 55 -29 152l54 307h150l-50 -285q-8 -46 12.5 -68.5t59.5 -22.5q40 0 69.5 24t39.5 73l49 279h150l-88 -500h-150l8 47q-55 -61 -147 -61q-82 0 -128 55z" />
    <glyph glyph-name="v" unicode="v" horiz-adv-x="510" 
d="M44 500h154l42 -306l148 306h166l-268 -500h-150z" />
    <glyph glyph-name="w" unicode="w" horiz-adv-x="780" 
d="M204 500l31 -268l119 268h145l33 -268l117 268h165l-248 -500h-140l-33 263l-117 -263h-150l-72 500h150z" />
    <glyph glyph-name="x" unicode="x" horiz-adv-x="530" 
d="M-44 0l226 259l-132 241h162l69 -127l111 127h176l-219 -251l137 -249h-162l-74 135l-118 -135h-176z" />
    <glyph glyph-name="y" unicode="y" horiz-adv-x="530" 
d="M318 15q-25 -47 -54 -87t-65 -68.5t-81 -44.5t-101 -16q-5 0 -10.5 0.5t-11.5 0.5l24 140q27 0 46.5 4t35.5 13.5t29 25t25 39.5l-111 478h154l62 -306l148 306h166l-256 -485v0z" />
    <glyph glyph-name="z" unicode="z" horiz-adv-x="455" 
d="M464 500l-17 -100l-229 -260h193l-25 -140h-400l18 100l228 260h-173l25 140h380z" />
    <glyph glyph-name="braceleft" unicode="{" horiz-adv-x="361" 
d="M116 229q5 29 -5 40t-36 11h-10t-10 -1l26 145q5 -1 10 -1h10q26 0 40 11t19 40l25 142q18 102 70 148.5t149 46.5h17t18 -1l-26 -144q-5 1 -10 1h-10q-26 0 -39.5 -11t-18.5 -40l-25 -142q-14 -85 -75 -122q46 -39 31 -123l-25 -142q-5 -29 5.5 -40t36.5 -11h10t10 1
l-26 -144q-7 -1 -13 -1h-12q-91 0 -134 52t-27 143l25 142v0z" />
    <glyph glyph-name="bar" unicode="|" horiz-adv-x="270" 
d="M-19 -200l162 920h150l-162 -920h-150z" />
    <glyph glyph-name="braceright" unicode="}" horiz-adv-x="360" 
d="M211 86q-18 -102 -70 -148.5t-149 -46.5h-17t-18 1l26 144q5 -1 10 -1h10q26 0 39.5 11t18.5 40l25 142q14 85 75 122q-46 39 -31 123l25 142q5 29 -5.5 40t-36.5 11h-10t-10 -1l26 144q7 1 13 1h12q91 0 134 -52t27 -143l-25 -142q-5 -29 5 -40t36 -11h10t10 1l-26 -145
q-5 1 -10 1h-10q-26 0 -40 -11t-19 -40l-25 -142v0z" />
    <glyph glyph-name="asciitilde" unicode="~" horiz-adv-x="600" 
d="M49 302q29 78 76 113.5t101 35.5q44 0 85 -19q64 -32 99 -32q23 0 39 17t27 35l109 -58q-29 -78 -76 -113.5t-101 -35.5q-43 0 -84 19q-64 32 -100 32q-23 0 -38.5 -17t-26.5 -35z" />
    <glyph glyph-name="exclamdown" unicode="&#xa1;" horiz-adv-x="280" 
d="M-29 -200l35 200l74 250h120l-14 -250l-35 -200h-180zM153 324q-20 0 -35.5 8t-26 21t-15 30.5t-1.5 37.5q7 40 38 66.5t74 26.5q19 0 35 -8t26.5 -21t15 -31t1.5 -37q-7 -39 -38.5 -66t-73.5 -27z" />
    <glyph glyph-name="cent" unicode="&#xa2;" horiz-adv-x="535" 
d="M163 113q-66 32 -96.5 97.5t-17.5 149.5q8 56 34.5 102.5t66.5 80.5t90.5 52.5t106.5 18.5q32 0 61 -6l46 92h62l-55 -111q69 -35 99 -105l-137 -72q-10 23 -31 38l-107 -216h8q63 0 104 56l121 -77q-38 -63 -101 -95t-135 -32q-17 0 -33.5 2t-33.5 6l-46 -94h-62z
M199 352q-12 -66 33 -99l106 213h-4q-25 0 -47.5 -8.5t-40.5 -23.5t-30.5 -36t-16.5 -46z" />
    <glyph glyph-name="sterling" unicode="&#xa3;" 
d="M13 154h66l20 115h-55l25 140h55l14 81q20 112 87.5 168t167.5 56q76 0 131.5 -39.5t78.5 -109.5l-144 -76q-24 69 -84 69q-29 0 -50.5 -18t-26.5 -50l-14 -81h195l-25 -140h-195l-20 -115h314l-27 -154h-540z" />
    <glyph glyph-name="currency" unicode="&#xa4;" horiz-adv-x="540" 
d="M12 150l82 70q-34 57 -21 130q14 75 67 130l-57 70l42 38l59 -72q65 44 141 44q71 0 118 -38l80 68l40 -40l-82 -69q35 -60 22 -131q-14 -77 -68 -131l57 -69l-45 -37l-56 70q-64 -43 -140 -43q-72 0 -120 39l-81 -69zM221 350q-6 -31 9 -49.5t46 -18.5t52 18.5t27 49.5
t-9 49.5t-46 18.5t-52.5 -18.5t-26.5 -49.5z" />
    <glyph glyph-name="yen" unicode="&#xa5;" horiz-adv-x="610" 
d="M68 239h155l7 40h-155l16 88h120l-132 333h173l82 -236l164 236h191l-248 -333h120l-16 -88h-155l-7 -40h155l-15 -88h-155l-27 -151h-160l27 151h-155z" />
    <glyph glyph-name="brokenbar" unicode="&#xa6;" horiz-adv-x="270" 
d="M78 350l65 370h150l-65 -370h-150zM-19 -200l65 370h150l-65 -370h-150z" />
    <glyph glyph-name="section" unicode="&#xa7;" horiz-adv-x="556" 
d="M149 85q28 -67 93 -67q56 0 65 36q3 13 -4 24.5t-21 19.5q-9 5 -22 12t-24 11q-10 5 -27.5 12.5t-28.5 12.5q-30 14 -55 32.5t-41.5 42t-23 52t-0.5 61.5q13 76 82 117q-21 44 -11 103q7 42 26 72t47 49.5t64 29t77 9.5q66 0 118.5 -32t79.5 -96l-126 -63q-28 61 -81 61
q-47 0 -55 -38q-2 -16 6.5 -28t22.5 -20q4 -2 10.5 -5.5t15.5 -7.5t15.5 -6.5t12.5 -5t13.5 -6t19.5 -7.5q63 -25 101 -70q40 -47 28 -112q-13 -77 -82 -123q24 -43 14 -103q-7 -42 -27 -73t-50 -51.5t-68.5 -30t-83.5 -9.5q-160 0 -214 124zM211 330q-7 -40 58 -66l34 -13
q14 -5 25.5 -10t19.5 -9q21 15 25 40q5 25 -12.5 39t-55.5 30l-70 29q-20 -15 -24 -40z" />
    <glyph glyph-name="dieresis" unicode="&#xa8;" horiz-adv-x="350" 
d="M287 562q-18 22 -13 53t31 53t57 22t49 -22t13 -53t-31 -53q-27 -22 -57 -22t-49 22zM97 562q-18 22 -13 53t31 53t57 22t49 -22t13 -53t-31 -53q-27 -22 -57 -22t-49 22z" />
    <glyph glyph-name="copyright" unicode="&#xa9;" horiz-adv-x="784" 
d="M625 90q-62 -54 -129.5 -78t-148.5 -24q-70 0 -131 30.5t-103 81.5t-60.5 117.5t-3.5 138.5q13 75 50.5 140t93 113t125.5 75.5t147 27.5q147 0 239 -110t67 -258q-13 -76 -49.5 -139t-96.5 -115zM88 350q-24 -134 57 -230t212 -96q69 0 132 26t113 70t84 103.5t46 126.5
q24 133 -58 230q-81 96 -212 96q-69 0 -132 -25.5t-113 -70t-84 -104t-45 -126.5zM246 215q-47 62 -32 145q7 40 27 74.5t48.5 59.5t65 39t78.5 14q52 0 95.5 -27t67.5 -72l-117 -61q-17 33 -57 33q-31 0 -54 -21t-28 -49t10 -49t43 -21q43 0 68 34l105 -65q-34 -46 -84 -71
t-104 -25q-85 0 -132 62z" />
    <glyph glyph-name="guillemotleft" unicode="&#xab;" horiz-adv-x="562" 
d="M207 499h135l-140 -194l72 -186h-130l-74 190zM411 499h135l-143 -199l71 -181h-130l-72 185z" />
    <glyph glyph-name="logicalnot" unicode="&#xac;" horiz-adv-x="560" 
d="M550 420l-46 -260h-150l21 120h-330l25 140h480z" />
    <glyph glyph-name="registered" unicode="&#xae;" horiz-adv-x="784" 
d="M625 90q-62 -54 -129.5 -78t-148.5 -24q-70 0 -131 30.5t-103 81.5t-60.5 117.5t-3.5 138.5q13 75 50.5 140t93 113t125.5 75.5t147 27.5q147 0 239 -110t67 -258q-13 -76 -49.5 -139t-96.5 -115zM88 350q-24 -134 57 -230t212 -96q69 0 132 26t113 70t84 103.5t46 126.5
q24 133 -58 230q-81 96 -212 96q-69 0 -132 -25.5t-113 -70t-84 -104t-45 -126.5zM233 165l65 370h160q56 0 94 -41t28 -98q-14 -72 -68 -103l50 -128h-127l-30 102h-32l-18 -102h-122zM415 367q16 0 27 8t13 21q5 29 -29 29h-25l-11 -58h25z" />
    <glyph glyph-name="macron" unicode="&#xaf;" horiz-adv-x="341" 
d="M75 559l21 120h300l-21 -120h-300z" />
    <glyph glyph-name="degree" unicode="&#xb0;" horiz-adv-x="406" 
d="M128 522q-42 53 -29 123q7 37 25 67.5t44.5 52t60 33.5t71.5 12q73 0 115 -52q42 -53 30 -123q-6 -37 -24.5 -67.5t-45.5 -52t-60.5 -33.5t-70.5 -12q-73 0 -116 52zM223 640q-4 -22 7 -36t33 -14t38 13.5t20 36.5q4 22 -7 36t-33 14t-38 -14t-20 -36z" />
    <glyph glyph-name="plusminus" unicode="&#xb1;" horiz-adv-x="560" 
d="M73 380l25 140h159l25 140h140l-25 -140h161l-25 -140h-160l-25 -140h-140l25 140h-160zM13 40l25 140h460l-25 -140h-460z" />
    <glyph glyph-name="acute" unicode="&#xb4;" horiz-adv-x="300" 
d="M175 700h184l-136 -140h-148z" />
    <glyph glyph-name="uni00B5" unicode="&#xb5;" horiz-adv-x="620" 
d="M-24 -200l123 700h150l-51 -289q-6 -45 14.5 -66t58.5 -21q39 0 67.5 22.5t39.5 67.5l51 286h150l-58 -330q-6 -30 25 -30h35l-25 -140h-65q-68 0 -104 45q-54 -59 -145 -59q-46 0 -80 18l-36 -204h-150z" />
    <glyph glyph-name="paragraph" unicode="&#xb6;" horiz-adv-x="698" 
d="M98 330q-52 69 -36 160q8 46 32 84.5t58.5 66.5t77.5 43.5t89 15.5h409l-22 -130h-62l-135 -770h-140l135 770h-68l-135 -770h-140l81 460q-92 2 -144 70z" />
    <glyph glyph-name="periodcentered" unicode="&#xb7;" horiz-adv-x="279" 
d="M139 251q-20 0 -35.5 8t-26 21t-14.5 30.5t-1 37.5q7 40 38 66.5t73 26.5q19 0 35 -8t26.5 -21t15 -31t1.5 -37q-7 -40 -38 -66.5t-74 -26.5z" />
    <glyph glyph-name="cedilla" unicode="&#xb8;" horiz-adv-x="265" 
d="M179 -132q-16 -86 -182 -86h-28.5t-30.5 2l18 104q12 -1 22.5 -1.5t19.5 -0.5q53 0 56 16q3 15 -50 20l14 78h120l-8 -46q59 -22 49 -86z" />
    <glyph glyph-name="guillemotright" unicode="&#xbb;" horiz-adv-x="563" 
d="M381 313l-72 186h130l74 -190l-137 -190h-135zM37 119l143 199l-71 181h130l72 -185l-139 -195h-135z" />
    <glyph glyph-name="onequarter" unicode="&#xbc;" horiz-adv-x="811" 
d="M431 61l19 110l156 229h134l-152 -229h42l11 61h116l-11 -61h36l-19 -110h-36l-11 -61h-116l11 61h-180zM588 700h105l-518 -700h-105zM201 700h107l-71 -400h-122l48 271l-81 -22l-11 107z" />
    <glyph glyph-name="onehalf" unicode="&#xbd;" horiz-adv-x="815" 
d="M448 77l178 155q17 13 25 23.5t10 18.5l1 4q3 12 -4 19t-20 7q-35 0 -63 -49l-95 60q60 99 174 99q67 0 104.5 -38t25.5 -105q-5 -30 -25.5 -55t-62.5 -59l-55 -47h119l-19 -110h-306zM70 0l518 700h105l-518 -700h-105zM201 700h107l-71 -400h-122l48 271l-81 -22
l-11 107z" />
    <glyph glyph-name="threequarters" unicode="&#xbe;" horiz-adv-x="883" 
d="M134 433q16 -42 56 -42q36 0 40 31q2 15 -7.5 22.5t-27.5 7.5h-25l-31 61l73 77h-129l19 110h281l-15 -85l-79 -83q36 -16 53 -46.5t10 -70.5q-23 -129 -175 -129q-117 0 -150 90zM522 171l156 229h134l-152 -229h42l11 61h116l-11 -61h36l-19 -110h-36l-11 -61h-116
l11 61h-180zM142 0l518 700h105l-518 -700h-105z" />
    <glyph glyph-name="questiondown" unicode="&#xbf;" horiz-adv-x="560" 
d="M47 -156q-58 58 -42 152q8 42 30.5 76.5t49.5 57.5q20 18 41.5 33.5t39 29.5t30 28t14.5 29h160q-7 -46 -38.5 -84t-65.5 -60q-17 -11 -33 -23t-29.5 -25.5t-23 -28t-12.5 -29.5q-5 -26 10 -42t44 -16q45 0 74 23t51 65l130 -83q-19 -38 -48 -68t-64.5 -50.5t-76.5 -31.5
t-85 -11q-98 0 -156 58zM303 324q-20 0 -35.5 8t-26 21t-15 30.5t-1.5 37.5q7 40 38 66.5t74 26.5q19 0 35 -8t26.5 -21t14.5 -31t1 -37q-7 -40 -38 -66.5t-73 -26.5z" />
    <glyph glyph-name="Agrave" unicode="&#xc0;" horiz-adv-x="680" 
d="M317 700h204l115 -700h-175l-14 110h-260l-56 -110h-175zM429 260l-33 265l-134 -265h167zM284 900h173l63 -140h-141z" />
    <glyph glyph-name="Aacute" unicode="&#xc1;" horiz-adv-x="680" 
d="M317 700h204l115 -700h-175l-14 110h-260l-56 -110h-175zM440 900h184l-136 -140h-148zM429 260l-33 265l-134 -265h167z" />
    <glyph glyph-name="Acircumflex" unicode="&#xc2;" horiz-adv-x="680" 
d="M-44 0l361 700h204l115 -700h-175l-14 110h-260l-56 -110h-175zM243 750l132 150h148l80 -150h-145l-23 55l-47 -55h-145zM262 260h167l-33 265z" />
    <glyph glyph-name="Atilde" unicode="&#xc3;" horiz-adv-x="680" 
d="M-44 0l361 700h204l115 -700h-175l-14 110h-260l-56 -110h-175zM258 753q3 28 11 55.5t23 48.5t37.5 34t54.5 13q20 0 39.5 -6t37.5 -19q16 -12 26 -12q18 0 24 35h114q-3 -28 -10.5 -55t-22.5 -48.5t-37.5 -35t-53.5 -13.5q-40 0 -79 25q-18 12 -28 12q-16 0 -22 -34
h-114zM262 260h167l-33 265z" />
    <glyph glyph-name="Adieresis" unicode="&#xc4;" horiz-adv-x="680" 
d="M317 700h204l115 -700h-175l-14 110h-260l-56 -110h-175zM429 260l-33 265l-134 -265h167zM472 762q-18 22 -13 53t31 53t57 22t49 -22t13 -53t-31 -53q-27 -22 -57 -22t-49 22zM282 762q-18 22 -13 53t31 53t57 22t49 -22t13 -53t-31 -53q-27 -22 -57 -22t-49 22z" />
    <glyph glyph-name="Aring" unicode="&#xc5;" horiz-adv-x="680" 
d="M313 693q-24 34 -16 81q4 27 17.5 49.5t34 38t46 24.5t54.5 9q58 0 91 -38t23 -91q-5 -23 -14 -42t-26 -36l113 -688h-175l-14 110h-260l-56 -110h-175zM262 260h167l-33 265zM395 771q-2 -15 5 -25t24 -10q37 0 42 33q3 15 -5 25t-25 10q-34 0 -41 -33z" />
    <glyph glyph-name="AE" unicode="&#xc6;" horiz-adv-x="880" 
d="M-44 0l532 700h436l-27 -154h-240l-21 -117h216l-27 -150h-215l-22 -125h245l-27 -154h-400l19 110h-204l-85 -110h-180zM452 260l34 193l-149 -193h115z" />
    <glyph glyph-name="Ccedilla" unicode="&#xc7;" horiz-adv-x="723" 
d="M95 117q-69 103 -46 243q13 77 50 142t91.5 112t124.5 73.5t149 26.5q100 0 171.5 -42.5t106.5 -120.5l-147 -77q-41 84 -148 84q-48 0 -88 -15t-70.5 -42.5t-51 -66t-28.5 -84.5q-16 -92 28 -151q43 -57 131 -57q114 0 182 89l130 -85q-101 -134 -264 -156l-6 -36
q59 -22 49 -86q-16 -86 -182 -86h-28.5t-30.5 2l18 104q12 -1 22.5 -1.5t19.5 -0.5q53 0 56 16q3 15 -50 20l12 69q-132 22 -201 126z" />
    <glyph glyph-name="Egrave" unicode="&#xc8;" horiz-adv-x="530" 
d="M458 760h-141l-95 140h173zM547 546h-275l-21 -117h251l-27 -150h-250l-22 -125h280l-27 -154h-440l123 700h435z" />
    <glyph glyph-name="Eacute" unicode="&#xc9;" horiz-adv-x="530" 
d="M562 900l-136 -140h-148l100 140h184zM547 546h-275l-21 -117h251l-27 -150h-250l-22 -125h280l-27 -154h-440l123 700h435z" />
    <glyph glyph-name="Ecircumflex" unicode="&#xca;" horiz-adv-x="530" 
d="M16 0l123 700h435l-27 -154h-275l-21 -117h251l-27 -150h-250l-22 -125h280l-27 -154h-440zM313 900h148l80 -150h-145l-23 55l-47 -55h-145z" />
    <glyph glyph-name="Edieresis" unicode="&#xcb;" horiz-adv-x="530" 
d="M16 0l123 700h435l-27 -154h-275l-21 -117h251l-27 -150h-250l-22 -125h280l-27 -154h-440zM410 762q-18 22 -13 53t31 53t57 22t49 -22t13 -53t-31 -53q-27 -22 -57 -22t-49 22zM220 762q-18 22 -13 53t31 53t57 22t49 -22t13 -53t-31 -53q-27 -22 -57 -22t-49 22z" />
    <glyph glyph-name="Igrave" unicode="&#xcc;" horiz-adv-x="280" 
d="M179 760l-95 140h173l63 -140h-141zM16 0h160l123 700h-160z" />
    <glyph glyph-name="Iacute" unicode="&#xcd;" horiz-adv-x="280" 
d="M240 900h184l-136 -140h-148zM16 0h160l123 700h-160z" />
    <glyph glyph-name="Icircumflex" unicode="&#xce;" horiz-adv-x="280" 
d="M16 0l123 700h160l-123 -700h-160zM175 900h148l80 -150h-145l-23 55l-47 -55h-145z" />
    <glyph glyph-name="Idieresis" unicode="&#xcf;" horiz-adv-x="280" 
d="M16 0l123 700h160l-123 -700h-160zM272 762q-18 22 -13 53t31 53t57 22t49 -22t13 -53t-31 -53q-27 -22 -57 -22t-49 22zM82 762q-18 22 -13 53t31 53t57 22t49 -22t13 -53t-31 -53q-27 -22 -57 -22t-49 22z" />
    <glyph glyph-name="Eth" unicode="&#xd0;" horiz-adv-x="753" 
d="M24 268l25 144h80l51 288h280q139 0 221 -106q83 -107 58 -254q-13 -75 -48.5 -137.5t-88.5 -107.5t-121 -70t-144 -25h-280l47 268h-80zM244 154h110q46 0 84.5 15t68.5 41.5t50 63.5t28 81q8 45 1 80t-27 60t-52 38t-74 13h-120l-24 -134h140l-25 -144h-140z" />
    <glyph glyph-name="Ntilde" unicode="&#xd1;" horiz-adv-x="670" 
d="M139 700h120l201 -393l69 393h160l-123 -700h-120l-200 393l-70 -393h-160zM244 753q5 60 28 98t54 52q23 10 49 10q46 0 83 -27q16 -12 28 -12q18 0 24 36h120q-3 -30 -11 -59t-24 -51t-39.5 -35.5t-57.5 -13.5q-44 0 -82 26q-18 12 -28 12q-18 0 -24 -36h-120z" />
    <glyph glyph-name="Ograve" unicode="&#xd2;" horiz-adv-x="788" 
d="M110 96q-89 111 -61 264q15 80 52 145t92.5 111.5t126.5 72t152 25.5q150 0 239 -110q90 -111 63 -264q-14 -79 -51.5 -144.5t-93 -112t-126.5 -72t-151 -25.5q-152 0 -242 110zM209 350q-16 -92 29 -151q45 -57 131 -57q46 0 87 16t73.5 43.5t54.5 65.5t30 83
q16 91 -32 150q-48 58 -134 58q-46 0 -86 -16t-71.5 -44t-52.5 -66t-29 -82zM484 910l63 -140h-141l-95 140h173z" />
    <glyph glyph-name="Oacute" unicode="&#xd3;" horiz-adv-x="788" 
d="M110 96q-89 111 -61 264q15 80 52 145t92.5 111.5t126.5 72t152 25.5q150 0 239 -110q90 -111 63 -264q-14 -79 -51.5 -144.5t-93 -112t-126.5 -72t-151 -25.5q-152 0 -242 110zM209 350q-16 -92 29 -151q45 -57 131 -57q46 0 87 16t73.5 43.5t54.5 65.5t30 83
q16 91 -32 150q-48 58 -134 58q-46 0 -86 -16t-71.5 -44t-52.5 -66t-29 -82zM685 910l-136 -140h-148l100 140h184z" />
    <glyph glyph-name="Ocircumflex" unicode="&#xd4;" horiz-adv-x="788" 
d="M110 96q-89 111 -61 264q15 80 52 145t92.5 111.5t126.5 72t152 25.5q150 0 239 -110q90 -111 63 -264q-14 -79 -51.5 -144.5t-93 -112t-126.5 -72t-151 -25.5q-152 0 -242 110zM209 350q-16 -92 29 -151q45 -57 131 -57q46 0 87 16t73.5 43.5t54.5 65.5t30 83
q16 91 -32 150q-48 58 -134 58q-46 0 -86 -16t-71.5 -44t-52.5 -66t-29 -82zM306 760l132 150h148l80 -150h-145l-23 55l-47 -55h-145z" />
    <glyph glyph-name="Otilde" unicode="&#xd5;" horiz-adv-x="788" 
d="M110 96q-89 111 -61 264q15 80 52 145t92.5 111.5t126.5 72t152 25.5q150 0 239 -110q90 -111 63 -264q-14 -79 -51.5 -144.5t-93 -112t-126.5 -72t-151 -25.5q-152 0 -242 110zM209 350q-16 -92 29 -151q45 -57 131 -57q46 0 87 16t73.5 43.5t54.5 65.5t30 83
q16 91 -32 150q-48 58 -134 58q-46 0 -86 -16t-71.5 -44t-52.5 -66t-29 -82zM300 763q3 28 11 55.5t23 48.5t37.5 34t54.5 13q20 0 39.5 -6t37.5 -19q16 -12 26 -12q18 0 24 35h114q-3 -28 -10.5 -55t-22.5 -48.5t-37.5 -35t-53.5 -13.5q-40 0 -79 25q-18 12 -28 12
q-16 0 -22 -34h-114z" />
    <glyph glyph-name="Odieresis" unicode="&#xd6;" horiz-adv-x="788" 
d="M110 96q-89 111 -61 264q15 80 52 145t92.5 111.5t126.5 72t152 25.5q150 0 239 -110q90 -111 63 -264q-14 -79 -51.5 -144.5t-93 -112t-126.5 -72t-151 -25.5q-152 0 -242 110zM209 350q-16 -92 29 -151q45 -57 131 -57q46 0 87 16t73.5 43.5t54.5 65.5t30 83
q16 91 -32 150q-48 58 -134 58q-46 0 -86 -16t-71.5 -44t-52.5 -66t-29 -82zM528 772q-18 22 -13 53t31 53t57 22t49 -22t13 -53t-31 -53q-27 -22 -57 -22t-49 22zM338 772q-18 22 -13 53t31 53t57 22t49 -22t13 -53t-31 -53q-27 -22 -57 -22t-49 22z" />
    <glyph glyph-name="multiply" unicode="&#xd7;" horiz-adv-x="525" 
d="M513 464l-135 -117l95 -111l-109 -98l-96 114l-131 -114l-89 98l134 117l-94 111l108 98l96 -113l131 113z" />
    <glyph glyph-name="Oslash" unicode="&#xd8;" horiz-adv-x="793" 
d="M108 106q-80 108 -54 254q14 80 51.5 145t93 111.5t126.5 72t152 25.5q100 0 177 -53l52 53l73 -46l-63 -64q43 -51 60 -119.5t3 -144.5q-15 -79 -52.5 -144.5t-92.5 -112t-125.5 -72t-151.5 -25.5q-109 0 -190 60l-59 -60l-73 46zM283 164q38 -22 91 -22q46 0 87 16
t73.5 43.5t54.5 65.5t30 83q8 40 2.5 73.5t-22.5 61.5zM214 350q-12 -73 12 -124l309 315q-37 17 -82 17q-46 0 -86 -16t-71.5 -44t-53 -66t-28.5 -82z" />
    <glyph glyph-name="Ugrave" unicode="&#xd9;" horiz-adv-x="641" 
d="M95 53q-67 67 -49 173l84 474h160l-81 -460q-17 -98 93 -98t127 98l81 460h160l-84 -474q-11 -60 -37 -105t-64.5 -75t-88 -45t-106.5 -15q-127 0 -195 67zM491 760h-141l-95 140h173z" />
    <glyph glyph-name="Uacute" unicode="&#xda;" horiz-adv-x="641" 
d="M95 53q-67 67 -49 173l84 474h160l-81 -460q-17 -98 93 -98t127 98l81 460h160l-84 -474q-11 -60 -37 -105t-64.5 -75t-88 -45t-106.5 -15q-127 0 -195 67zM610 900l-136 -140h-148l100 140h184z" />
    <glyph glyph-name="Ucircumflex" unicode="&#xdb;" horiz-adv-x="641" 
d="M95 53q-67 67 -49 173l84 474h160l-81 -460q-17 -98 93 -98t127 98l81 460h160l-84 -474q-11 -60 -37 -105t-64.5 -75t-88 -45t-106.5 -15q-127 0 -195 67zM356 900h148l80 -150h-145l-23 55l-47 -55h-145z" />
    <glyph glyph-name="Udieresis" unicode="&#xdc;" horiz-adv-x="641" 
d="M95 53q-67 67 -49 173l84 474h160l-81 -460q-17 -98 93 -98t127 98l81 460h160l-84 -474q-11 -60 -37 -105t-64.5 -75t-88 -45t-106.5 -15q-127 0 -195 67zM453 762q-18 22 -13 53t31 53t57 22t49 -22t13 -53t-31 -53q-27 -22 -57 -22t-49 22zM263 762q-18 22 -13 53
t31 53t57 22t49 -22t13 -53t-31 -53q-27 -22 -57 -22t-49 22z" />
    <glyph glyph-name="Yacute" unicode="&#xdd;" horiz-adv-x="610" 
d="M79 700h173l82 -236l164 236h191l-294 -394l-54 -306h-160l54 307zM414 900h184l-136 -140h-148z" />
    <glyph glyph-name="Thorn" unicode="&#xde;" horiz-adv-x="590" 
d="M139 700h160l-19 -110h93q108 0 168 -72q60 -71 45 -178q-8 -56 -33.5 -99t-63.5 -72t-86.5 -44t-103.5 -15h-104l-19 -110h-160zM222 260h93q45 0 74 24t37 66t-11.5 66t-67.5 24h-94z" />
    <glyph glyph-name="germandbls" unicode="&#xdf;" horiz-adv-x="544" 
d="M102 515q34 199 246 199q85 0 138 -51q54 -52 39 -122q-8 -40 -41 -86q-17 -24 -25.5 -40.5t-10.5 -25.5q-3 -10 1.5 -26.5t13 -37t18.5 -44t17.5 -48.5t11 -49.5t-0.5 -47.5q-4 -31 -18 -57.5t-40 -46.5t-64.5 -31.5t-90.5 -11.5q-15 0 -31.5 1t-33.5 3l23 132
q19 -3 35 -3q68 0 77 52q5 29 -37 105t-35 110q3 14 12.5 32t26.5 41q35 47 39 62q7 25 -7.5 39.5t-41.5 14.5q-61 0 -71 -63l-91 -515h-150z" />
    <glyph glyph-name="agrave" unicode="&#xe0;" horiz-adv-x="623" 
d="M63 69q-52 83 -31 193q10 52 34 98t60.5 80.5t83.5 54t103 19.5q94 0 140 -67l9 53h150l-88 -500h-150l6 34q-57 -48 -150 -48q-114 0 -167 83zM182 250q-10 -57 17 -89.5t79 -32.5t91 33t49 88v1q10 57 -17.5 89.5t-79.5 32.5t-90.5 -32.5t-48.5 -89.5zM188 700h173
l63 -140h-141z" />
    <glyph glyph-name="aacute" unicode="&#xe1;" horiz-adv-x="623" 
d="M63 69q-52 83 -31 193q10 52 34 98t60.5 80.5t83.5 54t103 19.5q94 0 140 -67l9 53h150l-88 -500h-150l6 34q-57 -48 -150 -48q-114 0 -167 83zM182 250q-10 -57 17 -89.5t79 -32.5t91 33t49 88v1q10 57 -17.5 89.5t-79.5 32.5t-90.5 -32.5t-48.5 -89.5zM367 700h184
l-136 -140h-148z" />
    <glyph glyph-name="acircumflex" unicode="&#xe2;" horiz-adv-x="623" 
d="M63 69q-52 83 -31 193q10 52 34 98t60.5 80.5t83.5 54t103 19.5q94 0 140 -67l9 53h150l-88 -500h-150l6 34q-57 -48 -150 -48q-114 0 -167 83zM182 250q-10 -57 17 -89.5t79 -32.5t91 33t49 88v1q10 57 -17.5 89.5t-79.5 32.5t-90.5 -32.5t-48.5 -89.5zM320 700h148
l80 -150h-145l-23 55l-47 -55h-145z" />
    <glyph glyph-name="atilde" unicode="&#xe3;" horiz-adv-x="623" 
d="M63 69q-52 83 -31 193q10 52 34 98t60.5 80.5t83.5 54t103 19.5q94 0 140 -67l9 53h150l-88 -500h-150l6 34q-57 -48 -150 -48q-114 0 -167 83zM182 250q-10 -57 17 -89.5t79 -32.5t91 33t49 88v1q10 57 -17.5 89.5t-79.5 32.5t-90.5 -32.5t-48.5 -89.5zM193 553
q3 28 11 55.5t23 48.5t37.5 34t54.5 13q20 0 39.5 -6t37.5 -19q16 -12 26 -12q18 0 24 35h114q-3 -28 -10.5 -55t-22.5 -48.5t-37.5 -35t-53.5 -13.5q-40 0 -79 25q-18 12 -28 12q-16 0 -22 -34h-114z" />
    <glyph glyph-name="adieresis" unicode="&#xe4;" horiz-adv-x="623" 
d="M63 69q-52 83 -31 193q10 52 34 98t60.5 80.5t83.5 54t103 19.5q94 0 140 -67l9 53h150l-88 -500h-150l6 34q-57 -48 -150 -48q-114 0 -167 83zM182 250q-10 -57 17 -89.5t79 -32.5t91 33t49 88v1q10 57 -17.5 89.5t-79.5 32.5t-90.5 -32.5t-48.5 -89.5zM397 562
q-18 22 -13 53t31 53t57 22t49 -22t13 -53t-31 -53q-27 -22 -57 -22t-49 22zM207 562q-18 22 -13 53t31 53t57 22t49 -22t13 -53t-31 -53q-27 -22 -57 -22t-49 22z" />
    <glyph glyph-name="aring" unicode="&#xe5;" horiz-adv-x="623" 
d="M63 69q-52 83 -31 193q10 52 34 98t60.5 80.5t83.5 54t103 19.5q94 0 140 -67l9 53h150l-88 -500h-150l6 34q-57 -48 -150 -48q-114 0 -167 83zM263 573q-33 38 -24 91q4 27 17.5 49.5t34 38t46 24.5t54.5 9q58 0 91 -38t23 -91q-9 -54 -50.5 -87.5t-101.5 -33.5
q-57 0 -90 38zM182 250q-10 -57 17 -89.5t79 -32.5t91 33t49 88v1q10 57 -17.5 89.5t-79.5 32.5t-90.5 -32.5t-48.5 -89.5zM337 661q-2 -15 5 -25t24 -10q37 0 42 33q3 15 -5 25t-25 10q-34 0 -41 -33z" />
    <glyph glyph-name="ae" unicode="&#xe6;" horiz-adv-x="970" 
d="M63 69q-52 83 -31 193q10 52 34 98t60.5 80.5t83.5 54t103 19.5q96 0 141 -61l8 47h140l-6 -32q64 46 153 46q104 0 157 -75q26 -37 35.5 -84t-1.5 -105q-3 -16 -7 -31t-9 -29h-358q10 -70 103 -70q63 0 105 39l105 -86q-86 -87 -200 -87q-104 0 -156 63l-9 -49h-140
l8 45q-65 -59 -152 -59q-114 0 -167 83zM180 250q-10 -55 17 -88.5t81 -33.5q52 0 91 33t49 88v1q10 57 -17.5 89.5t-79.5 32.5q-54 0 -92.5 -33.5t-48.5 -88.5zM799 304q-8 77 -90 77q-83 0 -122 -77h212z" />
    <glyph glyph-name="ccedilla" unicode="&#xe7;" horiz-adv-x="535" 
d="M63 88q-46 73 -31 172q8 56 34.5 102.5t66.5 80.5t90.5 52.5t106.5 18.5q78 0 133 -35t80 -95l-137 -72q-23 54 -89 54q-25 0 -47.5 -8.5t-40.5 -23.5t-30.5 -36t-16.5 -46q-9 -51 18 -84.5t76 -33.5q63 0 104 56l121 -77q-63 -103 -183 -122l-6 -37q59 -22 49 -86
q-16 -86 -182 -86h-28.5t-30.5 2l18 104q12 -1 22.5 -1.5t19.5 -0.5q53 0 56 16q3 15 -50 20l13 71q-90 23 -136 95z" />
    <glyph glyph-name="egrave" unicode="&#xe8;" horiz-adv-x="582" 
d="M78 65q-65 81 -46 195q8 55 35 101.5t67.5 80.5t91 53t105.5 19q112 0 176 -76q66 -78 45 -188q-2 -16 -6.5 -31t-9.5 -29h-358q10 -70 103 -70q63 0 105 39l105 -86q-86 -87 -220 -87q-127 0 -193 79zM182 705h173l63 -140h-141zM321 381q-83 0 -122 -77h212
q-8 77 -90 77z" />
    <glyph glyph-name="eacute" unicode="&#xe9;" horiz-adv-x="582" 
d="M78 65q-65 81 -46 195q8 55 35 101.5t67.5 80.5t91 53t105.5 19q112 0 176 -76q66 -78 45 -188q-2 -16 -6.5 -31t-9.5 -29h-358q10 -70 103 -70q63 0 105 39l105 -86q-86 -87 -220 -87q-127 0 -193 79zM351 705h184l-136 -140h-148zM321 381q-83 0 -122 -77h212
q-8 77 -90 77z" />
    <glyph glyph-name="ecircumflex" unicode="&#xea;" horiz-adv-x="582" 
d="M78 65q-65 81 -46 195q8 55 35 101.5t67.5 80.5t91 53t105.5 19q112 0 176 -76q66 -78 45 -188q-2 -16 -6.5 -31t-9.5 -29h-358q10 -70 103 -70q63 0 105 39l105 -86q-86 -87 -220 -87q-127 0 -193 79zM168 555l132 150h148l80 -150h-145l-23 55l-47 -55h-145zM321 381
q-83 0 -122 -77h212q-8 77 -90 77z" />
    <glyph glyph-name="edieresis" unicode="&#xeb;" horiz-adv-x="582" 
d="M78 65q-65 81 -46 195q8 55 35 101.5t67.5 80.5t91 53t105.5 19q112 0 176 -76q66 -78 45 -188q-2 -16 -6.5 -31t-9.5 -29h-358q10 -70 103 -70q63 0 105 39l105 -86q-86 -87 -220 -87q-127 0 -193 79zM210 567q-18 22 -13 53t31 53t57 22t49 -22t13 -53t-31 -53
q-27 -22 -57 -22t-49 22zM400 567q-18 22 -13 53t31 53t57 22t49 -22t13 -53t-31 -53q-27 -22 -57 -22t-49 22zM321 381q-83 0 -122 -77h212q-8 77 -90 77z" />
    <glyph glyph-name="igrave" unicode="&#xec;" horiz-adv-x="260" 
d="M114 550l-45 150h160l24 -150h-139zM249 500h-150l-88 -500h150z" />
    <glyph glyph-name="iacute" unicode="&#xed;" horiz-adv-x="260" 
d="M174 700h170l-92 -150h-144zM161 0l88 500h-150l-88 -500h150z" />
    <glyph glyph-name="icircumflex" unicode="&#xee;" horiz-adv-x="260" 
d="M11 0l88 500h150l-88 -500h-150zM135 700h148l70 -150h-140l-19 44l-31 -44h-150z" />
    <glyph glyph-name="idieresis" unicode="&#xef;" horiz-adv-x="260" 
d="M11 0l88 500h150l-88 -500h-150zM223 567q-18 22 -13 53t31 53t57 22t49 -22t13 -53t-31 -53q-27 -22 -57 -22t-49 22zM43 567q-18 22 -13 53t31 53t57 22t49 -22t13 -53t-31 -53q-27 -22 -57 -22t-49 22z" />
    <glyph glyph-name="eth" unicode="&#xf0;" horiz-adv-x="569" 
d="M534 220q-9 -56 -35.5 -99.5t-65.5 -73t-88 -44.5t-104 -15q-49 0 -92 19t-73 52.5t-44 79.5t-4 101q8 46 32 85.5t58.5 68t77.5 44.5t90 16l-37 68l-144 -60l18 105l83 34l-54 99h157l26 -45l142 59l-18 -105l-78 -32l121 -207q44 -75 32 -150zM178 230q-9 -48 14 -75
t71 -27t80.5 27t40.5 75q6 33 -8 59q-20 39 -78 39q-46 0 -79.5 -26.5t-40.5 -71.5z" />
    <glyph glyph-name="ntilde" unicode="&#xf1;" 
d="M11 0l88 500h150l-8 -47q55 61 147 61q80 0 127 -56q46 -55 30 -151l-54 -307h-150l50 285q8 46 -12.5 68.5t-59.5 22.5q-40 0 -69.5 -24t-39.5 -73l-49 -279h-150zM165 563q5 60 28 98t54 52q23 10 49 10q46 0 83 -27q16 -12 28 -12q18 0 24 36h120q-3 -30 -11 -59
t-24 -51t-39.5 -35.5t-57.5 -13.5q-44 0 -82 26q-18 12 -28 12q-18 0 -24 -36h-120z" />
    <glyph glyph-name="ograve" unicode="&#xf2;" horiz-adv-x="590" 
d="M117 29q-58 45 -77.5 108t-5.5 133q21 102 101 173t199 71t181 -87q62 -86 42 -193q-9 -53 -36 -98t-66 -78.5t-88 -52.5t-103 -19q-89 0 -147 43zM184 250q-9 -54 16 -86t74 -32t87 32t47 86t-17 86t-75 32t-85.5 -32t-46.5 -86zM415 570h-141l-95 140h173z" />
    <glyph glyph-name="oacute" unicode="&#xf3;" horiz-adv-x="590" 
d="M117 29q-58 45 -77.5 108t-5.5 133q11 55 38.5 100t67 77t89 49.5t105.5 17.5q119 0 181 -87q62 -86 42 -193q-9 -53 -36 -98t-66 -78.5t-88 -52.5t-103 -19q-89 0 -147 43zM184 250q-9 -54 16 -86t74 -32t87 32t47 86t-17 86t-75 32t-85.5 -32t-46.5 -86zM365 710h184
l-136 -140h-148z" />
    <glyph glyph-name="ocircumflex" unicode="&#xf4;" horiz-adv-x="590" 
d="M117 29q-58 45 -77.5 108t-5.5 133q11 55 38.5 100t67 77t89 49.5t105.5 17.5q119 0 181 -87q62 -86 42 -193q-9 -53 -36 -98t-66 -78.5t-88 -52.5t-103 -19q-89 0 -147 43zM184 250q-9 -54 16 -86t74 -32t87 32t47 86t-17 86t-75 32t-85.5 -32t-46.5 -86zM301 710h148
l80 -150h-145l-23 55l-47 -55h-145z" />
    <glyph glyph-name="otilde" unicode="&#xf5;" horiz-adv-x="590" 
d="M117 29q-58 45 -77.5 108t-5.5 133q11 55 38.5 100t67 77t89 49.5t105.5 17.5q119 0 181 -87q62 -86 42 -193q-9 -53 -36 -98t-66 -78.5t-88 -52.5t-103 -19q-89 0 -147 43zM184 250q-9 -54 16 -86t74 -32t87 32t47 86t-17 86t-75 32t-85.5 -32t-46.5 -86zM161 563
q3 28 11 55.5t23 48.5t37.5 34t54.5 13q20 0 39.5 -6t37.5 -19q16 -12 26 -12q18 0 24 35h114q-3 -28 -10.5 -55t-22.5 -48.5t-37.5 -35t-53.5 -13.5q-40 0 -79 25q-18 12 -28 12q-16 0 -22 -34h-114z" />
    <glyph glyph-name="odieresis" unicode="&#xf6;" horiz-adv-x="590" 
d="M117 29q-58 45 -77.5 108t-5.5 133q11 55 38.5 100t67 77t89 49.5t105.5 17.5q119 0 181 -87q62 -86 42 -193q-9 -53 -36 -98t-66 -78.5t-88 -52.5t-103 -19q-89 0 -147 43zM184 250q-9 -54 16 -86t74 -32t87 32t47 86t-17 86t-75 32t-85.5 -32t-46.5 -86zM394 572
q-18 22 -13 53t31 53t57 22t49 -22t13 -53t-31 -53q-27 -22 -57 -22t-49 22zM204 572q-18 22 -13 53t31 53t57 22t49 -22t13 -53t-31 -53q-27 -22 -57 -22t-49 22z" />
    <glyph glyph-name="divide" unicode="&#xf7;" horiz-adv-x="560" 
d="M45 280l25 140h480l-25 -140h-480zM188 90q-11 13 -14.5 30.5t-0.5 35t12.5 34t24.5 28.5q31 25 68 25t60 -27q11 -14 14.5 -31t0.5 -34.5t-12.5 -34t-24.5 -28.5q-31 -25 -68 -25q-17 0 -33 6.5t-27 20.5zM257 484q-11 13 -14.5 30.5t-0.5 35t12.5 34t24.5 28.5
q31 25 68 25t60 -27q11 -14 14.5 -31t0.5 -34.5t-12.5 -34t-24.5 -28.5q-30 -25 -66 -25q-38 0 -62 27z" />
    <glyph glyph-name="oslash" unicode="&#xf8;" horiz-adv-x="590" 
d="M74 72q-63 83 -40 198q11 55 38.5 100t67 77t89 49.5t105.5 17.5q79 0 135 -41l36 37l63 -35l-50 -51q59 -83 39 -190q-11 -55 -37 -100.5t-64 -78.5t-87 -51t-105 -18q-81 0 -141 39l-34 -35l-63 34zM184 250q-6 -38 4 -62l170 172q-22 8 -42 8q-49 0 -85.5 -32
t-46.5 -86zM236 138q16 -6 38 -6q49 0 87 32t47 86q6 34 -3 60z" />
    <glyph glyph-name="ugrave" unicode="&#xf9;" 
d="M64 41q-46 55 -29 152l54 307h150l-50 -285q-8 -46 12.5 -68.5t59.5 -22.5q40 0 69.5 24t39.5 73l49 279h150l-88 -500h-150l8 47q-55 -61 -147 -61q-82 0 -128 55zM351 700l63 -140h-141l-95 140h173z" />
    <glyph glyph-name="uacute" unicode="&#xfa;" 
d="M64 41q-46 55 -29 152l54 307h150l-50 -285q-8 -46 12.5 -68.5t59.5 -22.5q40 0 69.5 24t39.5 73l49 279h150l-88 -500h-150l8 47q-55 -61 -147 -61q-82 0 -128 55zM259 560l100 140h184l-136 -140h-148z" />
    <glyph glyph-name="ucircumflex" unicode="&#xfb;" 
d="M64 41q-46 55 -29 152l54 307h150l-50 -285q-8 -46 12.5 -68.5t59.5 -22.5q40 0 69.5 24t39.5 73l49 279h150l-88 -500h-150l8 47q-55 -61 -147 -61q-82 0 -128 55zM147 550l132 150h148l80 -150h-145l-23 55l-47 -55h-145z" />
    <glyph glyph-name="udieresis" unicode="&#xfc;" 
d="M64 41q-46 55 -29 152l54 307h150l-50 -285q-8 -46 12.5 -68.5t59.5 -22.5q40 0 69.5 24t39.5 73l49 279h150l-88 -500h-150l8 47q-55 -61 -147 -61q-82 0 -128 55zM376 562q-18 22 -13 53t31 53t57 22t49 -22t13 -53t-31 -53q-27 -22 -57 -22t-49 22zM186 562
q-18 22 -13 53t31 53t57 22t49 -22t13 -53t-31 -53q-27 -22 -57 -22t-49 22z" />
    <glyph glyph-name="yacute" unicode="&#xfd;" horiz-adv-x="530" 
d="M318 15q-25 -47 -54 -87t-65 -68.5t-81 -44.5t-101 -16q-5 0 -10.5 0.5t-11.5 0.5l24 140q27 0 46.5 4t35.5 13.5t29 25t25 39.5l-111 478h154l62 -306l148 306h166zM335 700h184l-136 -140h-148z" />
    <glyph glyph-name="thorn" unicode="&#xfe;" horiz-adv-x="623" 
d="M-24 -200l158 900h150l-42 -242q62 56 149 56q106 0 162 -83q55 -81 38 -191q-15 -101 -89 -178q-73 -76 -184 -76q-100 0 -147 71l-45 -257h-150zM205 250q-10 -55 17 -88.5t81 -33.5q52 0 90 32.5t48 89.5t-16.5 89.5t-78.5 32.5q-54 0 -92.5 -33.5t-48.5 -88.5z" />
    <glyph glyph-name="ydieresis" unicode="&#xff;" horiz-adv-x="530" 
d="M318 15q-25 -47 -54 -87t-65 -68.5t-81 -44.5t-101 -16q-5 0 -10.5 0.5t-11.5 0.5l24 140q27 0 46.5 4t35.5 13.5t29 25t25 39.5l-111 478h154l62 -306l148 306h166zM348 562q-18 22 -13 53t31 53t57 22t49 -22t13 -53t-31 -53q-27 -22 -57 -22t-49 22zM158 562
q-18 22 -13 53t31 53t57 22t49 -22t13 -53t-31 -53q-27 -22 -57 -22t-49 22z" />
    <glyph glyph-name="Amacron" unicode="&#x100;" horiz-adv-x="680" 
d="M317 700h204l115 -700h-175l-14 110h-260l-56 -110h-175zM280 759l21 120h300l-21 -120h-300zM429 260l-33 265l-134 -265h167z" />
    <glyph glyph-name="amacron" unicode="&#x101;" horiz-adv-x="623" 
d="M63 69q-52 83 -31 193q10 52 34 98t60.5 80.5t83.5 54t103 19.5q94 0 140 -67l9 53h150l-88 -500h-150l6 34q-57 -48 -150 -48q-114 0 -167 83zM182 250q-10 -57 17 -89.5t79 -32.5t91 33t49 88v1q10 57 -17.5 89.5t-79.5 32.5t-90.5 -32.5t-48.5 -89.5zM205 559l21 120
h300l-21 -120h-300z" />
    <glyph glyph-name="Abreve" unicode="&#x102;" horiz-adv-x="680" 
d="M-44 0l361 700h204l115 -700h-175l-14 110h-260l-56 -110h-175zM434 742q-85 0 -127 40.5t-29 109.5h132q-8 -46 35 -46q44 0 51 46h132q-11 -72 -60 -111t-134 -39zM429 260l-33 265l-134 -265h167z" />
    <glyph glyph-name="abreve" unicode="&#x103;" horiz-adv-x="623" 
d="M63 69q-52 83 -31 193q10 52 34 98t60.5 80.5t83.5 54t103 19.5q94 0 140 -67l9 53h150l-88 -500h-150l6 34q-57 -48 -150 -48q-114 0 -167 83zM182 250q-10 -57 17 -89.5t79 -32.5t91 33t49 88v1q10 57 -17.5 89.5t-79.5 32.5t-90.5 -32.5t-48.5 -89.5zM378 542
q-85 0 -127 40.5t-29 109.5h132q-8 -46 35 -46q44 0 51 46h132q-11 -72 -60 -111t-134 -39z" />
    <glyph glyph-name="Aogonek" unicode="&#x104;" horiz-adv-x="680" 
d="M317 700h204l115 -700q-53 -47 -60 -78q-3 -12 2 -20.5t16 -8.5q13 0 24 4l-17 -94q-46 -17 -91 -17q-43 0 -67.5 27.5t-16.5 73.5q11 57 80 113h-45l-14 110h-260l-56 -110h-175zM429 260l-33 265l-134 -265h167z" />
    <glyph glyph-name="aogonek" unicode="&#x105;" horiz-adv-x="623" 
d="M63 69q-52 83 -31 193q10 52 34 98t60.5 80.5t83.5 54t103 19.5q94 0 140 -67l9 53h150l-88 -500q-24 -22 -41.5 -48.5t-19.5 -43.5q-1 -19 18 -19q13 0 24 4l-16 -90q-36 -17 -79 -17q-48 0 -76.5 24t-19.5 69q9 51 86 121h-26l6 34q-57 -48 -150 -48q-114 0 -167 83z
M182 250q-10 -57 17 -89.5t79 -32.5t91 33t49 88v1q10 57 -17.5 89.5t-79.5 32.5t-90.5 -32.5t-48.5 -89.5z" />
    <glyph glyph-name="Cacute" unicode="&#x106;" horiz-adv-x="723" 
d="M111 95q-88 108 -62 265q13 77 50 142t91.5 112t124.5 73.5t149 26.5q100 0 171.5 -42.5t106.5 -120.5l-147 -77q-41 84 -148 84q-48 0 -88 -15t-70.5 -42.5t-51 -66t-28.5 -84.5q-16 -92 28 -151q43 -57 131 -57q114 0 182 89l130 -85q-57 -75 -140.5 -117.5
t-180.5 -42.5q-160 0 -248 109zM681 910l-136 -140h-148l100 140h184z" />
    <glyph glyph-name="cacute" unicode="&#x107;" horiz-adv-x="535" 
d="M80 65q-66 79 -48 195q17 110 101 182t197 72q78 0 133 -35t80 -95l-137 -72q-23 54 -89 54q-25 0 -47.5 -8.5t-40.5 -23.5t-30.5 -36t-16.5 -46q-9 -51 18 -84.5t76 -33.5q63 0 104 56l121 -77q-38 -63 -101 -95t-135 -32q-119 0 -185 79zM533 700l-136 -140h-148
l100 140h184z" />
    <glyph glyph-name="Cdotaccent" unicode="&#x10a;" horiz-adv-x="723" 
d="M111 95q-88 108 -62 265q13 77 50 142t91.5 112t124.5 73.5t149 26.5q100 0 171.5 -42.5t106.5 -120.5l-147 -77q-41 84 -148 84q-48 0 -88 -15t-70.5 -42.5t-51 -66t-28.5 -84.5q-16 -92 28 -151q43 -57 131 -57q114 0 182 89l130 -85q-57 -75 -140.5 -117.5
t-180.5 -42.5q-160 0 -248 109zM485 755q-18 0 -32 7t-24 18.5t-13.5 27t-0.5 32.5q3 18 12.5 33.5t23 27t30 18t33.5 6.5q18 0 32 -7t24 -18.5t14 -27t1 -32.5q-3 -18 -12.5 -33.5t-23.5 -27t-30.5 -18t-33.5 -6.5z" />
    <glyph glyph-name="cdotaccent" unicode="&#x10b;" horiz-adv-x="535" 
d="M80 65q-66 79 -48 195q8 56 34.5 102.5t66.5 80.5t90.5 52.5t106.5 18.5q78 0 133 -35t80 -95l-137 -72q-23 54 -89 54q-25 0 -47.5 -8.5t-40.5 -23.5t-30.5 -36t-16.5 -46q-9 -51 18 -84.5t76 -33.5q63 0 104 56l121 -77q-38 -63 -101 -95t-135 -32q-119 0 -185 79z
M337 545q-18 0 -32 7t-24 18.5t-13.5 27t-0.5 32.5q3 18 12.5 33.5t23 27t30 18t33.5 6.5q18 0 32 -7t24 -18.5t14 -27t1 -32.5q-3 -18 -12.5 -33.5t-23.5 -27t-30.5 -18t-33.5 -6.5z" />
    <glyph glyph-name="Ccaron" unicode="&#x10c;" horiz-adv-x="723" 
d="M111 95q-88 108 -62 265q13 77 50 142t91.5 112t124.5 73.5t149 26.5q100 0 171.5 -42.5t106.5 -120.5l-147 -77q-41 84 -148 84q-48 0 -88 -15t-70.5 -42.5t-51 -66t-28.5 -84.5q-16 -92 28 -151q43 -57 131 -57q114 0 182 89l130 -85q-57 -75 -140.5 -117.5
t-180.5 -42.5q-160 0 -248 109zM326 910h140l25 -55l45 55h150l-132 -150h-148z" />
    <glyph glyph-name="ccaron" unicode="&#x10d;" horiz-adv-x="535" 
d="M80 65q-66 79 -48 195q8 56 34.5 102.5t66.5 80.5t90.5 52.5t106.5 18.5q78 0 133 -35t80 -95l-137 -72q-23 54 -89 54q-25 0 -47.5 -8.5t-40.5 -23.5t-30.5 -36t-16.5 -46q-9 -51 18 -84.5t76 -33.5q63 0 104 56l121 -77q-38 -63 -101 -95t-135 -32q-119 0 -185 79z
M178 700h140l25 -55l45 55h150l-132 -150h-148z" />
    <glyph glyph-name="Dcaron" unicode="&#x10e;" horiz-adv-x="712" 
d="M139 700h280q139 0 221 -106q83 -107 58 -254q-13 -75 -48.5 -137.5t-88.5 -107.5t-121 -70t-144 -25h-280zM203 154h110q46 0 84.5 15t68.5 41.5t50 63.5t28 81q8 45 1 80t-27 60t-52 38t-74 13h-120zM249 900h140l25 -55l45 55h150l-132 -150h-148z" />
    <glyph glyph-name="dcaron" unicode="&#x10f;" horiz-adv-x="751" 
d="M63 69q-52 83 -31 193q10 52 34 98t60.5 80.5t83.5 54t103 19.5q96 0 141 -69l45 255h150l-123 -700h-150l6 36q-59 -50 -152 -50q-114 0 -167 83zM182 250q-10 -55 17 -88.5t81 -33.5q51 0 89.5 31.5t49.5 85.5l2 10q7 54 -20 85.5t-78 31.5q-54 0 -92.5 -33.5
t-48.5 -88.5zM700 700h140l-67 -210h-120z" />
    <glyph glyph-name="Dcroat" unicode="&#x110;" horiz-adv-x="753" 
d="M51 275l23 132h53l53 293h280q139 0 221 -106q83 -107 58 -254q-13 -75 -48.5 -137.5t-88.5 -107.5t-121 -70t-144 -25h-280l48 275h-54zM354 154q46 0 84.5 15t68.5 41.5t50 63.5t28 81q8 45 1 80t-27 60t-52 38t-74 13h-120l-26 -139h119l-23 -132h-118l-21 -121h110z
" />
    <glyph glyph-name="dcroat" unicode="&#x111;" horiz-adv-x="628" 
d="M63 69q-52 83 -31 193q10 52 34 98t60.5 80.5t83.5 54t103 19.5q96 0 141 -69l18 101h-142l17 94h141l11 60h150l-11 -60h59l-17 -94h-58l-96 -546h-150l6 36q-59 -50 -152 -50q-114 0 -167 83zM182 250q-10 -55 17 -88.5t81 -33.5q51 0 89.5 31.5t49.5 85.5l2 10
q7 54 -20 85.5t-78 31.5q-54 0 -92.5 -33.5t-48.5 -88.5z" />
    <glyph glyph-name="Emacron" unicode="&#x112;" horiz-adv-x="530" 
d="M539 879l-21 -120h-300l21 120h300zM547 546h-275l-21 -117h251l-27 -150h-250l-22 -125h280l-27 -154h-440l123 700h435z" />
    <glyph glyph-name="emacron" unicode="&#x113;" horiz-adv-x="582" 
d="M78 65q-65 81 -46 195q8 55 35 101.5t67.5 80.5t91 53t105.5 19q112 0 176 -76q66 -78 45 -188q-2 -16 -6.5 -31t-9.5 -29h-358q10 -70 103 -70q63 0 105 39l105 -86q-86 -87 -220 -87q-127 0 -193 79zM229 684h300l-21 -120h-300zM321 381q-83 0 -122 -77h212
q-8 77 -90 77z" />
    <glyph glyph-name="Edotaccent" unicode="&#x116;" horiz-adv-x="530" 
d="M16 0l123 700h435l-27 -154h-275l-21 -117h251l-27 -150h-250l-22 -125h280l-27 -154h-440zM366 745q-18 0 -32 7t-24 18.5t-13.5 27t-0.5 32.5q3 18 12.5 33.5t23 27t30 18t33.5 6.5q18 0 32 -7t24 -18.5t14 -27t1 -32.5q-3 -18 -12.5 -33.5t-23.5 -27t-30.5 -18
t-33.5 -6.5z" />
    <glyph glyph-name="edotaccent" unicode="&#x117;" horiz-adv-x="582" 
d="M78 65q-65 81 -46 195q8 55 35 101.5t67.5 80.5t91 53t105.5 19q112 0 176 -76q66 -78 45 -188q-2 -16 -6.5 -31t-9.5 -29h-358q10 -70 103 -70q63 0 105 39l105 -86q-86 -87 -220 -87q-127 0 -193 79zM356 550q-18 0 -32 7t-24 18.5t-13.5 27t-0.5 32.5q3 18 12.5 33.5
t23 27t30 18t33.5 6.5q18 0 32 -7t24 -18.5t14 -27t1 -32.5q-3 -18 -12.5 -33.5t-23.5 -27t-30.5 -18t-33.5 -6.5zM411 304q-8 77 -90 77q-83 0 -122 -77h212z" />
    <glyph glyph-name="Eogonek" unicode="&#x118;" horiz-adv-x="530" 
d="M139 700h435l-27 -154h-275l-21 -117h251l-27 -150h-250l-22 -125h280l-27 -154q-51 -48 -60 -85q-6 -26 17 -26h3q4 0 9 1t12 3l-16 -90q-46 -17 -91 -17t-68.5 23t-15.5 68q11 57 86 123h-316z" />
    <glyph glyph-name="eogonek" unicode="&#x119;" horiz-adv-x="582" 
d="M78 65q-65 81 -46 195q8 55 35 101.5t67.5 80.5t91 53t105.5 19q112 0 176 -76q66 -78 45 -188q-2 -16 -6.5 -31t-9.5 -29h-358q10 -70 103 -70q63 0 105 39l105 -86q-20 -20 -41 -35q-79 -67 -92 -119q-8 -30 20 -30q13 0 22 4l-16 -90q-39 -17 -82 -17q-54 0 -78 26
t-17 65q9 51 79 109h-15q-127 0 -193 79zM321 381q-83 0 -122 -77h212q-8 77 -90 77z" />
    <glyph glyph-name="Ecaron" unicode="&#x11a;" horiz-adv-x="530" 
d="M16 0l123 700h435l-27 -154h-275l-21 -117h251l-27 -150h-250l-22 -125h280l-27 -154h-440zM347 900l25 -55l45 55h150l-132 -150h-148l-80 150h140z" />
    <glyph glyph-name="ecaron" unicode="&#x11b;" horiz-adv-x="582" 
d="M78 65q-65 81 -46 195q8 55 35 101.5t67.5 80.5t91 53t105.5 19q112 0 176 -76q66 -78 45 -188q-2 -16 -6.5 -31t-9.5 -29h-358q10 -70 103 -70q63 0 105 39l105 -86q-86 -87 -220 -87q-127 0 -193 79zM197 705h140l25 -55l45 55h150l-132 -150h-148zM321 381
q-83 0 -122 -77h212q-8 77 -90 77z" />
    <glyph glyph-name="Gbreve" unicode="&#x11e;" horiz-adv-x="784" 
d="M111 95q-88 108 -62 265q13 77 50 142t91.5 112t124.5 73.5t149 26.5q105 0 179.5 -43.5t113.5 -124.5l-147 -77q-48 89 -163 89q-48 0 -88 -15t-71 -42.5t-51 -66t-28 -84.5q-17 -95 29 -151q46 -57 140 -57q149 0 205 108h-180l24 140h351l-10 -60q-13 -79 -48 -142.5
t-88 -108.5t-121.5 -69t-148.5 -24q-163 0 -251 109zM491 752q-85 0 -127 40.5t-29 109.5h132q-8 -46 35 -46q44 0 51 46h132q-11 -72 -60 -111t-134 -39z" />
    <glyph glyph-name="gbreve" unicode="&#x11f;" horiz-adv-x="624" 
d="M240 -214q-178 0 -233 121l134 70q29 -59 110 -59q54 0 88.5 27.5t43.5 79.5l6 35q-59 -54 -150 -54q-115 0 -169 79q-54 80 -36 187q9 51 32.5 95.5t59.5 77t82 51t99 18.5q107 0 150 -73l10 59h146l-84 -475q-11 -63 -36.5 -108t-63 -74.5t-85.5 -43t-104 -13.5z
M183 260q-9 -51 18.5 -82.5t81.5 -31.5q51 0 89.5 29t50.5 75l4 21q4 46 -24 74.5t-79 28.5q-54 0 -93 -31.5t-48 -82.5zM355 552q-85 0 -127 40.5t-29 109.5h132q-8 -46 35 -46q44 0 51 46h132q-11 -72 -60 -111t-134 -39z" />
    <glyph glyph-name="Gdotaccent" unicode="&#x120;" horiz-adv-x="784" 
d="M111 95q-88 108 -62 265q13 77 50 142t91.5 112t124.5 73.5t149 26.5q105 0 179.5 -43.5t113.5 -124.5l-147 -77q-48 89 -163 89q-48 0 -88 -15t-71 -42.5t-51 -66t-28 -84.5q-17 -95 29 -151q46 -57 140 -57q149 0 205 108h-180l24 140h351l-10 -60q-13 -79 -48 -142.5
t-88 -108.5t-121.5 -69t-148.5 -24q-163 0 -251 109zM485 755q-18 0 -32 7t-24 18.5t-13.5 27t-0.5 32.5q3 18 12.5 33.5t23 27t30 18t33.5 6.5q18 0 32 -7t24 -18.5t14 -27t1 -32.5q-3 -18 -12.5 -33.5t-23.5 -27t-30.5 -18t-33.5 -6.5z" />
    <glyph glyph-name="gdotaccent" unicode="&#x121;" horiz-adv-x="624" 
d="M240 -214q-178 0 -233 121l134 70q29 -59 110 -59q54 0 88.5 27.5t43.5 79.5l6 35q-59 -54 -150 -54q-115 0 -169 79q-54 80 -36 187q9 51 32.5 95.5t59.5 77t82 51t99 18.5q107 0 150 -73l10 59h146l-84 -475q-11 -63 -36.5 -108t-63 -74.5t-85.5 -43t-104 -13.5z
M183 260q-9 -51 18.5 -82.5t81.5 -31.5q51 0 89.5 29t50.5 75l4 21q4 46 -24 74.5t-79 28.5q-54 0 -93 -31.5t-48 -82.5zM349 555q-18 0 -32 7t-24 18.5t-13.5 27t-0.5 32.5q3 18 12.5 33.5t23 27t30 18t33.5 6.5q18 0 32 -7t24 -18.5t14 -27t1 -32.5q-3 -18 -12.5 -33.5
t-23.5 -27t-30.5 -18t-33.5 -6.5z" />
    <glyph glyph-name="uni0122" unicode="&#x122;" horiz-adv-x="784" 
d="M111 95q-88 108 -62 265q13 77 50 142t91.5 112t124.5 73.5t149 26.5q105 0 179.5 -43.5t113.5 -124.5l-147 -77q-48 89 -163 89q-48 0 -88 -15t-71 -42.5t-51 -66t-28 -84.5q-17 -95 29 -151q46 -57 140 -57q149 0 205 108h-180l24 140h351l-10 -60q-13 -79 -48 -142.5
t-88 -108.5t-121.5 -69t-148.5 -24q-163 0 -251 109zM278 -60h140l-67 -210h-120z" />
    <glyph glyph-name="uni0123" unicode="&#x123;" horiz-adv-x="624" 
d="M141 -23q29 -59 110 -59q54 0 88.5 27.5t43.5 79.5l6 35q-59 -54 -150 -54q-115 0 -169 79q-54 80 -36 187q9 51 32.5 95.5t59.5 77t82 51t99 18.5q107 0 150 -73l10 59h146l-84 -475q-11 -63 -36.5 -108t-63 -74.5t-85.5 -43t-104 -13.5q-178 0 -233 121zM183 260
q-9 -51 18.5 -82.5t81.5 -31.5q51 0 89.5 29t50.5 75l4 21q4 46 -24 74.5t-79 28.5q-54 0 -93 -31.5t-48 -82.5zM343 790h120l-47 -210h-140z" />
    <glyph glyph-name="Hbar" unicode="&#x126;" horiz-adv-x="700" 
d="M123 497h-59l20 116h60l15 87h160l-15 -87h220l15 87h160l-15 -87h60l-20 -116h-61l-87 -497h-160l44 253h-220l-44 -253h-160zM268 407h220l15 90h-220z" />
    <glyph glyph-name="hbar" unicode="&#x127;" horiz-adv-x="585" 
d="M16 0l96 546h-60l17 94h59l11 60h150l-11 -60h141l-17 -94h-140l-16 -93q55 61 147 61q80 0 127 -56q46 -55 30 -151l-54 -307h-150l50 285q8 46 -12.5 68.5t-59.5 22.5q-42 0 -71.5 -25.5t-38.5 -77.5l-48 -273h-150z" />
    <glyph glyph-name="Itilde" unicode="&#x128;" horiz-adv-x="280" 
d="M16 0l123 700h160l-123 -700h-160zM49 753q5 60 28 98.5t55 51.5q22 9 49 9q21 0 41.5 -6t40.5 -20q16 -12 28 -12q18 0 24 36h120q-5 -60 -28 -98t-54 -52q-23 -10 -49 -10q-44 0 -83 27q-18 12 -28 12q-18 0 -24 -36h-120z" />
    <glyph glyph-name="itilde" unicode="&#x129;" horiz-adv-x="260" 
d="M99 500h150l-88 -500h-150zM28 553q5 60 24 98.5t47 51.5q19 9 42 9q18 0 36 -6t35 -20q15 -12 24 -12q15 0 21 36h103q-5 -60 -24 -99t-47 -51q-21 -9 -43 -9q-38 0 -70 26q-15 12 -25 12q-14 0 -20 -36h-103z" />
    <glyph glyph-name="Imacron" unicode="&#x12a;" horiz-adv-x="280" 
d="M80 759l21 120h300l-21 -120h-300zM139 700h160l-123 -700h-160z" />
    <glyph glyph-name="imacron" unicode="&#x12b;" horiz-adv-x="260" 
d="M65 559l22 130h240l-22 -130h-240zM11 0l88 500h150l-88 -500h-150z" />
    <glyph glyph-name="Iogonek" unicode="&#x12e;" horiz-adv-x="280" 
d="M65 -214q-45 0 -67 25t-18 64q7 61 71 125h-35l123 700h160l-123 -700q-47 -54 -48 -86q-1 -25 20 -25h3q4 0 9 1t12 3l-16 -90q-46 -17 -91 -17z" />
    <glyph glyph-name="iogonek" unicode="&#x12f;" horiz-adv-x="260" 
d="M48 -214q-42 0 -65 24t-20 60q5 57 69 130h-21l88 500h150l-88 -500q-42 -53 -48 -87q-5 -24 18 -24h3q4 0 9 1t12 3l-16 -90q-43 -17 -91 -17zM183 544q-38 0 -59.5 26.5t-15.5 63.5q3 18 12.5 34.5t24 28.5t32 19.5t35.5 7.5q37 0 59.5 -26.5t16.5 -63.5
q-3 -18 -12.5 -34.5t-24 -29t-32 -19.5t-36.5 -7z" />
    <glyph glyph-name="Idotaccent" unicode="&#x130;" horiz-adv-x="280" 
d="M16 0l123 700h160l-123 -700h-160zM228 745q-18 0 -32 7t-24 18.5t-13.5 27t-0.5 32.5q3 18 12.5 33.5t23 27t30 18t33.5 6.5q18 0 32 -7t24 -18.5t14 -27t1 -32.5q-3 -18 -12.5 -33.5t-23.5 -27t-30.5 -18t-33.5 -6.5z" />
    <glyph glyph-name="dotlessi" unicode="&#x131;" horiz-adv-x="260" 
d="M11 0l88 500h150l-88 -500h-150z" />
    <glyph glyph-name="uni0136" unicode="&#x136;" horiz-adv-x="626" 
d="M16 0l123 700h160l-52 -293l269 293h189l-318 -344l195 -356h-165l-183 333l-58 -333h-160zM190 -60h140l-67 -210h-120z" />
    <glyph glyph-name="uni0137" unicode="&#x137;" horiz-adv-x="525" 
d="M134 700h150l-72 -407l179 207h173l-221 -250l138 -250h-160l-120 228l-40 -228h-150zM121 -270l47 210h140l-67 -210h-120z" />
    <glyph glyph-name="Lacute" unicode="&#x139;" horiz-adv-x="480" 
d="M436 900l-136 -140h-148l100 140h184zM203 154h250l-27 -154h-410l123 700h160z" />
    <glyph glyph-name="lacute" unicode="&#x13a;" horiz-adv-x="261" 
d="M242 900h184l-136 -140h-148zM162 0l128 730h-150l-128 -730h150z" />
    <glyph glyph-name="uni013B" unicode="&#x13b;" horiz-adv-x="480" 
d="M203 154h250l-27 -154h-410l123 700h160zM96 -270l47 210h140l-67 -210h-120z" />
    <glyph glyph-name="uni013C" unicode="&#x13c;" horiz-adv-x="261" 
d="M12 0l128 730h150l-128 -730h-150zM-39 -270l47 210h140l-67 -210h-120z" />
    <glyph glyph-name="Lcaron" unicode="&#x13d;" horiz-adv-x="480" 
d="M16 0l123 700h160l-96 -546h250l-27 -154h-410zM321 510l43 190h150l-63 -190h-130z" />
    <glyph glyph-name="lcaron" unicode="&#x13e;" horiz-adv-x="376" 
d="M140 730h150l-128 -730h-150zM284 520l47 210h140l-67 -210h-120z" />
    <glyph glyph-name="Lslash" unicode="&#x141;" horiz-adv-x="510" 
d="M233 154h250l-27 -154h-410l36 202l-67 -39l28 163l67 39l59 335h160l-40 -230l134 79l-29 -163l-134 -79z" />
    <glyph glyph-name="lslash" unicode="&#x142;" horiz-adv-x="270" 
d="M304 500l-25 -143l-56 -34l-57 -323h-150l39 220l-56 -34l25 143l56 34l64 367h150l-46 -264z" />
    <glyph glyph-name="Nacute" unicode="&#x143;" horiz-adv-x="670" 
d="M139 700h120l201 -393l69 393h160l-123 -700h-120l-200 393l-70 -393h-160zM619 900l-136 -140h-148l100 140h184z" />
    <glyph glyph-name="nacute" unicode="&#x144;" 
d="M11 0l88 500h150l-8 -47q55 61 147 61q80 0 127 -56q46 -55 30 -151l-54 -307h-150l50 285q8 46 -12.5 68.5t-59.5 22.5q-40 0 -69.5 -24t-39.5 -73l-49 -279h-150zM256 570l100 140h184l-136 -140h-148z" />
    <glyph glyph-name="uni0145" unicode="&#x145;" horiz-adv-x="670" 
d="M16 0l123 700h120l201 -393l69 393h160l-123 -700h-120l-200 393l-70 -393h-160zM218 -60h140l-67 -210h-120z" />
    <glyph glyph-name="uni0146" unicode="&#x146;" 
d="M99 500h150l-8 -47q55 61 147 61q80 0 127 -56q46 -55 30 -151l-54 -307h-150l50 285q8 46 -12.5 68.5t-59.5 22.5q-40 0 -69.5 -24t-39.5 -73l-49 -279h-150zM181 -60h140l-67 -210h-120z" />
    <glyph glyph-name="Ncaron" unicode="&#x147;" horiz-adv-x="670" 
d="M139 700h120l201 -393l69 393h160l-123 -700h-120l-200 393l-70 -393h-160zM404 900l25 -55l45 55h150l-132 -150h-148l-80 150h140z" />
    <glyph glyph-name="ncaron" unicode="&#x148;" 
d="M11 0l88 500h150l-8 -47q55 61 147 61q80 0 127 -56q46 -55 30 -151l-54 -307h-150l50 285q8 46 -12.5 68.5t-59.5 22.5q-40 0 -69.5 -24t-39.5 -73l-49 -279h-150zM185 710h140l25 -55l45 55h150l-132 -150h-148z" />
    <glyph glyph-name="Eng" unicode="&#x14a;" horiz-adv-x="670" 
d="M16 0l123 700h120l201 -393l69 393h160l-123 -700q-17 -100 -73.5 -151t-159.5 -51q-11 0 -21 0.5t-21 1.5l26 145q39 0 61.5 14t30.5 55l8 44l-171 335l-70 -393h-160z" />
    <glyph glyph-name="eng" unicode="&#x14b;" 
d="M11 0l88 500h150l-8 -47q55 61 147 61q80 0 127 -56q46 -55 30 -151l-54 -307q-19 -108 -76 -161.5t-157 -53.5h-12.5t-12.5 1l26 144q3 0 6 -0.5t6 -0.5q58 0 70 71l50 285q8 46 -12.5 68.5t-59.5 22.5q-40 0 -69.5 -24t-39.5 -73l-49 -279h-150z" />
    <glyph glyph-name="Omacron" unicode="&#x14c;" horiz-adv-x="788" 
d="M110 96q-89 111 -61 264q15 80 52 145t92.5 111.5t126.5 72t152 25.5q150 0 239 -110q90 -111 63 -264q-14 -79 -51.5 -144.5t-93 -112t-126.5 -72t-151 -25.5q-152 0 -242 110zM209 350q-16 -92 29 -151q45 -57 131 -57q46 0 87 16t73.5 43.5t54.5 65.5t30 83
q16 91 -32 150q-48 58 -134 58q-46 0 -86 -16t-71.5 -44t-52.5 -66t-29 -82zM357 889h300l-21 -120h-300z" />
    <glyph glyph-name="omacron" unicode="&#x14d;" horiz-adv-x="590" 
d="M117 29q-58 45 -77.5 108t-5.5 133q11 55 38.5 100t67 77t89 49.5t105.5 17.5q119 0 181 -87q62 -86 42 -193q-9 -53 -36 -98t-66 -78.5t-88 -52.5t-103 -19q-89 0 -147 43zM184 250q-9 -54 16 -86t74 -32t87 32t47 86t-17 86t-75 32t-85.5 -32t-46.5 -86zM202 569
l21 120h300l-21 -120h-300z" />
    <glyph glyph-name="Ohungarumlaut" unicode="&#x150;" horiz-adv-x="788" 
d="M110 96q-89 111 -61 264q15 80 52 145t92.5 111.5t126.5 72t152 25.5q150 0 239 -110q90 -111 63 -264q-14 -79 -51.5 -144.5t-93 -112t-126.5 -72t-151 -25.5q-152 0 -242 110zM209 350q-16 -92 29 -151q45 -57 131 -57q46 0 87 16t73.5 43.5t54.5 65.5t30 83
q16 91 -32 150q-48 58 -134 58q-46 0 -86 -16t-71.5 -44t-52.5 -66t-29 -82zM746 900l-121 -140h-148l115 140h154zM553 900l-111 -140h-148l105 140h154z" />
    <glyph glyph-name="ohungarumlaut" unicode="&#x151;" horiz-adv-x="590" 
d="M117 29q-58 45 -77.5 108t-5.5 133q11 55 38.5 100t67 77t89 49.5t105.5 17.5q119 0 181 -87q62 -86 42 -193q-9 -53 -36 -98t-66 -78.5t-88 -52.5t-103 -19q-89 0 -147 43zM184 250q-9 -54 16 -86t74 -32t87 32t47 86t-17 86t-75 32t-85.5 -32t-46.5 -86zM458 700h154
l-121 -140h-148zM419 700l-111 -140h-148l105 140h154z" />
    <glyph glyph-name="OE" unicode="&#x152;" horiz-adv-x="916" 
d="M104 95q-83 111 -55 265q29 154 144 253q119 101 263 101q61 0 109 -14h395l-27 -154h-235l-21 -117h211l-27 -150h-210l-22 -125h240l-27 -154h-400q-54 -14 -104 -14q-150 0 -234 109zM209 350q-9 -47 -2 -85.5t26.5 -65.5t52 -42t74.5 -15q66 0 110 15l67 386
q-38 15 -99 15q-46 0 -84.5 -16t-68 -44.5t-49 -66.5t-27.5 -81z" />
    <glyph glyph-name="oe" unicode="&#x153;" horiz-adv-x="960" 
d="M113 27q-57 42 -75 102.5t-6 130.5q10 56 35.5 102.5t64 80.5t88.5 52.5t107 18.5q119 0 176 -95q84 95 216 95q103 0 166 -76q62 -75 45 -188q-2 -16 -6.5 -31t-9.5 -29h-358q10 -70 103 -70q63 0 105 39l105 -86q-86 -87 -214 -87q-141 0 -198 95q-83 -95 -203 -95
q-85 0 -141 41zM182 250q-9 -54 17 -86t75 -32q25 0 48 8.5t41 24.5t30 37.5t17 47.5q9 52 -17 85t-77 33q-49 0 -86.5 -32t-47.5 -86zM789 304q-8 77 -90 77q-83 0 -122 -77h212z" />
    <glyph glyph-name="Racute" unicode="&#x154;" horiz-adv-x="615" 
d="M139 700h270q100 0 163 -76q63 -75 45 -174q-13 -70 -56 -121.5t-107 -76.5l102 -252h-162l-91 230h-87l-40 -230h-160zM241 370h120q36 0 62.5 25.5t33.5 64.5t-13.5 64.5t-60.5 25.5h-110zM380 900h184l-136 -140h-148z" />
    <glyph glyph-name="racute" unicode="&#x155;" horiz-adv-x="371" 
d="M99 500h150l-16 -90q22 49 66.5 74.5t101.5 25.5l-29 -170q-8 1 -14.5 1.5t-14.5 0.5q-53 0 -93 -31t-49 -85l1 6l-41 -232h-150zM262 700h184l-136 -140h-148z" />
    <glyph glyph-name="uni0156" unicode="&#x156;" horiz-adv-x="615" 
d="M16 0l123 700h270q100 0 163 -76q63 -75 45 -174q-13 -70 -56 -121.5t-107 -76.5l102 -252h-162l-91 230h-87l-40 -230h-160zM241 370h120q36 0 62.5 25.5t33.5 64.5t-13.5 64.5t-60.5 25.5h-110zM171 -270l47 210h140l-67 -210h-120z" />
    <glyph glyph-name="uni0157" unicode="&#x157;" horiz-adv-x="371" 
d="M11 0l88 500h150l-16 -90q22 49 66.5 74.5t101.5 25.5l-29 -170q-8 1 -14.5 1.5t-14.5 0.5q-53 0 -93 -31t-49 -85l1 6l-41 -232h-150zM-38 -270l47 210h140l-67 -210h-120z" />
    <glyph glyph-name="Rcaron" unicode="&#x158;" horiz-adv-x="615" 
d="M16 0l123 700h270q100 0 163 -76q63 -75 45 -174q-13 -70 -56 -121.5t-107 -76.5l102 -252h-162l-91 230h-87l-40 -230h-160zM349 900l25 -55l45 55h150l-132 -150h-148l-80 150h140zM241 370h120q36 0 62.5 25.5t33.5 64.5t-13.5 64.5t-60.5 25.5h-110z" />
    <glyph glyph-name="rcaron" unicode="&#x159;" horiz-adv-x="371" 
d="M99 500h150l-16 -90q22 49 66.5 74.5t101.5 25.5l-29 -170q-8 1 -14.5 1.5t-14.5 0.5q-53 0 -93 -31t-49 -85l1 6l-41 -232h-150zM231 700l25 -55l45 55h150l-132 -150h-148l-80 150h140z" />
    <glyph glyph-name="Sacute" unicode="&#x15a;" horiz-adv-x="586" 
d="M150 234q25 -94 134 -94q92 0 103 59q5 30 -21 47.5t-93 40.5q-100 35 -148 84q-49 50 -32 145q9 50 33 87t58.5 62t77.5 37t92 12q87 0 150 -41t90 -117l-140 -74q-38 78 -114 78q-36 0 -57.5 -15t-26.5 -38q-7 -29 19 -47.5t89 -41.5q36 -13 75.5 -30t67.5 -43
q28 -27 41.5 -64t3.5 -96q-9 -48 -32.5 -85t-60 -62.5t-84.5 -38.5t-105 -13q-111 0 -179 46t-87 127zM397 910h184l-136 -140h-148z" />
    <glyph glyph-name="sacute" unicode="&#x15b;" horiz-adv-x="468" 
d="M206 -14q-156 0 -211 123l135 68q22 -57 89 -57q50 0 55 26q3 16 -22 27t-61 21q-26 6 -53.5 17.5t-48.5 31t-31 49t-2 71.5q7 40 28 68.5t50.5 47t64 27t67.5 8.5q66 0 116.5 -28t74.5 -79l-135 -67q-18 44 -65 44q-45 0 -51 -31q-4 -20 20.5 -31t60.5 -20
q26 -5 53.5 -15t48.5 -29t31.5 -48.5t2.5 -74.5q-7 -38 -26 -66t-47.5 -46.5t-65 -27.5t-78.5 -9zM486 710l-136 -140h-148l100 140h184z" />
    <glyph glyph-name="Scedilla" unicode="&#x15e;" horiz-adv-x="586" 
d="M204 -9q-82 13 -133 57t-67 111l146 75q25 -94 134 -94q92 0 103 59q5 30 -21 47.5t-93 40.5q-100 35 -148 84q-49 50 -32 145q9 50 33 87t58.5 62t77.5 37t92 12q87 0 150 -41t90 -117l-140 -74q-38 78 -114 78q-36 0 -57.5 -15t-26.5 -38q-7 -29 19 -47.5t89 -41.5
q36 -13 75.5 -30t67.5 -43q28 -27 41.5 -64t3.5 -96q-15 -85 -74.5 -134.5t-153.5 -61.5l-6 -35q59 -22 49 -86q-16 -86 -182 -86h-28.5t-30.5 2l18 104q12 -1 22.5 -1.5t19.5 -0.5q53 0 56 16q3 15 -50 20l12 69v0z" />
    <glyph glyph-name="scedilla" unicode="&#x15f;" horiz-adv-x="468" 
d="M130 177q22 -57 89 -57q50 0 55 26q3 16 -22 27t-61 21q-26 6 -53.5 17.5t-48.5 31t-31 49t-2 71.5q7 40 28 68.5t50.5 47t64 27t67.5 8.5q66 0 116.5 -28t74.5 -79l-135 -67q-18 44 -65 44q-45 0 -51 -31q-4 -20 20.5 -31t60.5 -20q26 -5 53.5 -15t48.5 -29t31.5 -48.5
t2.5 -74.5q-11 -61 -52.5 -97t-104.5 -47l-6 -37q59 -22 49 -86q-16 -86 -182 -86h-28.5t-30.5 2l18 104q12 -1 22.5 -1.5t19.5 -0.5q53 0 56 16q3 15 -50 20l12 69q-106 21 -151 118z" />
    <glyph glyph-name="Scaron" unicode="&#x160;" horiz-adv-x="586" 
d="M150 234q25 -94 134 -94q92 0 103 59q5 30 -21 47.5t-93 40.5q-100 35 -148 84q-49 50 -32 145q9 50 33 87t58.5 62t77.5 37t92 12q87 0 150 -41t90 -117l-140 -74q-38 78 -114 78q-36 0 -57.5 -15t-26.5 -38q-7 -29 19 -47.5t89 -41.5q36 -13 75.5 -30t67.5 -43
q28 -27 41.5 -64t3.5 -96q-9 -48 -32.5 -85t-60 -62.5t-84.5 -38.5t-105 -13q-111 0 -179 46t-87 127zM226 910h140l25 -55l45 55h150l-132 -150h-148z" />
    <glyph glyph-name="scaron" unicode="&#x161;" horiz-adv-x="468" 
d="M206 -14q-156 0 -211 123l135 68q22 -57 89 -57q50 0 55 26q3 16 -22 27t-61 21q-26 6 -53.5 17.5t-48.5 31t-31 49t-2 71.5q7 40 28 68.5t50.5 47t64 27t67.5 8.5q66 0 116.5 -28t74.5 -79l-135 -67q-18 44 -65 44q-45 0 -51 -31q-4 -20 20.5 -31t60.5 -20
q26 -5 53.5 -15t48.5 -29t31.5 -48.5t2.5 -74.5q-7 -38 -26 -66t-47.5 -46.5t-65 -27.5t-78.5 -9zM131 710h140l25 -55l45 55h150l-132 -150h-148z" />
    <glyph glyph-name="uni0162" unicode="&#x162;" horiz-adv-x="540" 
d="M89 700h520l-27 -154h-180l-96 -546h-160l96 546h-180zM148 -60h140l-67 -210h-120z" />
    <glyph glyph-name="uni0163" unicode="&#x163;" horiz-adv-x="389" 
d="M34 356l26 144h79l17 95l158 45l-25 -140h104l-26 -144h-103l-31 -177q-5 -26 9.5 -35t50.5 -9h17t19 1l-24 -136q-17 -2 -33 -3t-30 -1q-100 0 -138 45t-21 138l31 177h-80zM108 -60h140l-67 -210h-120z" />
    <glyph glyph-name="Tcaron" unicode="&#x164;" horiz-adv-x="540" 
d="M89 700h520l-27 -154h-180l-96 -546h-160l96 546h-180zM339 900l25 -55l45 55h150l-132 -150h-148l-80 150h140z" />
    <glyph glyph-name="tcaron" unicode="&#x165;" horiz-adv-x="416" 
d="M60 500h79l17 95l158 45l-25 -140h104l-26 -144h-103l-31 -177q-5 -26 9.5 -35t50.5 -9h17t19 1l-24 -136q-17 -2 -33 -3t-30 -1q-100 0 -138 45t-21 138l31 177h-80zM338 540l43 190h140l-63 -190h-120z" />
    <glyph glyph-name="Tbar" unicode="&#x166;" horiz-adv-x="540" 
d="M62 546l27 154h520l-27 -154h-180l-24 -134h110l-25 -144h-110l-47 -268h-160l47 268h-110l25 144h110l24 134h-180z" />
    <glyph glyph-name="tbar" unicode="&#x167;" horiz-adv-x="389" 
d="M30 188l21 120h55l8 48h-80l26 144h79l17 95l158 45l-25 -140h104l-26 -144h-103l-8 -48h75l-21 -120h-75l-2 -9q-6 -26 9 -35t51 -9h17t19 1l-24 -136q-17 -2 -33 -3t-30 -1q-200 0 -159 183l2 9h-55z" />
    <glyph glyph-name="Utilde" unicode="&#x168;" horiz-adv-x="641" 
d="M95 53q-67 67 -49 173l84 474h160l-81 -460q-17 -98 93 -98t127 98l81 460h160l-84 -474q-11 -60 -37 -105t-64.5 -75t-88 -45t-106.5 -15q-127 0 -195 67zM239 753q3 28 11 55.5t23 48.5t37.5 34t54.5 13q20 0 39.5 -6t37.5 -19q16 -12 26 -12q18 0 24 35h114
q-3 -28 -10.5 -55t-22.5 -48.5t-37.5 -35t-53.5 -13.5q-40 0 -79 25q-18 12 -28 12q-16 0 -22 -34h-114z" />
    <glyph glyph-name="utilde" unicode="&#x169;" 
d="M64 41q-46 55 -29 152l54 307h150l-50 -285q-8 -46 12.5 -68.5t59.5 -22.5q40 0 69.5 24t39.5 73l49 279h150l-88 -500h-150l8 47q-55 -61 -147 -61q-82 0 -128 55zM163 553q3 28 11 55.5t23 48.5t37.5 34t54.5 13q20 0 39.5 -6t37.5 -19q16 -12 26 -12q18 0 24 35h114
q-3 -28 -10.5 -55t-22.5 -48.5t-37.5 -35t-53.5 -13.5q-40 0 -79 25q-18 12 -28 12q-16 0 -22 -34h-114z" />
    <glyph glyph-name="Umacron" unicode="&#x16a;" horiz-adv-x="641" 
d="M95 53q-67 67 -49 173l84 474h160l-81 -460q-17 -98 93 -98t127 98l81 460h160l-84 -474q-11 -60 -37 -105t-64.5 -75t-88 -45t-106.5 -15q-127 0 -195 67zM261 759l21 120h300l-21 -120h-300z" />
    <glyph glyph-name="umacron" unicode="&#x16b;" 
d="M64 41q-46 55 -29 152l54 307h150l-50 -285q-8 -46 12.5 -68.5t59.5 -22.5q40 0 69.5 24t39.5 73l49 279h150l-88 -500h-150l8 47q-55 -61 -147 -61q-82 0 -128 55zM205 679h300l-21 -120h-300z" />
    <glyph glyph-name="Uring" unicode="&#x16e;" horiz-adv-x="641" 
d="M95 53q-67 67 -49 173l84 474h160l-81 -460q-17 -98 93 -98t127 98l81 460h160l-84 -474q-11 -60 -37 -105t-64.5 -75t-88 -45t-106.5 -15q-127 0 -195 67zM314 743q-33 38 -24 91q4 27 17.5 49.5t34 38t46 24.5t54.5 9q58 0 91 -38t23 -91q-9 -54 -50.5 -87.5
t-101.5 -33.5q-57 0 -90 38zM388 831q-2 -15 5 -25t24 -10q37 0 42 33q3 15 -5 25t-25 10q-34 0 -41 -33z" />
    <glyph glyph-name="uring" unicode="&#x16f;" 
d="M64 41q-46 55 -29 152l54 307h150l-50 -285q-8 -46 12.5 -68.5t59.5 -22.5q40 0 69.5 24t39.5 73l49 279h150l-88 -500h-150l8 47q-55 -61 -147 -61q-82 0 -128 55zM242 573q-33 38 -24 91q4 27 17.5 49.5t34 38t46 24.5t54.5 9q58 0 91 -38t23 -91q-9 -54 -50.5 -87.5
t-101.5 -33.5q-57 0 -90 38zM316 661q-2 -15 5 -25t24 -10q37 0 42 33q3 15 -5 25t-25 10q-34 0 -41 -33z" />
    <glyph glyph-name="Uhungarumlaut" unicode="&#x170;" horiz-adv-x="641" 
d="M95 53q-67 67 -49 173l84 474h160l-81 -460q-17 -98 93 -98t127 98l81 460h160l-84 -474q-11 -60 -37 -105t-64.5 -75t-88 -45t-106.5 -15q-127 0 -195 67zM517 890h154l-121 -140h-148zM478 890l-111 -140h-148l105 140h154z" />
    <glyph glyph-name="uhungarumlaut" unicode="&#x171;" 
d="M64 41q-46 55 -29 152l54 307h150l-50 -285q-8 -46 12.5 -68.5t59.5 -22.5q40 0 69.5 24t39.5 73l49 279h150l-88 -500h-150l8 47q-55 -61 -147 -61q-82 0 -128 55zM325 550l115 140h154l-121 -140h-148zM247 690h154l-111 -140h-148z" />
    <glyph glyph-name="Uogonek" unicode="&#x172;" horiz-adv-x="641" 
d="M92 57q-64 67 -46 169l84 474h160l-81 -460q-17 -98 93 -98t127 98l81 460h160l-84 -474q-23 -124 -109 -185q-58 -45 -84 -72.5t-33 -53.5q-6 -24 17 -26q11 0 24 4l-16 -90q-46 -17 -84 -17q-54 0 -77 29.5t-14 71.5q12 56 67 99q-121 4 -185 71z" />
    <glyph glyph-name="uogonek" unicode="&#x173;" 
d="M64 41q-46 55 -29 152l54 307h150l-50 -285q-8 -46 12.5 -68.5t59.5 -22.5q40 0 69.5 24t39.5 73l49 279h150l-88 -500h-3q-24 -22 -41.5 -48.5t-19.5 -43.5q-1 -19 18 -19q13 0 24 4l-16 -90q-36 -17 -77 -17q-48 0 -77 22.5t-21 70.5q9 53 86 121h-23l8 47
q-55 -61 -147 -61q-82 0 -128 55z" />
    <glyph glyph-name="Wcircumflex" unicode="&#x174;" horiz-adv-x="998" 
d="M89 700h160l37 -490l221 490h130l49 -490l207 490h174l-316 -700h-182l-42 413l-186 -413h-182zM402 750l132 150h148l80 -150h-145l-23 55l-47 -55h-145z" />
    <glyph glyph-name="wcircumflex" unicode="&#x175;" horiz-adv-x="780" 
d="M54 500h150l31 -268l119 268h145l33 -268l117 268h165l-248 -500h-140l-33 263l-117 -263h-150zM258 550l132 150h148l80 -150h-145l-23 55l-47 -55h-145z" />
    <glyph glyph-name="Ycircumflex" unicode="&#x176;" horiz-adv-x="610" 
d="M79 700h173l82 -236l164 236h191l-294 -394l-54 -306h-160l54 307zM340 900h148l80 -150h-145l-23 55l-47 -55h-145z" />
    <glyph glyph-name="ycircumflex" unicode="&#x177;" horiz-adv-x="530" 
d="M318 15q-25 -47 -54 -87t-65 -68.5t-81 -44.5t-101 -16q-5 0 -10.5 0.5t-11.5 0.5l24 140q27 0 46.5 4t35.5 13.5t29 25t25 39.5l-111 478h154l62 -306l148 306h166zM251 700h148l80 -150h-145l-23 55l-47 -55h-145z" />
    <glyph glyph-name="Ydieresis" unicode="&#x178;" horiz-adv-x="610" 
d="M79 700h173l82 -236l164 236h191l-294 -394l-54 -306h-160l54 307zM437 762q-18 22 -13 53t31 53t57 22t49 -22t13 -53t-31 -53q-27 -22 -57 -22t-49 22zM247 762q-18 22 -13 53t31 53t57 22t49 -22t13 -53t-31 -53q-27 -22 -57 -22t-49 22z" />
    <glyph glyph-name="Zacute" unicode="&#x179;" horiz-adv-x="540" 
d="M559 900l-136 -140h-148l100 140h184zM589 700l-21 -124l-340 -422h270l-27 -154h-480l22 124l341 422h-262l27 154h470z" />
    <glyph glyph-name="zacute" unicode="&#x17a;" horiz-adv-x="455" 
d="M479 700l-136 -140h-148l100 140h184zM59 360l25 140h380l-17 -100l-229 -260h193l-25 -140h-400l18 100l228 260h-173z" />
    <glyph glyph-name="Zdotaccent" unicode="&#x17b;" horiz-adv-x="540" 
d="M13 124l341 422h-262l27 154h470l-21 -124l-340 -422h270l-27 -154h-480zM363 745q-18 0 -32 7t-24 18.5t-13.5 27t-0.5 32.5q3 18 12.5 33.5t23 27t30 18t33.5 6.5q18 0 32 -7t24 -18.5t14 -27t1 -32.5q-3 -18 -12.5 -33.5t-23.5 -27t-30.5 -18t-33.5 -6.5z" />
    <glyph glyph-name="zdotaccent" unicode="&#x17c;" horiz-adv-x="455" 
d="M4 100l228 260h-173l25 140h380l-17 -100l-229 -260h193l-25 -140h-400zM283 545q-18 0 -32 7t-24 18.5t-13.5 27t-0.5 32.5q3 18 12.5 33.5t23 27t30 18t33.5 6.5q18 0 32 -7t24 -18.5t14 -27t1 -32.5q-3 -18 -12.5 -33.5t-23.5 -27t-30.5 -18t-33.5 -6.5z" />
    <glyph glyph-name="Zcaron" unicode="&#x17d;" horiz-adv-x="540" 
d="M13 124l341 422h-262l27 154h470l-21 -124l-340 -422h270l-27 -154h-480zM344 900l25 -55l45 55h150l-132 -150h-148l-80 150h140z" />
    <glyph glyph-name="zcaron" unicode="&#x17e;" horiz-adv-x="455" 
d="M-14 0l18 100l228 260h-173l25 140h380l-17 -100l-229 -260h193l-25 -140h-400zM264 700l25 -55l45 55h150l-132 -150h-148l-80 150h140z" />
    <glyph glyph-name="florin" unicode="&#x192;" horiz-adv-x="442" 
d="M-53 -51q13 -9 33 -9q21 0 43 14.5t33 46.5l97 279h-77l26 144h101l39 112q63 179 207 179q36 0 73 -10l-26 -150q-14 9 -33 9q-22 0 -44 -14.5t-32 -46.5l-27 -79h82l-26 -144h-107l-108 -312q-61 -179 -207 -179q-36 0 -73 10z" />
    <glyph glyph-name="Ohorn" unicode="&#x1a0;" horiz-adv-x="788" 
d="M110 96q-89 111 -61 264q15 80 52 145t92.5 111.5t126.5 72t152 25.5q51 0 99 -14h2q12 0 24.5 4t23.5 12.5t19.5 23t12.5 35.5h144q-9 -48 -38 -86.5t-74 -56.5l13.5 -13.5t12.5 -14.5q90 -112 63 -264q-14 -79 -51.5 -144.5t-93 -112t-126.5 -72t-151 -25.5
q-152 0 -242 110zM209 350q-16 -92 29 -151q45 -57 131 -57q46 0 87 16t73.5 43.5t54.5 65.5t30 83q16 91 -32 150q-48 58 -134 58q-46 0 -86 -16t-71.5 -44t-52.5 -66t-29 -82z" />
    <glyph glyph-name="ohorn" unicode="&#x1a1;" horiz-adv-x="590" 
d="M117 29q-58 45 -77.5 108t-5.5 133q11 55 38.5 100t67 77t89 49.5t105.5 17.5q47 0 87 -14h2q12 0 24.5 4t23.5 12.5t19.5 23t12.5 35.5h144q-10 -54 -44.5 -94.5t-86.5 -55.5q60 -86 41 -191q-9 -53 -36 -98t-66 -78.5t-88 -52.5t-103 -19q-89 0 -147 43zM184 250
q-9 -54 16 -86t74 -32t87 32t47 86t-17 86t-75 32t-85.5 -32t-46.5 -86z" />
    <glyph glyph-name="Uhorn" unicode="&#x1af;" horiz-adv-x="641" 
d="M95 53q-67 67 -49 173l84 474h160l-81 -460q-17 -98 93 -98t127 98l81 460h47q36 0 58 20t27 55h144q-10 -54 -44 -94t-85 -56l-71 -399q-11 -60 -37 -105t-64.5 -75t-88 -45t-106.5 -15q-127 0 -195 67z" />
    <glyph glyph-name="uhorn" unicode="&#x1b0;" 
d="M64 41q-46 55 -29 152l54 307h150l-50 -285q-8 -46 12.5 -68.5t59.5 -22.5q40 0 69.5 24t39.5 73l49 279h49q23 2 44.5 18.5t28.5 56.5h144q-10 -54 -44 -94t-85 -56l-75 -425h-150l8 47q-55 -61 -147 -61q-82 0 -128 55z" />
    <glyph glyph-name="uni0218" unicode="&#x218;" horiz-adv-x="586" 
d="M270 -14q-111 0 -179 46t-87 127l146 75q25 -94 134 -94q92 0 103 59q5 30 -21 47.5t-93 40.5q-100 35 -148 84q-49 50 -32 145q9 50 33 87t58.5 62t77.5 37t92 12q87 0 150 -41t90 -117l-140 -74q-38 78 -114 78q-36 0 -57.5 -15t-26.5 -38q-7 -29 19 -47.5t89 -41.5
q36 -13 75.5 -30t67.5 -43q28 -27 41.5 -64t3.5 -96q-9 -48 -32.5 -85t-60 -62.5t-84.5 -38.5t-105 -13zM186 -60h140l-67 -210h-120z" />
    <glyph glyph-name="uni0219" unicode="&#x219;" horiz-adv-x="468" 
d="M130 177q22 -57 89 -57q50 0 55 26q3 16 -22 27t-61 21q-26 6 -53.5 17.5t-48.5 31t-31 49t-2 71.5q7 40 28 68.5t50.5 47t64 27t67.5 8.5q66 0 116.5 -28t74.5 -79l-135 -67q-18 44 -65 44q-45 0 -51 -31q-4 -20 20.5 -31t60.5 -20q26 -5 53.5 -15t48.5 -29t31.5 -48.5
t2.5 -74.5q-7 -38 -26 -66t-47.5 -46.5t-65 -27.5t-78.5 -9q-156 0 -211 123zM81 -270l47 210h140l-67 -210h-120z" />
    <glyph glyph-name="uni021A" unicode="&#x21a;" horiz-adv-x="540" 
d="M89 700h520l-27 -154h-180l-96 -546h-160l96 546h-180zM148 -60h140l-67 -210h-120z" />
    <glyph glyph-name="uni021B" unicode="&#x21b;" horiz-adv-x="389" 
d="M34 356l26 144h79l17 95l158 45l-25 -140h104l-26 -144h-103l-31 -177q-5 -26 9.5 -35t50.5 -9h17t19 1l-24 -136q-17 -2 -33 -3t-30 -1q-100 0 -138 45t-21 138l31 177h-80zM108 -60h140l-67 -210h-120z" />
    <glyph glyph-name="circumflex" unicode="&#x2c6;" horiz-adv-x="400" 
d="M73 550l132 150h148l80 -150h-145l-23 55l-47 -55h-145z" />
    <glyph glyph-name="caron" unicode="&#x2c7;" horiz-adv-x="400" 
d="M99 700h140l25 -55l45 55h150l-132 -150h-148z" />
    <glyph glyph-name="breve" unicode="&#x2d8;" horiz-adv-x="390" 
d="M254 542q-85 0 -127 40.5t-29 109.5h132q-8 -46 35 -46q44 0 51 46h132q-11 -72 -60 -111t-134 -39z" />
    <glyph glyph-name="dotaccent" unicode="&#x2d9;" horiz-adv-x="190" 
d="M157 545q-18 0 -32 7t-24 18.5t-13.5 27t-0.5 32.5q3 18 12.5 33.5t23 27t30 18t33.5 6.5q18 0 32 -7t24 -18.5t14 -27t1 -32.5q-3 -18 -12.5 -33.5t-23.5 -27t-30.5 -18t-33.5 -6.5z" />
    <glyph glyph-name="ring" unicode="&#x2da;" horiz-adv-x="306" 
d="M112 573q-33 38 -24 91q4 27 17.5 49.5t34 38t46 24.5t54.5 9q58 0 91 -38t23 -91q-9 -54 -50.5 -87.5t-101.5 -33.5q-57 0 -90 38zM186 661q-2 -15 5 -25t24 -10q37 0 42 33q3 15 -5 25t-25 10q-34 0 -41 -33z" />
    <glyph glyph-name="ogonek" unicode="&#x2db;" horiz-adv-x="228" 
d="M38 -214q-45 0 -68.5 23t-15.5 68q11 57 86 123h124q-51 -48 -60 -85q-6 -26 17 -26h3q4 0 9 1t12 3l-16 -90q-46 -17 -91 -17z" />
    <glyph glyph-name="tilde" unicode="&#x2dc;" horiz-adv-x="398" 
d="M84 553q5 60 28 98t54 52q23 10 49 10q46 0 83 -27q16 -12 28 -12q18 0 24 36h120q-5 -60 -28 -98.5t-55 -51.5q-23 -9 -49 -9q-44 0 -82 26q-18 12 -28 12q-18 0 -24 -36h-120z" />
    <glyph glyph-name="hungarumlaut" unicode="&#x2dd;" horiz-adv-x="467" 
d="M256 550l115 140h154l-121 -140h-148zM73 550l105 140h154l-111 -140h-148z" />
    <glyph glyph-name="gravecomb" unicode="&#x300;" horiz-adv-x="0" 
d="M-106 560l-95 140h173l63 -140h-141z" />
    <glyph glyph-name="acutecomb" unicode="&#x301;" horiz-adv-x="0" 
d="M-125 700h184l-136 -140h-148z" />
    <glyph glyph-name="uni0302" unicode="&#x302;" horiz-adv-x="0" 
d="M-327 550l132 150h148l80 -150h-145l-23 55l-47 -55h-145z" />
    <glyph glyph-name="tildecomb" unicode="&#x303;" horiz-adv-x="0" 
d="M-326 553q5 60 28 98.5t55 51.5q22 9 49 9q21 0 41.5 -6t40.5 -20q16 -12 28 -12q18 0 24 36h120q-5 -60 -28 -98t-54 -52q-23 -10 -49 -10q-44 0 -83 27q-18 12 -28 12q-18 0 -24 -36h-120z" />
    <glyph glyph-name="uni0304" unicode="&#x304;" horiz-adv-x="0" 
d="M-265 559l21 120h300l-21 -120h-300z" />
    <glyph glyph-name="uni0306" unicode="&#x306;" horiz-adv-x="0" 
d="M-136 542q-85 0 -127 40.5t-29 109.5h132q-8 -46 35 -46q44 0 51 46h132q-11 -72 -60 -111t-134 -39z" />
    <glyph glyph-name="uni0307" unicode="&#x307;" horiz-adv-x="0" 
d="M-53 545q-18 0 -32 7t-24 18.5t-13.5 27t-0.5 32.5q3 18 12.5 33.5t23 27t30 18t33.5 6.5q18 0 32 -7t24 -18.5t14 -27t1 -32.5q-3 -18 -12.5 -33.5t-23.5 -27t-30.5 -18t-33.5 -6.5z" />
    <glyph glyph-name="uni0308" unicode="&#x308;" horiz-adv-x="0" 
d="M-93 562q-18 22 -13 52.5t31 53.5q13 11 28 16.5t29 5.5q31 0 49 -22t13.5 -53.5t-31.5 -52.5q-28 -22 -57 -22q-30 0 -49 22zM-283 562q-18 22 -13 52.5t31 53.5q13 11 28 16.5t29 5.5q31 0 49 -22t13.5 -53.5t-31.5 -52.5q-28 -22 -57 -22q-30 0 -49 22z" />
    <glyph glyph-name="uni030A" unicode="&#x30a;" horiz-adv-x="0" 
d="M-190 573q-33 38 -24 91q4 27 17.5 49.5t34 38t46 24.5t54.5 9q58 0 91 -38t23 -91q-9 -54 -50.5 -87.5t-101.5 -33.5q-57 0 -90 38zM-116 661q-2 -15 5 -25t24 -10q37 0 42 33q3 15 -5 25t-25 10q-34 0 -41 -33z" />
    <glyph glyph-name="uni030B" unicode="&#x30b;" horiz-adv-x="0" 
d="M-211 550l115 140h154l-121 -140h-148zM-394 550l105 140h154l-111 -140h-148z" />
    <glyph glyph-name="uni030C" unicode="&#x30c;" horiz-adv-x="0" 
d="M-301 700h140l25 -55l45 55h150l-132 -150h-148z" />
    <glyph glyph-name="uni0312" unicode="&#x312;" horiz-adv-x="0" 
d="M109 980l-47 -210h-140l67 210h120z" />
    <glyph glyph-name="uni0326" unicode="&#x326;" horiz-adv-x="0" 
d="M-262 -270l47 210h140l-67 -210h-120z" />
    <glyph glyph-name="uni0327" unicode="&#x327;" horiz-adv-x="0" 
d="M-87 -132q-16 -86 -182 -86h-28.5t-30.5 2l18 104q12 -1 22.5 -1.5t19.5 -0.5q53 0 56 16q3 15 -50 20l14 78h120l-8 -46q59 -22 49 -86z" />
    <glyph glyph-name="uni0328" unicode="&#x328;" horiz-adv-x="0" 
d="M-200 -214q-45 0 -68.5 23t-15.5 68q11 57 86 123h124q-51 -48 -60 -85q-6 -26 17 -26h3q4 0 9 1t12 3l-16 -90q-46 -17 -91 -17z" />
    <glyph glyph-name="uni0394" unicode="&#x394;" horiz-adv-x="660" 
d="M511 700l105 -700h-660l351 700h204zM208 150h221l-44 375z" />
    <glyph glyph-name="uni03A9" unicode="&#x3a9;" horiz-adv-x="768" 
d="M-10 0l27 154h89q-86 95 -63 226q13 75 51 137t93.5 105.5t124.5 67.5t144 24q147 0 242 -105q94 -104 69 -249q-21 -124 -121 -206h71l-27 -154h-278l27 154q63 21 107.5 72.5t57.5 123.5q16 91 -32 150q-48 58 -134 58q-46 0 -86 -16t-71 -43.5t-52 -65.5t-29 -83
q-13 -72 12.5 -123.5t82.5 -72.5l-27 -154h-278z" />
    <glyph glyph-name="pi" unicode="&#x3c0;" horiz-adv-x="670" 
d="M64 500h630l-25 -140h-78l-63 -360h-150l63 360h-170l-63 -360h-150l63 360h-82z" />
    <glyph glyph-name="uni0401" unicode="&#x401;" horiz-adv-x="530" 
d="M16 0l123 700h435l-27 -154h-275l-21 -117h251l-27 -150h-250l-22 -125h280l-27 -154h-440zM410 762q-18 22 -13 53t31 53t57 22t49 -22t13 -53t-31 -53q-27 -22 -57 -22t-49 22zM220 762q-18 22 -13 53t31 53t57 22t49 -22t13 -53t-31 -53q-27 -22 -57 -22t-49 22z" />
    <glyph glyph-name="uni0402" unicode="&#x402;" horiz-adv-x="695" 
d="M62 546l27 154h520l-27 -154h-190l-18 -100q64 18 126 18q45 0 79 -14.5t55 -40.5t28.5 -62t0.5 -80l-11 -63q-20 -115 -76.5 -165t-161.5 -50h-15t-15 1l27 149q38 0 56.5 12.5t24.5 52.5l7 45q6 39 -9 55t-51 16q-45 0 -90 -19l-53 -301h-160l96 546h-170z" />
    <glyph glyph-name="uni0403" unicode="&#x403;" horiz-adv-x="470" 
d="M550 899l-136 -140h-148l100 140h184zM139 700h400l-27 -154h-240l-96 -546h-160z" />
    <glyph glyph-name="uni0404" unicode="&#x404;" horiz-adv-x="723" 
d="M111 95q-88 108 -62 265q13 77 50 142t91.5 112t124.5 73.5t149 26.5q100 0 171.5 -42.5t106.5 -120.5l-147 -77q-41 84 -148 84q-72 0 -128 -35t-86 -98h285l-27 -150h-284q8 -63 51 -98t110 -35q114 0 182 89l130 -85q-57 -75 -140.5 -117.5t-180.5 -42.5
q-160 0 -248 109z" />
    <glyph glyph-name="uni0405" unicode="&#x405;" horiz-adv-x="586" 
d="M150 234q25 -94 134 -94q92 0 103 59q5 30 -21 47.5t-93 40.5q-100 35 -148 84q-49 50 -32 145q9 50 33 87t58.5 62t77.5 37t92 12q87 0 150 -41t90 -117l-140 -74q-38 78 -114 78q-36 0 -57.5 -15t-26.5 -38q-7 -29 19 -47.5t89 -41.5q36 -13 75.5 -30t67.5 -43
q28 -27 41.5 -64t3.5 -96q-9 -48 -32.5 -85t-60 -62.5t-84.5 -38.5t-105 -13q-111 0 -179 46t-87 127z" />
    <glyph glyph-name="uni0406" unicode="&#x406;" horiz-adv-x="280" 
d="M139 700h160l-123 -700h-160z" />
    <glyph glyph-name="uni0407" unicode="&#x407;" horiz-adv-x="280" 
d="M16 0l123 700h160l-123 -700h-160zM272 762q-18 22 -13 53t31 53t57 22t49 -22t13 -53t-31 -53q-27 -22 -57 -22t-49 22zM82 762q-18 22 -13 53t31 53t57 22t49 -22t13 -53t-31 -53q-27 -22 -57 -22t-49 22z" />
    <glyph glyph-name="uni0408" unicode="&#x408;" horiz-adv-x="570" 
d="M155 207q10 -35 31 -50t60 -15q94 0 109 83l84 475h160l-84 -475q-21 -121 -94.5 -180t-188.5 -59q-172 0 -224 141z" />
    <glyph glyph-name="uni0409" unicode="&#x409;" horiz-adv-x="950" 
d="M-8 148q7 -1 13 -1.5t12 -0.5q46 0 73.5 29t40.5 103l74 422h474l-44 -250h85q97 0 160 -69q62 -68 44 -166q-10 -53 -36 -93.5t-63.5 -67.5t-84.5 -40.5t-99 -13.5h-245l96 546h-154l-46 -262q-16 -89 -45.5 -145.5t-67.5 -88t-82 -43t-87 -11.5q-11 0 -22 0.5t-22 1.5z
M582 150h85q38 0 64 19t33 56t-12.5 56t-57.5 19h-85z" />
    <glyph glyph-name="uni040A" unicode="&#x40a;" horiz-adv-x="950" 
d="M16 0l123 700h160l-44 -250h220l44 250h160l-44 -250h85q97 0 160 -69q62 -68 44 -166q-10 -53 -36 -93.5t-63.5 -67.5t-84.5 -40.5t-99 -13.5h-245l53 300h-220l-53 -300h-160zM667 150q38 0 64 19t33 56t-12.5 56t-57.5 19h-85l-27 -150h85z" />
    <glyph glyph-name="uni040B" unicode="&#x40b;" horiz-adv-x="700" 
d="M89 700h520l-27 -154h-190l-17 -99q54 17 116 17q96 0 141.5 -52t29.5 -145l-46 -267h-160l43 249q7 40 -11 55.5t-57 15.5q-45 0 -82 -18l-53 -302h-160l96 546h-170z" />
    <glyph glyph-name="uni040C" unicode="&#x40c;" horiz-adv-x="626" 
d="M16 0l123 700h160l-52 -293l269 293h189l-318 -344l195 -356h-165l-183 333l-58 -333h-160zM416 899h184l-136 -140h-148z" />
    <glyph glyph-name="uni040E" unicode="&#x40e;" horiz-adv-x="610" 
d="M96 150q5 -1 9.5 -1h9.5q83 0 131 73l-147 478h154l90 -306l170 306h166l-279 -494q-33 -58 -68 -97.5t-72.5 -64t-78 -35t-84.5 -10.5h-13.5t-13.5 1zM268 888h300l-22 -130h-300z" />
    <glyph glyph-name="uni040F" unicode="&#x40f;" horiz-adv-x="650" 
d="M16 0l123 700h160l-96 -546h210l96 546h160l-123 -700h-185l-24 -134h-160l24 134h-185z" />
    <glyph glyph-name="uni0410" unicode="&#x410;" horiz-adv-x="680" 
d="M317 700h204l115 -700h-175l-14 110h-260l-56 -110h-175zM429 260l-33 265l-134 -265h167z" />
    <glyph glyph-name="uni0411" unicode="&#x411;" horiz-adv-x="585" 
d="M16 0l123 700h450l-27 -154h-290l-19 -106h111q101 0 158 -66t41 -164q-18 -100 -90 -155t-187 -55h-270zM312 150q81 0 93 70q6 36 -13 53t-55 17h-110l-25 -140h110z" />
    <glyph glyph-name="uni0412" unicode="&#x412;" horiz-adv-x="600" 
d="M139 700h264q94 0 152 -58q57 -57 43 -147q-13 -86 -84 -136q70 -56 57 -159q-12 -90 -81 -145t-190 -55h-284zM202 150h129q33 0 55.5 18.5t27.5 48.5t-10.5 48.5t-48.5 18.5h-129zM251 426h109q30 0 51 17t26 45q5 26 -9 44t-46 18h-109z" />
    <glyph glyph-name="uni0413" unicode="&#x413;" horiz-adv-x="470" 
d="M539 700l-27 -154h-240l-96 -546h-160l123 700h400z" />
    <glyph glyph-name="uni0414" unicode="&#x414;" horiz-adv-x="710" 
d="M-2 154h71q69 80 96 232l55 314h469l-96 -546h75l-51 -288h-160l23 134h-350l-23 -134h-160zM433 154l70 396h-149l-29 -166q-13 -75 -33.5 -132.5t-47.5 -97.5h189z" />
    <glyph glyph-name="uni0415" unicode="&#x415;" horiz-adv-x="530" 
d="M547 546h-275l-21 -117h251l-27 -150h-250l-22 -125h280l-27 -154h-440l123 700h435z" />
    <glyph glyph-name="uni0416" unicode="&#x416;" horiz-adv-x="922" 
d="M-34 0l293 363l-166 337h168l146 -311l55 311h160l-54 -308l233 308h185l-281 -356l163 -344h-168l-146 312l-55 -312h-160l54 309l-246 -309h-181z" />
    <glyph glyph-name="uni0417" unicode="&#x417;" horiz-adv-x="557" 
d="M238 -14q-97 0 -158.5 44t-86.5 122l146 76q13 -45 40.5 -68.5t81.5 -23.5q43 0 72 20t36 54q6 35 -16 54.5t-71 19.5h-89l25 142h69q93 0 107 69q5 33 -13 51t-60 18q-71 0 -117 -82l-131 83q92 149 274 149q101 0 163 -62t46 -155q-17 -95 -95 -142q85 -59 65 -167
q-17 -97 -92.5 -149.5t-195.5 -52.5z" />
    <glyph glyph-name="uni0418" unicode="&#x418;" horiz-adv-x="670" 
d="M139 700h160l-65 -369l335 369h120l-123 -700h-160l65 369l-335 -369h-120z" />
    <glyph glyph-name="uni0419" unicode="&#x419;" horiz-adv-x="670" 
d="M139 700h160l-65 -369l335 369h120l-123 -700h-160l65 369l-335 -369h-120zM287 889h300l-22 -130h-300z" />
    <glyph glyph-name="uni041A" unicode="&#x41a;" horiz-adv-x="626" 
d="M139 700h160l-52 -293l269 293h189l-318 -344l195 -356h-165l-183 333l-58 -333h-160z" />
    <glyph glyph-name="uni041B" unicode="&#x41b;" horiz-adv-x="670" 
d="M-8 148q7 -1 13 -1.5t12 -0.5q46 0 73.5 29t40.5 103l74 422h484l-123 -700h-160l96 546h-164l-46 -262q-16 -89 -45.5 -145.5t-67.5 -88t-82 -43t-87 -11.5q-11 0 -22 0.5t-22 1.5z" />
    <glyph glyph-name="uni041C" unicode="&#x41c;" horiz-adv-x="820" 
d="M16 0l123 700h160l121 -316l245 316h174l-123 -700h-160l72 410l-239 -300h-18l-123 302l-72 -412h-160z" />
    <glyph glyph-name="uni041D" unicode="&#x41d;" horiz-adv-x="660" 
d="M139 700h160l-47 -268h220l47 268h160l-123 -700h-160l49 278h-220l-49 -278h-160z" />
    <glyph glyph-name="uni041E" unicode="&#x41e;" horiz-adv-x="788" 
d="M110 96q-89 111 -61 264q15 80 52 145t92.5 111.5t126.5 72t152 25.5q150 0 239 -110q90 -111 63 -264q-14 -79 -51.5 -144.5t-93 -112t-126.5 -72t-151 -25.5q-152 0 -242 110zM209 350q-16 -92 29 -151q45 -57 131 -57q46 0 87 16t73.5 43.5t54.5 65.5t30 83
q16 91 -32 150q-48 58 -134 58q-46 0 -86 -16t-71.5 -44t-52.5 -66t-29 -82z" />
    <glyph glyph-name="uni041F" unicode="&#x41f;" horiz-adv-x="650" 
d="M139 700h530l-123 -700h-160l96 546h-210l-96 -546h-160z" />
    <glyph glyph-name="uni0420" unicode="&#x420;" horiz-adv-x="590" 
d="M139 700h253q108 0 168 -72q60 -71 45 -178q-8 -56 -33.5 -99t-63.5 -72t-86.5 -44t-103.5 -15h-103l-39 -220h-160zM334 370q45 0 74 24t37 66t-11.5 66t-67.5 24h-93l-32 -180h93z" />
    <glyph glyph-name="uni0421" unicode="&#x421;" horiz-adv-x="723" 
d="M111 95q-88 108 -62 265q13 77 50 142t91.5 112t124.5 73.5t149 26.5q100 0 171.5 -42.5t106.5 -120.5l-147 -77q-41 84 -148 84q-48 0 -88 -15t-70.5 -42.5t-51 -66t-28.5 -84.5q-16 -92 28 -151q43 -57 131 -57q114 0 182 89l130 -85q-57 -75 -140.5 -117.5
t-180.5 -42.5q-160 0 -248 109z" />
    <glyph glyph-name="uni0422" unicode="&#x422;" horiz-adv-x="540" 
d="M89 700h520l-27 -154h-180l-96 -546h-160l96 546h-180z" />
    <glyph glyph-name="uni0423" unicode="&#x423;" horiz-adv-x="610" 
d="M96 150q5 -1 9.5 -1h9.5q83 0 131 73l-147 478h154l90 -306l170 306h166l-279 -494q-33 -58 -68 -97.5t-72.5 -64t-78 -35t-84.5 -10.5h-13.5t-13.5 1z" />
    <glyph glyph-name="uni0424" unicode="&#x424;" horiz-adv-x="824" 
d="M90 164q-72 80 -51 196q22 121 117.5 193t246.5 86l14 81h156l-15 -84q137 -19 210 -100q72 -79 52 -196q-22 -121 -117.5 -193t-246.5 -86l-14 -81h-156l15 84q-136 19 -211 100zM482 209q156 20 178 141t-128 141zM199 350q-23 -120 128 -141l50 282
q-157 -21 -178 -141z" />
    <glyph glyph-name="uni0425" unicode="&#x425;" horiz-adv-x="620" 
d="M-34 0l273 365l-140 335h174l78 -185l138 185h190l-260 -348l147 -352h-174l-85 202l-151 -202h-190z" />
    <glyph glyph-name="uni0426" unicode="&#x426;" horiz-adv-x="690" 
d="M16 0l123 700h160l-96 -546h210l96 546h160l-96 -546h75l-51 -288h-160l24 134h-445z" />
    <glyph glyph-name="uni0427" unicode="&#x427;" horiz-adv-x="635" 
d="M125 282q-65 60 -45 168l44 250h160l-40 -226q-9 -55 12 -76.5t78 -21.5q55 0 106 18l54 306h160l-123 -700h-160l41 233q-47 -11 -98 -11q-125 0 -189 60z" />
    <glyph glyph-name="uni0428" unicode="&#x428;" horiz-adv-x="940" 
d="M16 0l123 700h160l-96 -546h170l96 546h160l-96 -546h170l96 546h160l-123 -700h-820z" />
    <glyph glyph-name="uni0429" unicode="&#x429;" horiz-adv-x="980" 
d="M16 0l123 700h160l-96 -546h170l96 546h160l-96 -546h170l96 546h160l-96 -546h75l-51 -288h-160l24 134h-735z" />
    <glyph glyph-name="uni042A" unicode="&#x42a;" horiz-adv-x="690" 
d="M79 700h320l-38 -220h102q97 0 158 -76q61 -75 45 -174q-9 -54 -33.5 -96.5t-61.5 -72t-86 -45.5t-106 -16h-263l96 546h-160zM405 150q39 0 66.5 25.5t34.5 64.5q7 38 -12.5 64t-56.5 26h-103l-32 -180h103z" />
    <glyph glyph-name="uni042B" unicode="&#x42b;" horiz-adv-x="850" 
d="M16 0l123 700h160l-39 -220h103q97 0 158 -76q61 -75 45 -174q-9 -54 -33.5 -96.5t-61.5 -72t-86 -45.5t-106 -16h-263zM709 700h160l-123 -700h-160zM305 150q39 0 66.5 25.5t34.5 64.5q7 38 -12.5 64t-56.5 26h-103l-32 -180h103z" />
    <glyph glyph-name="uni042C" unicode="&#x42c;" horiz-adv-x="590" 
d="M139 700h160l-39 -220h103q97 0 158 -76q61 -75 45 -174q-9 -54 -33.5 -96.5t-61.5 -72t-86 -45.5t-106 -16h-263zM202 150h103q39 0 66.5 25.5t34.5 64.5q7 38 -12.5 64t-56.5 26h-103z" />
    <glyph glyph-name="uni042D" unicode="&#x42d;" horiz-adv-x="720" 
d="M159 226q39 -84 152 -84q70 0 125.5 35t85.5 98h-285l27 150h285q-8 63 -51 98t-112 35q-113 0 -179 -90l-129 84q55 76 140.5 119t182.5 43q160 0 245 -109t60 -265q-13 -78 -49 -143t-90 -112t-123 -73t-148 -26q-48 0 -92 11t-81 32t-65 51t-46 69z" />
    <glyph glyph-name="uni042E" unicode="&#x42e;" horiz-adv-x="1060" 
d="M16 0l123 700h160l-46 -263h94q23 64 62.5 115t91.5 87t113.5 55.5t129.5 19.5q150 0 239 -110q90 -111 63 -264q-14 -78 -52 -143t-94 -112t-126.5 -73t-149.5 -26q-131 0 -216 84q-44 42 -65 95.5t-23 117.5h-94l-50 -283h-160zM481 350q-16 -92 29 -151
q45 -57 131 -57q46 0 87 16t73.5 43.5t54.5 65.5t30 83q16 91 -32 150q-48 58 -134 58q-46 0 -86 -16t-71.5 -44t-52.5 -66t-29 -82z" />
    <glyph glyph-name="uni042F" unicode="&#x42f;" horiz-adv-x="625" 
d="M191 251q-32 15 -54.5 38t-36 52t-17.5 62.5t2 68.5q9 53 35 95.5t63.5 72t85 45t100.5 15.5h275l-123 -700h-160l40 230h-39l-186 -230h-195zM242 460q-3 -19 1 -35.5t14 -28.5t25.5 -19t33.5 -7h110l32 180h-110q-39 0 -69 -25.5t-37 -64.5z" />
    <glyph glyph-name="uni0430" unicode="&#x430;" horiz-adv-x="623" 
d="M63 69q-52 83 -31 193q10 52 34 98t60.5 80.5t83.5 54t103 19.5q94 0 140 -67l9 53h150l-88 -500h-150l6 34q-57 -48 -150 -48q-114 0 -167 83zM182 250q-10 -57 17 -89.5t79 -32.5t91 33t49 88v1q10 57 -17.5 89.5t-79.5 32.5t-90.5 -32.5t-48.5 -89.5z" />
    <glyph glyph-name="uni0431" unicode="&#x431;" horiz-adv-x="566" 
d="M75 63q-64 76 -44 195q10 64 26.5 112.5t44.5 86.5t69.5 68.5t101.5 57.5l98 44q35 16 62.5 38.5t47.5 54.5l114 -71q-15 -35 -38 -60t-51 -43.5t-60.5 -32t-66.5 -25.5q-33 -12 -56.5 -23t-40.5 -22.5t-28.5 -24t-20.5 -27.5q61 47 139 47q34 0 68.5 -16t61 -45.5
t39 -71.5t3.5 -95q-9 -54 -34.5 -96t-63.5 -70.5t-85.5 -43t-100.5 -14.5q-120 0 -185 77zM182 224q-8 -45 18 -74q25 -29 73 -29q44 0 79.5 27t43.5 72q4 21 -1 39.5t-17 32t-30.5 21.5t-42.5 8q-21 0 -41.5 -7t-37.5 -20t-28.5 -30.5t-15.5 -39.5z" />
    <glyph glyph-name="uni0432" unicode="&#x432;" horiz-adv-x="515" 
d="M99 500h250q73 0 114 -44t30 -107q-12 -66 -65 -98q59 -42 47 -116q-12 -64 -60.5 -99.5t-133.5 -35.5h-270zM173 124h109q45 0 51 37q3 17 -7.5 26t-30.5 9h-110zM206 310h93q44 0 50 34q6 36 -37 36h-94z" />
    <glyph glyph-name="uni0433" unicode="&#x433;" horiz-adv-x="405" 
d="M449 500l-25 -144h-200l-63 -356h-150l88 500h350z" />
    <glyph glyph-name="uni0434" unicode="&#x434;" horiz-adv-x="600" 
d="M-9 140h62q50 61 70 173l33 187h403l-63 -360h65l-49 -274h-146l24 134h-278l-24 -134h-146zM269 313q-9 -54 -23.5 -97.5t-33.5 -75.5h138l39 226h-111z" />
    <glyph glyph-name="uni0435" unicode="&#x435;" horiz-adv-x="582" 
d="M78 65q-65 81 -46 195q8 55 35 101.5t67.5 80.5t91 53t105.5 19q112 0 176 -76q66 -78 45 -188q-2 -16 -6.5 -31t-9.5 -29h-358q10 -70 103 -70q63 0 105 39l105 -86q-86 -87 -220 -87q-127 0 -193 79zM321 381q-83 0 -122 -77h212q-8 77 -90 77z" />
    <glyph glyph-name="uni0436" unicode="&#x436;" horiz-adv-x="770" 
d="M-34 0l216 265l-116 235h147l105 -212l37 212h146l-38 -216l172 216h164l-209 -254l126 -246h-151l-113 224l-39 -224h-146l39 221l-181 -221h-159z" />
    <glyph glyph-name="uni0437" unicode="&#x437;" horiz-adv-x="453" 
d="M187 -14q-157 0 -198 119l129 66q16 -55 86 -55q58 0 66 39q6 35 -41 35h-71l22 126h54q47 0 53 34q3 18 -8 27t-33 9q-56 0 -90 -57l-113 70q82 115 217 115q88 0 135 -48t36 -110q-12 -73 -72 -107q65 -44 52 -121q-11 -66 -67.5 -104t-156.5 -38z" />
    <glyph glyph-name="uni0438" unicode="&#x438;" 
d="M99 500h146l-43 -244l257 244h110l-88 -500h-146l43 244l-257 -244h-110z" />
    <glyph glyph-name="uni0439" unicode="&#x439;" 
d="M99 500h146l-43 -244l257 244h110l-88 -500h-146l43 244l-257 -244h-110zM195 559l22 130h300l-22 -130h-300z" />
    <glyph glyph-name="uni043A" unicode="&#x43a;" horiz-adv-x="525" 
d="M99 500h150l-36 -207l178 207h173l-221 -250l138 -250h-160l-120 228l-40 -228h-150z" />
    <glyph glyph-name="uni043B" unicode="&#x43b;" horiz-adv-x="545" 
d="M-9 140q5 -2 9.5 -2h9.5q53 0 66 79l50 283h408l-88 -500h-150l63 356h-109l-26 -149q-19 -110 -71.5 -160t-140.5 -50q-21 0 -45 3z" />
    <glyph glyph-name="uni043C" unicode="&#x43c;" horiz-adv-x="640" 
d="M11 0l88 500h144l77 -194l154 194h155l-88 -500h-144l46 259l-144 -175h-18l-81 174l-45 -258h-144z" />
    <glyph glyph-name="uni043D" unicode="&#x43d;" 
d="M99 500h150l-32 -180h170l32 180h150l-88 -500h-150l32 180h-170l-32 -180h-150z" />
    <glyph glyph-name="uni043E" unicode="&#x43e;" horiz-adv-x="590" 
d="M117 29q-58 45 -77.5 108t-5.5 133q11 55 38.5 100t67 77t89 49.5t105.5 17.5q119 0 181 -87q62 -86 42 -193q-9 -53 -36 -98t-66 -78.5t-88 -52.5t-103 -19q-89 0 -147 43zM184 250q-9 -54 16 -86t74 -32t87 32t47 86t-17 86t-75 32t-85.5 -32t-46.5 -86z" />
    <glyph glyph-name="uni043F" unicode="&#x43f;" 
d="M99 500h470l-88 -500h-150l63 360h-170l-63 -360h-150z" />
    <glyph glyph-name="uni0440" unicode="&#x440;" horiz-adv-x="623" 
d="M99 500h150l-7 -42q62 56 149 56q106 0 162 -83q55 -81 38 -191q-15 -101 -89 -178q-73 -76 -184 -76q-100 0 -147 71l-45 -257h-150zM204 246q-7 -54 20 -86t79 -32q56 0 92 34t46 88q11 57 -16 89.5t-79 32.5q-51 0 -89.5 -31.5t-50.5 -85.5z" />
    <glyph glyph-name="uni0441" unicode="&#x441;" horiz-adv-x="535" 
d="M80 65q-66 79 -48 195q8 56 34.5 102.5t66.5 80.5t90.5 52.5t106.5 18.5q78 0 133 -35t80 -95l-137 -72q-23 54 -89 54q-25 0 -47.5 -8.5t-40.5 -23.5t-30.5 -36t-16.5 -46q-9 -51 18 -84.5t76 -33.5q63 0 104 56l121 -77q-38 -63 -101 -95t-135 -32q-119 0 -185 79z" />
    <glyph glyph-name="uni0442" unicode="&#x442;" horiz-adv-x="470" 
d="M54 500h450l-25 -144h-149l-63 -356h-150l63 356h-151z" />
    <glyph glyph-name="uni0443" unicode="&#x443;" horiz-adv-x="530" 
d="M318 15q-25 -47 -54 -87t-65 -68.5t-81 -44.5t-101 -16q-5 0 -10.5 0.5t-11.5 0.5l24 140q27 0 46.5 4t35.5 13.5t29 25t25 39.5l-111 478h154l62 -306l148 306h166l-256 -485v0z" />
    <glyph glyph-name="uni0444" unicode="&#x444;" horiz-adv-x="690" 
d="M69 91q-54 73 -37 169q9 49 32.5 91t60 74.5t85 53.5t107.5 29l34 192h146l-34 -196q104 -23 158 -96t37 -168q-9 -50 -32.5 -91.5t-60 -74t-85.5 -53.5t-107 -29l-34 -192h-146l34 196q-105 23 -158 95zM398 137q97 25 114 113q17 87 -74 113zM178 250q-17 -87 74 -113
l40 226q-97 -25 -114 -113z" />
    <glyph glyph-name="uni0445" unicode="&#x445;" horiz-adv-x="530" 
d="M-44 0l226 259l-132 241h162l69 -127l111 127h176l-219 -251l137 -249h-162l-74 135l-118 -135h-176z" />
    <glyph glyph-name="uni0446" unicode="&#x446;" horiz-adv-x="610" 
d="M11 0l88 500h150l-63 -360h150l63 360h150l-63 -360h85l-49 -274h-146l24 134h-389z" />
    <glyph glyph-name="uni0447" unicode="&#x447;" horiz-adv-x="545" 
d="M77 183q-50 50 -35 132l32 185h150l-29 -165q-7 -29 11.5 -45t54.5 -16q18 0 40 4t46 13l37 209h150l-88 -500h-150l26 147q-58 -13 -106 -13q-90 0 -139 49z" />
    <glyph glyph-name="uni0448" unicode="&#x448;" horiz-adv-x="840" 
d="M99 500h150l-63 -360h140l63 360h150l-63 -360h140l63 360h150l-88 -500h-730z" />
    <glyph glyph-name="uni0449" unicode="&#x449;" horiz-adv-x="850" 
d="M11 0l88 500h150l-63 -360h130l63 360h150l-63 -360h130l63 360h150l-63 -360h65l-49 -274h-146l24 134h-629z" />
    <glyph glyph-name="uni044A" unicode="&#x44a;" horiz-adv-x="585" 
d="M44 500h285l-26 -150h84q83 0 130 -53q46 -53 33 -132q-29 -165 -225 -165h-234l63 356h-135zM264 130h85q22 0 37.5 12.5t19.5 32.5t-7.5 32.5t-33.5 12.5h-85z" />
    <glyph glyph-name="uni044B" unicode="&#x44b;" horiz-adv-x="740" 
d="M99 500h150l-26 -150h84q83 0 130 -53q46 -53 33 -132q-29 -165 -225 -165h-234zM491 0l88 500h150l-88 -500h-150zM184 130h85q22 0 37.5 12.5t19.5 32.5t-7.5 32.5t-33.5 12.5h-85z" />
    <glyph glyph-name="uni044C" unicode="&#x44c;" horiz-adv-x="505" 
d="M99 500h150l-26 -150h84q83 0 130 -53q46 -53 33 -132q-29 -165 -225 -165h-234zM184 130h85q22 0 37.5 12.5t19.5 32.5t-7.5 32.5t-33.5 12.5h-85z" />
    <glyph glyph-name="uni044D" unicode="&#x44d;" horiz-adv-x="535" 
d="M123 185q26 -56 97 -56q66 0 110 54h-139l24 134h139q-23 54 -92 54q-70 0 -110 -58l-118 74q40 58 104.5 92.5t137.5 34.5q114 0 180 -81t47 -193q-10 -58 -36 -105t-65 -80t-90 -51t-109 -18q-73 0 -130.5 34.5t-81.5 94.5z" />
    <glyph glyph-name="uni044E" unicode="&#x44e;" horiz-adv-x="815" 
d="M99 500h150l-32 -180h61q35 91 110.5 142.5t172.5 51.5q61 0 107 -25t75 -65t39 -90t0 -100q-9 -53 -35.5 -98t-65.5 -78.5t-87.5 -52.5t-102.5 -19q-51 0 -92 14.5t-70.5 40.5t-47 61.5t-22.5 77.5h-66l-32 -180h-150zM407 250q-9 -54 17 -86t75 -32q25 0 48 8.5
t41 24.5t30 37.5t17 47.5q9 52 -17 85t-77 33q-49 0 -86.5 -32t-47.5 -86z" />
    <glyph glyph-name="uni044F" unicode="&#x44f;" horiz-adv-x="525" 
d="M126 168q-42 27 -61.5 71.5t-11.5 92.5q6 36 23.5 66.5t45 53t64.5 35.5t84 13h244l-88 -500h-146l25 144h-29l-125 -144h-175zM260 368q-27 0 -42.5 -15.5t-19 -34.5t7 -34.5t36.5 -15.5h85l18 100h-85z" />
    <glyph glyph-name="uni0451" unicode="&#x451;" horiz-adv-x="582" 
d="M78 65q-65 81 -46 195q8 55 35 101.5t67.5 80.5t91 53t105.5 19q112 0 176 -76q66 -78 45 -188q-2 -16 -6.5 -31t-9.5 -29h-358q10 -70 103 -70q63 0 105 39l105 -86q-86 -87 -220 -87q-127 0 -193 79zM210 567q-18 22 -13 53t31 53t57 22t49 -22t13 -53t-31 -53
q-27 -22 -57 -22t-49 22zM400 567q-18 22 -13 53t31 53t57 22t49 -22t13 -53t-31 -53q-27 -22 -57 -22t-49 22zM321 381q-83 0 -122 -77h212q-8 77 -90 77z" />
    <glyph glyph-name="uni0452" unicode="&#x452;" horiz-adv-x="585" 
d="M16 0l96 546h-60l17 94h59l11 60h150l-11 -60h141l-17 -94h-140l-16 -93q55 61 147 61q80 0 127 -56q46 -55 30 -151l-54 -307q-20 -115 -76.5 -165t-161.5 -50h-15t-15 1l26 144q41 0 62.5 14t29.5 56l50 285q8 46 -12.5 68.5t-59.5 22.5q-42 0 -71.5 -25.5t-38.5 -77.5
l-48 -273h-150z" />
    <glyph glyph-name="uni0453" unicode="&#x453;" horiz-adv-x="405" 
d="M465 700l-136 -140h-148l100 140h184zM99 500h350l-25 -144h-200l-63 -356h-150z" />
    <glyph glyph-name="uni0454" unicode="&#x454;" horiz-adv-x="535" 
d="M78 67q-66 80 -46 193q10 56 36.5 103t66 80.5t90 52t107.5 18.5q73 0 130.5 -34.5t81.5 -94.5l-132 -70q-26 56 -95 56q-66 0 -109 -54h135l-24 -134h-137q22 -54 85 -54q76 0 116 58l118 -74q-40 -58 -104.5 -92.5t-137.5 -34.5q-114 0 -181 81z" />
    <glyph glyph-name="uni0455" unicode="&#x455;" horiz-adv-x="468" 
d="M130 177q22 -57 89 -57q50 0 55 26q3 16 -22 27t-61 21q-26 6 -53.5 17.5t-48.5 31t-31 49t-2 71.5q7 40 28 68.5t50.5 47t64 27t67.5 8.5q66 0 116.5 -28t74.5 -79l-135 -67q-18 44 -65 44q-45 0 -51 -31q-4 -20 20.5 -31t60.5 -20q26 -5 53.5 -15t48.5 -29t31.5 -48.5
t2.5 -74.5q-7 -38 -26 -66t-47.5 -46.5t-65 -27.5t-78.5 -9q-156 0 -211 123z" />
    <glyph glyph-name="uni0456" unicode="&#x456;" horiz-adv-x="260" 
d="M11 0l88 500h150l-88 -500h-150zM183 544q-38 0 -59.5 26.5t-15.5 63.5q3 18 12.5 34.5t24 28.5t32 19.5t35.5 7.5q37 0 59.5 -26.5t16.5 -63.5q-3 -18 -12.5 -34.5t-24 -29t-32 -19.5t-36.5 -7z" />
    <glyph glyph-name="uni0457" unicode="&#x457;" horiz-adv-x="260" 
d="M11 0l88 500h150l-88 -500h-150zM227 562q-18 22 -13 53t31 53t57 22t49 -22t13 -53t-31 -53q-27 -22 -57 -22t-49 22zM37 562q-18 22 -13 53t31 53t57 22t49 -22t13 -53t-31 -53q-27 -22 -57 -22t-49 22z" />
    <glyph glyph-name="uni0458" unicode="&#x458;" horiz-adv-x="275" 
d="M176 0q-10 -57 -28.5 -98t-47.5 -67t-69.5 -38t-92.5 -12h-15t-15 1l26 144q41 0 62.5 14t29.5 56l88 500h150zM198 544q-38 0 -59.5 26.5t-15.5 63.5q3 18 12.5 34.5t24 28.5t32 19.5t35.5 7.5q37 0 59.5 -26.5t16.5 -63.5q-3 -18 -12.5 -34.5t-24 -29t-32 -19.5
t-36.5 -7z" />
    <glyph glyph-name="uni0459" unicode="&#x459;" horiz-adv-x="765" 
d="M-9 140q5 -2 9.5 -2h9.5q53 0 66 79l50 283h398l-28 -160h79q77 0 122 -52q45 -53 32 -128q-14 -78 -69 -119t-145 -41h-229l63 356h-99l-26 -149q-19 -110 -71.5 -160t-140.5 -50q-21 0 -45 3zM459 130h80q16 0 29 10.5t17 29.5t-6 29.5t-26 10.5h-80z" />
    <glyph glyph-name="uni045A" unicode="&#x45a;" horiz-adv-x="800" 
d="M99 500h150l-28 -160h160l28 160h150l-28 -160h79q77 0 122 -52q45 -53 32 -128q-14 -78 -69 -119t-145 -41h-229l35 200h-160l-35 -200h-150zM494 130h80q16 0 29 10.5t17 29.5t-6 29.5t-26 10.5h-80z" />
    <glyph glyph-name="uni045B" unicode="&#x45b;" horiz-adv-x="585" 
d="M16 0l96 546h-60l17 94h59l11 60h150l-11 -60h141l-17 -94h-140l-16 -93q55 61 147 61q80 0 127 -56q46 -55 30 -151l-54 -307h-150l50 285q8 46 -12.5 68.5t-59.5 22.5q-42 0 -71.5 -25.5t-38.5 -77.5l-48 -273h-150z" />
    <glyph glyph-name="uni045C" unicode="&#x45c;" horiz-adv-x="525" 
d="M11 0l88 500h150l-36 -207l178 207h173l-221 -250l138 -250h-160l-120 228l-40 -228h-150zM341 700h184l-136 -140h-148z" />
    <glyph glyph-name="uni045E" unicode="&#x45e;" horiz-adv-x="530" 
d="M318 15q-25 -47 -54 -87t-65 -68.5t-81 -44.5t-101 -16q-5 0 -10.5 0.5t-11.5 0.5l24 140q27 0 46.5 4t35.5 13.5t29 25t25 39.5l-111 478h154l62 -306l148 306h166zM178 689h300l-22 -130h-300z" />
    <glyph glyph-name="uni045F" unicode="&#x45f;" 
d="M11 0l88 500h150l-63 -360h170l63 360h150l-88 -500h-162l-24 -134h-146l24 134h-162z" />
    <glyph glyph-name="uni0490" unicode="&#x490;" horiz-adv-x="470" 
d="M401 820h160l-49 -274h-240l-96 -546h-160l123 700h241z" />
    <glyph glyph-name="uni0491" unicode="&#x491;" horiz-adv-x="405" 
d="M321 600h146l-43 -244h-200l-63 -356h-150l88 500h204z" />
    <glyph glyph-name="Wgrave" unicode="&#x1e80;" horiz-adv-x="998" 
d="M249 700l37 -490l221 490h130l49 -490l207 490h174l-316 -700h-182l-42 413l-186 -413h-182l-70 700h160zM616 900l63 -140h-141l-95 140h173z" />
    <glyph glyph-name="wgrave" unicode="&#x1e81;" horiz-adv-x="780" 
d="M54 500h150l31 -268l119 268h145l33 -268l117 268h165l-248 -500h-140l-33 263l-117 -263h-150zM472 700l63 -140h-141l-95 140h173z" />
    <glyph glyph-name="Wacute" unicode="&#x1e82;" horiz-adv-x="998" 
d="M249 700l37 -490l221 490h130l49 -490l207 490h174l-316 -700h-182l-42 413l-186 -413h-182l-70 700h160zM599 900h184l-136 -140h-148z" />
    <glyph glyph-name="wacute" unicode="&#x1e83;" horiz-adv-x="780" 
d="M54 500h150l31 -268l119 268h145l33 -268l117 268h165l-248 -500h-140l-33 263l-117 -263h-150zM455 700h184l-136 -140h-148z" />
    <glyph glyph-name="Wdieresis" unicode="&#x1e84;" horiz-adv-x="998" 
d="M89 700h160l37 -490l221 490h130l49 -490l207 490h174l-316 -700h-182l-42 413l-186 -413h-182zM631 762q-18 22 -13 53t31 53t57 22t49 -22t13 -53t-31 -53q-27 -22 -57 -22t-49 22zM441 762q-18 22 -13 53t31 53t57 22t49 -22t13 -53t-31 -53q-27 -22 -57 -22t-49 22z
" />
    <glyph glyph-name="wdieresis" unicode="&#x1e85;" horiz-adv-x="780" 
d="M204 500l31 -268l119 268h145l33 -268l117 268h165l-248 -500h-140l-33 263l-117 -263h-150l-72 500h150zM487 562q-18 22 -13 53t31 53t57 22t49 -22t13 -53t-31 -53q-27 -22 -57 -22t-49 22zM297 562q-18 22 -13 53t31 53t57 22t49 -22t13 -53t-31 -53q-27 -22 -57 -22
t-49 22z" />
    <glyph glyph-name="uni1EA0" unicode="&#x1ea0;" horiz-adv-x="680" 
d="M-44 0l361 700h204l115 -700h-175l-14 110h-260l-56 -110h-175zM241 -240q-36 0 -56.5 25.5t-14.5 60.5q3 17 12 32.5t22.5 27.5t30 19t34.5 7q35 0 56.5 -25.5t16.5 -60.5q-3 -18 -12 -33.5t-22.5 -27t-31 -18.5t-35.5 -7zM262 260h167l-33 265z" />
    <glyph glyph-name="uni1EA1" unicode="&#x1ea1;" horiz-adv-x="623" 
d="M63 69q-52 83 -31 193q20 104 94 177q76 75 187 75q94 0 140 -67l9 53h150l-88 -500h-150l6 34q-57 -48 -150 -48q-114 0 -167 83zM182 250q-10 -57 17 -89.5t79 -32.5t91 33t49 88v1q10 57 -17.5 89.5t-79.5 32.5t-90.5 -32.5t-48.5 -89.5zM219 -240q-36 0 -56.5 25.5
t-14.5 60.5q3 17 12 32.5t22.5 27.5t30 19t34.5 7q35 0 56.5 -25.5t16.5 -60.5q-3 -18 -12 -33.5t-22.5 -27t-31 -18.5t-35.5 -7z" />
    <glyph glyph-name="uni1EA2" unicode="&#x1ea2;" horiz-adv-x="680" 
d="M317 700h204l115 -700h-175l-14 110h-260l-56 -110h-175zM331 893q29 29 60.5 41.5t69.5 12.5q53 0 81.5 -20.5t20.5 -62.5q-5 -25 -18 -41.5t-28 -29t-28 -22t-17 -21.5h-100q6 23 18.5 37t25 23.5t22.5 17t12 16.5q2 6 -2 11.5t-17 5.5q-12 0 -24.5 -6t-23.5 -19z
M262 260h167l-33 265z" />
    <glyph glyph-name="uni1EA3" unicode="&#x1ea3;" horiz-adv-x="623" 
d="M63 69q-52 83 -31 193q10 52 34 98t60.5 80.5t83.5 54t103 19.5q94 0 140 -67l9 53h150l-88 -500h-150l6 34q-57 -48 -150 -48q-114 0 -167 83zM182 250q-10 -57 17 -89.5t79 -32.5t91 33t49 88v1q10 57 -17.5 89.5t-79.5 32.5t-90.5 -32.5t-48.5 -89.5zM264 703
q29 29 60.5 41.5t69.5 12.5q53 0 81.5 -20.5t20.5 -62.5q-5 -25 -18 -41.5t-28 -29t-28 -22t-17 -21.5h-100q6 23 18.5 37t25 23.5t22.5 17t12 16.5q2 6 -2 11.5t-17 5.5q-12 0 -24.5 -6t-23.5 -19z" />
    <glyph glyph-name="uni1EA4" unicode="&#x1ea4;" horiz-adv-x="680" 
d="M317 700h204l115 -700h-175l-14 110h-260l-56 -110h-175zM256 750l123 140h137l75 -140h-135l-21 52l-44 -52h-135zM262 260h167l-33 265zM650 981h171l-127 -130h-137z" />
    <glyph glyph-name="uni1EA5" unicode="&#x1ea5;" horiz-adv-x="623" 
d="M63 69q-52 83 -31 193q10 52 34 98t60.5 80.5t83.5 54t103 19.5q94 0 140 -67l9 53h150l-88 -500h-150l6 34q-57 -48 -150 -48q-114 0 -167 83zM182 250q-10 -57 17 -89.5t79 -32.5t91 33t49 88v1q10 57 -17.5 89.5t-79.5 32.5t-90.5 -32.5t-48.5 -89.5zM201 550l123 140
h137l75 -140h-135l-21 52l-44 -52h-135zM595 781h171l-127 -130h-137z" />
    <glyph glyph-name="uni1EA6" unicode="&#x1ea6;" horiz-adv-x="680" 
d="M-44 0l361 700h204l115 -700h-175l-14 110h-260l-56 -110h-175zM256 750l123 140h137l75 -140h-135l-21 52l-44 -52h-135zM262 260h167l-33 265zM484 981h161l58 -130h-131z" />
    <glyph glyph-name="uni1EA7" unicode="&#x1ea7;" horiz-adv-x="623" 
d="M63 69q-52 83 -31 193q10 52 34 98t60.5 80.5t83.5 54t103 19.5q94 0 140 -67l9 53h150l-88 -500h-150l6 34q-57 -48 -150 -48q-114 0 -167 83zM182 250q-10 -57 17 -89.5t79 -32.5t91 33t49 88v1q10 57 -17.5 89.5t-79.5 32.5t-90.5 -32.5t-48.5 -89.5zM201 550l123 140
h137l75 -140h-135l-21 52l-44 -52h-135zM429 781h161l58 -130h-131z" />
    <glyph glyph-name="uni1EA8" unicode="&#x1ea8;" horiz-adv-x="680" 
d="M317 700h204l115 -700h-175l-14 110h-260l-56 -110h-175zM256 750l123 140h137l75 -140h-135l-21 52l-44 -52h-135zM518 985q26 27 56 38.5t65 11.5q50 0 76.5 -19.5t19.5 -58.5q-4 -23 -16.5 -38.5t-26.5 -27t-26.5 -20.5t-15.5 -20h-94q6 21 17.5 34t23.5 22t21.5 16
t10.5 16q1 5 -2.5 10.5t-15.5 5.5q-25 0 -44 -24zM429 260l-33 265l-134 -265h167z" />
    <glyph glyph-name="uni1EA9" unicode="&#x1ea9;" horiz-adv-x="623" 
d="M63 69q-52 83 -31 193q10 52 34 98t60.5 80.5t83.5 54t103 19.5q94 0 140 -67l9 53h150l-88 -500h-150l6 34q-57 -48 -150 -48q-114 0 -167 83zM182 250q-10 -57 17 -89.5t79 -32.5t91 33t49 88v1q10 57 -17.5 89.5t-79.5 32.5t-90.5 -32.5t-48.5 -89.5zM201 550l123 140
h137l75 -140h-135l-21 52l-44 -52h-135zM463 785q26 27 56 38.5t65 11.5q50 0 76.5 -19.5t19.5 -58.5q-4 -23 -16.5 -38.5t-26.5 -27t-26.5 -20.5t-15.5 -20h-94q6 21 17.5 34t23.5 22t21.5 16t10.5 16q1 5 -2.5 10.5t-15.5 5.5q-25 0 -44 -24z" />
    <glyph glyph-name="uni1EAA" unicode="&#x1eaa;" horiz-adv-x="680" 
d="M-44 0l361 700h204l115 -700h-175l-14 110h-260l-56 -110h-175zM295 906q5 51 24.5 84.5t47.5 44.5q10 5 20.5 6.5t21.5 1.5q35 0 71 -22q17 -10 24 -10q15 0 21 31h104q-2 -27 -9.5 -52t-21 -44t-34 -30.5t-50.5 -11.5q-35 0 -70 22q-17 11 -25 11q-14 0 -20 -31h-104z
M256 750l123 140h137l75 -140h-135l-21 52l-44 -52h-135zM262 260h167l-33 265z" />
    <glyph glyph-name="uni1EAB" unicode="&#x1eab;" horiz-adv-x="623" 
d="M63 69q-52 83 -31 193q10 52 34 98t60.5 80.5t83.5 54t103 19.5q94 0 140 -67l9 53h150l-88 -500h-150l6 34q-57 -48 -150 -48q-114 0 -167 83zM182 250q-10 -57 17 -89.5t79 -32.5t91 33t49 88v1q10 57 -17.5 89.5t-79.5 32.5t-90.5 -32.5t-48.5 -89.5zM240 706
q5 51 24.5 84.5t47.5 44.5q10 5 20.5 6.5t21.5 1.5q35 0 71 -22q17 -10 24 -10q15 0 21 31h104q-2 -27 -9.5 -52t-21 -44t-34 -30.5t-50.5 -11.5q-35 0 -70 22q-17 11 -25 11q-14 0 -20 -31h-104zM201 550l123 140h137l75 -140h-135l-21 52l-44 -52h-135z" />
    <glyph glyph-name="uni1EAC" unicode="&#x1eac;" horiz-adv-x="680" 
d="M-44 0l361 700h204l115 -700h-175l-14 110h-260l-56 -110h-175zM256 750l123 140h137l75 -140h-135l-21 52l-44 -52h-135zM241 -240q-36 0 -56.5 25.5t-14.5 60.5q3 17 12 32.5t22.5 27.5t30 19t34.5 7q35 0 56.5 -25.5t16.5 -60.5q-3 -18 -12 -33.5t-22.5 -27t-31 -18.5
t-35.5 -7zM429 260l-33 265l-134 -265h167z" />
    <glyph glyph-name="uni1EAD" unicode="&#x1ead;" horiz-adv-x="623" 
d="M63 69q-52 83 -31 193q10 52 34 98t60.5 80.5t83.5 54t103 19.5q94 0 140 -67l9 53h150l-88 -500h-150l6 34q-57 -48 -150 -48q-114 0 -167 83zM182 250q-10 -57 17 -89.5t79 -32.5t91 33t49 88v1q10 57 -17.5 89.5t-79.5 32.5t-90.5 -32.5t-48.5 -89.5zM324 690h137
l75 -140h-135l-21 52l-44 -52h-135zM219 -240q-36 0 -56.5 25.5t-14.5 60.5q3 17 12 32.5t22.5 27.5t30 19t34.5 7q35 0 56.5 -25.5t16.5 -60.5q-3 -18 -12 -33.5t-22.5 -27t-31 -18.5t-35.5 -7z" />
    <glyph glyph-name="uni1EAE" unicode="&#x1eae;" horiz-adv-x="680" 
d="M317 700h204l115 -700h-175l-14 110h-260l-56 -110h-175zM433 742q-79 0 -118 37.5t-27 102.5h122q-6 -43 33 -43q41 0 47 43h123q-11 -68 -56.5 -104t-123.5 -36zM262 260h167l-33 265zM376 900l94 130h171l-128 -130h-137z" />
    <glyph glyph-name="uni1EAF" unicode="&#x1eaf;" horiz-adv-x="623" 
d="M63 69q-52 83 -31 193q10 52 34 98t60.5 80.5t83.5 54t103 19.5q94 0 140 -67l9 53h150l-88 -500h-150l6 34q-57 -48 -150 -48q-114 0 -167 83zM182 250q-10 -57 17 -89.5t79 -32.5t91 33t49 88v1q10 57 -17.5 89.5t-79.5 32.5t-90.5 -32.5t-48.5 -89.5zM378 542
q-79 0 -118 37.5t-27 102.5h122q-6 -43 33 -43q41 0 47 43h123q-11 -68 -56.5 -104t-123.5 -36zM321 700l94 130h171l-128 -130h-137z" />
    <glyph glyph-name="uni1EB0" unicode="&#x1eb0;" horiz-adv-x="680" 
d="M317 700h204l115 -700h-175l-14 110h-260l-56 -110h-175zM433 742q-79 0 -118 37.5t-27 102.5h122q-6 -43 33 -43q41 0 47 43h123q-11 -68 -56.5 -104t-123.5 -36zM262 260h167l-33 265zM309 1030h161l58 -130h-131z" />
    <glyph glyph-name="uni1EB1" unicode="&#x1eb1;" horiz-adv-x="623" 
d="M63 69q-52 83 -31 193q10 52 34 98t60.5 80.5t83.5 54t103 19.5q94 0 140 -67l9 53h150l-88 -500h-150l6 34q-57 -48 -150 -48q-114 0 -167 83zM182 250q-10 -57 17 -89.5t79 -32.5t91 33t49 88v1q10 57 -17.5 89.5t-79.5 32.5t-90.5 -32.5t-48.5 -89.5zM378 542
q-79 0 -118 37.5t-27 102.5h122q-6 -43 33 -43q41 0 47 43h123q-11 -68 -56.5 -104t-123.5 -36zM415 830l58 -130h-131l-88 130h161z" />
    <glyph glyph-name="uni1EB2" unicode="&#x1eb2;" horiz-adv-x="680" 
d="M317 700h204l115 -700h-175l-14 110h-260l-56 -110h-175zM433 742q-79 0 -118 37.5t-27 102.5h122q-6 -43 33 -43q41 0 47 43h123q-11 -68 -56.5 -104t-123.5 -36zM367 1035q26 27 56 38.5t65 11.5q50 0 76.5 -19.5t19.5 -58.5q-4 -23 -16.5 -38.5t-26.5 -27t-26.5 -20.5
t-15.5 -20h-94q6 21 17.5 34t23.5 22t21.5 16t10.5 16q1 5 -2.5 10.5t-15.5 5.5q-25 0 -44 -24zM262 260h167l-33 265z" />
    <glyph glyph-name="uni1EB3" unicode="&#x1eb3;" horiz-adv-x="623" 
d="M63 69q-52 83 -31 193q10 52 34 98t60.5 80.5t83.5 54t103 19.5q94 0 140 -67l9 53h150l-88 -500h-150l6 34q-57 -48 -150 -48q-114 0 -167 83zM182 250q-10 -57 17 -89.5t79 -32.5t91 33t49 88v1q10 57 -17.5 89.5t-79.5 32.5t-90.5 -32.5t-48.5 -89.5zM378 542
q-79 0 -118 37.5t-27 102.5h122q-6 -43 33 -43q41 0 47 43h123q-11 -68 -56.5 -104t-123.5 -36zM312 834q26 27 56 38.5t65 11.5q50 0 76.5 -19.5t19.5 -58.5q-4 -23 -16.5 -38.5t-26.5 -27t-26.5 -20.5t-15.5 -20h-94q6 21 17.5 34t23.5 22t21.5 16t10.5 16q1 5 -2.5 10.5
t-15.5 5.5q-25 0 -44 -24z" />
    <glyph glyph-name="uni1EB4" unicode="&#x1eb4;" horiz-adv-x="680" 
d="M317 700h204l115 -700h-175l-14 110h-260l-56 -110h-175zM433 742q-79 0 -118 37.5t-27 102.5h122q-6 -43 33 -43q41 0 47 43h123q-11 -68 -56.5 -104t-123.5 -36zM292 900q5 51 25.5 84.5t49.5 44.5q19 8 43 8q39 0 74 -22q14 -10 25 -10q15 0 21 31h108q-2 -28 -10 -53
t-22 -44t-35.5 -30t-51.5 -11q-38 0 -73 22q-17 11 -26 11q-14 0 -20 -31h-108zM429 260l-33 265l-134 -265h167z" />
    <glyph glyph-name="uni1EB5" unicode="&#x1eb5;" horiz-adv-x="623" 
d="M63 69q-52 83 -31 193q10 52 34 98t60.5 80.5t83.5 54t103 19.5q94 0 140 -67l9 53h150l-88 -500h-150l6 34q-57 -48 -150 -48q-114 0 -167 83zM182 250q-10 -57 17 -89.5t79 -32.5t91 33t49 88v1q10 57 -17.5 89.5t-79.5 32.5t-90.5 -32.5t-48.5 -89.5zM378 542
q-79 0 -118 37.5t-27 102.5h122q-6 -43 33 -43q41 0 47 43h123q-11 -68 -56.5 -104t-123.5 -36zM237 700q5 51 25.5 84.5t49.5 44.5q19 8 43 8q39 0 74 -22q14 -10 25 -10q15 0 21 31h108q-2 -28 -10 -53t-22 -44t-35.5 -30t-51.5 -11q-38 0 -73 22q-17 11 -26 11
q-14 0 -20 -31h-108z" />
    <glyph glyph-name="uni1EB6" unicode="&#x1eb6;" horiz-adv-x="680" 
d="M-44 0l361 700h204l115 -700h-175l-14 110h-260l-56 -110h-175zM433 742q-79 0 -118 37.5t-27 102.5h122q-6 -43 33 -43q41 0 47 43h123q-11 -68 -56.5 -104t-123.5 -36zM241 -240q-36 0 -56.5 25.5t-14.5 60.5q3 17 12 32.5t22.5 27.5t30 19t34.5 7q35 0 56.5 -25.5
t16.5 -60.5q-3 -18 -12 -33.5t-22.5 -27t-31 -18.5t-35.5 -7zM262 260h167l-33 265z" />
    <glyph glyph-name="uni1EB7" unicode="&#x1eb7;" horiz-adv-x="623" 
d="M63 69q-52 83 -31 193q10 52 34 98t60.5 80.5t83.5 54t103 19.5q94 0 140 -67l9 53h150l-88 -500h-150l6 34q-57 -48 -150 -48q-114 0 -167 83zM182 250q-10 -57 17 -89.5t79 -32.5t91 33t49 88v1q10 57 -17.5 89.5t-79.5 32.5t-90.5 -32.5t-48.5 -89.5zM378 542
q-79 0 -118 37.5t-27 102.5h122q-6 -43 33 -43q41 0 47 43h123q-11 -68 -56.5 -104t-123.5 -36zM219 -240q-36 0 -56.5 25.5t-14.5 60.5q3 17 12 32.5t22.5 27.5t30 19t34.5 7q35 0 56.5 -25.5t16.5 -60.5q-3 -18 -12 -33.5t-22.5 -27t-31 -18.5t-35.5 -7z" />
    <glyph glyph-name="uni1EB8" unicode="&#x1eb8;" horiz-adv-x="530" 
d="M16 0l123 700h435l-27 -154h-275l-21 -117h251l-27 -150h-250l-22 -125h280l-27 -154h-440zM193 -240q-36 0 -56.5 25.5t-14.5 60.5q3 17 12 32.5t22.5 27.5t30 19t34.5 7q35 0 56.5 -25.5t16.5 -60.5q-3 -18 -12 -33.5t-22.5 -27t-31 -18.5t-35.5 -7z" />
    <glyph glyph-name="uni1EB9" unicode="&#x1eb9;" horiz-adv-x="582" 
d="M78 65q-65 81 -46 195q8 55 35 101.5t67.5 80.5t91 53t105.5 19q112 0 176 -76q66 -78 45 -188q-2 -16 -6.5 -31t-9.5 -29h-358q10 -70 103 -70q63 0 105 39l105 -86q-86 -87 -220 -87q-127 0 -193 79zM231 -240q-36 0 -56.5 25.5t-14.5 60.5q3 17 12 32.5t22.5 27.5
t30 19t34.5 7q35 0 56.5 -25.5t16.5 -60.5q-3 -18 -12 -33.5t-22.5 -27t-31 -18.5t-35.5 -7zM321 381q-83 0 -122 -77h212q-8 77 -90 77z" />
    <glyph glyph-name="uni1EBA" unicode="&#x1eba;" horiz-adv-x="530" 
d="M16 0l123 700h435l-27 -154h-275l-21 -117h251l-27 -150h-250l-22 -125h280l-27 -154h-440zM270 893q29 29 60.5 41.5t69.5 12.5q53 0 81.5 -20.5t20.5 -62.5q-5 -25 -18 -41.5t-28 -29t-28 -22t-17 -21.5h-100q6 23 18.5 37t25 23.5t22.5 17t12 16.5q2 6 -2 11.5
t-17 5.5q-12 0 -24.5 -6t-23.5 -19z" />
    <glyph glyph-name="uni1EBB" unicode="&#x1ebb;" horiz-adv-x="582" 
d="M78 65q-65 81 -46 195q8 55 35 101.5t67.5 80.5t91 53t105.5 19q112 0 176 -76q66 -78 45 -188q-2 -16 -6.5 -31t-9.5 -29h-358q10 -70 103 -70q63 0 105 39l105 -86q-86 -87 -220 -87q-127 0 -193 79zM250 703q29 29 60.5 41.5t69.5 12.5q53 0 81.5 -20.5t20.5 -62.5
q-5 -25 -18 -41.5t-28 -29t-28 -22t-17 -21.5h-100q6 23 18.5 37t25 23.5t22.5 17t12 16.5q2 6 -2 11.5t-17 5.5q-12 0 -24.5 -6t-23.5 -19zM411 304q-8 77 -90 77q-83 0 -122 -77h212z" />
    <glyph glyph-name="uni1EBC" unicode="&#x1ebc;" horiz-adv-x="530" 
d="M16 0l123 700h435l-27 -154h-275l-21 -117h251l-27 -150h-250l-22 -125h280l-27 -154h-440zM196 753q3 28 11 55.5t23 48.5t37.5 34t54.5 13q20 0 39.5 -6t37.5 -19q16 -12 26 -12q18 0 24 35h114q-3 -28 -10.5 -55t-22.5 -48.5t-37.5 -35t-53.5 -13.5q-40 0 -79 25
q-18 12 -28 12q-16 0 -22 -34h-114z" />
    <glyph glyph-name="uni1EBD" unicode="&#x1ebd;" horiz-adv-x="582" 
d="M78 65q-65 81 -46 195q8 55 35 101.5t67.5 80.5t91 53t105.5 19q112 0 176 -76q66 -78 45 -188q-2 -16 -6.5 -31t-9.5 -29h-358q10 -70 103 -70q63 0 105 39l105 -86q-86 -87 -220 -87q-127 0 -193 79zM161 558q3 28 11 55.5t23 48.5t37.5 34t54.5 13q20 0 39.5 -6
t37.5 -19q16 -12 26 -12q18 0 24 35h114q-3 -28 -10.5 -55t-22.5 -48.5t-37.5 -35t-53.5 -13.5q-40 0 -79 25q-18 12 -28 12q-16 0 -22 -34h-114zM411 304q-8 77 -90 77q-83 0 -122 -77h212z" />
    <glyph glyph-name="uni1EBE" unicode="&#x1ebe;" horiz-adv-x="530" 
d="M139 700h435l-27 -154h-275l-21 -117h251l-27 -150h-250l-22 -125h280l-27 -154h-440zM194 750l123 140h137l75 -140h-135l-21 52l-44 -52h-135zM495 851l93 130h171l-127 -130h-137z" />
    <glyph glyph-name="uni1EBF" unicode="&#x1ebf;" horiz-adv-x="582" 
d="M78 65q-65 81 -46 195q8 55 35 101.5t67.5 80.5t91 53t105.5 19q112 0 176 -76q66 -78 45 -188q-2 -16 -6.5 -31t-9.5 -29h-358q10 -70 103 -70q63 0 105 39l105 -86q-86 -87 -220 -87q-127 0 -193 79zM304 695h137l75 -140h-135l-21 52l-44 -52h-135zM575 786h171
l-127 -130h-137zM321 381q-83 0 -122 -77h212q-8 77 -90 77z" />
    <glyph glyph-name="uni1EC0" unicode="&#x1ec0;" horiz-adv-x="530" 
d="M139 700h435l-27 -154h-275l-21 -117h251l-27 -150h-250l-22 -125h280l-27 -154h-440zM194 750l123 140h137l75 -140h-135l-21 52l-44 -52h-135zM422 981h161l58 -130h-131z" />
    <glyph glyph-name="uni1EC1" unicode="&#x1ec1;" horiz-adv-x="582" 
d="M78 65q-65 81 -46 195q8 55 35 101.5t67.5 80.5t91 53t105.5 19q112 0 176 -76q66 -78 45 -188q-2 -16 -6.5 -31t-9.5 -29h-358q10 -70 103 -70q63 0 105 39l105 -86q-86 -87 -220 -87q-127 0 -193 79zM304 695h137l75 -140h-135l-21 52l-44 -52h-135zM409 786h161
l58 -130h-131zM321 381q-83 0 -122 -77h212q-8 77 -90 77z" />
    <glyph glyph-name="uni1EC2" unicode="&#x1ec2;" horiz-adv-x="530" 
d="M139 700h435l-27 -154h-275l-21 -117h251l-27 -150h-250l-22 -125h280l-27 -154h-440zM194 750l123 140h137l75 -140h-135l-21 52l-44 -52h-135zM456 985q26 27 56 38.5t65 11.5q50 0 76.5 -19.5t19.5 -58.5q-4 -23 -16.5 -38.5t-26.5 -27t-26.5 -20.5t-15.5 -20h-94
q6 21 17.5 34t23.5 22t21.5 16t10.5 16q1 5 -2.5 10.5t-15.5 5.5q-25 0 -44 -24z" />
    <glyph glyph-name="uni1EC3" unicode="&#x1ec3;" horiz-adv-x="582" 
d="M78 65q-65 81 -46 195q8 55 35 101.5t67.5 80.5t91 53t105.5 19q112 0 176 -76q66 -78 45 -188q-2 -16 -6.5 -31t-9.5 -29h-358q10 -70 103 -70q63 0 105 39l105 -86q-86 -87 -220 -87q-127 0 -193 79zM304 695h137l75 -140h-135l-21 52l-44 -52h-135zM443 790
q26 27 56 38.5t65 11.5q50 0 76.5 -19.5t19.5 -58.5q-4 -23 -16.5 -38.5t-26.5 -27t-26.5 -20.5t-15.5 -20h-94q6 21 17.5 34t23.5 22t21.5 16t10.5 16q1 5 -2.5 10.5t-15.5 5.5q-25 0 -44 -24zM411 304q-8 77 -90 77q-83 0 -122 -77h212z" />
    <glyph glyph-name="uni1EC4" unicode="&#x1ec4;" horiz-adv-x="530" 
d="M16 0l123 700h435l-27 -154h-275l-21 -117h251l-27 -150h-250l-22 -125h280l-27 -154h-440zM233 906q5 51 24.5 84.5t47.5 44.5q10 5 20.5 6.5t21.5 1.5q35 0 71 -22q17 -10 24 -10q15 0 21 31h104q-2 -27 -9.5 -52t-21 -44t-34 -30.5t-50.5 -11.5q-35 0 -70 22
q-17 11 -25 11q-14 0 -20 -31h-104zM194 750l123 140h137l75 -140h-135l-21 52l-44 -52h-135z" />
    <glyph glyph-name="uni1EC5" unicode="&#x1ec5;" horiz-adv-x="582" 
d="M78 65q-65 81 -46 195q8 55 35 101.5t67.5 80.5t91 53t105.5 19q112 0 176 -76q66 -78 45 -188q-2 -16 -6.5 -31t-9.5 -29h-358q10 -70 103 -70q63 0 105 39l105 -86q-86 -87 -220 -87q-127 0 -193 79zM220 711q5 51 24.5 84.5t47.5 44.5q10 5 20.5 6.5t21.5 1.5
q35 0 71 -22q17 -10 24 -10q15 0 21 31h104q-2 -27 -9.5 -52t-21 -44t-34 -30.5t-50.5 -11.5q-35 0 -70 22q-17 11 -25 11q-14 0 -20 -31h-104zM181 555l123 140h137l75 -140h-135l-21 52l-44 -52h-135zM411 304q-8 77 -90 77q-83 0 -122 -77h212z" />
    <glyph glyph-name="uni1EC6" unicode="&#x1ec6;" horiz-adv-x="530" 
d="M139 700h435l-27 -154h-275l-21 -117h251l-27 -150h-250l-22 -125h280l-27 -154h-440zM317 890h137l75 -140h-135l-21 52l-44 -52h-135zM193 -240q-36 0 -56.5 25.5t-14.5 60.5q3 17 12 32.5t22.5 27.5t30 19t34.5 7q35 0 56.5 -25.5t16.5 -60.5q-3 -18 -12 -33.5
t-22.5 -27t-31 -18.5t-35.5 -7z" />
    <glyph glyph-name="uni1EC7" unicode="&#x1ec7;" horiz-adv-x="582" 
d="M78 65q-65 81 -46 195q8 55 35 101.5t67.5 80.5t91 53t105.5 19q112 0 176 -76q66 -78 45 -188q-2 -16 -6.5 -31t-9.5 -29h-358q10 -70 103 -70q63 0 105 39l105 -86q-86 -87 -220 -87q-127 0 -193 79zM181 555l123 140h137l75 -140h-135l-21 52l-44 -52h-135zM231 -240
q-36 0 -56.5 25.5t-14.5 60.5q3 17 12 32.5t22.5 27.5t30 19t34.5 7q35 0 56.5 -25.5t16.5 -60.5q-3 -18 -12 -33.5t-22.5 -27t-31 -18.5t-35.5 -7zM411 304q-8 77 -90 77q-83 0 -122 -77h212z" />
    <glyph glyph-name="uni1EC8" unicode="&#x1ec8;" horiz-adv-x="280" 
d="M16 0l123 700h160l-123 -700h-160zM133 893q29 29 60.5 41.5t69.5 12.5q53 0 81.5 -20.5t20.5 -62.5q-5 -25 -18 -41.5t-28 -29t-28 -22t-17 -21.5h-100q6 23 18.5 37t25 23.5t22.5 17t12 16.5q2 6 -2 11.5t-17 5.5q-12 0 -24.5 -6t-23.5 -19z" />
    <glyph glyph-name="uni1EC9" unicode="&#x1ec9;" horiz-adv-x="260" 
d="M99 500h150l-88 -500h-150zM91 703q29 29 60.5 41.5t69.5 12.5q53 0 81.5 -20.5t20.5 -62.5q-5 -25 -18 -41.5t-28 -29t-28 -22t-17 -21.5h-100q6 23 18.5 37t25 23.5t22.5 17t12 16.5q2 6 -2 11.5t-17 5.5q-12 0 -24.5 -6t-23.5 -19z" />
    <glyph glyph-name="uni1ECA" unicode="&#x1eca;" horiz-adv-x="280" 
d="M139 700h160l-123 -700h-160zM55 -240q-36 0 -56.5 25.5t-14.5 60.5q3 17 12 32.5t22.5 27.5t30 19t34.5 7q35 0 56.5 -25.5t16.5 -60.5q-3 -18 -12 -33.5t-22.5 -27t-31 -18.5t-35.5 -7z" />
    <glyph glyph-name="uni1ECB" unicode="&#x1ecb;" horiz-adv-x="260" 
d="M99 500h150l-88 -500h-150zM183 544q-36 0 -56.5 25.5t-14.5 60.5q3 17 12 32.5t22.5 27.5t30 19t34.5 7q35 0 56.5 -25.5t16.5 -60.5q-3 -18 -12 -33.5t-22.5 -27t-31 -18.5t-35.5 -7zM43 -240q-36 0 -56.5 25.5t-14.5 60.5q3 17 12 32.5t22.5 27.5t30 19t34.5 7
q35 0 56.5 -25.5t16.5 -60.5q-3 -18 -12 -33.5t-22.5 -27t-31 -18.5t-35.5 -7z" />
    <glyph glyph-name="uni1ECC" unicode="&#x1ecc;" horiz-adv-x="788" 
d="M110 96q-89 111 -61 264q15 80 52 145t92.5 111.5t126.5 72t152 25.5q150 0 239 -110q90 -111 63 -264q-14 -79 -51.5 -144.5t-93 -112t-126.5 -72t-151 -25.5q-152 0 -242 110zM209 350q-16 -92 29 -151q45 -57 131 -57q46 0 87 16t73.5 43.5t54.5 65.5t30 83
q16 91 -32 150q-48 58 -134 58q-46 0 -86 -16t-71.5 -44t-52.5 -66t-29 -82zM285 -240q-36 0 -56.5 25.5t-14.5 60.5q3 17 12 32.5t22.5 27.5t30 19t34.5 7q35 0 56.5 -25.5t16.5 -60.5q-3 -18 -12 -33.5t-22.5 -27t-31 -18.5t-35.5 -7z" />
    <glyph glyph-name="uni1ECD" unicode="&#x1ecd;" horiz-adv-x="590" 
d="M117 29q-58 45 -77.5 108t-5.5 133q11 55 38.5 100t67 77t89 49.5t105.5 17.5q119 0 181 -87q62 -86 42 -193q-9 -53 -36 -98t-66 -78.5t-88 -52.5t-103 -19q-89 0 -147 43zM184 250q-9 -54 16 -86t74 -32t87 32t47 86t-17 86t-75 32t-85.5 -32t-46.5 -86zM203 -240
q-36 0 -56.5 25.5t-14.5 60.5q3 17 12 32.5t22.5 27.5t30 19t34.5 7q35 0 56.5 -25.5t16.5 -60.5q-3 -18 -12 -33.5t-22.5 -27t-31 -18.5t-35.5 -7z" />
    <glyph glyph-name="uni1ECE" unicode="&#x1ece;" horiz-adv-x="788" 
d="M110 96q-89 111 -61 264q15 80 52 145t92.5 111.5t126.5 72t152 25.5q150 0 239 -110q90 -111 63 -264q-14 -79 -51.5 -144.5t-93 -112t-126.5 -72t-151 -25.5q-152 0 -242 110zM209 350q-16 -92 29 -151q45 -57 131 -57q46 0 87 16t73.5 43.5t54.5 65.5t30 83
q16 91 -32 150q-48 58 -134 58q-46 0 -86 -16t-71.5 -44t-52.5 -66t-29 -82zM383 893q29 29 60.5 41.5t69.5 12.5q53 0 81.5 -20.5t20.5 -62.5q-5 -25 -18 -41.5t-28 -29t-28 -22t-17 -21.5h-100q6 23 18.5 37t25 23.5t22.5 17t12 16.5q2 6 -2 11.5t-17 5.5q-12 0 -24.5 -6
t-23.5 -19z" />
    <glyph glyph-name="uni1ECF" unicode="&#x1ecf;" horiz-adv-x="590" 
d="M117 29q-58 45 -77.5 108t-5.5 133q11 55 38.5 100t67 77t89 49.5t105.5 17.5q119 0 181 -87q62 -86 42 -193q-9 -53 -36 -98t-66 -78.5t-88 -52.5t-103 -19q-89 0 -147 43zM184 250q-9 -54 16 -86t74 -32t87 32t47 86t-17 86t-75 32t-85.5 -32t-46.5 -86zM252 703
q29 29 60.5 41.5t69.5 12.5q53 0 81.5 -20.5t20.5 -62.5q-5 -25 -18 -41.5t-28 -29t-28 -22t-17 -21.5h-100q6 23 18.5 37t25 23.5t22.5 17t12 16.5q2 6 -2 11.5t-17 5.5q-12 0 -24.5 -6t-23.5 -19z" />
    <glyph glyph-name="uni1ED0" unicode="&#x1ed0;" horiz-adv-x="788" 
d="M110 96q-89 111 -61 264q15 80 52 145t92.5 111.5t126.5 72t152 25.5q150 0 239 -110q90 -111 63 -264q-14 -79 -51.5 -144.5t-93 -112t-126.5 -72t-151 -25.5q-152 0 -242 110zM209 350q-16 -92 29 -151q45 -57 131 -57q46 0 87 16t73.5 43.5t54.5 65.5t30 83
q16 91 -32 150q-48 58 -134 58q-46 0 -86 -16t-71.5 -44t-52.5 -66t-29 -82zM319 760l123 140h137l75 -140h-135l-21 52l-44 -52h-135zM620 861l93 130h171l-127 -130h-137z" />
    <glyph glyph-name="uni1ED1" unicode="&#x1ed1;" horiz-adv-x="590" 
d="M117 29q-58 45 -77.5 108t-5.5 133q11 55 38.5 100t67 77t89 49.5t105.5 17.5q119 0 181 -87q62 -86 42 -193q-9 -53 -36 -98t-66 -78.5t-88 -52.5t-103 -19q-89 0 -147 43zM184 250q-9 -54 16 -86t74 -32t87 32t47 86t-17 86t-75 32t-85.5 -32t-46.5 -86zM182 560
l123 140h137l75 -140h-135l-21 52l-44 -52h-135zM483 661l93 130h171l-127 -130h-137z" />
    <glyph glyph-name="uni1ED2" unicode="&#x1ed2;" horiz-adv-x="788" 
d="M110 96q-89 111 -61 264q15 80 52 145t92.5 111.5t126.5 72t152 25.5q150 0 239 -110q90 -111 63 -264q-14 -79 -51.5 -144.5t-93 -112t-126.5 -72t-151 -25.5q-152 0 -242 110zM209 350q-16 -92 29 -151q45 -57 131 -57q46 0 87 16t73.5 43.5t54.5 65.5t30 83
q16 91 -32 150q-48 58 -134 58q-46 0 -86 -16t-71.5 -44t-52.5 -66t-29 -82zM319 760l123 140h137l75 -140h-135l-21 52l-44 -52h-135zM708 991l58 -130h-131l-88 130h161z" />
    <glyph glyph-name="uni1ED3" unicode="&#x1ed3;" horiz-adv-x="590" 
d="M117 29q-58 45 -77.5 108t-5.5 133q11 55 38.5 100t67 77t89 49.5t105.5 17.5q119 0 181 -87q62 -86 42 -193q-9 -53 -36 -98t-66 -78.5t-88 -52.5t-103 -19q-89 0 -147 43zM184 250q-9 -54 16 -86t74 -32t87 32t47 86t-17 86t-75 32t-85.5 -32t-46.5 -86zM182 560
l123 140h137l75 -140h-135l-21 52l-44 -52h-135zM571 791l58 -130h-131l-88 130h161z" />
    <glyph glyph-name="uni1ED4" unicode="&#x1ed4;" horiz-adv-x="788" 
d="M110 96q-89 111 -61 264q15 80 52 145t92.5 111.5t126.5 72t152 25.5q150 0 239 -110q90 -111 63 -264q-14 -79 -51.5 -144.5t-93 -112t-126.5 -72t-151 -25.5q-152 0 -242 110zM209 350q-16 -92 29 -151q45 -57 131 -57q46 0 87 16t73.5 43.5t54.5 65.5t30 83
q16 91 -32 150q-48 58 -134 58q-46 0 -86 -16t-71.5 -44t-52.5 -66t-29 -82zM442 900h137l75 -140h-135l-21 52l-44 -52h-135zM581 995q26 27 56 38.5t65 11.5q50 0 76.5 -19.5t19.5 -58.5q-4 -23 -16.5 -38.5t-26.5 -27t-26.5 -20.5t-15.5 -20h-94q6 21 17.5 34t23.5 22
t21.5 16t10.5 16q1 5 -2.5 10.5t-15.5 5.5q-25 0 -44 -24z" />
    <glyph glyph-name="uni1ED5" unicode="&#x1ed5;" horiz-adv-x="590" 
d="M117 29q-58 45 -77.5 108t-5.5 133q11 55 38.5 100t67 77t89 49.5t105.5 17.5q119 0 181 -87q62 -86 42 -193q-9 -53 -36 -98t-66 -78.5t-88 -52.5t-103 -19q-89 0 -147 43zM184 250q-9 -54 16 -86t74 -32t87 32t47 86t-17 86t-75 32t-85.5 -32t-46.5 -86zM305 700h137
l75 -140h-135l-21 52l-44 -52h-135zM444 795q26 27 56 38.5t65 11.5q50 0 76.5 -19.5t19.5 -58.5q-4 -23 -16.5 -38.5t-26.5 -27t-26.5 -20.5t-15.5 -20h-94q6 21 17.5 34t23.5 22t21.5 16t10.5 16q1 5 -2.5 10.5t-15.5 5.5q-25 0 -44 -24z" />
    <glyph glyph-name="uni1ED6" unicode="&#x1ed6;" horiz-adv-x="788" 
d="M110 96q-89 111 -61 264q15 80 52 145t92.5 111.5t126.5 72t152 25.5q150 0 239 -110q90 -111 63 -264q-14 -79 -51.5 -144.5t-93 -112t-126.5 -72t-151 -25.5q-152 0 -242 110zM209 350q-16 -92 29 -151q45 -57 131 -57q46 0 87 16t73.5 43.5t54.5 65.5t30 83
q16 91 -32 150q-48 58 -134 58q-46 0 -86 -16t-71.5 -44t-52.5 -66t-29 -82zM358 916q5 51 24.5 84.5t47.5 44.5q10 5 20.5 6.5t21.5 1.5q35 0 71 -22q17 -10 24 -10q15 0 21 31h104q-2 -27 -9.5 -52t-21 -44t-34 -30.5t-50.5 -11.5q-35 0 -70 22q-17 11 -25 11
q-14 0 -20 -31h-104zM442 900h137l75 -140h-135l-21 52l-44 -52h-135z" />
    <glyph glyph-name="uni1ED7" unicode="&#x1ed7;" horiz-adv-x="590" 
d="M117 29q-58 45 -77.5 108t-5.5 133q11 55 38.5 100t67 77t89 49.5t105.5 17.5q119 0 181 -87q62 -86 42 -193q-9 -53 -36 -98t-66 -78.5t-88 -52.5t-103 -19q-89 0 -147 43zM184 250q-9 -54 16 -86t74 -32t87 32t47 86t-17 86t-75 32t-85.5 -32t-46.5 -86zM221 716
q5 51 24.5 84.5t47.5 44.5q10 5 20.5 6.5t21.5 1.5q35 0 71 -22q17 -10 24 -10q15 0 21 31h104q-2 -27 -9.5 -52t-21 -44t-34 -30.5t-50.5 -11.5q-35 0 -70 22q-17 11 -25 11q-14 0 -20 -31h-104zM305 700h137l75 -140h-135l-21 52l-44 -52h-135z" />
    <glyph glyph-name="uni1ED8" unicode="&#x1ed8;" horiz-adv-x="788" 
d="M110 96q-89 111 -61 264q15 80 52 145t92.5 111.5t126.5 72t152 25.5q150 0 239 -110q90 -111 63 -264q-14 -79 -51.5 -144.5t-93 -112t-126.5 -72t-151 -25.5q-152 0 -242 110zM209 350q-16 -92 29 -151q45 -57 131 -57q46 0 87 16t73.5 43.5t54.5 65.5t30 83
q16 91 -32 150q-48 58 -134 58q-46 0 -86 -16t-71.5 -44t-52.5 -66t-29 -82zM442 900h137l75 -140h-135l-21 52l-44 -52h-135zM285 -240q-36 0 -56.5 25.5t-14.5 60.5q3 17 12 32.5t22.5 27.5t30 19t34.5 7q35 0 56.5 -25.5t16.5 -60.5q-3 -18 -12 -33.5t-22.5 -27
t-31 -18.5t-35.5 -7z" />
    <glyph glyph-name="uni1ED9" unicode="&#x1ed9;" horiz-adv-x="590" 
d="M117 29q-58 45 -77.5 108t-5.5 133q11 55 38.5 100t67 77t89 49.5t105.5 17.5q119 0 181 -87q62 -86 42 -193q-9 -53 -36 -98t-66 -78.5t-88 -52.5t-103 -19q-89 0 -147 43zM184 250q-9 -54 16 -86t74 -32t87 32t47 86t-17 86t-75 32t-85.5 -32t-46.5 -86zM182 560
l123 140h137l75 -140h-135l-21 52l-44 -52h-135zM203 -240q-36 0 -56.5 25.5t-14.5 60.5q3 17 12 32.5t22.5 27.5t30 19t34.5 7q35 0 56.5 -25.5t16.5 -60.5q-3 -18 -12 -33.5t-22.5 -27t-31 -18.5t-35.5 -7z" />
    <glyph glyph-name="uni1EDA" unicode="&#x1eda;" horiz-adv-x="788" 
d="M110 96q-89 111 -61 264q15 80 52 145t92.5 111.5t126.5 72t152 25.5q51 0 99 -14h2q12 0 24.5 4t23.5 12.5t19.5 23t12.5 35.5h144q-9 -48 -38 -86.5t-74 -56.5l13.5 -13.5t12.5 -14.5q90 -112 63 -264q-14 -79 -51.5 -144.5t-93 -112t-126.5 -72t-151 -25.5
q-152 0 -242 110zM209 350q-16 -91 29 -150q46 -58 131 -58q46 0 87 16t73.5 43.5t54.5 65.5t30 83q16 91 -32 150q-48 58 -134 58q-46 0 -86 -16t-71.5 -44t-52.5 -66t-29 -82zM401 770l100 140h184l-136 -140h-148z" />
    <glyph glyph-name="uni1EDB" unicode="&#x1edb;" horiz-adv-x="590" 
d="M117 29q-58 45 -77.5 108t-5.5 133q11 55 38.5 100t67 77t89 49.5t105.5 17.5q47 0 87 -14h2q12 0 24.5 4t23.5 12.5t19.5 23t12.5 35.5h144q-10 -54 -44.5 -94.5t-86.5 -55.5q60 -86 41 -191q-9 -53 -36 -98t-66 -78.5t-88 -52.5t-103 -19q-89 0 -147 43zM184 250
q-9 -54 16 -86t74 -32t87 32t47 86t-17 86t-75 32t-85.5 -32t-46.5 -86zM265 570l100 140h184l-136 -140h-148z" />
    <glyph glyph-name="uni1EDC" unicode="&#x1edc;" horiz-adv-x="788" 
d="M110 96q-89 111 -61 264q15 80 52 145t92.5 111.5t126.5 72t152 25.5q51 0 99 -14h2q12 0 24.5 4t23.5 12.5t19.5 23t12.5 35.5h144q-9 -48 -38 -86.5t-74 -56.5l13.5 -13.5t12.5 -14.5q90 -112 63 -264q-14 -79 -51.5 -144.5t-93 -112t-126.5 -72t-151 -25.5
q-152 0 -242 110zM209 350q-16 -91 29 -150q46 -58 131 -58q46 0 87 16t73.5 43.5t54.5 65.5t30 83q16 91 -32 150q-48 58 -134 58q-46 0 -86 -16t-71.5 -44t-52.5 -66t-29 -82zM311 910h173l63 -140h-141z" />
    <glyph glyph-name="uni1EDD" unicode="&#x1edd;" horiz-adv-x="590" 
d="M117 29q-58 45 -77.5 108t-5.5 133q11 55 38.5 100t67 77t89 49.5t105.5 17.5q47 0 87 -14h2q12 0 24.5 4t23.5 12.5t19.5 23t12.5 35.5h144q-10 -54 -44.5 -94.5t-86.5 -55.5q60 -86 41 -191q-9 -53 -36 -98t-66 -78.5t-88 -52.5t-103 -19q-89 0 -147 43zM184 250
q-9 -54 16 -86t74 -32t87 32t47 86t-17 86t-75 32t-85.5 -32t-46.5 -86zM352 710l63 -140h-141l-95 140h173z" />
    <glyph glyph-name="uni1EDE" unicode="&#x1ede;" horiz-adv-x="788" 
d="M110 96q-89 111 -61 264q15 80 52 145t92.5 111.5t126.5 72t152 25.5q51 0 99 -14h2q12 0 24.5 4t23.5 12.5t19.5 23t12.5 35.5h144q-9 -48 -38 -86.5t-74 -56.5l13.5 -13.5t12.5 -14.5q90 -112 63 -264q-14 -79 -51.5 -144.5t-93 -112t-126.5 -72t-151 -25.5
q-152 0 -242 110zM209 350q-16 -91 29 -150q46 -58 131 -58q46 0 87 16t73.5 43.5t54.5 65.5t30 83q16 91 -32 150q-48 58 -134 58q-46 0 -86 -16t-71.5 -44t-52.5 -66t-29 -82zM383 893q29 29 60.5 41.5t69.5 12.5q53 0 81.5 -20.5t20.5 -62.5q-5 -25 -18 -41.5t-28 -29
t-28 -22t-17 -21.5h-100q6 23 18.5 37t25 23.5t22.5 17t12 16.5q2 6 -2 11.5t-17 5.5q-12 0 -24.5 -6t-23.5 -19z" />
    <glyph glyph-name="uni1EDF" unicode="&#x1edf;" horiz-adv-x="590" 
d="M117 29q-58 45 -77.5 108t-5.5 133q11 55 38.5 100t67 77t89 49.5t105.5 17.5q47 0 87 -14h2q12 0 24.5 4t23.5 12.5t19.5 23t12.5 35.5h144q-10 -54 -44.5 -94.5t-86.5 -55.5q60 -86 41 -191q-9 -53 -36 -98t-66 -78.5t-88 -52.5t-103 -19q-89 0 -147 43zM184 250
q-9 -54 16 -86t74 -32t87 32t47 86t-17 86t-75 32t-85.5 -32t-46.5 -86zM252 703q29 29 60.5 41.5t69.5 12.5q53 0 81.5 -20.5t20.5 -62.5q-5 -25 -18 -41.5t-28 -29t-28 -22t-17 -21.5h-100q6 23 18.5 37t25 23.5t22.5 17t12 16.5q2 6 -2 11.5t-17 5.5q-12 0 -24.5 -6
t-23.5 -19z" />
    <glyph glyph-name="uni1EE0" unicode="&#x1ee0;" horiz-adv-x="788" 
d="M110 96q-89 111 -61 264q15 80 52 145t92.5 111.5t126.5 72t152 25.5q51 0 99 -14h2q12 0 24.5 4t23.5 12.5t19.5 23t12.5 35.5h144q-9 -48 -38 -86.5t-74 -56.5l13.5 -13.5t12.5 -14.5q90 -112 63 -264q-14 -79 -51.5 -144.5t-93 -112t-126.5 -72t-151 -25.5
q-152 0 -242 110zM209 350q-16 -91 29 -150q46 -58 131 -58q46 0 87 16t73.5 43.5t54.5 65.5t30 83q16 91 -32 150q-48 58 -134 58q-46 0 -86 -16t-71.5 -44t-52.5 -66t-29 -82zM300 763q3 28 11 55.5t23 48.5t37.5 34t54.5 13q20 0 39.5 -6t37.5 -19q16 -12 26 -12
q18 0 24 35h114q-3 -28 -10.5 -55t-22.5 -48.5t-37.5 -35t-53.5 -13.5q-40 0 -79 25q-18 12 -28 12q-16 0 -22 -34h-114z" />
    <glyph glyph-name="uni1EE1" unicode="&#x1ee1;" horiz-adv-x="590" 
d="M117 29q-58 45 -77.5 108t-5.5 133q11 55 38.5 100t67 77t89 49.5t105.5 17.5q47 0 87 -14h2q12 0 24.5 4t23.5 12.5t19.5 23t12.5 35.5h144q-10 -54 -44.5 -94.5t-86.5 -55.5q60 -86 41 -191q-9 -53 -36 -98t-66 -78.5t-88 -52.5t-103 -19q-89 0 -147 43zM184 250
q-9 -54 16 -86t74 -32t87 32t47 86t-17 86t-75 32t-85.5 -32t-46.5 -86zM161 563q3 28 11 55.5t23 48.5t37.5 34t54.5 13q20 0 39.5 -6t37.5 -19q16 -12 26 -12q18 0 24 35h114q-3 -28 -10.5 -55t-22.5 -48.5t-37.5 -35t-53.5 -13.5q-40 0 -79 25q-18 12 -28 12
q-16 0 -22 -34h-114z" />
    <glyph glyph-name="uni1EE2" unicode="&#x1ee2;" horiz-adv-x="788" 
d="M110 96q-89 111 -61 264q15 80 52 145t92.5 111.5t126.5 72t152 25.5q51 0 99 -14h2q12 0 24.5 4t23.5 12.5t19.5 23t12.5 35.5h144q-9 -48 -38 -86.5t-74 -56.5l13.5 -13.5t12.5 -14.5q90 -112 63 -264q-14 -79 -51.5 -144.5t-93 -112t-126.5 -72t-151 -25.5
q-152 0 -242 110zM209 350q-16 -91 29 -150q46 -58 131 -58q46 0 87 16t73.5 43.5t54.5 65.5t30 83q16 91 -32 150q-48 58 -134 58q-46 0 -86 -16t-71.5 -44t-52.5 -66t-29 -82zM285 -240q-36 0 -56.5 25.5t-14.5 60.5q3 17 12 32.5t22.5 27.5t30 19t34.5 7q35 0 56.5 -25.5
t16.5 -60.5q-3 -18 -12 -33.5t-22.5 -27t-31 -18.5t-35.5 -7z" />
    <glyph glyph-name="uni1EE3" unicode="&#x1ee3;" horiz-adv-x="590" 
d="M117 29q-58 45 -77.5 108t-5.5 133q11 55 38.5 100t67 77t89 49.5t105.5 17.5q47 0 87 -14h2q12 0 24.5 4t23.5 12.5t19.5 23t12.5 35.5h144q-10 -54 -44.5 -94.5t-86.5 -55.5q60 -86 41 -191q-9 -53 -36 -98t-66 -78.5t-88 -52.5t-103 -19q-89 0 -147 43zM184 250
q-9 -54 16 -86t74 -32t87 32t47 86t-17 86t-75 32t-85.5 -32t-46.5 -86zM203 -240q-36 0 -56.5 25.5t-14.5 60.5q3 17 12 32.5t22.5 27.5t30 19t34.5 7q35 0 56.5 -25.5t16.5 -60.5q-3 -18 -12 -33.5t-22.5 -27t-31 -18.5t-35.5 -7z" />
    <glyph glyph-name="uni1EE4" unicode="&#x1ee4;" horiz-adv-x="641" 
d="M95 53q-67 67 -49 173l84 474h160l-81 -460q-17 -98 93 -98t127 98l81 460h160l-84 -474q-11 -60 -37 -105t-64.5 -75t-88 -45t-106.5 -15q-127 0 -195 67zM222 -240q-36 0 -56.5 25.5t-14.5 60.5q3 17 12 32.5t22.5 27.5t30 19t34.5 7q35 0 56.5 -25.5t16.5 -60.5
q-3 -18 -12 -33.5t-22.5 -27t-31 -18.5t-35.5 -7z" />
    <glyph glyph-name="uni1EE5" unicode="&#x1ee5;" 
d="M64 41q-46 55 -29 152l54 307h150l-50 -285q-8 -46 12.5 -68.5t59.5 -22.5q40 0 69.5 24t39.5 73l49 279h150l-88 -500h-150l8 47q-55 -61 -147 -61q-82 0 -128 55zM196 -240q-36 0 -56.5 25.5t-14.5 60.5q3 17 12 32.5t22.5 27.5t30 19t34.5 7q35 0 56.5 -25.5
t16.5 -60.5q-3 -18 -12 -33.5t-22.5 -27t-31 -18.5t-35.5 -7z" />
    <glyph glyph-name="uni1EE6" unicode="&#x1ee6;" horiz-adv-x="641" 
d="M95 53q-67 67 -49 173l84 474h160l-81 -460q-17 -98 93 -98t127 98l81 460h160l-84 -474q-11 -60 -37 -105t-64.5 -75t-88 -45t-106.5 -15q-127 0 -195 67zM318 893q29 29 60.5 41.5t69.5 12.5q53 0 81.5 -20.5t20.5 -62.5q-5 -25 -18 -41.5t-28 -29t-28 -22t-17 -21.5
h-100q6 23 18.5 37t25 23.5t22.5 17t12 16.5q2 6 -2 11.5t-17 5.5q-12 0 -24.5 -6t-23.5 -19z" />
    <glyph glyph-name="uni1EE7" unicode="&#x1ee7;" 
d="M64 41q-46 55 -29 152l54 307h150l-50 -285q-8 -46 12.5 -68.5t59.5 -22.5q40 0 69.5 24t39.5 73l49 279h150l-88 -500h-150l8 47q-55 -61 -147 -61q-82 0 -128 55zM245 703q29 29 60.5 41.5t69.5 12.5q53 0 81.5 -20.5t20.5 -62.5q-5 -25 -18 -41.5t-28 -29t-28 -22
t-17 -21.5h-100q6 23 18.5 37t25 23.5t22.5 17t12 16.5q2 6 -2 11.5t-17 5.5q-12 0 -24.5 -6t-23.5 -19z" />
    <glyph glyph-name="uni1EE8" unicode="&#x1ee8;" horiz-adv-x="641" 
d="M95 53q-67 67 -49 173l84 474h160l-81 -460q-17 -98 93 -98t127 98l81 460h47q36 0 58 20t27 55h144q-10 -54 -44 -94t-85 -56l-71 -399q-11 -60 -37 -105t-64.5 -75t-88 -45t-106.5 -15q-127 0 -195 67zM426 900h184l-136 -140h-148z" />
    <glyph glyph-name="uni1EE9" unicode="&#x1ee9;" 
d="M64 41q-46 55 -29 152l54 307h150l-50 -285q-8 -46 12.5 -68.5t59.5 -22.5q40 0 69.5 24t39.5 73l49 279h49q23 2 44.5 18.5t28.5 56.5h144q-10 -54 -44 -94t-85 -56l-75 -425h-150l8 47q-55 -61 -147 -61q-82 0 -128 55zM259 560l100 140h184l-136 -140h-148z" />
    <glyph glyph-name="uni1EEA" unicode="&#x1eea;" horiz-adv-x="641" 
d="M95 53q-67 67 -49 173l84 474h160l-81 -460q-17 -98 93 -98t127 98l81 460h47q36 0 58 20t27 55h144q-10 -54 -44 -94t-85 -56l-71 -399q-11 -60 -37 -105t-64.5 -75t-88 -45t-106.5 -15q-127 0 -195 67zM255 900h173l63 -140h-141z" />
    <glyph glyph-name="uni1EEB" unicode="&#x1eeb;" 
d="M64 41q-46 55 -29 152l54 307h150l-50 -285q-8 -46 12.5 -68.5t59.5 -22.5q40 0 69.5 24t39.5 73l49 279h49q23 2 44.5 18.5t28.5 56.5h144q-10 -54 -44 -94t-85 -56l-75 -425h-150l8 47q-55 -61 -147 -61q-82 0 -128 55zM351 700l63 -140h-141l-95 140h173z" />
    <glyph glyph-name="uni1EEC" unicode="&#x1eec;" horiz-adv-x="641" 
d="M95 53q-67 67 -49 173l84 474h160l-81 -460q-17 -98 93 -98t127 98l81 460h47q36 0 58 20t27 55h144q-10 -54 -44 -94t-85 -56l-71 -399q-11 -60 -37 -105t-64.5 -75t-88 -45t-106.5 -15q-127 0 -195 67zM318 893q29 29 60.5 41.5t69.5 12.5q53 0 81.5 -20.5t20.5 -62.5
q-5 -25 -18 -41.5t-28 -29t-28 -22t-17 -21.5h-100q6 23 18.5 37t25 23.5t22.5 17t12 16.5q2 6 -2 11.5t-17 5.5q-12 0 -24.5 -6t-23.5 -19z" />
    <glyph glyph-name="uni1EED" unicode="&#x1eed;" 
d="M64 41q-46 55 -29 152l54 307h150l-50 -285q-8 -46 12.5 -68.5t59.5 -22.5q40 0 69.5 24t39.5 73l49 279h49q23 2 44.5 18.5t28.5 56.5h144q-10 -54 -44 -94t-85 -56l-75 -425h-150l8 47q-55 -61 -147 -61q-82 0 -128 55zM245 703q29 29 60.5 41.5t69.5 12.5
q53 0 81.5 -20.5t20.5 -62.5q-5 -25 -18 -41.5t-28 -29t-28 -22t-17 -21.5h-100q6 23 18.5 37t25 23.5t22.5 17t12 16.5q2 6 -2 11.5t-17 5.5q-12 0 -24.5 -6t-23.5 -19z" />
    <glyph glyph-name="uni1EEE" unicode="&#x1eee;" horiz-adv-x="641" 
d="M95 53q-67 67 -49 173l84 474h160l-81 -460q-17 -98 93 -98t127 98l81 460h47q36 0 58 20t27 55h144q-10 -54 -44 -94t-85 -56l-71 -399q-11 -60 -37 -105t-64.5 -75t-88 -45t-106.5 -15q-127 0 -195 67zM239 753q3 28 11 55.5t23 48.5t37.5 34t54.5 13q20 0 39.5 -6
t37.5 -19q16 -12 26 -12q18 0 24 35h114q-3 -28 -10.5 -55t-22.5 -48.5t-37.5 -35t-53.5 -13.5q-40 0 -79 25q-18 12 -28 12q-16 0 -22 -34h-114z" />
    <glyph glyph-name="uni1EEF" unicode="&#x1eef;" 
d="M64 41q-46 55 -29 152l54 307h150l-50 -285q-8 -46 12.5 -68.5t59.5 -22.5q40 0 69.5 24t39.5 73l49 279h49q23 2 44.5 18.5t28.5 56.5h144q-10 -54 -44 -94t-85 -56l-75 -425h-150l8 47q-55 -61 -147 -61q-82 0 -128 55zM163 553q3 28 11 55.5t23 48.5t37.5 34t54.5 13
q20 0 39.5 -6t37.5 -19q16 -12 26 -12q18 0 24 35h114q-3 -28 -10.5 -55t-22.5 -48.5t-37.5 -35t-53.5 -13.5q-40 0 -79 25q-18 12 -28 12q-16 0 -22 -34h-114z" />
    <glyph glyph-name="uni1EF0" unicode="&#x1ef0;" horiz-adv-x="641" 
d="M95 53q-67 67 -49 173l84 474h160l-81 -460q-17 -98 93 -98t127 98l81 460h47q36 0 58 20t27 55h144q-10 -54 -44 -94t-85 -56l-71 -399q-11 -60 -37 -105t-64.5 -75t-88 -45t-106.5 -15q-127 0 -195 67zM222 -240q-36 0 -56.5 25.5t-14.5 60.5q3 17 12 32.5t22.5 27.5
t30 19t34.5 7q35 0 56.5 -25.5t16.5 -60.5q-3 -18 -12 -33.5t-22.5 -27t-31 -18.5t-35.5 -7z" />
    <glyph glyph-name="uni1EF1" unicode="&#x1ef1;" 
d="M64 41q-46 55 -29 152l54 307h150l-50 -285q-8 -46 12.5 -68.5t59.5 -22.5q40 0 69.5 24t39.5 73l49 279h49q23 2 44.5 18.5t28.5 56.5h144q-10 -54 -44 -94t-85 -56l-75 -425h-150l8 47q-55 -61 -147 -61q-82 0 -128 55zM196 -240q-36 0 -56.5 25.5t-14.5 60.5
q3 17 12 32.5t22.5 27.5t30 19t34.5 7q35 0 56.5 -25.5t16.5 -60.5q-3 -18 -12 -33.5t-22.5 -27t-31 -18.5t-35.5 -7z" />
    <glyph glyph-name="Ygrave" unicode="&#x1ef2;" horiz-adv-x="610" 
d="M79 700h173l82 -236l164 236h191l-294 -394l-54 -306h-160l54 307zM392 900l63 -140h-141l-95 140h173z" />
    <glyph glyph-name="ygrave" unicode="&#x1ef3;" horiz-adv-x="530" 
d="M318 15q-25 -47 -54 -87t-65 -68.5t-81 -44.5t-101 -16q-5 0 -10.5 0.5t-11.5 0.5l24 140q27 0 46.5 4t35.5 13.5t29 25t25 39.5l-111 478h154l62 -306l148 306h166zM150 700h173l63 -140h-141z" />
    <glyph glyph-name="uni1EF4" unicode="&#x1ef4;" horiz-adv-x="610" 
d="M79 700h173l82 -236l164 236h191l-294 -394l-54 -306h-160l54 307zM225 -240q-36 0 -56.5 25.5t-14.5 60.5q3 17 12 32.5t22.5 27.5t30 19t34.5 7q35 0 56.5 -25.5t16.5 -60.5q-3 -18 -12 -33.5t-22.5 -27t-31 -18.5t-35.5 -7z" />
    <glyph glyph-name="uni1EF5" unicode="&#x1ef5;" horiz-adv-x="530" 
d="M318 15q-25 -47 -54 -87t-65 -68.5t-81 -44.5t-101 -16q-5 0 -10.5 0.5t-11.5 0.5l24 140q27 0 46.5 4t35.5 13.5t29 25t25 39.5l-111 478h154l62 -306l148 306h166zM359 -240q-36 0 -56.5 25.5t-14.5 60.5q3 17 12 32.5t22.5 27.5t30 19t34.5 7q35 0 56.5 -25.5
t16.5 -60.5q-3 -18 -12 -33.5t-22.5 -27t-31 -18.5t-35.5 -7z" />
    <glyph glyph-name="uni1EF6" unicode="&#x1ef6;" horiz-adv-x="610" 
d="M252 700l82 -236l164 236h191l-294 -394l-54 -306h-160l54 307l-156 393h173zM288 893q29 29 60.5 41.5t69.5 12.5q53 0 81.5 -20.5t20.5 -62.5q-5 -25 -18 -41.5t-28 -29t-28 -22t-17 -21.5h-100q6 23 18.5 37t25 23.5t22.5 17t12 16.5q2 6 -2 11.5t-17 5.5
q-12 0 -24.5 -6t-23.5 -19z" />
    <glyph glyph-name="uni1EF7" unicode="&#x1ef7;" horiz-adv-x="530" 
d="M318 15q-25 -47 -54 -87t-65 -68.5t-81 -44.5t-101 -16q-5 0 -10.5 0.5t-11.5 0.5l24 140q27 0 46.5 4t35.5 13.5t29 25t25 39.5l-111 478h154l62 -306l148 306h166zM215 703q29 29 60.5 41.5t69.5 12.5q53 0 81.5 -20.5t20.5 -62.5q-5 -25 -18 -41.5t-28 -29t-28 -22
t-17 -21.5h-100q6 23 18.5 37t25 23.5t22.5 17t12 16.5q2 6 -2 11.5t-17 5.5q-12 0 -24.5 -6t-23.5 -19z" />
    <glyph glyph-name="uni1EF8" unicode="&#x1ef8;" horiz-adv-x="610" 
d="M79 700h173l82 -236l164 236h191l-294 -394l-54 -306h-160l54 307zM223 753q3 28 11 55.5t23 48.5t37.5 34t54.5 13q20 0 39.5 -6t37.5 -19q16 -12 26 -12q18 0 24 35h114q-3 -28 -10.5 -55t-22.5 -48.5t-37.5 -35t-53.5 -13.5q-40 0 -79 25q-18 12 -28 12q-16 0 -22 -34
h-114z" />
    <glyph glyph-name="uni1EF9" unicode="&#x1ef9;" horiz-adv-x="530" 
d="M318 15q-25 -47 -54 -87t-65 -68.5t-81 -44.5t-101 -16q-5 0 -10.5 0.5t-11.5 0.5l24 140q27 0 46.5 4t35.5 13.5t29 25t25 39.5l-111 478h154l62 -306l148 306h166zM134 553q3 28 11 55.5t23 48.5t37.5 34t54.5 13q20 0 39.5 -6t37.5 -19q16 -12 26 -12q18 0 24 35h114
q-3 -28 -10.5 -55t-22.5 -48.5t-37.5 -35t-53.5 -13.5q-40 0 -79 25q-18 12 -28 12q-16 0 -22 -34h-114z" />
    <glyph glyph-name="endash" unicode="&#x2013;" horiz-adv-x="615" 
d="M56 227l25 144h495l-25 -144h-495z" />
    <glyph glyph-name="emdash" unicode="&#x2014;" horiz-adv-x="715" 
d="M56 227l25 144h595l-25 -144h-595z" />
    <glyph glyph-name="quoteleft" unicode="&#x2018;" horiz-adv-x="290" 
d="M72 405l132 295h120l-92 -295h-160z" />
    <glyph glyph-name="quoteright" unicode="&#x2019;" horiz-adv-x="290" 
d="M324 700l-132 -295h-120l92 295h160z" />
    <glyph glyph-name="quotesinglbase" unicode="&#x201a;" horiz-adv-x="290" 
d="M228 155l-132 -295h-120l92 295h160z" />
    <glyph glyph-name="quotedblleft" unicode="&#x201c;" horiz-adv-x="490" 
d="M404 700h120l-92 -295h-160zM72 405l132 295h120l-92 -295h-160z" />
    <glyph glyph-name="quotedblright" unicode="&#x201d;" horiz-adv-x="490" 
d="M364 700h160l-132 -295h-120zM164 700h160l-132 -295h-120z" />
    <glyph glyph-name="quotedblbase" unicode="&#x201e;" horiz-adv-x="490" 
d="M268 155h160l-132 -295h-120zM68 155h160l-132 -295h-120z" />
    <glyph glyph-name="dagger" unicode="&#x2020;" horiz-adv-x="480" 
d="M72 431l25 144h125l22 125h150l-22 -125h125l-25 -144h-125l-76 -431h-150l76 431h-125z" />
    <glyph glyph-name="daggerdbl" unicode="&#x2021;" horiz-adv-x="480" 
d="M18 125l25 144h125l29 162h-125l25 144h125l22 125h150l-22 -125h125l-25 -144h-125l-29 -162h125l-25 -144h-125l-22 -125h-150l22 125h-125z" />
    <glyph glyph-name="bullet" unicode="&#x2022;" horiz-adv-x="380" 
d="M84 246q-36 46 -25 110q6 32 22 58.5t40 45.5t53.5 29.5t61.5 10.5q61 0 96 -45q35 -46 25 -107q-5 -33 -21 -60t-39.5 -46.5t-53 -30.5t-62.5 -11q-61 0 -97 46z" />
    <glyph glyph-name="ellipsis" unicode="&#x2026;" horiz-adv-x="760" 
d="M573 -14q-20 0 -35.5 8t-26 21t-14.5 30.5t-1 37.5q7 40 38 66.5t73 26.5q19 0 35 -8t26.5 -21t15 -31t1.5 -37q-7 -40 -38 -66.5t-74 -26.5zM333 -14q-20 0 -35.5 8t-26 21t-14.5 30.5t-1 37.5q7 40 38 66.5t73 26.5q19 0 35 -8t26.5 -21t15 -31t1.5 -37
q-7 -40 -38 -66.5t-74 -26.5zM93 -14q-20 0 -35.5 8t-26 21t-14.5 30.5t-1 37.5q7 40 38 66.5t73 26.5q19 0 35 -8t26.5 -21t15 -31t1.5 -37q-7 -40 -38 -66.5t-74 -26.5z" />
    <glyph glyph-name="perthousand" unicode="&#x2030;" horiz-adv-x="1164" 
d="M124 424q-41 51 -32 118q5 39 22 70.5t43.5 54t60.5 35t73 12.5q79 0 120 -57t26 -127q-7 -33 -24 -61.5t-42 -49.5t-58 -33t-72 -12q-76 0 -117 50zM412 40q-41 53 -30 121q6 38 23 69t43.5 52.5t60 33.5t71.5 12q77 0 118 -56q41 -57 28 -124q-7 -36 -25 -65.5
t-43.5 -50.5t-58 -32.5t-69.5 -11.5q-78 0 -118 52zM792 40q-41 53 -30 121q6 38 23 69t43.5 52.5t60 33.5t71.5 12q77 0 118 -56q41 -57 28 -124q-7 -36 -25 -65.5t-43.5 -50.5t-58 -32.5t-69.5 -11.5q-78 0 -118 52zM97 111l539 501l64 -41l-539 -502zM213 544
q-5 -23 7 -39t35 -16t41 16.5t22 38.5q5 24 -7 39.5t-36 15.5q-23 0 -40.5 -16t-21.5 -39zM882 158q-5 -23 7 -39t35 -16t41 16.5t22 38.5q5 24 -7 39.5t-36 15.5q-23 0 -40 -15.5t-22 -39.5zM502 158q-5 -23 7 -39t35 -16t41 16.5t22 38.5q5 24 -7 39.5t-36 15.5
q-23 0 -40 -15.5t-22 -39.5z" />
    <glyph glyph-name="guilsinglleft" unicode="&#x2039;" horiz-adv-x="362" 
d="M346 499l-144 -194l75 -186h-130l-77 190l141 190h135z" />
    <glyph glyph-name="guilsinglright" unicode="&#x203a;" horiz-adv-x="363" 
d="M236 499l77 -190l-141 -190h-135l144 194l-75 186h130z" />
    <glyph glyph-name="fraction" unicode="&#x2044;" horiz-adv-x="180" 
d="M-99 0h-105l518 700h105z" />
    <glyph glyph-name="Euro" unicode="&#x20ac;" horiz-adv-x="623" 
d="M16 254l15 84h59l5 32h-59l15 84h66q42 124 123.5 192t195.5 68q75 0 131 -39.5t80 -108.5l-139 -73q-27 65 -94 65q-88 0 -132 -104h189l-15 -84h-199q-1 -4 -2.5 -10.5t-1.5 -9.5l-2 -12h200l-15 -84h-191q4 -112 96 -112q65 0 118 75l125 -77q-88 -154 -264 -154
q-55 0 -98.5 19t-73.5 53.5t-46.5 84t-17.5 111.5h-68z" />
    <glyph glyph-name="uni20BD" unicode="&#x20bd;" horiz-adv-x="605" 
d="M-1 189h70l7 41h-69l24 140h70l58 330h265q96 0 157 -76q62 -75 44 -174q-19 -102 -92 -161t-191 -59h-106l-7 -41h210l-17 -98h-210l-16 -91h-160l16 91h-70zM366 370q37 0 65.5 26t35.5 64t-12.5 64t-56.5 26h-105l-32 -180h105z" />
    <glyph glyph-name="uni2116" unicode="&#x2116;" horiz-adv-x="1047" 
d="M139 700h120l201 -393l69 393h160l-123 -700h-120l-200 393l-70 -393h-160zM751 426q-42 53 -29 123q7 37 25 67.5t44.5 52t60 33.5t71.5 12q73 0 115 -52q42 -53 30 -123q-6 -37 -24.5 -67.5t-45.5 -52t-60.5 -33.5t-70.5 -12q-73 0 -116 52zM698 324h322l-25 -140h-322
zM846 544q-4 -22 7 -36t33 -14t38 13.5t20 36.5q4 22 -7 36t-33 14t-38 -14t-20 -36z" />
    <glyph glyph-name="trademark" unicode="&#x2122;" horiz-adv-x="476" 
d="M270 500l35 200h64l29 -69l54 69h73l-35 -200h-64l17 99l-54 -63h-6l-31 65l-18 -101h-64zM98 638l11 62h177l-11 -62h-55l-24 -138h-67l24 138h-55z" />
    <glyph glyph-name="estimated" unicode="&#x212e;" horiz-adv-x="780" 
d="M101 98q-89 108 -62 262q14 80 53.5 144.5t97 110.5t129.5 70.5t152 24.5q161 0 247 -105q43 -53 59 -116t1 -139q-3 -15 -18 -15h-560q-15 0 -18 -15l-33 -192q-3 -11 3 -19q72 -89 218 -89q72 0 135.5 23t114.5 74q9 9 19 9h35q10 0 12 -6t-6 -13q-68 -56 -145 -86.5
t-171 -30.5q-173 0 -263 108zM193 380q-3 -15 12 -15h410q15 0 18 15l35 194q1 10 -4 19q-29 48 -80.5 67.5t-117.5 19.5q-65 0 -123 -20.5t-106 -68.5q-9 -9 -10 -19z" />
    <glyph glyph-name="oneeighth" unicode="&#x215b;" horiz-adv-x="807" 
d="M587 -14q-36 0 -64 9.5t-46 26t-25 40t-2 52.5q12 67 75 98q-40 33 -29 86q11 55 54 85.5t107 30.5q60 0 97 -35q37 -36 27 -91q-11 -55 -57 -82q47 -38 38 -100q-8 -57 -53.5 -88.5t-121.5 -31.5zM70 0l518 700h105l-518 -700h-105zM71 656l130 44h107l-71 -400h-122
l48 271l-81 -22zM566 127q-8 -39 36 -39t50 39q6 38 -36 38q-44 0 -50 -38zM595 280q-6 -32 36 -32q40 0 46 32q3 16 -7 24.5t-28 8.5q-41 0 -47 -33z" />
    <glyph glyph-name="threeeighths" unicode="&#x215c;" horiz-adv-x="879" 
d="M659 -14q-36 0 -64 9.5t-46 26t-25 40t-2 52.5q12 67 75 98q-40 33 -29 86q11 55 54 85.5t107 30.5q60 0 97 -35q37 -36 27 -91q-11 -55 -57 -82q47 -38 38 -100q-8 -57 -53.5 -88.5t-121.5 -31.5zM177 286q-117 0 -150 90l107 57q16 -42 56 -42q36 0 40 31
q2 15 -7.5 22.5t-27.5 7.5h-25l-31 61l73 77h-129l19 110h281l-15 -85l-79 -83q36 -16 53 -46.5t10 -70.5q-23 -129 -175 -129zM660 700h105l-518 -700h-105zM638 127q-8 -39 36 -39t50 39q6 38 -36 38q-44 0 -50 -38zM667 280q-6 -32 36 -32q40 0 46 32q3 16 -7 24.5
t-28 8.5q-41 0 -47 -33z" />
    <glyph glyph-name="fiveeighths" unicode="&#x215d;" horiz-adv-x="865" 
d="M645 -14q-36 0 -64 9.5t-46 26t-25 40t-2 52.5q12 67 75 98q-40 33 -29 86q11 55 54 85.5t107 30.5q60 0 97 -35q37 -36 27 -91q-11 -55 -57 -82q47 -38 38 -100q-8 -57 -53.5 -88.5t-121.5 -31.5zM136 430q13 -42 55 -42q38 0 43 32t-31 32h-135l60 248h245l-19 -110
h-141l-11 -41h23q30 0 54.5 -9t40.5 -26.5t22.5 -43.5t0.5 -59q-23 -125 -166 -125q-112 0 -145 90zM128 0l518 700h105l-518 -700h-105zM624 127q-8 -39 36 -39t50 39q6 38 -36 38q-44 0 -50 -38zM653 280q-6 -32 36 -32q40 0 46 32q3 16 -7 24.5t-28 8.5q-41 0 -47 -33z
" />
    <glyph glyph-name="seveneighths" unicode="&#x215e;" horiz-adv-x="828" 
d="M608 -14q-36 0 -64 9.5t-46 26t-25 40t-2 52.5q12 67 75 98q-40 33 -29 86q11 55 54 85.5t107 30.5q60 0 97 -35q37 -36 27 -91q-11 -55 -57 -82q47 -38 38 -100q-8 -57 -53.5 -88.5t-121.5 -31.5zM609 700h105l-518 -700h-105zM205 590h-145l19 110h280l-16 -93
l-170 -307h-129zM587 127q-8 -39 36 -39q42 0 50 39q8 38 -36 38q-42 0 -50 -38zM616 280q-6 -32 36 -32q40 0 46 32q3 16 -7 24.5t-28 8.5q-41 0 -47 -33z" />
    <glyph glyph-name="arrowleft" unicode="&#x2190;" horiz-adv-x="790" 
d="M780 422l-25 -144h-448l188 -228h-190l-247 300l353 300h210l-268 -228h427z" />
    <glyph glyph-name="arrowup" unicode="&#x2191;" horiz-adv-x="680" 
d="M666 400l-33 -188l-185 225l-77 -437h-150l74 417l-265 -224l36 207l353 300z" />
    <glyph glyph-name="arrowright" unicode="&#x2192;" horiz-adv-x="790" 
d="M521 650l247 -300l-353 -300h-210l268 228h-428l25 144h449l-188 228h190z" />
    <glyph glyph-name="arrowdown" unicode="&#x2193;" horiz-adv-x="680" 
d="M421 283l264 225l-36 -208l-353 -300l-247 300l33 188l185 -225l77 437h150z" />
    <glyph glyph-name="arrowboth" unicode="&#x2194;" horiz-adv-x="1100" 
d="M387 630h206l-245 -208h483l-171 208h187l231 -280l-330 -280h-203l242 208h-484l171 -208h-186l-230 280zM919 356v1l159 -7z" />
    <glyph glyph-name="arrowupdn" unicode="&#x2195;" horiz-adv-x="640" 
d="M625 394l-169 205l-84 -482l241 205l-36 -202l-329 -280l-230 280l33 186l168 -205l84 482l-240 -205l36 202l329 280l230 -280z" />
    <glyph glyph-name="uni2196" unicode="&#x2196;" horiz-adv-x="645" 
d="M646 482h-330l269 -328l-111 -93l-270 327l-58 -330l-115 140l75 424h425z" />
    <glyph glyph-name="uni2197" unicode="&#x2197;" horiz-adv-x="645" 
d="M247 622h424l-75 -424l-165 -140l55 311l-374 -317l-93 111l375 319h-312z" />
    <glyph glyph-name="uni2198" unicode="&#x2198;" horiz-adv-x="645" 
d="M532 631l116 -140l-75 -424h-424l-116 140h330l-269 328l110 93l270 -326z" />
    <glyph glyph-name="uni2199" unicode="&#x2199;" horiz-adv-x="645" 
d="M659 527l-376 -320h313l-164 -140h-424l75 424l164 140l-56 -314l376 319z" />
    <glyph glyph-name="partialdiff" unicode="&#x2202;" horiz-adv-x="586" 
d="M70 52q-53 67 -37 158q9 49 31 90t55 71t76 47t94 17q78 0 130 -35q4 84 -31 128.5t-110 45.5q-54 0 -116 -31l24 135q63 36 138 36q118 0 192 -107q74 -108 46 -267q-32 -177 -121 -265.5t-216 -88.5q-103 0 -155 66zM182 205q-6 -37 12.5 -58t51.5 -21q104 0 150 148
q-37 31 -97 31q-42 0 -75.5 -27t-41.5 -73z" />
    <glyph glyph-name="emptyset" unicode="&#x2205;" horiz-adv-x="804" 
d="M119 102q-87 112 -60 258q13 75 51.5 139t95 111.5t127 74.5t145.5 27q97 0 177 -53l59 61h123l-117 -122q85 -110 60 -258q-13 -74 -51.5 -138.5t-95 -112t-126.5 -74.5t-145 -27q-99 0 -178 54l-59 -62h-123zM158 350q-18 -99 33 -174l392 408q-53 30 -117 30
q-56 0 -107.5 -21t-92.5 -57t-69.5 -84t-38.5 -102zM256 116q52 -30 117 -30q55 0 106.5 21t93 57t70 84t38.5 102q18 99 -33 174z" />
    <glyph glyph-name="product" unicode="&#x220f;" horiz-adv-x="640" 
d="M139 700h520l-158 -900h-150l133 756h-220l-133 -756h-150z" />
    <glyph glyph-name="summation" unicode="&#x2211;" horiz-adv-x="570" 
d="M-49 -200l25 140l264 336l-135 316l19 108h470l-25 -144h-292l126 -296l-248 -316h321l-25 -144h-500z" />
    <glyph glyph-name="minus" unicode="&#x2212;" horiz-adv-x="560" 
d="M55 280l25 140h460l-25 -140h-460z" />
    <glyph glyph-name="radical" unicode="&#x221a;" horiz-adv-x="686" 
d="M219 0l-84 186h-106l25 144h182l64 -157l321 627h162l-420 -800h-144z" />
    <glyph glyph-name="infinity" unicode="&#x221e;" horiz-adv-x="810" 
d="M101 223q-47 54 -32 135q15 82 73.5 127t140.5 45q83 0 155 -81q50 43 97 62t89 19q39 0 70 -15t51.5 -40.5t29 -59.5t1.5 -73q-15 -81 -72.5 -126.5t-139.5 -45.5q-83 0 -156 81q-96 -81 -178 -81t-129 53zM219 350q-4 -19 6.5 -32t30.5 -13q34 0 78 45q-29 45 -62 45
q-20 0 -35 -13t-18 -32zM512 350q28 -45 62 -45q20 0 34 13t18 32t-6 32t-30 13q-35 0 -78 -45z" />
    <glyph glyph-name="integral" unicode="&#x222b;" horiz-adv-x="442" 
d="M-54 -54q13 -9 33 -9q22 0 44 14.5t33 46.5l185 535q61 179 207 179q37 0 74 -10l-27 -150q-14 9 -33 9q-21 0 -43 -14.5t-33 -46.5l-185 -535q-61 -179 -207 -179q-37 0 -74 10z" />
    <glyph glyph-name="approxequal" unicode="&#x2248;" horiz-adv-x="560" 
d="M31 199q11 28 27.5 55t38.5 48t49.5 33.5t60.5 12.5q35 0 76 -19q25 -11 51.5 -19.5t53.5 -8.5q6 0 14 2q17 5 40 16l85 -28q-54 -148 -160 -148q-39 0 -82 18q-25 12 -45 18.5t-37 6.5q-42 0 -62 -45zM68 409q54 148 160 148q38 0 82 -18q25 -12 45.5 -18.5t37.5 -6.5
q42 0 62 45l109 -58q-11 -29 -27.5 -56t-38 -47.5t-49.5 -33t-61 -12.5q-35 0 -76 19q-24 11 -51 19.5t-54 8.5q-7 0 -15 -2q-7 -2 -16.5 -6t-22.5 -10z" />
    <glyph glyph-name="notequal" unicode="&#x2260;" horiz-adv-x="520" 
d="M27 175l25 140h158l44 70h-190l25 140h252l78 125h92l-78 -125h95l-25 -140h-157l-44 -70h189l-25 -140h-251l-78 -125h-92l78 125h-96z" />
    <glyph glyph-name="lessequal" unicode="&#x2264;" horiz-adv-x="530" 
d="M564 670l-28 -161l-294 -81l265 -81l-26 -147l-420 170l23 130zM3 40l25 140h450l-25 -140h-450z" />
    <glyph glyph-name="greaterequal" unicode="&#x2265;" horiz-adv-x="530" 
d="M114 670l420 -170l-23 -130l-480 -170l28 160l295 81l-266 81zM3 40l25 140h450l-25 -140h-450z" />
    <glyph glyph-name="lozenge" unicode="&#x25ca;" horiz-adv-x="560" 
d="M182 0l-124 350l247 350h108l125 -350l-248 -350h-108zM266 203l112 159l-48 135l-112 -159z" />
    <glyph glyph-name="NULL" horiz-adv-x="0" 
 />
    <glyph glyph-name="i.loclTRK" horiz-adv-x="260" 
d="M11 0l88 500h150l-88 -500h-150zM183 545q-18 0 -32 7t-24 18.5t-13.5 27t-0.5 32.5q3 18 12.5 33.5t23 27t30 18t33.5 6.5q18 0 32 -7t24 -18.5t14 -27t1 -32.5q-3 -18 -12.5 -33.5t-23.5 -27t-30.5 -18t-33.5 -6.5z" />
    <glyph glyph-name="f_f_j" horiz-adv-x="850" 
d="M64 500h67q37 215 252 215h14t15 -1l-25 -144q-5 0 -8.5 0.5t-7.5 0.5q-78 0 -90 -71h130l2 10q22 111 89 162.5t192 51.5q29 0 59.5 -3.5t62.5 -10.5l-24 -138q-46 8 -100 8q-116 0 -129 -70l-2 -10h278l-88 -500q-10 -57 -28.5 -98t-47.5 -67t-69.5 -38t-92.5 -12h-15
t-15 1l26 144q41 0 62.5 14t29.5 56l63 356h-128l-63 -356h-150l63 356h-130l-63 -356h-150l63 356h-67z" />
    <glyph glyph-name="f_j" horiz-adv-x="570" 
d="M39 356l25 144h67q19 112 87 163t194 51q29 0 59.5 -3.5t62.5 -10.5l-24 -138q-46 8 -100 8q-117 0 -129 -70h278l-88 -500q-10 -57 -28.5 -98t-47.5 -67t-69.5 -38t-92.5 -12h-15t-15 1l26 144q41 0 62.5 14t29.5 56l63 356h-128l-63 -356h-150l63 356h-67z" />
    <glyph glyph-name="uni0414.loclBGR" horiz-adv-x="740" 
d="M-53 -134l51 288h83l266 546h204l74 -546h83l-51 -288h-160l24 134h-390l-24 -134h-160zM462 154l-40 367l-170 -367h210z" />
    <glyph glyph-name="uni041B.loclBGR" horiz-adv-x="640" 
d="M297 700h204l95 -700h-171l-51 515l-239 -515h-179z" />
    <glyph glyph-name="uni0424.loclBGR" horiz-adv-x="864" 
d="M96 118q-72 100 -47 242q14 76 48 137.5t84 105.5t115 71t142 35l16 91h150l-17 -95q143 -24 215 -123q73 -101 48 -242q-14 -77 -47.5 -138.5t-84 -105.5t-115.5 -70.5t-142 -34.5l-16 -91h-150l17 95q-143 24 -216 123zM209 350q-33 -180 128 -210l75 420
q-171 -30 -203 -210zM487 140q170 30 203 210t-128 210z" />
    <glyph glyph-name="uni0414.ss01" horiz-adv-x="710" 
d="M-28 0l26 154h71q69 80 96 232l55 314h469l-96 -546h75l-28 -154h-668zM433 154l70 396h-149l-29 -166q-13 -75 -33.5 -132.5t-47.5 -97.5h189z" />
    <glyph glyph-name="uni0426.ss01" horiz-adv-x="690" 
d="M16 0l123 700h160l-96 -546h210l96 546h160l-96 -546h75l-27 -154h-605z" />
    <glyph glyph-name="uni0429.ss01" horiz-adv-x="980" 
d="M16 0l123 700h160l-96 -546h170l96 546h160l-96 -546h170l96 546h160l-96 -546h75l-27 -154h-895z" />
    <glyph glyph-name="uni0414.loclBGR.ss01" horiz-adv-x="740" 
d="M-29 0l27 154h83l266 546h204l74 -546h83l-27 -154h-710zM252 154h210l-40 367z" />
    <glyph glyph-name="uni0432.loclBGR" horiz-adv-x="565" 
d="M92 55q-58 69 -40 177l42 239q20 118 87.5 180.5t173.5 62.5q87 0 140 -53q55 -55 40 -135q-12 -69 -84 -126q48 -27 68.5 -76.5t8.5 -115.5q-20 -109 -88 -165.5t-183 -56.5q-107 0 -165 69zM201 228q-8 -45 12.5 -71.5t60.5 -26.5q43 0 69.5 23t34.5 65q7 39 -14 58
t-65 19q-25 0 -58 -6l-30 -6zM234 417l31 6q34 6 51 6q64 43 70 89q5 26 -6.5 41t-37.5 15q-36 0 -63 -29.5t-36 -77.5z" />
    <glyph glyph-name="uni0433.loclBGR" horiz-adv-x="472" 
d="M58 36q-57 50 -42 134q9 51 40 81.5t69 41.5q28 8 56.5 13.5t52.5 11.5t40.5 14t18.5 22q5 28 -37 28q-43 0 -75 -44l-119 71q67 105 205 105q83 0 138 -53q54 -53 41 -131q-8 -48 -38.5 -78.5t-68.5 -41.5q-28 -8 -57 -13.5t-53 -10.5t-40.5 -12t-18.5 -19
q-6 -35 49 -35q63 0 95 59l117 -78q-32 -57 -89.5 -86t-132.5 -29q-94 0 -151 50z" />
    <glyph glyph-name="uni0434.loclBGR" horiz-adv-x="624" 
d="M141 -23q29 -59 110 -59q54 0 88.5 27.5t43.5 79.5l6 35q-59 -54 -150 -54q-115 0 -169 79q-54 80 -36 187q9 51 32.5 95.5t59.5 77t82 51t99 18.5q107 0 150 -73l10 59h146l-84 -475q-11 -63 -36.5 -108t-63 -74.5t-85.5 -43t-104 -13.5q-178 0 -233 121zM183 260
q-9 -51 18.5 -82.5t81.5 -31.5q51 0 89.5 29t50.5 75l4 21q4 46 -24 74.5t-79 28.5q-54 0 -93 -31.5t-48 -82.5z" />
    <glyph glyph-name="uni0436.loclBGR" horiz-adv-x="770" 
d="M-34 0l216 265l-116 235h147l105 -212l73 412h146l-74 -415l172 215h164l-209 -254l126 -246h-151l-112 224l-40 -224h-146l39 221l-181 -221h-159z" />
    <glyph glyph-name="uni0438.loclBGR" 
d="M64 41q-46 55 -29 152l54 307h150l-50 -285q-8 -46 12.5 -68.5t59.5 -22.5q40 0 69.5 24t39.5 73l49 279h150l-88 -500h-150l8 47q-55 -61 -147 -61q-82 0 -128 55z" />
    <glyph glyph-name="uni0439.loclBGR" 
d="M64 41q-46 55 -29 152l54 307h150l-50 -285q-8 -46 12.5 -68.5t59.5 -22.5q40 0 69.5 24t39.5 73l49 279h150l-88 -500h-150l8 47q-55 -61 -147 -61q-82 0 -128 55zM206 689h300l-22 -130h-300z" />
    <glyph glyph-name="uni043A.loclBGR" horiz-adv-x="525" 
d="M134 700h150l-72 -407l179 207h173l-221 -250l138 -250h-160l-120 228l-40 -228h-150z" />
    <glyph glyph-name="uni043B.loclBGR" horiz-adv-x="510" 
d="M-44 0l268 500h150l92 -500h-154l-42 306l-148 -306h-166z" />
    <glyph glyph-name="uni043F.loclBGR" 
d="M99 500h150l-8 -47q55 61 147 61q80 0 127 -56q46 -55 30 -151l-54 -307h-150l50 285q8 46 -12.5 68.5t-59.5 22.5q-40 0 -69.5 -24t-39.5 -73l-49 -279h-150z" />
    <glyph glyph-name="uni0442.loclBGR" horiz-adv-x="850" 
d="M99 500h150l-8 -45q53 59 139 59q89 0 122 -68q62 68 154 68q88 0 131 -58q44 -58 28 -149l-54 -307h-150l51 294q7 38 -7.5 60t-49.5 22q-74 0 -93 -87l-51 -289h-150l51 294q7 38 -7.5 60t-49.5 22q-74 0 -93 -85l-51 -291h-150z" />
    <glyph glyph-name="uni0446.loclBGR" horiz-adv-x="620" 
d="M200 -14q-45 0 -79.5 14.5t-56 41.5t-29.5 65t0 86l54 307h150l-50 -285q-8 -46 12.5 -68.5t59.5 -22.5t67.5 22.5t39.5 67.5l51 286h150l-58 -330q-6 -30 25 -30h45l-49 -274h-146l26 147q-31 17 -44 41q-71 -68 -168 -68z" />
    <glyph glyph-name="uni0448.loclBGR" horiz-adv-x="850" 
d="M63 43q-44 60 -28 150l54 307h150l-51 -294q-7 -38 7.5 -60t49.5 -22q73 0 93 87l51 289h150l-51 -294q-7 -38 7.5 -60t49.5 -22q74 0 93 85l51 291h150l-88 -500h-150l8 45q-53 -59 -139 -59q-89 0 -122 68q-62 -68 -154 -68q-88 0 -131 57z" />
    <glyph glyph-name="uni0449.loclBGR" horiz-adv-x="890" 
d="M63 43q-44 60 -28 150l54 307h150l-51 -294q-7 -38 7.5 -60t49.5 -22q73 0 93 87l51 289h150l-51 -294q-7 -38 7.5 -60t49.5 -22q72 0 91 79l53 297h150l-58 -330q-6 -30 25 -30h45l-49 -274h-146l26 147q-27 14 -43 38q-62 -65 -159 -65q-94 0 -130 65q-60 -65 -156 -65
q-88 0 -131 57z" />
    <glyph glyph-name="uni044C.loclBGR" horiz-adv-x="495" 
d="M72 45q-52 58 -37 147l54 308h146l-23 -132h79q93 0 139 -55q47 -55 31 -141q-16 -85 -78 -135.5t-159 -50.5q-98 0 -152 59zM181 192q-5 -30 10 -48t47 -18q30 0 53 17t26 39q5 24 -7.5 40t-41.5 16h-79z" />
    <glyph glyph-name="uni044A.loclBGR" horiz-adv-x="585" 
d="M19 360l25 140h281l-23 -132h79q93 0 139 -55q47 -55 31 -141q-16 -85 -78 -135.5t-159 -50.5q-98 0 -152 59q-54 58 -37 147l29 168h-135zM271 192q-5 -30 10 -48t47 -18q30 0 53 17t26 39q5 24 -7.5 40t-41.5 16h-79z" />
    <glyph glyph-name="uni044E.loclBGR" horiz-adv-x="815" 
d="M134 700h150l-67 -380h61q35 91 110.5 142.5t172.5 51.5q61 0 107 -25t75 -65t39 -90t0 -100q-9 -53 -35.5 -98t-65.5 -78.5t-87.5 -52.5t-102.5 -19q-51 0 -92 14.5t-70.5 40.5t-47 61.5t-22.5 77.5h-66l-32 -180h-150zM407 250q-9 -54 17 -86t75 -32q25 0 48 8.5
t41 24.5t30 37.5t17 47.5q9 52 -17 85t-77 33q-49 0 -86.5 -32t-47.5 -86z" />
    <glyph glyph-name="zero.sinf" horiz-adv-x="408" 
d="M10 -113q-43 60 -26 159q17 100 74 154t142 54q81 0 124 -61q44 -62 26 -159q-18 -100 -74.5 -154t-141.5 -54q-81 0 -124 61zM109 40q-17 -92 42 -92q57 0 74 92t-42 92q-57 0 -74 -92z" />
    <glyph glyph-name="one.sinf" horiz-adv-x="274" 
d="M120 240h107l-71 -400h-122l48 271l-81 -22l-11 107z" />
    <glyph glyph-name="two.sinf" horiz-adv-x="356" 
d="M-47 -160l13 77l173 151q36 32 39 42l2 8q3 12 -4 19t-20 7q-35 0 -63 -49l-95 60q60 99 174 99q67 0 104.5 -38t25.5 -105q-5 -30 -25.5 -55t-62.5 -59l-55 -47h119l-19 -110h-306z" />
    <glyph glyph-name="three.sinf" horiz-adv-x="343" 
d="M96 -174q-117 0 -150 90l107 57q16 -42 56 -42q36 0 40 31q2 15 -7.5 22.5t-27.5 7.5h-25l-31 61l73 77h-129l19 110h281l-15 -85l-79 -83q36 -16 53 -46.5t10 -70.5q-23 -129 -175 -129z" />
    <glyph glyph-name="four.sinf" horiz-adv-x="358" 
d="M-32 11l156 229h134l-152 -229h42l11 61h116l-11 -61h36l-19 -110h-36l-11 -61h-116l11 61h-180z" />
    <glyph glyph-name="five.sinf" horiz-adv-x="335" 
d="M55 -30q13 -42 55 -42q38 0 43 32t-31 32h-135l60 248h245l-19 -110h-141l-11 -41h23q30 0 54.5 -9t40.5 -26.5t22.5 -43.5t0.5 -59q-23 -125 -166 -125q-112 0 -145 90z" />
    <glyph glyph-name="six.sinf" horiz-adv-x="342" 
d="M-7 -131q-37 42 -26 106q7 44 35 79l146 186h129l-103 -130q55 -10 83 -50t19 -97q-11 -64 -57.5 -100.5t-119.5 -36.5q-69 0 -106 43zM78 -31q-5 -21 5.5 -32t30.5 -11q43 0 52 43q9 42 -37 42q-41 0 -51 -42z" />
    <glyph glyph-name="seven.sinf" horiz-adv-x="295" 
d="M-2 240h280l-16 -93l-170 -307h-129l161 290h-145z" />
    <glyph glyph-name="eight.sinf" horiz-adv-x="354" 
d="M105 -174q-36 0 -64 9.5t-46 26t-25 40t-2 52.5q12 67 75 98q-40 33 -29 86q11 55 54 85.5t107 30.5q60 0 97 -35q37 -36 27 -91q-11 -55 -57 -82q47 -38 38 -100q-8 -57 -53.5 -88.5t-121.5 -31.5zM84 -33q-8 -39 36 -39t50 39q6 38 -36 38q-44 0 -50 -38zM113 120
q-6 -32 36 -32q40 0 46 32q3 16 -7 24.5t-28 8.5q-41 0 -47 -33z" />
    <glyph glyph-name="nine.sinf" horiz-adv-x="342" 
d="M94 -30q-55 10 -83 50t-19 97q11 64 57.5 100.5t119.5 36.5q69 0 106 -43q37 -42 26 -106q-7 -44 -35 -79l-146 -186h-129zM102 111q-8 -42 37 -42q40 0 51 42q5 21 -5.5 32t-30.5 11q-43 0 -52 -43z" />
    <glyph glyph-name="zero.tf" 
d="M58 91q-63 104 -34 269q12 69 38 132.5t67.5 113t99.5 79t135 29.5q131 0 193 -105q62 -106 34 -269q-12 -69 -37.5 -132.5t-67 -113t-99.5 -79t-135 -29.5q-131 0 -194 105zM183 350q-37 -208 88 -208q124 0 161 208t-88 208q-124 0 -161 -208z" />
    <glyph glyph-name="one.tf" 
d="M-19 0l27 154h195l65 371l-129 -34l-15 143l195 66h140l-96 -546h185l-27 -154h-540z" />
    <glyph glyph-name="two.tf" 
d="M-14 0l20 116l297 235q98 77 107 128q5 31 -11 55t-60 24q-73 0 -128 -85l-127 83q48 78 121.5 118t158.5 40q103 0 164 -70q31 -35 41.5 -76t2.5 -89q-6 -38 -22 -69.5t-39 -58.5t-50.5 -51t-55.5 -46l-126 -100h244l-27 -154h-510z" />
    <glyph glyph-name="three.tf" 
d="M253 -14q-204 0 -250 165l147 77q27 -86 115 -86q105 0 122 83q6 38 -16.5 60.5t-77.5 22.5h-30l-47 94l150 148h-271l26 150h480l-22 -130l-152 -149q65 -28 99 -85.5t21 -130.5q-10 -55 -35.5 -96t-64 -68.5t-88 -41t-106.5 -13.5z" />
    <glyph glyph-name="four.tf" 
d="M7 260l292 440h180l-293 -440h149l26 150h162l-26 -150h70l-26 -148h-70l-20 -112h-162l20 112h-328z" />
    <glyph glyph-name="five.tf" 
d="M150 228q27 -86 121 -86q104 0 119 78q7 35 -15 56.5t-76 21.5h-231l99 402h432l-26 -150h-285l-24 -96h72q105 0 169 -67q63 -66 43 -177q-10 -56 -35.5 -97.5t-63.5 -70t-86.5 -42.5t-104.5 -14q-206 0 -255 165z" />
    <glyph glyph-name="six.tf" 
d="M254 -14q-72 0 -121 23t-78 60.5t-38.5 85t-1.5 96.5q13 78 73 144l272 305h188l-188 -212q113 -11 164 -86q52 -76 37 -172q-15 -100 -96 -173q-78 -71 -211 -71zM173 238q-9 -49 18.5 -75.5t78.5 -26.5q52 0 88 26.5t45 75.5q9 48 -18.5 75t-78.5 27q-54 0 -89 -26.5
t-44 -75.5z" />
    <glyph glyph-name="seven.tf" 
d="M99 700h530l-23 -134l-350 -566h-178l336 546h-342z" />
    <glyph glyph-name="eight.tf" 
d="M54 46q-65 60 -49 157q18 107 129 165q-69 53 -52 142q10 53 37 91.5t65.5 63.5t86 37t97.5 12q108 0 173 -57q64 -56 47 -155q-15 -91 -102 -141q43 -30 61.5 -74.5t9.5 -95.5q-17 -97 -97 -151t-210 -54t-196 60zM168 220q-8 -40 18.5 -62t83.5 -22q115 0 132 84
q7 40 -19 62t-83 22t-91 -22t-41 -62zM273 545q-28 -19 -33 -48.5t16 -49.5q20 -19 65 -19q44 0 72 19t33 48.5t-16 49.5q-20 19 -65 19q-44 0 -72 -19z" />
    <glyph glyph-name="nine.tf" 
d="M90 298q-51 75 -36 172q9 58 36.5 103.5t68.5 77t93 47.5t109 16q72 0 121 -23t78 -60.5t38.5 -85t1.5 -96.5q-13 -78 -73 -144l-272 -305h-188l188 212q-112 10 -165 86zM212 462q-9 -48 18.5 -75t78.5 -27q54 0 89 26.5t44 75.5t-18.5 75.5t-78.5 26.5q-52 0 -88 -26.5
t-45 -75.5z" />
    <glyph glyph-name="zero.dnom" horiz-adv-x="408" 
d="M38 47q-43 60 -26 159q17 100 74 154t142 54q81 0 124 -61q44 -62 26 -159q-18 -100 -74.5 -154t-141.5 -54q-81 0 -124 61zM137 200q-17 -92 42 -92q57 0 74 92t-42 92q-57 0 -74 -92z" />
    <glyph glyph-name="one.dnom" horiz-adv-x="274" 
d="M148 400h107l-71 -400h-122l48 271l-81 -22l-11 107z" />
    <glyph glyph-name="two.dnom" horiz-adv-x="361" 
d="M-19 0l13 77l178 155q17 13 25 23.5t10 18.5l1 4q3 12 -4 19t-20 7q-35 0 -63 -49l-95 60q60 99 174 99q67 0 104.5 -38t25.5 -105q-5 -30 -25.5 -55t-62.5 -59l-55 -47h119l-19 -110h-306z" />
    <glyph glyph-name="three.dnom" horiz-adv-x="346" 
d="M124 -14q-117 0 -150 90l107 57q16 -42 56 -42q36 0 40 31q2 15 -7.5 22.5t-27.5 7.5h-25l-31 61l73 77h-129l19 110h281l-15 -85l-79 -83q36 -16 53 -46.5t10 -70.5q-23 -129 -175 -129z" />
    <glyph glyph-name="four.dnom" horiz-adv-x="357" 
d="M-4 171l156 229h134l-152 -229h42l11 61h116l-11 -61h36l-19 -110h-36l-11 -61h-116l11 61h-180z" />
    <glyph glyph-name="five.dnom" horiz-adv-x="332" 
d="M83 130q13 -42 55 -42q38 0 43 32t-31 32h-135l60 248h245l-19 -110h-141l-11 -41h23q30 0 54.5 -9t40.5 -26.5t22.5 -43.5t0.5 -59q-23 -125 -166 -125q-112 0 -145 90z" />
    <glyph glyph-name="six.dnom" horiz-adv-x="341" 
d="M21 29q-37 42 -26 106q7 44 35 79l146 186h129l-103 -130q55 -10 83 -50t19 -97q-11 -64 -57.5 -100.5t-119.5 -36.5q-69 0 -106 43zM106 129q-5 -21 5.5 -32t30.5 -11q43 0 52 43q9 42 -37 42q-41 0 -51 -42z" />
    <glyph glyph-name="seven.dnom" horiz-adv-x="295" 
d="M26 400h280l-16 -93l-170 -307h-129l161 290h-145z" />
    <glyph glyph-name="eight.dnom" horiz-adv-x="353" 
d="M133 -14q-36 0 -64 9.5t-46 26t-25 40t-2 52.5q12 67 75 98q-40 33 -29 86q11 55 54 85.5t107 30.5q60 0 97 -35q37 -36 27 -91q-11 -55 -57 -82q47 -38 38 -100q-8 -57 -53.5 -88.5t-121.5 -31.5zM112 127q-8 -39 36 -39t50 39q6 38 -36 38q-44 0 -50 -38zM141 280
q-6 -32 36 -32q40 0 46 32q3 16 -7 24.5t-28 8.5q-41 0 -47 -33z" />
    <glyph glyph-name="nine.dnom" horiz-adv-x="341" 
d="M122 130q-55 10 -83 50t-19 97q11 64 57.5 100.5t119.5 36.5q69 0 106 -43q37 -42 26 -106q-7 -44 -35 -79l-146 -186h-129zM130 271q-8 -42 37 -42q40 0 51 42q5 21 -5.5 32t-30.5 11q-43 0 -52 -43z" />
    <glyph glyph-name="zero.numr" horiz-adv-x="408" 
d="M91 347q-43 60 -26 159q17 100 74 154t142 54q81 0 124 -61q44 -62 26 -159q-18 -100 -74.5 -154t-141.5 -54q-81 0 -124 61zM190 500q-17 -92 42 -92q57 0 74 92t-42 92q-57 0 -74 -92z" />
    <glyph glyph-name="one.numr" horiz-adv-x="274" 
d="M201 700h107l-71 -400h-122l48 271l-81 -22l-11 107z" />
    <glyph glyph-name="two.numr" horiz-adv-x="361" 
d="M34 300l13 77l178 155q17 13 25 23.5t10 18.5l1 4q3 12 -4 19t-20 7q-35 0 -63 -49l-95 60q60 99 174 99q67 0 104.5 -38t25.5 -105q-5 -30 -25.5 -55t-62.5 -59l-55 -47h119l-19 -110h-306z" />
    <glyph glyph-name="three.numr" horiz-adv-x="346" 
d="M177 286q-117 0 -150 90l107 57q16 -42 56 -42q36 0 40 31q2 15 -7.5 22.5t-27.5 7.5h-25l-31 61l73 77h-129l19 110h281l-15 -85l-79 -83q36 -16 53 -46.5t10 -70.5q-23 -129 -175 -129z" />
    <glyph glyph-name="four.numr" horiz-adv-x="357" 
d="M49 471l156 229h134l-152 -229h42l11 61h116l-11 -61h36l-19 -110h-36l-11 -61h-116l11 61h-180z" />
    <glyph glyph-name="five.numr" horiz-adv-x="332" 
d="M136 430q13 -42 55 -42q38 0 43 32t-31 32h-135l60 248h245l-19 -110h-141l-11 -41h23q30 0 54.5 -9t40.5 -26.5t22.5 -43.5t0.5 -59q-23 -125 -166 -125q-112 0 -145 90z" />
    <glyph glyph-name="six.numr" horiz-adv-x="341" 
d="M74 329q-37 42 -26 106q7 44 35 79l146 186h129l-103 -130q55 -10 83 -50t19 -97q-11 -64 -57.5 -100.5t-119.5 -36.5q-69 0 -106 43zM159 429q-5 -21 5.5 -32t30.5 -11q43 0 52 43q9 42 -37 42q-41 0 -51 -42z" />
    <glyph glyph-name="seven.numr" horiz-adv-x="295" 
d="M79 700h280l-16 -93l-170 -307h-129l161 290h-145z" />
    <glyph glyph-name="eight.numr" horiz-adv-x="354" 
d="M186 286q-36 0 -64 9.5t-46 26t-25 40t-2 52.5q12 67 75 98q-40 33 -29 86q11 55 54 85.5t107 30.5q60 0 97 -35q37 -36 27 -91q-11 -55 -57 -82q47 -38 38 -100q-8 -57 -53.5 -88.5t-121.5 -31.5zM165 427q-8 -39 36 -39q42 0 50 39q8 38 -36 38q-42 0 -50 -38zM194 580
q-6 -32 36 -32q40 0 46 32q3 16 -7 24.5t-28 8.5q-41 0 -47 -33z" />
    <glyph glyph-name="nine.numr" horiz-adv-x="341" 
d="M175 430q-55 10 -83 50t-19 97q11 64 57.5 100.5t119.5 36.5q69 0 106 -43q37 -42 26 -106q-7 -44 -35 -79l-146 -186h-129zM183 571q-8 -42 37 -42q40 0 51 42q5 21 -5.5 32t-30.5 11q-43 0 -52 -43z" />
    <glyph glyph-name="zero.sups" horiz-adv-x="408" 
d="M119 507q-43 60 -26 159q17 100 74 154t142 54q81 0 124 -61q44 -62 26 -159q-18 -100 -74.5 -154t-141.5 -54q-81 0 -124 61zM218 660q-17 -92 42 -92q57 0 74 92t-42 92q-57 0 -74 -92z" />
    <glyph glyph-name="one.sups" horiz-adv-x="274" 
d="M229 860h107l-71 -400h-122l48 271l-81 -22l-11 107z" />
    <glyph glyph-name="two.sups" horiz-adv-x="361" 
d="M62 460l13 77l178 155q17 13 25 23.5t10 18.5l1 4q3 12 -4 19t-20 7q-35 0 -63 -49l-95 60q60 99 174 99q67 0 104.5 -38t25.5 -105q-5 -30 -25.5 -55t-62.5 -59l-55 -47h119l-19 -110h-306z" />
    <glyph glyph-name="three.sups" horiz-adv-x="347" 
d="M206 446q-117 0 -150 90l107 57q16 -42 56 -42q36 0 40 31q2 15 -7.5 22.5t-27.5 7.5h-25l-31 61l73 77h-129l19 110h281l-15 -85l-79 -83q36 -16 53 -46.5t10 -70.5q-23 -129 -175 -129z" />
    <glyph glyph-name="four.sups" horiz-adv-x="357" 
d="M77 631l156 229h134l-152 -229h42l11 61h116l-11 -61h36l-19 -110h-36l-11 -61h-116l11 61h-180z" />
    <glyph glyph-name="five.sups" horiz-adv-x="331" 
d="M164 590q13 -42 55 -42q38 0 43 32t-31 32h-135l60 248h245l-19 -110h-141l-11 -41h23q30 0 54.5 -9t40.5 -26.5t22.5 -43.5t0.5 -59q-23 -125 -166 -125q-112 0 -145 90z" />
    <glyph glyph-name="six.sups" horiz-adv-x="341" 
d="M102 489q-37 42 -26 106q7 44 35 79l146 186h129l-103 -130q55 -10 83 -50t19 -97q-11 -64 -57.5 -100.5t-119.5 -36.5q-69 0 -106 43zM187 589q-5 -21 5.5 -32t30.5 -11q43 0 52 43q9 42 -37 42q-41 0 -51 -42z" />
    <glyph glyph-name="seven.sups" horiz-adv-x="296" 
d="M108 860h280l-16 -93l-170 -307h-129l161 290h-145z" />
    <glyph glyph-name="eight.sups" horiz-adv-x="353" 
d="M214 446q-36 0 -64 9.5t-46 26t-25 40t-2 52.5q12 67 75 98q-40 33 -29 86q11 55 54 85.5t107 30.5q60 0 97 -35q37 -36 27 -91q-11 -55 -57 -82q47 -38 38 -100q-8 -57 -53.5 -88.5t-121.5 -31.5zM193 587q-8 -39 36 -39q42 0 50 39q8 38 -36 38q-42 0 -50 -38zM222 740
q-6 -32 36 -32q40 0 46 32q3 16 -7 24.5t-28 8.5q-41 0 -47 -33z" />
    <glyph glyph-name="nine.sups" horiz-adv-x="341" 
d="M203 590q-55 10 -83 50t-19 97q11 64 57.5 100.5t119.5 36.5q69 0 106 -43q37 -42 26 -106q-7 -44 -35 -79l-146 -186h-129zM211 731q-8 -42 37 -42q40 0 51 42q5 21 -5.5 32t-30.5 11q-43 0 -52 -43z" />
    <glyph glyph-name="cent.tf" 
d="M183 113q-66 32 -96.5 97.5t-17.5 149.5q8 56 34.5 102.5t66.5 80.5t90.5 52.5t106.5 18.5q32 0 61 -6l46 92h62l-55 -111q69 -35 99 -105l-137 -72q-10 23 -31 38l-107 -216h8q63 0 104 56l121 -77q-38 -63 -101 -95t-135 -32q-17 0 -33.5 2t-33.5 6l-46 -94h-62z
M219 352q-12 -66 33 -99l106 213h-4q-25 0 -47.5 -8.5t-40.5 -23.5t-30.5 -36t-16.5 -46z" />
    <glyph glyph-name="dollar.tf" 
d="M223 -12q-90 9 -146 50.5t-75 110.5l146 75q24 -74 101 -85l26 147q-1 0 -1 0.5t-1 0.5q-48 18 -80 35.5t-60 45.5q-56 56 -40 152q8 50 31.5 86t58 60t77.5 35.5t91 12.5l15 86h70l-16 -92q128 -27 174 -142l-141 -74q-22 45 -60 62l-25 -138q36 -13 72 -30t63 -44
t40 -66t3 -95q-16 -90 -83.5 -139t-170.5 -55l-15 -87h-70zM256 507q-5 -38 47 -63l21 118q-62 -6 -68 -55zM320 141q55 13 63 58q6 36 -43 60z" />
    <glyph glyph-name="Euro.tf" 
d="M21 254l15 84h60q1 3 2 8.5t2 13.5q0 2 1 5t1 5h-61l15 84h66q39 125 112 192.5t179 67.5q72 0 124.5 -39.5t76.5 -109.5l-139 -73q-21 66 -80 66q-72 0 -110 -104h151l-15 -84h-158q-1 -4 -2 -9t-2 -11l-2 -12h159l-15 -84h-153q-3 -112 63 -112q63 0 110 75l124 -79
q-40 -72 -103.5 -112t-147.5 -40q-97 0 -151 73q-54 74 -53 195h-69z" />
    <glyph glyph-name="florin.tf" 
d="M-33 -51q21 -8 40 -8q27 0 50.5 14.5t37.5 45.5l128 279h-108l26 144h149l51 112q81 179 227 179q36 0 72 -10l-26 -150q-21 8 -41 8q-26 0 -49.5 -14.5t-37.5 -45.5l-36 -79h111l-26 -144h-152l-143 -312q-81 -179 -227 -179q-36 0 -72 10z" />
    <glyph glyph-name="uni20BD.tf" 
d="M-1 189h70l7 41h-69l24 140h70l58 330h235q96 0 157 -76q62 -75 44 -174q-10 -55 -35 -96t-62.5 -68.5t-84.5 -41.5t-101 -14h-76l-7 -41h180l-17 -98h-180l-16 -91h-160l16 91h-70zM261 370h75q37 0 65.5 26t35.5 64t-12.5 64t-56.5 26h-75z" />
    <glyph glyph-name="sterling.tf" 
d="M13 154h66l20 115h-55l25 140h55l14 81q20 112 87.5 168t167.5 56q76 0 131.5 -39.5t78.5 -109.5l-144 -76q-24 69 -84 69q-29 0 -50.5 -18t-26.5 -50l-14 -81h205l-25 -140h-205l-20 -115h314l-27 -154h-540z" />
    <glyph glyph-name="yen.tf" 
d="M38 151l15 88h155l7 40h-155l16 88h124l-121 333h174l69 -227l147 227h190l-237 -333h124l-16 -88h-155l-7 -40h155l-15 -88h-155l-27 -151h-160l27 151h-155z" />
    <glyph glyph-name="brevecy" horiz-adv-x="380" 
d="M95 559l22 130h300l-22 -130h-300z" />
    </font>
</defs>
</svg>
