<?xml version="1.0" standalone="no"?>
<!DOCTYPE svg PUBLIC "-//W3C//DTD SVG 1.1//EN" "http://www.w3.org/Graphics/SVG/1.1/DTD/svg11.dtd" >
<svg xmlns="http://www.w3.org/2000/svg" xmlns:xlink="http://www.w3.org/1999/xlink" version="1.1">
<metadata>
Created by FontForge 20170731 at Thu Oct 21 11:35:12 2021
 By Aleksey,,,
Copyright (c) 2015 by Radomir Tinkov. All rights reserved.
</metadata>
<defs>
<font id="SVN-Gilroy-HeavyItalic" horiz-adv-x="615" >
  <font-face 
    font-family="SVN-Gilroy Heavy"
    font-weight="900"
    font-style="italic"
    font-stretch="normal"
    units-per-em="1000"
    panose-1="0 0 10 0 0 0 0 0 0 0"
    ascent="800"
    descent="-200"
    x-height="500"
    cap-height="700"
    bbox="-414 -277 1171.75 1087"
    underline-thickness="50"
    underline-position="-150"
    slope="-10"
    unicode-range="U+0020-FB02"
  />
<missing-glyph horiz-adv-x="500" 
d="M93 -200v1000h317v-1000h-317zM167 118v-113h166v113h-166zM237 -51l-70 -47v-33h166v33h-102l70 47h32v33h-166v-33h70zM167 178h166v113h-100v-56h34v23h33v-47h-100v80h-33v-113zM167 604v-104h166v34h-66v70h-100zM167 630h166v33h-66v37h66v33h-165v-33h65v-37h-66
v-33zM233 440v-37h-66v-33h100v70h66v33h-166v-33h66zM167 313h166v100h-33v-66h-133v-34zM200 38v47h100v-47h-100zM233 570v-36h-33v36h33z" />
    <glyph glyph-name="fi" unicode="fi" horiz-adv-x="572" 
d="M59 500h63q19 112 89.5 163.5t200.5 51.5q65 0 127 -15l-25 -145q-54 9 -109 9q-105 0 -117 -64h280l-88 -500h-166l60 341h-114l-60 -341h-166l60 341h-62z" />
    <glyph glyph-name="fl" unicode="fl" horiz-adv-x="572" 
d="M59 500h63q19 112 89.5 163.5t200.5 51.5q45 0 92.5 -5t98.5 -15l-123 -695h-166l101 573q-5 1 -12.5 1h-17.5q-82 0 -97 -74h66l-28 -159h-66l-60 -341h-166l60 341h-62z" />
    <glyph glyph-name="f_f" unicode="ff" horiz-adv-x="612" 
d="M32 341l27 159h63q37 216 260 216h15t15 -1l-27 -154q-18 0 -34 -2t-29 -8.5t-21.5 -18.5t-12.5 -32h116l2 10q22 108 85.5 162t175.5 54h14t15 -1l-27 -154q-18 0 -33.5 -2t-28 -8.5t-21.5 -18.5t-13 -32l-2 -10h85l-27 -159h-86l-60 -341h-167l60 341h-116l-60 -341
h-166l60 341h-62z" />
    <glyph glyph-name="f_f_i" unicode="ffi" horiz-adv-x="855" 
d="M59 500h63q20 106 86 161t178 55q7 0 13 -0.5t13 -0.5l-27 -154q-18 0 -34 -2t-29 -8.5t-21.5 -18.5t-12.5 -32h116l2 10q21 107 90.5 161t194.5 54q70 0 132 -15l-25 -145q-54 9 -109 9q-103 0 -116 -64l-2 -10h280l-88 -500h-167l60 341h-113l-60 -341h-167l60 341
h-116l-60 -341h-166l60 341h-62z" />
    <glyph glyph-name="f_f_l" unicode="ffl" horiz-adv-x="855" 
d="M32 341l27 159h63q37 216 260 216h15t15 -1l-27 -154q-18 0 -34 -2t-29 -8.5t-21.5 -18.5t-12.5 -32h116l2 10q22 110 91.5 162.5t198.5 52.5q45 0 92.5 -5t98.5 -15l-124 -705h-167l103 583q-5 1 -12.5 1h-17.5q-81 0 -96 -74l-2 -10h65l-27 -159h-66l-60 -341h-167
l60 341h-116l-60 -341h-166l60 341h-62z" />
    <glyph glyph-name=".notdef" horiz-adv-x="500" 
d="M93 -200v1000h317v-1000h-317zM167 118v-113h166v113h-166zM237 -51l-70 -47v-33h166v33h-102l70 47h32v33h-166v-33h70zM167 178h166v113h-100v-56h34v23h33v-47h-100v80h-33v-113zM167 604v-104h166v34h-66v70h-100zM167 630h166v33h-66v37h66v33h-165v-33h65v-37h-66
v-33zM233 440v-37h-66v-33h100v70h66v33h-166v-33h66zM167 313h166v100h-33v-66h-133v-34zM200 38v47h100v-47h-100zM233 570v-36h-33v36h33z" />
    <glyph glyph-name=".null" horiz-adv-x="0" 
 />
    <glyph glyph-name="nonmarkingreturn" horiz-adv-x="333" 
 />
    <glyph glyph-name="space" unicode=" " horiz-adv-x="227" 
 />
    <glyph glyph-name="space" unicode="&#xa0;" horiz-adv-x="227" 
 />
    <glyph glyph-name="exclam" unicode="!" horiz-adv-x="294" 
d="M79 255l10 245l35 200h204l-35 -200l-76 -245h-138zM100 -14q-21 0 -38.5 8.5t-29.5 22.5t-16.5 33.5t-0.5 41.5q4 21 15 40t27.5 32.5t36.5 21.5t43 8q21 0 39 -8.5t29.5 -23t16.5 -34t1 -40.5q-8 -45 -41.5 -73.5t-81.5 -28.5z" />
    <glyph glyph-name="quotedbl" unicode="&#x22;" horiz-adv-x="442" 
d="M322 700h154l-65 -259h-114zM98 441l26 259h154l-66 -259h-114z" />
    <glyph glyph-name="numbersign" unicode="#" horiz-adv-x="631" 
d="M50 315h103l24 70h-102l40 120h103l50 145h128l-50 -145h82l50 145h128l-50 -145h100l-40 -120h-101l-24 -70h101l-40 -120h-102l-50 -145h-128l50 145h-82l-50 -145h-128l50 145h-102zM281 315h82l24 70h-82z" />
    <glyph glyph-name="dollar" unicode="$" horiz-adv-x="567" 
d="M211 -12q-84 10 -137.5 53.5t-72.5 112.5l158 82q26 -67 81 -80l22 121l-14 6q-42 17 -71.5 36t-55.5 47q-54 57 -37 153q8 47 31.5 83.5t58 61t77.5 37.5t88 14l15 85h70l-16 -92q123 -29 171 -148l-154 -82q-19 42 -48 58l-20 -113q1 -1 3 -1t3 -1l28.5 -12t27.5 -13
q8 -3 19.5 -9t22.5 -13t20.5 -14.5t14.5 -13.5q26 -26 39.5 -65t2.5 -96q-18 -94 -85.5 -144.5t-172.5 -55.5l-15 -85h-70zM260 503q-6 -30 33 -51l16 94q-41 -7 -49 -43zM310 156q43 10 50 46q6 28 -33 48z" />
    <glyph glyph-name="percent" unicode="%" horiz-adv-x="823" 
d="M119 410q-43 55 -33 127q6 40 24.5 72.5t47 56t64.5 36.5t75 13q81 0 124 -58q43 -57 30 -132q-8 -38 -27 -69.5t-46.5 -53.5t-62 -34t-73.5 -12q-80 0 -123 54zM440 41q-44 56 -32 129t69 124q58 51 141 51q79 0 123 -57q44 -58 31 -131q-7 -38 -26 -69.5t-46.5 -54
t-62 -35t-73.5 -12.5q-81 0 -124 55zM115 111l546 500l63 -41l-546 -501zM219 536q-5 -23 6.5 -38t33.5 -15q18 0 32 9.5t21.5 23.5t8 29.5t-8.5 27.5q-12 15 -32 15q-21 0 -40 -14.5t-21 -37.5zM540 165q-5 -22 6.5 -37t33.5 -15q23 0 40 15.5t21 36.5q5 23 -7 38t-35 15
q-22 0 -38.5 -15t-20.5 -38z" />
    <glyph glyph-name="ampersand" unicode="&#x26;" horiz-adv-x="696" 
d="M73 49q-62 65 -45 160q23 126 152 190q-27 63 -17 124q8 48 31 84t57 60t76 36t88 12q174 0 233 -159l-162 -85q-26 74 -81 74q-25 0 -42.5 -14t-22.5 -38q-3 -14 4 -34q6 -18 13.5 -29t24.5 -35l92 -125q29 50 49 103l135 -86q-44 -88 -90 -146l76 -104l-148 -75l-53 71
q-83 -48 -188 -48q-121 0 -182 64zM209 215q-6 -32 14.5 -53.5t65.5 -21.5q32 0 65 14l-94 127q-2 2 -2 3q-41 -25 -49 -69z" />
    <glyph glyph-name="quotesingle" unicode="'" horiz-adv-x="243" 
d="M98 441l26 259h154l-66 -259h-114z" />
    <glyph glyph-name="parenleft" unicode="(" horiz-adv-x="327" 
d="M96 -100q-34 103 -42.5 222.5t11.5 242.5q41 230 187 435h167q-150 -220 -189.5 -450t30.5 -450h-164v0z" />
    <glyph glyph-name="parenright" unicode=")" horiz-adv-x="326" 
d="M-57 -100q150 220 189.5 450t-30.5 450h164q34 -103 42.5 -222.5t-11.5 -242.5q-41 -230 -187 -435h-167v0z" />
    <glyph glyph-name="asterisk" unicode="*" horiz-adv-x="405" 
d="M422 605l-17 -96l-89 10l44 -70l-85 -50l-28 82l-57 -82l-75 50l68 70l-92 -10l17 96l89 -10l-44 70l85 50l28 -82l57 82l75 -50l-69 -70z" />
    <glyph glyph-name="plus" unicode="+" horiz-adv-x="560" 
d="M44 271l29 158h160l28 160h158l-28 -160h160l-28 -158h-160l-28 -160h-159l28 160h-160z" />
    <glyph glyph-name="comma" unicode="," horiz-adv-x="302" 
d="M248 174l-140 -314h-134l90 314h184z" />
    <glyph glyph-name="hyphen" unicode="-" horiz-adv-x="500" 
d="M50 222l28 158h390l-28 -158h-390z" />
    <glyph glyph-name="period" unicode="." horiz-adv-x="289" 
d="M98 -14q-21 0 -38.5 8.5t-29.5 22.5t-16.5 33.5t-0.5 41.5q4 21 15 40t27.5 32.5t36.5 21.5t43 8q21 0 38.5 -8.5t29.5 -23t16.5 -34t0.5 -40.5q-8 -45 -41 -73.5t-81 -28.5z" />
    <glyph glyph-name="slash" unicode="/" horiz-adv-x="520" 
d="M38 -100h-75l554 900h75z" />
    <glyph glyph-name="zero" unicode="0" horiz-adv-x="630" 
d="M77 89q-61 105 -33 271q12 70 38 134.5t68.5 113.5t101.5 78t137 29q137 0 199 -105q61 -104 33 -270q-12 -70 -38 -134.5t-68.5 -113.5t-101.5 -78t-137 -29q-137 0 -199 104zM223 350q-35 -191 76 -191q109 0 144 191t-77 191q-110 0 -143 -191z" />
    <glyph glyph-name="one" unicode="1" horiz-adv-x="415" 
d="M275 700h154l-123 -700h-179l89 504l-127 -31l-16 159z" />
    <glyph glyph-name="two" unicode="2" horiz-adv-x="540" 
d="M-22 0l22 130l278 245q77 68 84 109q5 25 -8 41t-39 16q-60 0 -106 -76l-145 89q48 81 120 121t154 40q98 0 159 -67q31 -34 42.5 -75.5t2.5 -93.5q-5 -30 -15 -56.5t-26.5 -51t-40 -48.5t-54.5 -51l-116 -99h208l-30 -173h-490z" />
    <glyph glyph-name="three" unicode="3" horiz-adv-x="548" 
d="M229 -15q-88 0 -149.5 39.5t-85.5 118.5l164 85q21 -69 90 -69q78 0 90 66q5 30 -12.5 47.5t-54.5 17.5h-37l-51 102l130 137h-229l30 171h455l-25 -141l-141 -149q60 -25 91.5 -77.5t20.5 -124.5q-9 -55 -34.5 -97t-63.5 -70t-86 -42t-102 -14z" />
    <glyph glyph-name="four" unicode="4" horiz-adv-x="578" 
d="M19 270l278 430h204l-280 -430h105l22 126h178l-22 -126h70l-29 -163h-70l-19 -107h-178l19 107h-307z" />
    <glyph glyph-name="five" unicode="5" horiz-adv-x="549" 
d="M159 229q22 -70 97 -70q37 0 60.5 17.5t28.5 46.5q5 30 -11.5 48t-51.5 18h-225l101 411h413l-30 -171h-245l-19 -75h43q101 0 161 -65q30 -33 41 -77.5t0 -101.5q-10 -55 -35 -97t-62.5 -70.5t-85.5 -43t-102 -14.5q-190 0 -243 158z" />
    <glyph glyph-name="six" unicode="6" horiz-adv-x="560" 
d="M58 58q-64 73 -44 184q15 87 70 146l259 312h209l-187 -226q91 -16 141 -88q50 -71 34 -164q-10 -57 -36.5 -101t-65 -74.5t-88 -46t-106.5 -15.5q-122 0 -186 73zM192 232q-7 -40 12.5 -61.5t57.5 -21.5q37 0 65 22t35 61q7 40 -13 62t-57 22q-38 0 -65.5 -22t-34.5 -62
z" />
    <glyph glyph-name="seven" unicode="7" horiz-adv-x="490" 
d="M80 700h473l-25 -148l-309 -552h-200l296 527h-266z" />
    <glyph glyph-name="eight" unicode="8" horiz-adv-x="569" 
d="M59 47q-62 62 -44 159q19 109 125 165q-62 56 -47 143q9 50 33.5 87.5t60 62.5t80 37.5t92.5 12.5q102 0 163 -58t45 -155q-15 -90 -97 -140q40 -30 57 -75.5t8 -97.5q-17 -97 -90 -149.5t-197 -52.5q-127 0 -189 61zM197 222q-6 -33 13 -52.5t57 -19.5q37 0 63 19.5
t33 52.5q5 34 -14 53.5t-56 19.5q-38 0 -63.5 -19.5t-32.5 -53.5zM259 492q-5 -28 10.5 -44t47.5 -16q30 0 52.5 16.5t26.5 43.5q5 27 -11 43.5t-47 16.5q-32 0 -53 -16.5t-26 -43.5z" />
    <glyph glyph-name="nine" unicode="9" horiz-adv-x="560" 
d="M43 0l187 226q-93 17 -142 87q-50 70 -33 165q10 57 36.5 101t65 74.5t88 46t106.5 15.5q121 0 186 -74q64 -73 44 -183q-15 -87 -70 -146l-259 -312h-209zM233 468q-7 -40 13 -62t57 -22q38 0 65.5 22t34.5 62t-12.5 61.5t-57.5 21.5q-37 0 -65 -22t-35 -61z" />
    <glyph glyph-name="colon" unicode=":" horiz-adv-x="289" 
d="M155 307q-21 0 -38.5 8.5t-29.5 22.5t-16.5 33.5t-0.5 41.5q4 21 15 40t27.5 32.5t36.5 21.5t43 8q21 0 38.5 -8.5t29.5 -23t16.5 -34t0.5 -40.5q-8 -45 -41 -73.5t-81 -28.5zM98 -14q-21 0 -38.5 8.5t-29.5 22.5t-16.5 33.5t-0.5 41.5q4 21 15 40t27.5 32.5t36.5 21.5
t43 8q21 0 38.5 -8.5t29.5 -23t16.5 -34t0.5 -40.5q-8 -45 -41 -73.5t-81 -28.5z" />
    <glyph glyph-name="semicolon" unicode=";" horiz-adv-x="302" 
d="M62 174h184l-140 -314h-134zM167 307q-21 0 -38.5 8.5t-29.5 22.5t-16.5 33.5t-0.5 41.5q4 21 15 40t27.5 32.5t36.5 21.5t43 8q21 0 38.5 -8.5t29.5 -23t16.5 -34t0.5 -40.5q-8 -45 -41 -73.5t-81 -28.5z" />
    <glyph glyph-name="less" unicode="&#x3c;" horiz-adv-x="521" 
d="M551 619l-33 -181l-287 -97l254 -97l-30 -163l-415 195l26 148z" />
    <glyph glyph-name="equal" unicode="=" horiz-adv-x="511" 
d="M58 380l29 159h439l-29 -159h-439zM20 161l28 159h439l-28 -159h-439z" />
    <glyph glyph-name="greater" unicode="&#x3e;" horiz-adv-x="521" 
d="M101 619l415 -195l-26 -148l-485 -195l33 181l288 97l-254 97z" />
    <glyph glyph-name="question" unicode="?" horiz-adv-x="548" 
d="M73 550q42 81 115.5 123t163.5 42q98 0 157 -59t43 -152q-7 -38 -24 -66t-38.5 -50t-45.5 -39t-44.5 -32t-34.5 -30t-17 -32h-169q5 35 20.5 61t35.5 46.5t42 36t41.5 30.5t33.5 30.5t18 34.5q5 22 -8 35t-37 13q-66 0 -108 -83zM216 -14q-21 0 -38.5 8.5t-29.5 22.5
t-16.5 33.5t-0.5 41.5q4 21 15 40t27.5 32.5t36.5 21.5t43 8q21 0 39 -8.5t29.5 -23t16.5 -34t1 -40.5q-8 -45 -41.5 -73.5t-81.5 -28.5z" />
    <glyph glyph-name="at" unicode="@" horiz-adv-x="769" 
d="M93 -5q-92 107 -64 264q13 77 51.5 141.5t94 111.5t126 73.5t148.5 26.5q82 0 142.5 -31.5t98 -82t51.5 -113.5t3 -124q-19 -106 -71 -160.5t-133 -54.5q-48 0 -80.5 21t-43.5 57q-42 -39 -101 -39q-66 0 -100 51q-35 51 -21 123q6 35 21.5 63.5t37 49t48.5 32t57 11.5
q56 0 89 -43l6 31h136l-42 -236q-11 -63 40 -63q84 0 113 161q23 129 -52 217q-75 89 -204 89q-69 0 -131 -24t-111.5 -66.5t-83 -100.5t-45.5 -125q-24 -138 56 -233q40 -48 96 -70.5t128 -22.5q87 0 156 22l-8 -43q-69 -20 -154 -20q-161 0 -254 107zM330 250
q-6 -26 7 -38.5t32 -12.5t36.5 12.5t19.5 38.5q5 23 -5.5 37.5t-32.5 14.5t-37 -14.5t-20 -37.5z" />
    <glyph glyph-name="A" unicode="A" horiz-adv-x="671" 
d="M305 700h218l108 -700h-191l-11 101h-233l-48 -101h-197zM412 255l-26 242l-116 -242h142z" />
    <glyph glyph-name="B" unicode="B" horiz-adv-x="602" 
d="M134 700h266q104 0 162 -58t43 -148q-15 -89 -90 -137q73 -56 60 -159q-6 -45 -27 -81.5t-56 -62.5t-83 -40t-108 -14h-290zM218 160h108q29 0 49 16.5t25 42.5q5 27 -8.5 43t-43.5 16h-109zM266 430h88q27 0 46.5 14.5t23.5 40.5q4 25 -9.5 40t-40.5 15h-89z" />
    <glyph glyph-name="C" unicode="C" horiz-adv-x="722" 
d="M109 93q-88 107 -62 267q13 78 49.5 143t91 112t124 73.5t148.5 26.5q103 0 175.5 -44.5t110.5 -122.5l-164 -87q-40 79 -139 79q-43 0 -79.5 -14t-65 -39.5t-47.5 -60.5t-26 -76q-15 -82 26 -137q41 -53 120 -53q101 0 164 84l147 -95q-57 -78 -140.5 -121t-182.5 -43
q-162 0 -250 108z" />
    <glyph glyph-name="D" unicode="D" horiz-adv-x="709" 
d="M134 700h285q139 0 221 -106t57 -254q-13 -75 -48.5 -137.5t-88.5 -107.5t-120.5 -70t-143.5 -25h-285zM321 173q40 0 74 14t60 38t43.5 57t24.5 71q13 79 -24 126.5t-110 47.5h-101l-63 -354h96z" />
    <glyph glyph-name="E" unicode="E" horiz-adv-x="535" 
d="M549 533h-265l-18 -98h242l-30 -164h-240l-18 -103h270l-29 -168h-450l123 700h445z" />
    <glyph glyph-name="F" unicode="F" horiz-adv-x="518" 
d="M534 527h-251l-20 -114h245l-30 -173h-246l-42 -240h-179l123 700h430z" />
    <glyph glyph-name="G" unicode="G" horiz-adv-x="779" 
d="M110 93q-89 109 -63 267q13 77 49.5 142t91.5 112.5t124.5 74t148.5 26.5q103 0 178 -43.5t115 -121.5l-164 -88q-44 78 -147 78q-43 0 -79.5 -14t-65 -39.5t-47.5 -60.5t-26 -76q-15 -84 27 -140q42 -55 126 -55q128 0 181 92h-162l27 154h353l-12 -71q-14 -79 -48 -143
t-86 -109t-120 -69t-149 -24q-164 0 -252 108z" />
    <glyph glyph-name="H" unicode="H" horiz-adv-x="665" 
d="M134 700h179l-46 -259h197l46 259h178l-123 -700h-178l47 269h-197l-47 -269h-179z" />
    <glyph glyph-name="I" unicode="I" horiz-adv-x="289" 
d="M134 700h179l-123 -700h-179z" />
    <glyph glyph-name="J" unicode="J" horiz-adv-x="569" 
d="M166 217q10 -31 29 -44.5t52 -13.5q82 0 94 71l83 470h179l-84 -473q-21 -123 -94 -182.5t-191 -59.5q-175 0 -230 145z" />
    <glyph glyph-name="K" unicode="K" horiz-adv-x="631" 
d="M134 700h179l-50 -284l239 284h209l-298 -348l178 -352h-185l-160 319l-56 -319h-179z" />
    <glyph glyph-name="L" unicode="L" horiz-adv-x="485" 
d="M220 173h241l-30 -173h-420l123 700h179z" />
    <glyph glyph-name="M" unicode="M" horiz-adv-x="825" 
d="M11 0l123 700h179l114 -302l231 302h190l-123 -700h-178l66 378l-219 -282h-18l-119 287l-67 -383h-179z" />
    <glyph glyph-name="N" unicode="N" horiz-adv-x="675" 
d="M134 700h139l182 -366l65 366h178l-123 -700h-138l-182 366l-65 -366h-179z" />
    <glyph glyph-name="O" unicode="O" horiz-adv-x="790" 
d="M638 87q-62 -56 -132.5 -79t-152.5 -23q-79 0 -142 32t-104.5 84.5t-58 120t-1.5 139.5q13 78 50.5 143.5t93.5 112t126.5 72.5t149.5 26q159 0 247 -112q89 -112 64 -262q-26 -152 -140 -254zM225 350q-15 -84 27 -137t124 -53q41 0 78.5 14.5t67.5 40t50.5 60
t27.5 75.5q14 84 -29 136q-44 54 -125 54q-42 0 -79 -14.5t-66 -40t-49 -60.5t-27 -75z" />
    <glyph glyph-name="P" unicode="P" horiz-adv-x="592" 
d="M134 700h264q105 0 167 -72q62 -71 46 -183q-8 -58 -34 -102t-64.5 -73.5t-88 -44.5t-105.5 -15h-92l-37 -210h-179zM344 380q35 0 59 20.5t30 54.5t-11.5 54t-53.5 20h-85l-26 -149h87z" />
    <glyph glyph-name="Q" unicode="Q" horiz-adv-x="795" 
d="M530 20q-43 -19 -86.5 -27t-90.5 -8q-77 0 -140 32t-104.5 85t-59 120.5t-2.5 138.5q13 78 51 143t93.5 112t126 73t149.5 26q159 0 247 -112q88 -110 64 -262q-21 -129 -112 -226l51 -67l-132 -100zM225 350q-15 -84 27 -137t124 -53q25 0 42 4l-80 104l133 100l88 -115
q32 46 41 97q14 84 -29 136q-44 54 -125 54q-42 0 -79 -14.5t-66 -40t-49 -60.5t-27 -75z" />
    <glyph glyph-name="R" unicode="R" horiz-adv-x="620" 
d="M11 0l124 700h274q104 0 169 -74q65 -75 46 -178q-13 -67 -52 -117t-100 -77l96 -254h-180l-82 226h-76l-40 -226h-179zM359 378q35 0 57.5 22t28.5 56q6 35 -11.5 57t-53.5 22h-96l-28 -157h103z" />
    <glyph glyph-name="S" unicode="S" horiz-adv-x="588" 
d="M156 241q28 -87 128 -87q82 0 91 48q6 33 -46 55q-4 2 -22.5 8.5t-50.5 17.5q-93 32 -139 84q-47 54 -31 145q9 50 34 88t60.5 63.5t80 38.5t93.5 13q88 0 151.5 -41t93.5 -119l-153 -82q-33 73 -106 73q-63 0 -72 -45q-6 -25 18 -41.5t90 -39.5q23 -8 41 -15t34 -15
t30.5 -18t29.5 -23q63 -51 45 -162q-18 -100 -93.5 -151t-193.5 -51q-112 0 -181 46.5t-91 127.5z" />
    <glyph glyph-name="T" unicode="T" horiz-adv-x="545" 
d="M89 700h525l-31 -173h-172l-93 -527h-179l93 527h-173z" />
    <glyph glyph-name="U" unicode="U" horiz-adv-x="645" 
d="M92 54q-70 69 -50 176l83 470h179l-80 -453q-15 -88 83 -88t114 88l79 453h179l-83 -470q-11 -60 -37.5 -106t-66.5 -76.5t-91.5 -46.5t-110.5 -16q-128 0 -198 69z" />
    <glyph glyph-name="V" unicode="V" horiz-adv-x="640" 
d="M260 700l45 -492l217 492h202l-341 -700h-214l-95 700h186z" />
    <glyph glyph-name="W" unicode="W" horiz-adv-x="1004" 
d="M265 700l35 -441l202 441h143l48 -441l188 441h196l-318 -700h-189l-43 395l-181 -395h-189l-73 700h181z" />
    <glyph glyph-name="X" unicode="X" horiz-adv-x="632" 
d="M-39 0l274 363l-143 337h194l73 -173l131 173h208l-264 -350l148 -350h-193l-79 186l-141 -186h-208z" />
    <glyph glyph-name="Y" unicode="Y" horiz-adv-x="631" 
d="M79 700h190l75 -225l154 225h212l-295 -395l-54 -305h-179l54 305z" />
    <glyph glyph-name="Z" unicode="Z" horiz-adv-x="542" 
d="M591 700l-23 -138l-312 -389h250l-30 -173h-487l24 138l313 389h-240l31 173h474z" />
    <glyph glyph-name="bracketleft" unicode="[" horiz-adv-x="329" 
d="M379 641h-98l-103 -582h98l-29 -159h-264l159 900h264z" />
    <glyph glyph-name="backslash" unicode="\" horiz-adv-x="520" 
d="M365 -100l-243 900h68l243 -900h-68z" />
    <glyph glyph-name="bracketright" unicode="]" horiz-adv-x="329" 
d="M381 800l-159 -900h-264l28 159h98l103 582h-98l28 159h264z" />
    <glyph glyph-name="asciicircum" unicode="^" horiz-adv-x="580" 
d="M310 700h118l138 -354h-174l-51 158l-110 -158h-184z" />
    <glyph glyph-name="underscore" unicode="_" horiz-adv-x="515" 
d="M-52 -186l28 158h465l-28 -158h-465z" />
    <glyph glyph-name="grave" unicode="`" horiz-adv-x="314" 
d="M194 555l-95 145h188l61 -145h-154z" />
    <glyph glyph-name="a" unicode="a" 
d="M59 67q-51 81 -33 190q9 52 31.5 98.5t57 81.5t80.5 56t102 21q96 0 138 -69l10 55h166l-88 -500h-166l7 39q-59 -53 -146 -53q-107 0 -159 81zM192 250q-7 -49 15 -79t70 -30t81.5 29t42.5 77v3q8 49 -15 79t-71 30q-49 0 -82 -30.5t-41 -78.5z" />
    <glyph glyph-name="b" unicode="b" 
d="M4 0l123 700h166l-42 -241q56 55 141 55q103 0 159 -81t38 -193q-9 -51 -31 -97t-56 -81t-79 -55.5t-100 -20.5q-99 0 -143 71l-10 -57h-166zM214 250q-8 -51 15.5 -80t71.5 -29q46 0 80 29t42 80t-15.5 80t-69.5 29t-80.5 -29t-43.5 -80z" />
    <glyph glyph-name="c" unicode="c" horiz-adv-x="532" 
d="M74 65q-66 79 -48 195q9 55 35.5 102t66 80.5t90 52.5t106.5 19q79 0 133.5 -35.5t81.5 -95.5l-151 -79q-23 48 -78 48q-45 0 -78 -28t-40 -73q-8 -45 15.5 -74t65.5 -29q58 0 93 50l132 -84q-38 -63 -100.5 -95.5t-137.5 -32.5q-120 0 -186 79z" />
    <glyph glyph-name="d" unicode="d" horiz-adv-x="616" 
d="M59 67q-51 81 -33 190q9 52 31.5 98.5t57 81.5t80.5 56t102 21q96 0 139 -70l45 256h166l-123 -700h-166l7 40q-59 -54 -147 -54q-107 0 -159 81zM192 250q-8 -49 15 -79t71 -30q46 0 79.5 27.5t43.5 75.5l2 10q9 46 -17 76q-24 29 -70 29q-50 0 -83 -30.5t-41 -78.5z
" />
    <glyph glyph-name="e" unicode="e" horiz-adv-x="568" 
d="M72 65q-65 81 -46 195q9 55 35.5 102t66 80.5t90 52.5t106.5 19q112 0 177 -77q66 -78 44 -186q-3 -15 -6.5 -30.5t-10.5 -31.5h-343q13 -61 96 -61q60 0 99 36l106 -97q-87 -81 -218 -81q-130 0 -196 79zM315 374q-74 0 -110 -69h189q-5 69 -79 69z" />
    <glyph glyph-name="f" unicode="f" horiz-adv-x="331" 
d="M59 500h63q20 106 86 161t178 55q7 0 13 -0.5t13 -0.5l-27 -154q-18 0 -34 -2t-29 -8.5t-21.5 -18.5t-12.5 -32h86l-28 -159h-86l-60 -341h-166l60 341h-62z" />
    <glyph glyph-name="g" unicode="g" horiz-adv-x="619" 
d="M235 -215q-85 0 -146.5 31t-87.5 91l147 77q28 -54 102 -54q46 0 77 22.5t39 67.5l7 38q-58 -52 -142 -52q-57 0 -99 22.5t-67 59t-34 83.5t0 96q15 99 87 173q71 74 182 74q98 0 141 -73l10 59h164l-85 -480q-21 -118 -99.5 -176.5t-195.5 -58.5zM197 260
q-8 -45 15.5 -74t71.5 -29q45 0 78.5 25.5t44.5 67.5l3 20q4 42 -20 67.5t-69 25.5q-47 0 -81.5 -29t-42.5 -74z" />
    <glyph glyph-name="h" unicode="h" horiz-adv-x="578" 
d="M127 700h166l-44 -251q57 65 146 65q40 0 72 -14.5t52.5 -42t28 -67.5t-1.5 -91l-53 -299h-166l49 278q6 40 -11 59.5t-51 19.5q-38 0 -63.5 -23t-33.5 -68v1l-47 -267h-166z" />
    <glyph glyph-name="i" unicode="i" horiz-adv-x="262" 
d="M4 0l88 500h166l-88 -500h-166zM187 539q-37 0 -59 26.5t-16 62.5q3 18 12.5 34t23.5 28.5t31.5 19.5t36.5 7q37 0 59 -26t15 -63q-3 -18 -12 -34.5t-23 -28.5t-31.5 -19t-36.5 -7z" />
    <glyph glyph-name="j" unicode="j" horiz-adv-x="277" 
d="M-65 -61q34 0 55.5 12.5t28.5 48.5l88 500h166l-88 -500q-10 -57 -29 -98t-49 -67.5t-72 -38.5t-96 -12h-15.5t-15.5 1zM200 539q-37 0 -59 26.5t-16 62.5q3 18 12.5 34t23.5 28.5t31.5 19.5t36.5 7q37 0 59 -26t15 -63q-3 -18 -12 -34.5t-23 -28.5t-31.5 -19t-36.5 -7z
" />
    <glyph glyph-name="k" unicode="k" horiz-adv-x="537" 
d="M127 700h166l-70 -398l159 198h191l-210 -251l130 -249h-178l-106 220l-39 -220h-166z" />
    <glyph glyph-name="l" unicode="l" horiz-adv-x="263" 
d="M5 0l128 730h166l-72 -414l-56 -316h-166z" />
    <glyph glyph-name="m" unicode="m" horiz-adv-x="850" 
d="M4 0l88 500h166l-8 -46q55 60 139 60q87 0 120 -67q64 67 153 67q42 0 75 -14.5t54 -41.5t28.5 -65.5t-0.5 -86.5l-53 -306h-167l50 287q13 70 -49 70q-63 0 -81 -68l-51 -289h-166l50 287q10 70 -50 70q-65 0 -83 -77l-49 -280h-166z" />
    <glyph glyph-name="n" unicode="n" horiz-adv-x="578" 
d="M92 500h166l-9 -51q57 65 146 65q40 0 72 -14.5t52.5 -42t28 -67.5t-1.5 -91l-53 -299h-166l49 278q6 40 -11 59.5t-51 19.5q-38 0 -63.5 -23t-33.5 -68v1l-47 -267h-166z" />
    <glyph glyph-name="o" unicode="o" horiz-adv-x="583" 
d="M258 -14q-65 0 -113.5 25t-78.5 65t-40 90t1 100q10 56 37.5 102t67 78.5t90 50t107.5 17.5q120 0 183 -86t44 -192q-10 -54 -37 -100t-66.5 -79.5t-89.5 -52t-105 -18.5zM191 250q-8 -46 14.5 -75t65.5 -29q45 0 77.5 29t40.5 75t-14 75t-67 29q-43 0 -76 -29t-41 -75z
" />
    <glyph glyph-name="p" unicode="p" 
d="M92 500h166l-7 -41q56 55 142 55q103 0 158 -82q56 -82 38 -192q-9 -51 -31 -97t-56 -81t-79 -55.5t-100 -20.5q-98 0 -143 71l-45 -257h-166zM213 247q-7 -48 17 -77t70 -29q48 0 81.5 29t41.5 80t-14 80t-70 29q-46 0 -78 -28.5t-46 -76.5z" />
    <glyph glyph-name="q" unicode="q" 
d="M59 67q-51 81 -33 190q9 52 31.5 98.5t57 81.5t80.5 56t102 21q96 0 138 -69l10 55h166l-123 -700h-166l42 239q-59 -53 -146 -53q-107 0 -159 81zM192 250q-8 -49 14.5 -79t70.5 -30t82 30t42 79t-15 79t-71 30t-81.5 -30t-41.5 -79z" />
    <glyph glyph-name="r" unicode="r" horiz-adv-x="380" 
d="M92 500h166l-17 -94q23 51 67.5 77.5t101.5 26.5l-31 -184q-6 1 -12.5 1.5t-12.5 0.5q-59 0 -98 -31t-49 -90l2 16l-39 -223h-166z" />
    <glyph glyph-name="s" unicode="s" horiz-adv-x="473" 
d="M136 180q22 -57 83 -57q43 0 48 24q3 15 -21.5 25.5t-60.5 20.5q-26 7 -52.5 18.5t-47 31t-31 49t-2.5 71.5q7 39 28 67.5t50 47t64.5 27.5t72.5 9q69 0 121.5 -28.5t76.5 -82.5l-141 -68q-18 46 -62 46q-15 0 -27.5 -5t-16.5 -22q-3 -14 6.5 -21.5t26.5 -13t39 -10.5
t44 -14q23 -7 44 -18.5t35.5 -30.5t20.5 -46t-1 -65q-8 -42 -29.5 -70.5t-52 -46t-67 -25t-74.5 -7.5q-166 0 -220 123z" />
    <glyph glyph-name="t" unicode="t" horiz-adv-x="394" 
d="M29 341l28 159h75l16 90l175 50l-25 -140h105l-29 -159h-104l-25 -145q-5 -28 8.5 -37.5t49.5 -9.5h17.5t20.5 1l-26 -150q-20 -3 -38.5 -4t-35.5 -1q-101 0 -140.5 48.5t-22.5 148.5l26 149h-75z" />
    <glyph glyph-name="u" unicode="u" horiz-adv-x="578" 
d="M183 -14q-41 0 -72.5 14.5t-52 42t-28 67.5t1.5 91l53 299h166l-49 -278q-6 -40 11 -59.5t51 -19.5q38 0 63.5 23t33.5 68v-1l47 267h166l-88 -500h-166l9 51q-57 -65 -146 -65z" />
    <glyph glyph-name="v" unicode="v" horiz-adv-x="533" 
d="M44 500h169l41 -284l140 284h183l-270 -500h-169z" />
    <glyph glyph-name="w" unicode="w" horiz-adv-x="790" 
d="M220 500l23 -272l118 272h145l29 -267l112 267h181l-241 -500h-162l-27 251l-109 -251h-170l-65 500h166z" />
    <glyph glyph-name="x" unicode="x" horiz-adv-x="549" 
d="M-44 0l228 260l-133 240h176l65 -117l102 117h192l-220 -250l139 -250h-176l-71 127l-111 -127h-191z" />
    <glyph glyph-name="y" unicode="y" horiz-adv-x="549" 
d="M25 -44q27 0 46.5 3t34.5 10.5t26.5 20t23.5 30.5l-112 480h176l52 -289l130 289h191l-254 -485q-60 -115 -134.5 -165.5t-172.5 -50.5h-17t-18 1z" />
    <glyph glyph-name="z" unicode="z" horiz-adv-x="455" 
d="M469 500l-20 -114l-212 -232h181l-27 -154h-410l21 114l211 232h-161l27 154h390z" />
    <glyph glyph-name="braceleft" unicode="{" horiz-adv-x="363" 
d="M108 222q5 27 -7 39t-39 12h-8t-9 -1l28 159q5 -1 10 -1h10q26 0 41 11t20 40l24 134q18 100 73 148t156 48h16.5t17.5 -1l-27 -154q-5 1 -9 1h-8q-47 0 -53 -42l-24 -134q-9 -52 -30 -81t-60 -48q61 -37 44 -130l-23 -134q-3 -23 6 -32.5t32 -9.5h8.5t9.5 1l-28 -154
q-6 0 -12 -0.5t-11 -0.5q-99 0 -144 52.5t-28 143.5l24 134v0z" />
    <glyph glyph-name="bar" unicode="|" horiz-adv-x="277" 
d="M-24 -200l162 920h167l-162 -920h-167z" />
    <glyph glyph-name="braceright" unicode="}" horiz-adv-x="363" 
d="M220 87q-18 -100 -73 -148t-156 -48h-16.5t-17.5 1l27 154q5 -1 9 -1h8q47 0 53 42l24 134q9 52 30 81t60 48q-61 37 -44 130l23 134q3 23 -6 32.5t-32 9.5h-8.5t-9.5 -1l28 154q6 0 12 0.5t11 0.5q99 0 144 -52.5t28 -143.5l-24 -134q-5 -27 7 -39t39 -12h8t9 1
l-28 -159q-5 1 -10 1h-10q-26 0 -41 -11t-20 -40l-24 -134v0z" />
    <glyph glyph-name="asciitilde" unicode="~" horiz-adv-x="606" 
d="M43 296q29 84 80 125t111 41q43 0 87 -21q60 -30 93 -30q23 0 37.5 16t24.5 34l121 -61q-29 -84 -80.5 -125t-111.5 -41q-43 0 -85 21q-31 16 -54 23t-39 7q-23 0 -37.5 -15.5t-25.5 -34.5z" />
    <glyph glyph-name="exclamdown" unicode="&#xa1;" horiz-adv-x="294" 
d="M-34 -200l35 200l76 245h138l-10 -245l-35 -200h-204zM157 306q-21 0 -39 8.5t-29.5 23t-16.5 34t-1 40.5q8 45 41.5 73.5t81.5 28.5q21 0 38.5 -8.5t29.5 -22.5t16.5 -33.5t0.5 -41.5q-4 -21 -15 -40t-27.5 -32.5t-37 -21.5t-42.5 -8z" />
    <glyph glyph-name="cent" unicode="&#xa2;" horiz-adv-x="532" 
d="M156 113q-65 33 -96 99t-17 148q9 55 35.5 102t66 80.5t90 52.5t106.5 19q33 0 60 -6l46 92h65l-55 -112q66 -33 99 -105l-151 -79q-11 21 -24 31l-93 -187h2q58 0 93 50l132 -84q-38 -63 -100.5 -95.5t-137.5 -32.5q-31 0 -66 7l-46 -93h-65zM209 351q-9 -54 24 -83
l91 184q-43 -1 -75.5 -28.5t-39.5 -72.5z" />
    <glyph glyph-name="sterling" unicode="&#xa3;" horiz-adv-x="575" 
d="M12 173h62l17 99h-51l25 140h51l14 79q20 114 89 169t167 55q164 0 223 -156l-162 -82q-22 67 -75 67q-55 0 -65 -58l-13 -74h190l-25 -140h-189l-18 -99h304l-30 -173h-545z" />
    <glyph glyph-name="currency" unicode="&#xa4;" horiz-adv-x="533" 
d="M10 153l82 69q-36 58 -23 131q14 74 65 128l-56 68l46 40l58 -70q64 41 137 41q68 0 118 -38l81 69l40 -45l-81 -68q36 -58 23 -131q-14 -74 -65 -128l56 -68l-48 -39l-56 68q-61 -40 -136 -40q-72 0 -120 39l-82 -70zM229 350q-5 -26 7.5 -41t38.5 -15q25 0 43 15t23 41
q4 26 -8.5 41t-38.5 15q-25 0 -42.5 -15t-22.5 -41z" />
    <glyph glyph-name="yen" unicode="&#xa5;" horiz-adv-x="631" 
d="M71 237h153l7 41h-153l17 94h114l-130 328h190l75 -225l154 225h212l-245 -328h114l-17 -94h-152l-7 -41h152l-16 -93h-153l-25 -144h-179l25 144h-152z" />
    <glyph glyph-name="brokenbar" unicode="&#xa6;" horiz-adv-x="277" 
d="M73 350l65 370h167l-65 -370h-167zM-24 -200l65 370h167l-65 -370h-167z" />
    <glyph glyph-name="section" unicode="&#xa7;" horiz-adv-x="549" 
d="M223 -112q-165 0 -216 125l142 74q28 -61 89 -61q52 0 57 33q2 11 -3 19.5t-20 16.5q-7 4 -13.5 8t-12.5 6t-16 6t-20.5 8.5t-20.5 9t-16 7.5q-30 14 -55 33t-41.5 42.5t-23 52.5t-0.5 64q13 76 80 117q-21 43 -10 103q8 43 28 73.5t49.5 50.5t66 29.5t77.5 9.5
q149 0 204 -130l-139 -64q-26 59 -73 59q-43 0 -47 -33q-2 -13 4.5 -22t18.5 -18q7 -5 20 -11t23 -11q10 -4 27 -10.5t28 -11.5q29 -14 53 -31.5t40 -40.5t22.5 -51t0.5 -61q-14 -74 -79 -119q26 -44 15 -107q-8 -42 -29 -73t-52 -51.5t-71.5 -30.5t-86.5 -10zM218 328
q-4 -21 10.5 -33.5t46.5 -26.5q7 -3 28 -11t34 -14q19 13 23 35q0 13 -3.5 21t-10 14t-17.5 11t-27 11l-64 26q-15 -10 -20 -33z" />
    <glyph glyph-name="dieresis" unicode="&#xa8;" horiz-adv-x="369" 
d="M98 558q-16 17 -15.5 40.5t12.5 45t33 36.5t46 15h4q32 0 51.5 -23.5t13.5 -56.5q-2 -18 -11 -32.5t-22.5 -25t-30 -16.5t-32.5 -6q-14 0 -27.5 5.5t-21.5 17.5zM344 535q-32 0 -51.5 23.5t-13.5 56.5q1 17 10.5 32t23 25.5t30 16.5t32.5 6q14 0 27.5 -5.5t21.5 -18.5
q16 -17 15.5 -40t-12.5 -44.5t-33 -36.5t-46 -15h-4z" />
    <glyph glyph-name="copyright" unicode="&#xa9;" horiz-adv-x="779" 
d="M624 89q-60 -53 -127 -77t-147 -24q-71 0 -133 31t-104.5 82t-61.5 118t-4 139q12 75 49.5 139.5t92 112t123.5 75t146 27.5q149 0 242 -111t68 -259q-25 -149 -144 -253zM91 355q-24 -132 56 -230q79 -96 211 -96q68 0 129.5 24.5t110 67t82 100.5t44.5 124
q23 134 -58 229q-82 97 -210 97q-68 0 -129 -25t-110 -67.5t-82 -100t-44 -123.5zM244 215q-46 62 -32 145q7 41 26.5 75.5t48.5 59t66 38.5t78 14q51 0 93 -27.5t67 -72.5l-125 -65q-12 29 -48 29q-27 0 -47 -18t-24 -43q-5 -24 8 -42.5t39 -18.5q35 0 59 30l111 -70
q-32 -46 -81 -71t-103 -25q-89 0 -136 62z" />
    <glyph glyph-name="guillemotleft" unicode="&#xab;" horiz-adv-x="569" 
d="M206 504h145l-144 -200l74 -190h-139l-77 195zM413 504h146l-149 -206l73 -184h-139l-75 190z" />
    <glyph glyph-name="logicalnot" unicode="&#xac;" horiz-adv-x="569" 
d="M566 429l-49 -278h-169l21 120h-330l28 158h499z" />
    <glyph glyph-name="registered" unicode="&#xae;" horiz-adv-x="779" 
d="M624 89q-60 -53 -127 -77t-147 -24q-71 0 -133 31t-104.5 82t-61.5 118t-4 139q12 75 49.5 139.5t92 112t123.5 75t146 27.5q149 0 242 -111t68 -259q-25 -149 -144 -253zM91 355q-24 -132 56 -230q79 -96 211 -96q68 0 129.5 24.5t110 67t82 100.5t44.5 124
q23 134 -58 229q-82 97 -210 97q-68 0 -129 -25t-110 -67.5t-82 -100t-44 -123.5zM226 165l65 370h176q56 0 92 -42q37 -43 27 -99q-14 -72 -67 -106l48 -123h-136l-31 97h-26l-17 -97h-131zM392 367h24q31 0 37 27q5 26 -27 26h-24z" />
    <glyph glyph-name="macron" unicode="&#xaf;" horiz-adv-x="350" 
d="M74 554l22 130h310l-23 -130h-309z" />
    <glyph glyph-name="degree" unicode="&#xb0;" horiz-adv-x="415" 
d="M129 514q-44 54 -30 126q7 38 25 69.5t45 54t61 34.5t73 12q75 0 119 -54q44 -53 31 -126q-7 -38 -25.5 -69t-45.5 -53.5t-61.5 -34.5t-72.5 -12q-75 0 -119 53zM231 635q-3 -20 7 -32.5t30 -12.5t34.5 12.5t17.5 32.5q7 23 -5.5 34t-30.5 11t-34.5 -11t-18.5 -34z" />
    <glyph glyph-name="plusminus" unicode="&#xb1;" horiz-adv-x="560" 
d="M62 371l28 158h160l24 136h158l-24 -136h161l-29 -158h-159l-24 -136h-159l24 136h-160zM0 21l29 159h478l-28 -159h-479z" />
    <glyph glyph-name="acute" unicode="&#xb4;" horiz-adv-x="314" 
d="M175 700h198l-136 -145h-163z" />
    <glyph glyph-name="uni00B5" unicode="&#xb5;" horiz-adv-x="608" 
d="M-31 -200l123 700h166l-49 -276h1q-7 -42 10 -61.5t51 -19.5q77 0 95 82l49 275h166l-56 -321q-5 -30 25 -30h25l-26 -149h-72q-71 0 -106 47q-58 -61 -143 -61q-35 0 -59 10l-34 -196h-166z" />
    <glyph glyph-name="paragraph" unicode="&#xb6;" horiz-adv-x="727" 
d="M98 322q-52 70 -36 163q8 48 32 87.5t59.5 68t79 44t91.5 15.5h446l-27 -160h-67l-130 -740h-158l130 740h-64l-130 -740h-158l79 451q-94 2 -147 71z" />
    <glyph glyph-name="periodcentered" unicode="&#xb7;" horiz-adv-x="289" 
d="M144 246q-21 0 -38.5 8.5t-29.5 22.5t-16.5 33.5t-0.5 41.5q4 21 15 40t27.5 32.5t36.5 21.5t43 8q21 0 38.5 -8.5t29.5 -23t16.5 -34t0.5 -40.5q-8 -45 -41 -73.5t-81 -28.5z" />
    <glyph glyph-name="cedilla" unicode="&#xb8;" horiz-adv-x="274" 
d="M187 -132q-16 -91 -192 -91q-14 0 -28 0.5t-30 1.5l19 109q12 -1 22.5 -1.5t19.5 -0.5q53 0 56 16q3 17 -50 20l14 78h134l-8 -46q53 -25 43 -86z" />
    <glyph glyph-name="guillemotright" unicode="&#xbb;" horiz-adv-x="570" 
d="M383 314l-74 190h139l77 -195l-141 -195h-145zM31 114l149 206l-73 184h139l75 -190l-144 -200h-146z" />
    <glyph glyph-name="onequarter" unicode="&#xbc;" horiz-adv-x="817" 
d="M450 171l152 229h141l-147 -229h39l11 63h121l-11 -63h35l-20 -115h-35l-10 -56h-122l10 56h-184zM585 700h119l-522 -700h-119zM206 700h114l-71 -400h-132l46 256l-81 -20l-11 118z" />
    <glyph glyph-name="onehalf" unicode="&#xbd;" horiz-adv-x="812" 
d="M452 89l168 141q37 32 38 46q4 22 -20 22q-28 0 -56 -45l-100 63q63 98 177 98q61 0 101 -38t28 -101q-6 -32 -26.5 -59t-60.5 -59l-49 -40h111l-20 -117h-306zM63 0l522 700h119l-522 -700h-119zM71 654l135 46h114l-71 -400h-132l46 256l-81 -20z" />
    <glyph glyph-name="threequarters" unicode="&#xbe;" horiz-adv-x="876" 
d="M178 286q-122 0 -152 94l111 59q13 -40 54 -40q33 0 36 26q3 25 -27 25h-29l-33 68l66 66h-123l21 116h286l-16 -87l-78 -79q35 -15 52 -46t10 -71q-23 -131 -178 -131zM509 171l152 229h141l-147 -229h39l11 63h121l-11 -63h35l-20 -115h-35l-10 -56h-122l10 56h-184z
M122 0l522 700h119l-522 -700h-119z" />
    <glyph glyph-name="questiondown" unicode="&#xbf;" horiz-adv-x="548" 
d="M38 -156q-59 59 -42 152q7 37 24 65.5t38.5 50.5t45.5 39t44.5 32t34.5 30t17 32h169q-5 -35 -20.5 -61t-35.5 -46.5t-42 -36t-41.5 -30.5t-33.5 -30.5t-18 -34.5q-5 -22 8 -35t37 -13q66 0 108 83l144 -91q-42 -81 -115.5 -123t-163.5 -42q-97 0 -158 59zM295 306
q-21 0 -39 8.5t-29.5 23t-16.5 34t-1 40.5q8 45 41.5 73.5t81.5 28.5q21 0 38.5 -8.5t29.5 -22.5t16.5 -33.5t0.5 -41.5q-4 -21 -15 -40t-27.5 -32.5t-37 -21.5t-42.5 -8z" />
    <glyph glyph-name="Agrave" unicode="&#xc0;" horiz-adv-x="671" 
d="M305 700h218l108 -700h-191l-11 101h-233l-48 -101h-197zM453 900l61 -145h-154l-95 145h188zM412 255l-26 242l-116 -242h142z" />
    <glyph glyph-name="Aacute" unicode="&#xc1;" horiz-adv-x="671" 
d="M305 700h218l108 -700h-191l-11 101h-233l-48 -101h-197zM435 900h198l-136 -145h-163zM412 255l-26 242l-116 -242h142z" />
    <glyph glyph-name="Acircumflex" unicode="&#xc2;" horiz-adv-x="671" 
d="M-49 0l354 700h218l108 -700h-191l-11 101h-233l-48 -101h-197zM228 745l133 155h167l79 -155h-149l-29 56l-50 -56h-151zM270 255h142l-26 242z" />
    <glyph glyph-name="Atilde" unicode="&#xc3;" horiz-adv-x="671" 
d="M305 700h218l108 -700h-191l-11 101h-233l-48 -101h-197zM244 748q4 44 17 75.5t31.5 51t41 28.5t45.5 9q19 0 37.5 -5.5t35.5 -15.5q11 -6 19 -10t15 -4q8 0 13.5 7t9.5 26h122q-5 -45 -17.5 -76t-31 -50.5t-41 -28t-45.5 -8.5q-40 0 -74 21q-19 14 -31 14
q-20 0 -26 -34h-121zM412 255l-26 242l-116 -242h142z" />
    <glyph glyph-name="Adieresis" unicode="&#xc4;" horiz-adv-x="671" 
d="M-49 0l354 700h218l108 -700h-191l-11 101h-233l-48 -101h-197zM271 758q-16 17 -15.5 40.5t12.5 45t33 36.5t46 15h4q32 0 51.5 -23.5t13.5 -56.5q-2 -18 -11 -32.5t-22.5 -25t-30 -16.5t-32.5 -6q-14 0 -27.5 5.5t-21.5 17.5zM517 735q-32 0 -51.5 23.5t-13.5 56.5
q1 17 10.5 32t23 25.5t30 16.5t32.5 6q14 0 27.5 -5.5t21.5 -18.5q16 -17 15.5 -40t-12.5 -44.5t-33 -36.5t-46 -15h-4zM270 255h142l-26 242z" />
    <glyph glyph-name="Aring" unicode="&#xc5;" horiz-adv-x="671" 
d="M301 691q-22 33 -14 82q4 28 18.5 52t35.5 41t48.5 26.5t58.5 9.5q59 0 95 -40q34 -39 24 -96q-9 -49 -42 -82l106 -684h-191l-11 101h-233l-48 -101h-197zM412 255l-26 242l-116 -242h142zM394 770q-5 -32 27 -32q36 0 40 31q3 14 -4.5 23.5t-24.5 9.5q-15 0 -25.5 -9
t-12.5 -23z" />
    <glyph glyph-name="AE" unicode="&#xc6;" horiz-adv-x="885" 
d="M-49 0l523 700h455l-30 -168h-231l-17 -97h207l-30 -164h-205l-18 -103h235l-29 -168h-410l18 101h-192l-75 -101h-201zM446 255l32 182l-136 -182h104z" />
    <glyph glyph-name="Ccedilla" unicode="&#xc7;" horiz-adv-x="722" 
d="M90 119q-66 101 -43 241q13 78 49.5 143t91 112t124 73.5t148.5 26.5q103 0 175.5 -44.5t110.5 -122.5l-164 -87q-40 79 -139 79q-43 0 -79.5 -14t-65 -39.5t-47.5 -60.5t-26 -76q-15 -82 26 -137q41 -53 120 -53q101 0 164 84l147 -95q-97 -134 -263 -160l-6 -35
q53 -25 43 -86q-15 -91 -192 -91q-14 0 -28 0.5t-30 1.5l19 109q12 -1 22.5 -1.5t19.5 -0.5q53 0 56 16q3 17 -50 20l13 70q-129 25 -196 127z" />
    <glyph glyph-name="Egrave" unicode="&#xc8;" horiz-adv-x="535" 
d="M457 755h-154l-95 145h188zM549 533h-265l-18 -98h242l-30 -164h-240l-18 -103h270l-29 -168h-450l123 700h445z" />
    <glyph glyph-name="Eacute" unicode="&#xc9;" horiz-adv-x="535" 
d="M576 900l-136 -145h-163l101 145h198zM549 533h-265l-18 -98h242l-30 -164h-240l-18 -103h270l-29 -168h-450l123 700h445z" />
    <glyph glyph-name="Ecircumflex" unicode="&#xca;" horiz-adv-x="535" 
d="M11 0l123 700h445l-30 -167h-265l-18 -98h242l-30 -164h-240l-18 -103h270l-29 -168h-450zM304 900h167l79 -155h-149l-29 56l-50 -56h-151z" />
    <glyph glyph-name="Edieresis" unicode="&#xcb;" horiz-adv-x="535" 
d="M134 700h445l-30 -167h-265l-18 -98h242l-30 -164h-240l-18 -103h270l-29 -168h-450zM214 758q-16 17 -15.5 40.5t12.5 45t33 36.5t46 15h4q32 0 51.5 -23.5t13.5 -56.5q-2 -18 -11 -32.5t-22.5 -25t-30 -16.5t-32.5 -6q-14 0 -27.5 5.5t-21.5 17.5zM460 735
q-32 0 -51.5 23.5t-13.5 56.5q1 17 10.5 32t23 25.5t30 16.5t32.5 6q14 0 27.5 -5.5t21.5 -18.5q16 -17 15.5 -40t-12.5 -44.5t-33 -36.5t-46 -15h-4z" />
    <glyph glyph-name="Igrave" unicode="&#xcc;" horiz-adv-x="289" 
d="M170 755l-95 145h188l61 -145h-154zM11 0h179l123 700h-179z" />
    <glyph glyph-name="Iacute" unicode="&#xcd;" horiz-adv-x="289" 
d="M245 900h198l-136 -145h-163zM11 0h179l123 700h-179z" />
    <glyph glyph-name="Icircumflex" unicode="&#xce;" horiz-adv-x="289" 
d="M11 0l123 700h179l-123 -700h-179zM171 900h167l79 -155h-149l-29 56l-50 -56h-151z" />
    <glyph glyph-name="Idieresis" unicode="&#xcf;" horiz-adv-x="289" 
d="M134 700h179l-123 -700h-179zM81 758q-16 17 -15.5 40.5t12.5 45t33 36.5t46 15h4q32 0 51.5 -23.5t13.5 -56.5q-2 -18 -11 -32.5t-22.5 -25t-30 -16.5t-32.5 -6q-14 0 -27.5 5.5t-21.5 17.5zM327 735q-32 0 -51.5 23.5t-13.5 56.5q1 17 10.5 32t23 25.5t30 16.5t32.5 6
q14 0 27.5 -5.5t21.5 -18.5q16 -17 15.5 -40t-12.5 -44.5t-33 -36.5t-46 -15h-4z" />
    <glyph glyph-name="Eth" unicode="&#xd0;" horiz-adv-x="739" 
d="M13 263l28 158h74l49 279h285q139 0 221 -106t57 -254q-13 -75 -48.5 -137.5t-88.5 -107.5t-120.5 -70t-143.5 -25h-285l46 263h-74zM255 173h96q40 0 74 14t60 38t43.5 57t24.5 71q13 79 -24 126.5t-110 47.5h-101l-19 -106h132l-28 -158h-132z" />
    <glyph glyph-name="Ntilde" unicode="&#xd1;" horiz-adv-x="675" 
d="M11 0l123 700h139l182 -366l65 366h178l-123 -700h-138l-182 366l-65 -366h-179zM246 748q4 44 17 75.5t31.5 51t41 28.5t45.5 9q19 0 37.5 -5.5t35.5 -15.5q11 -6 19 -10t15 -4q8 0 13.5 7t9.5 26h122q-5 -45 -17.5 -76t-31 -50.5t-41 -28t-45.5 -8.5q-40 0 -74 21
q-19 14 -31 14q-20 0 -26 -34h-121z" />
    <glyph glyph-name="Ograve" unicode="&#xd2;" horiz-adv-x="790" 
d="M638 87q-62 -56 -132.5 -79t-152.5 -23q-79 0 -142 32t-104.5 84.5t-58 120t-1.5 139.5q13 78 50.5 143.5t93.5 112t126.5 72.5t149.5 26q159 0 247 -112q89 -112 64 -262q-26 -152 -140 -254zM225 350q-15 -84 27 -137t124 -53q41 0 78.5 14.5t67.5 40t50.5 60
t27.5 75.5q14 84 -29 136q-44 54 -125 54q-42 0 -79 -14.5t-66 -40t-49 -60.5t-27 -75zM495 910l61 -145h-154l-95 145h188z" />
    <glyph glyph-name="Oacute" unicode="&#xd3;" horiz-adv-x="790" 
d="M638 87q-62 -56 -132.5 -79t-152.5 -23q-79 0 -142 32t-104.5 84.5t-58 120t-1.5 139.5q13 78 50.5 143.5t93.5 112t126.5 72.5t149.5 26q159 0 247 -112q89 -112 64 -262q-26 -152 -140 -254zM225 350q-15 -84 27 -137t124 -53q41 0 78.5 14.5t67.5 40t50.5 60
t27.5 75.5q14 84 -29 136q-44 54 -125 54q-42 0 -79 -14.5t-66 -40t-49 -60.5t-27 -75zM679 910l-136 -145h-163l101 145h198z" />
    <glyph glyph-name="Ocircumflex" unicode="&#xd4;" horiz-adv-x="790" 
d="M638 87q-62 -56 -132.5 -79t-152.5 -23q-79 0 -142 32t-104.5 84.5t-58 120t-1.5 139.5q13 78 50.5 143.5t93.5 112t126.5 72.5t149.5 26q159 0 247 -112q89 -112 64 -262q-26 -152 -140 -254zM225 350q-15 -84 27 -137t124 -53q41 0 78.5 14.5t67.5 40t50.5 60
t27.5 75.5q14 84 -29 136q-44 54 -125 54q-42 0 -79 -14.5t-66 -40t-49 -60.5t-27 -75zM292 755l133 155h167l79 -155h-149l-29 56l-50 -56h-151z" />
    <glyph glyph-name="Otilde" unicode="&#xd5;" horiz-adv-x="790" 
d="M638 87q-62 -56 -132.5 -79t-152.5 -23q-79 0 -142 32t-104.5 84.5t-58 120t-1.5 139.5q13 78 50.5 143.5t93.5 112t126.5 72.5t149.5 26q159 0 247 -112q89 -112 64 -262q-26 -152 -140 -254zM225 350q-15 -84 27 -137t124 -53q41 0 78.5 14.5t67.5 40t50.5 60
t27.5 75.5q14 84 -29 136q-44 54 -125 54q-42 0 -79 -14.5t-66 -40t-49 -60.5t-27 -75zM290 758q4 44 17 75.5t31.5 51t41 28.5t45.5 9q19 0 37.5 -5.5t35.5 -15.5q11 -6 19 -10t15 -4q8 0 13.5 7t9.5 26h122q-5 -45 -17.5 -76t-31 -50.5t-41 -28t-45.5 -8.5q-40 0 -74 21
q-19 14 -31 14q-20 0 -26 -34h-121z" />
    <glyph glyph-name="Odieresis" unicode="&#xd6;" horiz-adv-x="790" 
d="M638 87q-62 -56 -132.5 -79t-152.5 -23q-79 0 -142 32t-104.5 84.5t-58 120t-1.5 139.5q13 78 50.5 143.5t93.5 112t126.5 72.5t149.5 26q159 0 247 -112q89 -112 64 -262q-26 -152 -140 -254zM225 350q-15 -84 27 -137t124 -53q80 0 145 53t79 137t-29 136
q-44 54 -125 54q-42 0 -79 -14.5t-66 -40t-49 -60.5t-27 -75zM333 768q-16 17 -15.5 40.5t12.5 45t33 36.5t46 15h4q32 0 51.5 -23.5t13.5 -56.5q-2 -18 -11 -32.5t-22.5 -25t-30 -16.5t-32.5 -6q-14 0 -27.5 5.5t-21.5 17.5zM579 745q-32 0 -51.5 23.5t-13.5 56.5
q1 17 10.5 32t23 25.5t30 16.5t32.5 6q14 0 27.5 -5.5t21.5 -18.5q16 -17 15.5 -40t-12.5 -44.5t-33 -36.5t-46 -15h-4z" />
    <glyph glyph-name="multiply" unicode="&#xd7;" horiz-adv-x="538" 
d="M536 466l-137 -119l96 -113l-124 -112l-99 116l-134 -116l-100 112l137 119l-96 113l124 112l98 -116l134 116z" />
    <glyph glyph-name="Oslash" unicode="&#xd8;" horiz-adv-x="795" 
d="M108 108q-81 108 -56 253q14 78 51.5 143.5t93 112t125.5 72.5t150 26q104 0 184 -53l53 53l73 -46l-63 -64q90 -110 64 -264q-26 -152 -140 -254q-113 -102 -278 -102q-116 0 -198 63l-62 -63l-73 46zM298 180q35 -20 83 -20q41 0 78.5 14.5t67.5 40t50.5 60t27.5 75.5
q13 70 -18 122zM230 350q-10 -60 10 -108l282 284q-34 14 -71 14q-42 0 -79 -14.5t-66 -40t-49 -60.5t-27 -75z" />
    <glyph glyph-name="Ugrave" unicode="&#xd9;" horiz-adv-x="645" 
d="M92 54q-70 69 -50 176l83 470h179l-80 -453q-15 -88 83 -88t114 88l79 453h179l-83 -470q-11 -60 -37.5 -106t-66.5 -76.5t-91.5 -46.5t-110.5 -16q-128 0 -198 69zM431 900l61 -145h-154l-95 145h188z" />
    <glyph glyph-name="Uacute" unicode="&#xda;" horiz-adv-x="645" 
d="M92 54q-70 69 -50 176l83 470h179l-80 -453q-15 -88 83 -88t114 88l79 453h179l-83 -470q-11 -60 -37.5 -106t-66.5 -76.5t-91.5 -46.5t-110.5 -16q-128 0 -198 69zM631 900l-136 -145h-163l101 145h198z" />
    <glyph glyph-name="Ucircumflex" unicode="&#xdb;" horiz-adv-x="645" 
d="M92 54q-70 69 -50 176l83 470h179l-80 -453q-15 -88 83 -88t114 88l79 453h179l-83 -470q-11 -60 -37.5 -106t-66.5 -76.5t-91.5 -46.5t-110.5 -16q-128 0 -198 69zM216 745l133 155h167l79 -155h-149l-29 56l-50 -56h-151z" />
    <glyph glyph-name="Udieresis" unicode="&#xdc;" horiz-adv-x="645" 
d="M92 54q-70 69 -50 176l83 470h179l-80 -453q-15 -88 83 -88t114 88l79 453h179l-83 -470q-11 -60 -37.5 -106t-66.5 -76.5t-91.5 -46.5t-110.5 -16q-128 0 -198 69zM259 758q-16 17 -15.5 40.5t12.5 45t33 36.5t46 15h4q32 0 51.5 -23.5t13.5 -56.5q-2 -18 -11 -32.5
t-22.5 -25t-30 -16.5t-32.5 -6q-14 0 -27.5 5.5t-21.5 17.5zM505 735q-32 0 -51.5 23.5t-13.5 56.5q1 17 10.5 32t23 25.5t30 16.5t32.5 6q14 0 27.5 -5.5t21.5 -18.5q16 -17 15.5 -40t-12.5 -44.5t-33 -36.5t-46 -15h-4z" />
    <glyph glyph-name="Yacute" unicode="&#xdd;" horiz-adv-x="631" 
d="M79 700h190l75 -225l154 225h212l-295 -395l-54 -305h-179l54 305zM422 900h198l-136 -145h-163z" />
    <glyph glyph-name="Thorn" unicode="&#xde;" horiz-adv-x="592" 
d="M135 700h178l-18 -104h85q105 0 167 -72q62 -73 46 -184q-8 -58 -34 -102t-64.5 -73.5t-88 -44.5t-105.5 -15h-93l-18 -105h-179zM238 276h88q35 0 59 20t30 54q6 35 -11.5 55t-53.5 20h-85z" />
    <glyph glyph-name="germandbls" unicode="&#xdf;" horiz-adv-x="552" 
d="M94 508q34 207 256 207q92 0 148 -54q54 -53 44 -123q-6 -39 -38 -83q-16 -22 -24.5 -37.5t-10.5 -24.5q-5 -18 6 -45t24 -60t22 -70t2 -75q-6 -32 -20 -60t-39.5 -49t-63 -33t-90.5 -12q-36 0 -81 6l25 148q19 -3 36 -3q65 0 73 47q6 29 -31 102q-19 37 -26 62t-5 39
q4 25 33 66q30 42 34 61q5 24 -7 37.5t-36 13.5q-54 0 -65 -59l-90 -509h-166z" />
    <glyph glyph-name="agrave" unicode="&#xe0;" 
d="M59 67q-51 81 -33 190q9 52 31.5 98.5t57 81.5t80.5 56t102 21q96 0 138 -69l10 55h166l-88 -500h-166l7 39q-59 -53 -146 -53q-107 0 -159 81zM192 250q-7 -49 15 -79t70 -30t81.5 29t42.5 77v3q8 49 -15 79t-71 30q-49 0 -82 -30.5t-41 -78.5zM363 700l61 -145h-154
l-95 145h188z" />
    <glyph glyph-name="aacute" unicode="&#xe1;" 
d="M59 67q-51 81 -33 190q9 52 31.5 98.5t57 81.5t80.5 56t102 21q96 0 138 -69l10 55h166l-88 -500h-166l7 39q-59 -53 -146 -53q-107 0 -159 81zM192 250q-7 -49 15 -79t70 -30t81.5 29t42.5 77v3q8 49 -15 79t-71 30q-49 0 -82 -30.5t-41 -78.5zM360 700h198l-136 -145
h-163z" />
    <glyph glyph-name="acircumflex" unicode="&#xe2;" 
d="M59 67q-51 81 -33 190q9 52 31.5 98.5t57 81.5t80.5 56t102 21q96 0 138 -69l10 55h166l-88 -500h-166l7 39q-59 -53 -146 -53q-107 0 -159 81zM303 700h167l79 -155h-149l-29 56l-50 -56h-151zM192 250q-7 -49 15 -79t70 -30t81.5 29t42.5 77v3q8 49 -15 79t-71 30
q-49 0 -82 -30.5t-41 -78.5z" />
    <glyph glyph-name="atilde" unicode="&#xe3;" 
d="M59 67q-51 81 -33 190q9 52 31.5 98.5t57 81.5t80.5 56t102 21q96 0 138 -69l10 55h166l-88 -500h-166l7 39q-59 -53 -146 -53q-107 0 -159 81zM189 548q4 44 17 75.5t31.5 51t41 28.5t45.5 9q19 0 37.5 -5.5t35.5 -15.5q11 -6 19 -10t15 -4q8 0 13.5 7t9.5 26h122
q-5 -45 -17.5 -76t-31 -50.5t-41 -28t-45.5 -8.5q-40 0 -74 21q-19 14 -31 14q-20 0 -26 -34h-121zM192 250q-7 -49 15 -79t70 -30t81.5 29t42.5 77v3q8 49 -15 79t-71 30q-49 0 -82 -30.5t-41 -78.5z" />
    <glyph glyph-name="adieresis" unicode="&#xe4;" 
d="M59 67q-51 81 -33 190q9 52 31.5 98.5t57 81.5t80.5 56t102 21q96 0 138 -69l10 55h166l-88 -500h-166l7 39q-59 -53 -146 -53q-107 0 -159 81zM192 250q-7 -49 15 -79t70 -30t81.5 29t42.5 77v3q8 49 -15 79t-71 30q-49 0 -82 -30.5t-41 -78.5zM199 558
q-16 17 -15.5 40.5t12.5 45t33 36.5t46 15h4q32 0 51.5 -23.5t13.5 -56.5q-2 -18 -11 -32.5t-22.5 -25t-30 -16.5t-32.5 -6q-14 0 -27.5 5.5t-21.5 17.5zM445 535q-32 0 -51.5 23.5t-13.5 56.5q1 17 10.5 32t23 25.5t30 16.5t32.5 6q14 0 27.5 -5.5t21.5 -18.5
q16 -17 15.5 -40t-12.5 -44.5t-33 -36.5t-46 -15h-4z" />
    <glyph glyph-name="aring" unicode="&#xe5;" 
d="M59 67q-51 81 -33 190q9 52 31.5 98.5t57 81.5t80.5 56t102 21q96 0 138 -69l10 55h166l-88 -500h-166l7 39q-59 -53 -146 -53q-107 0 -159 81zM255 572q-35 39 -24 96t54.5 93t106.5 36q59 0 95 -40q34 -39 24 -96q-11 -57 -54 -92.5t-107 -35.5q-61 0 -95 39zM192 250
q-7 -49 15 -79t70 -30t81.5 29t42.5 77v3q8 49 -15 79t-71 30q-49 0 -82 -30.5t-41 -78.5zM338 665q-5 -32 27 -32q36 0 40 31q3 14 -4.5 23.5t-24.5 9.5q-15 0 -25.5 -9t-12.5 -23z" />
    <glyph glyph-name="ae" unicode="&#xe6;" horiz-adv-x="945" 
d="M221 -14q-57 0 -98.5 23.5t-66.5 62t-32.5 87.5t2.5 99q8 53 32 99.5t60 81.5t83.5 55t102.5 20q90 0 133 -58l8 44h151l-6 -34q61 48 145 48q102 0 153 -76q52 -77 34 -187q-8 -36 -18 -62h-343q13 -61 97 -61q60 0 99 36l106 -97q-87 -81 -189 -81q-108 0 -157 63
l-9 -49h-151l7 42q-62 -56 -143 -56zM191 250q-8 -49 15 -78t71 -29q46 0 80.5 28.5t43.5 76.5v2q8 49 -15 78t-71 29t-82 -29.5t-42 -77.5zM771 305q-5 69 -79 69q-75 0 -111 -69h190z" />
    <glyph glyph-name="ccedilla" unicode="&#xe7;" horiz-adv-x="532" 
d="M54 91q-43 73 -28 169q9 55 35.5 102t66 80.5t90 52.5t106.5 19q79 0 133.5 -35.5t81.5 -95.5l-151 -79q-23 48 -78 48q-45 0 -78 -28t-40 -73q-8 -45 15.5 -74t65.5 -29q58 0 93 50l132 -84q-58 -100 -179 -123l-7 -37q53 -25 43 -86q-15 -91 -192 -91q-14 0 -28 0.5
t-30 1.5l19 109q12 -1 22.5 -1.5t19.5 -0.5q53 0 56 16q3 17 -50 20l13 74q-87 23 -131 95z" />
    <glyph glyph-name="egrave" unicode="&#xe8;" horiz-adv-x="568" 
d="M72 65q-65 81 -46 195q9 55 35.5 102t66 80.5t90 52.5t106.5 19q112 0 177 -77q66 -78 44 -186q-3 -15 -6.5 -30.5t-10.5 -31.5h-343q13 -61 96 -61q60 0 99 36l106 -97q-87 -81 -218 -81q-130 0 -196 79zM348 707l61 -145h-154l-95 145h188zM315 374q-74 0 -110 -69h189
q-5 69 -79 69z" />
    <glyph glyph-name="eacute" unicode="&#xe9;" horiz-adv-x="568" 
d="M72 65q-65 81 -46 195q9 55 35.5 102t66 80.5t90 52.5t106.5 19q112 0 177 -77q66 -78 44 -186q-3 -15 -6.5 -30.5t-10.5 -31.5h-343q13 -61 96 -61q60 0 99 36l106 -97q-87 -81 -218 -81q-130 0 -196 79zM350 707h198l-136 -145h-163zM315 374q-74 0 -110 -69h189
q-5 69 -79 69z" />
    <glyph glyph-name="ecircumflex" unicode="&#xea;" horiz-adv-x="568" 
d="M72 65q-65 81 -46 195q9 55 35.5 102t66 80.5t90 52.5t106.5 19q112 0 177 -77q66 -78 44 -186q-3 -15 -6.5 -30.5t-10.5 -31.5h-343q13 -61 96 -61q60 0 99 36l106 -97q-87 -81 -218 -81q-130 0 -196 79zM153 552l133 155h167l79 -155h-149l-29 56l-50 -56h-151z
M315 374q-74 0 -110 -69h189q-5 69 -79 69z" />
    <glyph glyph-name="edieresis" unicode="&#xeb;" horiz-adv-x="568" 
d="M72 65q-65 81 -46 195q9 55 35.5 102t66 80.5t90 52.5t106.5 19q112 0 177 -77q66 -78 44 -186q-3 -15 -6.5 -30.5t-10.5 -31.5h-343q13 -61 96 -61q60 0 99 36l106 -97q-87 -81 -218 -81q-130 0 -196 79zM196 565q-16 17 -15.5 40.5t12.5 45t33 36.5t46 15h4
q32 0 51.5 -23.5t13.5 -56.5q-2 -18 -11 -32.5t-22.5 -25t-30 -16.5t-32.5 -6q-14 0 -27.5 5.5t-21.5 17.5zM442 542q-32 0 -51.5 23.5t-13.5 56.5q1 17 10.5 32t23 25.5t30 16.5t32.5 6q14 0 27.5 -5.5t21.5 -18.5q16 -17 15.5 -40t-12.5 -44.5t-33 -36.5t-46 -15h-4z
M315 374q-74 0 -110 -69h189q-5 69 -79 69z" />
    <glyph glyph-name="igrave" unicode="&#xec;" horiz-adv-x="262" 
d="M107 550l-47 150h181l21 -150h-155zM258 500h-166l-88 -500h166z" />
    <glyph glyph-name="iacute" unicode="&#xed;" horiz-adv-x="262" 
d="M167 700h189l-97 -150h-158zM170 0l88 500h-166l-88 -500h166z" />
    <glyph glyph-name="icircumflex" unicode="&#xee;" horiz-adv-x="262" 
d="M4 0l88 500h166l-88 -500h-166zM127 700h166l65 -155h-141l-22 48l-37 -48h-150z" />
    <glyph glyph-name="idieresis" unicode="&#xef;" horiz-adv-x="262" 
d="M4 0l88 500h166l-88 -500h-166zM272 543q-31 0 -50 22.5t-14 54.5q3 16 11.5 30t21 24.5t28 16.5t30.5 6q31 0 50 -22.5t14 -54.5q-3 -16 -11.5 -30t-21 -24.5t-28 -16.5t-30.5 -6zM93 543q-32 0 -50.5 23t-12.5 54q3 15 11.5 29t20.5 24.5t27 17t31 6.5q32 0 51 -22.5
t13 -54.5t-32.5 -54.5t-58.5 -22.5z" />
    <glyph glyph-name="eth" unicode="&#xf0;" horiz-adv-x="566" 
d="M69 56q-67 70 -47 184q7 45 29.5 83.5t55.5 67t74.5 45.5t86.5 19l-29 55l-141 -50l21 121l68 24l-51 95h180l23 -40l145 52l-21 -122l-69 -25l115 -200q41 -68 27 -145q-10 -55 -35.5 -98.5t-63 -73.5t-86 -46t-103.5 -16q-112 0 -179 70zM187 228q-7 -42 13.5 -66
t62.5 -24t71.5 24t35.5 66q5 30 -7 52q-22 34 -69 34q-42 0 -71 -23t-36 -63z" />
    <glyph glyph-name="ntilde" unicode="&#xf1;" horiz-adv-x="578" 
d="M4 0l88 500h166l-9 -51q57 65 146 65q40 0 72 -14.5t52.5 -42t28 -67.5t-1.5 -91l-53 -299h-166l49 278q6 40 -11 59.5t-51 19.5q-38 0 -63.5 -23t-33.5 -68v1l-47 -267h-166zM161 558q4 44 17 75.5t31.5 51t41 28.5t45.5 9q19 0 37.5 -5.5t35.5 -15.5q11 -6 19 -10
t15 -4q8 0 13.5 7t9.5 26h122q-5 -45 -17.5 -76t-31 -50.5t-41 -28t-45.5 -8.5q-40 0 -74 21q-19 14 -31 14q-20 0 -26 -34h-121z" />
    <glyph glyph-name="ograve" unicode="&#xf2;" horiz-adv-x="583" 
d="M258 -14q-65 0 -113.5 25t-78.5 65t-40 90t1 100q19 103 100 176q81 72 202 72q120 0 183 -86t44 -192q-10 -54 -37 -100t-66.5 -79.5t-89.5 -52t-105 -18.5zM191 250q-8 -46 14.5 -75t65.5 -29q45 0 77.5 29t40.5 75t-14 75t-67 29q-43 0 -76 -29t-41 -75zM418 565h-154
l-95 145h188z" />
    <glyph glyph-name="oacute" unicode="&#xf3;" horiz-adv-x="583" 
d="M258 -14q-65 0 -113.5 25t-78.5 65t-40 90t1 100q10 56 37.5 102t67 78.5t90 50t107.5 17.5q120 0 183 -86t44 -192q-10 -54 -37 -100t-66.5 -79.5t-89.5 -52t-105 -18.5zM191 250q-8 -46 14.5 -75t65.5 -29q45 0 77.5 29t40.5 75t-14 75t-67 29q-43 0 -76 -29t-41 -75z
M341 710h198l-136 -145h-163z" />
    <glyph glyph-name="ocircumflex" unicode="&#xf4;" horiz-adv-x="583" 
d="M258 -14q-65 0 -113.5 25t-78.5 65t-40 90t1 100q10 56 37.5 102t67 78.5t90 50t107.5 17.5q120 0 183 -86t44 -192q-10 -54 -37 -100t-66.5 -79.5t-89.5 -52t-105 -18.5zM294 710h167l79 -155h-149l-29 56l-50 -56h-151zM191 250q-8 -46 14.5 -75t65.5 -29q45 0 77.5 29
t40.5 75t-14 75t-67 29q-43 0 -76 -29t-41 -75z" />
    <glyph glyph-name="otilde" unicode="&#xf5;" horiz-adv-x="583" 
d="M258 -14q-65 0 -113.5 25t-78.5 65t-40 90t1 100q10 56 37.5 102t67 78.5t90 50t107.5 17.5q120 0 183 -86t44 -192q-10 -54 -37 -100t-66.5 -79.5t-89.5 -52t-105 -18.5zM148 558q4 44 17 75.5t31.5 51t41 28.5t45.5 9q19 0 37.5 -5.5t35.5 -15.5q11 -6 19 -10t15 -4
q8 0 13.5 7t9.5 26h122q-5 -45 -17.5 -76t-31 -50.5t-41 -28t-45.5 -8.5q-40 0 -74 21q-19 14 -31 14q-20 0 -26 -34h-121zM191 250q-8 -46 14.5 -75t65.5 -29q45 0 77.5 29t40.5 75t-14 75t-67 29q-43 0 -76 -29t-41 -75z" />
    <glyph glyph-name="odieresis" unicode="&#xf6;" horiz-adv-x="583" 
d="M258 -14q-65 0 -113.5 25t-78.5 65t-40 90t1 100q10 56 37.5 102t67 78.5t90 50t107.5 17.5q120 0 183 -86t44 -192q-10 -54 -37 -100t-66.5 -79.5t-89.5 -52t-105 -18.5zM191 250q-8 -46 14.5 -75t65.5 -29q45 0 77.5 29t40.5 75t-14 75t-67 29q-43 0 -76 -29t-41 -75z
M194 568q-16 17 -15.5 40.5t12.5 45t33 36.5t46 15h4q32 0 51.5 -23.5t13.5 -56.5q-2 -18 -11 -32.5t-22.5 -25t-30 -16.5t-32.5 -6q-14 0 -27.5 5.5t-21.5 17.5zM440 545q-32 0 -51.5 23.5t-13.5 56.5q1 17 10.5 32t23 25.5t30 16.5t32.5 6q14 0 27.5 -5.5t21.5 -18.5
q16 -17 15.5 -40t-12.5 -44.5t-33 -36.5t-46 -15h-4z" />
    <glyph glyph-name="divide" unicode="&#xf7;" horiz-adv-x="551" 
d="M39 271l28 158h480l-28 -158h-480zM242 51q-20 0 -36 7.5t-27 21t-15.5 31t-1.5 37.5q7 40 38.5 66.5t71.5 26.5q20 0 36 -7.5t27 -21t15.5 -31t1.5 -37.5q-8 -42 -39 -67.5t-71 -25.5zM314 459q-20 0 -36 7.5t-27 21t-15.5 31t-1.5 37.5q8 42 39 67.5t71 25.5
q20 0 36.5 -7.5t27 -21t15 -31t0.5 -37.5q-7 -40 -37 -66.5t-72 -26.5z" />
    <glyph glyph-name="oslash" unicode="&#xf8;" horiz-adv-x="583" 
d="M69 72q-63 83 -42 194q10 56 37.5 102t67 78.5t90 50t107.5 17.5q75 0 134 -39l36 37l63 -35l-49 -50q62 -83 43 -191q-18 -102 -99 -177q-79 -73 -199 -73q-81 0 -139 39l-36 -37l-63 34zM242 151q18 -5 31 -5q45 0 77.5 29t40.5 75q4 27 -2 50zM193 250q-5 -32 2 -49
l145 149q-16 4 -30 4q-45 0 -77 -29t-40 -75z" />
    <glyph glyph-name="ugrave" unicode="&#xf9;" horiz-adv-x="578" 
d="M183 -14q-41 0 -72.5 14.5t-52 42t-28 67.5t1.5 91l53 299h166l-49 -278q-6 -40 11 -59.5t51 -19.5q38 0 63.5 23t33.5 68v-1l47 267h166l-88 -500h-166l9 51q-57 -65 -146 -65zM166 700h188l61 -145h-154z" />
    <glyph glyph-name="uacute" unicode="&#xfa;" horiz-adv-x="578" 
d="M183 -14q-41 0 -72.5 14.5t-52 42t-28 67.5t1.5 91l53 299h166l-49 -278q-6 -40 11 -59.5t51 -19.5q38 0 63.5 23t33.5 68v-1l47 267h166l-88 -500h-166l9 51q-57 -65 -146 -65zM354 700h198l-136 -145h-163z" />
    <glyph glyph-name="ucircumflex" unicode="&#xfb;" horiz-adv-x="578" 
d="M183 -14q-41 0 -72.5 14.5t-52 42t-28 67.5t1.5 91l53 299h166l-49 -278q-6 -40 11 -59.5t51 -19.5q38 0 63.5 23t33.5 68v-1l47 267h166l-88 -500h-166l9 51q-57 -65 -146 -65zM139 545l133 155h167l79 -155h-149l-29 56l-50 -56h-151z" />
    <glyph glyph-name="udieresis" unicode="&#xfc;" horiz-adv-x="578" 
d="M183 -14q-41 0 -72.5 14.5t-52 42t-28 67.5t1.5 91l53 299h166l-49 -278q-6 -40 11 -59.5t51 -19.5q38 0 63.5 23t33.5 68v-1l47 267h166l-88 -500h-166l9 51q-57 -65 -146 -65zM182 558q-16 17 -15.5 40.5t12.5 45t33 36.5t46 15h4q32 0 51.5 -23.5t13.5 -56.5
q-2 -18 -11 -32.5t-22.5 -25t-30 -16.5t-32.5 -6q-14 0 -27.5 5.5t-21.5 17.5zM428 535q-32 0 -51.5 23.5t-13.5 56.5q1 17 10.5 32t23 25.5t30 16.5t32.5 6q14 0 27.5 -5.5t21.5 -18.5q16 -17 15.5 -40t-12.5 -44.5t-33 -36.5t-46 -15h-4z" />
    <glyph glyph-name="yacute" unicode="&#xfd;" horiz-adv-x="549" 
d="M25 -44q27 0 46.5 3t34.5 10.5t26.5 20t23.5 30.5l-112 480h176l52 -289l130 289h191l-254 -485q-60 -115 -134.5 -165.5t-172.5 -50.5h-17t-18 1zM232 555l101 145h198l-136 -145h-163z" />
    <glyph glyph-name="thorn" unicode="&#xfe;" 
d="M-31 -200l158 900h166l-42 -241q56 55 142 55q103 0 158 -82q56 -82 38 -192q-9 -51 -31 -97t-56 -81t-79 -55.5t-100 -20.5q-98 0 -143 71l-45 -257h-166zM214 250q-8 -51 15 -80t71 -29t81.5 29t41.5 80t-14 80t-70 29t-82 -29t-43 -80z" />
    <glyph glyph-name="ydieresis" unicode="&#xff;" horiz-adv-x="549" 
d="M339 15q-60 -115 -134.5 -165.5t-172.5 -50.5h-17t-18 1l28 156q27 0 46.5 3t34.5 10.5t26.5 20t23.5 30.5l-112 480h176l52 -289l130 289h191zM164 558q-16 17 -15.5 40.5t12.5 45t33 36.5t46 15h4q32 0 51.5 -23.5t13.5 -56.5q-2 -18 -11 -32.5t-22.5 -25t-30 -16.5
t-32.5 -6q-14 0 -27.5 5.5t-21.5 17.5zM410 535q-32 0 -51.5 23.5t-13.5 56.5q1 17 10.5 32t23 25.5t30 16.5t32.5 6q14 0 27.5 -5.5t21.5 -18.5q16 -17 15.5 -40t-12.5 -44.5t-33 -36.5t-46 -15h-4z" />
    <glyph glyph-name="Amacron" unicode="&#x100;" horiz-adv-x="671" 
d="M305 700h218l108 -700h-191l-11 101h-233l-48 -101h-197zM291 884h310l-23 -130h-309zM412 255l-26 242l-116 -242h142z" />
    <glyph glyph-name="amacron" unicode="&#x101;" 
d="M59 67q-51 81 -33 190q9 52 31.5 98.5t57 81.5t80.5 56t102 21q96 0 138 -69l10 55h166l-88 -500h-166l7 39q-59 -53 -146 -53q-107 0 -159 81zM219 684h310l-23 -130h-309zM192 250q-7 -49 15 -79t70 -30t81.5 29t42.5 77v3q8 49 -15 79t-71 30q-49 0 -82 -30.5
t-41 -78.5z" />
    <glyph glyph-name="Abreve" unicode="&#x102;" horiz-adv-x="671" 
d="M-49 0l354 700h218l108 -700h-191l-11 101h-233l-48 -101h-197zM430 737q-42 0 -75 11.5t-54.5 32.5t-29.5 50.5t-1 65.5h140q-8 -44 32 -44q39 0 47 44h140q-25 -160 -199 -160zM412 255l-26 242l-116 -242h142z" />
    <glyph glyph-name="abreve" unicode="&#x103;" 
d="M59 67q-51 81 -33 190q9 52 31.5 98.5t57 81.5t80.5 56t102 21q96 0 138 -69l10 55h166l-88 -500h-166l7 39q-59 -53 -146 -53q-107 0 -159 81zM353 537q-42 0 -75 11.5t-54.5 32.5t-29.5 50.5t-1 65.5h140q-8 -44 32 -44q39 0 47 44h140q-25 -160 -199 -160zM192 250
q-7 -49 15 -79t70 -30t81.5 29t42.5 77v3q8 49 -15 79t-71 30q-49 0 -82 -30.5t-41 -78.5z" />
    <glyph glyph-name="Aogonek" unicode="&#x104;" horiz-adv-x="671" 
d="M305 700h218l108 -700q-48 -42 -56 -75q-6 -24 18 -24q10 0 22 3l-19 -101q-46 -17 -91 -17t-71 26.5t-17 71.5q10 60 80 116h-57l-11 101h-233l-48 -101h-197zM412 255l-26 242l-116 -242h142z" />
    <glyph glyph-name="aogonek" unicode="&#x105;" 
d="M59 67q-51 81 -33 190q9 52 31.5 98.5t57 81.5t80.5 56t102 21q96 0 138 -69l10 55h166l-88 -500q-54 -50 -57 -82q-1 -19 18 -19q10 0 22 3l-18 -99q-39 -17 -85 -17t-72.5 22.5t-22.5 62.5q3 64 84 129h-35l7 39q-59 -53 -146 -53q-107 0 -159 81zM192 250
q-7 -49 15 -79t70 -30t81.5 29t42.5 77v3q8 49 -15 79t-71 30q-49 0 -82 -30.5t-41 -78.5z" />
    <glyph glyph-name="Cacute" unicode="&#x106;" horiz-adv-x="722" 
d="M109 93q-88 107 -62 267q13 78 49.5 143t91 112t124 73.5t148.5 26.5q103 0 175.5 -44.5t110.5 -122.5l-164 -87q-40 79 -139 79q-43 0 -79.5 -14t-65 -39.5t-47.5 -60.5t-26 -76q-15 -82 26 -137q41 -53 120 -53q101 0 164 84l147 -95q-57 -78 -140.5 -121t-182.5 -43
q-162 0 -250 108zM495 910h198l-136 -145h-163z" />
    <glyph glyph-name="cacute" unicode="&#x107;" horiz-adv-x="532" 
d="M74 65q-66 79 -48 195q18 112 102 182q86 72 196 72q79 0 133.5 -35.5t81.5 -95.5l-151 -79q-23 48 -78 48q-45 0 -78 -28t-40 -73q-8 -45 15.5 -74t65.5 -29q58 0 93 50l132 -84q-38 -63 -100.5 -95.5t-137.5 -32.5q-120 0 -186 79zM543 705l-136 -145h-163l101 145h198
z" />
    <glyph glyph-name="Cdotaccent" unicode="&#x10a;" horiz-adv-x="722" 
d="M109 93q-88 107 -62 267q13 78 49.5 143t91 112t124 73.5t148.5 26.5q103 0 175.5 -44.5t110.5 -122.5l-164 -87q-40 79 -139 79q-43 0 -79.5 -14t-65 -39.5t-47.5 -60.5t-26 -76q-15 -82 26 -137q41 -53 120 -53q101 0 164 84l147 -95q-57 -78 -140.5 -121t-182.5 -43
q-162 0 -250 108zM482 753q-18 0 -33.5 7t-25.5 19.5t-14 28.5t-1 34t13 34.5t24.5 29t32 19.5t35.5 7q37 0 59 -26.5t16 -63.5q-4 -18 -14.5 -34t-24.5 -28.5t-31.5 -19.5t-35.5 -7z" />
    <glyph glyph-name="cdotaccent" unicode="&#x10b;" horiz-adv-x="532" 
d="M74 65q-66 79 -48 195q9 55 35.5 102t66 80.5t90 52.5t106.5 19q79 0 133.5 -35.5t81.5 -95.5l-151 -79q-23 48 -78 48q-45 0 -78 -28t-40 -73q-8 -45 15.5 -74t65.5 -29q58 0 93 50l132 -84q-38 -63 -100.5 -95.5t-137.5 -32.5q-120 0 -186 79zM332 548q-18 0 -33.5 7
t-25.5 19.5t-14 28.5t-1 34t13 34.5t24.5 29t32 19.5t35.5 7q37 0 59 -26.5t16 -63.5q-4 -18 -14.5 -34t-24.5 -28.5t-31.5 -19.5t-35.5 -7z" />
    <glyph glyph-name="Ccaron" unicode="&#x10c;" horiz-adv-x="722" 
d="M109 93q-88 107 -62 267q13 78 49.5 143t91 112t124 73.5t148.5 26.5q103 0 175.5 -44.5t110.5 -122.5l-164 -87q-40 79 -139 79q-43 0 -79.5 -14t-65 -39.5t-47.5 -60.5t-26 -76q-15 -82 26 -137q41 -53 120 -53q101 0 164 84l147 -95q-57 -78 -140.5 -121t-182.5 -43
q-162 0 -250 108zM315 910h145l30 -56l49 56h155l-133 -155h-167z" />
    <glyph glyph-name="ccaron" unicode="&#x10d;" horiz-adv-x="532" 
d="M74 65q-66 79 -48 195q9 55 35.5 102t66 80.5t90 52.5t106.5 19q79 0 133.5 -35.5t81.5 -95.5l-151 -79q-23 48 -78 48q-45 0 -78 -28t-40 -73q-8 -45 15.5 -74t65.5 -29q58 0 93 50l132 -84q-38 -63 -100.5 -95.5t-137.5 -32.5q-120 0 -186 79zM310 705l30 -56l49 56
h155l-133 -155h-167l-79 155h145z" />
    <glyph glyph-name="Dcaron" unicode="&#x10e;" horiz-adv-x="709" 
d="M134 700h285q139 0 221 -106t57 -254q-13 -75 -48.5 -137.5t-88.5 -107.5t-120.5 -70t-143.5 -25h-285zM225 173h96q40 0 74 14t60 38t43.5 57t24.5 71q13 79 -24 126.5t-110 47.5h-101zM240 900h145l30 -56l49 56h155l-133 -155h-167z" />
    <glyph glyph-name="dcaron" unicode="&#x10f;" horiz-adv-x="758" 
d="M59 67q-51 81 -33 190q9 52 31.5 98.5t57 81.5t80.5 56t102 21q96 0 139 -70l45 256h166l-123 -700h-166l7 40q-59 -54 -147 -54q-107 0 -159 81zM192 250q-8 -49 15 -79t71 -30q46 0 79.5 27.5t43.5 75.5l2 10q9 46 -17 76q-24 29 -70 29q-48 0 -82 -30q-35 -30 -42 -79
zM698 700h154l-73 -219h-130z" />
    <glyph glyph-name="Dcroat" unicode="&#x110;" horiz-adv-x="739" 
d="M35 270l25 144h53l51 286h285q139 0 221 -106t57 -254q-13 -75 -48.5 -137.5t-88.5 -107.5t-120.5 -70t-143.5 -25h-285l47 270h-53zM351 173q40 0 74 14t60 38t43.5 57t24.5 71q13 79 -24 126.5t-110 47.5h-101l-21 -113h117l-25 -144h-117l-17 -97h96z" />
    <glyph glyph-name="dcroat" unicode="&#x111;" horiz-adv-x="625" 
d="M57 66q-52 79 -32 190q9 51 32.5 96t58.5 79t80.5 54t99.5 20q95 0 139 -69l18 103h-137l19 106h136l10 55h166l-10 -55h58l-19 -106h-57l-95 -539h-166l7 37q-57 -51 -146 -51q-109 0 -162 80zM191 245q-9 -48 14.5 -77t71.5 -29t81.5 29t42.5 77q9 49 -14.5 78
t-71.5 29t-82 -29.5t-42 -77.5z" />
    <glyph glyph-name="Emacron" unicode="&#x112;" horiz-adv-x="535" 
d="M544 884l-23 -130h-309l22 130h310zM549 533h-265l-18 -98h242l-30 -164h-240l-18 -103h270l-29 -168h-450l123 700h445z" />
    <glyph glyph-name="emacron" unicode="&#x113;" horiz-adv-x="568" 
d="M72 65q-65 81 -46 195q9 55 35.5 102t66 80.5t90 52.5t106.5 19q112 0 177 -77q66 -78 44 -186q-3 -15 -6.5 -30.5t-10.5 -31.5h-343q13 -61 96 -61q60 0 99 36l106 -97q-87 -81 -218 -81q-130 0 -196 79zM194 561l22 130h310l-23 -130h-309zM315 374q-74 0 -110 -69h189
q-5 69 -79 69z" />
    <glyph glyph-name="Edotaccent" unicode="&#x116;" horiz-adv-x="535" 
d="M11 0l123 700h445l-30 -167h-265l-18 -98h242l-30 -164h-240l-18 -103h270l-29 -168h-450zM365 743q-18 0 -33.5 7t-25.5 19.5t-14 28.5t-1 34t13 34.5t24.5 29t32 19.5t35.5 7q37 0 59 -26.5t16 -63.5q-4 -18 -14.5 -34t-24.5 -28.5t-31.5 -19.5t-35.5 -7z" />
    <glyph glyph-name="edotaccent" unicode="&#x117;" horiz-adv-x="568" 
d="M72 65q-65 81 -46 195q9 55 35.5 102t66 80.5t90 52.5t106.5 19q112 0 177 -77q66 -78 44 -186q-3 -15 -6.5 -30.5t-10.5 -31.5h-343q13 -61 96 -61q60 0 99 36l106 -97q-87 -81 -218 -81q-130 0 -196 79zM347 550q-18 0 -33.5 7t-25.5 19.5t-14 28.5t-1 34t13 34.5
t24.5 29t32 19.5t35.5 7q37 0 59 -26.5t16 -63.5q-4 -18 -14.5 -34t-24.5 -28.5t-31.5 -19.5t-35.5 -7zM315 374q-74 0 -110 -69h189q-5 69 -79 69z" />
    <glyph glyph-name="Eogonek" unicode="&#x118;" horiz-adv-x="535" 
d="M134 700h445l-30 -167h-265l-18 -98h242l-30 -164h-240l-18 -103h270l-29 -168q-53 -48 -57 -78q-3 -23 17 -23q11 0 23 3l-18 -99q-43 -17 -86 -17q-23 0 -42 5.5t-32.5 16.5t-19 28t-0.5 41q10 58 84 123h-319z" />
    <glyph glyph-name="eogonek" unicode="&#x119;" horiz-adv-x="568" 
d="M72 65q-65 81 -46 195q9 55 35.5 102t66 80.5t90 52.5t106.5 19q112 0 177 -77q66 -78 44 -186q-3 -15 -6.5 -30.5t-10.5 -31.5h-343q13 -61 96 -61q60 0 99 36l106 -97q-10 -9 -18 -15.5t-13 -10.5q-44 -32 -70.5 -63t-32.5 -51q-9 -28 19 -28q9 0 20 3l-18 -99
q-42 -17 -84 -17q-54 0 -79 26t-17 68q5 26 23.5 52t52.5 54h-1q-130 0 -196 79zM315 374q-74 0 -110 -69h189q-5 69 -79 69z" />
    <glyph glyph-name="Ecaron" unicode="&#x11a;" horiz-adv-x="535" 
d="M11 0l123 700h445l-30 -167h-265l-18 -98h242l-30 -164h-240l-18 -103h270l-29 -168h-450zM198 900h145l30 -56l49 56h155l-133 -155h-167z" />
    <glyph glyph-name="ecaron" unicode="&#x11b;" horiz-adv-x="568" 
d="M72 65q-65 81 -46 195q9 55 35.5 102t66 80.5t90 52.5t106.5 19q112 0 177 -77q66 -78 44 -186q-3 -15 -6.5 -30.5t-10.5 -31.5h-343q13 -61 96 -61q60 0 99 36l106 -97q-87 -81 -218 -81q-130 0 -196 79zM325 707l30 -56l49 56h155l-133 -155h-167l-79 155h145zM315 374
q-74 0 -110 -69h189q-5 69 -79 69z" />
    <glyph glyph-name="Gbreve" unicode="&#x11e;" horiz-adv-x="779" 
d="M110 93q-89 109 -63 267q13 77 49.5 142t91.5 112.5t124.5 74t148.5 26.5q103 0 178 -43.5t115 -121.5l-164 -88q-44 78 -147 78q-43 0 -79.5 -14t-65 -39.5t-47.5 -60.5t-26 -76q-15 -84 27 -140q42 -55 126 -55q128 0 181 92h-162l27 154h353l-12 -71q-14 -79 -48 -143
t-86 -109t-120 -69t-149 -24q-164 0 -252 108zM490 747q-42 0 -75 11.5t-54.5 32.5t-29.5 50.5t-1 65.5h140q-8 -44 32 -44q39 0 47 44h140q-25 -160 -199 -160z" />
    <glyph glyph-name="gbreve" unicode="&#x11f;" horiz-adv-x="619" 
d="M148 -16q28 -54 102 -54q46 0 77 22.5t39 67.5l7 38q-58 -52 -142 -52q-57 0 -99 22.5t-67 59t-34 83.5t0 96q15 99 87 173q71 74 182 74q98 0 141 -73l10 59h164l-85 -480q-21 -118 -99.5 -176.5t-195.5 -58.5q-85 0 -146.5 31t-87.5 91zM361 547q-42 0 -75 11.5
t-54.5 32.5t-29.5 50.5t-1 65.5h140q-8 -44 32 -44q39 0 47 44h140q-25 -160 -199 -160zM197 260q-8 -45 15.5 -74t71.5 -29q45 0 78.5 25.5t44.5 67.5l3 20q4 42 -20 67.5t-69 25.5q-47 0 -81.5 -29t-42.5 -74z" />
    <glyph glyph-name="Gdotaccent" unicode="&#x120;" horiz-adv-x="779" 
d="M110 93q-89 109 -63 267q13 77 49.5 142t91.5 112.5t124.5 74t148.5 26.5q103 0 178 -43.5t115 -121.5l-164 -88q-44 78 -147 78q-43 0 -79.5 -14t-65 -39.5t-47.5 -60.5t-26 -76q-15 -84 27 -140q42 -55 126 -55q128 0 181 92h-162l27 154h353l-12 -71q-14 -79 -48 -143
t-86 -109t-120 -69t-149 -24q-164 0 -252 108zM482 753q-18 0 -33.5 7t-25.5 19.5t-14 28.5t-1 34t13 34.5t24.5 29t32 19.5t35.5 7q37 0 59 -26.5t16 -63.5q-4 -18 -14.5 -34t-24.5 -28.5t-31.5 -19.5t-35.5 -7z" />
    <glyph glyph-name="gdotaccent" unicode="&#x121;" horiz-adv-x="619" 
d="M235 -215q-85 0 -146.5 31t-87.5 91l147 77q28 -54 102 -54q46 0 77 22.5t39 67.5l7 38q-58 -52 -142 -52q-57 0 -99 22.5t-67 59t-34 83.5t0 96q15 99 87 173q71 74 182 74q98 0 141 -73l10 59h164l-85 -480q-21 -118 -99.5 -176.5t-195.5 -58.5zM197 260
q-8 -45 15.5 -74t71.5 -29q45 0 78.5 25.5t44.5 67.5l3 20q4 42 -20 67.5t-69 25.5q-47 0 -81.5 -29t-42.5 -74zM353 553q-18 0 -33.5 7t-25.5 19.5t-14 28.5t-1 34t13 34.5t24.5 29t32 19.5t35.5 7q37 0 59 -26.5t16 -63.5q-4 -18 -14.5 -34t-24.5 -28.5t-31.5 -19.5
t-35.5 -7z" />
    <glyph glyph-name="uni0122" unicode="&#x122;" horiz-adv-x="779" 
d="M110 93q-89 109 -63 267q13 77 49.5 142t91.5 112.5t124.5 74t148.5 26.5q103 0 178 -43.5t115 -121.5l-164 -88q-44 78 -147 78q-43 0 -79.5 -14t-65 -39.5t-47.5 -60.5t-26 -76q-15 -84 27 -140q42 -55 126 -55q128 0 181 92h-162l27 154h353l-12 -71q-14 -79 -48 -143
t-86 -109t-120 -69t-149 -24q-164 0 -252 108zM272 -57h154l-73 -220h-129z" />
    <glyph glyph-name="uni0123" unicode="&#x123;" horiz-adv-x="619" 
d="M148 -16q28 -54 102 -54q46 0 77 22.5t39 67.5l7 38q-58 -52 -142 -52q-57 0 -99 22.5t-67 59t-34 83.5t0 96q15 99 87 173q71 74 182 74q98 0 141 -73l10 59h164l-85 -480q-21 -118 -99.5 -176.5t-195.5 -58.5q-85 0 -146.5 31t-87.5 91zM197 260q-8 -45 15.5 -74
t71.5 -29q45 0 78.5 25.5t44.5 67.5l3 20q4 42 -20 67.5t-69 25.5q-47 0 -81.5 -29t-42.5 -74zM268 575l74 220h129l-49 -220h-154z" />
    <glyph glyph-name="Hbar" unicode="&#x126;" horiz-adv-x="705" 
d="M115 478h-59l22 130h60l16 92h179l-16 -92h197l16 92h178l-16 -92h60l-22 -130h-61l-84 -478h-178l39 220h-197l-39 -220h-179zM279 393h197l15 85h-197z" />
    <glyph glyph-name="hbar" unicode="&#x127;" horiz-adv-x="587" 
d="M14 0l95 539h-58l19 106h57l10 55h166l-10 -55h136l-19 -106h-135l-18 -101q58 64 145 64q40 0 72.5 -14.5t52.5 -42t27.5 -67.5t-1.5 -91l-50 -287h-166l46 266q7 40 -10 60t-52 20q-73 0 -94 -78l-47 -268h-166z" />
    <glyph glyph-name="Itilde" unicode="&#x128;" horiz-adv-x="289" 
d="M11 0l123 700h179l-123 -700h-179zM54 748q4 44 17 75.5t31.5 51t41 28.5t45.5 9q19 0 37.5 -5.5t35.5 -15.5q11 -6 19 -10t15 -4q8 0 13.5 7t9.5 26h122q-5 -45 -17.5 -76t-31 -50.5t-41 -28t-45.5 -8.5q-40 0 -74 21q-19 14 -31 14q-20 0 -26 -34h-121z" />
    <glyph glyph-name="itilde" unicode="&#x129;" horiz-adv-x="262" 
d="M92 500h166l-88 -500h-166zM28 548q4 44 15 75.5t27 51t35 28.5t39 9q34 0 64 -21q8 -6 15.5 -10t13.5 -4q7 0 12 7t8 26h105q-4 -45 -15.5 -76t-27 -50.5t-34.5 -28t-39 -8.5q-17 0 -33.5 5t-30.5 16q-16 14 -28 14q-18 0 -22 -34h-104z" />
    <glyph glyph-name="Imacron" unicode="&#x12a;" horiz-adv-x="289" 
d="M79 754l22 130h310l-23 -130h-309zM134 700h179l-123 -700h-179z" />
    <glyph glyph-name="imacron" unicode="&#x12b;" horiz-adv-x="262" 
d="M56 554l23 135h259l-23 -135h-259zM4 0l88 500h166l-88 -500h-166z" />
    <glyph glyph-name="Iogonek" unicode="&#x12e;" horiz-adv-x="289" 
d="M72 -214q-46 0 -71 26.5t-18 68.5q9 59 75 119h-47l123 700h179l-123 -700q-45 -48 -50 -79q-3 -22 19 -22q11 0 22 3l-18 -99q-46 -17 -91 -17z" />
    <glyph glyph-name="iogonek" unicode="&#x12f;" horiz-adv-x="262" 
d="M55 -214q-45 0 -69.5 26t-19.5 66q4 51 66 122h-28l88 500h166l-88 -500q-41 -47 -46 -79q-3 -22 18 -22q11 0 22 3l-18 -99q-45 -17 -91 -17zM184 541q-20 0 -36 7.5t-27 21t-15.5 30.5t-1.5 37q3 19 13 36.5t25 30.5t33.5 20.5t39.5 7.5q20 0 36 -7.5t27 -20.5
t15.5 -30.5t1.5 -36.5q-7 -40 -38 -68t-73 -28z" />
    <glyph glyph-name="Idotaccent" unicode="&#x130;" horiz-adv-x="289" 
d="M11 0l123 700h179l-123 -700h-179zM232 743q-18 0 -33.5 7t-25.5 19.5t-14 28.5t-1 34t13 34.5t24.5 29t32 19.5t35.5 7q37 0 59 -26.5t16 -63.5q-4 -18 -14.5 -34t-24.5 -28.5t-31.5 -19.5t-35.5 -7z" />
    <glyph glyph-name="dotlessi" unicode="&#x131;" horiz-adv-x="262" 
d="M4 0l88 500h166l-88 -500h-166z" />
    <glyph glyph-name="uni0136" unicode="&#x136;" horiz-adv-x="631" 
d="M11 0l123 700h179l-50 -284l239 284h209l-298 -348l178 -352h-185l-160 319l-56 -319h-179zM138 -277l48 220h154l-73 -220h-129z" />
    <glyph glyph-name="uni0137" unicode="&#x137;" horiz-adv-x="537" 
d="M127 700h166l-70 -398l159 198h191l-210 -251l130 -249h-178l-106 220l-39 -220h-166zM111 -277l48 220h154l-73 -220h-129z" />
    <glyph glyph-name="Lacute" unicode="&#x139;" horiz-adv-x="485" 
d="M450 900l-136 -145h-163l101 145h198zM220 173h241l-30 -173h-420l123 700h179z" />
    <glyph glyph-name="lacute" unicode="&#x13a;" horiz-adv-x="263" 
d="M239 905h198l-136 -145h-163zM171 0l56 316l72 414h-166l-128 -730h166z" />
    <glyph glyph-name="uni013B" unicode="&#x13b;" horiz-adv-x="485" 
d="M220 173h241l-30 -173h-420l123 700h179zM89 -277l48 220h154l-73 -220h-129z" />
    <glyph glyph-name="uni013C" unicode="&#x13c;" horiz-adv-x="263" 
d="M5 0l128 730h166l-72 -414l-56 -316h-166zM-48 -277l48 220h154l-73 -220h-129z" />
    <glyph glyph-name="Lcaron" unicode="&#x13d;" horiz-adv-x="485" 
d="M134 700h179l-93 -527h241l-30 -173h-420zM327 501l44 199h164l-69 -199h-139z" />
    <glyph glyph-name="lcaron" unicode="&#x13e;" horiz-adv-x="397" 
d="M133 730h166l-72 -414l-56 -316h-166zM294 511l49 219h154l-74 -219h-129z" />
    <glyph glyph-name="Lslash" unicode="&#x141;" horiz-adv-x="515" 
d="M250 173h241l-30 -173h-420l35 199l-66 -36l31 177l66 36l57 324h179l-38 -215l133 73l-31 -177l-133 -73z" />
    <glyph glyph-name="lslash" unicode="&#x142;" horiz-adv-x="279" 
d="M319 507l-27 -157l-57 -32v-2l-56 -316h-166l37 212l-57 -33l28 157l56 32l64 362h166l-44 -255z" />
    <glyph glyph-name="Nacute" unicode="&#x143;" horiz-adv-x="675" 
d="M134 700h139l182 -366l65 366h178l-123 -700h-138l-182 366l-65 -366h-179zM635 900l-136 -145h-163l101 145h198z" />
    <glyph glyph-name="nacute" unicode="&#x144;" horiz-adv-x="578" 
d="M4 0l88 500h166l-9 -51q57 65 146 65q40 0 72 -14.5t52.5 -42t28 -67.5t-1.5 -91l-53 -299h-166l49 278q6 40 -11 59.5t-51 19.5q-38 0 -63.5 -23t-33.5 -68v1l-47 -267h-166zM352 710h198l-136 -145h-163z" />
    <glyph glyph-name="uni0145" unicode="&#x145;" horiz-adv-x="675" 
d="M11 0l123 700h139l182 -366l65 366h178l-123 -700h-138l-182 366l-65 -366h-179zM216 -57h154l-73 -220h-129z" />
    <glyph glyph-name="uni0146" unicode="&#x146;" horiz-adv-x="578" 
d="M92 500h166l-9 -51q57 65 146 65q40 0 72 -14.5t52.5 -42t28 -67.5t-1.5 -91l-53 -299h-166l49 278q6 40 -11 59.5t-51 19.5q-38 0 -63.5 -23t-33.5 -68v1l-47 -267h-166zM172 -57h154l-73 -220h-129z" />
    <glyph glyph-name="Ncaron" unicode="&#x147;" horiz-adv-x="675" 
d="M134 700h139l182 -366l65 366h178l-123 -700h-138l-182 366l-65 -366h-179zM257 900h145l30 -56l49 56h155l-133 -155h-167z" />
    <glyph glyph-name="ncaron" unicode="&#x148;" horiz-adv-x="578" 
d="M4 0l88 500h166l-9 -51q57 65 146 65q40 0 72 -14.5t52.5 -42t28 -67.5t-1.5 -91l-53 -299h-166l49 278q6 40 -11 59.5t-51 19.5q-38 0 -63.5 -23t-33.5 -68v1l-47 -267h-166zM317 710l30 -56l49 56h155l-133 -155h-167l-79 155h145z" />
    <glyph glyph-name="Eng" unicode="&#x14a;" horiz-adv-x="675" 
d="M11 0l123 700h139l182 -366l65 366h178l-123 -700q-18 -105 -77 -157t-166 -52q-9 0 -18.5 0.5t-19.5 1.5l28 154q33 0 54.5 12.5t28.5 47.5l8 42l-158 317l-65 -366h-179z" />
    <glyph glyph-name="eng" unicode="&#x14b;" horiz-adv-x="578" 
d="M92 500h166l-9 -51q57 65 146 65q40 0 72 -14.5t52.5 -42t28 -67.5t-1.5 -91l-53 -299q-20 -109 -74.5 -159.5t-154.5 -50.5h-16t-16 1l27 150q32 0 47.5 13.5t20.5 45.5l49 278q6 40 -11 59.5t-51 19.5q-38 0 -63.5 -23t-33.5 -68v1l-47 -267h-166z" />
    <glyph glyph-name="Omacron" unicode="&#x14c;" horiz-adv-x="790" 
d="M638 87q-62 -56 -132.5 -79t-152.5 -23q-79 0 -142 32t-104.5 84.5t-58 120t-1.5 139.5q13 78 50.5 143.5t93.5 112t126.5 72.5t149.5 26q159 0 247 -112q89 -112 64 -262q-26 -152 -140 -254zM225 350q-15 -84 27 -137t124 -53q41 0 78.5 14.5t67.5 40t50.5 60
t27.5 75.5q14 84 -29 136q-44 54 -125 54q-42 0 -79 -14.5t-66 -40t-49 -60.5t-27 -75zM353 894h310l-23 -130h-309z" />
    <glyph glyph-name="omacron" unicode="&#x14d;" horiz-adv-x="583" 
d="M258 -14q-65 0 -113.5 25t-78.5 65t-40 90t1 100q10 56 37.5 102t67 78.5t90 50t107.5 17.5q120 0 183 -86t44 -192q-10 -54 -37 -100t-66.5 -79.5t-89.5 -52t-105 -18.5zM214 694h310l-23 -130h-309zM191 250q-8 -46 14.5 -75t65.5 -29q45 0 77.5 29t40.5 75t-14 75
t-67 29q-43 0 -76 -29t-41 -75z" />
    <glyph glyph-name="Ohungarumlaut" unicode="&#x150;" horiz-adv-x="790" 
d="M638 87q-62 -56 -132.5 -79t-152.5 -23q-79 0 -142 32t-104.5 84.5t-58 120t-1.5 139.5q13 78 50.5 143.5t93.5 112t126.5 72.5t149.5 26q159 0 247 -112q89 -112 64 -262q-26 -152 -140 -254zM225 350q-15 -84 27 -137t124 -53q41 0 78.5 14.5t67.5 40t50.5 60
t27.5 75.5q14 84 -29 136q-44 54 -125 54q-42 0 -79 -14.5t-66 -40t-49 -60.5t-27 -75zM757 905l-122 -150h-158l117 150h163zM555 905l-113 -150h-157l106 150h164z" />
    <glyph glyph-name="ohungarumlaut" unicode="&#x151;" horiz-adv-x="583" 
d="M258 -14q-65 0 -113.5 25t-78.5 65t-40 90t1 100q10 56 37.5 102t67 78.5t90 50t107.5 17.5q120 0 183 -86t44 -192q-10 -54 -37 -100t-66.5 -79.5t-89.5 -52t-105 -18.5zM191 250q-8 -46 14.5 -75t65.5 -29q45 0 77.5 29t40.5 75t-14 75t-67 29q-43 0 -76 -29t-41 -75z
M618 705l-122 -150h-158l117 150h163zM252 705h164l-113 -150h-157z" />
    <glyph glyph-name="OE" unicode="&#x152;" horiz-adv-x="934" 
d="M104 94q-82 109 -58 262q12 76 49.5 142t93 114t125.5 75.5t148 27.5q64 0 112 -15h404l-29 -168h-226l-17 -97h201l-29 -164h-200l-18 -103h230l-30 -168h-409q-54 -15 -108 -15q-157 0 -239 109zM225 350q-15 -85 25 -137q41 -53 121 -53q66 0 111 16l92 524l-31 -176
q-38 16 -102 16q-79 0 -141 -53q-60 -52 -75 -137z" />
    <glyph glyph-name="oe" unicode="&#x153;" horiz-adv-x="933" 
d="M108 27q-55 42 -74 102.5t-8 130.5q9 56 34.5 102.5t64.5 80.5t89 52.5t107 18.5q116 0 175 -86q81 86 203 86q106 0 168 -77q31 -38 42.5 -84.5t0.5 -101.5q-3 -15 -6.5 -30.5t-10.5 -31.5h-343q13 -61 96 -61q60 0 99 36l106 -97q-87 -81 -210 -81q-133 0 -192 86
q-80 -86 -201 -86q-84 0 -140 41zM192 250q-8 -46 15 -75t66 -29q45 0 78 29t41 75t-15.5 75t-66.5 29q-45 0 -77.5 -29t-40.5 -75zM759 305q-5 69 -79 69t-110 -69h189z" />
    <glyph glyph-name="Racute" unicode="&#x154;" horiz-adv-x="620" 
d="M135 700h274q104 0 169 -74q65 -75 46 -178q-13 -67 -52 -117t-100 -77l96 -254h-180l-82 226h-76l-40 -226h-179zM256 378h103q35 0 57.5 22t28.5 56q6 35 -11.5 57t-53.5 22h-96zM380 900h198l-136 -145h-163z" />
    <glyph glyph-name="racute" unicode="&#x155;" horiz-adv-x="380" 
d="M92 500h166l-17 -94q23 51 67.5 77.5t101.5 26.5l-31 -184q-6 1 -12.5 1.5t-12.5 0.5q-59 0 -98 -31t-49 -90l2 16l-39 -223h-166zM260 700h198l-136 -145h-163z" />
    <glyph glyph-name="uni0156" unicode="&#x156;" horiz-adv-x="620" 
d="M135 700h274q104 0 169 -74q65 -75 46 -178q-13 -67 -52 -117t-100 -77l96 -254h-180l-82 226h-76l-40 -226h-179zM166 -277l48 220h154l-73 -220h-129zM359 378q35 0 57.5 22t28.5 56q6 35 -11.5 57t-53.5 22h-96l-28 -157h103z" />
    <glyph glyph-name="uni0157" unicode="&#x157;" horiz-adv-x="380" 
d="M4 0l88 500h166l-17 -94q23 51 67.5 77.5t101.5 26.5l-31 -184q-6 1 -12.5 1.5t-12.5 0.5q-59 0 -98 -31t-49 -90l2 16l-39 -223h-166zM-49 -277l48 220h154l-73 -220h-129z" />
    <glyph glyph-name="Rcaron" unicode="&#x158;" horiz-adv-x="620" 
d="M11 0l124 700h274q104 0 169 -74q65 -75 46 -178q-13 -67 -52 -117t-100 -77l96 -254h-180l-82 226h-76l-40 -226h-179zM345 900l30 -56l49 56h155l-133 -155h-167l-79 155h145zM256 378h103q35 0 57.5 22t28.5 56q6 35 -11.5 57t-53.5 22h-96z" />
    <glyph glyph-name="rcaron" unicode="&#x159;" horiz-adv-x="380" 
d="M92 500h166l-17 -94q23 51 67.5 77.5t101.5 26.5l-31 -184q-6 1 -12.5 1.5t-12.5 0.5q-59 0 -98 -31t-49 -90l2 16l-39 -223h-166zM225 700l30 -56l49 56h155l-133 -155h-167l-79 155h145z" />
    <glyph glyph-name="Sacute" unicode="&#x15a;" horiz-adv-x="588" 
d="M156 241q28 -87 128 -87q82 0 91 48q6 33 -46 55q-4 2 -22.5 8.5t-50.5 17.5q-93 32 -139 84q-47 54 -31 145q9 50 34 88t60.5 63.5t80 38.5t93.5 13q88 0 151.5 -41t93.5 -119l-153 -82q-33 73 -106 73q-63 0 -72 -45q-6 -25 18 -41.5t90 -39.5q23 -8 41 -15t34 -15
t30.5 -18t29.5 -23q63 -51 45 -162q-18 -100 -93.5 -151t-193.5 -51q-112 0 -181 46.5t-91 127.5zM586 910l-136 -145h-163l101 145h198z" />
    <glyph glyph-name="sacute" unicode="&#x15b;" horiz-adv-x="473" 
d="M136 180q22 -57 83 -57q43 0 48 24q3 15 -21.5 25.5t-60.5 20.5q-26 7 -52.5 18.5t-47 31t-31 49t-2.5 71.5q7 39 28 67.5t50 47t64.5 27.5t72.5 9q69 0 121.5 -28.5t76.5 -82.5l-141 -68q-18 46 -62 46q-15 0 -27.5 -5t-16.5 -22q-3 -14 6.5 -21.5t26.5 -13t39 -10.5
t44 -14q23 -7 44 -18.5t35.5 -30.5t20.5 -46t-1 -65q-8 -42 -29.5 -70.5t-52 -46t-67 -25t-74.5 -7.5q-166 0 -220 123zM302 710h198l-136 -145h-163z" />
    <glyph glyph-name="Scedilla" unicode="&#x15e;" horiz-adv-x="588" 
d="M197 -9q-81 13 -131.5 57t-68.5 111l159 82q28 -87 128 -87q82 0 91 48q6 33 -46 55q-4 2 -22.5 8.5t-50.5 17.5q-93 32 -139 84q-47 54 -31 145q9 50 34 88t60.5 63.5t80 38.5t93.5 13q88 0 151.5 -41t93.5 -119l-153 -82q-33 73 -106 73q-63 0 -72 -45q-6 -25 18 -41.5
t90 -39.5q23 -8 41 -15t34 -15t30.5 -18t29.5 -23q63 -51 45 -162q-14 -85 -73 -135t-152 -63l-6 -35q53 -25 43 -86q-15 -91 -192 -91q-14 0 -28 0.5t-30 1.5l19 109q12 -1 22.5 -1.5t19.5 -0.5q53 0 56 16q3 17 -50 20l12 69v0z" />
    <glyph glyph-name="scedilla" unicode="&#x15f;" horiz-adv-x="473" 
d="M136 180q22 -57 83 -57q43 0 48 24q3 15 -21.5 25.5t-60.5 20.5q-26 7 -52.5 18.5t-47 31t-31 49t-2.5 71.5q7 39 28 67.5t50 47t64.5 27.5t72.5 9q69 0 121.5 -28.5t76.5 -82.5l-141 -68q-18 46 -62 46q-15 0 -27.5 -5t-16.5 -22q-3 -14 6.5 -21.5t26.5 -13t39 -10.5
t44 -14q23 -7 43.5 -18.5t35 -30.5t20.5 -46t0 -65q-23 -119 -159 -144l-7 -37q53 -25 43 -86q-15 -91 -192 -91q-14 0 -28 0.5t-30 1.5l19 109q12 -1 22.5 -1.5t19.5 -0.5q53 0 56 16q3 17 -50 20l13 70q-110 21 -150 117z" />
    <glyph glyph-name="Scaron" unicode="&#x160;" horiz-adv-x="588" 
d="M269 -15q-112 0 -181 46.5t-91 127.5l159 82q28 -87 128 -87q82 0 91 48q6 33 -46 55q-4 2 -22.5 8.5t-50.5 17.5q-93 32 -139 84q-47 54 -31 145q9 50 34 88t60.5 63.5t80 38.5t93.5 13q88 0 151.5 -41t93.5 -119l-153 -82q-33 73 -106 73q-63 0 -72 -45
q-6 -25 18 -41.5t90 -39.5q23 -8 41 -15t34 -15t30.5 -18t29.5 -23q63 -51 45 -162q-18 -100 -93.5 -151t-193.5 -51zM353 910l30 -56l49 56h155l-133 -155h-167l-79 155h145z" />
    <glyph glyph-name="scaron" unicode="&#x161;" horiz-adv-x="473" 
d="M210 -14q-166 0 -220 123l146 71q22 -57 83 -57q43 0 48 24q3 15 -21.5 25.5t-60.5 20.5q-26 7 -52.5 18.5t-47 31t-31 49t-2.5 71.5q7 39 28 67.5t50 47t64.5 27.5t72.5 9q69 0 121.5 -28.5t76.5 -82.5l-141 -68q-18 46 -62 46q-15 0 -27.5 -5t-16.5 -22
q-3 -14 6.5 -21.5t26.5 -13t39 -10.5t44 -14q23 -7 44 -18.5t35.5 -30.5t20.5 -46t-1 -65q-8 -42 -29.5 -70.5t-52 -46t-67 -25t-74.5 -7.5zM122 710h145l30 -56l49 56h155l-133 -155h-167z" />
    <glyph glyph-name="uni0162" unicode="&#x162;" horiz-adv-x="545" 
d="M89 700h525l-31 -173h-172l-93 -527h-179l93 527h-173zM143 -57h154l-73 -220h-129z" />
    <glyph glyph-name="uni0163" unicode="&#x163;" horiz-adv-x="394" 
d="M29 341l28 159h75l16 90l175 50l-25 -140h105l-29 -159h-104l-25 -145q-5 -28 8.5 -37.5t49.5 -9.5h17.5t20.5 1l-26 -150q-20 -3 -38.5 -4t-35.5 -1q-101 0 -140.5 48.5t-22.5 148.5l26 149h-75zM102 -52h154l-73 -220h-129z" />
    <glyph glyph-name="Tcaron" unicode="&#x164;" horiz-adv-x="545" 
d="M89 700h525l-31 -173h-172l-93 -527h-179l93 527h-173zM337 900l30 -56l49 56h155l-133 -155h-167l-79 155h145z" />
    <glyph glyph-name="tcaron" unicode="&#x165;" horiz-adv-x="430" 
d="M57 500h75l16 90l175 50l-25 -140h105l-29 -159h-104l-25 -145q-5 -28 8.5 -37.5t49.5 -9.5h17.5t20.5 1l-26 -150q-20 -3 -38.5 -4t-35.5 -1q-101 0 -140.5 48.5t-22.5 148.5l26 149h-75zM342 536l43 190h150l-69 -190h-124z" />
    <glyph glyph-name="Tbar" unicode="&#x166;" horiz-adv-x="545" 
d="M59 527l30 173h525l-31 -173h-172l-21 -115h105l-28 -158h-104l-45 -254h-179l45 254h-107l28 158h106l21 115h-173z" />
    <glyph glyph-name="tbar" unicode="&#x167;" horiz-adv-x="394" 
d="M49 314h50l8 41h-76l26 145h75l16 90l175 50l-25 -140h105l-26 -145h-104l-7 -41h72l-21 -120h-72q-5 -26 9 -35.5t50 -9.5h17t20 1l-26 -150q-20 -3 -38.5 -4t-35.5 -1q-101 0 -140.5 48.5t-22.5 148.5v2h-50z" />
    <glyph glyph-name="Utilde" unicode="&#x168;" horiz-adv-x="645" 
d="M92 54q-70 69 -50 176l83 470h179l-80 -453q-15 -88 83 -88t114 88l79 453h179l-83 -470q-11 -60 -37.5 -106t-66.5 -76.5t-91.5 -46.5t-110.5 -16q-128 0 -198 69zM232 748q4 44 17 75.5t31.5 51t41 28.5t45.5 9q19 0 37.5 -5.5t35.5 -15.5q11 -6 19 -10t15 -4
q8 0 13.5 7t9.5 26h122q-5 -45 -17.5 -76t-31 -50.5t-41 -28t-45.5 -8.5q-40 0 -74 21q-19 14 -31 14q-20 0 -26 -34h-121z" />
    <glyph glyph-name="utilde" unicode="&#x169;" horiz-adv-x="578" 
d="M183 -14q-41 0 -72.5 14.5t-52 42t-28 67.5t1.5 91l53 299h166l-49 -278q-6 -40 11 -59.5t51 -19.5q38 0 63.5 23t33.5 68v-1l47 267h166l-88 -500h-166l9 51q-57 -65 -146 -65zM155 548q4 44 17 75.5t31.5 51t41 28.5t45.5 9q19 0 37.5 -5.5t35.5 -15.5q11 -6 19 -10
t15 -4q8 0 13.5 7t9.5 26h122q-5 -45 -17.5 -76t-31 -50.5t-41 -28t-45.5 -8.5q-40 0 -74 21q-19 14 -31 14q-20 0 -26 -34h-121z" />
    <glyph glyph-name="Umacron" unicode="&#x16a;" horiz-adv-x="645" 
d="M92 54q-70 69 -50 176l83 470h179l-80 -453q-15 -88 83 -88t114 88l79 453h179l-83 -470q-11 -60 -37.5 -106t-66.5 -76.5t-91.5 -46.5t-110.5 -16q-128 0 -198 69zM257 754l22 130h310l-23 -130h-309z" />
    <glyph glyph-name="umacron" unicode="&#x16b;" horiz-adv-x="578" 
d="M183 -14q-41 0 -72.5 14.5t-52 42t-28 67.5t1.5 91l53 299h166l-49 -278q-6 -40 11 -59.5t51 -19.5q38 0 63.5 23t33.5 68v-1l47 267h166l-88 -500h-166l9 51q-57 -65 -146 -65zM180 554l22 130h310l-23 -130h-309z" />
    <glyph glyph-name="Uring" unicode="&#x16e;" horiz-adv-x="645" 
d="M92 54q-70 69 -50 176l83 470h179l-80 -453q-15 -88 83 -88t114 88l79 453h179l-83 -470q-11 -60 -37.5 -106t-66.5 -76.5t-91.5 -46.5t-110.5 -16q-128 0 -198 69zM310 747q-35 39 -24 96t54.5 93t106.5 36q59 0 95 -40q34 -39 24 -96q-11 -57 -54 -92.5t-107 -35.5
q-61 0 -95 39zM393 840q-5 -32 27 -32q36 0 40 31q3 14 -4.5 23.5t-24.5 9.5q-15 0 -25.5 -9t-12.5 -23z" />
    <glyph glyph-name="uring" unicode="&#x16f;" horiz-adv-x="578" 
d="M183 -14q-41 0 -72.5 14.5t-52 42t-28 67.5t1.5 91l53 299h166l-49 -278q-6 -40 11 -59.5t51 -19.5q38 0 63.5 23t33.5 68v-1l47 267h166l-88 -500h-166l9 51q-57 -65 -146 -65zM238 572q-35 39 -24 96t54.5 93t106.5 36q59 0 95 -40q34 -39 24 -96q-11 -57 -54 -92.5
t-107 -35.5q-61 0 -95 39zM321 665q-5 -32 27 -32q36 0 40 31q3 14 -4.5 23.5t-24.5 9.5q-15 0 -25.5 -9t-12.5 -23z" />
    <glyph glyph-name="Uhungarumlaut" unicode="&#x170;" horiz-adv-x="645" 
d="M92 54q-70 69 -50 176l83 470h179l-80 -453q-15 -88 83 -88t114 88l79 453h179l-83 -470q-11 -60 -37.5 -106t-66.5 -76.5t-91.5 -46.5t-110.5 -16q-128 0 -198 69zM683 895l-122 -150h-158l117 150h163zM481 895l-113 -150h-157l106 150h164z" />
    <glyph glyph-name="uhungarumlaut" unicode="&#x171;" horiz-adv-x="578" 
d="M183 -14q-41 0 -72.5 14.5t-52 42t-28 67.5t1.5 91l53 299h166l-49 -278q-6 -40 11 -59.5t51 -19.5q38 0 63.5 23t33.5 68v-1l47 267h166l-88 -500h-166l9 51q-57 -65 -146 -65zM443 695h163l-122 -150h-158zM134 545l106 150h164l-113 -150h-157z" />
    <glyph glyph-name="Uogonek" unicode="&#x172;" horiz-adv-x="645" 
d="M88 58q-64 68 -46 172l83 470h179l-80 -453q-15 -88 83 -88t114 88l79 453h179l-83 -470q-22 -127 -118 -192q-99 -75 -110 -116q-6 -21 17 -23q11 0 23 3l-18 -99q-46 -17 -85 -17q-52 0 -77.5 28t-17.5 73q10 55 64 98q-121 4 -186 73z" />
    <glyph glyph-name="uogonek" unicode="&#x173;" horiz-adv-x="578" 
d="M183 -14q-41 0 -72.5 14.5t-52 42t-28 67.5t1.5 91l53 299h166l-49 -278q-6 -40 11 -59.5t51 -19.5q38 0 63.5 23t33.5 68v-1l47 267h166l-88 -500h-2q-54 -50 -57 -82q-1 -19 18 -19q10 0 22 3l-18 -99q-39 -17 -81 -17q-49 0 -78 24.5t-21 70.5q10 56 82 119h-31l9 51
q-57 -65 -146 -65z" />
    <glyph glyph-name="Wcircumflex" unicode="&#x174;" horiz-adv-x="1004" 
d="M84 700h181l35 -441l202 441h143l48 -441l188 441h196l-318 -700h-189l-43 395l-181 -395h-189zM394 745l133 155h167l79 -155h-149l-29 56l-50 -56h-151z" />
    <glyph glyph-name="wcircumflex" unicode="&#x175;" horiz-adv-x="790" 
d="M54 500h166l23 -272l118 272h145l29 -267l112 267h181l-241 -500h-162l-27 251l-109 -251h-170zM255 545l133 155h167l79 -155h-149l-29 56l-50 -56h-151z" />
    <glyph glyph-name="Ycircumflex" unicode="&#x176;" horiz-adv-x="631" 
d="M79 700h190l75 -225l154 225h212l-295 -395l-54 -305h-179l54 305zM341 900h167l79 -155h-149l-29 56l-50 -56h-151z" />
    <glyph glyph-name="ycircumflex" unicode="&#x177;" horiz-adv-x="549" 
d="M25 -44q27 0 46.5 3t34.5 10.5t26.5 20t23.5 30.5l-112 480h176l52 -289l130 289h191l-254 -485q-60 -115 -134.5 -165.5t-172.5 -50.5h-17t-18 1zM121 545l133 155h167l79 -155h-149l-29 56l-50 -56h-151z" />
    <glyph glyph-name="Ydieresis" unicode="&#x178;" horiz-adv-x="631" 
d="M269 700l75 -225l154 225h212l-295 -395l-54 -305h-179l54 305l-157 395h190zM251 758q-16 17 -15.5 40.5t12.5 45t33 36.5t46 15h4q32 0 51.5 -23.5t13.5 -56.5q-2 -18 -11 -32.5t-22.5 -25t-30 -16.5t-32.5 -6q-14 0 -27.5 5.5t-21.5 17.5zM497 735q-32 0 -51.5 23.5
t-13.5 56.5q1 17 10.5 32t23 25.5t30 16.5t32.5 6q14 0 27.5 -5.5t21.5 -18.5q16 -17 15.5 -40t-12.5 -44.5t-33 -36.5t-46 -15h-4z" />
    <glyph glyph-name="Zacute" unicode="&#x179;" horiz-adv-x="542" 
d="M576 900l-136 -145h-163l101 145h198zM591 700l-23 -138l-312 -389h250l-30 -173h-487l24 138l313 389h-240l31 173h474z" />
    <glyph glyph-name="zacute" unicode="&#x17a;" horiz-adv-x="455" 
d="M493 700l-136 -145h-163l101 145h198zM52 346l27 154h390l-20 -114l-212 -232h181l-27 -154h-410l21 114l211 232h-161z" />
    <glyph glyph-name="Zdotaccent" unicode="&#x17b;" horiz-adv-x="542" 
d="M13 138l313 389h-240l31 173h474l-23 -138l-312 -389h250l-30 -173h-487zM365 743q-18 0 -33.5 7t-25.5 19.5t-14 28.5t-1 34t13 34.5t24.5 29t32 19.5t35.5 7q37 0 59 -26.5t16 -63.5q-4 -18 -14.5 -34t-24.5 -28.5t-31.5 -19.5t-35.5 -7z" />
    <glyph glyph-name="zdotaccent" unicode="&#x17c;" horiz-adv-x="455" 
d="M2 114l211 232h-161l27 154h390l-20 -114l-212 -232h181l-27 -154h-410zM282 543q-18 0 -33.5 7t-25.5 19.5t-14 28.5t-1 34t13 34.5t24.5 29t32 19.5t35.5 7q37 0 59 -26.5t16 -63.5q-4 -18 -14.5 -34t-24.5 -28.5t-31.5 -19.5t-35.5 -7z" />
    <glyph glyph-name="Zcaron" unicode="&#x17d;" horiz-adv-x="542" 
d="M13 138l313 389h-240l31 173h474l-23 -138l-312 -389h250l-30 -173h-487zM343 900l30 -56l49 56h155l-133 -155h-167l-79 155h145z" />
    <glyph glyph-name="zcaron" unicode="&#x17e;" horiz-adv-x="455" 
d="M-19 0l21 114l211 232h-161l27 154h390l-20 -114l-212 -232h181l-27 -154h-410zM260 700l30 -56l49 56h155l-133 -155h-167l-79 155h145z" />
    <glyph glyph-name="florin" unicode="&#x192;" horiz-adv-x="461" 
d="M-50 -36q13 -9 29 -9q28 0 49.5 17.5t30.5 43.5l89 256h-69l29 159h95l37 106q14 39 33.5 72t46.5 56.5t62 36.5t79 13q38 0 80 -9l-29 -164q-14 9 -29 9q-28 0 -49.5 -17.5t-30.5 -43.5l-20 -59h74l-28 -159h-102l-105 -303q-28 -82 -76 -124q-32 -30 -68 -42t-75 -12
q-40 0 -82 9z" />
    <glyph glyph-name="Ohorn" unicode="&#x1a0;" horiz-adv-x="790" 
d="M638 87q-62 -56 -132.5 -79t-152.5 -23q-79 0 -142 32t-104.5 84.5t-58 120t-1.5 139.5q13 78 50.5 143.5t93.5 112t126.5 72.5t149.5 26q59 0 107 -15h2q23 0 47.5 16.5t32.5 58.5h154q-10 -52 -41 -92.5t-74 -58.5q5 -5 9.5 -10.5t9.5 -10.5q47 -54 62 -120t2 -142
q-26 -152 -140 -254zM225 350q-15 -84 27 -137t124 -53q41 0 78.5 14.5t67.5 40t50.5 60t27.5 75.5q14 84 -29 136q-44 54 -125 54q-42 0 -79 -14.5t-66 -40t-49 -60.5t-27 -75z" />
    <glyph glyph-name="ohorn" unicode="&#x1a1;" horiz-adv-x="583" 
d="M258 -14q-65 0 -113.5 25t-78.5 65t-40 90t1 100q10 56 37.5 102t67 78.5t90 50t107.5 17.5q47 0 87 -14h2q23 0 47.5 16.5t32.5 58.5h154q-11 -57 -47 -100t-86 -57q55 -83 37 -182q-10 -54 -37 -100t-66.5 -79.5t-89.5 -52t-105 -18.5zM191 250q-8 -46 14.5 -75
t65.5 -29q45 0 77.5 29t40.5 75t-14 75t-67 29q-43 0 -76 -29t-41 -75z" />
    <glyph glyph-name="Uhorn" unicode="&#x1af;" horiz-adv-x="645" 
d="M92 54q-70 69 -50 176l83 470h179l-80 -453q-15 -88 83 -88t114 88l79 453h48q36 0 57.5 20t27.5 55h154q-10 -54 -43 -95t-79 -58l-69 -392q-11 -60 -37.5 -106t-66.5 -76.5t-91.5 -46.5t-110.5 -16q-128 0 -198 69z" />
    <glyph glyph-name="uhorn" unicode="&#x1b0;" horiz-adv-x="578" 
d="M183 -14q-41 0 -72.5 14.5t-52 42t-28 67.5t1.5 91l53 299h166l-49 -278q-6 -40 11 -59.5t51 -19.5q38 0 63.5 23t33.5 68v-1l47 267h47q22 2 43.5 18.5t29.5 56.5h154q-10 -54 -43 -95t-79 -58l-74 -422h-166l9 51q-57 -65 -146 -65z" />
    <glyph glyph-name="uni0218" unicode="&#x218;" horiz-adv-x="588" 
d="M269 -15q-112 0 -181 46.5t-91 127.5l159 82q28 -87 128 -87q82 0 91 48q6 33 -46 55q-4 2 -22.5 8.5t-50.5 17.5q-93 32 -139 84q-47 54 -31 145q9 50 34 88t60.5 63.5t80 38.5t93.5 13q88 0 151.5 -41t93.5 -119l-153 -82q-33 73 -106 73q-63 0 -72 -45
q-6 -25 18 -41.5t90 -39.5q23 -8 41 -15t34 -15t30.5 -18t29.5 -23q63 -51 45 -162q-18 -100 -93.5 -151t-193.5 -51zM136 -277l48 220h154l-73 -220h-129z" />
    <glyph glyph-name="uni0219" unicode="&#x219;" horiz-adv-x="473" 
d="M210 -14q-166 0 -220 123l146 71q22 -57 83 -57q43 0 48 24q3 15 -21.5 25.5t-60.5 20.5q-26 7 -52.5 18.5t-47 31t-31 49t-2.5 71.5q7 39 28 67.5t50 47t64.5 27.5t72.5 9q69 0 121.5 -28.5t76.5 -82.5l-141 -68q-18 46 -62 46q-15 0 -27.5 -5t-16.5 -22
q-3 -14 6.5 -21.5t26.5 -13t39 -10.5t44 -14q23 -7 44 -18.5t35.5 -30.5t20.5 -46t-1 -65q-8 -42 -29.5 -70.5t-52 -46t-67 -25t-74.5 -7.5zM126 -57h154l-73 -220h-129z" />
    <glyph glyph-name="uni021A" unicode="&#x21a;" horiz-adv-x="545" 
d="M89 700h525l-31 -173h-172l-93 -527h-179l93 527h-173zM143 -57h154l-73 -220h-129z" />
    <glyph glyph-name="uni021B" unicode="&#x21b;" horiz-adv-x="394" 
d="M29 341l28 159h75l16 90l175 50l-25 -140h105l-29 -159h-104l-25 -145q-5 -28 8.5 -37.5t49.5 -9.5h17.5t20.5 1l-26 -150q-20 -3 -38.5 -4t-35.5 -1q-101 0 -140.5 48.5t-22.5 148.5l26 149h-75zM102 -52h154l-73 -220h-129z" />
    <glyph glyph-name="circumflex" unicode="&#x2c6;" horiz-adv-x="419" 
d="M72 545l133 155h167l79 -155h-149l-29 56l-50 -56h-151z" />
    <glyph glyph-name="caron" unicode="&#x2c7;" horiz-adv-x="419" 
d="M99 700h145l30 -56l49 56h155l-133 -155h-167z" />
    <glyph glyph-name="breve" unicode="&#x2d8;" horiz-adv-x="399" 
d="M259 537q-42 0 -75 11.5t-54.5 32.5t-29.5 50.5t-1 65.5h140q-8 -44 32 -44q39 0 47 44h140q-25 -160 -199 -160z" />
    <glyph glyph-name="dotaccent" unicode="&#x2d9;" horiz-adv-x="199" 
d="M161 543q-18 0 -33.5 7t-25.5 19.5t-14 28.5t-1 34t13 34.5t24.5 29t32 19.5t35.5 7q37 0 59 -26.5t16 -63.5q-4 -18 -14.5 -34t-24.5 -28.5t-31.5 -19.5t-35.5 -7z" />
    <glyph glyph-name="ring" unicode="&#x2da;" horiz-adv-x="321" 
d="M115 572q-35 39 -24 96t54.5 93t106.5 36q59 0 95 -40q34 -39 24 -96q-11 -57 -54 -92.5t-107 -35.5q-61 0 -95 39zM198 665q-5 -32 27 -32q36 0 40 31q3 14 -4.5 23.5t-24.5 9.5q-15 0 -25.5 -9t-12.5 -23z" />
    <glyph glyph-name="ogonek" unicode="&#x2db;" horiz-adv-x="233" 
d="M134 -197q-43 -17 -86 -17q-23 0 -42 5.5t-32.5 16.5t-19 28t-0.5 41q10 58 84 123h131q-53 -48 -57 -78q-3 -23 17 -23q11 0 23 3l-18 -99v0z" />
    <glyph glyph-name="tilde" unicode="&#x2dc;" horiz-adv-x="398" 
d="M79 548q4 44 17 75.5t31.5 51t41 28.5t45.5 9q19 0 37.5 -5.5t35.5 -15.5q11 -6 19 -10t15 -4q8 0 13.5 7t9.5 26h122q-5 -45 -17.5 -76t-31 -50.5t-41 -28t-45.5 -8.5q-40 0 -74 21q-19 14 -31 14q-20 0 -26 -34h-121v0z" />
    <glyph glyph-name="hungarumlaut" unicode="&#x2dd;" horiz-adv-x="486" 
d="M264 545l117 150h163l-122 -150h-158zM72 545l106 150h164l-113 -150h-157z" />
    <glyph glyph-name="gravecomb" unicode="&#x300;" horiz-adv-x="0" 
d="M-120 555l-95 145h188l61 -145h-154z" />
    <glyph glyph-name="acutecomb" unicode="&#x301;" horiz-adv-x="0" 
d="M-125 700h198l-136 -145h-163z" />
    <glyph glyph-name="uni0302" unicode="&#x302;" horiz-adv-x="0" 
d="M-347 545l133 155h167l79 -155h-149l-29 56l-50 -56h-151z" />
    <glyph glyph-name="tildecomb" unicode="&#x303;" horiz-adv-x="0" 
d="M-326 548q4 44 17 75.5t31.5 51t41 28.5t45.5 9q19 0 37.5 -5.5t35.5 -15.5q11 -6 19 -10t15 -4q8 0 13.5 7t9.5 26h122q-5 -45 -17.5 -76t-31 -50.5t-41 -28t-45.5 -8.5q-40 0 -74 21q-19 14 -31 14q-20 0 -26 -34h-121v0z" />
    <glyph glyph-name="uni0304" unicode="&#x304;" horiz-adv-x="0" 
d="M-275 554l22 130h310l-23 -130h-309z" />
    <glyph glyph-name="uni0306" unicode="&#x306;" horiz-adv-x="0" 
d="M-145 537q-42 0 -75 11.5t-54.5 32.5t-29.5 50.5t-1 65.5h140q-8 -44 32 -44q39 0 47 44h140q-25 -160 -199 -160z" />
    <glyph glyph-name="uni0307" unicode="&#x307;" horiz-adv-x="0" 
d="M-58 543q-18 0 -33.5 7t-25.5 19.5t-14 28.5t-1 34t13 34.5t24.5 29t32 19.5t35.5 7q37 0 59 -26.5t16 -63.5q-4 -18 -14.5 -34t-24.5 -28.5t-31.5 -19.5t-35.5 -7z" />
    <glyph glyph-name="uni0308" unicode="&#x308;" horiz-adv-x="0" 
d="M-296 558q-16 17 -15.5 40.5t12.5 45t33 36.5t46 15h4q32 0 51.5 -23.5t13.5 -56.5q-2 -18 -11 -32.5t-22.5 -25t-30 -16.5t-32.5 -6q-14 0 -27.5 5.5t-21.5 17.5zM-50 535q-32 0 -51.5 23.5t-13.5 56.5q1 17 10.5 32t23 25.5t30 16.5t32.5 6q14 0 27.5 -5.5t21.5 -18.5
q16 -17 15.5 -40t-12.5 -44.5t-33 -36.5t-46 -15h-4z" />
    <glyph glyph-name="uni030A" unicode="&#x30a;" horiz-adv-x="0" 
d="M-203 572q-35 39 -24 96t54.5 93t106.5 36q59 0 95 -40q34 -39 24 -96q-11 -57 -54 -92.5t-107 -35.5q-61 0 -95 39zM-120 665q-5 -32 27 -32q36 0 40 31q3 14 -4.5 23.5t-24.5 9.5q-15 0 -25.5 -9t-12.5 -23z" />
    <glyph glyph-name="uni030B" unicode="&#x30b;" horiz-adv-x="0" 
d="M-222 545l117 150h163l-122 -150h-158zM-414 545l106 150h164l-113 -150h-157z" />
    <glyph glyph-name="uni030C" unicode="&#x30c;" horiz-adv-x="0" 
d="M-320 700h145l30 -56l49 56h155l-133 -155h-167z" />
    <glyph glyph-name="uni0312" unicode="&#x312;" horiz-adv-x="0" 
d="M110 985l-49 -220h-154l74 220h129z" />
    <glyph glyph-name="uni0326" unicode="&#x326;" horiz-adv-x="0" 
d="M-277 -277l48 220h154l-73 -220h-129z" />
    <glyph glyph-name="uni0327" unicode="&#x327;" horiz-adv-x="0" 
d="M-88 -132q-16 -91 -192 -91q-14 0 -28 0.5t-30 1.5l19 109q12 -1 22.5 -1.5t19.5 -0.5q53 0 56 16q3 17 -50 20l14 78h134l-8 -46q53 -25 43 -86z" />
    <glyph glyph-name="uni0328" unicode="&#x328;" horiz-adv-x="0" 
d="M-104 -197q-43 -17 -86 -17q-23 0 -42 5.5t-32.5 16.5t-19 28t-0.5 41q10 58 84 123h131q-53 -48 -57 -78q-3 -23 17 -23q11 0 23 3l-18 -99v0z" />
    <glyph glyph-name="uni0394" unicode="&#x394;" horiz-adv-x="660" 
d="M516 700l105 -700h-670l351 700h214zM224 155h194l-36 342z" />
    <glyph glyph-name="uni03A9" unicode="&#x3a9;" horiz-adv-x="775" 
d="M-9 0l29 168h73q-72 85 -51 207q13 75 49.5 136t96.5 109q65 51 134.5 73t150.5 22q73 0 134.5 -27.5t103 -75t59.5 -111.5t4 -136q-21 -118 -112 -197h63l-29 -168h-281l30 173q57 20 97 67t51 110q15 82 -30 136q-44 54 -125 54q-42 0 -79 -14.5t-66 -40t-48.5 -60.5
t-26.5 -75q-11 -63 12 -110t72 -67l-30 -173h-281z" />
    <glyph glyph-name="pi" unicode="&#x3c0;" horiz-adv-x="661" 
d="M59 500h630l-27 -157h-75l-60 -343h-166l60 343h-147l-60 -343h-166l60 343h-76z" />
    <glyph glyph-name="uni0401" unicode="&#x401;" horiz-adv-x="535" 
d="M134 700h445l-30 -167h-265l-18 -98h242l-30 -164h-240l-18 -103h270l-29 -168h-450zM214 758q-16 17 -15.5 40.5t12.5 45t33 36.5t46 15h4q32 0 51.5 -23.5t13.5 -56.5q-2 -18 -11 -32.5t-22.5 -25t-30 -16.5t-32.5 -6q-14 0 -27.5 5.5t-21.5 17.5zM460 735
q-32 0 -51.5 23.5t-13.5 56.5q1 17 10.5 32t23 25.5t30 16.5t32.5 6q14 0 27.5 -5.5t21.5 -18.5q16 -17 15.5 -40t-12.5 -44.5t-33 -36.5t-46 -15h-4z" />
    <glyph glyph-name="uni0402" unicode="&#x402;" horiz-adv-x="695" 
d="M59 527l30 173h525l-31 -173h-182l-17 -93q57 16 118 16q94 0 137 -52.5t26 -143.5l-9 -52q-9 -55 -26.5 -95.5t-45.5 -67.5t-68.5 -40t-97.5 -13h-16.5t-17.5 1l28 159q34 0 48.5 10.5t19.5 45.5l5 31q5 31 -8.5 44t-43.5 13q-35 0 -77 -15l-48 -275h-179l93 527h-163z
" />
    <glyph glyph-name="uni0403" unicode="&#x403;" horiz-adv-x="475" 
d="M555 899l-136 -145h-163l101 145h198zM134 700h414l-30 -173h-235l-93 -527h-179z" />
    <glyph glyph-name="uni0404" unicode="&#x404;" horiz-adv-x="722" 
d="M109 93q-88 107 -62 267q13 78 49.5 143t91 112t124 73.5t148.5 26.5q103 0 176 -44.5t110 -122.5l-164 -87q-36 82 -139 82q-61 0 -111.5 -29.5t-79.5 -81.5h251l-30 -164h-249q11 -51 49 -81t98 -30q102 0 164 87l147 -95q-57 -78 -140.5 -121t-182.5 -43
q-162 0 -250 108z" />
    <glyph glyph-name="uni0405" unicode="&#x405;" horiz-adv-x="588" 
d="M156 241q28 -87 128 -87q82 0 91 48q6 33 -46 55q-4 2 -22.5 8.5t-50.5 17.5q-93 32 -139 84q-47 54 -31 145q9 50 34 88t60.5 63.5t80 38.5t93.5 13q88 0 151.5 -41t93.5 -119l-153 -82q-33 73 -106 73q-63 0 -72 -45q-6 -25 18 -41.5t90 -39.5q23 -8 41 -15t34 -15
t30.5 -18t29.5 -23q63 -51 45 -162q-18 -100 -93.5 -151t-193.5 -51q-112 0 -181 46.5t-91 127.5z" />
    <glyph glyph-name="uni0406" unicode="&#x406;" horiz-adv-x="289" 
d="M134 700h179l-123 -700h-179z" />
    <glyph glyph-name="uni0407" unicode="&#x407;" horiz-adv-x="289" 
d="M134 700h179l-123 -700h-179zM81 758q-16 17 -15.5 40.5t12.5 45t33 36.5t46 15h4q32 0 51.5 -23.5t13.5 -56.5q-2 -18 -11 -32.5t-22.5 -25t-30 -16.5t-32.5 -6q-14 0 -27.5 5.5t-21.5 17.5zM327 735q-32 0 -51.5 23.5t-13.5 56.5q1 17 10.5 32t23 25.5t30 16.5t32.5 6
q14 0 27.5 -5.5t21.5 -18.5q16 -17 15.5 -40t-12.5 -44.5t-33 -36.5t-46 -15h-4z" />
    <glyph glyph-name="uni0408" unicode="&#x408;" horiz-adv-x="569" 
d="M166 217q10 -31 29 -44.5t52 -13.5q82 0 94 71l83 470h179l-84 -473q-21 -123 -94 -182.5t-191 -59.5q-175 0 -230 145z" />
    <glyph glyph-name="uni0409" unicode="&#x409;" horiz-adv-x="938" 
d="M-10 165q6 -1 12 -1h11q44 0 68 25.5t36 91.5l74 419h488l-41 -236h73q98 0 161 -69q64 -71 46 -173q-9 -55 -35.5 -96.5t-65 -69.5t-86.5 -42t-102 -14h-252l93 527h-131l-44 -254q-15 -85 -44 -139t-67.5 -85t-83 -42.5t-89.5 -11.5q-26 0 -50 3zM586 170h73
q70 0 81 62t-59 62h-73z" />
    <glyph glyph-name="uni040A" unicode="&#x40a;" horiz-adv-x="943" 
d="M11 0l123 700h179l-41 -235h192l41 235h179l-41 -235h73q98 0 161 -70q64 -71 46 -173q-9 -55 -35.5 -96.5t-65 -69.5t-86.5 -42t-102 -14h-252l52 294h-192l-52 -294h-179zM664 171q71 0 81 61q11 62 -58 62h-74l-22 -123h73z" />
    <glyph glyph-name="uni040B" unicode="&#x40b;" horiz-adv-x="700" 
d="M89 700h525l-31 -173h-182l-16 -89q60 17 115 17q91 0 134.5 -51t30.5 -145l-44 -259h-177l41 237q6 33 -8.5 45.5t-47.5 12.5q-38 0 -71 -13l-50 -282h-179l93 527h-163z" />
    <glyph glyph-name="uni040C" unicode="&#x40c;" horiz-adv-x="631" 
d="M11 0l123 700h179l-50 -284l239 284h209l-298 -348l178 -352h-185l-160 319l-56 -319h-179zM416 899h198l-136 -145h-163z" />
    <glyph glyph-name="uni040E" unicode="&#x40e;" horiz-adv-x="629" 
d="M99 167q45 0 79.5 12.5t66.5 45.5l-151 475h176l86 -287l155 287h191l-280 -489q-32 -56 -66.5 -96t-76.5 -65.5t-93.5 -37.5t-115.5 -12zM268 893h323l-24 -140h-323z" />
    <glyph glyph-name="uni040F" unicode="&#x40f;" horiz-adv-x="650" 
d="M11 0l123 700h179l-93 -527h182l93 527h179l-123 -700h-181l-24 -134h-178l24 134h-181z" />
    <glyph glyph-name="uni0410" unicode="&#x410;" horiz-adv-x="671" 
d="M305 700h218l108 -700h-191l-11 101h-233l-48 -101h-197zM412 255l-26 242l-116 -242h142z" />
    <glyph glyph-name="uni0411" unicode="&#x411;" horiz-adv-x="592" 
d="M11 0l123 700h464l-30 -173h-285l-15 -85h110q100 0 156 -66q56 -65 39 -164q-17 -102 -87.5 -157t-185.5 -55h-289zM322 164q29 0 49 14.5t25 43.5t-9.5 44t-43.5 15h-104l-20 -117h103z" />
    <glyph glyph-name="uni0412" unicode="&#x412;" horiz-adv-x="602" 
d="M134 700h266q104 0 162 -58t43 -148q-15 -89 -90 -137q73 -56 60 -159q-6 -45 -27 -81.5t-56 -62.5t-83 -40t-108 -14h-290zM218 160h108q29 0 49 16.5t25 42.5q5 27 -8.5 43t-43.5 16h-109zM266 430h88q27 0 46.5 14.5t23.5 40.5q4 25 -9.5 40t-40.5 15h-89z" />
    <glyph glyph-name="uni0413" unicode="&#x413;" horiz-adv-x="475" 
d="M548 700l-30 -173h-235l-93 -527h-179l123 700h414z" />
    <glyph glyph-name="uni0414" unicode="&#x414;" horiz-adv-x="712" 
d="M-3 173h73q61 74 88 222l53 305h487l-93 -527h76l-55 -307h-178l23 134h-326l-24 -134h-178zM427 173l64 361h-130l-25 -141q-25 -141 -74 -220h165z" />
    <glyph glyph-name="uni0415" unicode="&#x415;" horiz-adv-x="535" 
d="M549 533h-265l-18 -98h242l-30 -164h-240l-18 -103h270l-29 -168h-450l123 700h445z" />
    <glyph glyph-name="uni0416" unicode="&#x416;" horiz-adv-x="927" 
d="M-39 0l277 364l-145 336h187l120 -305l54 305h179l-54 -305l215 305h204l-269 -358l144 -342h-187l-121 312l-55 -312h-179l53 304l-222 -304h-201z" />
    <glyph glyph-name="uni0417" unicode="&#x417;" horiz-adv-x="560" 
d="M239 -15q-195 0 -248 164l159 84q24 -79 111 -79q84 0 96 62q10 54 -57 60l-106 1l27 155h70q81 0 91 58q8 58 -64 58q-66 0 -107 -74l-144 93q43 69 114 108.5t164 39.5q105 0 170 -63q64 -63 48 -157q-17 -96 -97 -142q85 -58 66 -166q-17 -97 -93 -149.5t-200 -52.5z
" />
    <glyph glyph-name="uni0418" unicode="&#x418;" horiz-adv-x="675" 
d="M11 0l123 700h179l-60 -341l307 341h138l-123 -700h-178l60 341l-307 -341h-139z" />
    <glyph glyph-name="uni0419" unicode="&#x419;" horiz-adv-x="675" 
d="M11 0l123 700h179l-60 -341l307 341h138l-123 -700h-178l60 341l-307 -341h-139zM276 894h323l-24 -140h-323z" />
    <glyph glyph-name="uni041A" unicode="&#x41a;" horiz-adv-x="631" 
d="M134 700h179l-50 -284l239 284h209l-298 -348l178 -352h-185l-160 319l-56 -319h-179z" />
    <glyph glyph-name="uni041B" unicode="&#x41b;" horiz-adv-x="665" 
d="M-10 165q6 -1 12 -1h11q44 0 68 25.5t36 91.5l74 419h498l-123 -700h-179l93 527h-141l-44 -254q-15 -85 -43.5 -139t-66.5 -84.5t-83 -42t-91 -11.5h-25t-25 2z" />
    <glyph glyph-name="uni041C" unicode="&#x41c;" horiz-adv-x="825" 
d="M11 0l123 700h179l114 -302l231 302h190l-123 -700h-178l66 378l-219 -282h-18l-119 287l-67 -383h-179z" />
    <glyph glyph-name="uni041D" unicode="&#x41d;" horiz-adv-x="665" 
d="M134 700h179l-46 -259h197l46 259h178l-123 -700h-178l47 269h-197l-47 -269h-179z" />
    <glyph glyph-name="uni041E" unicode="&#x41e;" horiz-adv-x="790" 
d="M638 87q-62 -56 -132.5 -79t-152.5 -23q-79 0 -142 32t-104.5 84.5t-58 120t-1.5 139.5q13 78 50.5 143.5t93.5 112t126.5 72.5t149.5 26q159 0 247 -112q89 -112 64 -262q-26 -152 -140 -254zM225 350q-15 -84 27 -137t124 -53q41 0 78.5 14.5t67.5 40t50.5 60
t27.5 75.5q14 84 -29 136q-44 54 -125 54q-42 0 -79 -14.5t-66 -40t-49 -60.5t-27 -75z" />
    <glyph glyph-name="uni041F" unicode="&#x41f;" horiz-adv-x="650" 
d="M134 700h540l-123 -700h-179l93 527h-182l-93 -527h-179z" />
    <glyph glyph-name="uni0420" unicode="&#x420;" horiz-adv-x="592" 
d="M134 700h264q105 0 167 -72q62 -71 46 -183q-8 -58 -34 -102t-64.5 -73.5t-88 -44.5t-105.5 -15h-92l-37 -210h-179zM344 380q35 0 59 20.5t30 54.5t-11.5 54t-53.5 20h-85l-26 -149h87z" />
    <glyph glyph-name="uni0421" unicode="&#x421;" horiz-adv-x="722" 
d="M109 93q-88 107 -62 267q13 78 49.5 143t91 112t124 73.5t148.5 26.5q103 0 175.5 -44.5t110.5 -122.5l-164 -87q-40 79 -139 79q-43 0 -79.5 -14t-65 -39.5t-47.5 -60.5t-26 -76q-15 -82 26 -137q41 -53 120 -53q101 0 164 84l147 -95q-57 -78 -140.5 -121t-182.5 -43
q-162 0 -250 108z" />
    <glyph glyph-name="uni0422" unicode="&#x422;" horiz-adv-x="545" 
d="M89 700h525l-31 -173h-172l-93 -527h-179l93 527h-173z" />
    <glyph glyph-name="uni0423" unicode="&#x423;" horiz-adv-x="629" 
d="M99 167q45 0 79.5 12.5t66.5 45.5l-151 475h176l86 -287l155 287h191l-280 -489q-32 -56 -66.5 -96t-76.5 -65.5t-93.5 -37.5t-115.5 -12z" />
    <glyph glyph-name="uni0424" unicode="&#x424;" horiz-adv-x="833" 
d="M88 164q-70 79 -49 196q22 121 114.5 192t246.5 86l14 82h172l-15 -84q137 -21 208 -101q70 -79 50 -195q-10 -60 -39 -108t-75 -83t-108 -57.5t-137 -29.5l-15 -82h-172l15 84q-138 19 -210 100zM217 350q-20 -104 110 -123l44 249q-134 -19 -154 -126zM499 227
q133 19 153 123q9 54 -17 85t-92 41z" />
    <glyph glyph-name="uni0425" unicode="&#x425;" horiz-adv-x="632" 
d="M-39 0l274 363l-143 337h194l73 -173l131 173h208l-264 -350l148 -350h-193l-79 186l-141 -186h-208z" />
    <glyph glyph-name="uni0426" unicode="&#x426;" horiz-adv-x="702" 
d="M11 0l123 700h184l-93 -527h182l93 527h183l-93 -527h80l-54 -307h-179l24 134h-450z" />
    <glyph glyph-name="uni0427" unicode="&#x427;" horiz-adv-x="647" 
d="M313 213q-132 0 -193 63.5t-41 178.5l43 245h178l-40 -231q-8 -46 13 -64.5t73 -19.5q45 0 93 13l53 302h178l-123 -700h-178l39 223q-23 -5 -47 -7.5t-48 -2.5z" />
    <glyph glyph-name="uni0428" unicode="&#x428;" horiz-adv-x="949" 
d="M134 700h179l-93 -527h152l92 527h179l-93 -527h152l92 527h179l-123 -700h-839z" />
    <glyph glyph-name="uni0429" unicode="&#x429;" horiz-adv-x="992" 
d="M11 0l123 700h179l-93 -527h152l92 527h179l-93 -527h152l92 527h179l-93 -527h80l-54 -307h-179l24 134h-740z" />
    <glyph glyph-name="uni042A" unicode="&#x42a;" horiz-adv-x="697" 
d="M79 700h339l-37 -210h92q99 0 161 -75q63 -76 45 -180q-20 -111 -97 -173t-195 -62h-271l93 527h-160zM417 171q31 0 54.5 20.5t29.5 53.5t-11 54t-47 21h-92l-27 -149h93z" />
    <glyph glyph-name="uni042B" unicode="&#x42b;" horiz-adv-x="869" 
d="M11 0l123 700h179l-37 -210h93q99 0 161 -75q62 -74 44 -180q-20 -111 -97 -173t-195 -62h-271zM714 700h178l-123 -700h-178zM312 171q32 0 55.5 20.5t28.5 53.5t-11 54t-47 21h-92l-26 -149h92z" />
    <glyph glyph-name="uni042C" unicode="&#x42c;" horiz-adv-x="592" 
d="M134 700h179l-37 -210h93q99 0 161 -75q62 -74 44 -180q-20 -111 -97 -173t-195 -62h-271zM220 171h92q32 0 55.5 20.5t28.5 53.5t-11 54t-47 21h-92z" />
    <glyph glyph-name="uni042D" unicode="&#x42d;" horiz-adv-x="720" 
d="M172 238q40 -81 144 -81q61 0 110 29.5t78 81.5h-251l30 164h251q-11 52 -49.5 81.5t-98.5 29.5q-106 0 -167 -85l-143 92q54 78 138.5 121.5t183.5 43.5q158 0 247 -108q89 -109 64 -267q-12 -78 -47.5 -143t-89.5 -112t-123.5 -73.5t-148.5 -26.5q-102 0 -177.5 44.5
t-112.5 122.5z" />
    <glyph glyph-name="uni042E" unicode="&#x42e;" horiz-adv-x="1068" 
d="M134 700h179l-45 -254h89q24 61 63.5 110.5t90 85t111 54.5t126.5 19q81 1 144.5 -30.5t105 -84t57.5 -120.5t1 -140q-25 -148 -142 -253q-114 -102 -281 -102q-130 0 -215 82t-91 207h-89l-48 -274h-179zM503 350q-15 -84 27 -137t124 -53q80 0 145 53t80 137
q15 82 -30 136q-44 54 -125 54q-42 0 -79 -14.5t-66 -40t-49 -60.5t-27 -75z" />
    <glyph glyph-name="uni042F" unicode="&#x42f;" horiz-adv-x="627" 
d="M178 252q-30 16 -51.5 40t-34 53t-15.5 62t3 68q19 94 96 159q78 66 198 66h277l-123 -700h-179l40 226h-29l-176 -226h-210zM255 456q-6 -34 13.5 -56.5t53.5 -22.5h94l28 158h-95q-35 0 -61 -22t-33 -57z" />
    <glyph glyph-name="uni0430" unicode="&#x430;" 
d="M59 67q-51 81 -33 190q9 52 31.5 98.5t57 81.5t80.5 56t102 21q96 0 138 -69l10 55h166l-88 -500h-166l7 39q-59 -53 -146 -53q-107 0 -159 81zM192 250q-7 -49 15 -79t70 -30t81.5 29t42.5 77v3q8 49 -15 79t-71 30q-49 0 -82 -30.5t-41 -78.5z" />
    <glyph glyph-name="uni0431" unicode="&#x431;" horiz-adv-x="570" 
d="M73 64q-65 80 -44 202q13 74 33 125t52 89.5t79 68t115 59.5l38 17q5 3 13.5 6.5t17 8t16.5 8t11 6.5q8 6 21.5 14.5t19.5 15.5q7 8 15.5 17.5t15.5 21.5l125 -78q-15 -33 -37 -57.5t-49 -42.5t-58 -31.5t-64 -25.5q-69 -25 -103 -45q-32 -20 -50 -48q58 43 134 43
q80 0 137 -65q57 -64 40 -164q-9 -55 -35 -96.5t-64.5 -70t-87 -43t-101.5 -14.5q-124 0 -190 79zM195 221q-7 -40 16 -66t65 -26q41 0 72 25.5t37 63.5q6 39 -16 64.5t-64 25.5q-39 0 -71.5 -23.5t-38.5 -63.5z" />
    <glyph glyph-name="uni0432" unicode="&#x432;" horiz-adv-x="519" 
d="M92 500h262q76 0 117 -44q40 -44 30 -108q-11 -68 -69 -97q62 -41 50 -115q-22 -136 -199 -136h-279zM185 126h90q40 0 46 35q6 33 -33 33h-91zM218 310h77q40 0 45 32q7 34 -33 34h-78z" />
    <glyph glyph-name="uni0433" unicode="&#x433;" horiz-adv-x="407" 
d="M451 500l-27 -159h-194l-60 -341h-166l88 500h359z" />
    <glyph glyph-name="uni0434" unicode="&#x434;" horiz-adv-x="600" 
d="M-11 157h59q48 61 68 170l31 173h417l-60 -343h64l-51 -291h-160l24 134h-260l-24 -134h-160zM278 327q-9 -54 -23.5 -96.5t-31.5 -73.5h119l34 195h-94z" />
    <glyph glyph-name="uni0435" unicode="&#x435;" horiz-adv-x="568" 
d="M72 65q-65 81 -46 195q9 55 35.5 102t66 80.5t90 52.5t106.5 19q112 0 177 -77q66 -78 44 -186q-3 -15 -6.5 -30.5t-10.5 -31.5h-343q13 -61 96 -61q60 0 99 36l106 -97q-87 -81 -218 -81q-130 0 -196 79zM315 374q-74 0 -110 -69h189q-5 69 -79 69z" />
    <glyph glyph-name="uni0436" unicode="&#x436;" horiz-adv-x="779" 
d="M-39 0l203 261l-101 239h168l84 -205l36 205h164l-37 -210l153 210h184l-199 -258l110 -242h-170l-91 214l-38 -214h-164l36 206l-159 -206h-179z" />
    <glyph glyph-name="uni0437" unicode="&#x437;" horiz-adv-x="456" 
d="M190 -15q-163 0 -206 120l138 71q18 -53 81 -53q51 0 55 34q5 31 -37 31h-60l22 126h50q40 0 45 30q2 15 -8.5 24t-29.5 9q-50 0 -82 -53l-119 76q85 114 225 114q85 0 135 -48q50 -49 40 -110q-12 -73 -75 -105q67 -41 53 -124q-12 -66 -70 -104t-157 -38z" />
    <glyph glyph-name="uni0438" unicode="&#x438;" horiz-adv-x="580" 
d="M92 500h162l-40 -227l234 227h128l-88 -500h-162l40 227l-234 -227h-128z" />
    <glyph glyph-name="uni0439" unicode="&#x439;" horiz-adv-x="580" 
d="M92 500h162l-40 -227l234 227h128l-88 -500h-162l40 227l-234 -227h-128zM206 694h323l-24 -140h-323z" />
    <glyph glyph-name="uni043A" unicode="&#x43a;" horiz-adv-x="537" 
d="M92 500h166l-36 -204l163 204h188l-209 -250l129 -250h-181l-104 216l-38 -216h-166z" />
    <glyph glyph-name="uni043B" unicode="&#x43b;" horiz-adv-x="562" 
d="M-7 154q5 -1 9 -1.5t9 -0.5q55 0 68 79l47 269h432l-88 -500h-166l60 341h-100l-24 -134q-20 -110 -72.5 -160t-146.5 -50q-26 0 -54 3z" />
    <glyph glyph-name="uni043C" unicode="&#x43c;" horiz-adv-x="648" 
d="M4 0l88 500h161l73 -183l145 183h173l-88 -500h-160l42 241l-136 -166h-18l-77 166l-42 -241h-161z" />
    <glyph glyph-name="uni043D" unicode="&#x43d;" horiz-adv-x="575" 
d="M92 500h166l-30 -172h147l30 172h166l-88 -500h-166l30 172h-147l-30 -172h-166z" />
    <glyph glyph-name="uni043E" unicode="&#x43e;" horiz-adv-x="583" 
d="M258 -14q-65 0 -113.5 25t-78.5 65t-40 90t1 100q10 56 37.5 102t67 78.5t90 50t107.5 17.5q120 0 183 -86t44 -192q-10 -54 -37 -100t-66.5 -79.5t-89.5 -52t-105 -18.5zM191 250q-8 -46 14.5 -75t65.5 -29q45 0 77.5 29t40.5 75t-14 75t-67 29q-43 0 -76 -29t-41 -75z
" />
    <glyph glyph-name="uni043F" unicode="&#x43f;" horiz-adv-x="575" 
d="M92 500h479l-88 -500h-166l60 343h-147l-60 -343h-166z" />
    <glyph glyph-name="uni0440" unicode="&#x440;" 
d="M92 500h166l-7 -41q56 55 142 55q103 0 158 -82q56 -82 38 -192q-9 -51 -31 -97t-56 -81t-79 -55.5t-100 -20.5q-98 0 -143 71l-45 -257h-166zM213 247q-7 -48 17 -77t70 -29q48 0 81.5 29t41.5 80t-14 80t-70 29q-46 0 -78 -28.5t-46 -76.5z" />
    <glyph glyph-name="uni0441" unicode="&#x441;" horiz-adv-x="532" 
d="M74 65q-66 79 -48 195q9 55 35.5 102t66 80.5t90 52.5t106.5 19q79 0 133.5 -35.5t81.5 -95.5l-151 -79q-23 48 -78 48q-45 0 -78 -28t-40 -73q-8 -45 15.5 -74t65.5 -29q58 0 93 50l132 -84q-38 -63 -100.5 -95.5t-137.5 -32.5q-120 0 -186 79z" />
    <glyph glyph-name="uni0442" unicode="&#x442;" horiz-adv-x="470" 
d="M52 500h454l-27 -159h-144l-60 -341h-166l60 341h-145z" />
    <glyph glyph-name="uni0443" unicode="&#x443;" horiz-adv-x="549" 
d="M25 -44q27 0 46.5 3t34.5 10.5t26.5 20t23.5 30.5l-112 480h176l52 -289l130 289h191l-254 -485q-60 -115 -134.5 -165.5t-172.5 -50.5h-17t-18 1z" />
    <glyph glyph-name="uni0444" unicode="&#x444;" horiz-adv-x="709" 
d="M62 88q-53 73 -36 171q17 100 91.5 166.5t200.5 82.5l34 192h162l-34 -195q114 -21 166 -94q53 -74 37 -170q-17 -102 -92.5 -168t-201.5 -82l-33 -191h-162l34 194q-112 21 -166 94zM417 149q88 24 102 101q14 78 -66 101zM189 250q-13 -76 66 -100l36 200
q-88 -22 -102 -100z" />
    <glyph glyph-name="uni0445" unicode="&#x445;" horiz-adv-x="549" 
d="M-44 0l228 260l-133 240h176l65 -117l102 117h192l-220 -250l139 -250h-176l-71 127l-111 -127h-191z" />
    <glyph glyph-name="uni0446" unicode="&#x446;" horiz-adv-x="612" 
d="M4 0l88 500h166l-60 -343h131l61 343h166l-60 -343h85l-52 -291h-160l24 134h-389z" />
    <glyph glyph-name="uni0447" unicode="&#x447;" horiz-adv-x="543" 
d="M69 181q-46 53 -32 135l32 184h167l-28 -158q-10 -61 61 -61q27 0 66 11l37 208h167l-88 -500h-167l24 138q-55 -11 -94 -11q-99 0 -145 54z" />
    <glyph glyph-name="uni0448" unicode="&#x448;" horiz-adv-x="835" 
d="M92 500h166l-60 -343h122l60 343h164l-60 -343h121l60 343h166l-88 -500h-739z" />
    <glyph glyph-name="uni0449" unicode="&#x449;" horiz-adv-x="862" 
d="M4 0l88 500h166l-60 -343h114l60 343h164l-60 -343h114l60 343h166l-60 -343h74l-52 -291h-159l24 134h-639z" />
    <glyph glyph-name="uni044A" unicode="&#x44a;" horiz-adv-x="583" 
d="M44 500h290l-25 -141h82q82 0 129 -54q46 -54 33 -135q-32 -170 -226 -170h-248l60 341h-122zM270 139h72q43 0 51 41q3 18 -7 29t-30 11h-71z" />
    <glyph glyph-name="uni044B" unicode="&#x44b;" horiz-adv-x="747" 
d="M92 500h166l-25 -141h82q83 0 130 -54q46 -54 33 -135q-32 -170 -226 -170h-248zM489 0l88 500h166l-88 -500h-166zM194 139h72q20 0 34.5 11t17.5 30q3 18 -7 29t-30 11h-72z" />
    <glyph glyph-name="uni044C" unicode="&#x44c;" horiz-adv-x="507" 
d="M92 500h166l-25 -141h82q83 0 130 -54q46 -54 33 -135q-32 -170 -226 -170h-248zM194 139h72q20 0 34.5 11t17.5 30q3 18 -7 29t-30 11h-72z" />
    <glyph glyph-name="uni044D" unicode="&#x44d;" horiz-adv-x="532" 
d="M134 191q21 -55 91 -55q60 0 100 46h-135l24 136h135q-22 46 -84 46q-69 0 -106 -57l-125 79q40 60 104.5 94t139.5 34q118 0 183 -81q65 -80 45 -193q-10 -58 -36 -105t-65.5 -80t-90.5 -51t-109 -18q-73 0 -130.5 36t-82.5 94z" />
    <glyph glyph-name="uni044E" unicode="&#x44e;" horiz-adv-x="807" 
d="M4 0l88 500h166l-30 -172h50q17 41 44 75t62 59t78 38.5t93 13.5q63 0 110 -24t76 -63.5t39.5 -89t0.5 -99.5q-16 -103 -99 -178q-81 -74 -198 -74q-50 0 -89 14t-68 38.5t-46.5 58.5t-23.5 75h-57l-30 -172h-166zM416 250q-7 -46 15 -75t67 -29q43 0 77 29t41 75
q8 46 -14.5 75t-67.5 29q-43 0 -76.5 -29t-41.5 -75z" />
    <glyph glyph-name="uni044F" unicode="&#x44f;" horiz-adv-x="532" 
d="M119 172q-39 26 -56 68.5t-10 87.5q11 73 69 122q59 50 153 50h253l-88 -500h-164l25 142h-21l-120 -142h-191zM214 316q-2 -17 7.5 -29.5t31.5 -12.5h71l15 86h-71q-22 0 -36.5 -13t-17.5 -31z" />
    <glyph glyph-name="uni0451" unicode="&#x451;" horiz-adv-x="568" 
d="M72 65q-65 81 -46 195q9 55 35.5 102t66 80.5t90 52.5t106.5 19q112 0 177 -77q66 -78 44 -186q-3 -15 -6.5 -30.5t-10.5 -31.5h-343q13 -61 96 -61q60 0 99 36l106 -97q-87 -81 -218 -81q-130 0 -196 79zM196 565q-16 17 -15.5 40.5t12.5 45t33 36.5t46 15h4
q32 0 51.5 -23.5t13.5 -56.5q-2 -18 -11 -32.5t-22.5 -25t-30 -16.5t-32.5 -6q-14 0 -27.5 5.5t-21.5 17.5zM442 542q-32 0 -51.5 23.5t-13.5 56.5q1 17 10.5 32t23 25.5t30 16.5t32.5 6q14 0 27.5 -5.5t21.5 -18.5q16 -17 15.5 -40t-12.5 -44.5t-33 -36.5t-46 -15h-4z
M315 374q-74 0 -110 -69h189q-5 69 -79 69z" />
    <glyph glyph-name="uni0452" unicode="&#x452;" horiz-adv-x="587" 
d="M14 0l95 539h-58l19 106h57l10 55h166l-10 -55h136l-19 -106h-135l-18 -101q58 64 145 64q40 0 72.5 -14.5t52.5 -42t27.5 -67.5t-1.5 -91l-50 -287q-10 -55 -28.5 -95.5t-47.5 -67.5t-71 -40t-98 -13h-16t-16 1l27 154q34 0 56 12t28 49l46 266q7 40 -10 60t-52 20
q-73 0 -94 -78l-47 -268h-166z" />
    <glyph glyph-name="uni0453" unicode="&#x453;" horiz-adv-x="407" 
d="M470 700l-136 -145h-163l101 145h198zM92 500h359l-27 -159h-194l-60 -341h-166z" />
    <glyph glyph-name="uni0454" unicode="&#x454;" horiz-adv-x="532" 
d="M72 66q-66 81 -46 194q10 56 36.5 103t66.5 80.5t90.5 52t107.5 18.5q73 0 130.5 -36t82.5 -94l-142 -75q-21 55 -89 55q-60 0 -100 -46h133l-24 -136h-135q22 -46 81 -46q71 0 110 57l124 -79q-40 -60 -104.5 -94t-139.5 -34q-116 0 -182 80z" />
    <glyph glyph-name="uni0455" unicode="&#x455;" horiz-adv-x="473" 
d="M136 180q22 -57 83 -57q43 0 48 24q3 15 -21.5 25.5t-60.5 20.5q-26 7 -52.5 18.5t-47 31t-31 49t-2.5 71.5q7 39 28 67.5t50 47t64.5 27.5t72.5 9q69 0 121.5 -28.5t76.5 -82.5l-141 -68q-18 46 -62 46q-15 0 -27.5 -5t-16.5 -22q-3 -14 6.5 -21.5t26.5 -13t39 -10.5
t44 -14q23 -7 44 -18.5t35.5 -30.5t20.5 -46t-1 -65q-8 -42 -29.5 -70.5t-52 -46t-67 -25t-74.5 -7.5q-166 0 -220 123z" />
    <glyph glyph-name="uni0456" unicode="&#x456;" horiz-adv-x="262" 
d="M4 0l88 500h166l-88 -500h-166zM184 541q-20 0 -36 7.5t-27 21t-15.5 30.5t-1.5 37q3 19 13 36.5t25 30.5t33.5 20.5t39.5 7.5q20 0 36 -7.5t27 -20.5t15.5 -30.5t1.5 -36.5q-7 -40 -38 -68t-73 -28z" />
    <glyph glyph-name="uni0457" unicode="&#x457;" horiz-adv-x="262" 
d="M92 500h166l-88 -500h-166zM31 558q-16 17 -15.5 40.5t12.5 45t33 36.5t46 15h4q32 0 51.5 -23.5t13.5 -56.5q-2 -18 -11 -32.5t-22.5 -25t-30 -16.5t-32.5 -6q-14 0 -27.5 5.5t-21.5 17.5zM277 535q-32 0 -51.5 23.5t-13.5 56.5q1 17 10.5 32t23 25.5t30 16.5t32.5 6
q14 0 27.5 -5.5t21.5 -18.5q16 -17 15.5 -40t-12.5 -44.5t-33 -36.5t-46 -15h-4z" />
    <glyph glyph-name="uni0458" unicode="&#x458;" horiz-adv-x="277" 
d="M185 0q-10 -57 -29 -98t-49 -67.5t-72 -38.5t-96 -12h-15.5t-15.5 1l27 154q34 0 55.5 12.5t28.5 48.5l88 500h166zM199 541q-20 0 -36 7.5t-27 21t-15.5 30.5t-1.5 37q3 19 13 36.5t25 30.5t33.5 20.5t39.5 7.5q20 0 36 -7.5t27 -20.5t15.5 -30.5t1.5 -36.5
q-7 -40 -38 -68t-73 -28z" />
    <glyph glyph-name="uni0459" unicode="&#x459;" horiz-adv-x="782" 
d="M-7 154q5 -1 9 -1.5t9 -0.5q55 0 68 79l47 269h425l-27 -151h74q75 0 122 -53t32 -131q-15 -81 -71 -123t-144 -42h-241l60 341h-92l-24 -134q-20 -110 -72.5 -160t-146.5 -50q-26 0 -54 3zM487 139h64q14 0 26 9.5t15 26.5q3 16 -5.5 25.5t-22.5 9.5h-64z" />
    <glyph glyph-name="uni045A" unicode="&#x45a;" horiz-adv-x="793" 
d="M92 500h166l-27 -151h137l27 151h166l-27 -151h75q75 0 122 -53t32 -131q-15 -81 -71 -123t-144 -42h-241l35 197h-137l-35 -197h-166zM497 139h65q14 0 26 9.5t15 26.5q3 16 -5.5 25.5t-23.5 9.5h-64z" />
    <glyph glyph-name="uni045B" unicode="&#x45b;" horiz-adv-x="587" 
d="M14 0l95 539h-58l19 106h57l10 55h166l-10 -55h136l-19 -106h-135l-18 -101q58 64 145 64q40 0 72.5 -14.5t52.5 -42t27.5 -67.5t-1.5 -91l-50 -287h-166l46 266q7 40 -10 60t-52 20q-73 0 -94 -78l-47 -268h-166z" />
    <glyph glyph-name="uni045C" unicode="&#x45c;" horiz-adv-x="537" 
d="M4 0l88 500h166l-36 -204l163 204h188l-209 -250l129 -250h-181l-104 216l-38 -216h-166zM332 700h198l-136 -145h-163z" />
    <glyph glyph-name="uni045E" unicode="&#x45e;" horiz-adv-x="549" 
d="M25 -44q27 0 46.5 3t34.5 10.5t26.5 20t23.5 30.5l-112 480h176l52 -289l130 289h191l-254 -485q-60 -115 -134.5 -165.5t-172.5 -50.5h-17t-18 1zM179 694h323l-24 -140h-323z" />
    <glyph glyph-name="uni045F" unicode="&#x45f;" horiz-adv-x="575" 
d="M4 0l88 500h166l-60 -343h147l60 343h166l-88 -500h-159l-24 -134h-160l24 134h-160z" />
    <glyph glyph-name="uni0490" unicode="&#x490;" horiz-adv-x="475" 
d="M392 820h178l-52 -293h-235l-93 -527h-179l123 700h236z" />
    <glyph glyph-name="uni0491" unicode="&#x491;" horiz-adv-x="407" 
d="M310 602h159l-45 -261h-194l-60 -341h-166l88 500h200z" />
    <glyph glyph-name="Wgrave" unicode="&#x1e80;" horiz-adv-x="1004" 
d="M265 700l35 -441l202 441h143l48 -441l188 441h196l-318 -700h-189l-43 395l-181 -395h-189l-73 700h181zM619 900l61 -145h-154l-95 145h188z" />
    <glyph glyph-name="wgrave" unicode="&#x1e81;" horiz-adv-x="790" 
d="M54 500h166l23 -272l118 272h145l29 -267l112 267h181l-241 -500h-162l-27 251l-109 -251h-170zM480 700l61 -145h-154l-95 145h188z" />
    <glyph glyph-name="Wacute" unicode="&#x1e82;" horiz-adv-x="1004" 
d="M265 700l35 -441l202 441h143l48 -441l188 441h196l-318 -700h-189l-43 395l-181 -395h-189l-73 700h181zM601 900h198l-136 -145h-163z" />
    <glyph glyph-name="wacute" unicode="&#x1e83;" horiz-adv-x="790" 
d="M54 500h166l23 -272l118 272h145l29 -267l112 267h181l-241 -500h-162l-27 251l-109 -251h-170zM462 700h198l-136 -145h-163z" />
    <glyph glyph-name="Wdieresis" unicode="&#x1e84;" horiz-adv-x="1004" 
d="M265 700l35 -441l202 441h143l48 -441l188 441h196l-318 -700h-189l-43 395l-181 -395h-189l-73 700h181zM437 758q-16 17 -15.5 40.5t12.5 45t33 36.5t46 15h4q32 0 51.5 -23.5t13.5 -56.5q-2 -18 -11 -32.5t-22.5 -25t-30 -16.5t-32.5 -6q-14 0 -27.5 5.5t-21.5 17.5z
M683 735q-32 0 -51.5 23.5t-13.5 56.5q1 17 10.5 32t23 25.5t30 16.5t32.5 6q14 0 27.5 -5.5t21.5 -18.5q16 -17 15.5 -40t-12.5 -44.5t-33 -36.5t-46 -15h-4z" />
    <glyph glyph-name="wdieresis" unicode="&#x1e85;" horiz-adv-x="790" 
d="M54 500h166l23 -272l118 272h145l29 -267l112 267h181l-241 -500h-162l-27 251l-109 -251h-170zM298 558q-16 17 -15.5 40.5t12.5 45t33 36.5t46 15h4q32 0 51.5 -23.5t13.5 -56.5q-2 -18 -11 -32.5t-22.5 -25t-30 -16.5t-32.5 -6q-14 0 -27.5 5.5t-21.5 17.5zM544 535
q-32 0 -51.5 23.5t-13.5 56.5q1 17 10.5 32t23 25.5t30 16.5t32.5 6q14 0 27.5 -5.5t21.5 -18.5q16 -17 15.5 -40t-12.5 -44.5t-33 -36.5t-46 -15h-4z" />
    <glyph glyph-name="uni1EA0" unicode="&#x1ea0;" horiz-adv-x="671" 
d="M305 700h218l108 -700h-191l-11 101h-233l-48 -101h-197zM245 -235q-37 0 -59 26.5t-16 62.5q3 18 12.5 34t23.5 28.5t31.5 19.5t36.5 7q37 0 59 -26t15 -63q-3 -18 -12 -34.5t-23 -28.5t-31.5 -19t-36.5 -7zM270 255h142l-26 242z" />
    <glyph glyph-name="uni1EA1" unicode="&#x1ea1;" 
d="M59 67q-51 81 -33 190q18 108 90 181q75 76 181 76q96 0 138 -69l10 55h166l-88 -500h-166l7 39q-59 -53 -146 -53q-107 0 -159 81zM192 250q-7 -49 15 -79t70 -30t81.5 29t42.5 77v3q8 49 -15 79t-71 30q-49 0 -82 -30.5t-41 -78.5zM218 -235q-37 0 -59 26.5t-16 62.5
q3 18 12.5 34t23.5 28.5t31.5 19.5t36.5 7q37 0 59 -26t15 -63q-3 -18 -12 -34.5t-23 -28.5t-31.5 -19t-36.5 -7z" />
    <glyph glyph-name="uni1EA2" unicode="&#x1ea2;" horiz-adv-x="671" 
d="M305 700h218l108 -700h-191l-11 101h-233l-48 -101h-197zM315 890q31 30 64 42.5t75 12.5q56 0 87.5 -21t24.5 -63q-5 -26 -18.5 -42.5t-29.5 -29t-29.5 -22.5t-16.5 -22h-112q6 23 18.5 37t25 23.5t22.5 16.5t11 16q1 6 -2.5 11t-15.5 5q-26 0 -47 -24zM270 255h142
l-26 242z" />
    <glyph glyph-name="uni1EA3" unicode="&#x1ea3;" 
d="M59 67q-51 81 -33 190q9 52 31.5 98.5t57 81.5t80.5 56t102 21q96 0 138 -69l10 55h166l-88 -500h-166l7 39q-59 -53 -146 -53q-107 0 -159 81zM192 250q-7 -49 15 -79t70 -30t81.5 29t42.5 77v3q8 49 -15 79t-71 30q-49 0 -82 -30.5t-41 -78.5zM240 700q31 30 64 42.5
t75 12.5q56 0 87.5 -21t24.5 -63q-5 -26 -18.5 -42.5t-29.5 -29t-29.5 -22.5t-16.5 -22h-112q6 23 18.5 37t25 23.5t22.5 16.5t11 16q1 6 -2.5 11t-15.5 5q-26 0 -47 -24z" />
    <glyph glyph-name="uni1EA4" unicode="&#x1ea4;" horiz-adv-x="671" 
d="M305 700h218l108 -700h-191l-11 101h-233l-48 -101h-197zM242 745l124 144h155l74 -144h-139l-27 52l-47 -52h-140zM652 984h184l-127 -135h-151zM270 255h142l-26 242z" />
    <glyph glyph-name="uni1EA5" unicode="&#x1ea5;" 
d="M59 67q-51 81 -33 190q9 52 31.5 98.5t57 81.5t80.5 56t102 21q96 0 138 -69l10 55h166l-88 -500h-166l7 39q-59 -53 -146 -53q-107 0 -159 81zM192 250q-7 -49 15 -79t70 -30t81.5 29t42.5 77v3q8 49 -15 79t-71 30q-49 0 -82 -30.5t-41 -78.5zM308 689h155l74 -144
h-139l-27 52l-47 -52h-140zM594 784h184l-127 -135h-151z" />
    <glyph glyph-name="uni1EA6" unicode="&#x1ea6;" horiz-adv-x="671" 
d="M-49 0l354 700h218l108 -700h-191l-11 101h-233l-48 -101h-197zM242 745l124 144h155l74 -144h-139l-27 52l-47 -52h-140zM488 984h175l57 -135h-143zM270 255h142l-26 242z" />
    <glyph glyph-name="uni1EA7" unicode="&#x1ea7;" 
d="M59 67q-51 81 -33 190q9 52 31.5 98.5t57 81.5t80.5 56t102 21q96 0 138 -69l10 55h166l-88 -500h-166l7 39q-59 -53 -146 -53q-107 0 -159 81zM192 250q-7 -49 15 -79t70 -30t81.5 29t42.5 77v3q8 49 -15 79t-71 30q-49 0 -82 -30.5t-41 -78.5zM308 689h155l74 -144
h-139l-27 52l-47 -52h-140zM430 784h175l57 -135h-143z" />
    <glyph glyph-name="uni1EA8" unicode="&#x1ea8;" horiz-adv-x="671" 
d="M305 700h218l108 -700h-191l-11 101h-233l-48 -101h-197zM242 745l124 144h155l74 -144h-139l-27 52l-47 -52h-140zM518 984q29 28 60 39.5t69 11.5q53 0 82.5 -19.5t22.5 -58.5q-4 -24 -17 -39.5t-27.5 -27t-27.5 -21t-16 -20.5h-104q6 22 17.5 35t23.5 21.5t21 15
t10 15.5q1 5 -2.5 9.5t-14.5 4.5q-25 0 -44 -22zM412 255l-26 242l-116 -242h142z" />
    <glyph glyph-name="uni1EA9" unicode="&#x1ea9;" 
d="M59 67q-51 81 -33 190q9 52 31.5 98.5t57 81.5t80.5 56t102 21q96 0 138 -69l10 55h166l-88 -500h-166l7 39q-59 -53 -146 -53q-107 0 -159 81zM192 250q-7 -49 15 -79t70 -30t81.5 29t42.5 77v3q8 49 -15 79t-71 30q-49 0 -82 -30.5t-41 -78.5zM308 689h155l74 -144
h-139l-27 52l-47 -52h-140zM460 784q29 28 60 39.5t69 11.5q53 0 82.5 -19.5t22.5 -58.5q-4 -24 -17 -39.5t-27.5 -27t-27.5 -21t-16 -20.5h-104q6 22 17.5 35t23.5 21.5t21 15t10 15.5q1 5 -2.5 9.5t-14.5 4.5q-25 0 -44 -22z" />
    <glyph glyph-name="uni1EAA" unicode="&#x1eaa;" horiz-adv-x="671" 
d="M-49 0l354 700h218l108 -700h-191l-11 101h-233l-48 -101h-197zM290 907q4 39 15.5 67t27.5 45t35.5 25t40.5 8q17 0 32.5 -5t31.5 -13q10 -5 17.5 -9t13.5 -4q14 0 20 29h108q-4 -39 -15.5 -67t-27.5 -45t-35.5 -25t-40.5 -8q-34 0 -66 19q-18 13 -28 13q-17 0 -23 -30
h-106zM366 889h155l74 -144h-139l-27 52l-47 -52h-140zM270 255h142l-26 242z" />
    <glyph glyph-name="uni1EAB" unicode="&#x1eab;" 
d="M59 67q-51 81 -33 190q9 52 31.5 98.5t57 81.5t80.5 56t102 21q96 0 138 -69l10 55h166l-88 -500h-166l7 39q-59 -53 -146 -53q-107 0 -159 81zM232 707q4 39 15.5 67t27.5 45t35.5 25t40.5 8q17 0 32.5 -5t31.5 -13q10 -5 17.5 -9t13.5 -4q14 0 20 29h108
q-4 -39 -15.5 -67t-27.5 -45t-35.5 -25t-40.5 -8q-34 0 -66 19q-18 13 -28 13q-17 0 -23 -30h-106zM192 250q-7 -49 15 -79t70 -30t81.5 29t42.5 77v3q8 49 -15 79t-71 30q-49 0 -82 -30.5t-41 -78.5zM308 689h155l74 -144h-139l-27 52l-47 -52h-140z" />
    <glyph glyph-name="uni1EAC" unicode="&#x1eac;" horiz-adv-x="671" 
d="M305 700h218l108 -700h-191l-11 101h-233l-48 -101h-197zM366 889h155l74 -144h-139l-27 52l-47 -52h-140zM245 -235q-37 0 -59 26.5t-16 62.5q3 18 12.5 34t23.5 28.5t31.5 19.5t36.5 7q37 0 59 -26t15 -63q-3 -18 -12 -34.5t-23 -28.5t-31.5 -19t-36.5 -7zM270 255h142
l-26 242z" />
    <glyph glyph-name="uni1EAD" unicode="&#x1ead;" 
d="M59 67q-51 81 -33 190q9 52 31.5 98.5t57 81.5t80.5 56t102 21q96 0 138 -69l10 55h166l-88 -500h-166l7 39q-59 -53 -146 -53q-107 0 -159 81zM192 250q-7 -49 15 -79t70 -30t81.5 29t42.5 77v3q8 49 -15 79t-71 30q-49 0 -82 -30.5t-41 -78.5zM308 689h155l74 -144
h-139l-27 52l-47 -52h-140zM218 -235q-37 0 -59 26.5t-16 62.5q3 18 12.5 34t23.5 28.5t31.5 19.5t36.5 7q37 0 59 -26t15 -63q-3 -18 -12 -34.5t-23 -28.5t-31.5 -19t-36.5 -7z" />
    <glyph glyph-name="uni1EAE" unicode="&#x1eae;" horiz-adv-x="671" 
d="M305 700h218l108 -700h-191l-11 101h-233l-48 -101h-197zM429 737q-39 0 -70 11t-50.5 30.5t-27.5 47t-1 60.5h130q-6 -41 30 -41t44 41h130q-24 -149 -185 -149zM360 901l94 135h184l-127 -135h-151zM412 255l-26 242l-116 -242h142z" />
    <glyph glyph-name="uni1EAF" unicode="&#x1eaf;" 
d="M59 67q-51 81 -33 190q9 52 31.5 98.5t57 81.5t80.5 56t102 21q96 0 138 -69l10 55h166l-88 -500h-166l7 39q-59 -53 -146 -53q-107 0 -159 81zM353 537q-39 0 -70 11t-50.5 30.5t-27.5 47t-1 60.5h130q-6 -41 30 -41t44 41h130q-24 -149 -185 -149zM192 250
q-7 -49 15 -79t70 -30t81.5 29t42.5 77v3q8 49 -15 79t-71 30q-49 0 -82 -30.5t-41 -78.5zM284 701l94 135h184l-127 -135h-151z" />
    <glyph glyph-name="uni1EB0" unicode="&#x1eb0;" horiz-adv-x="671" 
d="M305 700h218l108 -700h-191l-11 101h-233l-48 -101h-197zM429 737q-39 0 -70 11t-50.5 30.5t-27.5 47t-1 60.5h130q-6 -41 30 -41t44 41h130q-24 -149 -185 -149zM306 1036h175l57 -135h-143zM412 255l-26 242l-116 -242h142z" />
    <glyph glyph-name="uni1EB1" unicode="&#x1eb1;" 
d="M59 67q-51 81 -33 190q9 52 31.5 98.5t57 81.5t80.5 56t102 21q96 0 138 -69l10 55h166l-88 -500h-166l7 39q-59 -53 -146 -53q-107 0 -159 81zM353 537q-39 0 -70 11t-50.5 30.5t-27.5 47t-1 60.5h130q-6 -41 30 -41t44 41h130q-24 -149 -185 -149zM192 250
q-7 -49 15 -79t70 -30t81.5 29t42.5 77v3q8 49 -15 79t-71 30q-49 0 -82 -30.5t-41 -78.5zM230 836h175l57 -135h-143z" />
    <glyph glyph-name="uni1EB2" unicode="&#x1eb2;" horiz-adv-x="671" 
d="M305 700h218l108 -700h-191l-11 101h-233l-48 -101h-197zM429 737q-39 0 -70 11t-50.5 30.5t-27.5 47t-1 60.5h130q-6 -41 30 -41t44 41h130q-24 -149 -185 -149zM353 1036q29 28 60 39.5t69 11.5q53 0 82.5 -19.5t22.5 -58.5q-4 -24 -17 -39.5t-27.5 -27t-27.5 -21
t-16 -20.5h-104q6 22 17.5 35t23.5 21.5t21 15t10 15.5q1 5 -2.5 9.5t-14.5 4.5q-25 0 -44 -22zM270 255h142l-26 242z" />
    <glyph glyph-name="uni1EB3" unicode="&#x1eb3;" 
d="M59 67q-51 81 -33 190q9 52 31.5 98.5t57 81.5t80.5 56t102 21q96 0 138 -69l10 55h166l-88 -500h-166l7 39q-59 -53 -146 -53q-107 0 -159 81zM353 537q-39 0 -70 11t-50.5 30.5t-27.5 47t-1 60.5h130q-6 -41 30 -41t44 41h130q-24 -149 -185 -149zM192 250
q-7 -49 15 -79t70 -30t81.5 29t42.5 77v3q8 49 -15 79t-71 30q-49 0 -82 -30.5t-41 -78.5zM276 836q29 28 60 39.5t69 11.5q53 0 82.5 -19.5t22.5 -58.5q-4 -24 -17 -39.5t-27.5 -27t-27.5 -21t-16 -20.5h-104q6 22 17.5 35t23.5 21.5t21 15t10 15.5q1 5 -2.5 9.5t-14.5 4.5
q-25 0 -44 -22z" />
    <glyph glyph-name="uni1EB4" unicode="&#x1eb4;" horiz-adv-x="671" 
d="M305 700h218l108 -700h-191l-11 101h-233l-48 -101h-197zM289 903q4 39 16 67t28.5 45t37 25t41.5 8q17 0 33.5 -5t32.5 -13q10 -5 17.5 -9t14.5 -4q14 0 20 29h112q-4 -39 -16 -67t-28.5 -45t-37 -25t-41.5 -8q-35 0 -68 19q-18 13 -29 13q-17 0 -23 -30h-110zM429 737
q-39 0 -70 11t-50.5 30.5t-27.5 47t-1 60.5h130q-6 -41 30 -41t44 41h130q-24 -149 -185 -149zM412 255l-26 242l-116 -242h142z" />
    <glyph glyph-name="uni1EB5" unicode="&#x1eb5;" 
d="M59 67q-51 81 -33 190q9 52 31.5 98.5t57 81.5t80.5 56t102 21q96 0 138 -69l10 55h166l-88 -500h-166l7 39q-59 -53 -146 -53q-107 0 -159 81zM213 703q4 39 16 67t28.5 45t37 25t41.5 8q17 0 33.5 -5t32.5 -13q10 -5 17.5 -9t14.5 -4q14 0 20 29h112q-4 -39 -16 -67
t-28.5 -45t-37 -25t-41.5 -8q-35 0 -68 19q-18 13 -29 13q-17 0 -23 -30h-110zM353 537q-39 0 -70 11t-50.5 30.5t-27.5 47t-1 60.5h130q-6 -41 30 -41t44 41h130q-24 -149 -185 -149zM192 250q-7 -49 15 -79t70 -30t81.5 29t42.5 77v3q8 49 -15 79t-71 30q-49 0 -82 -30.5
t-41 -78.5z" />
    <glyph glyph-name="uni1EB6" unicode="&#x1eb6;" horiz-adv-x="671" 
d="M-49 0l354 700h218l108 -700h-191l-11 101h-233l-48 -101h-197zM429 737q-39 0 -70 11t-50.5 30.5t-27.5 47t-1 60.5h130q-6 -41 30 -41t44 41h130q-24 -149 -185 -149zM245 -235q-37 0 -59 26.5t-16 62.5q3 18 12.5 34t23.5 28.5t31.5 19.5t36.5 7q37 0 59 -26t15 -63
q-3 -18 -12 -34.5t-23 -28.5t-31.5 -19t-36.5 -7zM270 255h142l-26 242z" />
    <glyph glyph-name="uni1EB7" unicode="&#x1eb7;" 
d="M59 67q-51 81 -33 190q9 52 31.5 98.5t57 81.5t80.5 56t102 21q96 0 138 -69l10 55h166l-88 -500h-166l7 39q-59 -53 -146 -53q-107 0 -159 81zM363 537q-39 0 -70 11t-50.5 30.5t-27.5 47t-1 60.5h130q-6 -41 30 -41t44 41h130q-24 -149 -185 -149zM192 250
q-7 -49 15 -79t70 -30t81.5 29t42.5 77v3q8 49 -15 79t-71 30q-49 0 -82 -30.5t-41 -78.5zM218 -235q-37 0 -59 26.5t-16 62.5q3 18 12.5 34t23.5 28.5t31.5 19.5t36.5 7q37 0 59 -26t15 -63q-3 -18 -12 -34.5t-23 -28.5t-31.5 -19t-36.5 -7z" />
    <glyph glyph-name="uni1EB8" unicode="&#x1eb8;" horiz-adv-x="535" 
d="M11 0l123 700h445l-30 -167h-265l-18 -98h242l-30 -164h-240l-18 -103h270l-29 -168h-450zM192 -235q-37 0 -59 26.5t-16 62.5q3 18 12.5 34t23.5 28.5t31.5 19.5t36.5 7q37 0 59 -26t15 -63q-3 -18 -12 -34.5t-23 -28.5t-31.5 -19t-36.5 -7z" />
    <glyph glyph-name="uni1EB9" unicode="&#x1eb9;" horiz-adv-x="568" 
d="M72 65q-65 81 -46 195q9 55 35.5 102t66 80.5t90 52.5t106.5 19q112 0 177 -77q66 -78 44 -186q-3 -15 -6.5 -30.5t-10.5 -31.5h-343q13 -61 96 -61q60 0 99 36l106 -97q-87 -81 -218 -81q-130 0 -196 79zM218 -235q-37 0 -59 26.5t-16 62.5q3 18 12.5 34t23.5 28.5
t31.5 19.5t36.5 7q37 0 59 -26t15 -63q-3 -18 -12 -34.5t-23 -28.5t-31.5 -19t-36.5 -7zM315 374q-74 0 -110 -69h189q-5 69 -79 69z" />
    <glyph glyph-name="uni1EBA" unicode="&#x1eba;" horiz-adv-x="535" 
d="M11 0l123 700h445l-30 -167h-265l-18 -98h242l-30 -164h-240l-18 -103h270l-29 -168h-450zM261 890q31 30 64 42.5t75 12.5q56 0 87.5 -21t24.5 -63q-5 -26 -18.5 -42.5t-29.5 -29t-29.5 -22.5t-16.5 -22h-112q6 23 18.5 37t25 23.5t22.5 16.5t11 16q1 6 -2.5 11t-15.5 5
q-26 0 -47 -24z" />
    <glyph glyph-name="uni1EBB" unicode="&#x1ebb;" horiz-adv-x="568" 
d="M72 65q-65 81 -46 195q9 55 35.5 102t66 80.5t90 52.5t106.5 19q112 0 177 -77q66 -78 44 -186q-3 -15 -6.5 -30.5t-10.5 -31.5h-343q13 -61 96 -61q60 0 99 36l106 -97q-87 -81 -218 -81q-130 0 -196 79zM231 700q31 30 64 42.5t75 12.5q56 0 87.5 -21t24.5 -63
q-5 -26 -18.5 -42.5t-29.5 -29t-29.5 -22.5t-16.5 -22h-112q6 23 18.5 37t25 23.5t22.5 16.5t11 16q1 6 -2.5 11t-15.5 5q-26 0 -47 -24zM315 374q-74 0 -110 -69h189q-5 69 -79 69z" />
    <glyph glyph-name="uni1EBC" unicode="&#x1ebc;" horiz-adv-x="535" 
d="M11 0l123 700h445l-30 -167h-265l-18 -98h242l-30 -164h-240l-18 -103h270l-29 -168h-450zM187 748q4 44 17 75.5t31.5 51t41 28.5t45.5 9q19 0 37.5 -5.5t35.5 -15.5q11 -6 19 -10t15 -4q8 0 13.5 7t9.5 26h122q-5 -45 -17.5 -76t-31 -50.5t-41 -28t-45.5 -8.5
q-40 0 -74 21q-19 14 -31 14q-20 0 -26 -34h-121z" />
    <glyph glyph-name="uni1EBD" unicode="&#x1ebd;" horiz-adv-x="568" 
d="M72 65q-65 81 -46 195q9 55 35.5 102t66 80.5t90 52.5t106.5 19q112 0 177 -77q66 -78 44 -186q-3 -15 -6.5 -30.5t-10.5 -31.5h-343q13 -61 96 -61q60 0 99 36l106 -97q-87 -81 -218 -81q-130 0 -196 79zM169 555q4 44 17 75.5t31.5 51t41 28.5t45.5 9q19 0 37.5 -5.5
t35.5 -15.5q11 -6 19 -10t15 -4q8 0 13.5 7t9.5 26h122q-5 -45 -17.5 -76t-31 -50.5t-41 -28t-45.5 -8.5q-40 0 -74 21q-19 14 -31 14q-20 0 -26 -34h-121zM394 305q-5 69 -79 69t-110 -69h189z" />
    <glyph glyph-name="uni1EBE" unicode="&#x1ebe;" horiz-adv-x="535" 
d="M134 700h445l-30 -167h-265l-18 -98h242l-30 -164h-240l-18 -103h270l-29 -168h-450zM185 745l124 144h155l74 -144h-139l-27 52l-47 -52h-140zM501 849l94 135h184l-127 -135h-151z" />
    <glyph glyph-name="uni1EBF" unicode="&#x1ebf;" horiz-adv-x="568" 
d="M72 65q-65 81 -46 195q9 55 35.5 102t66 80.5t90 52.5t106.5 19q112 0 177 -77q66 -78 44 -186q-3 -15 -6.5 -30.5t-10.5 -31.5h-343q13 -61 96 -61q60 0 99 36l106 -97q-87 -81 -218 -81q-130 0 -196 79zM291 696h155l74 -144h-139l-27 52l-47 -52h-140zM577 791h184
l-127 -135h-151zM315 374q-74 0 -110 -69h189q-5 69 -79 69z" />
    <glyph glyph-name="uni1EC0" unicode="&#x1ec0;" horiz-adv-x="535" 
d="M134 700h445l-30 -167h-265l-18 -98h242l-30 -164h-240l-18 -103h270l-29 -168h-450zM185 745l124 144h155l74 -144h-139l-27 52l-47 -52h-140zM431 984h175l57 -135h-143z" />
    <glyph glyph-name="uni1EC1" unicode="&#x1ec1;" horiz-adv-x="568" 
d="M72 65q-65 81 -46 195q9 55 35.5 102t66 80.5t90 52.5t106.5 19q112 0 177 -77q66 -78 44 -186q-3 -15 -6.5 -30.5t-10.5 -31.5h-343q13 -61 96 -61q60 0 99 36l106 -97q-87 -81 -218 -81q-130 0 -196 79zM291 696h155l74 -144h-139l-27 52l-47 -52h-140zM413 791h175
l57 -135h-143zM315 374q-74 0 -110 -69h189q-5 69 -79 69z" />
    <glyph glyph-name="uni1EC2" unicode="&#x1ec2;" horiz-adv-x="535" 
d="M134 700h445l-30 -167h-265l-18 -98h242l-30 -164h-240l-18 -103h270l-29 -168h-450zM185 745l124 144h155l74 -144h-139l-27 52l-47 -52h-140zM461 984q29 28 60 39.5t69 11.5q53 0 82.5 -19.5t22.5 -58.5q-4 -24 -17 -39.5t-27.5 -27t-27.5 -21t-16 -20.5h-104
q6 22 17.5 35t23.5 21.5t21 15t10 15.5q1 5 -2.5 9.5t-14.5 4.5q-25 0 -44 -22z" />
    <glyph glyph-name="uni1EC3" unicode="&#x1ec3;" horiz-adv-x="568" 
d="M72 65q-65 81 -46 195q9 55 35.5 102t66 80.5t90 52.5t106.5 19q112 0 177 -77q66 -78 44 -186q-3 -15 -6.5 -30.5t-10.5 -31.5h-343q13 -61 96 -61q60 0 99 36l106 -97q-87 -81 -218 -81q-130 0 -196 79zM291 696h155l74 -144h-139l-27 52l-47 -52h-140zM443 791
q29 28 60 39.5t69 11.5q53 0 82.5 -19.5t22.5 -58.5q-4 -24 -17 -39.5t-27.5 -27t-27.5 -21t-16 -20.5h-104q6 22 17.5 35t23.5 21.5t21 15t10 15.5q1 5 -2.5 9.5t-14.5 4.5q-25 0 -44 -22zM394 305q-5 69 -79 69t-110 -69h189z" />
    <glyph glyph-name="uni1EC4" unicode="&#x1ec4;" horiz-adv-x="535" 
d="M11 0l123 700h445l-30 -167h-265l-18 -98h242l-30 -164h-240l-18 -103h270l-29 -168h-450zM233 907q4 39 15.5 67t27.5 45t35.5 25t40.5 8q17 0 32.5 -5t31.5 -13q10 -5 17.5 -9t13.5 -4q14 0 20 29h108q-4 -39 -15.5 -67t-27.5 -45t-35.5 -25t-40.5 -8q-34 0 -66 19
q-18 13 -28 13q-17 0 -23 -30h-106zM185 745l124 144h155l74 -144h-139l-27 52l-47 -52h-140z" />
    <glyph glyph-name="uni1EC5" unicode="&#x1ec5;" horiz-adv-x="568" 
d="M72 65q-65 81 -46 195q9 55 35.5 102t66 80.5t90 52.5t106.5 19q112 0 177 -77q66 -78 44 -186q-3 -15 -6.5 -30.5t-10.5 -31.5h-343q13 -61 96 -61q60 0 99 36l106 -97q-87 -81 -218 -81q-130 0 -196 79zM215 714q4 39 15.5 67t27.5 45t35.5 25t40.5 8q17 0 32.5 -5
t31.5 -13q10 -5 17.5 -9t13.5 -4q14 0 20 29h108q-4 -39 -15.5 -67t-27.5 -45t-35.5 -25t-40.5 -8q-34 0 -66 19q-18 13 -28 13q-17 0 -23 -30h-106zM167 552l124 144h155l74 -144h-139l-27 52l-47 -52h-140zM315 374q-74 0 -110 -69h189q-5 69 -79 69z" />
    <glyph glyph-name="uni1EC6" unicode="&#x1ec6;" horiz-adv-x="535" 
d="M134 700h445l-30 -167h-265l-18 -98h242l-30 -164h-240l-18 -103h270l-29 -168h-450zM309 889h155l74 -144h-139l-27 52l-47 -52h-140zM192 -235q-37 0 -59 26.5t-16 62.5q3 18 12.5 34t23.5 28.5t31.5 19.5t36.5 7q37 0 59 -26t15 -63q-3 -18 -12 -34.5t-23 -28.5
t-31.5 -19t-36.5 -7z" />
    <glyph glyph-name="uni1EC7" unicode="&#x1ec7;" horiz-adv-x="568" 
d="M72 65q-65 81 -46 195q9 55 35.5 102t66 80.5t90 52.5t106.5 19q112 0 177 -77q66 -78 44 -186q-3 -15 -6.5 -30.5t-10.5 -31.5h-343q13 -61 96 -61q60 0 99 36l106 -97q-87 -81 -218 -81q-130 0 -196 79zM291 696h155l74 -144h-139l-27 52l-47 -52h-140zM218 -235
q-37 0 -59 26.5t-16 62.5q3 18 12.5 34t23.5 28.5t31.5 19.5t36.5 7q37 0 59 -26t15 -63q-3 -18 -12 -34.5t-23 -28.5t-31.5 -19t-36.5 -7zM394 305q-5 69 -79 69t-110 -69h189z" />
    <glyph glyph-name="uni1EC8" unicode="&#x1ec8;" horiz-adv-x="289" 
d="M11 0l123 700h179l-123 -700h-179zM124 890q31 30 64 42.5t75 12.5q56 0 87.5 -21t24.5 -63q-5 -26 -18.5 -42.5t-29.5 -29t-29.5 -22.5t-16.5 -22h-112q6 23 18.5 37t25 23.5t22.5 16.5t11 16q1 6 -2.5 11t-15.5 5q-26 0 -47 -24z" />
    <glyph glyph-name="uni1EC9" unicode="&#x1ec9;" horiz-adv-x="262" 
d="M92 500h166l-88 -500h-166zM80 700q31 30 64 42.5t75 12.5q56 0 87.5 -21t24.5 -63q-5 -26 -18.5 -42.5t-29.5 -29t-29.5 -22.5t-16.5 -22h-112q6 23 18.5 37t25 23.5t22.5 16.5t11 16q1 6 -2.5 11t-15.5 5q-26 0 -47 -24z" />
    <glyph glyph-name="uni1ECA" unicode="&#x1eca;" horiz-adv-x="289" 
d="M11 0l123 700h179l-123 -700h-179zM63 -235q-37 0 -59 26.5t-16 62.5q3 18 12.5 34t23.5 28.5t31.5 19.5t36.5 7q37 0 59 -26t15 -63q-3 -18 -12 -34.5t-23 -28.5t-31.5 -19t-36.5 -7z" />
    <glyph glyph-name="uni1ECB" unicode="&#x1ecb;" horiz-adv-x="262" 
d="M4 0l88 500h166l-88 -500h-166zM187 539q-37 0 -59 26.5t-16 62.5q3 18 12.5 34t23.5 28.5t31.5 19.5t36.5 7q37 0 59 -26t15 -63q-3 -18 -12 -34.5t-23 -28.5t-31.5 -19t-36.5 -7zM52 -235q-37 0 -59 26.5t-16 62.5q3 18 12.5 34t23.5 28.5t31.5 19.5t36.5 7
q37 0 59 -26t15 -63q-3 -18 -12 -34.5t-23 -28.5t-31.5 -19t-36.5 -7z" />
    <glyph glyph-name="uni1ECC" unicode="&#x1ecc;" horiz-adv-x="790" 
d="M638 87q-62 -56 -132.5 -79t-152.5 -23q-79 0 -142 32t-104.5 84.5t-58 120t-1.5 139.5q13 78 50.5 143.5t93.5 112t126.5 72.5t149.5 26q159 0 247 -112q89 -112 64 -262q-26 -152 -140 -254zM225 350q-15 -84 27 -137t124 -53q41 0 78.5 14.5t67.5 40t50.5 60
t27.5 75.5q14 84 -29 136q-44 54 -125 54q-42 0 -79 -14.5t-66 -40t-49 -60.5t-27 -75zM299 -235q-37 0 -59 26.5t-16 62.5q3 18 12.5 34t23.5 28.5t31.5 19.5t36.5 7q37 0 59 -26t15 -63q-3 -18 -12 -34.5t-23 -28.5t-31.5 -19t-36.5 -7z" />
    <glyph glyph-name="uni1ECD" unicode="&#x1ecd;" horiz-adv-x="583" 
d="M258 -14q-65 0 -113.5 25t-78.5 65t-40 90t1 100q10 56 37.5 102t67 78.5t90 50t107.5 17.5q120 0 183 -86t44 -192q-10 -54 -37 -100t-66.5 -79.5t-89.5 -52t-105 -18.5zM191 250q-8 -46 14.5 -75t65.5 -29q45 0 77.5 29t40.5 75t-14 75t-67 29q-43 0 -76 -29t-41 -75z
M196 -235q-37 0 -59 26.5t-16 62.5q3 18 12.5 34t23.5 28.5t31.5 19.5t36.5 7q37 0 59 -26t15 -63q-3 -18 -12 -34.5t-23 -28.5t-31.5 -19t-36.5 -7z" />
    <glyph glyph-name="uni1ECE" unicode="&#x1ece;" horiz-adv-x="790" 
d="M638 87q-62 -56 -132.5 -79t-152.5 -23q-79 0 -142 32t-104.5 84.5t-58 120t-1.5 139.5q13 78 50.5 143.5t93.5 112t126.5 72.5t149.5 26q159 0 247 -112q89 -112 64 -262q-26 -152 -140 -254zM225 350q-15 -84 27 -137t124 -53q41 0 78.5 14.5t67.5 40t50.5 60
t27.5 75.5q14 84 -29 136q-44 54 -125 54q-42 0 -79 -14.5t-66 -40t-49 -60.5t-27 -75zM376 900q31 30 64 42.5t75 12.5q56 0 87.5 -21t24.5 -63q-5 -26 -18.5 -42.5t-29.5 -29t-29.5 -22.5t-16.5 -22h-112q6 23 18.5 37t25 23.5t22.5 16.5t11 16q1 6 -2.5 11t-15.5 5
q-26 0 -47 -24z" />
    <glyph glyph-name="uni1ECF" unicode="&#x1ecf;" horiz-adv-x="583" 
d="M258 -14q-65 0 -113.5 25t-78.5 65t-40 90t1 100q10 56 37.5 102t67 78.5t90 50t107.5 17.5q120 0 183 -86t44 -192q-10 -54 -37 -100t-66.5 -79.5t-89.5 -52t-105 -18.5zM191 250q-8 -46 14.5 -75t65.5 -29q45 0 77.5 29t40.5 75t-14 75t-67 29q-43 0 -76 -29t-41 -75z
M237 700q31 30 64 42.5t75 12.5q56 0 87.5 -21t24.5 -63q-5 -26 -18.5 -42.5t-29.5 -29t-29.5 -22.5t-16.5 -22h-112q6 23 18.5 37t25 23.5t22.5 16.5t11 16q1 6 -2.5 11t-15.5 5q-26 0 -47 -24z" />
    <glyph glyph-name="uni1ED0" unicode="&#x1ed0;" horiz-adv-x="790" 
d="M638 87q-62 -56 -132.5 -79t-152.5 -23q-79 0 -142 32t-104.5 84.5t-58 120t-1.5 139.5q13 78 50.5 143.5t93.5 112t126.5 72.5t149.5 26q159 0 247 -112q89 -112 64 -262q-26 -152 -140 -254zM225 350q-15 -84 27 -137t124 -53q41 0 78.5 14.5t67.5 40t50.5 60
t27.5 75.5q14 84 -29 136q-44 54 -125 54q-42 0 -79 -14.5t-66 -40t-49 -60.5t-27 -75zM430 899h155l74 -144h-139l-27 52l-47 -52h-140zM622 859l94 135h184l-127 -135h-151z" />
    <glyph glyph-name="uni1ED1" unicode="&#x1ed1;" horiz-adv-x="583" 
d="M258 -14q-65 0 -113.5 25t-78.5 65t-40 90t1 100q10 56 37.5 102t67 78.5t90 50t107.5 17.5q120 0 183 -86t44 -192q-10 -54 -37 -100t-66.5 -79.5t-89.5 -52t-105 -18.5zM191 250q-8 -46 14.5 -75t65.5 -29q45 0 77.5 29t40.5 75t-14 75t-67 29q-43 0 -76 -29t-41 -75z
M299 699h155l74 -144h-139l-27 52l-47 -52h-140zM585 794h184l-127 -135h-151z" />
    <glyph glyph-name="uni1ED2" unicode="&#x1ed2;" horiz-adv-x="790" 
d="M638 87q-62 -56 -132.5 -79t-152.5 -23q-79 0 -142 32t-104.5 84.5t-58 120t-1.5 139.5q13 78 50.5 143.5t93.5 112t126.5 72.5t149.5 26q159 0 247 -112q89 -112 64 -262q-26 -152 -140 -254zM225 350q-15 -84 27 -137t124 -53q41 0 78.5 14.5t67.5 40t50.5 60
t27.5 75.5q14 84 -29 136q-44 54 -125 54q-42 0 -79 -14.5t-66 -40t-49 -60.5t-27 -75zM430 899h155l74 -144h-139l-27 52l-47 -52h-140zM727 994l57 -135h-143l-89 135h175z" />
    <glyph glyph-name="uni1ED3" unicode="&#x1ed3;" horiz-adv-x="583" 
d="M258 -14q-65 0 -113.5 25t-78.5 65t-40 90t1 100q10 56 37.5 102t67 78.5t90 50t107.5 17.5q120 0 183 -86t44 -192q-10 -54 -37 -100t-66.5 -79.5t-89.5 -52t-105 -18.5zM191 250q-8 -46 14.5 -75t65.5 -29q45 0 77.5 29t40.5 75t-14 75t-67 29q-43 0 -76 -29t-41 -75z
M299 699h155l74 -144h-139l-27 52l-47 -52h-140zM421 794h175l57 -135h-143z" />
    <glyph glyph-name="uni1ED4" unicode="&#x1ed4;" horiz-adv-x="790" 
d="M638 87q-62 -56 -132.5 -79t-152.5 -23q-79 0 -142 32t-104.5 84.5t-58 120t-1.5 139.5q13 78 50.5 143.5t93.5 112t126.5 72.5t149.5 26q159 0 247 -112q89 -112 64 -262q-26 -152 -140 -254zM225 350q-15 -84 27 -137t124 -53q41 0 78.5 14.5t67.5 40t50.5 60
t27.5 75.5q14 84 -29 136q-44 54 -125 54q-42 0 -79 -14.5t-66 -40t-49 -60.5t-27 -75zM306 755l124 144h155l74 -144h-139l-27 52l-47 -52h-140zM582 994q29 28 60 39.5t69 11.5q53 0 82.5 -19.5t22.5 -58.5q-4 -24 -17 -39.5t-27.5 -27t-27.5 -21t-16 -20.5h-104
q6 22 17.5 35t23.5 21.5t21 15t10 15.5q1 5 -2.5 9.5t-14.5 4.5q-25 0 -44 -22z" />
    <glyph glyph-name="uni1ED5" unicode="&#x1ed5;" horiz-adv-x="583" 
d="M258 -14q-65 0 -113.5 25t-78.5 65t-40 90t1 100q10 56 37.5 102t67 78.5t90 50t107.5 17.5q120 0 183 -86t44 -192q-10 -54 -37 -100t-66.5 -79.5t-89.5 -52t-105 -18.5zM191 250q-8 -46 14.5 -75t65.5 -29q45 0 77.5 29t40.5 75t-14 75t-67 29q-43 0 -76 -29t-41 -75z
M299 699h155l74 -144h-139l-27 52l-47 -52h-140zM451 794q29 28 60 39.5t69 11.5q53 0 82.5 -19.5t22.5 -58.5q-4 -24 -17 -39.5t-27.5 -27t-27.5 -21t-16 -20.5h-104q6 22 17.5 35t23.5 21.5t21 15t10 15.5q1 5 -2.5 9.5t-14.5 4.5q-25 0 -44 -22z" />
    <glyph glyph-name="uni1ED6" unicode="&#x1ed6;" horiz-adv-x="790" 
d="M638 87q-62 -56 -132.5 -79t-152.5 -23q-79 0 -142 32t-104.5 84.5t-58 120t-1.5 139.5q13 78 50.5 143.5t93.5 112t126.5 72.5t149.5 26q159 0 247 -112q89 -112 64 -262q-26 -152 -140 -254zM225 350q-15 -84 27 -137t124 -53q41 0 78.5 14.5t67.5 40t50.5 60
t27.5 75.5q14 84 -29 136q-44 54 -125 54q-42 0 -79 -14.5t-66 -40t-49 -60.5t-27 -75zM354 917q4 39 15.5 67t27.5 45t35.5 25t40.5 8q17 0 32.5 -5t31.5 -13q10 -5 17.5 -9t13.5 -4q14 0 20 29h108q-4 -39 -15.5 -67t-27.5 -45t-35.5 -25t-40.5 -8q-34 0 -66 19
q-18 13 -28 13q-17 0 -23 -30h-106zM430 899h155l74 -144h-139l-27 52l-47 -52h-140z" />
    <glyph glyph-name="uni1ED7" unicode="&#x1ed7;" horiz-adv-x="583" 
d="M258 -14q-65 0 -113.5 25t-78.5 65t-40 90t1 100q10 56 37.5 102t67 78.5t90 50t107.5 17.5q120 0 183 -86t44 -192q-10 -54 -37 -100t-66.5 -79.5t-89.5 -52t-105 -18.5zM223 717q4 39 15.5 67t27.5 45t35.5 25t40.5 8q17 0 32.5 -5t31.5 -13q10 -5 17.5 -9t13.5 -4
q14 0 20 29h108q-4 -39 -15.5 -67t-27.5 -45t-35.5 -25t-40.5 -8q-34 0 -66 19q-18 13 -28 13q-17 0 -23 -30h-106zM191 250q-8 -46 14.5 -75t65.5 -29q45 0 77.5 29t40.5 75t-14 75t-67 29q-43 0 -76 -29t-41 -75zM175 555l124 144h155l74 -144h-139l-27 52l-47 -52h-140z
" />
    <glyph glyph-name="uni1ED8" unicode="&#x1ed8;" horiz-adv-x="790" 
d="M638 87q-62 -56 -132.5 -79t-152.5 -23q-79 0 -142 32t-104.5 84.5t-58 120t-1.5 139.5q13 78 50.5 143.5t93.5 112t126.5 72.5t149.5 26q159 0 247 -112q89 -112 64 -262q-26 -152 -140 -254zM225 350q-15 -84 27 -137t124 -53q41 0 78.5 14.5t67.5 40t50.5 60
t27.5 75.5q14 84 -29 136q-44 54 -125 54q-42 0 -79 -14.5t-66 -40t-49 -60.5t-27 -75zM306 755l124 144h155l74 -144h-139l-27 52l-47 -52h-140zM299 -235q-37 0 -59 26.5t-16 62.5q3 18 12.5 34t23.5 28.5t31.5 19.5t36.5 7q37 0 59 -26t15 -63q-3 -18 -12 -34.5
t-23 -28.5t-31.5 -19t-36.5 -7z" />
    <glyph glyph-name="uni1ED9" unicode="&#x1ed9;" horiz-adv-x="583" 
d="M258 -14q-65 0 -113.5 25t-78.5 65t-40 90t1 100q10 56 37.5 102t67 78.5t90 50t107.5 17.5q120 0 183 -86t44 -192q-10 -54 -37 -100t-66.5 -79.5t-89.5 -52t-105 -18.5zM191 250q-8 -46 14.5 -75t65.5 -29q45 0 77.5 29t40.5 75t-14 75t-67 29q-43 0 -76 -29t-41 -75z
M175 555l124 144h155l74 -144h-139l-27 52l-47 -52h-140zM196 -235q-37 0 -59 26.5t-16 62.5q3 18 12.5 34t23.5 28.5t31.5 19.5t36.5 7q37 0 59 -26t15 -63q-3 -18 -12 -34.5t-23 -28.5t-31.5 -19t-36.5 -7z" />
    <glyph glyph-name="uni1EDA" unicode="&#x1eda;" horiz-adv-x="790" 
d="M638 87q-62 -56 -132.5 -79t-152.5 -23q-79 0 -142 32t-104.5 84.5t-58 120t-1.5 139.5q13 78 50.5 143.5t93.5 112t126.5 72.5t149.5 26q59 0 107 -15h2q23 0 47.5 16.5t32.5 58.5h154q-10 -52 -41 -92.5t-74 -58.5q5 -5 9.5 -10.5t9.5 -10.5q47 -54 62 -120t2 -142
q-26 -152 -140 -254zM225 350q-15 -84 27 -137t124 -53q41 0 78.5 14.5t67.5 40t50.5 60t27.5 75.5q14 84 -29 136q-44 54 -125 54q-42 0 -79 -14.5t-66 -40t-49 -60.5t-27 -75zM380 765l101 145h198l-136 -145h-163z" />
    <glyph glyph-name="uni1EDB" unicode="&#x1edb;" horiz-adv-x="583" 
d="M258 -14q-65 0 -113.5 25t-78.5 65t-40 90t1 100q10 56 37.5 102t67 78.5t90 50t107.5 17.5q47 0 87 -14h2q23 0 47.5 16.5t32.5 58.5h154q-11 -57 -47 -100t-86 -57q55 -83 37 -182q-10 -54 -37 -100t-66.5 -79.5t-89.5 -52t-105 -18.5zM191 250q-8 -46 14.5 -75
t65.5 -29q45 0 77.5 29t40.5 75t-14 75t-67 29q-43 0 -76 -29t-41 -75zM240 565l101 145h198l-136 -145h-163z" />
    <glyph glyph-name="uni1EDC" unicode="&#x1edc;" horiz-adv-x="790" 
d="M638 87q-62 -56 -132.5 -79t-152.5 -23q-79 0 -142 32t-104.5 84.5t-58 120t-1.5 139.5q13 78 50.5 143.5t93.5 112t126.5 72.5t149.5 26q59 0 107 -15h2q23 0 47.5 16.5t32.5 58.5h154q-10 -52 -41 -92.5t-74 -58.5q5 -5 9.5 -10.5t9.5 -10.5q47 -54 62 -120t2 -142
q-26 -152 -140 -254zM225 350q-15 -84 27 -137t124 -53q41 0 78.5 14.5t67.5 40t50.5 60t27.5 75.5q14 84 -29 136q-44 54 -125 54q-42 0 -79 -14.5t-66 -40t-49 -60.5t-27 -75zM307 910h188l61 -145h-154z" />
    <glyph glyph-name="uni1EDD" unicode="&#x1edd;" horiz-adv-x="583" 
d="M258 -14q-65 0 -113.5 25t-78.5 65t-40 90t1 100q10 56 37.5 102t67 78.5t90 50t107.5 17.5q47 0 87 -14h2q23 0 47.5 16.5t32.5 58.5h154q-11 -57 -47 -100t-86 -57q55 -83 37 -182q-10 -54 -37 -100t-66.5 -79.5t-89.5 -52t-105 -18.5zM191 250q-8 -46 14.5 -75
t65.5 -29q45 0 77.5 29t40.5 75t-14 75t-67 29q-43 0 -76 -29t-41 -75zM357 710l61 -145h-154l-95 145h188z" />
    <glyph glyph-name="uni1EDE" unicode="&#x1ede;" horiz-adv-x="790" 
d="M638 87q-62 -56 -132.5 -79t-152.5 -23q-79 0 -142 32t-104.5 84.5t-58 120t-1.5 139.5q13 78 50.5 143.5t93.5 112t126.5 72.5t149.5 26q59 0 107 -15h2q23 0 47.5 16.5t32.5 58.5h154q-10 -52 -41 -92.5t-74 -58.5q5 -5 9.5 -10.5t9.5 -10.5q47 -54 62 -120t2 -142
q-26 -152 -140 -254zM225 350q-15 -84 27 -137t124 -53q41 0 78.5 14.5t67.5 40t50.5 60t27.5 75.5q14 84 -29 136q-44 54 -125 54q-42 0 -79 -14.5t-66 -40t-49 -60.5t-27 -75zM376 900q31 30 64 42.5t75 12.5q56 0 87.5 -21t24.5 -63q-5 -26 -18.5 -42.5t-29.5 -29
t-29.5 -22.5t-16.5 -22h-112q6 23 18.5 37t25 23.5t22.5 16.5t11 16q1 6 -2.5 11t-15.5 5q-26 0 -47 -24z" />
    <glyph glyph-name="uni1EDF" unicode="&#x1edf;" horiz-adv-x="583" 
d="M258 -14q-65 0 -113.5 25t-78.5 65t-40 90t1 100q10 56 37.5 102t67 78.5t90 50t107.5 17.5q47 0 87 -14h2q23 0 47.5 16.5t32.5 58.5h154q-11 -57 -47 -100t-86 -57q55 -83 37 -182q-10 -54 -37 -100t-66.5 -79.5t-89.5 -52t-105 -18.5zM191 250q-8 -46 14.5 -75
t65.5 -29q45 0 77.5 29t40.5 75t-14 75t-67 29q-43 0 -76 -29t-41 -75zM237 700q31 30 64 42.5t75 12.5q56 0 87.5 -21t24.5 -63q-5 -26 -18.5 -42.5t-29.5 -29t-29.5 -22.5t-16.5 -22h-112q6 23 18.5 37t25 23.5t22.5 16.5t11 16q1 6 -2.5 11t-15.5 5q-26 0 -47 -24z" />
    <glyph glyph-name="uni1EE0" unicode="&#x1ee0;" horiz-adv-x="790" 
d="M638 87q-62 -56 -132.5 -79t-152.5 -23q-79 0 -142 32t-104.5 84.5t-58 120t-1.5 139.5q13 78 50.5 143.5t93.5 112t126.5 72.5t149.5 26q59 0 107 -15h2q23 0 47.5 16.5t32.5 58.5h154q-10 -52 -41 -92.5t-74 -58.5q5 -5 9.5 -10.5t9.5 -10.5q47 -54 62 -120t2 -142
q-26 -152 -140 -254zM225 350q-15 -84 27 -137t124 -53q41 0 78.5 14.5t67.5 40t50.5 60t27.5 75.5q14 84 -29 136q-44 54 -125 54q-42 0 -79 -14.5t-66 -40t-49 -60.5t-27 -75zM290 758q4 44 17 75.5t31.5 51t41 28.5t45.5 9q19 0 37.5 -5.5t35.5 -15.5q11 -6 19 -10t15 -4
q8 0 13.5 7t9.5 26h122q-5 -45 -17.5 -76t-31 -50.5t-41 -28t-45.5 -8.5q-40 0 -74 21q-19 14 -31 14q-20 0 -26 -34h-121z" />
    <glyph glyph-name="uni1EE1" unicode="&#x1ee1;" horiz-adv-x="583" 
d="M258 -14q-65 0 -113.5 25t-78.5 65t-40 90t1 100q10 56 37.5 102t67 78.5t90 50t107.5 17.5q47 0 87 -14h2q23 0 47.5 16.5t32.5 58.5h154q-11 -57 -47 -100t-86 -57q55 -83 37 -182q-10 -54 -37 -100t-66.5 -79.5t-89.5 -52t-105 -18.5zM148 558q4 44 17 75.5t31.5 51
t41 28.5t45.5 9q19 0 37.5 -5.5t35.5 -15.5q11 -6 19 -10t15 -4q8 0 13.5 7t9.5 26h122q-5 -45 -17.5 -76t-31 -50.5t-41 -28t-45.5 -8.5q-40 0 -74 21q-19 14 -31 14q-20 0 -26 -34h-121zM191 250q-8 -46 14.5 -75t65.5 -29q45 0 77.5 29t40.5 75t-14 75t-67 29
q-43 0 -76 -29t-41 -75z" />
    <glyph glyph-name="uni1EE2" unicode="&#x1ee2;" horiz-adv-x="790" 
d="M638 87q-62 -56 -132.5 -79t-152.5 -23q-79 0 -142 32t-104.5 84.5t-58 120t-1.5 139.5q13 78 50.5 143.5t93.5 112t126.5 72.5t149.5 26q59 0 107 -15h2q23 0 47.5 16.5t32.5 58.5h154q-10 -52 -41 -92.5t-74 -58.5q5 -5 9.5 -10.5t9.5 -10.5q47 -54 62 -120t2 -142
q-26 -152 -140 -254zM225 350q-15 -84 27 -137t124 -53q41 0 78.5 14.5t67.5 40t50.5 60t27.5 75.5q14 84 -29 136q-44 54 -125 54q-42 0 -79 -14.5t-66 -40t-49 -60.5t-27 -75zM299 -235q-37 0 -59 26.5t-16 62.5q3 18 12.5 34t23.5 28.5t31.5 19.5t36.5 7q37 0 59 -26
t15 -63q-3 -18 -12 -34.5t-23 -28.5t-31.5 -19t-36.5 -7z" />
    <glyph glyph-name="uni1EE3" unicode="&#x1ee3;" horiz-adv-x="583" 
d="M258 -14q-65 0 -113.5 25t-78.5 65t-40 90t1 100q10 56 37.5 102t67 78.5t90 50t107.5 17.5q47 0 87 -14h2q23 0 47.5 16.5t32.5 58.5h154q-11 -57 -47 -100t-86 -57q55 -83 37 -182q-10 -54 -37 -100t-66.5 -79.5t-89.5 -52t-105 -18.5zM191 250q-8 -46 14.5 -75
t65.5 -29q45 0 77.5 29t40.5 75t-14 75t-67 29q-43 0 -76 -29t-41 -75zM196 -235q-37 0 -59 26.5t-16 62.5q3 18 12.5 34t23.5 28.5t31.5 19.5t36.5 7q37 0 59 -26t15 -63q-3 -18 -12 -34.5t-23 -28.5t-31.5 -19t-36.5 -7z" />
    <glyph glyph-name="uni1EE4" unicode="&#x1ee4;" horiz-adv-x="645" 
d="M92 54q-70 69 -50 176l83 470h179l-80 -453q-15 -88 83 -88t114 88l79 453h179l-83 -470q-11 -60 -37.5 -106t-66.5 -76.5t-91.5 -46.5t-110.5 -16q-128 0 -198 69zM228 -235q-37 0 -59 26.5t-16 62.5q3 18 12.5 34t23.5 28.5t31.5 19.5t36.5 7q37 0 59 -26t15 -63
q-3 -18 -12 -34.5t-23 -28.5t-31.5 -19t-36.5 -7z" />
    <glyph glyph-name="uni1EE5" unicode="&#x1ee5;" horiz-adv-x="578" 
d="M183 -14q-41 0 -72.5 14.5t-52 42t-28 67.5t1.5 91l53 299h166l-49 -278q-6 -40 11 -59.5t51 -19.5q38 0 63.5 23t33.5 68v-1l47 267h166l-88 -500h-166l9 51q-57 -65 -146 -65zM200 -235q-37 0 -59 26.5t-16 62.5q3 18 12.5 34t23.5 28.5t31.5 19.5t36.5 7q37 0 59 -26
t15 -63q-3 -18 -12 -34.5t-23 -28.5t-31.5 -19t-36.5 -7z" />
    <glyph glyph-name="uni1EE6" unicode="&#x1ee6;" horiz-adv-x="645" 
d="M92 54q-70 69 -50 176l83 470h179l-80 -453q-15 -88 83 -88t114 88l79 453h179l-83 -470q-11 -60 -37.5 -106t-66.5 -76.5t-91.5 -46.5t-110.5 -16q-128 0 -198 69zM301 890q31 30 64 42.5t75 12.5q56 0 87.5 -21t24.5 -63q-5 -26 -18.5 -42.5t-29.5 -29t-29.5 -22.5
t-16.5 -22h-112q6 23 18.5 37t25 23.5t22.5 16.5t11 16q1 6 -2.5 11t-15.5 5q-26 0 -47 -24z" />
    <glyph glyph-name="uni1EE7" unicode="&#x1ee7;" horiz-adv-x="578" 
d="M183 -14q-41 0 -72.5 14.5t-52 42t-28 67.5t1.5 91l53 299h166l-49 -278q-6 -40 11 -59.5t51 -19.5q38 0 63.5 23t33.5 68v-1l47 267h166l-88 -500h-166l9 51q-57 -65 -146 -65zM236 700q31 30 64 42.5t75 12.5q56 0 87.5 -21t24.5 -63q-5 -26 -18.5 -42.5t-29.5 -29
t-29.5 -22.5t-16.5 -22h-112q6 23 18.5 37t25 23.5t22.5 16.5t11 16q1 6 -2.5 11t-15.5 5q-26 0 -47 -24z" />
    <glyph glyph-name="uni1EE8" unicode="&#x1ee8;" horiz-adv-x="645" 
d="M92 54q-70 69 -50 176l83 470h179l-80 -453q-15 -88 83 -88t114 88l79 453h48q36 0 57.5 20t27.5 55h154q-10 -54 -43 -95t-79 -58l-69 -392q-11 -60 -37.5 -106t-66.5 -76.5t-91.5 -46.5t-110.5 -16q-128 0 -198 69zM332 755l101 145h198l-136 -145h-163z" />
    <glyph glyph-name="uni1EE9" unicode="&#x1ee9;" horiz-adv-x="600" 
d="M183 -14q-41 0 -72.5 14.5t-52 42t-28 67.5t1.5 91l53 299h166l-49 -278q-6 -40 11 -59.5t51 -19.5q38 0 63.5 23t33.5 68v-1l47 267h47q22 2 43.5 18.5t29.5 56.5h154q-10 -54 -43 -95t-79 -58l-74 -422h-166l9 51q-57 -65 -146 -65zM253 555l101 145h198l-136 -145
h-163z" />
    <glyph glyph-name="uni1EEA" unicode="&#x1eea;" horiz-adv-x="645" 
d="M92 54q-70 69 -50 176l83 470h179l-80 -453q-15 -88 83 -88t114 88l79 453h48q36 0 57.5 20t27.5 55h154q-10 -54 -43 -95t-79 -58l-69 -392q-11 -60 -37.5 -106t-66.5 -76.5t-91.5 -46.5t-110.5 -16q-128 0 -198 69zM243 900h188l61 -145h-154z" />
    <glyph glyph-name="uni1EEB" unicode="&#x1eeb;" horiz-adv-x="600" 
d="M183 -14q-41 0 -72.5 14.5t-52 42t-28 67.5t1.5 91l53 299h166l-49 -278q-6 -40 11 -59.5t51 -19.5q38 0 63.5 23t33.5 68v-1l47 267h47q22 2 43.5 18.5t29.5 56.5h154q-10 -54 -43 -95t-79 -58l-74 -422h-166l9 51q-57 -65 -146 -65zM354 700l61 -145h-154l-95 145h188z
" />
    <glyph glyph-name="uni1EEC" unicode="&#x1eec;" horiz-adv-x="645" 
d="M92 54q-70 69 -50 176l83 470h179l-80 -453q-15 -88 83 -88t114 88l79 453h48q36 0 57.5 20t27.5 55h154q-10 -54 -43 -95t-79 -58l-69 -392q-11 -60 -37.5 -106t-66.5 -76.5t-91.5 -46.5t-110.5 -16q-128 0 -198 69zM301 890q31 30 64 42.5t75 12.5q56 0 87.5 -21
t24.5 -63q-5 -26 -18.5 -42.5t-29.5 -29t-29.5 -22.5t-16.5 -22h-112q6 23 18.5 37t25 23.5t22.5 16.5t11 16q1 6 -2.5 11t-15.5 5q-26 0 -47 -24z" />
    <glyph glyph-name="uni1EED" unicode="&#x1eed;" horiz-adv-x="600" 
d="M183 -14q-41 0 -72.5 14.5t-52 42t-28 67.5t1.5 91l53 299h166l-49 -278q-6 -40 11 -59.5t51 -19.5q38 0 63.5 23t33.5 68v-1l47 267h47q22 2 43.5 18.5t29.5 56.5h154q-10 -54 -43 -95t-79 -58l-74 -422h-166l9 51q-57 -65 -146 -65zM236 700q31 30 64 42.5t75 12.5
q56 0 87.5 -21t24.5 -63q-5 -26 -18.5 -42.5t-29.5 -29t-29.5 -22.5t-16.5 -22h-112q6 23 18.5 37t25 23.5t22.5 16.5t11 16q1 6 -2.5 11t-15.5 5q-26 0 -47 -24z" />
    <glyph glyph-name="uni1EEE" unicode="&#x1eee;" horiz-adv-x="645" 
d="M92 54q-70 69 -50 176l83 470h179l-80 -453q-15 -88 83 -88t114 88l79 453h48q36 0 57.5 20t27.5 55h154q-10 -54 -43 -95t-79 -58l-69 -392q-11 -60 -37.5 -106t-66.5 -76.5t-91.5 -46.5t-110.5 -16q-128 0 -198 69zM232 748q4 44 17 75.5t31.5 51t41 28.5t45.5 9
q19 0 37.5 -5.5t35.5 -15.5q11 -6 19 -10t15 -4q8 0 13.5 7t9.5 26h122q-5 -45 -17.5 -76t-31 -50.5t-41 -28t-45.5 -8.5q-40 0 -74 21q-19 14 -31 14q-20 0 -26 -34h-121z" />
    <glyph glyph-name="uni1EEF" unicode="&#x1eef;" horiz-adv-x="600" 
d="M183 -14q-41 0 -72.5 14.5t-52 42t-28 67.5t1.5 91l53 299h166l-49 -278q-6 -40 11 -59.5t51 -19.5q38 0 63.5 23t33.5 68v-1l47 267h47q22 2 43.5 18.5t29.5 56.5h154q-10 -54 -43 -95t-79 -58l-74 -422h-166l9 51q-57 -65 -146 -65zM155 548q4 44 17 75.5t31.5 51
t41 28.5t45.5 9q19 0 37.5 -5.5t35.5 -15.5q11 -6 19 -10t15 -4q8 0 13.5 7t9.5 26h122q-5 -45 -17.5 -76t-31 -50.5t-41 -28t-45.5 -8.5q-40 0 -74 21q-19 14 -31 14q-20 0 -26 -34h-121z" />
    <glyph glyph-name="uni1EF0" unicode="&#x1ef0;" horiz-adv-x="645" 
d="M92 54q-70 69 -50 176l83 470h179l-80 -453q-15 -88 83 -88t114 88l79 453h48q36 0 57.5 20t27.5 55h154q-10 -54 -43 -95t-79 -58l-69 -392q-11 -60 -37.5 -106t-66.5 -76.5t-91.5 -46.5t-110.5 -16q-128 0 -198 69zM228 -235q-37 0 -59 26.5t-16 62.5q3 18 12.5 34
t23.5 28.5t31.5 19.5t36.5 7q37 0 59 -26t15 -63q-3 -18 -12 -34.5t-23 -28.5t-31.5 -19t-36.5 -7z" />
    <glyph glyph-name="uni1EF1" unicode="&#x1ef1;" horiz-adv-x="600" 
d="M183 -14q-41 0 -72.5 14.5t-52 42t-28 67.5t1.5 91l53 299h166l-49 -278q-6 -40 11 -59.5t51 -19.5q38 0 63.5 23t33.5 68v-1l47 267h47q22 2 43.5 18.5t29.5 56.5h154q-10 -54 -43 -95t-79 -58l-74 -422h-166l9 51q-57 -65 -146 -65zM200 -235q-37 0 -59 26.5t-16 62.5
q3 18 12.5 34t23.5 28.5t31.5 19.5t36.5 7q37 0 59 -26t15 -63q-3 -18 -12 -34.5t-23 -28.5t-31.5 -19t-36.5 -7z" />
    <glyph glyph-name="Ygrave" unicode="&#x1ef2;" horiz-adv-x="631" 
d="M79 700h190l75 -225l154 225h212l-295 -395l-54 -305h-179l54 305zM413 900l61 -145h-154l-95 145h188z" />
    <glyph glyph-name="ygrave" unicode="&#x1ef3;" horiz-adv-x="549" 
d="M25 -44q27 0 46.5 3t34.5 10.5t26.5 20t23.5 30.5l-112 480h176l52 -289l130 289h191l-254 -485q-60 -115 -134.5 -165.5t-172.5 -50.5h-17t-18 1zM336 700l61 -145h-154l-95 145h188z" />
    <glyph glyph-name="uni1EF4" unicode="&#x1ef4;" horiz-adv-x="631" 
d="M269 700l75 -225l154 225h212l-295 -395l-54 -305h-179l54 305l-157 395h190zM233 -235q-37 0 -59 26.5t-16 62.5q3 18 12.5 34t23.5 28.5t31.5 19.5t36.5 7q37 0 59 -26t15 -63q-3 -18 -12 -34.5t-23 -28.5t-31.5 -19t-36.5 -7z" />
    <glyph glyph-name="uni1EF5" unicode="&#x1ef5;" horiz-adv-x="549" 
d="M339 15q-60 -115 -134.5 -165.5t-172.5 -50.5h-17t-18 1l28 156q27 0 46.5 3t34.5 10.5t26.5 20t23.5 30.5l-112 480h176l52 -289l130 289h191zM378 -235q-37 0 -59 26.5t-16 62.5q3 18 12.5 34t23.5 28.5t31.5 19.5t36.5 7q37 0 59 -26t15 -63q-3 -18 -12 -34.5
t-23 -28.5t-31.5 -19t-36.5 -7z" />
    <glyph glyph-name="uni1EF6" unicode="&#x1ef6;" horiz-adv-x="631" 
d="M269 700l75 -225l154 225h212l-295 -395l-54 -305h-179l54 305l-157 395h190zM283 890q31 30 64 42.5t75 12.5q56 0 87.5 -21t24.5 -63q-5 -26 -18.5 -42.5t-29.5 -29t-29.5 -22.5t-16.5 -22h-112q6 23 18.5 37t25 23.5t22.5 16.5t11 16q1 6 -2.5 11t-15.5 5
q-26 0 -47 -24z" />
    <glyph glyph-name="uni1EF7" unicode="&#x1ef7;" horiz-adv-x="549" 
d="M25 -44q27 0 46.5 3t34.5 10.5t26.5 20t23.5 30.5l-112 480h176l52 -289l130 289h191l-254 -485q-60 -115 -134.5 -165.5t-172.5 -50.5h-17t-18 1zM211 700q31 30 64 42.5t75 12.5q56 0 87.5 -21t24.5 -63q-5 -26 -18.5 -42.5t-29.5 -29t-29.5 -22.5t-16.5 -22h-112
q6 23 18.5 37t25 23.5t22.5 16.5t11 16q1 6 -2.5 11t-15.5 5q-26 0 -47 -24z" />
    <glyph glyph-name="uni1EF8" unicode="&#x1ef8;" horiz-adv-x="631" 
d="M79 700h190l75 -225l154 225h212l-295 -395l-54 -305h-179l54 305zM214 748q4 44 17 75.5t31.5 51t41 28.5t45.5 9q19 0 37.5 -5.5t35.5 -15.5q11 -6 19 -10t15 -4q8 0 13.5 7t9.5 26h122q-5 -45 -17.5 -76t-31 -50.5t-41 -28t-45.5 -8.5q-40 0 -74 21q-19 14 -31 14
q-20 0 -26 -34h-121z" />
    <glyph glyph-name="uni1EF9" unicode="&#x1ef9;" horiz-adv-x="549" 
d="M25 -44q27 0 46.5 3t34.5 10.5t26.5 20t23.5 30.5l-112 480h176l52 -289l130 289h191l-254 -485q-60 -115 -134.5 -165.5t-172.5 -50.5h-17t-18 1zM137 548q4 44 17 75.5t31.5 51t41 28.5t45.5 9q19 0 37.5 -5.5t35.5 -15.5q11 -6 19 -10t15 -4q8 0 13.5 7t9.5 26h122
q-5 -45 -17.5 -76t-31 -50.5t-41 -28t-45.5 -8.5q-40 0 -74 21q-19 14 -31 14q-20 0 -26 -34h-121z" />
    <glyph glyph-name="endash" unicode="&#x2013;" horiz-adv-x="612" 
d="M50 222l28 158h502l-28 -158h-502z" />
    <glyph glyph-name="emdash" unicode="&#x2014;" horiz-adv-x="712" 
d="M50 222l28 158h602l-28 -158h-602z" />
    <glyph glyph-name="quoteleft" unicode="&#x2018;" horiz-adv-x="302" 
d="M64 386l140 314h134l-90 -314h-184z" />
    <glyph glyph-name="quoteright" unicode="&#x2019;" horiz-adv-x="302" 
d="M341 700l-140 -314h-134l90 314h184z" />
    <glyph glyph-name="quotesinglbase" unicode="&#x201a;" horiz-adv-x="302" 
d="M248 174l-140 -314h-134l90 314h184z" />
    <glyph glyph-name="quotedblleft" unicode="&#x201c;" horiz-adv-x="525" 
d="M427 700h134l-90 -314h-184zM64 386l140 314h134l-90 -314h-184z" />
    <glyph glyph-name="quotedblright" unicode="&#x201d;" horiz-adv-x="525" 
d="M380 700h184l-140 -314h-134zM157 700h184l-140 -314h-134z" />
    <glyph glyph-name="quotedblbase" unicode="&#x201e;" horiz-adv-x="525" 
d="M287 174h184l-140 -314h-134zM64 174h184l-140 -314h-134z" />
    <glyph glyph-name="dagger" unicode="&#x2020;" horiz-adv-x="471" 
d="M66 424l28 158h116l21 118h167l-21 -118h117l-28 -158h-116l-75 -424h-167l75 424h-117z" />
    <glyph glyph-name="daggerdbl" unicode="&#x2021;" horiz-adv-x="471" 
d="M12 118l28 158h116l27 148h-117l28 158h116l21 118h167l-21 -118h117l-28 -158h-116l-27 -148h117l-28 -158h-116l-21 -118h-167l21 118h-117z" />
    <glyph glyph-name="bullet" unicode="&#x2022;" horiz-adv-x="399" 
d="M82 236q-40 50 -28 120q6 34 24 63t44 50t58 33t66 12q67 0 106 -50q40 -50 28 -116q-6 -35 -23 -65t-42.5 -51.5t-57.5 -33.5t-68 -12q-66 0 -107 50z" />
    <glyph glyph-name="ellipsis" unicode="&#x2026;" horiz-adv-x="788" 
d="M597 -14q-21 0 -38.5 8.5t-29.5 22.5t-16.5 33.5t-0.5 41.5q4 21 15 40t27.5 32.5t36.5 21.5t43 8q21 0 38.5 -8.5t29.5 -23t16.5 -34t0.5 -40.5q-8 -45 -41 -73.5t-81 -28.5zM347 -14q-21 0 -38.5 8.5t-29.5 22.5t-16.5 33.5t-0.5 41.5q4 21 15 40t27.5 32.5t36.5 21.5
t43 8q21 0 38.5 -8.5t29.5 -23t16.5 -34t0.5 -40.5q-8 -45 -41 -73.5t-81 -28.5zM98 -14q-21 0 -38.5 8.5t-29.5 22.5t-16.5 33.5t-0.5 41.5q4 21 15 40t27.5 32.5t36.5 21.5t43 8q21 0 38.5 -8.5t29.5 -23t16.5 -34t0.5 -40.5q-8 -45 -41 -73.5t-81 -28.5z" />
    <glyph glyph-name="perthousand" unicode="&#x2030;" horiz-adv-x="1220" 
d="M119 410q-43 55 -33 127q6 40 24.5 72.5t47 56t64.5 36.5t75 13q81 0 124 -58q43 -57 30 -132q-8 -38 -27 -69.5t-46.5 -53.5t-62 -34t-73.5 -12q-80 0 -123 54zM836 41q-44 56 -32 129q6 39 25 71t47 55t63.5 36t74.5 13q80 0 124 -57q45 -59 30 -131
q-8 -38 -26.5 -69.5t-46 -54t-62 -35t-73.5 -12.5q-81 0 -124 55zM440 41q-44 56 -32 129t69 124q58 51 141 51q79 0 123 -57q44 -58 31 -131q-7 -38 -26 -69.5t-46.5 -54t-62 -35t-73.5 -12.5q-81 0 -124 55zM115 111l546 500l63 -41l-546 -501zM219 536q-5 -23 6.5 -38
t33.5 -15q18 0 32 9.5t21.5 23.5t8 29.5t-8.5 27.5q-12 15 -32 15q-21 0 -40 -14.5t-21 -37.5zM540 165q-5 -22 6.5 -37t33.5 -15q23 0 40 15.5t21 36.5q5 23 -7 38t-35 15q-22 0 -38.5 -15t-20.5 -38zM936 165q-4 -22 7.5 -37t33.5 -15t39 15.5t21 36.5q5 23 -7 38t-34 15
t-38.5 -15t-21.5 -38z" />
    <glyph glyph-name="guilsinglleft" unicode="&#x2039;" horiz-adv-x="364" 
d="M354 504l-147 -200l76 -190h-139l-79 195l144 195h145z" />
    <glyph glyph-name="guilsinglright" unicode="&#x203a;" horiz-adv-x="365" 
d="M241 504l79 -195l-144 -195h-145l147 200l-76 190h139z" />
    <glyph glyph-name="fraction" unicode="&#x2044;" horiz-adv-x="180" 
d="M-94 0h-119l522 700h119z" />
    <glyph glyph-name="Euro" unicode="&#x20ac;" horiz-adv-x="632" 
d="M13 250l15 84h60q1 10 2 17t2 11l1 7h-59l15 84h66q40 125 124 193.5t202 68.5q81 0 138 -40t84 -112l-157 -83q-27 61 -88 61q-78 0 -118 -88h166l-15 -84h-178q-1 -2 -1.5 -7t-2.5 -12l-3 -16h179l-15 -84h-167q9 -91 88 -91q61 0 109 72l138 -87q-90 -159 -270 -159
q-56 0 -100 19t-75.5 53.5t-49 83.5t-20.5 109h-70z" />
    <glyph glyph-name="uni20BD" unicode="&#x20bd;" horiz-adv-x="610" 
d="M-1 191h66l7 40h-65l28 159h65l55 310h272q99 0 161 -72q63 -73 45 -173q-20 -111 -95.5 -167.5t-193.5 -56.5h-93l-7 -40h205l-17 -99h-206l-16 -92h-179l16 92h-65zM279 390h93q31 0 54.5 19t28.5 51t-11 51t-47 19h-94z" />
    <glyph glyph-name="uni2116" unicode="&#x2116;" horiz-adv-x="1055" 
d="M134 700h139l182 -366l65 366h178l-123 -700h-138l-182 366l-65 -366h-179zM757 419q-44 54 -30 126q7 38 25 69.5t45 54t61 34.5t73 12q75 0 119 -54q44 -53 31 -126q-7 -38 -25.5 -69t-45.5 -53.5t-61.5 -34.5t-72.5 -12q-75 0 -119 53zM703 325h328l-28 -159h-328z
M859 540q-3 -20 7 -32.5t30 -12.5t34.5 12.5t17.5 32.5q7 23 -5.5 34t-30.5 11t-34.5 -11t-18.5 -34z" />
    <glyph glyph-name="trademark" unicode="&#x2122;" horiz-adv-x="481" 
d="M268 500l35 200h70l27 -67l52 67h78l-35 -200h-70l16 94l-51 -61h-7l-29 60l-16 -93h-70zM97 631l12 69h176l-13 -69h-50l-23 -131h-73l23 131h-52z" />
    <glyph glyph-name="estimated" unicode="&#x212e;" horiz-adv-x="780" 
d="M101 98q-89 108 -62 262q14 80 53.5 144.5t97 110.5t129.5 70.5t152 24.5q161 0 247 -105q43 -53 59 -116t1 -139q-3 -15 -18 -15h-560q-15 0 -18 -15l-33 -192q-3 -11 3 -19q72 -89 218 -89q72 0 135.5 23t114.5 74q9 9 19 9h35q10 0 12 -6t-6 -13q-68 -56 -145 -86.5
t-171 -30.5q-173 0 -263 108zM193 380q-3 -15 12 -15h410q15 0 18 15l35 194q1 10 -4 19q-29 48 -80.5 67.5t-117.5 19.5q-65 0 -123 -20.5t-106 -68.5q-9 -9 -10 -19z" />
    <glyph glyph-name="oneeighth" unicode="&#x215b;" horiz-adv-x="804" 
d="M587 -14q-36 0 -64.5 9.5t-47 26t-26 40t-2.5 52.5q12 67 76 98q-39 32 -30 85q10 57 54.5 87t108.5 30q61 0 99 -35q39 -35 28 -91q-5 -26 -19 -47t-39 -35q48 -37 39 -100q-8 -57 -54.5 -88.5t-122.5 -31.5zM63 0l522 700h119l-522 -700h-119zM71 654l135 46h114
l-71 -400h-132l46 256l-81 -20zM571 127q-7 -34 32 -34q37 0 44 34q4 33 -32 33q-40 0 -44 -33zM602 280q-5 -27 29 -27q33 0 38 27q4 28 -28 28q-33 0 -39 -28z" />
    <glyph glyph-name="threeeighths" unicode="&#x215c;" horiz-adv-x="863" 
d="M646 -14q-36 0 -64.5 9.5t-47 26t-26 40t-2.5 52.5q12 67 76 98q-39 32 -30 85q10 57 54.5 87t108.5 30q61 0 99 -35q39 -35 28 -91q-5 -26 -19 -47t-39 -35q48 -37 39 -100q-8 -57 -54.5 -88.5t-122.5 -31.5zM137 439q13 -40 54 -40q33 0 36 26q3 25 -27 25h-29l-33 68
l66 66h-123l21 116h286l-16 -87l-78 -79q35 -15 52 -46t10 -71q-23 -131 -178 -131q-122 0 -152 94zM122 0l522 700h119l-522 -700h-119zM630 127q-7 -34 32 -34q37 0 44 34q4 33 -32 33q-40 0 -44 -33zM661 280q-5 -27 29 -27q33 0 38 27q4 28 -28 28q-33 0 -39 -28z" />
    <glyph glyph-name="fiveeighths" unicode="&#x215d;" horiz-adv-x="860" 
d="M643 -14q-36 0 -64.5 9.5t-47 26t-26 40t-2.5 52.5q12 67 76 98q-39 32 -30 85q10 57 54.5 87t108.5 30q61 0 99 -35q39 -35 28 -91q-5 -26 -19 -47t-39 -35q48 -37 39 -100q-8 -57 -54.5 -88.5t-122.5 -31.5zM177 286q-114 0 -149 93l113 54q12 -38 48 -38q33 0 36 26
q3 28 -25 28h-136l60 251h252l-20 -116h-142l-8 -33h18q30 0 54.5 -9t41 -27t23.5 -44t1 -59q-11 -64 -56 -95t-111 -31zM119 0l522 700h119l-522 -700h-119zM627 127q-7 -34 32 -34q37 0 44 34q4 33 -32 33q-40 0 -44 -33zM658 280q-5 -27 29 -27q33 0 38 27q4 28 -28 28
q-33 0 -39 -28z" />
    <glyph glyph-name="seveneighths" unicode="&#x215e;" horiz-adv-x="830" 
d="M613 -14q-36 0 -64.5 9.5t-47 26t-26 40t-2.5 52.5q12 67 76 98q-39 32 -30 85q10 57 54.5 87t108.5 30q61 0 99 -35q39 -35 28 -91q-5 -26 -19 -47t-39 -35q48 -37 39 -100q-8 -57 -54.5 -88.5t-122.5 -31.5zM611 700h119l-522 -700h-119zM204 584h-145l20 116h289
l-17 -99l-163 -301h-138zM597 127q-7 -34 32 -34q37 0 44 34q4 33 -32 33q-40 0 -44 -33zM628 280q-5 -27 29 -27q33 0 38 27q4 28 -28 28q-33 0 -39 -28z" />
    <glyph glyph-name="arrowleft" unicode="&#x2190;" horiz-adv-x="785" 
d="M781 429l-27 -158h-427l182 -221h-209l-247 300l353 300h229l-260 -221h406z" />
    <glyph glyph-name="arrowup" unicode="&#x2191;" horiz-adv-x="671" 
d="M661 400l-36 -207l-178 216l-72 -409h-167l69 390l-255 -216l40 226l352 300z" />
    <glyph glyph-name="arrowright" unicode="&#x2192;" horiz-adv-x="785" 
d="M521 650l247 -300l-353 -300h-229l260 221h-407l28 158h427l-182 221h209z" />
    <glyph glyph-name="arrowdown" unicode="&#x2193;" horiz-adv-x="671" 
d="M430 310l254 217l-40 -227l-353 -300l-247 300l37 207l178 -216l72 409h167z" />
    <glyph glyph-name="arrowboth" unicode="&#x2194;" horiz-adv-x="1137" 
d="M388 635h226l-242 -206h475l-169 206h207l235 -285l-335 -285h-225l240 206h-475l169 -206h-206l-235 285z" />
    <glyph glyph-name="arrowupdn" unicode="&#x2195;" horiz-adv-x="640" 
d="M629 388l-166 202l-81 -462l237 201l-40 -223l-334 -285l-234 285l36 206l166 -202l81 462l-237 -201l40 223l334 285l234 -285z" />
    <glyph glyph-name="uni2196" unicode="&#x2196;" horiz-adv-x="652" 
d="M653 474h-319l264 -320l-126 -106l-263 319l-56 -317l-126 153l75 424h424z" />
    <glyph glyph-name="uni2197" unicode="&#x2197;" horiz-adv-x="652" 
d="M259 627h424l-74 -424l-181 -153l52 296l-357 -302l-105 125l359 305h-298z" />
    <glyph glyph-name="uni2198" unicode="&#x2198;" horiz-adv-x="652" 
d="M532 642l127 -153l-75 -424h-424l-126 153h318l-264 320l126 106l263 -318z" />
    <glyph glyph-name="uni2199" unicode="&#x2199;" horiz-adv-x="652" 
d="M667 523l-359 -305h299l-180 -153h-424l75 424l179 153l-52 -299l358 304z" />
    <glyph glyph-name="partialdiff" unicode="&#x2202;" horiz-adv-x="584" 
d="M61 52q-52 67 -37 160q8 49 30.5 90t56.5 70.5t77.5 46t93.5 16.5q66 0 116 -27q3 151 -125 151q-33 0 -62.5 -8.5t-58.5 -22.5l27 151q63 36 143 36q119 0 193 -107q73 -106 45 -268q-32 -179 -121 -267t-221 -88q-105 0 -157 67zM189 207q-5 -31 11.5 -49.5t44.5 -18.5
q84 0 128 128q-35 24 -85 24q-36 0 -64 -22.5t-35 -61.5z" />
    <glyph glyph-name="emptyset" unicode="&#x2205;" horiz-adv-x="804" 
d="M121 102q-89 110 -62 258q13 75 51.5 139.5t94 111.5t125 74t146.5 27q94 0 170 -49l53 57h133l-114 -122q88 -108 62 -258q-13 -74 -51 -138.5t-94 -112t-126 -74.5t-145 -27q-95 0 -171 49l-53 -57h-133zM274 123q44 -23 101 -23q53 0 102 19.5t88 53.5t66 79.5
t36 97.5q16 91 -29 162zM172 350q-16 -91 29 -162l364 389q-44 23 -101 23q-53 0 -101.5 -20t-88 -54t-66.5 -79.5t-36 -96.5z" />
    <glyph glyph-name="product" unicode="&#x220f;" horiz-adv-x="631" 
d="M134 700h520l-158 -900h-166l130 741h-187l-130 -741h-167z" />
    <glyph glyph-name="summation" unicode="&#x2211;" horiz-adv-x="561" 
d="M-54 -200l27 152l253 321l-128 301l21 126h470l-28 -163h-267l118 -277l-233 -297h296l-29 -163h-500z" />
    <glyph glyph-name="minus" unicode="&#x2212;" horiz-adv-x="560" 
d="M44 271l29 158h478l-28 -158h-479z" />
    <glyph glyph-name="radical" unicode="&#x221a;" horiz-adv-x="693" 
d="M209 0l-81 179h-110l28 158h194l59 -146l311 609h180l-421 -800h-160z" />
    <glyph glyph-name="infinity" unicode="&#x221e;" horiz-adv-x="819" 
d="M93 215q-49 57 -33 142q7 42 27 76.5t49 58.5t66 37t79 13q88 0 163 -86q97 86 185 86q85 0 133 -57q48 -56 33 -142q-8 -42 -27.5 -76.5t-48 -58.5t-65.5 -37t-79 -13q-88 0 -163 86q-97 -86 -185 -86q-85 0 -134 57zM228 350q-4 -18 6.5 -29t28.5 -11q36 0 76 40
q-28 40 -62 40q-18 0 -32 -11t-17 -29zM593 390q-36 0 -76 -40q27 -40 62 -40q17 0 30.5 11t17.5 29t-6 29t-28 11z" />
    <glyph glyph-name="integral" unicode="&#x222b;" horiz-adv-x="461" 
d="M-51 -40q13 -9 29 -9q29 0 50 17.5t30 43.5l181 521q32 94 90 136.5t133 42.5q40 0 79 -10l-30 -164q-14 9 -29 9q-28 0 -49.5 -17.5t-30.5 -43.5l-180 -521q-14 -39 -33.5 -71.5t-46.5 -56.5t-62 -37t-78 -13q-40 0 -82 9z" />
    <glyph glyph-name="approxequal" unicode="&#x2248;" horiz-adv-x="568" 
d="M24 189q31 78 79.5 118.5t105.5 40.5q41 0 83 -21q24 -11 49 -18.5t51 -7.5q20 0 36.5 6.5t38.5 18.5l73 -39q-27 -80 -72 -119.5t-102 -39.5q-41 0 -84 21q-26 14 -46.5 21t-37.5 7q-38 0 -59 -46zM64 411q26 80 71.5 119.5t101.5 39.5q40 0 84 -21q26 -14 46.5 -21
t37.5 -7q39 0 60 46l113 -58q-11 -30 -28 -58.5t-40.5 -51t-52.5 -36.5t-63 -14q-38 0 -82 22q-24 11 -49 18.5t-52 7.5q-20 0 -36 -6t-39 -18z" />
    <glyph glyph-name="notequal" unicode="&#x2260;" horiz-adv-x="511" 
d="M20 161l28 159h164l37 60h-191l29 159h260l68 111h87l-69 -111h93l-29 -159h-162l-37 -60h189l-28 -159h-259l-69 -111h-86l68 111h-93z" />
    <glyph glyph-name="lessequal" unicode="&#x2264;" horiz-adv-x="521" 
d="M562 684l-32 -179l-292 -70l268 -69l-30 -166l-422 158l30 168zM-5 21l28 159h450l-28 -159h-450z" />
    <glyph glyph-name="greaterequal" unicode="&#x2265;" horiz-adv-x="521" 
d="M112 684l422 -158l-30 -168l-478 -158l32 179l292 69l-268 69zM-5 21l28 159h450l-28 -159h-450z" />
    <glyph glyph-name="lozenge" unicode="&#x25ca;" horiz-adv-x="588" 
d="M177 0l-124 350l247 350h146l125 -350l-248 -350h-146zM280 207l110 156l-46 130l-110 -156z" />
    <glyph glyph-name="NULL" horiz-adv-x="0" 
 />
    <glyph glyph-name="i.loclTRK" horiz-adv-x="262" 
d="M4 0l88 500h166l-88 -500h-166zM182 543q-18 0 -33.5 7t-25.5 19.5t-14 28.5t-1 34t13 34.5t24.5 29t32 19.5t35.5 7q37 0 59 -26.5t16 -63.5q-4 -18 -14.5 -34t-24.5 -28.5t-31.5 -19.5t-35.5 -7z" />
    <glyph glyph-name="f_f_j" horiz-adv-x="855" 
d="M59 500h63q37 216 260 216h15t15 -1l-27 -154q-18 0 -34 -2t-29 -8.5t-21.5 -18.5t-12.5 -32h116l2 10q22 110 91.5 162.5t198.5 52.5q65 0 127 -15l-25 -145q-54 9 -109 9q-103 0 -116 -64l-2 -10h280l-88 -500q-20 -115 -78.5 -165.5t-168.5 -50.5h-15.5t-15.5 1
l28 154q34 0 55.5 12.5t27.5 48.5l60 341h-113l-60 -341h-167l60 341h-116l-60 -341h-166l60 341h-62z" />
    <glyph glyph-name="f_j" horiz-adv-x="572" 
d="M32 341l27 159h63q19 112 89.5 163.5t200.5 51.5q65 0 127 -15l-25 -145q-54 9 -109 9q-105 0 -117 -64h280l-88 -500q-10 -57 -29 -98t-49 -67.5t-72 -38.5t-96 -12h-15.5t-15.5 1l27 154q34 0 55.5 12.5t28.5 48.5l60 341h-114l-60 -341h-166l60 341h-62z" />
    <glyph glyph-name="uni0414.loclBGR" horiz-adv-x="740" 
d="M-58 -134l55 307h82l263 527h214l78 -527h82l-55 -307h-178l24 134h-362l-24 -134h-179zM454 173l-35 327l-151 -327h186z" />
    <glyph glyph-name="uni041B.loclBGR" horiz-adv-x="640" 
d="M-49 0l341 700h214l95 -700h-188l-44 492l-218 -492h-200z" />
    <glyph glyph-name="uni0424.loclBGR" horiz-adv-x="869" 
d="M94 120q-72 100 -47 240q29 154 130.5 241t253.5 106l16 93h169l-17 -96q141 -26 211 -124q72 -101 47 -240q-14 -76 -48 -136t-83.5 -104t-113.5 -71t-139 -36l-16 -93h-169l17 96q-139 25 -211 124zM503 161q147 31 176 189q28 154 -109 189zM225 350
q-27 -157 109 -188l67 376q-150 -33 -176 -188z" />
    <glyph glyph-name="uni0414.ss01" horiz-adv-x="712" 
d="M-33 0l30 173h73q61 74 88 222l53 305h487l-93 -527h76l-31 -173h-683zM427 173l64 361h-130l-25 -141q-25 -141 -74 -220h165z" />
    <glyph glyph-name="uni0426.ss01" horiz-adv-x="702" 
d="M11 0l123 700h184l-93 -527h182l93 527h183l-93 -527h80l-30 -173h-629z" />
    <glyph glyph-name="uni0429.ss01" horiz-adv-x="992" 
d="M134 700h179l-93 -527h152l92 527h179l-93 -527h152l92 527h179l-93 -527h80l-30 -173h-919z" />
    <glyph glyph-name="uni0414.loclBGR.ss01" horiz-adv-x="740" 
d="M-34 0l31 173h82l263 527h214l78 -527h82l-31 -173h-719zM268 173h186l-35 327z" />
    <glyph glyph-name="uni0432.loclBGR" horiz-adv-x="562" 
d="M85 56q-59 71 -40 179l42 239q21 118 89 179t177 61q89 0 143 -55q54 -57 41 -137q-14 -69 -80 -124q95 -60 73 -190q-19 -109 -89.5 -165.5t-187.5 -56.5q-108 0 -168 70zM210 228q-7 -38 11 -61t53 -23q37 0 61 19.5t29 54.5q7 34 -11 51.5t-56 17.5q-10 0 -21 -1.5
t-23 -3.5l-35 -7zM244 419l21 4q24 5 46 6q54 39 60 79q5 23 -6 37.5t-33 14.5q-29 0 -50 -23.5t-28 -62.5z" />
    <glyph glyph-name="uni0433.loclBGR" horiz-adv-x="472" 
d="M56 35q-60 50 -45 136q9 51 40 83t68 43q28 8 56.5 13t52.5 10.5t40 13t18 20.5q4 24 -33 24q-42 0 -70 -43l-129 67q66 112 213 112q85 0 141 -52t43 -131q-7 -39 -26 -65t-44.5 -41.5t-54.5 -23.5t-56 -11q-36 -6 -62 -14t-29 -23t8 -22.5t32 -7.5q56 0 86 55l131 -75
q-66 -117 -226 -117q-95 0 -154 49z" />
    <glyph glyph-name="uni0434.loclBGR" horiz-adv-x="619" 
d="M235 -215q-85 0 -146.5 31t-87.5 91l147 77q28 -54 102 -54q46 0 77 22.5t39 67.5l7 38q-58 -52 -142 -52q-57 0 -99 22.5t-67 59t-34 83.5t0 96q15 99 87 173q71 74 182 74q98 0 141 -73l10 59h164l-85 -480q-21 -118 -99.5 -176.5t-195.5 -58.5zM197 260
q-8 -45 15.5 -74t71.5 -29q45 0 78.5 25.5t44.5 67.5l3 20q4 42 -20 67.5t-69 25.5q-47 0 -81.5 -29t-42.5 -74z" />
    <glyph glyph-name="uni0436.loclBGR" horiz-adv-x="779" 
d="M-39 0l203 261l-101 239h168l84 -203l71 403h165l-73 -408l153 208h184l-199 -258l110 -242h-170l-91 212l-38 -212h-164l36 205l-159 -205h-179z" />
    <glyph glyph-name="uni0438.loclBGR" horiz-adv-x="578" 
d="M183 -14q-41 0 -72.5 14.5t-52 42t-28 67.5t1.5 91l53 299h166l-49 -278q-6 -40 11 -59.5t51 -19.5q38 0 63.5 23t33.5 68v-1l47 267h166l-88 -500h-166l9 51q-57 -65 -146 -65z" />
    <glyph glyph-name="uni0439.loclBGR" horiz-adv-x="578" 
d="M183 -14q-41 0 -72.5 14.5t-52 42t-28 67.5t1.5 91l53 299h166l-49 -278q-6 -40 11 -59.5t51 -19.5q38 0 63.5 23t33.5 68v-1l47 267h166l-88 -500h-166l9 51q-57 -65 -146 -65zM173 554l24 140h323l-24 -140h-323z" />
    <glyph glyph-name="uni043A.loclBGR" horiz-adv-x="537" 
d="M127 700h166l-70 -398l159 198h191l-210 -251l130 -249h-178l-106 220l-39 -220h-166z" />
    <glyph glyph-name="uni043B.loclBGR" horiz-adv-x="533" 
d="M-44 0l270 500h169l94 -500h-169l-41 283l-140 -283h-183z" />
    <glyph glyph-name="uni043F.loclBGR" horiz-adv-x="578" 
d="M92 500h166l-9 -51q57 65 146 65q40 0 72 -14.5t52.5 -42t28 -67.5t-1.5 -91l-53 -299h-166l49 278q6 40 -11 59.5t-51 19.5q-38 0 -63.5 -23t-33.5 -68v1l-47 -267h-166z" />
    <glyph glyph-name="uni0442.loclBGR" horiz-adv-x="850" 
d="M4 0l88 500h166l-8 -46q55 60 139 60q87 0 120 -67q64 67 153 67q42 0 75 -14.5t54 -41.5t28.5 -65.5t-0.5 -86.5l-53 -306h-167l50 287q13 70 -49 70q-63 0 -81 -68l-51 -289h-166l50 287q10 70 -50 70q-65 0 -83 -77l-49 -280h-166z" />
    <glyph glyph-name="uni0446.loclBGR" horiz-adv-x="620" 
d="M59 43q-45 57 -27 158l52 299h167l-49 -278q-7 -40 10 -59.5t52 -19.5q72 0 93 76l50 281h167l-56 -318q-6 -30 25 -30h45l-51 -286h-158l26 149q-32 15 -47 44q-67 -73 -169 -73q-85 0 -130 57z" />
    <glyph glyph-name="uni0448.loclBGR" horiz-adv-x="850" 
d="M188 -14q-42 0 -75 14.5t-54 41.5t-28.5 65.5t0.5 86.5l53 306h167l-50 -287q-13 -70 49 -70q63 0 81 68l51 289h166l-50 -287q-10 -70 50 -70q65 0 83 77l49 280h166l-88 -500h-166l8 46q-56 -60 -139 -60q-87 0 -120 67q-64 -67 -153 -67z" />
    <glyph glyph-name="uni0449.loclBGR" horiz-adv-x="892" 
d="M188 -14q-42 0 -75 14.5t-54 41.5t-28.5 65.5t0.5 86.5l53 306h167l-50 -287q-13 -70 49 -70q63 0 81 68l51 289h166l-50 -287q-10 -70 50 -70q65 0 83 78l49 279h166l-56 -318q-6 -30 25 -30h45l-51 -286h-157l26 149q-30 13 -46 41q-64 -70 -164 -70q-92 0 -126 66
q-63 -66 -154 -66z" />
    <glyph glyph-name="uni044C.loclBGR" horiz-adv-x="495" 
d="M67 44q-53 59 -36 152l53 304h162l-22 -127h68q92 0 140 -57q49 -58 34 -145t-78.5 -136.5t-163.5 -49.5q-104 0 -157 59zM192 193q-5 -26 8 -41t40 -15q26 0 44.5 13.5t21.5 33.5q5 22 -6.5 35.5t-37.5 13.5h-63z" />
    <glyph glyph-name="uni044A.loclBGR" horiz-adv-x="578" 
d="M17 346l27 154h285l-22 -127h68q95 0 142 -57q47 -56 32 -145q-15 -87 -78.5 -136.5t-163.5 -49.5q-104 0 -157 59t-36 152l26 150h-123zM275 193q-5 -26 8 -41t40 -15q26 0 44.5 13.5t21.5 33.5q5 22 -6.5 35.5t-37.5 13.5h-63z" />
    <glyph glyph-name="uni044E.loclBGR" horiz-adv-x="807" 
d="M4 0l123 700h166l-65 -372h50q17 41 44 75t62 59t78 38.5t93 13.5q63 0 110 -24t76 -63.5t39.5 -89t0.5 -99.5q-16 -103 -99 -178q-81 -74 -198 -74q-50 0 -89 14t-68 38.5t-46.5 58.5t-23.5 75h-57l-30 -172h-166zM416 250q-7 -46 15 -75t67 -29q43 0 77 29t41 75
q8 46 -14.5 75t-67.5 29q-43 0 -76.5 -29t-41.5 -75z" />
    <glyph glyph-name="zero.sinf" horiz-adv-x="409" 
d="M9 -112q-44 61 -27 159q17 100 74.5 153.5t142.5 53.5q81 0 126 -62q46 -63 28 -159q-18 -100 -75 -153.5t-142 -53.5q-82 0 -127 62zM116 40q-14 -83 37 -83t65 83q17 83 -36 83q-49 0 -66 -83z" />
    <glyph glyph-name="one.sinf" horiz-adv-x="279" 
d="M125 240h114l-71 -400h-132l46 256l-81 -20l-11 118z" />
    <glyph glyph-name="two.sinf" horiz-adv-x="353" 
d="M-47 -160l15 89l168 141q37 32 38 46q4 22 -20 22q-28 0 -56 -45l-100 63q63 98 177 98q61 0 101 -38t28 -101q-6 -32 -26.5 -59t-60.5 -59l-49 -40h111l-20 -117h-306z" />
    <glyph glyph-name="three.sinf" horiz-adv-x="342" 
d="M97 -174q-122 0 -152 94l111 59q13 -40 54 -40q33 0 36 26q3 25 -27 25h-29l-33 68l66 66h-123l21 116h286l-16 -87l-78 -79q35 -15 52 -46t10 -71q-23 -131 -178 -131z" />
    <glyph glyph-name="four.sinf" horiz-adv-x="362" 
d="M-34 11l152 229h141l-147 -229h39l11 63h121l-11 -63h35l-20 -115h-35l-10 -56h-122l10 56h-184z" />
    <glyph glyph-name="five.sinf" horiz-adv-x="331" 
d="M60 -27q12 -38 48 -38q33 0 36 26q3 28 -25 28h-136l60 251h252l-20 -116h-142l-8 -33h18q30 0 54.5 -9t41 -27t23.5 -44t1 -59q-11 -64 -56 -95t-111 -31q-114 0 -149 93z" />
    <glyph glyph-name="six.sinf" horiz-adv-x="343" 
d="M-7 -130q-38 43 -28 107q8 44 32 76l145 187h140l-98 -128q52 -13 78.5 -53t17.5 -94q-11 -64 -58.5 -101.5t-120.5 -37.5q-70 0 -108 44zM85 -29q-4 -18 5 -27.5t26 -9.5q38 0 44 37q6 36 -31 36t-44 -36z" />
    <glyph glyph-name="seven.sinf" horiz-adv-x="302" 
d="M-2 240h289l-17 -99l-163 -301h-138l154 284h-145z" />
    <glyph glyph-name="eight.sinf" horiz-adv-x="349" 
d="M103 -174q-36 0 -64.5 9.5t-47 26t-26 40t-2.5 52.5q12 67 76 98q-39 32 -30 85q10 57 54.5 87t108.5 30q61 0 99 -35q39 -35 28 -91q-5 -26 -19 -47t-39 -35q48 -37 39 -100q-8 -57 -54.5 -88.5t-122.5 -31.5zM87 -33q-7 -34 32 -34q37 0 44 34q4 33 -32 33
q-40 0 -44 -33zM118 120q-5 -27 29 -27q33 0 38 27q4 28 -28 28q-33 0 -39 -28z" />
    <glyph glyph-name="nine.sinf" horiz-adv-x="343" 
d="M85 -32q-52 13 -78.5 53t-17.5 94q11 64 58.5 101.5t120.5 37.5q70 0 108 -44q19 -23 26 -49t2 -58q-8 -49 -38 -83l-139 -180h-140zM109 109q-6 -36 31 -36q36 0 44 36q4 18 -5 27.5t-26 9.5q-37 0 -44 -37z" />
    <glyph glyph-name="zero.tf" horiz-adv-x="589" 
d="M58 90q-63 104 -34 270q12 69 38.5 133.5t68.5 113.5t101 78.5t137 29.5q134 0 197 -105q63 -104 34 -270q-12 -69 -38.5 -133t-68.5 -113.5t-101 -79t-136 -29.5q-134 0 -198 105zM202 350q-35 -191 76 -191q112 0 145 191t-77 191q-111 0 -144 -191z" />
    <glyph glyph-name="one.tf" horiz-adv-x="589" 
d="M-19 0l30 173h194l58 331l-127 -31l-16 159l202 68h154l-93 -527h178l-31 -173h-549z" />
    <glyph glyph-name="two.tf" horiz-adv-x="589" 
d="M-14 0l22 130l303 236q82 61 91 109q5 27 -10 46.5t-50 19.5q-73 0 -122 -88l-143 92q48 85 124.5 127.5t167.5 42.5q102 0 167 -69t47 -172q-11 -62 -45 -108t-104 -101l-118 -92h224l-30 -173h-524z" />
    <glyph glyph-name="three.tf" horiz-adv-x="589" 
d="M258 -15q-102 0 -168.5 44t-87.5 132l164 85q24 -87 109 -87q90 0 104 68q11 68 -80 68h-36l-52 104l133 130h-250l29 171h485l-24 -141l-146 -143q66 -26 99 -80t20 -129q-10 -57 -35.5 -98.5t-64.5 -69t-89.5 -41t-109.5 -13.5z" />
    <glyph glyph-name="four.tf" horiz-adv-x="589" 
d="M9 270l285 430h206l-286 -430h116l23 131h178l-23 -131h70l-29 -163h-70l-19 -107h-178l19 107h-321z" />
    <glyph glyph-name="five.tf" horiz-adv-x="589" 
d="M169 239q23 -80 110 -80q90 0 104 63q5 31 -15 48.5t-66 17.5h-237l101 412h440l-30 -171h-275l-19 -75h58q111 0 176 -65t44 -179q-10 -57 -37 -99t-66 -70t-88 -42t-104 -14q-214 0 -262 170z" />
    <glyph glyph-name="six.tf" horiz-adv-x="589" 
d="M59 63q-64 77 -44 186q15 85 73 146l266 305h208l-184 -214q108 -15 157 -88q25 -37 34 -79t1 -91q-10 -60 -38.5 -105t-70.5 -76t-94.5 -46.5t-110.5 -15.5q-133 0 -197 78zM192 237q-8 -42 15.5 -65t69.5 -23t77.5 23t39.5 65q7 42 -17 65.5t-69 23.5
q-48 0 -78.5 -23.5t-37.5 -65.5z" />
    <glyph glyph-name="seven.tf" horiz-adv-x="589" 
d="M99 700h539l-25 -148l-339 -552h-201l322 527h-326z" />
    <glyph glyph-name="eight.tf" horiz-adv-x="589" 
d="M57 46q-67 59 -50 157q21 112 131 166q-68 53 -53 143q9 53 36.5 91.5t67 63t87 36t97.5 11.5q110 0 174 -58t48 -154q-15 -89 -102 -140q90 -65 71 -171q-18 -97 -97 -151t-213 -54q-130 0 -197 60zM189 222q-6 -34 15.5 -53t72.5 -19q100 0 114 72q11 73 -88 73
q-101 0 -114 -73zM251 492q-5 -28 14.5 -44t61.5 -16q40 0 65.5 16t30.5 44q5 27 -15 43.5t-60 16.5q-42 0 -67 -16t-30 -44z" />
    <glyph glyph-name="nine.tf" horiz-adv-x="589" 
d="M88 302q-50 74 -34 170q10 60 38.5 105t70.5 76t94.5 46.5t110.5 15.5q132 0 197 -78q63 -76 45 -186q-15 -86 -76 -149l-264 -302h-208l184 214q-107 15 -158 88zM231 463q-7 -42 16.5 -65.5t68.5 -23.5q48 0 79 23.5t38 65.5t-16.5 65t-69.5 23q-48 0 -78.5 -23
t-37.5 -65z" />
    <glyph glyph-name="zero.dnom" horiz-adv-x="409" 
d="M37 47q-44 62 -27 160q17 100 74.5 153.5t142.5 53.5q81 0 126 -62q46 -63 28 -159q-18 -100 -75 -153.5t-142 -53.5q-82 0 -127 61zM144 200q-14 -83 37 -83t65 83q17 83 -36 83q-49 0 -66 -83z" />
    <glyph glyph-name="one.dnom" horiz-adv-x="276" 
d="M153 400h114l-71 -400h-132l46 256l-81 -20l-11 118z" />
    <glyph glyph-name="two.dnom" horiz-adv-x="356" 
d="M-19 0l15 89l168 141q37 32 38 46q4 22 -20 22q-28 0 -56 -45l-100 63q63 98 177 98q61 0 101 -38t28 -101q-6 -32 -26.5 -59t-60.5 -59l-49 -40h111l-20 -117h-306z" />
    <glyph glyph-name="three.dnom" horiz-adv-x="335" 
d="M125 -14q-122 0 -152 94l111 59q13 -40 54 -40q33 0 36 26q3 25 -27 25h-29l-33 68l66 66h-123l21 116h286l-16 -87l-78 -79q35 -15 52 -46t10 -71q-23 -131 -178 -131z" />
    <glyph glyph-name="four.dnom" horiz-adv-x="361" 
d="M-6 171l152 229h141l-147 -229h39l11 63h121l-11 -63h35l-20 -115h-35l-10 -56h-122l10 56h-184z" />
    <glyph glyph-name="five.dnom" horiz-adv-x="332" 
d="M88 133q12 -38 48 -38q33 0 36 26q3 28 -25 28h-136l60 251h252l-20 -116h-142l-8 -33h18q30 0 54.5 -9t41 -27t23.5 -44t1 -59q-11 -64 -56 -95t-111 -31q-114 0 -149 93z" />
    <glyph glyph-name="six.dnom" horiz-adv-x="342" 
d="M20 29q-38 43 -27 108q8 44 32 76l145 187h140l-98 -128q52 -13 78.5 -53t17.5 -94q-11 -64 -58.5 -101.5t-120.5 -37.5q-70 0 -109 43zM113 131q-4 -18 5 -27.5t26 -9.5q38 0 44 37q6 36 -31 36t-44 -36z" />
    <glyph glyph-name="seven.dnom" horiz-adv-x="302" 
d="M26 400h289l-17 -99l-163 -301h-138l154 284h-145z" />
    <glyph glyph-name="eight.dnom" horiz-adv-x="348" 
d="M131 -14q-36 0 -64.5 9.5t-47 26t-26 40t-2.5 52.5q12 67 76 98q-39 32 -30 85q10 57 54.5 87t108.5 30q61 0 99 -35q39 -35 28 -91q-5 -26 -19 -47t-39 -35q48 -37 39 -100q-8 -57 -54.5 -88.5t-122.5 -31.5zM115 127q-7 -34 32 -34q37 0 44 34q4 33 -32 33
q-40 0 -44 -33zM146 280q-5 -27 29 -27q33 0 38 27q4 28 -28 28q-33 0 -39 -28z" />
    <glyph glyph-name="nine.dnom" horiz-adv-x="342" 
d="M113 128q-52 13 -78.5 53t-17.5 94q11 64 58.5 101.5t120.5 37.5q70 0 108 -44q19 -23 26 -49t2 -58q-8 -49 -38 -83l-139 -180h-140zM137 269q-6 -36 31 -36q36 0 44 36q4 18 -5 27.5t-26 9.5q-37 0 -44 -37z" />
    <glyph glyph-name="zero.numr" horiz-adv-x="409" 
d="M90 347q-44 62 -27 160q17 100 74.5 153.5t142.5 53.5q81 0 126 -62q46 -63 28 -159q-18 -100 -75 -153.5t-142 -53.5q-82 0 -127 61zM197 500q-14 -83 37 -83t65 83q17 83 -36 83q-49 0 -66 -83z" />
    <glyph glyph-name="one.numr" horiz-adv-x="276" 
d="M206 700h114l-71 -400h-132l46 256l-81 -20l-11 118z" />
    <glyph glyph-name="two.numr" horiz-adv-x="356" 
d="M34 300l15 89l168 141q37 32 38 46q4 22 -20 22q-28 0 -56 -45l-100 63q63 98 177 98q61 0 101 -38t28 -101q-6 -32 -26.5 -59t-60.5 -59l-49 -40h111l-20 -117h-306z" />
    <glyph glyph-name="three.numr" horiz-adv-x="335" 
d="M178 286q-122 0 -152 94l111 59q13 -40 54 -40q33 0 36 26q3 25 -27 25h-29l-33 68l66 66h-123l21 116h286l-16 -87l-78 -79q35 -15 52 -46t10 -71q-23 -131 -178 -131z" />
    <glyph glyph-name="four.numr" horiz-adv-x="361" 
d="M47 471l152 229h141l-147 -229h39l11 63h121l-11 -63h35l-20 -115h-35l-10 -56h-122l10 56h-184z" />
    <glyph glyph-name="five.numr" horiz-adv-x="332" 
d="M141 433q12 -38 48 -38q33 0 36 26q3 28 -25 28h-136l60 251h252l-20 -116h-142l-8 -33h18q30 0 54.5 -9t41 -27t23.5 -44t1 -59q-11 -64 -56 -95t-111 -31q-114 0 -149 93z" />
    <glyph glyph-name="six.numr" horiz-adv-x="342" 
d="M73 329q-38 43 -27 108q8 44 32 76l145 187h140l-98 -128q52 -13 78.5 -53t17.5 -94q-11 -64 -58.5 -101.5t-120.5 -37.5q-70 0 -109 43zM166 431q-4 -18 5 -27.5t26 -9.5q38 0 44 37q6 36 -31 36t-44 -36z" />
    <glyph glyph-name="seven.numr" horiz-adv-x="302" 
d="M79 700h289l-17 -99l-163 -301h-138l154 284h-145z" />
    <glyph glyph-name="eight.numr" horiz-adv-x="349" 
d="M184 286q-36 0 -64.5 9.5t-47 26t-26 40t-2.5 52.5q12 67 76 98q-39 32 -30 85q10 57 54.5 87t108.5 30q61 0 99 -35q39 -35 28 -91q-5 -26 -19 -47t-39 -35q48 -37 39 -100q-8 -57 -54.5 -88.5t-122.5 -31.5zM168 427q-7 -34 32 -34q37 0 44 34q4 33 -32 33
q-40 0 -44 -33zM199 580q-5 -27 29 -27q33 0 38 27q4 28 -28 28q-33 0 -39 -28z" />
    <glyph glyph-name="nine.numr" horiz-adv-x="342" 
d="M166 428q-52 13 -78.5 53t-17.5 94q11 64 58.5 101.5t120.5 37.5q70 0 108 -44q19 -23 26 -49t2 -58q-8 -49 -38 -83l-139 -180h-140zM190 569q-6 -36 31 -36q36 0 44 36q4 18 -5 27.5t-26 9.5q-37 0 -44 -37z" />
    <glyph glyph-name="zero.sups" horiz-adv-x="409" 
d="M118 507q-44 62 -27 160q17 100 74.5 153.5t142.5 53.5q81 0 126 -62q46 -63 28 -159q-18 -100 -75 -153.5t-142 -53.5q-82 0 -127 61zM225 660q-14 -83 37 -83t65 83q17 83 -36 83q-49 0 -66 -83z" />
    <glyph glyph-name="one.sups" horiz-adv-x="276" 
d="M234 860h114l-71 -400h-132l46 256l-81 -20l-11 118z" />
    <glyph glyph-name="two.sups" horiz-adv-x="356" 
d="M62 460l15 89l168 141q37 32 38 46q4 22 -20 22q-28 0 -56 -45l-100 63q63 98 177 98q61 0 101 -38t28 -101q-6 -32 -26.5 -59t-60.5 -59l-49 -40h111l-20 -117h-306z" />
    <glyph glyph-name="three.sups" horiz-adv-x="336" 
d="M207 446q-122 0 -152 94l111 59q13 -40 54 -40q33 0 36 26q3 25 -27 25h-29l-33 68l66 66h-123l21 116h286l-16 -87l-78 -79q35 -15 52 -46t10 -71q-23 -131 -178 -131z" />
    <glyph glyph-name="four.sups" horiz-adv-x="361" 
d="M75 631l152 229h141l-147 -229h39l11 63h121l-11 -63h35l-20 -115h-35l-10 -56h-122l10 56h-184z" />
    <glyph glyph-name="five.sups" horiz-adv-x="331" 
d="M169 593q12 -38 48 -38q33 0 36 26q3 28 -25 28h-136l60 251h252l-20 -116h-142l-8 -33h18q30 0 54.5 -9t41 -27t23.5 -44t1 -59q-11 -64 -56 -95t-111 -31q-114 0 -149 93z" />
    <glyph glyph-name="six.sups" horiz-adv-x="343" 
d="M101 489q-38 43 -27 108q8 44 32 76l145 187h140l-98 -128q52 -13 78.5 -53t17.5 -94q-11 -64 -58.5 -101.5t-120.5 -37.5q-70 0 -109 43zM194 591q-4 -18 5 -27.5t26 -9.5q38 0 44 37q6 36 -31 36t-44 -36z" />
    <glyph glyph-name="seven.sups" horiz-adv-x="303" 
d="M108 860h289l-17 -99l-163 -301h-138l154 284h-145z" />
    <glyph glyph-name="eight.sups" horiz-adv-x="348" 
d="M212 446q-36 0 -64.5 9.5t-47 26t-26 40t-2.5 52.5q12 67 76 98q-39 32 -30 85q10 57 54.5 87t108.5 30q61 0 99 -35q39 -35 28 -91q-5 -26 -19 -47t-39 -35q48 -37 39 -100q-8 -57 -54.5 -88.5t-122.5 -31.5zM196 587q-7 -34 32 -34q37 0 44 34q4 33 -32 33
q-40 0 -44 -33zM227 740q-5 -27 29 -27q33 0 38 27q4 28 -28 28q-33 0 -39 -28z" />
    <glyph glyph-name="nine.sups" horiz-adv-x="342" 
d="M194 588q-52 13 -78.5 53t-17.5 94q11 64 58.5 101.5t120.5 37.5q70 0 108 -44q19 -23 26 -49t2 -58q-8 -49 -38 -83l-139 -180h-140zM218 729q-6 -36 31 -36q36 0 44 36q4 18 -5 27.5t-26 9.5q-37 0 -44 -37z" />
    <glyph glyph-name="cent.tf" horiz-adv-x="589" 
d="M186 113q-65 33 -96 99t-17 148q9 55 35.5 102t66 80.5t90 52.5t106.5 19q33 0 60 -6l46 92h65l-55 -112q66 -33 99 -105l-151 -79q-11 21 -24 31l-93 -187h2q58 0 93 50l132 -84q-38 -63 -100.5 -95.5t-137.5 -32.5q-31 0 -66 7l-46 -93h-65zM239 351q-9 -54 24 -83
l91 184q-43 -1 -75.5 -28.5t-39.5 -72.5z" />
    <glyph glyph-name="dollar.tf" horiz-adv-x="589" 
d="M160 236q26 -72 93 -82l22 124l-14 5q-47 17 -82.5 38.5t-58 50t-31 65t-0.5 82.5q9 50 33 86.5t59 60.5t79 36t92 13l15 85h70l-16 -91q133 -25 183 -149l-154 -82q-19 48 -59 63l-21 -118q1 0 3.5 -0.5t3.5 -1.5q23 -8 41 -15t34 -15.5t30.5 -18.5t29.5 -23
q64 -57 45 -164q-17 -94 -86.5 -144.5t-177.5 -55.5l-15 -85h-70l15 87q-179 20 -222 167zM265 503q-6 -32 40 -54l17 99q-51 -8 -57 -45zM323 154q49 10 57 48q6 28 -40 51z" />
    <glyph glyph-name="Euro.tf" horiz-adv-x="589" 
d="M13 250l15 84h61q0 1 1 6.5t2 11.5t2 11.5l1 5.5h-61l15 84h66q40 126 116.5 194t185.5 68q154 0 211 -154l-158 -83q-20 63 -75 63q-62 0 -98 -88h137l-15 -84h-145q-1 -2 -1.5 -7t-2.5 -12l-3 -16h146l-15 -84h-137q1 -91 60 -91q58 0 102 66l136 -87
q-89 -153 -258 -153q-51 0 -91 19t-67.5 53.5t-42.5 83.5t-16 109h-71z" />
    <glyph glyph-name="florin.tf" horiz-adv-x="589" 
d="M-35 -36q27 -8 47 -8q60 0 86 60l114 256h-108l29 159h149l47 106q34 78 94.5 128t149.5 50q39 0 81 -9l-28 -164q-29 8 -50 8q-60 0 -87 -60l-26 -59h108l-28 -159h-149l-133 -303q-53 -119 -137 -156q-54 -23 -110 -23q-39 0 -78 10z" />
    <glyph glyph-name="uni20BD.tf" horiz-adv-x="589" 
d="M-1 191h64l7 40h-63l28 159h63l54 310h252q99 0 161 -72q63 -73 45 -173q-20 -109 -95.5 -166.5t-193.5 -57.5h-72l-7 -40h184l-17 -99h-185l-16 -92h-179l16 92h-63zM277 390h72q31 0 54.5 19t28.5 51t-11 51t-47 19h-73z" />
    <glyph glyph-name="sterling.tf" horiz-adv-x="589" 
d="M12 173h62l17 99h-51l25 140h51l14 79q10 57 33.5 99t58 69.5t77.5 41.5t92 14q168 0 227 -156l-161 -82q-25 67 -80 67q-27 0 -46 -16.5t-24 -44.5l-12 -71h204l-25 -140h-204l-18 -99h314l-31 -173h-554z" />
    <glyph glyph-name="yen.tf" horiz-adv-x="589" 
d="M34 144l16 93h153l7 41h-152l16 94h120l-115 328h192l57 -211l131 211h209l-230 -328h120l-16 -94h-153l-7 -41h152l-16 -93h-153l-25 -144h-179l25 144h-152z" />
    <glyph glyph-name="brevecy" horiz-adv-x="403" 
d="M94 554l24 140h323l-24 -140h-323z" />
    </font>
</defs>
</svg>
