<?xml version="1.0" standalone="no"?>
<!DOCTYPE svg PUBLIC "-//W3C//DTD SVG 1.1//EN" "http://www.w3.org/Graphics/SVG/1.1/DTD/svg11.dtd" >
<svg xmlns="http://www.w3.org/2000/svg" xmlns:xlink="http://www.w3.org/1999/xlink" version="1.1">
<metadata>
Created by FontForge 20170731 at Thu Oct 21 11:36:40 2021
 By Aleksey,,,
Copyright (c) 2016 by Radomir Tinkov. All rights reserved.
</metadata>
<defs>
<font id="SVN-Gilroy-XLight" horiz-adv-x="653" >
  <font-face 
    font-family="SVN-Gilroy XLight"
    font-weight="200"
    font-stretch="normal"
    units-per-em="1000"
    panose-1="0 0 3 0 0 0 0 0 0 0"
    ascent="800"
    descent="-200"
    x-height="500"
    cap-height="700"
    bbox="-287 -240 1035 1051"
    underline-thickness="50"
    underline-position="-150"
    unicode-range="U+0020-FB02"
  />
<missing-glyph horiz-adv-x="500" 
d="M93 -200v1000h317v-1000h-317zM167 118v-113h166v113h-166zM237 -51l-70 -47v-33h166v33h-102l70 47h32v33h-166v-33h70zM167 178h166v113h-100v-56h34v23h33v-47h-100v80h-33v-113zM167 604v-104h166v34h-66v70h-100zM167 630h166v33h-66v37h66v33h-165v-33h65v-37h-66
v-33zM233 440v-37h-66v-33h100v70h66v33h-166v-33h66zM167 313h166v100h-33v-66h-133v-34zM200 38v47h100v-47h-100zM233 570v-36h-33v36h33z" />
    <glyph glyph-name="fi" unicode="fi" horiz-adv-x="505" 
d="M117 500v33q0 178 189 178q47 0 99 -11v-32q-47 9 -99 9q-81 0 -117.5 -34.5t-36.5 -109.5v-33h269v-500h-35v467h-234v-467h-35v467h-89v33h89z" />
    <glyph glyph-name="fl" unicode="fl" horiz-adv-x="505" 
d="M117 500v33q0 178 189 178q28 0 56.5 -3t58.5 -8v-700h-35v673q-38 6 -80 6q-81 0 -117.5 -35.5t-36.5 -110.5v-33h124v-33h-124v-467h-35v467h-89v33h89z" />
    <glyph glyph-name="f_f" unicode="ff" horiz-adv-x="575" 
d="M117 500v33q0 85 42 132t125 47h11t11 -1v-34q-6 1 -12 1h-11q-131 0 -131 -145v-33h234v43q0 85 42 132t125 47h11t11 -1v-34q-6 1 -12 1h-11q-131 0 -131 -145v-43h154v-33h-154v-467h-35v467h-234v-467h-35v467h-89v33h89z" />
    <glyph glyph-name="f_f_i" unicode="ffi" horiz-adv-x="774" 
d="M28 467v33h89v33q0 85 42 132t125 47h11t11 -1v-34q-6 1 -12 1h-11q-131 0 -131 -145v-33h234v43q0 178 189 178q47 0 99 -11v-32q-47 9 -99 9q-81 0 -117.5 -34.5t-36.5 -109.5v-43h270v-500h-36v467h-234v-467h-35v467h-234v-467h-35v467h-89z" />
    <glyph glyph-name="f_f_l" unicode="ffl" horiz-adv-x="774" 
d="M117 500v33q0 85 42 132t125 47h11t11 -1v-34q-6 1 -12 1h-11q-131 0 -131 -145v-33h234v43q0 178 189 178q28 0 56.5 -3t59.5 -8v-710h-36v683q-38 6 -80 6q-81 0 -117.5 -35.5t-36.5 -110.5v-43h124v-33h-124v-467h-35v467h-234v-467h-35v467h-89v33h89z" />
    <glyph glyph-name=".notdef" horiz-adv-x="500" 
d="M93 -200v1000h317v-1000h-317zM167 118v-113h166v113h-166zM237 -51l-70 -47v-33h166v33h-102l70 47h32v33h-166v-33h70zM167 178h166v113h-100v-56h34v23h33v-47h-100v80h-33v-113zM167 604v-104h166v34h-66v70h-100zM167 630h166v33h-66v37h66v33h-165v-33h65v-37h-66
v-33zM233 440v-37h-66v-33h100v70h66v33h-166v-33h66zM167 313h166v100h-33v-66h-133v-34zM200 38v47h100v-47h-100zM233 570v-36h-33v36h33z" />
    <glyph glyph-name=".null" horiz-adv-x="0" 
 />
    <glyph glyph-name="nonmarkingreturn" horiz-adv-x="333" 
 />
    <glyph glyph-name="space" unicode=" " horiz-adv-x="283" 
 />
    <glyph glyph-name="space" unicode="&#xa0;" horiz-adv-x="283" 
 />
    <glyph glyph-name="exclam" unicode="!" horiz-adv-x="210" 
d="M125 700v-200l-5 -330h-30l-5 330v200h40zM80 0q-10 10 -10 25t10 25t25 10t25 -10t9.5 -24.5t-9.5 -25.5q-9 -10 -25 -10q-15 0 -25 10z" />
    <glyph glyph-name="quotedbl" unicode="&#x22;" horiz-adv-x="277" 
d="M220 700l-3 -173h-30l-4 173h37zM93 700l-3 -173h-30l-3 173h36z" />
    <glyph glyph-name="numbersign" unicode="#" horiz-adv-x="608" 
d="M49 277h120l24 146h-121l6 34h121l32 193h34l-32 -193h178l32 193h34l-32 -193h119l-5 -34h-120l-24 -146h120l-6 -34h-120l-32 -193h-34l32 193h-178l-32 -193h-34l32 193h-120zM381 277l24 146h-178l-24 -146h178z" />
    <glyph glyph-name="dollar" unicode="$" horiz-adv-x="550" 
d="M273 -11q-85 2 -145 38t-81 100l31 19q18 -58 69 -89t126 -33v318q-38 13 -72.5 26.5t-61 34t-43 51t-19.5 77.5q0 41 16.5 73.5t43.5 56t62.5 36t73.5 14.5v89h33v-90q132 -10 179 -124l-30 -17q-37 95 -149 106v-308q36 -13 71.5 -27.5t63.5 -36t45 -52t17 -76.5
q0 -39 -14 -71.5t-39.5 -56.5t-62 -39t-81.5 -18v-90h-33v89zM427 269q-42 34 -121 62v-306q78 7 119.5 48t41.5 102t-40 94zM273 676q-32 -1 -60.5 -11t-50.5 -28.5t-35 -45t-13 -60.5q0 -63 40 -94q39 -30 119 -59v298z" />
    <glyph glyph-name="percent" unicode="%" horiz-adv-x="722" 
d="M67 562q0 33 11.5 60.5t32 47t48.5 30.5t61 11q32 0 60 -11t48.5 -31t32.5 -47.5t12 -59.5q0 -33 -11.5 -60.5t-32 -47t-48.5 -30.5t-61 -11t-61 11t-48.5 30.5t-32 47t-11.5 60.5zM350 138q0 63 43 106t110 43q32 0 60 -11t48.5 -31t32.5 -47.5t12 -59.5q0 -62 -44 -106
q-43 -43 -109 -43q-33 0 -61 11t-48.5 30.5t-32 47t-11.5 60.5zM101 562q0 -25 9 -46.5t25 -37t37.5 -24.5t47.5 -9t47.5 9t37.5 24.5t24.5 37t8.5 46.5t-9 46.5t-24.5 37t-37.5 24.5t-47 9q-26 0 -47.5 -9t-37.5 -24.5t-25 -37t-9 -46.5zM503 255q-25 0 -47 -9t-38 -24.5
t-25 -37t-9 -46.5q0 -52 34 -84.5t85 -32.5t84.5 33t33.5 84q0 25 -9 46.5t-25 37t-37.5 24.5t-46.5 9zM587 627l25 -14l-480 -542l-24 14z" />
    <glyph glyph-name="ampersand" unicode="&#x26;" 
d="M291 -11q-105 0 -164.5 53t-59.5 144q0 67 37 121.5t106 84.5q-60 69 -60 140q0 41 16 74t43 56.5t62.5 36t74.5 12.5q66 0 116 -33.5t72 -93.5l-31 -17q-17 51 -58 80t-99 29q-36 0 -65.5 -10.5t-50.5 -30t-32.5 -46t-11.5 -57.5q0 -43 21 -76q20 -31 68 -81l224 -232
q35 59 47 146l32 -19q-12 -87 -52 -153l99 -103l-32 -18l-88 91q-78 -98 -214 -98zM235 365q-66 -25 -99 -73.5t-33 -105.5q0 -75 51 -118.5t136 -43.5q118 0 189 89z" />
    <glyph glyph-name="quotesingle" unicode="'" horiz-adv-x="143" 
d="M60 527l-3 173h36l-3 -173h-30z" />
    <glyph glyph-name="parenleft" unicode="(" horiz-adv-x="255" 
d="M170 -100q-111 221 -111 450t111 450h35q-111 -221 -111 -450t111 -450h-35v0z" />
    <glyph glyph-name="parenright" unicode=")" horiz-adv-x="255" 
d="M50 -100q111 221 111 450t-111 450h35q111 -221 111 -450t-111 -450h-35v0z" />
    <glyph glyph-name="asterisk" unicode="*" horiz-adv-x="381" 
d="M315 613v-31l-99 2l54 -83l-28 -17l-51 86l-52 -86l-27 17l54 83l-99 -2v31l99 -2l-54 83l27 17l52 -87l51 87l28 -17l-54 -83z" />
    <glyph glyph-name="plus" unicode="+" horiz-adv-x="527" 
d="M67 333v34h179v180h35v-180h179v-34h-179v-180h-35v180h-179z" />
    <glyph glyph-name="comma" unicode="," horiz-adv-x="207" 
d="M143 52l-48 -192h-32l36 192h44z" />
    <glyph glyph-name="hyphen" unicode="-" horiz-adv-x="547" 
d="M93 292v34h360v-34h-360z" />
    <glyph glyph-name="period" unicode="." horiz-adv-x="197" 
d="M98 -10q-14 0 -24.5 10t-10.5 25t10.5 25t24.5 10q17 0 25.5 -11t8.5 -24t-8.5 -24t-25.5 -11z" />
    <glyph glyph-name="slash" unicode="/" horiz-adv-x="523" 
d="M77 -100h-30l400 900h30z" />
    <glyph glyph-name="zero" unicode="0" horiz-adv-x="630" 
d="M57 350q0 61 12.5 125.5t42.5 116.5t79.5 85.5t123.5 33.5q73 0 122.5 -33.5t79.5 -86t43 -116.5t13 -125q0 -62 -13 -126t-43 -116t-79.5 -85.5t-122.5 -33.5q-74 0 -123.5 33t-79.5 85.5t-42.5 116.5t-12.5 126zM315 676q-66 0 -108.5 -31t-68 -78.5t-35.5 -105
t-10 -111.5t10 -111.5t35.5 -105t68 -78.5t108.5 -31q65 0 107.5 31t68 79t36 105.5t10.5 110.5t-10.5 110.5t-36 105.5t-68 79t-107.5 31z" />
    <glyph glyph-name="one" unicode="1" horiz-adv-x="324" 
d="M201 700h30v-700h-37v660l-166 -54l-10 31z" />
    <glyph glyph-name="two" unicode="2" horiz-adv-x="528" 
d="M47 0v33l261 274q119 125 119 210q0 36 -12 65.5t-34 50t-53 32t-68 11.5q-128 0 -179 -113l-30 18q28 63 83.5 96.5t125.5 33.5q43 0 80 -14t64.5 -39.5t43 -61t15.5 -79.5q0 -98 -130 -235l-236 -247h385v-35h-435z" />
    <glyph glyph-name="three" unicode="3" horiz-adv-x="548" 
d="M266 -11q-78 0 -136 34t-83 95l30 18q20 -54 69.5 -83t119.5 -29q40 0 75 12t61 35t41 55.5t15 74.5t-15.5 75t-42 55.5t-62 34.5t-75.5 12h-11l-15 23l180 265h-356v34h397v-34l-173 -256q44 -3 82 -19t66.5 -43t45 -64t16.5 -83q0 -50 -18 -89t-49 -66.5t-73 -42
t-89 -14.5z" />
    <glyph glyph-name="four" unicode="4" horiz-adv-x="567" 
d="M302 700h41l-271 -513h343v226h37v-226h90v-34h-90v-153h-37v153h-383v34z" />
    <glyph glyph-name="five" unicode="5" horiz-adv-x="542" 
d="M267 -11q-76 0 -134 35t-83 98l30 18q20 -54 69 -85t118 -31q40 0 76 11.5t62 34t41.5 55.5t15.5 76q0 42 -15.5 75t-42 55.5t-62 34.5t-75.5 12h-184l22 322h365v-34h-333l-17 -253h147q47 0 89 -14.5t74 -42t50.5 -67t18.5 -88.5q0 -50 -18.5 -89.5t-50 -66.5
t-74 -41.5t-89.5 -14.5z" />
    <glyph glyph-name="six" unicode="6" horiz-adv-x="543" 
d="M272 -11q-51 0 -94.5 16.5t-74.5 47t-48.5 73t-17.5 94.5q0 78 43 139l239 341h41l-189 -270q48 20 101 20q51 0 94 -16.5t74.5 -47t49 -73t17.5 -93.5q0 -52 -17.5 -94.5t-48.5 -73t-74.5 -47t-94.5 -16.5zM272 415q-44 0 -80.5 -13.5t-63 -39t-41 -61.5t-14.5 -81
t14.5 -81t40.5 -61.5t63 -39.5t81 -14t80.5 14t62.5 39.5t40.5 62t14.5 80.5t-14.5 80t-40.5 61.5t-62.5 39.5t-80.5 14z" />
    <glyph glyph-name="seven" unicode="7" horiz-adv-x="490" 
d="M27 700h416v-34l-279 -666h-38l280 666h-379v34z" />
    <glyph glyph-name="eight" unicode="8" horiz-adv-x="552" 
d="M276 -11q-46 0 -87.5 11.5t-73 35.5t-50 60.5t-18.5 86.5q0 66 37 112t101 67q-54 21 -85 64t-31 101q0 45 16.5 79t45 57.5t66 35.5t79.5 12t79.5 -12t66 -35.5t45 -57.5t16.5 -79q0 -58 -31 -101t-85 -64q64 -21 101 -67t37 -112q0 -50 -19 -86.5t-50.5 -60.5
t-73 -35.5t-86.5 -11.5zM276 343q-91 0 -142 -43.5t-51 -116.5q0 -72 51 -115.5t142 -43.5t142 43.5t51 115.5q0 73 -51 116.5t-142 43.5zM106 527q0 -33 12 -60.5t34.5 -47.5t53.5 -31t70 -11t70 11t53.5 31t34.5 47.5t12 60.5q0 67 -46 108t-124 41t-124 -41t-46 -108z
" />
    <glyph glyph-name="nine" unicode="9" horiz-adv-x="543" 
d="M37 480q0 51 17.5 93.5t49 73t74.5 47.5t94 17t94 -17t74.5 -47.5t49 -73t17.5 -93.5q0 -78 -43 -139l-240 -341h-41l189 269q-47 -19 -100 -19q-51 0 -94 16.5t-74.5 46.5t-49 72.5t-17.5 94.5zM73 480q0 -45 14.5 -81t41 -61.5t63 -39t80.5 -13.5t80.5 14t62.5 39.5
t40.5 61.5t14.5 80t-14.5 80.5t-40.5 62t-62.5 39.5t-80.5 14t-81 -14t-63 -39.5t-40.5 -61.5t-14.5 -81z" />
    <glyph glyph-name="colon" unicode=":" horiz-adv-x="197" 
d="M98 420q-14 0 -24.5 10t-10.5 25t10.5 25t24.5 10q17 0 25.5 -11t8.5 -24t-8.5 -24t-25.5 -11zM63 25q0 15 10.5 25t24.5 10q17 0 25.5 -11t8.5 -24t-8.5 -24t-25.5 -11q-14 0 -24.5 10t-10.5 25z" />
    <glyph glyph-name="semicolon" unicode=";" horiz-adv-x="215" 
d="M63 -140l36 192h44l-48 -192h-32zM81 455q0 15 10.5 25t24.5 10q17 0 25.5 -11t8.5 -24t-8.5 -24t-25.5 -11q-14 0 -24.5 10t-10.5 25z" />
    <glyph glyph-name="less" unicode="&#x3c;" horiz-adv-x="533" 
d="M66 332v36l400 180v-38l-360 -160l360 -160v-38z" />
    <glyph glyph-name="equal" unicode="=" horiz-adv-x="533" 
d="M67 433v34h400v-34h-400zM467 267v-34h-400v34h400z" />
    <glyph glyph-name="greater" unicode="&#x3e;" horiz-adv-x="533" 
d="M67 152v38l360 160l-360 160v38l400 -180v-36z" />
    <glyph glyph-name="question" unicode="?" horiz-adv-x="528" 
d="M57 583q10 30 30.5 53.5t47.5 40t59 25.5t67 9q45 0 81.5 -12t63 -34.5t41 -55t14.5 -73.5q0 -42 -20 -79.5t-49 -68.5q-21 -21 -43 -45t-40 -51t-30 -57.5t-12 -64.5h-37q0 48 20 91t49 75q21 23 43.5 46.5t40.5 48t30 50.5t12 55q0 64 -43 102t-121 38
q-63 0 -110 -29.5t-63 -80.5zM213 25q0 15 10.5 25t24.5 10q17 0 25.5 -11t8.5 -24t-8.5 -24t-25.5 -11q-14 0 -24.5 10t-10.5 25z" />
    <glyph glyph-name="at" unicode="@" horiz-adv-x="821" 
d="M435 -112q-79 0 -148.5 26t-121.5 73.5t-82 114.5t-30 148q0 77 28 143.5t77 115t115.5 76t143.5 27.5q72 0 135.5 -26t111 -71.5t75.5 -108.5t28 -136q0 -53 -10.5 -91.5t-28.5 -64t-42.5 -37.5t-52.5 -12q-45 0 -70.5 26.5t-28.5 71.5q-19 -34 -53 -53.5t-77 -19.5
q-70 0 -116 46t-46 114q0 35 12.5 64.5t34 50.5t51 33t64.5 12q86 0 130 -72v65h34v-229q0 -40 17.5 -63t50.5 -23q51 0 79.5 46t28.5 136q0 69 -25.5 128t-69.5 102t-103.5 67t-128.5 24q-72 0 -134.5 -26.5t-108 -72t-71.5 -108t-26 -134.5q0 -78 27.5 -141t76 -107.5
t114 -68.5t140.5 -24q98 0 170 27l4 -21q-75 -27 -174 -27zM276 250q0 -27 10 -50.5t27.5 -41t41.5 -27t51 -9.5q56 0 92 36t36 92q0 27 -9.5 50.5t-27 40.5t-41 27t-50.5 10t-51 -9.5t-41.5 -27t-27.5 -41t-10 -50.5z" />
    <glyph glyph-name="A" unicode="A" horiz-adv-x="629" 
d="M294 700h40l275 -700h-39l-72 185h-367l-72 -185h-39zM485 219l-171 438l-170 -438h341z" />
    <glyph glyph-name="B" unicode="B" horiz-adv-x="627" 
d="M93 700h277q37 0 70 -14t57.5 -38.5t38.5 -57.5t14 -70q0 -54 -27.5 -96t-75.5 -63q29 -8 53.5 -25t42 -39.5t27.5 -50.5t10 -59q0 -77 -55 -132t-132 -55h-300v700zM130 34h263q32 0 59.5 12t47.5 32.5t31.5 48.5t11.5 60q0 62 -44 108q-44 45 -106 45h-263v-306z
M370 374q31 0 57 11.5t45 31t30 46.5t11 57t-11 56.5t-30.5 46.5t-45.5 31.5t-56 11.5h-240v-292h240z" />
    <glyph glyph-name="C" unicode="C" horiz-adv-x="758" 
d="M416 -11q-77 0 -143.5 27.5t-115.5 75.5t-76.5 114t-27.5 144t27.5 144t76.5 114t115.5 75.5t143.5 27.5q45 0 88.5 -11t82.5 -32.5t71 -52t55 -69.5l-32 -19q-20 34 -48 61.5t-62 47t-73.5 30t-81.5 10.5q-70 0 -129.5 -25t-103 -68.5t-68.5 -103t-25 -129.5
q0 -71 24.5 -130.5t68 -103t103 -68t130.5 -24.5q84 0 155.5 39t111.5 114l33 -18q-21 -39 -52.5 -70t-70.5 -53.5t-84 -34.5t-93 -12z" />
    <glyph glyph-name="D" unicode="D" horiz-adv-x="733" 
d="M350 700q73 0 134 -28t104.5 -76t67.5 -111.5t24 -134.5q0 -72 -24 -135.5t-67.5 -111t-104 -75.5t-134.5 -28h-257v700h257zM350 34q67 0 121.5 25t92.5 68.5t59 100.5t21 122q0 64 -21 121.5t-59.5 100.5t-93 68.5t-120.5 25.5h-220v-632h220z" />
    <glyph glyph-name="E" unicode="E" horiz-adv-x="537" 
d="M93 700h392v-34h-355v-296h330v-34h-330v-302h360v-34h-397v700z" />
    <glyph glyph-name="F" unicode="F" horiz-adv-x="522" 
d="M93 700h382v-34h-345v-302h337v-34h-337v-330h-37v700z" />
    <glyph glyph-name="G" unicode="G" horiz-adv-x="810" 
d="M53 350q0 78 27.5 144t76.5 114t115.5 75.5t143.5 27.5q45 0 89 -11t82.5 -32.5t71 -53t55.5 -71.5l-32 -18q-19 34 -47 62t-62.5 48t-74.5 30.5t-82 10.5q-70 0 -129.5 -25t-103 -68.5t-68.5 -103t-25 -129.5q0 -138 93 -232q47 -48 106.5 -71t132.5 -23q59 0 112 18
t93 51.5t65 82t28 110.5h-314v34h350v-19q0 -130 -92 -222q-90 -90 -242 -90q-78 0 -145.5 26.5t-117 74.5t-78 114t-28.5 146z" />
    <glyph glyph-name="H" unicode="H" horiz-adv-x="693" 
d="M130 700v-323h433v323h37v-700h-37v343h-433v-343h-37v700h37z" />
    <glyph glyph-name="I" unicode="I" horiz-adv-x="223" 
d="M93 700h37v-700h-37v700z" />
    <glyph glyph-name="J" unicode="J" horiz-adv-x="554" 
d="M250 -11q-73 0 -126.5 30.5t-76.5 85.5l30 18q40 -99 173 -99q85 0 134.5 43.5t49.5 118.5v514h36v-514q0 -48 -17.5 -85t-47.5 -61.5t-70 -37.5t-85 -13z" />
    <glyph glyph-name="K" unicode="K" horiz-adv-x="563" 
d="M553 0h-48l-375 350v-350h-37v700h37v-330l365 330h48l-373 -340z" />
    <glyph glyph-name="L" unicode="L" horiz-adv-x="497" 
d="M130 34h340v-34h-377v700h37v-666z" />
    <glyph glyph-name="M" unicode="M" horiz-adv-x="813" 
d="M93 700h47l267 -438l267 438h46v-700h-37v646l-272 -445h-9l-272 445v-646h-37v700z" />
    <glyph glyph-name="N" unicode="N" horiz-adv-x="693" 
d="M93 700h34l436 -634v634h37v-700h-33l-437 634v-634h-37v700z" />
    <glyph glyph-name="O" unicode="O" horiz-adv-x="828" 
d="M53 350q0 75 28 141t77 115t115 77t141 28t141 -28.5t114.5 -77t77 -114.5t28.5 -141t-28 -141t-77 -115t-115 -77t-141 -28q-76 0 -142 28t-114.5 76.5t-76.5 114.5t-28 142zM414 676q-68 0 -127.5 -25.5t-103 -69.5t-68.5 -103.5t-25 -127.5t25 -127.5t68.5 -103.5
t102.5 -69.5t128 -25.5q68 0 127.5 25.5t103 69.5t68.5 103.5t25 127.5q0 67 -25.5 126.5t-69 104t-103 70t-126.5 25.5z" />
    <glyph glyph-name="P" unicode="P" horiz-adv-x="583" 
d="M320 700q46 0 85.5 -16t69 -44t46 -67.5t16.5 -85.5q0 -47 -16.5 -86t-45.5 -67.5t-69 -44.5t-86 -16h-190v-273h-37v700h227zM130 307h190q39 0 72 13.5t57 37.5t37.5 57t13.5 72t-13.5 72t-37.5 56.5t-57 37t-72 13.5h-190v-359z" />
    <glyph glyph-name="Q" unicode="Q" horiz-adv-x="833" 
d="M53 350q0 75 28.5 141t77 114.5t114.5 77t141 28.5t141 -28.5t114.5 -77t77 -114.5t28.5 -141q0 -159 -117 -265l85 -84l-24 -23l-86 85q-98 -74 -219 -74q-75 0 -141 28.5t-114.5 77t-77 114.5t-28.5 141zM414 676q-68 0 -127 -26t-102.5 -70t-69 -103.5t-25.5 -126.5
q0 -68 25 -127.5t69 -103.5t103 -69.5t127 -25.5q108 0 194 65l-158 156l24 22l159 -157q105 94 105 240q0 67 -25.5 126.5t-69 104t-103 70t-126.5 25.5z" />
    <glyph glyph-name="R" unicode="R" horiz-adv-x="617" 
d="M93 700h274q42 0 78.5 -16t64.5 -44t44 -64.5t16 -78.5q0 -36 -11.5 -68.5t-32 -58.5t-49.5 -45t-63 -27l176 -298h-41l-173 293h-246v-293h-37v700zM130 666v-339h237q35 0 65 13.5t52.5 37t35.5 54t13 65.5q0 34 -13 65t-35.5 54t-52.5 36.5t-65 13.5h-237z" />
    <glyph glyph-name="S" unicode="S" horiz-adv-x="572" 
d="M81 167q19 -66 76 -104.5t145 -38.5q91 0 139 43t48 110q0 31 -12 54.5t-36 42t-60 34t-84 30.5l-70 22q-32 13 -58 26t-45.5 31t-31 44t-13.5 65q0 44 17.5 78.5t46.5 58t66.5 36t78.5 12.5q81 0 136 -40.5t81 -104.5l-30 -17q-49 127 -187 127q-34 0 -65 -9.5
t-55 -28.5t-38.5 -47t-14.5 -64q0 -33 12.5 -58t43.5 -42q32 -19 64.5 -31t67.5 -24q21 -7 38 -13t32 -12t29.5 -12.5t30.5 -15.5q46 -24 67.5 -56.5t24.5 -84.5q0 -42 -15.5 -77t-45 -60t-71 -38.5t-92.5 -13.5q-97 0 -162.5 44t-88.5 116z" />
    <glyph glyph-name="T" unicode="T" horiz-adv-x="540" 
d="M27 666v34h486v-34h-225v-666h-36v666h-225z" />
    <glyph glyph-name="U" unicode="U" horiz-adv-x="673" 
d="M120 700v-471q0 -45 14.5 -82.5t42 -65t68 -42.5t92.5 -15q51 0 91.5 15t68 42.5t42 65t14.5 82.5v471h37v-471q0 -57 -19 -101.5t-52.5 -75t-80 -47t-101.5 -16.5t-101.5 16t-80.5 47t-53 75.5t-19 101.5v471h37z" />
    <glyph glyph-name="V" unicode="V" horiz-adv-x="601" 
d="M56 700l245 -654l244 654h40l-264 -700h-40l-264 700h39z" />
    <glyph glyph-name="W" unicode="W" horiz-adv-x="987" 
d="M75 700l187 -652l210 652h43l209 -652l188 652h38l-203 -700h-44l-210 653l-209 -653h-44l-203 700h38z" />
    <glyph glyph-name="X" unicode="X" horiz-adv-x="567" 
d="M27 0l235 358l-224 342h42l204 -310l203 310h42l-224 -342l235 -358h-43l-214 326l-214 -326h-42z" />
    <glyph glyph-name="Y" unicode="Y" horiz-adv-x="572" 
d="M10 700h41l235 -376l235 376h41l-258 -411v-289h-37v290z" />
    <glyph glyph-name="Z" unicode="Z" horiz-adv-x="527" 
d="M88 34h402v-34h-443v34l393 632h-383v34h423v-34z" />
    <glyph glyph-name="bracketleft" unicode="[" horiz-adv-x="273" 
d="M67 800h186v-34h-151v-832h151v-34h-186v900z" />
    <glyph glyph-name="backslash" unicode="\" horiz-adv-x="523" 
d="M447 -100l-400 900h30l400 -900h-30z" />
    <glyph glyph-name="bracketright" unicode="]" horiz-adv-x="273" 
d="M20 -100v34h151v832h-151v34h186v-900h-186z" />
    <glyph glyph-name="asciicircum" unicode="^" horiz-adv-x="504" 
d="M235 700h34l175 -300h-40l-152 260l-152 -260h-40z" />
    <glyph glyph-name="underscore" unicode="_" horiz-adv-x="493" 
d="M40 -126v34h413v-34h-413z" />
    <glyph glyph-name="grave" unicode="`" horiz-adv-x="161" 
d="M108 570l-88 123h41l80 -123h-33z" />
    <glyph glyph-name="a" unicode="a" 
d="M47 250q0 54 20 102t55 83t82.5 55.5t102.5 20.5q76 0 137 -39.5t91 -105.5v134h35v-500h-35v134q-30 -66 -91 -105.5t-137 -39.5q-55 0 -102.5 20t-82.5 55.5t-55 83t-20 102.5zM308 477q-48 0 -89.5 -17.5t-71.5 -48t-47.5 -72t-17.5 -89.5q0 -95 65 -162
q64 -65 161 -65q48 0 89.5 17.5t72 48t48 72t17.5 89.5t-17.5 89t-48.5 72t-72 48.5t-89 17.5z" />
    <glyph glyph-name="b" unicode="b" 
d="M83 700h36v-333q31 66 90.5 105t137.5 39q55 0 102.5 -20.5t82.5 -55.5t55 -82.5t20 -102.5t-20 -102.5t-55 -83t-82.5 -55.5t-102.5 -20q-78 0 -137.5 39t-90.5 105v-133h-36v700zM345 477q-48 0 -89.5 -17.5t-71.5 -48t-47.5 -72t-17.5 -89.5t17 -89.5t47.5 -72t72 -48
t89.5 -17.5t89.5 17.5t71.5 48t47.5 72t17.5 89.5t-17.5 89t-48 72t-71.5 48.5t-89 17.5z" />
    <glyph glyph-name="c" unicode="c" horiz-adv-x="570" 
d="M47 250q0 56 20 103.5t55 82.5t82.5 55t103.5 20q73 0 132 -34t87 -91l-29 -17q-24 49 -75 78.5t-115 29.5q-48 0 -89.5 -17.5t-71.5 -48t-47.5 -72t-17.5 -89.5t17 -89.5t47.5 -72t72 -48t89.5 -17.5q64 0 114.5 29.5t76.5 78.5l29 -17q-15 -29 -37.5 -52t-51 -39
t-62 -25t-69.5 -9q-56 0 -103.5 20t-82.5 55t-55 82.5t-20 103.5z" />
    <glyph glyph-name="d" unicode="d" 
d="M46 250q0 54 20 102t55 83t82.5 55.5t102.5 20.5q78 0 137.5 -39t90.5 -105v333h36v-700h-36v133q-31 -66 -90.5 -105t-137.5 -39q-55 0 -102.5 20t-82.5 55.5t-55 83t-20 102.5zM308 477q-48 0 -89.5 -17.5t-71.5 -48t-47.5 -72t-17.5 -89.5q0 -95 65 -162
q64 -65 161 -65q48 0 89.5 17.5t71.5 48t47.5 72t17.5 89.5t-17.5 89t-48 72t-71.5 48.5t-89 17.5z" />
    <glyph glyph-name="e" unicode="e" horiz-adv-x="594" 
d="M307 -11q-58 0 -105.5 19.5t-82 54t-53.5 82.5t-19 105q0 55 18.5 103t52.5 83t81 55t103 20q55 0 100.5 -21t78 -57t50.5 -84t18 -101q0 -14 -1 -17h-465q3 -47 21 -85.5t47.5 -65.5t69 -42t86.5 -15q63 0 111.5 26t72.5 71l31 -18q-30 -52 -86.5 -82.5t-128.5 -30.5z
M513 264q-3 44 -19 83t-43 68t-65 45.5t-84 16.5q-47 0 -86.5 -16t-68.5 -44t-46 -67.5t-19 -85.5h431z" />
    <glyph glyph-name="f" unicode="f" horiz-adv-x="306" 
d="M117 500v33q0 85 42 132t125 47h11t11 -1v-34q-6 1 -12 1h-11q-131 0 -131 -145v-33h154v-33h-154v-467h-35v467h-89v33h89z" />
    <glyph glyph-name="g" unicode="g" horiz-adv-x="660" 
d="M313 -11q-55 0 -102.5 20t-82.5 55.5t-55 83t-20 102.5q0 54 20 102t55 83t82.5 55.5t102.5 20.5q78 0 137.5 -39t90.5 -105v133h36v-473q0 -56 -18 -100.5t-51 -75t-78.5 -46.5t-100.5 -16q-87 0 -147.5 33t-86.5 87l30 17q21 -45 72 -74t132 -29q100 0 156 55t56 149
v106q-31 -66 -90.5 -105t-137.5 -39zM89 250q0 -48 17 -89.5t47.5 -72t72 -48t89.5 -17.5t89.5 17.5t71.5 48t47.5 72t17.5 89.5t-17.5 89t-48 72t-71.5 48.5t-89 17.5q-95 0 -161 -66q-65 -65 -65 -161z" />
    <glyph glyph-name="h" unicode="h" horiz-adv-x="569" 
d="M83 700h36v-311q26 61 75.5 91.5t113.5 30.5q44 0 79.5 -14.5t60.5 -40.5t38.5 -62.5t13.5 -79.5v-314h-35v314q0 73 -42.5 118t-117.5 45q-41 0 -75 -14.5t-59 -41.5t-38.5 -66.5t-13.5 -88.5v-266h-36v700z" />
    <glyph glyph-name="i" unicode="i" horiz-adv-x="202" 
d="M119 500v-500h-36v500h36zM70 620q0 16 10 23.5t21 7.5q12 0 21.5 -7.5t9.5 -23.5q0 -12 -9 -21.5t-22 -9.5t-22 9.5t-9 21.5z" />
    <glyph glyph-name="j" unicode="j" horiz-adv-x="216" 
d="M-20 -177q6 -1 12 -1h11q94 0 94 105v573h36v-573q0 -67 -33.5 -103t-97.5 -36h-11t-11 1v34zM84 620q0 16 10 23.5t21 7.5q12 0 21.5 -7.5t9.5 -23.5q0 -12 -9 -21.5t-22 -9.5t-22 9.5t-9 21.5z" />
    <glyph glyph-name="k" unicode="k" horiz-adv-x="472" 
d="M83 0v700h36v-430l268 230h48l-279 -240l289 -260h-48l-278 249v-249h-36z" />
    <glyph glyph-name="l" unicode="l" horiz-adv-x="202" 
d="M83 0v730h36v-730h-36z" />
    <glyph glyph-name="m" unicode="m" horiz-adv-x="866" 
d="M83 500h36v-98q48 109 168 109q58 0 101 -29t60 -86q24 57 70 86t101 29q79 0 128.5 -49t49.5 -140v-322h-36v322q0 75 -38 115t-104 40q-72 0 -116.5 -50.5t-44.5 -146.5v-280h-36v322q0 75 -37.5 115t-100.5 40q-36 0 -66.5 -13t-52 -38t-34 -61.5t-12.5 -84.5v-280
h-36v500z" />
    <glyph glyph-name="n" unicode="n" horiz-adv-x="569" 
d="M83 500h36v-111q26 61 75.5 91.5t113.5 30.5q44 0 79.5 -14.5t60.5 -40.5t38.5 -62.5t13.5 -79.5v-314h-35v314q0 73 -42.5 118t-117.5 45q-41 0 -75 -14.5t-59 -41.5t-38.5 -66.5t-13.5 -88.5v-266h-36v500z" />
    <glyph glyph-name="o" unicode="o" horiz-adv-x="617" 
d="M308 -11q-56 0 -103.5 20t-82.5 55t-55 82.5t-20 103.5q0 55 20 102.5t55.5 82.5t83 55.5t102.5 20.5t103 -20t83 -55.5t55.5 -83t20.5 -102.5q0 -56 -20 -103.5t-55.5 -82.5t-83.5 -55t-103 -20zM82 250q0 -48 17 -89.5t47.5 -72t72 -48t89.5 -17.5t89.5 17.5t72 48
t48 72t17.5 89.5t-17.5 89t-48.5 72t-72 48.5t-89 17.5t-89.5 -17.5t-71.5 -48t-47.5 -72t-17.5 -89.5z" />
    <glyph glyph-name="p" unicode="p" 
d="M83 500h36v-133q31 66 90.5 105t137.5 39q108 0 184 -76t76 -185q0 -55 -20 -102.5t-55 -83t-82.5 -55.5t-102.5 -20q-78 0 -137.5 39t-90.5 105v-333h-36v700zM345 477q-48 0 -89.5 -17.5t-71.5 -48t-47.5 -72t-17.5 -89.5t17 -89.5t47.5 -72t72 -48t89.5 -17.5
t89.5 17.5t71.5 48t47.5 72t17.5 89.5t-17.5 89t-48 72t-71.5 48.5t-89 17.5z" />
    <glyph glyph-name="q" unicode="q" 
d="M46 250q0 54 20 102t55 83t82.5 55.5t102.5 20.5q78 0 137.5 -39t90.5 -105v133h36v-700h-36v333q-31 -66 -90.5 -105t-137.5 -39q-55 0 -102.5 20t-82.5 55.5t-55 83t-20 102.5zM147 411q-65 -65 -65 -161q0 -48 17 -89.5t47.5 -72t72 -48t89.5 -17.5t89.5 17.5t71.5 48
t47.5 72t17.5 89.5t-17.5 89t-48 72t-71.5 48.5t-89 17.5q-95 0 -161 -66z" />
    <glyph glyph-name="r" unicode="r" horiz-adv-x="321" 
d="M119 500v-113q22 61 70 90.5t106 29.5v-34q-74 0 -125 -51t-51 -144v-278h-36v500h36z" />
    <glyph glyph-name="s" unicode="s" horiz-adv-x="461" 
d="M79 115q32 -92 159 -92q61 0 101 29.5t40 78.5q0 41 -32.5 64t-78.5 33q-33 8 -69 16.5t-66 23.5t-49 39t-19 63q0 35 14.5 61.5t38 44t54 26.5t62.5 9q60 0 103 -26.5t62 -71.5l-29 -17q-16 39 -52 60t-84 21q-58 0 -95.5 -29.5t-37.5 -77.5q0 -20 9 -35.5t24 -27
t35 -19.5t43 -14q33 -7 69 -15.5t66 -23.5t49 -40t19 -64q0 -36 -15.5 -62.5t-41 -44.5t-57 -26.5t-63.5 -8.5q-148 0 -188 109z" />
    <glyph glyph-name="t" unicode="t" horiz-adv-x="378" 
d="M27 500h115v129l35 11v-140h154v-33h-154v-349q0 -56 24.5 -73.5t74.5 -17.5q12 0 25.5 1t29.5 3v-31q-18 -3 -34 -4t-30 -1q-65 0 -95 29.5t-30 93.5v349h-115v33z" />
    <glyph glyph-name="u" unicode="u" horiz-adv-x="569" 
d="M104 500v-314q0 -73 42.5 -118t117.5 -45q41 0 75 14.5t59 41.5t38.5 66t13.5 89v266h36v-500h-36v111q-26 -61 -75.5 -91.5t-113.5 -30.5q-45 0 -80.5 14.5t-60 40.5t-38 62t-13.5 80v314h35z" />
    <glyph glyph-name="v" unicode="v" horiz-adv-x="511" 
d="M17 500h37l202 -463l201 463h38l-219 -500h-41z" />
    <glyph glyph-name="w" unicode="w" horiz-adv-x="770" 
d="M37 500h36l144 -454l149 454h38l149 -454l144 454h36l-160 -500h-39l-149 452l-149 -452h-39z" />
    <glyph glyph-name="x" unicode="x" horiz-adv-x="503" 
d="M27 0l204 257l-193 243h42l172 -216l171 216h43l-193 -243l204 -257h-43l-182 230l-182 -230h-43z" />
    <glyph glyph-name="y" unicode="y" horiz-adv-x="510" 
d="M53 500l216 -473l188 473h36l-217 -546q-28 -71 -76.5 -113t-106.5 -42q-3 0 -6 0.5t-6 0.5v33q3 0 6 -0.5t6 -0.5q47 0 85.5 35t63.5 95l10 22l-235 516h36z" />
    <glyph glyph-name="z" unicode="z" horiz-adv-x="483" 
d="M105 33h332v-33h-380v22l321 445h-311v33h360v-22z" />
    <glyph glyph-name="braceleft" unicode="{" horiz-adv-x="343" 
d="M57 368q60 0 87 22.5t27 77.5v208q0 66 32.5 100.5t96.5 34.5h11t12 -1v-33q-5 1 -10.5 1h-10.5q-96 0 -96 -102v-208q0 -100 -81 -118q81 -17 81 -116v-209q0 -101 94 -101h11t12 1v-34q-6 -1 -12 -1h-11q-64 0 -96.5 34.5t-32.5 100.5v209q0 55 -27 77.5t-87 22.5v34v0
z" />
    <glyph glyph-name="bar" unicode="|" horiz-adv-x="222" 
d="M93 -200v920h36v-920h-36z" />
    <glyph glyph-name="braceright" unicode="}" horiz-adv-x="343" 
d="M20 -75q6 -1 12 -1h11q94 0 94 101v209q0 99 81 116q-81 18 -81 118v208q0 102 -96 102h-10.5t-10.5 -1v33q6 1 12 1h11q64 0 96.5 -34.5t32.5 -100.5v-208q0 -55 27 -77.5t87 -22.5v-34q-60 0 -87 -22.5t-27 -77.5v-209q0 -66 -32.5 -100.5t-96.5 -34.5h-11t-12 1v34z
" />
    <glyph glyph-name="asciitilde" unicode="~" horiz-adv-x="579" 
d="M67 307q5 19 15.5 37.5t25 33t32.5 23.5t39 9q52 0 119 -45q61 -41 102 -41q16 0 29.5 8t24 20t17.5 26.5t10 28.5l32 -14q-6 -19 -16 -37.5t-24 -33t-32 -23.5t-40 -9q-25 0 -55 11t-65 34q-30 20 -55.5 30t-45.5 10q-17 0 -30 -7.5t-23 -19t-17 -26t-11 -29.5l-32 14v0
z" />
    <glyph glyph-name="exclamdown" unicode="&#xa1;" horiz-adv-x="210" 
d="M90 330h30l5 -330v-200h-40v200zM80 450q-10 10 -10 25t10 25t25 10t25 -10t10 -25t-10 -25t-25 -10q-13 0 -25 10z" />
    <glyph glyph-name="cent" unicode="&#xa2;" horiz-adv-x="570" 
d="M47 350q0 56 20 103.5t55 82.5t82.5 55t103.5 20q30 0 59 -6l32 95h30l-34 -103q94 -32 132 -111l-29 -17q-35 70 -114 96l-143 -433q31 -9 67 -9q64 0 114.5 29.5t76.5 78.5l29 -17q-15 -29 -37.5 -52t-51 -39t-62 -25t-69.5 -9q-37 0 -78 11l-33 -100h-30l36 110
q-36 15 -64.5 39t-49 55.5t-31.5 68t-11 77.5zM308 577q-48 0 -89.5 -17.5t-71.5 -48t-47.5 -72t-17.5 -89.5q0 -70 36 -125.5t96 -82.5l143 430q-14 2 -26 3.5t-23 1.5z" />
    <glyph glyph-name="sterling" unicode="&#xa3;" horiz-adv-x="595" 
d="M47 35h104v262h-84v33h84v187q0 44 15 79.5t41.5 61t63 39.5t79.5 14q66 0 112.5 -33t69.5 -94l-30 -17q-37 109 -152 109q-36 0 -66 -11.5t-51.5 -32t-33 -50t-11.5 -65.5v-187h250v-33h-250v-262h389v-35h-530v35z" />
    <glyph glyph-name="currency" unicode="&#xa4;" horiz-adv-x="553" 
d="M117 210q-52 59 -52 140t52 140l-70 71l20 18l70 -69q58 51 140 51t140 -52l70 70l20 -18l-71 -71q52 -59 52 -140q0 -82 -52 -140l71 -71l-20 -18l-71 69q-59 -51 -139 -51q-82 0 -140 52l-70 -70l-20 18zM277 527q-38 0 -70.5 -13.5t-56 -37t-37 -56t-13.5 -70.5
t13.5 -70.5t37 -56t56 -37t70.5 -13.5q37 0 69.5 13.5t56 37.5t37 56t13.5 70q0 37 -13.5 69.5t-37 56.5t-56 37.5t-69.5 13.5z" />
    <glyph glyph-name="yen" unicode="&#xa5;" horiz-adv-x="565" 
d="M10 700h41l225 -360h20l225 360h41l-226 -360h156v-31h-175l-13 -20v-73h188v-32h-188v-184h-37v184h-192v32h192v74l-12 19h-180v31h161z" />
    <glyph glyph-name="brokenbar" unicode="&#xa6;" horiz-adv-x="222" 
d="M93 350v370h36v-370h-36zM129 170v-370h-36v370h36z" />
    <glyph glyph-name="section" unicode="&#xa7;" horiz-adv-x="507" 
d="M67 346q0 73 69 117q-46 40 -46 101q0 36 14 63t37.5 46t54 28.5t63.5 9.5q63 0 108.5 -29.5t67.5 -84.5l-29 -17q-37 97 -147 97q-58 0 -96 -31t-38 -82q0 -12 3 -23t6 -20q8 -14 18 -24.5t26 -22.5l10.5 -7t8.5 -5t9 -5t14 -7l49 -22q22 -9 43.5 -19t42.5 -21t40 -24
t33.5 -29t23 -36.5t8.5 -46.5q0 -72 -68 -116q48 -44 48 -103q0 -32 -12.5 -58.5t-36 -45.5t-56 -30t-72.5 -11q-72 0 -121.5 32.5t-71.5 95.5l29 17q34 -112 164 -112q31 0 57 8t45 22.5t29.5 35t10.5 46.5q0 24 -11 44t-28.5 35.5t-38.5 27t-40 20.5l-51 23
q-20 9 -34.5 15.5t-27.5 13t-25 14t-27 17.5q-55 38 -55 103zM163 443q-61 -34 -61 -97q0 -51 46 -82q24 -16 45.5 -26.5t55.5 -24.5q40 -17 68.5 -30t47.5 -26q60 34 60 95q0 48 -36.5 77t-108.5 58q-87 35 -117 56z" />
    <glyph glyph-name="dieresis" unicode="&#xa8;" horiz-adv-x="267" 
d="M190 607q0 11 8.5 19.5t19.5 8.5q12 0 20.5 -8.5t8.5 -19.5q0 -12 -8.5 -20.5t-20.5 -8.5q-11 0 -19.5 8.5t-8.5 20.5zM20 607q0 11 8.5 19.5t19.5 8.5q12 0 20.5 -8.5t8.5 -19.5q0 -12 -8.5 -20.5t-20.5 -8.5q-11 0 -19.5 8.5t-8.5 20.5z" />
    <glyph glyph-name="copyright" unicode="&#xa9;" horiz-adv-x="831" 
d="M53 350q0 75 28.5 141t77.5 115t115 77t141 28t141 -28t115 -77t77.5 -115t28.5 -141q0 -76 -28 -142t-77 -114.5t-115 -76.5t-142 -28t-142 28t-115 76.5t-77 114.5t-28 142zM415 689q-71 0 -132.5 -26.5t-107.5 -72.5t-72 -108t-26 -132q0 -71 26 -132.5t72 -107.5
t107.5 -72.5t132.5 -26.5q70 0 132 26.5t108 72.5t72.5 107.5t26.5 132.5q0 70 -26.5 132t-72.5 108t-108 72.5t-132 26.5zM224 350q0 41 15 76.5t41 61t61.5 40t76.5 14.5q54 0 97 -25t66 -68l-30 -17q-17 36 -52.5 56.5t-80.5 20.5q-34 0 -63 -12t-50.5 -33.5t-33.5 -50.5
t-12 -63t12 -63t33.5 -50.5t50.5 -33.5t63 -12q45 0 80.5 20.5t53.5 56.5l29 -17q-22 -43 -65.5 -68t-97.5 -25q-42 0 -77.5 14t-61.5 39.5t-40.5 61t-14.5 77.5z" />
    <glyph glyph-name="guillemotleft" unicode="&#xab;" horiz-adv-x="447" 
d="M211 309l104 167h42l-104 -167l104 -167h-42zM193 476h42l-103 -167l103 -167h-42l-103 167z" />
    <glyph glyph-name="logicalnot" unicode="&#xac;" horiz-adv-x="520" 
d="M67 382h386v-167h-35v134h-351v33z" />
    <glyph glyph-name="registered" unicode="&#xae;" horiz-adv-x="831" 
d="M53 350q0 75 28.5 141t77.5 115t115 77t141 28t141 -28t115 -77t77.5 -115t28.5 -141q0 -76 -28 -142t-77 -114.5t-115 -76.5t-142 -28t-142 28t-115 76.5t-77 114.5t-28 142zM415 689q-71 0 -132.5 -26.5t-107.5 -72.5t-72 -108t-26 -132q0 -71 26 -132.5t72 -107.5
t107.5 -72.5t132.5 -26.5q70 0 132 26.5t108 72.5t72.5 107.5t26.5 132.5q0 70 -26.5 132t-72.5 108t-108 72.5t-132 26.5zM312 535h107q66 0 100 -33t34 -79q0 -87 -83 -107l91 -151h-38l-87 146q-3 -1 -17 -1h-73v-145h-34v370zM346 342h75q98 0 98 81q0 35 -26 57.5
t-72 22.5h-75v-161z" />
    <glyph glyph-name="macron" unicode="&#xaf;" horiz-adv-x="287" 
d="M20 594v30h247v-30h-247z" />
    <glyph glyph-name="degree" unicode="&#xb0;" horiz-adv-x="386" 
d="M47 667q0 30 11.5 56.5t31 45.5t46.5 30t57 11t57 -11t46.5 -30t31 -45t11.5 -57t-11.5 -57t-31 -45.5t-46 -30.5t-57.5 -11t-57.5 11t-46 30.5t-31 45.5t-11.5 57zM81 667q0 -24 8.5 -44.5t23.5 -35.5t35.5 -23.5t44.5 -8.5t44.5 8.5t35.5 23.5t23.5 35.5t8.5 44.5
t-8.5 44t-23.5 35t-35.5 23.5t-44.5 8.5t-44.5 -8.5t-35.5 -23.5t-23.5 -35t-8.5 -44z" />
    <glyph glyph-name="plusminus" unicode="&#xb1;" horiz-adv-x="527" 
d="M67 428h179v175h35v-175h179v-33h-179v-175h-35v175h-179v33zM67 130h393v-33h-393v33z" />
    <glyph glyph-name="acute" unicode="&#xb4;" horiz-adv-x="161" 
d="M100 693h41l-88 -123h-33z" />
    <glyph glyph-name="uni00B5" unicode="&#xb5;" horiz-adv-x="609" 
d="M119 500v-314q0 -73 42 -118t117 -45q42 0 76 14.5t59 41.5t38.5 66t13.5 89v266h35v-420q0 -22 12.5 -34.5t33.5 -12.5h26v-33h-29q-36 0 -57 21.5t-21 58.5v33q-26 -61 -75 -92.5t-115 -31.5q-110 0 -156 84v-273h-36v700h36z" />
    <glyph glyph-name="paragraph" unicode="&#xb6;" horiz-adv-x="560" 
d="M233 327q-39 0 -73 14.5t-59 39.5t-39.5 59t-14.5 73t14.5 73t39.5 59.5t59 40t73 14.5h280v-33h-60v-867h-34v867h-151v-867h-35v527v0z" />
    <glyph glyph-name="periodcentered" unicode="&#xb7;" horiz-adv-x="197" 
d="M98 305q-14 0 -24.5 10t-10.5 25t10.5 25t24.5 10q17 0 25.5 -11t8.5 -24t-8.5 -24t-25.5 -11z" />
    <glyph glyph-name="cedilla" unicode="&#xb8;" horiz-adv-x="212" 
d="M14 -178q17 -2 31 -3t27 -1q95 0 95 47q0 43 -75 43h-14v92h31v-68q37 0 63.5 -18t26.5 -49q0 -34 -32.5 -54.5t-101.5 -20.5q-24 0 -51 3v29v0z" />
    <glyph glyph-name="guillemotright" unicode="&#xbb;" horiz-adv-x="447" 
d="M212 476h42l103 -167l-103 -167h-42l103 167zM90 142l104 167l-104 167h42l104 -167l-104 -167h-42z" />
    <glyph glyph-name="onequarter" unicode="&#xbc;" horiz-adv-x="836" 
d="M497 116l153 284h35l-152 -284h184v113h34v-113h59v-31h-59v-85h-34v85h-220v31zM139 0l414 700h33l-413 -700h-34zM17 651l128 49h25v-400h-34v360l-110 -38z" />
    <glyph glyph-name="onehalf" unicode="&#xbd;" horiz-adv-x="823" 
d="M516 0v27l181 171q48 45 48 96q0 36 -25.5 61t-70.5 25q-78 0 -102 -71l-29 16q14 40 48.5 63.5t83.5 23.5q60 0 94.5 -33.5t34.5 -84.5q0 -62 -58 -117l-154 -145h220v-32h-271zM139 0l414 700h33l-413 -700h-34zM145 700h25v-400h-34v360l-110 -38l-9 29z" />
    <glyph glyph-name="threequarters" unicode="&#xbe;" horiz-adv-x="936" 
d="M165 288q-101 0 -133 77l28 16q25 -61 105 -61q51 0 77.5 26t26.5 68q0 40 -26.5 66.5t-77.5 26.5h-3l-17 25l103 136h-205v32h244v-32l-101 -133q55 -6 86 -39.5t31 -81.5q0 -55 -37 -90.5t-101 -35.5zM597 116l153 284h35l-152 -284h184v113h34v-113h59v-31h-59v-85
h-34v85h-220v31zM239 0l414 700h33l-413 -700h-34z" />
    <glyph glyph-name="questiondown" unicode="&#xbf;" horiz-adv-x="528" 
d="M67 -36q0 42 20 79.5t48 67.5q21 22 43.5 46.5t40.5 51t30 56.5t12 65h37q0 -48 -20 -91t-49 -75q-21 -23 -43.5 -46.5t-40.5 -48t-30 -50.5t-12 -55q0 -64 43 -102t121 -38q63 0 110 29.5t63 80.5l31 -17q-11 -30 -31 -53.5t-47 -40t-59 -25.5t-67 -9q-45 0 -81.5 12
t-63 34.5t-41 55t-14.5 73.5zM280 440q-17 0 -25.5 11t-8.5 24t8.5 24t25.5 11q14 0 24.5 -10t10.5 -25t-10.5 -25t-24.5 -10z" />
    <glyph glyph-name="Agrave" unicode="&#xc0;" horiz-adv-x="629" 
d="M294 700h40l275 -700h-39l-72 185h-367l-72 -185h-39zM485 219l-171 438l-170 -438h341zM230 893h41l80 -123h-33z" />
    <glyph glyph-name="Aacute" unicode="&#xc1;" horiz-adv-x="629" 
d="M294 700h40l275 -700h-39l-72 185h-367l-72 -185h-39zM485 219l-171 438l-170 -438h341zM281 770l80 123h41l-88 -123h-33z" />
    <glyph glyph-name="Acircumflex" unicode="&#xc2;" horiz-adv-x="629" 
d="M20 0l274 700h40l275 -700h-39l-72 185h-367l-72 -185h-39zM485 219l-171 438l-170 -438h341zM182 770l110 123h41l110 -123h-40l-91 102l-90 -102h-40z" />
    <glyph glyph-name="Atilde" unicode="&#xc3;" horiz-adv-x="629" 
d="M294 700h40l275 -700h-39l-72 185h-367l-72 -185h-39zM144 219h341l-171 438zM182 787q0 16 3 33.5t10 31.5t19.5 23.5t32.5 9.5q31 0 71 -37q36 -35 62 -35q35 0 35 66h31q0 -15 -3 -32.5t-10 -32t-19.5 -24t-31.5 -9.5q-33 0 -71 37q-19 18 -35 26.5t-28 8.5
q-35 0 -35 -66h-31z" />
    <glyph glyph-name="Adieresis" unicode="&#xc4;" horiz-adv-x="629" 
d="M294 700h40l275 -700h-39l-72 185h-367l-72 -185h-39zM485 219l-171 438l-170 -438h341zM371 807q0 11 8.5 19.5t19.5 8.5q12 0 20.5 -8.5t8.5 -19.5q0 -12 -8.5 -20.5t-20.5 -8.5q-11 0 -19.5 8.5t-8.5 20.5zM229 778q-11 0 -19.5 8.5t-8.5 20.5q0 11 8.5 19.5t19.5 8.5
q12 0 20.5 -8.5t8.5 -19.5q0 -12 -8.5 -20.5t-20.5 -8.5z" />
    <glyph glyph-name="Aring" unicode="&#xc5;" horiz-adv-x="629" 
d="M20 0l267 683q-32 8 -51.5 32.5t-19.5 57.5q0 40 27 66.5t72 26.5t71.5 -26.5t26.5 -66.5q0 -34 -19.5 -58.5t-52.5 -31.5l268 -683h-39l-72 185h-367l-72 -185h-39zM485 219l-171 438l-170 -438h341zM265 820q-9 -9 -14 -21.5t-5 -25.5t5 -26t14 -22t22 -13.5t27 -4.5
t27.5 4.5t22.5 13.5q19 19 19 48t-19 48q-18 18 -49 18q-14 0 -27 -4.5t-23 -14.5z" />
    <glyph glyph-name="AE" unicode="&#xc6;" horiz-adv-x="865" 
d="M435 700h379v-34h-329v-296h307v-34h-307v-302h334v-34h-370v193h-282l-118 -193h-42zM449 227v429l-262 -429h262z" />
    <glyph glyph-name="Ccedilla" unicode="&#xc7;" horiz-adv-x="758" 
d="M53 350q0 78 27.5 144t76.5 114t115.5 75.5t143.5 27.5q45 0 88.5 -11t82.5 -32.5t71 -52t55 -69.5l-32 -19q-20 34 -48 61.5t-62 47t-73.5 30t-81.5 10.5q-70 0 -129.5 -25t-103 -68.5t-68.5 -103t-25 -129.5q0 -71 24.5 -130.5t68 -103t103 -68t130.5 -24.5
q84 0 155.5 39t111.5 114l33 -18q-21 -38 -51.5 -68.5t-67.5 -52.5t-78.5 -34.5t-84.5 -14.5v-57q37 0 63.5 -18t26.5 -49q0 -34 -32.5 -54.5t-101.5 -20.5q-24 0 -51 3v29q17 -2 31 -3t27 -1q95 0 95 47q0 43 -75 43h-14v81q-75 2 -139.5 30.5t-111 77t-73 113.5t-26.5 140
z" />
    <glyph glyph-name="Egrave" unicode="&#xc8;" horiz-adv-x="537" 
d="M93 700h392v-34h-355v-296h330v-34h-330v-302h360v-34h-397v700zM205 893h41l80 -123h-33z" />
    <glyph glyph-name="Eacute" unicode="&#xc9;" horiz-adv-x="537" 
d="M93 700h392v-34h-355v-296h330v-34h-330v-302h360v-34h-397v700zM256 770l80 123h41l-88 -123h-33z" />
    <glyph glyph-name="Ecircumflex" unicode="&#xca;" horiz-adv-x="537" 
d="M93 700h392v-34h-355v-296h330v-34h-330v-302h360v-34h-397v700zM157 770l110 123h41l110 -123h-40l-91 102l-90 -102h-40z" />
    <glyph glyph-name="Edieresis" unicode="&#xcb;" horiz-adv-x="537" 
d="M93 700h392v-34h-355v-296h330v-34h-330v-302h360v-34h-397v700zM374 778q-11 0 -19.5 8.5t-8.5 20.5q0 11 8.5 19.5t19.5 8.5q12 0 20.5 -8.5t8.5 -19.5q0 -12 -8.5 -20.5t-20.5 -8.5zM176 807q0 11 8.5 19.5t19.5 8.5q12 0 20.5 -8.5t8.5 -19.5q0 -12 -8.5 -20.5
t-20.5 -8.5q-11 0 -19.5 8.5t-8.5 20.5z" />
    <glyph glyph-name="Igrave" unicode="&#xcc;" horiz-adv-x="223" 
d="M116 770l-88 123h41l80 -123h-33zM93 0h37v700h-37v-700z" />
    <glyph glyph-name="Iacute" unicode="&#xcd;" horiz-adv-x="223" 
d="M159 893h41l-88 -123h-33zM93 0h37v700h-37v-700z" />
    <glyph glyph-name="Icircumflex" unicode="&#xce;" horiz-adv-x="223" 
d="M130 700v-700h-37v700h37zM90 893h41l110 -123h-40l-91 102l-90 -102h-40z" />
    <glyph glyph-name="Idieresis" unicode="&#xcf;" horiz-adv-x="223" 
d="M130 700v-700h-37v700h37zM169 807q0 11 8.5 19.5t19.5 8.5q12 0 20.5 -8.5t8.5 -19.5q0 -12 -8.5 -20.5t-20.5 -8.5q-11 0 -19.5 8.5t-8.5 20.5zM27 778q-11 0 -19.5 8.5t-8.5 20.5q0 11 8.5 19.5t19.5 8.5q12 0 20.5 -8.5t8.5 -19.5q0 -12 -8.5 -20.5t-20.5 -8.5z" />
    <glyph glyph-name="Eth" unicode="&#xd0;" horiz-adv-x="753" 
d="M50 333v34h63v333h257q73 0 134 -28t104.5 -76t67.5 -111.5t24 -134.5q0 -72 -24 -135.5t-67.5 -111t-104 -75.5t-134.5 -28h-257v333h-63zM150 333v-299h220q67 0 121.5 25t92.5 68.5t59 100.5t21 122q0 64 -21 121.5t-59.5 100.5t-93 68.5t-120.5 25.5h-220v-299h260
v-34h-260z" />
    <glyph glyph-name="Ntilde" unicode="&#xd1;" horiz-adv-x="693" 
d="M127 700l436 -634v634h37v-700h-33l-437 634v-634h-37v700h34zM208 787q0 16 3 33.5t10 31.5t19.5 23.5t32.5 9.5q31 0 71 -37q36 -35 62 -35q35 0 35 66h31q0 -15 -3 -32.5t-10 -32t-19.5 -24t-31.5 -9.5q-33 0 -71 37q-19 18 -35 26.5t-28 8.5q-35 0 -35 -66h-31z" />
    <glyph glyph-name="Ograve" unicode="&#xd2;" horiz-adv-x="828" 
d="M53 350q0 75 28 141t77 115t115 77t141 28t141 -28.5t114.5 -77t77 -114.5t28.5 -141t-28 -141t-77 -115t-115 -77t-141 -28q-76 0 -142 28t-114.5 76.5t-76.5 114.5t-28 142zM90 350q0 -68 25 -127.5t68.5 -103.5t102.5 -69.5t128 -25.5q68 0 127.5 25.5t103 69.5
t68.5 103.5t25 127.5q0 67 -25.5 126.5t-69 104t-103 70t-126.5 25.5q-68 0 -127.5 -25.5t-103 -69.5t-68.5 -103.5t-25 -127.5zM448 770h-33l-88 123h41z" />
    <glyph glyph-name="Oacute" unicode="&#xd3;" horiz-adv-x="828" 
d="M53 350q0 75 28 141t77 115t115 77t141 28t141 -28.5t114.5 -77t77 -114.5t28.5 -141t-28 -141t-77 -115t-115 -77t-141 -28q-76 0 -142 28t-114.5 76.5t-76.5 114.5t-28 142zM414 676q-68 0 -127.5 -25.5t-103 -69.5t-68.5 -103.5t-25 -127.5t25 -127.5t68.5 -103.5
t102.5 -69.5t128 -25.5q68 0 127.5 25.5t103 69.5t68.5 103.5t25 127.5q0 67 -25.5 126.5t-69 104t-103 70t-126.5 25.5zM457 893h41l-88 -123h-33z" />
    <glyph glyph-name="Ocircumflex" unicode="&#xd4;" horiz-adv-x="828" 
d="M53 350q0 75 28 141t77 115t115 77t141 28t141 -28.5t114.5 -77t77 -114.5t28.5 -141t-28 -141t-77 -115t-115 -77t-141 -28q-76 0 -142 28t-114.5 76.5t-76.5 114.5t-28 142zM90 350q0 -68 25 -127.5t68.5 -103.5t102.5 -69.5t128 -25.5q68 0 127.5 25.5t103 69.5
t68.5 103.5t25 127.5q0 67 -25.5 126.5t-69 104t-103 70t-126.5 25.5q-68 0 -127.5 -25.5t-103 -69.5t-68.5 -103.5t-25 -127.5zM283 770l110 123h41l110 -123h-40l-91 102l-90 -102h-40z" />
    <glyph glyph-name="Otilde" unicode="&#xd5;" horiz-adv-x="828" 
d="M414 -11q-76 0 -142 28t-114.5 76.5t-76.5 114.5t-28 142q0 75 28 141t77 115t115 77t141 28t141 -28.5t114.5 -77t77 -114.5t28.5 -141t-28 -141t-77 -115t-115 -77t-141 -28zM90 350q0 -68 25 -127.5t68.5 -103.5t102.5 -69.5t128 -25.5q68 0 127.5 25.5t103 69.5
t68.5 103.5t25 127.5q0 67 -25.5 126.5t-69 104t-103 70t-126.5 25.5q-68 0 -127.5 -25.5t-103 -69.5t-68.5 -103.5t-25 -127.5zM282 787q0 16 3 33.5t10 31.5t19.5 23.5t32.5 9.5q31 0 71 -37q36 -35 62 -35q35 0 35 66h31q0 -15 -3 -32.5t-10 -32t-19.5 -24t-31.5 -9.5
q-33 0 -71 37q-19 18 -35 26.5t-28 8.5q-35 0 -35 -66h-31z" />
    <glyph glyph-name="Odieresis" unicode="&#xd6;" horiz-adv-x="828" 
d="M53 350q0 75 28 141t77 115t115 77t141 28t141 -28.5t114.5 -77t77 -114.5t28.5 -141t-28 -141t-77 -115t-115 -77t-141 -28q-76 0 -142 28t-114.5 76.5t-76.5 114.5t-28 142zM90 350q0 -68 25 -127.5t68.5 -103.5t102.5 -69.5t128 -25.5q68 0 127.5 25.5t103 69.5
t68.5 103.5t25 127.5q0 67 -25.5 126.5t-69 104t-103 70t-126.5 25.5q-68 0 -127.5 -25.5t-103 -69.5t-68.5 -103.5t-25 -127.5zM499 778q-11 0 -19.5 8.5t-8.5 20.5q0 11 8.5 19.5t19.5 8.5q12 0 20.5 -8.5t8.5 -19.5q0 -12 -8.5 -20.5t-20.5 -8.5zM329 778
q-11 0 -19.5 8.5t-8.5 20.5q0 11 8.5 19.5t19.5 8.5q12 0 20.5 -8.5t8.5 -19.5q0 -12 -8.5 -20.5t-20.5 -8.5z" />
    <glyph glyph-name="multiply" unicode="&#xd7;" horiz-adv-x="466" 
d="M210 350l-147 147l25 22l145 -146l146 146l24 -22l-147 -147l147 -147l-24 -22l-146 146l-145 -146l-25 22z" />
    <glyph glyph-name="Oslash" unicode="&#xd8;" horiz-adv-x="838" 
d="M178 85q-115 106 -115 265q0 75 28 141t77 115t115 77t141 28q126 0 224 -77l57 66l26 -15l-61 -71q115 -106 115 -264q0 -75 -28 -141t-77 -115t-115 -77t-141 -28q-126 0 -224 77l-57 -66l-25 15zM100 350q0 -140 101 -238l424 494q-86 70 -201 70q-134 0 -230 -96
q-94 -94 -94 -230zM223 93q88 -69 201 -69q68 0 127.5 25.5t103 69.5t68.5 103.5t25 127.5q0 141 -101 237z" />
    <glyph glyph-name="Ugrave" unicode="&#xd9;" horiz-adv-x="673" 
d="M120 700v-471q0 -45 14.5 -82.5t42 -65t68 -42.5t92.5 -15q51 0 91.5 15t68 42.5t42 65t14.5 82.5v471h37v-471q0 -57 -19 -101.5t-52.5 -75t-80 -47t-101.5 -16.5t-101.5 16t-80.5 47t-53 75.5t-19 101.5v471h37zM290 893l80 -123h-33l-88 123h41z" />
    <glyph glyph-name="Uacute" unicode="&#xda;" horiz-adv-x="673" 
d="M120 700v-471q0 -45 14.5 -82.5t42 -65t68 -42.5t92.5 -15q51 0 91.5 15t68 42.5t42 65t14.5 82.5v471h37v-471q0 -57 -19 -101.5t-52.5 -75t-80 -47t-101.5 -16.5t-101.5 16t-80.5 47t-53 75.5t-19 101.5v471h37zM396 893h41l-88 -123h-33z" />
    <glyph glyph-name="Ucircumflex" unicode="&#xdb;" horiz-adv-x="673" 
d="M120 700v-471q0 -45 14.5 -82.5t42 -65t68 -42.5t92.5 -15q51 0 91.5 15t68 42.5t42 65t14.5 82.5v471h37v-471q0 -57 -19 -101.5t-52.5 -75t-80 -47t-101.5 -16.5t-101.5 16t-80.5 47t-53 75.5t-19 101.5v471h37zM311 893h41l110 -123h-40l-91 102l-90 -102h-40z" />
    <glyph glyph-name="Udieresis" unicode="&#xdc;" horiz-adv-x="673" 
d="M120 700v-471q0 -45 14.5 -82.5t42 -65t68 -42.5t92.5 -15q51 0 91.5 15t68 42.5t42 65t14.5 82.5v471h37v-471q0 -57 -19 -101.5t-52.5 -75t-80 -47t-101.5 -16.5t-101.5 16t-80.5 47t-53 75.5t-19 101.5v471h37zM418 778q-11 0 -19.5 8.5t-8.5 20.5q0 11 8.5 19.5
t19.5 8.5q12 0 20.5 -8.5t8.5 -19.5q0 -12 -8.5 -20.5t-20.5 -8.5zM248 778q-11 0 -19.5 8.5t-8.5 20.5q0 11 8.5 19.5t19.5 8.5q12 0 20.5 -8.5t8.5 -19.5q0 -12 -8.5 -20.5t-20.5 -8.5z" />
    <glyph glyph-name="Yacute" unicode="&#xdd;" horiz-adv-x="572" 
d="M51 700l235 -376l235 376h41l-258 -411v-289h-37v290l-257 410h41zM341 893h41l-88 -123h-33z" />
    <glyph glyph-name="Thorn" unicode="&#xde;" horiz-adv-x="583" 
d="M93 0v700h37v-137h190q46 0 85.5 -16t69 -44t46 -67.5t16.5 -85.5q0 -47 -16.5 -86t-45.5 -67.5t-69 -44t-86 -15.5h-190v-137h-37zM130 529v-358h190q39 0 72 13t57 37t37.5 57t13.5 72t-13.5 72t-37.5 56.5t-57 37t-72 13.5h-190z" />
    <glyph glyph-name="germandbls" unicode="&#xdf;" horiz-adv-x="516" 
d="M83 0v516q0 91 51 143t136 52q39 0 69 -11.5t51 -31.5t32 -47.5t11 -58.5q0 -32 -14.5 -55.5t-32.5 -42.5t-32.5 -35.5t-14.5 -34.5t15.5 -40t37.5 -44q16 -16 33 -34.5t31 -39.5t23.5 -45t9.5 -50q0 -66 -47.5 -106t-132.5 -40q-5 0 -9.5 0.5t-9.5 0.5v32q29 0 58 4
t52.5 16.5t38.5 34.5t15 58q0 18 -6.5 36t-17 35.5t-24 33.5t-27.5 30q-14 13 -27 28t-23.5 30.5t-17 30.5t-6.5 29q0 24 14.5 42.5t32 37t32 39.5t14.5 49q0 51 -34 83t-94 32q-70 0 -110.5 -42.5t-40.5 -118.5v-516h-36z" />
    <glyph glyph-name="agrave" unicode="&#xe0;" 
d="M307 -11q-55 0 -102.5 20t-82.5 55.5t-55 83t-20 102.5q0 54 20 102t55 83t82.5 55.5t102.5 20.5q76 0 137 -39.5t91 -105.5v134h35v-500h-35v134q-30 -66 -91 -105.5t-137 -39.5zM308 477q-48 0 -89.5 -17.5t-71.5 -48t-47.5 -72t-17.5 -89.5q0 -95 65 -162
q64 -65 161 -65q48 0 89.5 17.5t72 48t48 72t17.5 89.5t-17.5 89t-48.5 72t-72 48.5t-89 17.5zM267 693l80 -123h-33l-88 123h41z" />
    <glyph glyph-name="aacute" unicode="&#xe1;" 
d="M47 250q0 54 20 102t55 83t82.5 55.5t102.5 20.5q76 0 137 -39.5t91 -105.5v134h35v-500h-35v134q-30 -66 -91 -105.5t-137 -39.5q-55 0 -102.5 20t-82.5 55.5t-55 83t-20 102.5zM308 477q-48 0 -89.5 -17.5t-71.5 -48t-47.5 -72t-17.5 -89.5q0 -95 65 -162
q64 -65 161 -65q48 0 89.5 17.5t72 48t48 72t17.5 89.5t-17.5 89t-48.5 72t-72 48.5t-89 17.5zM313 570l80 123h41l-88 -123h-33z" />
    <glyph glyph-name="acircumflex" unicode="&#xe2;" 
d="M307 -11q-55 0 -102.5 20t-82.5 55.5t-55 83t-20 102.5q0 54 20 102t55 83t82.5 55.5t102.5 20.5q76 0 137 -39.5t91 -105.5v134h35v-500h-35v134q-30 -66 -91 -105.5t-137 -39.5zM308 477q-48 0 -89.5 -17.5t-71.5 -48t-47.5 -72t-17.5 -89.5q0 -95 65 -162
q64 -65 161 -65q48 0 89.5 17.5t72 48t48 72t17.5 89.5t-17.5 89t-48.5 72t-72 48.5t-89 17.5zM186 570l110 123h41l110 -123h-40l-91 102l-90 -102h-40z" />
    <glyph glyph-name="atilde" unicode="&#xe3;" 
d="M47 250q0 54 20 102t55 83t82.5 55.5t102.5 20.5q76 0 137 -39.5t91 -105.5v134h35v-500h-35v134q-30 -66 -91 -105.5t-137 -39.5q-55 0 -102.5 20t-82.5 55.5t-55 83t-20 102.5zM82 250q0 -95 65 -162q64 -65 161 -65q48 0 89.5 17.5t72 48t48 72t17.5 89.5t-17.5 89
t-48.5 72t-72 48.5t-89 17.5t-89.5 -17.5t-71.5 -48t-47.5 -72t-17.5 -89.5zM191 587q0 16 3 33.5t10 31.5t19.5 23.5t32.5 9.5q31 0 71 -37q36 -35 62 -35q35 0 35 66h31q0 -15 -3 -32.5t-10 -32t-19.5 -24t-31.5 -9.5q-33 0 -71 37q-19 18 -35 26.5t-28 8.5q-35 0 -35 -66
h-31z" />
    <glyph glyph-name="adieresis" unicode="&#xe4;" 
d="M307 -11q-55 0 -102.5 20t-82.5 55.5t-55 83t-20 102.5q0 54 20 102t55 83t82.5 55.5t102.5 20.5q76 0 137 -39.5t91 -105.5v134h35v-500h-35v134q-30 -66 -91 -105.5t-137 -39.5zM82 250q0 -48 17 -89.5t47.5 -72t72 -48t89.5 -17.5t89.5 17.5t72 48t48 72t17.5 89.5
t-17.5 89t-48.5 72t-72 48.5t-89 17.5t-89.5 -17.5t-71.5 -48t-47.5 -72t-17.5 -89.5zM365 607q0 11 8.5 19.5t19.5 8.5q12 0 20.5 -8.5t8.5 -19.5q0 -12 -8.5 -20.5t-20.5 -8.5q-11 0 -19.5 8.5t-8.5 20.5zM195 607q0 11 8.5 19.5t19.5 8.5q12 0 20.5 -8.5t8.5 -19.5
q0 -12 -8.5 -20.5t-20.5 -8.5q-11 0 -19.5 8.5t-8.5 20.5z" />
    <glyph glyph-name="aring" unicode="&#xe5;" 
d="M307 -11q-55 0 -102.5 20t-82.5 55.5t-55 83t-20 102.5q0 54 20 102t55 83t82.5 55.5t102.5 20.5q76 0 137 -39.5t91 -105.5v134h35v-500h-35v134q-30 -66 -91 -105.5t-137 -39.5zM82 250q0 -95 65 -162q64 -65 161 -65q48 0 89.5 17.5t72 48t48 72t17.5 89.5t-17.5 89
t-48.5 72t-72 48.5t-89 17.5t-89.5 -17.5t-71.5 -48t-47.5 -72t-17.5 -89.5zM209 650q0 43 28.5 68t70.5 25t70 -25.5t28 -67.5q0 -40 -27 -67q-26 -26 -71 -26q-42 0 -70.5 24.5t-28.5 68.5zM258 697q-9 -9 -14 -21.5t-5 -25.5t5 -26t14 -22t22 -13.5t27 -4.5t27.5 4.5
t22.5 13.5q19 19 19 48t-19 48q-18 18 -49 18q-14 0 -27 -4.5t-23 -14.5z" />
    <glyph glyph-name="ae" unicode="&#xe6;" horiz-adv-x="1080" 
d="M47 250q0 54 20 102t55 83t82.5 55.5t102.5 20.5q76 0 137 -39.5t91 -105.5v134h34v-132q28 66 86.5 104.5t136.5 38.5q56 0 101 -21t76.5 -57t48.5 -83.5t17 -101.5q0 -14 -1 -17h-463q3 -48 20.5 -86.5t46.5 -65.5t69 -41.5t87 -14.5q66 0 115 26t73 71l31 -18
q-31 -52 -87.5 -82.5t-128.5 -30.5q-81 0 -140 38t-88 105v-132h-34v134q-30 -66 -91 -105.5t-137 -39.5q-55 0 -102.5 20t-82.5 55.5t-55 83t-20 102.5zM82 250q0 -48 17 -89.5t47.5 -72t72 -48t89.5 -17.5t89.5 17.5t72 48t48 72t17.5 89.5t-17.5 89t-48.5 72t-72 48.5
t-89 17.5t-89.5 -17.5t-71.5 -48t-47.5 -72t-17.5 -89.5zM791 477q-48 0 -87.5 -15.5t-68.5 -43.5t-46 -67.5t-19 -86.5h430q-3 49 -20 88.5t-44.5 67t-64.5 42.5t-80 15z" />
    <glyph glyph-name="ccedilla" unicode="&#xe7;" horiz-adv-x="570" 
d="M47 250q0 56 20 103.5t55 82.5t82.5 55t103.5 20q73 0 132 -34t87 -91l-29 -17q-24 49 -75 78.5t-115 29.5q-48 0 -89.5 -17.5t-71.5 -48t-47.5 -72t-17.5 -89.5t17 -89.5t47.5 -72t72 -48t89.5 -17.5q64 0 114.5 29.5t76.5 78.5l29 -17q-26 -54 -79.5 -86.5
t-120.5 -37.5v-58q37 0 63.5 -18t26.5 -49q0 -34 -32.5 -54.5t-101.5 -20.5q-24 0 -51 3v29q17 -2 31 -3t27 -1q95 0 95 47q0 43 -75 43h-14v81q-54 2 -100 23t-79 56t-52 81.5t-19 100.5z" />
    <glyph glyph-name="egrave" unicode="&#xe8;" horiz-adv-x="594" 
d="M307 -11q-58 0 -105.5 19.5t-82 54t-53.5 82.5t-19 105q0 55 18.5 103t52.5 83t81 55t103 20q55 0 100.5 -21t78 -57t50.5 -84t18 -101q0 -14 -1 -17h-465q3 -47 21 -85.5t47.5 -65.5t69 -42t86.5 -15q63 0 111.5 26t72.5 71l31 -18q-30 -52 -86.5 -82.5t-128.5 -30.5z
M513 264q-3 44 -19 83t-43 68t-65 45.5t-84 16.5q-47 0 -86.5 -16t-68.5 -44t-46 -67.5t-19 -85.5h431zM253 693l80 -123h-33l-88 123h41z" />
    <glyph glyph-name="eacute" unicode="&#xe9;" horiz-adv-x="594" 
d="M307 -11q-58 0 -105.5 19.5t-82 54t-53.5 82.5t-19 105q0 55 18.5 103t52.5 83t81 55t103 20q55 0 100.5 -21t78 -57t50.5 -84t18 -101q0 -14 -1 -17h-465q3 -47 21 -85.5t47.5 -65.5t69 -42t86.5 -15q63 0 111.5 26t72.5 71l31 -18q-30 -52 -86.5 -82.5t-128.5 -30.5z
M513 264q-3 44 -19 83t-43 68t-65 45.5t-84 16.5q-47 0 -86.5 -16t-68.5 -44t-46 -67.5t-19 -85.5h431zM285 570l80 123h41l-88 -123h-33z" />
    <glyph glyph-name="ecircumflex" unicode="&#xea;" horiz-adv-x="594" 
d="M307 -11q-58 0 -105.5 19.5t-82 54t-53.5 82.5t-19 105q0 55 18.5 103t52.5 83t81 55t103 20q55 0 100.5 -21t78 -57t50.5 -84t18 -101q0 -14 -1 -17h-465q3 -47 21 -85.5t47.5 -65.5t69 -42t86.5 -15q63 0 111.5 26t72.5 71l31 -18q-30 -52 -86.5 -82.5t-128.5 -30.5z
M513 264q-3 44 -19 83t-43 68t-65 45.5t-84 16.5q-47 0 -86.5 -16t-68.5 -44t-46 -67.5t-19 -85.5h431zM172 570l110 123h41l110 -123h-40l-91 102l-90 -102h-40z" />
    <glyph glyph-name="edieresis" unicode="&#xeb;" horiz-adv-x="594" 
d="M47 250q0 55 18.5 103t52.5 83t81 55t103 20q55 0 100.5 -21t78 -57t50.5 -84t18 -101q0 -14 -1 -17h-465q3 -47 21 -85.5t47.5 -65.5t69 -42t86.5 -15q63 0 111.5 26t72.5 71l31 -18q-30 -52 -86.5 -82.5t-128.5 -30.5q-58 0 -105.5 19.5t-82 54t-53.5 82.5t-19 105z
M513 264q-3 44 -19 83t-43 68t-65 45.5t-84 16.5q-47 0 -86.5 -16t-68.5 -44t-46 -67.5t-19 -85.5h431zM381 578q-11 0 -19.5 8.5t-8.5 20.5q0 11 8.5 19.5t19.5 8.5q12 0 20.5 -8.5t8.5 -19.5q0 -12 -8.5 -20.5t-20.5 -8.5zM183 607q0 11 8.5 19.5t19.5 8.5q12 0 20.5 -8.5
t8.5 -19.5q0 -12 -8.5 -20.5t-20.5 -8.5q-11 0 -19.5 8.5t-8.5 20.5z" />
    <glyph glyph-name="igrave" unicode="&#xec;" horiz-adv-x="202" 
d="M108 570l-68 123h41l60 -123h-33zM119 500h-36v-500h36v500z" />
    <glyph glyph-name="iacute" unicode="&#xed;" horiz-adv-x="202" 
d="M125 693h40l-67 -123h-33zM119 0v500h-36v-500h36z" />
    <glyph glyph-name="icircumflex" unicode="&#xee;" horiz-adv-x="202" 
d="M119 500v-500h-36v500h36zM81 693h40l84 -123h-40l-64 95l-64 -95h-40z" />
    <glyph glyph-name="idieresis" unicode="&#xef;" horiz-adv-x="202" 
d="M83 500h36v-500h-36v500zM136 607q0 11 8.5 19.5t19.5 8.5q12 0 20.5 -8.5t8.5 -19.5q0 -12 -8.5 -20.5t-20.5 -8.5q-11 0 -19.5 8.5t-8.5 20.5zM38 578q-12 0 -20.5 8.5t-8.5 20.5q0 11 8.5 19.5t20.5 8.5q11 0 19.5 -8.5t8.5 -19.5q0 -12 -8.5 -20.5t-19.5 -8.5z" />
    <glyph glyph-name="eth" unicode="&#xf0;" horiz-adv-x="589" 
d="M47 230q0 51 19 93.5t52 73.5t77 48.5t93 17.5q70 0 120 -30l-117 158l-126 -78v34l109 67l-64 86h40l51 -69l111 68v-34l-93 -57l177 -238q46 -61 46 -140q0 -53 -19 -97t-52 -76t-78 -50t-97 -18q-53 0 -98 17.5t-79 49.5t-53 76.5t-19 97.5zM292 431q-44 0 -82 -14.5
t-66.5 -41t-45 -63.5t-16.5 -82q0 -47 16.5 -85t45 -65t68 -42t84.5 -15t83.5 15.5t67 43t44.5 65.5t16 83q0 47 -16.5 84t-45 63t-68 40t-85.5 14z" />
    <glyph glyph-name="ntilde" unicode="&#xf1;" horiz-adv-x="569" 
d="M119 500v-111q26 61 75.5 91.5t113.5 30.5q44 0 79.5 -14.5t60.5 -40.5t38.5 -62.5t13.5 -79.5v-314h-35v314q0 73 -42.5 118t-117.5 45q-41 0 -75 -14.5t-59 -41.5t-38.5 -66.5t-13.5 -88.5v-266h-36v500h36zM161 587q0 16 3 33.5t10 31.5t19.5 23.5t32.5 9.5
q31 0 71 -37q37 -35 61 -35q36 0 36 66h31q0 -15 -3 -32.5t-10 -32t-19.5 -24t-31.5 -9.5q-33 0 -71 37q-19 18 -35 26.5t-28 8.5q-35 0 -35 -66h-31z" />
    <glyph glyph-name="ograve" unicode="&#xf2;" horiz-adv-x="617" 
d="M308 -11q-56 0 -103.5 20t-82.5 55t-55 82.5t-20 103.5q0 55 20 102.5t55.5 82.5t83 55.5t102.5 20.5t103 -20t83 -55.5t55.5 -83t20.5 -102.5q0 -56 -20 -103.5t-55.5 -82.5t-83.5 -55t-103 -20zM82 250q0 -48 17 -89.5t47.5 -72t72 -48t89.5 -17.5t89.5 17.5t72 48
t48 72t17.5 89.5t-17.5 89t-48.5 72t-72 48.5t-89 17.5t-89.5 -17.5t-71.5 -48t-47.5 -72t-17.5 -89.5zM262 693l80 -123h-33l-88 123h41z" />
    <glyph glyph-name="oacute" unicode="&#xf3;" horiz-adv-x="617" 
d="M308 -11q-56 0 -103.5 20t-82.5 55t-55 82.5t-20 103.5q0 55 20 102.5t55.5 82.5t83 55.5t102.5 20.5t103 -20t83 -55.5t55.5 -83t20.5 -102.5q0 -56 -20 -103.5t-55.5 -82.5t-83.5 -55t-103 -20zM308 477q-48 0 -89.5 -17.5t-71.5 -48t-47.5 -72t-17.5 -89.5t17 -89.5
t47.5 -72t72 -48t89.5 -17.5t89.5 17.5t72 48t48 72t17.5 89.5t-17.5 89t-48.5 72t-72 48.5t-89 17.5zM355 693h41l-88 -123h-33z" />
    <glyph glyph-name="ocircumflex" unicode="&#xf4;" horiz-adv-x="617" 
d="M308 -11q-56 0 -103.5 20t-82.5 55t-55 82.5t-20 103.5q0 55 20 102.5t55.5 82.5t83 55.5t102.5 20.5t103 -20t83 -55.5t55.5 -83t20.5 -102.5q0 -56 -20 -103.5t-55.5 -82.5t-83.5 -55t-103 -20zM82 250q0 -48 17 -89.5t47.5 -72t72 -48t89.5 -17.5t89.5 17.5t72 48
t48 72t17.5 89.5t-17.5 89t-48.5 72t-72 48.5t-89 17.5t-89.5 -17.5t-71.5 -48t-47.5 -72t-17.5 -89.5zM179 570l110 123h41l110 -123h-40l-91 102l-90 -102h-40z" />
    <glyph glyph-name="otilde" unicode="&#xf5;" horiz-adv-x="617" 
d="M308 -11q-56 0 -103.5 20t-82.5 55t-55 82.5t-20 103.5q0 55 20 102.5t55.5 82.5t83 55.5t102.5 20.5t103 -20t83 -55.5t55.5 -83t20.5 -102.5q0 -56 -20 -103.5t-55.5 -82.5t-83.5 -55t-103 -20zM308 477q-48 0 -89.5 -17.5t-71.5 -48t-47.5 -72t-17.5 -89.5t17 -89.5
t47.5 -72t72 -48t89.5 -17.5t89.5 17.5t72 48t48 72t17.5 89.5t-17.5 89t-48.5 72t-72 48.5t-89 17.5zM171 587q0 16 3 33.5t10 31.5t19.5 23.5t32.5 9.5q31 0 71 -37q37 -35 61 -35q36 0 36 66h31q0 -15 -3 -32.5t-10 -32t-19.5 -24t-31.5 -9.5q-33 0 -71 37
q-19 18 -35 26.5t-28 8.5q-35 0 -35 -66h-31z" />
    <glyph glyph-name="odieresis" unicode="&#xf6;" horiz-adv-x="617" 
d="M47 250q0 55 20 102.5t55.5 82.5t83 55.5t102.5 20.5t103 -20t83 -55.5t55.5 -83t20.5 -102.5q0 -56 -20 -103.5t-55.5 -82.5t-83.5 -55t-103 -20q-56 0 -103.5 20t-82.5 55.5t-55 83t-20 102.5zM82 250q0 -48 17 -89.5t47.5 -72t72 -48t89.5 -17.5t89.5 17.5t72 48
t48 72t17.5 89.5t-17.5 89t-48.5 72t-72 48.5t-89 17.5t-89.5 -17.5t-71.5 -48t-47.5 -72t-17.5 -89.5zM388 578q-11 0 -19.5 8.5t-8.5 20.5q0 11 8.5 19.5t19.5 8.5q12 0 20.5 -8.5t8.5 -19.5q0 -12 -8.5 -20.5t-20.5 -8.5zM190 607q0 11 8.5 19.5t19.5 8.5q12 0 20.5 -8.5
t8.5 -19.5q0 -12 -8.5 -20.5t-20.5 -8.5q-11 0 -19.5 8.5t-8.5 20.5z" />
    <glyph glyph-name="divide" unicode="&#xf7;" horiz-adv-x="580" 
d="M67 333v34h446v-34h-446zM265 512q-10 10 -10 25t10 25t25 10t25 -10t10 -25t-10 -25t-25 -10q-13 0 -25 10zM265 138q-10 10 -10 25t10 25t25 10t25 -10t10 -25t-10 -25t-25 -10q-13 0 -25 10z" />
    <glyph glyph-name="oslash" unicode="&#xf8;" horiz-adv-x="617" 
d="M122 66q-75 73 -75 184q0 55 20 102.5t55.5 82.5t83 55.5t102.5 20.5q94 0 167 -58l45 49l23 -14l-48 -53q75 -77 75 -185q0 -56 -20 -103.5t-55.5 -82.5t-83.5 -55t-103 -20q-93 0 -166 58l-45 -49l-24 14zM165 73q62 -50 143 -50q48 0 89.5 17.5t72 48t48 72t17.5 89.5
q0 95 -64 159zM147 411q-65 -65 -65 -161q0 -95 63 -159l307 336q-64 50 -144 50q-95 0 -161 -66z" />
    <glyph glyph-name="ugrave" unicode="&#xf9;" horiz-adv-x="569" 
d="M69 500h35v-314q0 -73 42.5 -118t117.5 -45q41 0 75 14.5t59 41.5t38.5 66t13.5 89v266h36v-500h-36v111q-26 -61 -75.5 -91.5t-113.5 -30.5q-45 0 -80.5 14.5t-60 40.5t-38 62t-13.5 80v314zM234 693l80 -123h-33l-88 123h41z" />
    <glyph glyph-name="uacute" unicode="&#xfa;" horiz-adv-x="569" 
d="M261 -11q-45 0 -80.5 14.5t-60 40.5t-38 62t-13.5 80v314h35v-314q0 -73 42.5 -118t117.5 -45q41 0 75 14.5t59 41.5t38.5 66t13.5 89v266h36v-500h-36v111q-26 -61 -75.5 -91.5t-113.5 -30.5zM342 693h41l-88 -123h-33z" />
    <glyph glyph-name="ucircumflex" unicode="&#xfb;" horiz-adv-x="569" 
d="M69 500h35v-314q0 -73 42.5 -118t117.5 -45q41 0 75 14.5t59 41.5t38.5 66t13.5 89v266h36v-500h-36v111q-26 -61 -75.5 -91.5t-113.5 -30.5q-45 0 -80.5 14.5t-60 40.5t-38 62t-13.5 80v314zM255 693h41l110 -123h-40l-91 102l-90 -102h-40z" />
    <glyph glyph-name="udieresis" unicode="&#xfc;" horiz-adv-x="569" 
d="M69 500h35v-314q0 -73 42.5 -118t117.5 -45q41 0 75 14.5t59 41.5t38.5 66t13.5 89v266h36v-500h-36v111q-26 -61 -75.5 -91.5t-113.5 -30.5q-45 0 -80.5 14.5t-60 40.5t-38 62t-13.5 80v314zM362 578q-11 0 -19.5 8.5t-8.5 20.5q0 11 8.5 19.5t19.5 8.5q12 0 20.5 -8.5
t8.5 -19.5q0 -12 -8.5 -20.5t-20.5 -8.5zM164 607q0 11 8.5 19.5t19.5 8.5q12 0 20.5 -8.5t8.5 -19.5q0 -12 -8.5 -20.5t-20.5 -8.5q-11 0 -19.5 8.5t-8.5 20.5z" />
    <glyph glyph-name="yacute" unicode="&#xfd;" horiz-adv-x="510" 
d="M53 500l216 -473l188 473h36l-217 -546q-28 -71 -76.5 -113t-106.5 -42q-3 0 -6 0.5t-6 0.5v33q3 0 6 -0.5t6 -0.5q47 0 85.5 35t63.5 95l10 22l-235 516h36zM242 570l80 123h41l-88 -123h-33z" />
    <glyph glyph-name="thorn" unicode="&#xfe;" 
d="M83 700h36v-333q31 66 90.5 105t137.5 39q55 0 102.5 -20.5t82.5 -55.5t55 -82.5t20 -102.5t-20 -102.5t-55 -83t-82.5 -55.5t-102.5 -20q-78 0 -137.5 39t-90.5 105v-333h-36v900zM345 477q-48 0 -89.5 -17.5t-71.5 -48t-47.5 -72t-17.5 -89.5t17 -89.5t47.5 -72t72 -48
t89.5 -17.5t89.5 17.5t71.5 48t47.5 72t17.5 89.5t-17.5 89t-48 72t-71.5 48.5t-89 17.5z" />
    <glyph glyph-name="ydieresis" unicode="&#xff;" horiz-adv-x="510" 
d="M53 500l216 -473l188 473h36l-217 -546q-28 -71 -76.5 -113t-106.5 -42q-3 0 -6 0.5t-6 0.5v33q3 0 6 -0.5t6 -0.5q47 0 85.5 35t63.5 95l10 22l-235 516h36zM348 578q-11 0 -19.5 8.5t-8.5 20.5q0 11 8.5 19.5t19.5 8.5q12 0 20.5 -8.5t8.5 -19.5q0 -12 -8.5 -20.5
t-20.5 -8.5zM150 607q0 11 8.5 19.5t19.5 8.5q12 0 20.5 -8.5t8.5 -19.5q0 -12 -8.5 -20.5t-20.5 -8.5q-11 0 -19.5 8.5t-8.5 20.5z" />
    <glyph glyph-name="Amacron" unicode="&#x100;" horiz-adv-x="629" 
d="M294 700h40l275 -700h-39l-72 185h-367l-72 -185h-39zM485 219l-171 438l-170 -438h341zM191 794v30h247v-30h-247z" />
    <glyph glyph-name="amacron" unicode="&#x101;" 
d="M47 250q0 54 20 102t55 83t82.5 55.5t102.5 20.5q76 0 137 -39.5t91 -105.5v134h35v-500h-35v134q-30 -66 -91 -105.5t-137 -39.5q-55 0 -102.5 20t-82.5 55.5t-55 83t-20 102.5zM308 477q-48 0 -89.5 -17.5t-71.5 -48t-47.5 -72t-17.5 -89.5q0 -95 65 -162
q64 -65 161 -65q48 0 89.5 17.5t72 48t48 72t17.5 89.5t-17.5 89t-48.5 72t-72 48.5t-89 17.5zM185 624h247v-30h-247v30z" />
    <glyph glyph-name="Abreve" unicode="&#x102;" horiz-adv-x="629" 
d="M20 0l274 700h40l275 -700h-39l-72 185h-367l-72 -185h-39zM485 219l-171 438l-170 -438h341zM314 769q-57 0 -92 30.5t-35 82.5h34q0 -39 25 -61t68 -22t68 22t25 61h34q0 -52 -34.5 -82.5t-92.5 -30.5z" />
    <glyph glyph-name="abreve" unicode="&#x103;" 
d="M47 250q0 54 20 102t55 83t82.5 55.5t102.5 20.5q76 0 137 -39.5t91 -105.5v134h35v-500h-35v134q-30 -66 -91 -105.5t-137 -39.5q-55 0 -102.5 20t-82.5 55.5t-55 83t-20 102.5zM82 250q0 -95 65 -162q64 -65 161 -65q48 0 89.5 17.5t72 48t48 72t17.5 89.5t-17.5 89
t-48.5 72t-72 48.5t-89 17.5t-89.5 -17.5t-71.5 -48t-47.5 -72t-17.5 -89.5zM334 569q-57 0 -92 30.5t-35 82.5h34q0 -39 25 -61t68 -22t68 22t25 61h34q0 -52 -34.5 -82.5t-92.5 -30.5z" />
    <glyph glyph-name="Aogonek" unicode="&#x104;" horiz-adv-x="629" 
d="M20 0l274 700h40l275 -700q-90 -77 -90 -137q0 -21 12.5 -32.5t33.5 -11.5q26 0 44 8v-29q-20 -9 -50 -9q-34 0 -54 19t-20 51q0 65 84 143l-71 183h-367l-72 -185h-39zM485 219l-171 438l-170 -438h341z" />
    <glyph glyph-name="aogonek" unicode="&#x105;" 
d="M307 -11q-55 0 -102.5 20t-82.5 55.5t-55 83t-20 102.5q0 54 20 102t55 83t82.5 55.5t102.5 20.5q76 0 137 -39.5t91 -105.5v134h35v-500q-90 -77 -90 -137q0 -21 12.5 -32.5t33.5 -11.5q23 0 44 8v-29q-21 -9 -50 -9q-34 0 -54 19t-20 51q0 66 89 149v126
q-30 -66 -91 -105.5t-137 -39.5zM308 477q-48 0 -89.5 -17.5t-71.5 -48t-47.5 -72t-17.5 -89.5q0 -95 65 -162q64 -65 161 -65q48 0 89.5 17.5t72 48t48 72t17.5 89.5t-17.5 89t-48.5 72t-72 48.5t-89 17.5z" />
    <glyph glyph-name="Cacute" unicode="&#x106;" horiz-adv-x="758" 
d="M53 350q0 78 27.5 144t76.5 114t115.5 75.5t143.5 27.5q45 0 88.5 -11t82.5 -32.5t71 -52t55 -69.5l-32 -19q-20 34 -48 61.5t-62 47t-73.5 30t-81.5 10.5q-70 0 -129.5 -25t-103 -68.5t-68.5 -103t-25 -129.5q0 -71 24.5 -130.5t68 -103t103 -68t130.5 -24.5
q84 0 155.5 39t111.5 114l33 -18q-21 -39 -52.5 -70t-70.5 -53.5t-84 -34.5t-93 -12q-77 0 -143.5 27.5t-115.5 75.5t-76.5 114t-27.5 144zM504 893l-88 -123h-33l80 123h41z" />
    <glyph glyph-name="cacute" unicode="&#x107;" horiz-adv-x="570" 
d="M308 -11q-56 0 -103.5 20t-82.5 55t-55 82.5t-20 103.5t20 103.5t55 82.5t82.5 55t103.5 20q73 0 132 -34t87 -91l-29 -17q-24 49 -75 78.5t-115 29.5q-48 0 -89.5 -17.5t-71.5 -48t-47.5 -72t-17.5 -89.5t17 -89.5t47.5 -72t72 -48t89.5 -17.5q64 0 114.5 29.5
t76.5 78.5l29 -17q-15 -29 -37.5 -52t-51 -39t-62 -25t-69.5 -9zM352 693h41l-88 -123h-33z" />
    <glyph glyph-name="Cdotaccent" unicode="&#x10a;" horiz-adv-x="758" 
d="M53 350q0 78 27.5 144t76.5 114t115.5 75.5t143.5 27.5q45 0 88.5 -11t82.5 -32.5t71 -52t55 -69.5l-32 -19q-20 34 -48 61.5t-62 47t-73.5 30t-81.5 10.5q-70 0 -129.5 -25t-103 -68.5t-68.5 -103t-25 -129.5q0 -71 24.5 -130.5t68 -103t103 -68t130.5 -24.5
q84 0 155.5 39t111.5 114l33 -18q-21 -39 -52.5 -70t-70.5 -53.5t-84 -34.5t-93 -12q-77 0 -143.5 27.5t-115.5 75.5t-76.5 114t-27.5 144zM413 777q-17 0 -25.5 12t-8.5 26t8.5 26t25.5 12h3h3q18 0 26.5 -12t8.5 -26t-8.5 -26t-26.5 -12h-3h-3z" />
    <glyph glyph-name="cdotaccent" unicode="&#x10b;" horiz-adv-x="570" 
d="M308 -11q-56 0 -103.5 20t-82.5 55t-55 82.5t-20 103.5t20 103.5t55 82.5t82.5 55t103.5 20q73 0 132 -34t87 -91l-29 -17q-24 49 -75 78.5t-115 29.5q-48 0 -89.5 -17.5t-71.5 -48t-47.5 -72t-17.5 -89.5t17 -89.5t47.5 -72t72 -48t89.5 -17.5q64 0 114.5 29.5
t76.5 78.5l29 -17q-15 -29 -37.5 -52t-51 -39t-62 -25t-69.5 -9zM302 577q-17 0 -25.5 12t-8.5 26t8.5 26t25.5 12h3h3q18 0 26.5 -12t8.5 -26t-8.5 -26t-26.5 -12h-3h-3z" />
    <glyph glyph-name="Ccaron" unicode="&#x10c;" horiz-adv-x="758" 
d="M53 350q0 78 27.5 144t76.5 114t115.5 75.5t143.5 27.5q45 0 88.5 -11t82.5 -32.5t71 -52t55 -69.5l-32 -19q-20 34 -48 61.5t-62 47t-73.5 30t-81.5 10.5q-70 0 -129.5 -25t-103 -68.5t-68.5 -103t-25 -129.5q0 -71 24.5 -130.5t68 -103t103 -68t130.5 -24.5
q84 0 155.5 39t111.5 114l33 -18q-21 -39 -52.5 -70t-70.5 -53.5t-84 -34.5t-93 -12q-77 0 -143.5 27.5t-115.5 75.5t-76.5 114t-27.5 144zM285 893h39l91 -102l91 102h39l-110 -123h-40z" />
    <glyph glyph-name="ccaron" unicode="&#x10d;" horiz-adv-x="570" 
d="M47 250q0 56 20 103.5t55 82.5t82.5 55t103.5 20q73 0 132 -34t87 -91l-29 -17q-24 49 -75 78.5t-115 29.5q-48 0 -89.5 -17.5t-71.5 -48t-47.5 -72t-17.5 -89.5t17 -89.5t47.5 -72t72 -48t89.5 -17.5q64 0 114.5 29.5t76.5 78.5l29 -17q-15 -29 -37.5 -52t-51 -39
t-62 -25t-69.5 -9q-56 0 -103.5 20t-82.5 55t-55 82.5t-20 103.5zM174 693h39l91 -102l91 102h39l-110 -123h-40z" />
    <glyph glyph-name="Dcaron" unicode="&#x10e;" horiz-adv-x="733" 
d="M350 700q73 0 134 -28t104.5 -76t67.5 -111.5t24 -134.5q0 -72 -24 -135.5t-67.5 -111t-104 -75.5t-134.5 -28h-257v700h257zM350 34q67 0 121.5 25t92.5 68.5t59 100.5t21 122q0 64 -21 121.5t-59.5 100.5t-93 68.5t-120.5 25.5h-220v-632h220zM219 893h39l91 -102
l91 102h39l-110 -123h-40z" />
    <glyph glyph-name="dcaron" unicode="&#x10f;" horiz-adv-x="691" 
d="M306 -11q-55 0 -102.5 20t-82.5 55.5t-55 83t-20 102.5q0 54 20 102t55 83t82.5 55.5t102.5 20.5q78 0 137.5 -39t90.5 -105v333h36v-700h-36v133q-31 -66 -90.5 -105t-137.5 -39zM147 411q-65 -65 -65 -161q0 -48 17 -89.5t47.5 -72t72 -48t89.5 -17.5t89.5 17.5
t71.5 48t47.5 72t17.5 89.5t-17.5 89t-48 72t-71.5 48.5t-89 17.5q-95 0 -161 -66zM649 530l10 170h36l-20 -170h-26z" />
    <glyph glyph-name="Dcroat" unicode="&#x110;" horiz-adv-x="753" 
d="M52 331v32h61v337h257q73 0 134 -28t104.5 -76t67.5 -111.5t24 -134.5q0 -72 -24 -135.5t-67.5 -111t-104 -75.5t-134.5 -28h-257v331h-61zM150 331v-297h220q67 0 121.5 25t92.5 68.5t59 100.5t21 122q0 64 -21 121.5t-59.5 100.5t-93 68.5t-120.5 25.5h-220v-303h204
v-32h-204z" />
    <glyph glyph-name="dcroat" unicode="&#x111;" horiz-adv-x="659" 
d="M47 250q0 54 20 102t55 83t82.5 55.5t102.5 20.5q78 0 138 -40t90 -106v224h-219v29h219v82h35v-82h66v-29h-66v-589h-35v135q-30 -66 -90 -106t-138 -40q-55 0 -102.5 20t-82.5 55.5t-55 83t-20 102.5zM308 477q-48 0 -89.5 -17.5t-71.5 -48t-47.5 -72t-17.5 -89.5
q0 -95 65 -162q64 -65 161 -65q48 0 89.5 17.5t72 48t48 72t17.5 89.5t-17.5 89t-48.5 72t-72 48.5t-89 17.5z" />
    <glyph glyph-name="Emacron" unicode="&#x112;" horiz-adv-x="537" 
d="M93 700h392v-34h-355v-296h330v-34h-330v-302h360v-34h-397v700zM413 824v-30h-247v30h247z" />
    <glyph glyph-name="emacron" unicode="&#x113;" horiz-adv-x="594" 
d="M307 -11q-58 0 -105.5 19.5t-82 54t-53.5 82.5t-19 105q0 55 18.5 103t52.5 83t81 55t103 20q55 0 100.5 -21t78 -57t50.5 -84t18 -101q0 -14 -1 -17h-465q3 -47 21 -85.5t47.5 -65.5t69 -42t86.5 -15q63 0 111.5 26t72.5 71l31 -18q-30 -52 -86.5 -82.5t-128.5 -30.5z
M513 264q-3 44 -19 83t-43 68t-65 45.5t-84 16.5q-47 0 -86.5 -16t-68.5 -44t-46 -67.5t-19 -85.5h431zM173 594v30h247v-30h-247z" />
    <glyph glyph-name="Edotaccent" unicode="&#x116;" horiz-adv-x="537" 
d="M93 700h392v-34h-355v-296h330v-34h-330v-302h360v-34h-397v700zM286 777q-17 0 -25.5 12t-8.5 26t8.5 26t25.5 12h3h3q18 0 26.5 -12t8.5 -26t-8.5 -26t-26.5 -12h-3h-3z" />
    <glyph glyph-name="edotaccent" unicode="&#x117;" horiz-adv-x="594" 
d="M307 -11q-58 0 -105.5 19.5t-82 54t-53.5 82.5t-19 105q0 55 18.5 103t52.5 83t81 55t103 20q55 0 100.5 -21t78 -57t50.5 -84t18 -101q0 -14 -1 -17h-465q3 -47 21 -85.5t47.5 -65.5t69 -42t86.5 -15q63 0 111.5 26t72.5 71l31 -18q-30 -52 -86.5 -82.5t-128.5 -30.5z
M302 477q-47 0 -86.5 -16t-68.5 -44t-46 -67.5t-19 -85.5h431q-3 44 -19 83t-43 68t-65 45.5t-84 16.5zM293 577q-17 0 -25.5 12t-8.5 26t8.5 26t25.5 12h3h3q18 0 26.5 -12t8.5 -26t-8.5 -26t-26.5 -12h-3h-3z" />
    <glyph glyph-name="Eogonek" unicode="&#x118;" horiz-adv-x="538" 
d="M93 700h392v-34h-355v-296h330v-34h-330v-302h360v-34h1q-90 -77 -90 -137q0 -21 13 -32.5t34 -11.5q23 0 44 8v-29q-21 -9 -50 -9q-35 0 -55 19t-20 51q0 66 85 141h-359v700z" />
    <glyph glyph-name="eogonek" unicode="&#x119;" horiz-adv-x="594" 
d="M307 -11q-58 0 -105.5 19.5t-82 54t-53.5 82.5t-19 105q0 55 18.5 103t52.5 83t81 55t103 20q55 0 100.5 -21t78 -57t50.5 -84t18 -101q0 -14 -1 -17h-465q3 -47 21 -85.5t47.5 -65.5t69 -42t86.5 -15q63 0 111.5 26t72.5 71l31 -18q-13 -23 -36 -46q-38 -42 -63.5 -72.5
t-39.5 -50.5q-28 -40 -28 -70q0 -21 13 -32.5t34 -11.5q23 0 44 8v-29q-21 -9 -49 -9q-36 0 -56 19t-20 51q0 59 85 147q-48 -17 -99 -17zM513 264q-3 44 -19 83t-43 68t-65 45.5t-84 16.5q-47 0 -86.5 -16t-68.5 -44t-46 -67.5t-19 -85.5h431z" />
    <glyph glyph-name="Ecaron" unicode="&#x11a;" horiz-adv-x="537" 
d="M93 700h392v-34h-355v-296h330v-34h-330v-302h360v-34h-397v700zM158 893h39l91 -102l91 102h39l-110 -123h-40z" />
    <glyph glyph-name="ecaron" unicode="&#x11b;" horiz-adv-x="594" 
d="M307 -11q-58 0 -105.5 19.5t-82 54t-53.5 82.5t-19 105q0 55 18.5 103t52.5 83t81 55t103 20q55 0 100.5 -21t78 -57t50.5 -84t18 -101q0 -14 -1 -17h-465q3 -47 21 -85.5t47.5 -65.5t69 -42t86.5 -15q63 0 111.5 26t72.5 71l31 -18q-30 -52 -86.5 -82.5t-128.5 -30.5z
M513 264q-3 44 -19 83t-43 68t-65 45.5t-84 16.5q-47 0 -86.5 -16t-68.5 -44t-46 -67.5t-19 -85.5h431zM204 693l91 -102l91 102h39l-110 -123h-40l-110 123h39z" />
    <glyph glyph-name="Gbreve" unicode="&#x11e;" horiz-adv-x="810" 
d="M53 350q0 78 27.5 144t76.5 114t115.5 75.5t143.5 27.5q45 0 89 -11t82.5 -32.5t71 -53t55.5 -71.5l-32 -18q-19 34 -47 62t-62.5 48t-74.5 30.5t-82 10.5q-70 0 -129.5 -25t-103 -68.5t-68.5 -103t-25 -129.5q0 -138 93 -232q47 -48 106.5 -71t132.5 -23q59 0 112 18
t93 51.5t65 82t28 110.5h-314v34h350v-19q0 -130 -92 -222q-90 -90 -242 -90q-78 0 -145.5 26.5t-117 74.5t-78 114t-28.5 146zM318 882q0 -39 25 -61t68 -22t68 22t25 61h34q0 -52 -34.5 -82.5t-92.5 -30.5q-57 0 -92 30.5t-35 82.5h34z" />
    <glyph glyph-name="gbreve" unicode="&#x11f;" horiz-adv-x="660" 
d="M313 -11q-55 0 -102.5 20t-82.5 55.5t-55 83t-20 102.5q0 54 20 102t55 83t82.5 55.5t102.5 20.5q78 0 137.5 -39t90.5 -105v133h36v-473q0 -56 -18 -100.5t-51 -75t-78.5 -46.5t-100.5 -16q-87 0 -147.5 33t-86.5 87l30 17q21 -45 72 -74t132 -29q100 0 156 55t56 149
v106q-31 -66 -90.5 -105t-137.5 -39zM89 250q0 -48 17 -89.5t47.5 -72t72 -48t89.5 -17.5t89.5 17.5t71.5 48t47.5 72t17.5 89.5t-17.5 89t-48 72t-71.5 48.5t-89 17.5q-95 0 -161 -66q-65 -65 -65 -161zM228 682q0 -39 25 -61t68 -22t68 22t25 61h34q0 -52 -34.5 -82.5
t-92.5 -30.5q-57 0 -92 30.5t-35 82.5h34z" />
    <glyph glyph-name="Gdotaccent" unicode="&#x120;" horiz-adv-x="810" 
d="M53 350q0 78 27.5 144t76.5 114t115.5 75.5t143.5 27.5q45 0 89 -11t82.5 -32.5t71 -53t55.5 -71.5l-32 -18q-19 34 -47 62t-62.5 48t-74.5 30.5t-82 10.5q-70 0 -129.5 -25t-103 -68.5t-68.5 -103t-25 -129.5q0 -138 93 -232q47 -48 106.5 -71t132.5 -23q59 0 112 18
t93 51.5t65 82t28 110.5h-314v34h350v-19q0 -130 -92 -222q-90 -90 -242 -90q-78 0 -145.5 26.5t-117 74.5t-78 114t-28.5 146zM408 777q-17 0 -25.5 12t-8.5 26t8.5 26t25.5 12h3h3q18 0 26.5 -12t8.5 -26t-8.5 -26t-26.5 -12h-3h-3z" />
    <glyph glyph-name="gdotaccent" unicode="&#x121;" horiz-adv-x="660" 
d="M53 250q0 54 20 102t55 83t82.5 55.5t102.5 20.5q78 0 137.5 -39t90.5 -105v133h36v-473q0 -56 -18 -100.5t-51 -75t-78.5 -46.5t-100.5 -16q-87 0 -147.5 33t-86.5 87l30 17q21 -45 72 -74t132 -29q100 0 156 55t56 149v106q-31 -66 -90.5 -105t-137.5 -39
q-55 0 -102.5 20t-82.5 55.5t-55 83t-20 102.5zM89 250q0 -48 17 -89.5t47.5 -72t72 -48t89.5 -17.5t89.5 17.5t71.5 48t47.5 72t17.5 89.5t-17.5 89t-48 72t-71.5 48.5t-89 17.5q-95 0 -161 -66q-65 -65 -65 -161zM318 577q-17 0 -25.5 12t-8.5 26t8.5 26t25.5 12h3h3
q18 0 26.5 -12t8.5 -26t-8.5 -26t-26.5 -12h-3h-3z" />
    <glyph glyph-name="uni0122" unicode="&#x122;" horiz-adv-x="810" 
d="M422 -11q-78 0 -145.5 26.5t-117 74.5t-78 114t-28.5 146q0 78 27.5 144t76.5 114t115.5 75.5t143.5 27.5q45 0 89 -11t82.5 -32.5t71 -53t55.5 -71.5l-32 -18q-19 34 -47 62t-62.5 48t-74.5 30.5t-82 10.5q-70 0 -129.5 -25t-103 -68.5t-68.5 -103t-25 -129.5
q0 -138 93 -232q47 -48 106.5 -71t132.5 -23q59 0 112 18t93 51.5t65 82t28 110.5h-314v34h350v-19q0 -130 -92 -222q-90 -90 -242 -90zM413 -70h35l-19 -170h-26z" />
    <glyph glyph-name="uni0123" unicode="&#x123;" horiz-adv-x="660" 
d="M53 250q0 54 20 102t55 83t82.5 55.5t102.5 20.5q78 0 137.5 -39t90.5 -105v133h36v-473q0 -56 -18 -100.5t-51 -75t-78.5 -46.5t-100.5 -16q-87 0 -147.5 33t-86.5 87l30 17q21 -45 72 -74t132 -29q100 0 156 55t56 149v106q-31 -66 -90.5 -105t-137.5 -39
q-55 0 -102.5 20t-82.5 55.5t-55 83t-20 102.5zM154 411q-65 -65 -65 -161q0 -48 17 -89.5t47.5 -72t72 -48t89.5 -17.5t89.5 17.5t71.5 48t47.5 72t17.5 89.5t-17.5 89t-48 72t-71.5 48.5t-89 17.5q-95 0 -161 -66zM314 760h26l-10 -170h-35z" />
    <glyph glyph-name="Hbar" unicode="&#x126;" horiz-adv-x="750" 
d="M53 525v30h69v145h36v-145h434v145h36v-145h69v-30h-69v-525h-36v343h-434v-343h-36v525h-69zM158 525v-148h434v148h-434z" />
    <glyph glyph-name="hbar" unicode="&#x127;" horiz-adv-x="586" 
d="M100 618v82h35v-82h168v-29h-168v-202q26 61 75 92.5t115 31.5q44 0 79.5 -14.5t60.5 -40.5t38.5 -62.5t13.5 -79.5v-314h-36v314q0 73 -42 118t-117 45q-42 0 -76 -14.5t-59 -41.5t-38.5 -66.5t-13.5 -88.5v-266h-35v589h-77v29h77z" />
    <glyph glyph-name="Itilde" unicode="&#x128;" horiz-adv-x="223" 
d="M93 700h37v-700h-37v700zM-20 787q0 16 2.5 33.5t10 31.5t20 23.5t32.5 9.5q33 0 71 -37q36 -35 62 -35q35 0 35 66h31q0 -16 -2.5 -33t-10 -31.5t-20 -24t-31.5 -9.5q-33 0 -71 37q-19 18 -35 26.5t-28 8.5q-35 0 -35 -66h-31z" />
    <glyph glyph-name="itilde" unicode="&#x129;" horiz-adv-x="202" 
d="M83 0v500h36v-500h-36zM-13 587q0 14 2 31t8 32t17 25t30 10q31 0 62 -37q29 -35 50 -35q29 0 29 66h28q0 -14 -2 -31t-8 -32t-17 -25t-29 -10q-15 0 -31.5 9t-31.5 28q-30 36 -50 36q-28 0 -28 -67h-29z" />
    <glyph glyph-name="Imacron" unicode="&#x12a;" horiz-adv-x="223" 
d="M-11 794v30h247v-30h-247zM93 700h37v-700h-37v700z" />
    <glyph glyph-name="imacron" unicode="&#x12b;" horiz-adv-x="202" 
d="M14 594v30h174v-30h-174zM83 0v500h36v-500h-36z" />
    <glyph glyph-name="Iogonek" unicode="&#x12e;" horiz-adv-x="223" 
d="M122 -211q-35 0 -55 19t-20 51q0 55 46 141v700h37v-700l-19 -37q-12 -23 -21.5 -48.5t-9.5 -51.5q0 -21 13 -32.5t35 -11.5q23 0 44 8v-29q-23 -9 -50 -9z" />
    <glyph glyph-name="iogonek" unicode="&#x12f;" horiz-adv-x="202" 
d="M112 -211q-34 0 -54.5 21.5t-20.5 54.5q0 55 46 140v495h36v-500q-26 -47 -37.5 -74.5t-11.5 -56.5q0 -21 13.5 -35.5t34.5 -14.5q23 0 44 8v-29q-23 -9 -50 -9zM101 636q-13 0 -22 9.5t-9 21.5q0 16 10 23.5t21 7.5q12 0 21.5 -7.5t9.5 -23.5q0 -12 -9 -21.5t-22 -9.5z
" />
    <glyph glyph-name="Idotaccent" unicode="&#x130;" horiz-adv-x="223" 
d="M130 700v-700h-37v700h37zM109 777q-17 0 -25.5 12t-8.5 26t8.5 26t25.5 12h3h3q18 0 26.5 -12t8.5 -26t-8.5 -26t-26.5 -12h-3h-3z" />
    <glyph glyph-name="dotlessi" unicode="&#x131;" horiz-adv-x="202" 
d="M83 0v500h36v-500h-36z" />
    <glyph glyph-name="uni0136" unicode="&#x136;" horiz-adv-x="563" 
d="M170 360l383 -360h-48l-375 350v-350h-37v700h37v-330l365 330h48zM288 -240l10 170h35l-19 -170h-26z" />
    <glyph glyph-name="uni0137" unicode="&#x137;" horiz-adv-x="472" 
d="M83 700h36v-430l268 230h48l-279 -240l289 -260h-48l-278 249v-249h-36v700zM232 -240l10 170h35l-19 -170h-26z" />
    <glyph glyph-name="Lacute" unicode="&#x139;" horiz-adv-x="497" 
d="M213 893l-88 -123h-33l80 123h41zM130 34h340v-34h-377v700h37v-666z" />
    <glyph glyph-name="lacute" unicode="&#x13a;" horiz-adv-x="202" 
d="M164 893h41l-88 -123h-33zM119 0v730h-36v-730h36z" />
    <glyph glyph-name="uni013B" unicode="&#x13b;" horiz-adv-x="497" 
d="M130 34h340v-34h-377v700h37v-666zM259 -240l10 170h35l-19 -170h-26z" />
    <glyph glyph-name="uni013C" unicode="&#x13c;" horiz-adv-x="202" 
d="M83 0v730h36v-730h-36zM74 -240l10 170h35l-19 -170h-26z" />
    <glyph glyph-name="Lcaron" unicode="&#x13d;" horiz-adv-x="497" 
d="M93 0v700h37v-666h340v-34h-377zM279 700h36l-20 -170h-26z" />
    <glyph glyph-name="lcaron" unicode="&#x13e;" horiz-adv-x="241" 
d="M83 0v730h36v-730h-36zM209 730h36l-20 -170h-26z" />
    <glyph glyph-name="Lslash" unicode="&#x141;" horiz-adv-x="510" 
d="M106 289v411h37v-389l197 116v-34l-197 -116v-243h340v-34h-377v255l-59 -35v34z" />
    <glyph glyph-name="lslash" unicode="&#x142;" horiz-adv-x="240" 
d="M220 447v-35l-82 -56v-356h-36v331l-82 -56v35l82 56v364h36v-339z" />
    <glyph glyph-name="Nacute" unicode="&#x143;" horiz-adv-x="693" 
d="M127 700l436 -634v634h37v-700h-33l-437 634v-634h-37v700h34zM387 893h41l-88 -123h-33z" />
    <glyph glyph-name="nacute" unicode="&#x144;" horiz-adv-x="569" 
d="M83 0v500h36v-111q26 61 75.5 91.5t113.5 30.5q44 0 79.5 -14.5t60.5 -40.5t38.5 -62.5t13.5 -79.5v-314h-35v314q0 73 -42.5 118t-117.5 45q-41 0 -75 -14.5t-59 -41.5t-38.5 -66.5t-13.5 -88.5v-266h-36zM340 693h41l-88 -123h-33z" />
    <glyph glyph-name="uni0145" unicode="&#x145;" horiz-adv-x="693" 
d="M93 700h34l436 -634v634h37v-700h-33l-437 634v-634h-37v700zM324 -70h35l-19 -170h-26z" />
    <glyph glyph-name="uni0146" unicode="&#x146;" horiz-adv-x="569" 
d="M83 0v500h36v-111q26 61 75.5 91.5t113.5 30.5q44 0 79.5 -14.5t60.5 -40.5t38.5 -62.5t13.5 -79.5v-314h-35v314q0 73 -42.5 118t-117.5 45q-41 0 -75 -14.5t-59 -41.5t-38.5 -66.5t-13.5 -88.5v-266h-36zM280 -70h35l-19 -170h-26z" />
    <glyph glyph-name="Ncaron" unicode="&#x147;" horiz-adv-x="693" 
d="M93 0v700h34l436 -634v634h37v-700h-33l-437 634v-634h-37zM209 893h39l91 -102l91 102h39l-110 -123h-40z" />
    <glyph glyph-name="ncaron" unicode="&#x148;" horiz-adv-x="569" 
d="M119 500v-111q26 61 75.5 91.5t113.5 30.5q44 0 79.5 -14.5t60.5 -40.5t38.5 -62.5t13.5 -79.5v-314h-35v314q0 73 -42.5 118t-117.5 45q-41 0 -75 -14.5t-59 -41.5t-38.5 -66.5t-13.5 -88.5v-266h-36v500h36zM162 693h39l91 -102l91 102h39l-110 -123h-40z" />
    <glyph glyph-name="Eng" unicode="&#x14a;" horiz-adv-x="693" 
d="M93 700h34l436 -634v634h37v-700q0 -200 -200 -200v35q83 0 123 37.5t40 127.5v6l-433 628v-634h-37v700z" />
    <glyph glyph-name="eng" unicode="&#x14b;" horiz-adv-x="569" 
d="M83 500h36v-111q26 61 75.5 91.5t113.5 30.5q44 0 79.5 -14.5t60.5 -40.5t38.5 -62.5t13.5 -79.5v-387q0 -67 -33.5 -103t-97.5 -36h-11t-11 1v34q6 -1 12 -1h11q95 0 95 105v387q0 73 -42.5 118t-117.5 45q-41 0 -75 -14.5t-59 -41.5t-38.5 -66.5t-13.5 -88.5v-266h-36
v500z" />
    <glyph glyph-name="Omacron" unicode="&#x14c;" horiz-adv-x="828" 
d="M414 -11q-76 0 -142 28t-114.5 76.5t-76.5 114.5t-28 142q0 75 28 141t77 115t115 77t141 28t141 -28.5t114.5 -77t77 -114.5t28.5 -141t-28 -141t-77 -115t-115 -77t-141 -28zM90 350q0 -68 25 -127.5t68.5 -103.5t102.5 -69.5t128 -25.5q68 0 127.5 25.5t103 69.5
t68.5 103.5t25 127.5q0 67 -25.5 126.5t-69 104t-103 70t-126.5 25.5q-68 0 -127.5 -25.5t-103 -69.5t-68.5 -103.5t-25 -127.5zM291 824h247v-30h-247v30z" />
    <glyph glyph-name="omacron" unicode="&#x14d;" horiz-adv-x="617" 
d="M47 250q0 55 20 102.5t55.5 82.5t83 55.5t102.5 20.5t103 -20t83 -55.5t55.5 -83t20.5 -102.5q0 -56 -20 -103.5t-55.5 -82.5t-83.5 -55t-103 -20q-56 0 -103.5 20t-82.5 55.5t-55 83t-20 102.5zM82 250q0 -48 17 -89.5t47.5 -72t72 -48t89.5 -17.5t89.5 17.5t72 48
t48 72t17.5 89.5t-17.5 89t-48.5 72t-72 48.5t-89 17.5t-89.5 -17.5t-71.5 -48t-47.5 -72t-17.5 -89.5zM180 624h247v-30h-247v30z" />
    <glyph glyph-name="Ohungarumlaut" unicode="&#x150;" horiz-adv-x="828" 
d="M414 -11q-76 0 -142 28t-114.5 76.5t-76.5 114.5t-28 142q0 75 28 141t77 115t115 77t141 28t141 -28.5t114.5 -77t77 -114.5t28.5 -141t-28 -141t-77 -115t-115 -77t-141 -28zM90 350q0 -68 25 -127.5t68.5 -103.5t102.5 -69.5t128 -25.5q68 0 127.5 25.5t103 69.5
t68.5 103.5t25 127.5q0 67 -25.5 126.5t-69 104t-103 70t-126.5 25.5q-68 0 -127.5 -25.5t-103 -69.5t-68.5 -103.5t-25 -127.5zM556 900l-85 -130h-34l80 130h39zM367 900h39l-75 -130h-34z" />
    <glyph glyph-name="ohungarumlaut" unicode="&#x151;" horiz-adv-x="617" 
d="M47 250q0 110 76 185q39 38 84.5 57t100.5 19t103 -20t83 -55.5t55.5 -83t20.5 -102.5q0 -56 -20 -103.5t-55.5 -82.5t-83.5 -55t-103 -20q-56 0 -103.5 20t-82.5 55.5t-55 83t-20 102.5zM308 477q-48 0 -89.5 -17.5t-71.5 -48t-47.5 -72t-17.5 -89.5t17 -89.5t47.5 -72
t72 -48t89.5 -17.5t89.5 17.5t72 48t48 72t17.5 89.5t-17.5 89t-48.5 72t-72 48.5t-89 17.5zM406 700h39l-85 -130h-34zM256 700h39l-75 -130h-34z" />
    <glyph glyph-name="OE" unicode="&#x152;" horiz-adv-x="909" 
d="M53 350q0 76 26 141.5t72.5 114.5t111 77t141.5 28q49 0 95 -11h358v-34h-321v-296h300v-34h-300v-302h326v-34h-363q-46 -11 -95 -11q-78 0 -142.5 28t-111 76.5t-72 114.5t-25.5 142zM90 350q0 -69 23 -128.5t64 -103.5t99 -69t128 -25q53 0 95 12v628q-42 12 -95 12
q-70 0 -128 -25t-99 -69t-64 -103.5t-23 -128.5z" />
    <glyph glyph-name="oe" unicode="&#x153;" horiz-adv-x="1079" 
d="M308 -11q-56 0 -103.5 20t-82.5 55t-55 82.5t-20 103.5q0 55 20 103t55 83t82.5 55t103.5 20q42 0 80 -12.5t69.5 -35.5t55 -55t36.5 -72q25 79 88 127t151 48q55 0 100 -21t77.5 -57t50.5 -84t18 -101l-1 -17h-465q3 -47 20.5 -85.5t47 -65.5t69.5 -42t87 -15
q63 0 111.5 26t72.5 71l31 -18q-31 -52 -87 -82.5t-128 -30.5q-44 0 -83 12.5t-70.5 35t-54.5 55t-35 72.5q-13 -41 -36.5 -73t-54.5 -55t-69 -35t-81 -12zM82 250q0 -48 17 -89.5t47.5 -72t72 -48t89.5 -17.5t89 17.5t71 48t46.5 72t16.5 89.5t-17 89t-46.5 72t-70.5 48.5
t-89 17.5t-89.5 -17.5t-71.5 -48t-47.5 -72t-17.5 -89.5zM787 477q-47 0 -86.5 -16t-68.5 -44t-46 -67.5t-19 -85.5h431q-3 44 -19 83t-43 68t-65 45.5t-84 16.5z" />
    <glyph glyph-name="Racute" unicode="&#x154;" horiz-adv-x="617" 
d="M93 0v700h274q42 0 78.5 -16t64.5 -44t44 -64.5t16 -78.5q0 -36 -11.5 -68.5t-32 -58.5t-49.5 -45t-63 -27l176 -298h-41l-173 293h-246v-293h-37zM130 666v-339h237q35 0 65 13.5t52.5 37t35.5 54t13 65.5q0 34 -13 65t-35.5 54t-52.5 36.5t-65 13.5h-237zM364 893h41
l-88 -123h-33z" />
    <glyph glyph-name="racute" unicode="&#x155;" horiz-adv-x="321" 
d="M83 500h36v-113q22 61 70 90.5t106 29.5v-34q-74 0 -125 -51t-51 -144v-278h-36v500zM156 570l80 123h41l-88 -123h-33z" />
    <glyph glyph-name="uni0156" unicode="&#x156;" horiz-adv-x="617" 
d="M93 700h274q42 0 78.5 -16t64.5 -44t44 -64.5t16 -78.5q0 -36 -11.5 -68.5t-32 -58.5t-49.5 -45t-63 -27l176 -298h-41l-173 293h-246v-293h-37v700zM130 327h237q35 0 65 13.5t52.5 37t35.5 54t13 65.5q0 34 -13 65t-35.5 54t-52.5 36.5t-65 13.5h-237v-339zM321 -70h35
l-19 -170h-26z" />
    <glyph glyph-name="uni0157" unicode="&#x157;" horiz-adv-x="321" 
d="M83 0v500h36v-113q22 61 70 90.5t106 29.5v-34q-74 0 -125 -51t-51 -144v-278h-36zM74 -240l10 170h35l-19 -170h-26z" />
    <glyph glyph-name="Rcaron" unicode="&#x158;" horiz-adv-x="617" 
d="M367 700q42 0 78.5 -16t64.5 -44t44 -64.5t16 -78.5q0 -36 -11.5 -68.5t-32 -58.5t-49.5 -45t-63 -27l176 -298h-41l-173 293h-246v-293h-37v700h274zM367 327q35 0 65 13.5t52.5 37t35.5 54t13 65.5q0 34 -13 65t-35.5 54t-52.5 36.5t-65 13.5h-237v-339h237zM225 893
l91 -102l91 102h39l-110 -123h-40l-110 123h39z" />
    <glyph glyph-name="rcaron" unicode="&#x159;" horiz-adv-x="321" 
d="M119 500v-113q22 61 70 90.5t106 29.5v-34q-74 0 -125 -51t-51 -144v-278h-36v500h36zM58 693h39l91 -102l91 102h39l-110 -123h-40z" />
    <glyph glyph-name="Sacute" unicode="&#x15a;" horiz-adv-x="572" 
d="M81 167q19 -66 76 -104.5t145 -38.5q91 0 139 43t48 110q0 31 -12 54.5t-36 42t-60 34t-84 30.5l-70 22q-32 13 -58 26t-45.5 31t-31 44t-13.5 65q0 44 17.5 78.5t46.5 58t66.5 36t78.5 12.5q81 0 136 -40.5t81 -104.5l-30 -17q-49 127 -187 127q-34 0 -65 -9.5
t-55 -28.5t-38.5 -47t-14.5 -64q0 -33 12.5 -58t43.5 -42q32 -19 64.5 -31t67.5 -24q21 -7 38 -13t32 -12t29.5 -12.5t30.5 -15.5q46 -24 67.5 -56.5t24.5 -84.5q0 -42 -15.5 -77t-45 -60t-71 -38.5t-92.5 -13.5q-97 0 -162.5 44t-88.5 116zM325 893h41l-88 -123h-33z" />
    <glyph glyph-name="sacute" unicode="&#x15b;" horiz-adv-x="461" 
d="M79 115q32 -92 159 -92q61 0 101 29.5t40 78.5q0 41 -32.5 64t-78.5 33q-33 8 -69 16.5t-66 23.5t-49 39t-19 63q0 35 14.5 61.5t38 44t54 26.5t62.5 9q60 0 103 -26.5t62 -71.5l-29 -17q-16 39 -52 60t-84 21q-58 0 -95.5 -29.5t-37.5 -77.5q0 -20 9 -35.5t24 -27
t35 -19.5t43 -14q33 -7 69 -15.5t66 -23.5t49 -40t19 -64q0 -36 -15.5 -62.5t-41 -44.5t-57 -26.5t-63.5 -8.5q-148 0 -188 109zM197 570l80 123h41l-88 -123h-33z" />
    <glyph glyph-name="Scedilla" unicode="&#x15e;" horiz-adv-x="572" 
d="M273 -10q-85 7 -143.5 50t-79.5 109l31 18q19 -66 76 -104.5t145 -38.5q91 0 139 43t48 110q0 31 -12 54.5t-36 42t-60 34t-84 30.5l-70 22q-32 13 -58 26t-45.5 31t-31 44t-13.5 65q0 44 17.5 78.5t46.5 58t66.5 36t78.5 12.5q81 0 136 -40.5t81 -104.5l-30 -17
q-49 127 -187 127q-34 0 -65 -9.5t-55 -28.5t-38.5 -47t-14.5 -64q0 -33 12.5 -58t43.5 -42q32 -19 64.5 -31t67.5 -24q21 -7 38 -13t32 -12t29.5 -12.5t30.5 -15.5q46 -24 67.5 -56.5t24.5 -84.5q0 -42 -15.5 -76.5t-44.5 -59.5t-69.5 -39t-91.5 -14v-57q37 0 63.5 -18
t26.5 -49q0 -34 -32.5 -54.5t-101.5 -20.5q-24 0 -51 3v29q17 -2 31 -3t27 -1q95 0 95 47q0 43 -75 43h-14v82v0z" />
    <glyph glyph-name="scedilla" unicode="&#x15f;" horiz-adv-x="461" 
d="M79 115q32 -92 159 -92q61 0 101 29.5t40 78.5q0 41 -32.5 64t-78.5 33q-33 8 -69 16.5t-66 23.5t-49 39t-19 63q0 35 14.5 61.5t38 44t54 26.5t62.5 9q60 0 103 -26.5t62 -71.5l-29 -17q-16 39 -52 60t-84 21q-58 0 -95.5 -29.5t-37.5 -77.5q0 -20 9 -35.5t24 -27
t35 -19.5t43 -14q33 -7 69 -15.5t66 -23.5t49 -40t19 -64q0 -29 -11.5 -53.5t-32.5 -43.5t-50.5 -30.5t-65.5 -13.5v-58q37 0 63.5 -18t26.5 -49q0 -34 -32.5 -54.5t-101.5 -20.5q-24 0 -51 3v29q17 -2 31 -3t27 -1q95 0 95 47q0 43 -75 43h-14v81q-137 6 -174 109z" />
    <glyph glyph-name="Scaron" unicode="&#x160;" horiz-adv-x="572" 
d="M301 -11q-97 0 -162.5 44t-88.5 116l31 18q19 -66 76 -104.5t145 -38.5q91 0 139 43t48 110q0 31 -12 54.5t-36 42t-60 34t-84 30.5l-70 22q-32 13 -58 26t-45.5 31t-31 44t-13.5 65q0 44 17.5 78.5t46.5 58t66.5 36t78.5 12.5q81 0 136 -40.5t81 -104.5l-30 -17
q-49 127 -187 127q-34 0 -65 -9.5t-55 -28.5t-38.5 -47t-14.5 -64q0 -33 12.5 -58t43.5 -42q32 -19 64.5 -31t67.5 -24q21 -7 38 -13t32 -12t29.5 -12.5t30.5 -15.5q46 -24 67.5 -56.5t24.5 -84.5q0 -42 -15.5 -77t-45 -60t-71 -38.5t-92.5 -13.5zM147 893h39l91 -102
l91 102h39l-110 -123h-40z" />
    <glyph glyph-name="scaron" unicode="&#x161;" horiz-adv-x="461" 
d="M79 115q32 -92 159 -92q61 0 101 29.5t40 78.5q0 41 -32.5 64t-78.5 33q-33 8 -69 16.5t-66 23.5t-49 39t-19 63q0 35 14.5 61.5t38 44t54 26.5t62.5 9q60 0 103 -26.5t62 -71.5l-29 -17q-16 39 -52 60t-84 21q-58 0 -95.5 -29.5t-37.5 -77.5q0 -20 9 -35.5t24 -27
t35 -19.5t43 -14q33 -7 69 -15.5t66 -23.5t49 -40t19 -64q0 -36 -15.5 -62.5t-41 -44.5t-57 -26.5t-63.5 -8.5q-148 0 -188 109zM99 693h39l91 -102l91 102h39l-110 -123h-40z" />
    <glyph glyph-name="uni0162" unicode="&#x162;" horiz-adv-x="540" 
d="M27 666v34h486v-34h-225v-666h-36v666h-225zM254 -70h35l-19 -170h-26z" />
    <glyph glyph-name="uni0163" unicode="&#x163;" horiz-adv-x="378" 
d="M27 500h115v129l35 11v-140h154v-33h-154v-349q0 -56 24.5 -73.5t74.5 -17.5q12 0 25.5 1t29.5 3v-31q-18 -3 -34 -4t-30 -1q-65 0 -95 29.5t-30 93.5v349h-115v33zM220 -70h35l-19 -170h-26z" />
    <glyph glyph-name="Tcaron" unicode="&#x164;" horiz-adv-x="540" 
d="M27 666v34h486v-34h-225v-666h-36v666h-225zM139 893h39l91 -102l91 102h39l-110 -123h-40z" />
    <glyph glyph-name="tcaron" unicode="&#x165;" horiz-adv-x="378" 
d="M27 500h115v129l35 11v-140h154v-33h-154v-349q0 -56 24.5 -73.5t74.5 -17.5q12 0 25.5 1t29.5 3v-31q-18 -3 -34 -4t-30 -1q-65 0 -95 29.5t-30 93.5v349h-115v33zM249 713h36l-20 -153h-26z" />
    <glyph glyph-name="Tbar" unicode="&#x166;" horiz-adv-x="540" 
d="M27 700h486v-34h-225v-299h162v-34h-162v-333h-36v333h-162v34h162v299h-225v34z" />
    <glyph glyph-name="tbar" unicode="&#x167;" horiz-adv-x="378" 
d="M142 500v129l35 11v-140h154v-33h-154v-189h102v-29h-102v-131q0 -56 24.5 -73.5t74.5 -17.5q12 0 25.5 1t29.5 3v-31q-18 -3 -34 -4t-30 -1q-65 0 -95 29.5t-30 93.5v131h-73v29h73v189h-115v33h115z" />
    <glyph glyph-name="Utilde" unicode="&#x168;" horiz-adv-x="673" 
d="M120 700v-471q0 -45 14.5 -82.5t42 -65t68 -42.5t92.5 -15q51 0 91.5 15t68 42.5t42 65t14.5 82.5v471h37v-471q0 -57 -19 -101.5t-52.5 -75t-80 -47t-101.5 -16.5t-101.5 16t-80.5 47t-53 75.5t-19 101.5v471h37zM201 787q0 16 2.5 33.5t10 31.5t20 23.5t32.5 9.5
q33 0 71 -37q36 -35 62 -35q35 0 35 66h31q0 -16 -2.5 -33t-10 -31.5t-20 -24t-31.5 -9.5q-33 0 -71 37q-19 18 -35 26.5t-28 8.5q-35 0 -35 -66h-31z" />
    <glyph glyph-name="utilde" unicode="&#x169;" horiz-adv-x="569" 
d="M69 500h35v-314q0 -73 42.5 -118t117.5 -45q41 0 75 14.5t59 41.5t38.5 66t13.5 89v266h36v-500h-36v111q-26 -61 -75.5 -91.5t-113.5 -30.5q-45 0 -80.5 14.5t-60 40.5t-38 62t-13.5 80v314zM145 587q0 16 2.5 33.5t10 31.5t20 23.5t32.5 9.5q33 0 71 -37q36 -35 62 -35
q35 0 35 66h31q0 -16 -2.5 -33t-10 -31.5t-20 -24t-31.5 -9.5q-33 0 -71 37q-19 18 -35 26.5t-28 8.5q-35 0 -35 -66h-31z" />
    <glyph glyph-name="Umacron" unicode="&#x16a;" horiz-adv-x="673" 
d="M120 700v-471q0 -45 14.5 -82.5t42 -65t68 -42.5t92.5 -15q51 0 91.5 15t68 42.5t42 65t14.5 82.5v471h37v-471q0 -57 -19 -101.5t-52.5 -75t-80 -47t-101.5 -16.5t-101.5 16t-80.5 47t-53 75.5t-19 101.5v471h37zM210 824h247v-30h-247v30z" />
    <glyph glyph-name="umacron" unicode="&#x16b;" horiz-adv-x="569" 
d="M69 500h35v-314q0 -73 42.5 -118t117.5 -45q41 0 75 14.5t59 41.5t38.5 66t13.5 89v266h36v-500h-36v111q-26 -61 -75.5 -91.5t-113.5 -30.5q-45 0 -80.5 14.5t-60 40.5t-38 62t-13.5 80v314zM154 624h247v-30h-247v30z" />
    <glyph glyph-name="Uring" unicode="&#x16e;" horiz-adv-x="673" 
d="M120 700v-471q0 -45 14.5 -82.5t42 -65t68 -42.5t92.5 -15q51 0 91.5 15t68 42.5t42 65t14.5 82.5v471h37v-471q0 -57 -19 -101.5t-52.5 -75t-80 -47t-101.5 -16.5t-101.5 16t-80.5 47t-53 75.5t-19 101.5v471h37zM235 813q0 43 28.5 68t70.5 25t70 -25.5t28 -67.5
q0 -40 -27 -67q-26 -26 -71 -26q-42 0 -70.5 24.5t-28.5 68.5zM284 860q-9 -9 -14 -21.5t-5 -25.5t5 -26t14 -22t22 -13.5t27 -4.5t27.5 4.5t22.5 13.5q19 19 19 48t-19 48q-18 18 -49 18q-14 0 -27 -4.5t-23 -14.5z" />
    <glyph glyph-name="uring" unicode="&#x16f;" horiz-adv-x="569" 
d="M69 500h35v-314q0 -73 42.5 -118t117.5 -45q41 0 75 14.5t59 41.5t38.5 66t13.5 89v266h36v-500h-36v111q-26 -61 -75.5 -91.5t-113.5 -30.5q-45 0 -80.5 14.5t-60 40.5t-38 62t-13.5 80v314zM178 650q0 43 28.5 68t70.5 25t70 -25.5t28 -67.5q0 -40 -27 -67
q-26 -26 -71 -26q-42 0 -70.5 24.5t-28.5 68.5zM227 697q-9 -9 -14 -21.5t-5 -25.5t5 -26t14 -22t22 -13.5t27 -4.5t27.5 4.5t22.5 13.5q19 19 19 48t-19 48q-18 18 -49 18q-14 0 -27 -4.5t-23 -14.5z" />
    <glyph glyph-name="Uhungarumlaut" unicode="&#x170;" horiz-adv-x="673" 
d="M120 700v-471q0 -45 14.5 -82.5t42 -65t68 -42.5t92.5 -15q51 0 91.5 15t68 42.5t42 65t14.5 82.5v471h37v-471q0 -57 -19 -101.5t-52.5 -75t-80 -47t-101.5 -16.5t-101.5 16t-80.5 47t-53 75.5t-19 101.5v471h37zM436 900h39l-85 -130h-34zM286 900h39l-75 -130h-34z
" />
    <glyph glyph-name="uhungarumlaut" unicode="&#x171;" horiz-adv-x="569" 
d="M69 500h35v-314q0 -73 42.5 -118t117.5 -45q41 0 75 14.5t59 41.5t38.5 66t13.5 89v266h36v-500h-36v111q-26 -61 -75.5 -91.5t-113.5 -30.5q-45 0 -80.5 14.5t-60 40.5t-38 62t-13.5 80v314zM300 570l80 130h39l-85 -130h-34zM230 700h39l-75 -130h-34z" />
    <glyph glyph-name="Uogonek" unicode="&#x172;" horiz-adv-x="673" 
d="M83 700h37v-471q0 -45 14.5 -82.5t42 -65t68 -42.5t92.5 -15q51 0 91.5 15t68 42.5t42 65t14.5 82.5v471h37v-471q0 -123 -89 -191q-39 -34 -65.5 -60t-40.5 -43q-28 -35 -28 -72q0 -21 13 -32.5t35 -11.5q23 0 44 8v-29q-23 -9 -50 -9q-35 0 -55 19t-20 51q0 65 84 140
q-40 -10 -81 -10q-55 0 -101.5 16t-80.5 47t-53 75.5t-19 101.5v471z" />
    <glyph glyph-name="uogonek" unicode="&#x173;" horiz-adv-x="569" 
d="M261 -11q-45 0 -80.5 14.5t-60 40.5t-38 62t-13.5 80v314h35v-314q0 -73 42.5 -118t117.5 -45q41 0 75 14.5t59 41.5t38.5 66t13.5 89v266h36v-500q-90 -77 -90 -137q0 -21 12.5 -32.5t33.5 -11.5q23 0 44 8v-29q-21 -9 -50 -9q-34 0 -54 19t-20 51q0 63 88 147v105
q-26 -61 -75.5 -91.5t-113.5 -30.5z" />
    <glyph glyph-name="Wcircumflex" unicode="&#x174;" horiz-adv-x="987" 
d="M37 700h38l187 -652l210 652h43l209 -652l188 652h38l-203 -700h-44l-210 653l-209 -653h-44zM316 770l110 123h41l110 -123h-40l-91 102l-90 -102h-40z" />
    <glyph glyph-name="wcircumflex" unicode="&#x175;" horiz-adv-x="770" 
d="M37 500h36l144 -454l149 454h38l149 -454l144 454h36l-160 -500h-39l-149 452l-149 -452h-39zM253 570l110 123h41l110 -123h-40l-91 102l-90 -102h-40z" />
    <glyph glyph-name="Ycircumflex" unicode="&#x176;" horiz-adv-x="572" 
d="M51 700l235 -376l235 376h41l-258 -411v-289h-37v290l-257 410h41zM263 893h41l110 -123h-40l-91 102l-90 -102h-40z" />
    <glyph glyph-name="ycircumflex" unicode="&#x177;" horiz-adv-x="510" 
d="M53 500l216 -473l188 473h36l-217 -546q-28 -71 -76.5 -113t-106.5 -42q-3 0 -6 0.5t-6 0.5v33q3 0 6 -0.5t6 -0.5q47 0 85.5 35t63.5 95l10 22l-235 516h36zM241 693h41l110 -123h-40l-91 102l-90 -102h-40z" />
    <glyph glyph-name="Ydieresis" unicode="&#x178;" horiz-adv-x="572" 
d="M10 700h41l235 -376l235 376h41l-258 -411v-289h-37v290zM342 807q0 11 8.5 19.5t19.5 8.5q12 0 20.5 -8.5t8.5 -19.5q0 -12 -8.5 -20.5t-20.5 -8.5q-11 0 -19.5 8.5t-8.5 20.5zM200 778q-11 0 -19.5 8.5t-8.5 20.5q0 11 8.5 19.5t19.5 8.5q12 0 20.5 -8.5t8.5 -19.5
q0 -12 -8.5 -20.5t-20.5 -8.5z" />
    <glyph glyph-name="Zacute" unicode="&#x179;" horiz-adv-x="527" 
d="M356 893l-88 -123h-33l80 123h41zM88 34h402v-34h-443v34l393 632h-383v34h423v-34z" />
    <glyph glyph-name="zacute" unicode="&#x17a;" horiz-adv-x="483" 
d="M335 693l-88 -123h-33l80 123h41zM105 33h332v-33h-380v22l321 445h-311v33h360v-22z" />
    <glyph glyph-name="Zdotaccent" unicode="&#x17b;" horiz-adv-x="527" 
d="M47 0v34l393 632h-383v34h423v-34l-392 -632h402v-34h-443zM265 777q-17 0 -25.5 12t-8.5 26t8.5 26t25.5 12h3h3q18 0 26.5 -12t8.5 -26t-8.5 -26t-26.5 -12h-3h-3z" />
    <glyph glyph-name="zdotaccent" unicode="&#x17c;" horiz-adv-x="483" 
d="M57 0v22l321 445h-311v33h360v-22l-322 -445h332v-33h-380zM244 577q-17 0 -25.5 12t-8.5 26t8.5 26t25.5 12h3h3q18 0 26.5 -12t8.5 -26t-8.5 -26t-26.5 -12h-3h-3z" />
    <glyph glyph-name="Zcaron" unicode="&#x17d;" horiz-adv-x="527" 
d="M440 666h-383v34h423v-34l-392 -632h402v-34h-443v34zM137 893h39l91 -102l91 102h39l-110 -123h-40z" />
    <glyph glyph-name="zcaron" unicode="&#x17e;" horiz-adv-x="483" 
d="M378 467h-311v33h360v-22l-322 -445h332v-33h-380v22zM116 693h39l91 -102l91 102h39l-110 -123h-40z" />
    <glyph glyph-name="florin" unicode="&#x192;" horiz-adv-x="434" 
d="M0 -170q23 -10 47 -10q36 0 61.5 25t33.5 72l71 417h-119v34h125l37 216q11 60 46 93t83 33q26 0 49 -8v-34q-24 10 -47 10q-37 0 -62 -25t-33 -72l-37 -213h126v-34h-132l-72 -420q-11 -60 -45.5 -93t-82.5 -33q-26 0 -49 8v34v0z" />
    <glyph glyph-name="Ohorn" unicode="&#x1a0;" horiz-adv-x="828" 
d="M414 -11q-76 0 -142 28t-114.5 76.5t-76.5 114.5t-28 142q0 75 28 141t77 115t115 77t141 28q46 0 92 -11q35 0 52.5 20t17.5 55h36q0 -38 -14.5 -60.5t-37.5 -33.5q49 -21 88.5 -55.5t67.5 -78t43.5 -94t15.5 -103.5q0 -75 -28 -141t-77 -115t-115 -77t-141 -28zM90 350
q0 -68 25 -127.5t68.5 -103.5t102.5 -69.5t128 -25.5q68 0 127.5 25.5t103 69.5t68.5 103.5t25 127.5q0 67 -25.5 126.5t-69 104t-103 70t-126.5 25.5q-68 0 -127.5 -25.5t-103 -69.5t-68.5 -103.5t-25 -127.5z" />
    <glyph glyph-name="ohorn" unicode="&#x1a1;" horiz-adv-x="617" 
d="M308 -11q-56 0 -103.5 20t-82.5 55t-55 82.5t-20 103.5q0 55 20 102.5t55.5 82.5t83 55.5t102.5 20.5q40 0 79 -11h1q11 0 22.5 4t20.5 13t15 23t6 35h36q0 -38 -15 -61t-39 -34q65 -34 100.5 -95.5t35.5 -134.5q0 -56 -20 -103.5t-55.5 -82.5t-83.5 -55t-103 -20z
M82 250q0 -48 17 -89.5t47.5 -72t72 -48t89.5 -17.5t89.5 17.5t72 48t48 72t17.5 89.5t-17.5 89t-48.5 72t-72 48.5t-89 17.5t-89.5 -17.5t-71.5 -48t-47.5 -72t-17.5 -89.5z" />
    <glyph glyph-name="Uhorn" unicode="&#x1af;" horiz-adv-x="673" 
d="M337 -11q-55 0 -101.5 16t-80.5 47t-53 75.5t-19 101.5v471h37v-471q0 -45 14.5 -82.5t42 -65t68 -42.5t92.5 -15q51 0 91.5 15t68 42.5t42 65t14.5 82.5v471h12q36 0 54 19.5t18 55.5h36q0 -49 -24 -72.5t-59 -31.5v-442q0 -57 -19 -101.5t-52.5 -75t-80 -47
t-101.5 -16.5z" />
    <glyph glyph-name="uhorn" unicode="&#x1b0;" horiz-adv-x="569" 
d="M104 500v-314q0 -73 42.5 -118t117.5 -45q41 0 75 14.5t59 41.5t38.5 66t13.5 89v266h21q22 2 41 18.5t19 56.5h36q0 -48 -23 -71.5t-58 -31.5v-472h-36v111q-26 -61 -75.5 -91.5t-113.5 -30.5q-45 0 -80.5 14.5t-60 40.5t-38 62t-13.5 80v314h35z" />
    <glyph glyph-name="uni0218" unicode="&#x218;" horiz-adv-x="572" 
d="M301 -11q-97 0 -162.5 44t-88.5 116l31 18q19 -66 76 -104.5t145 -38.5q91 0 139 43t48 110q0 31 -12 54.5t-36 42t-60 34t-84 30.5l-70 22q-32 13 -58 26t-45.5 31t-31 44t-13.5 65q0 44 17.5 78.5t46.5 58t66.5 36t78.5 12.5q81 0 136 -40.5t81 -104.5l-30 -17
q-49 127 -187 127q-34 0 -65 -9.5t-55 -28.5t-38.5 -47t-14.5 -64q0 -33 12.5 -58t43.5 -42q32 -19 64.5 -31t67.5 -24q21 -7 38 -13t32 -12t29.5 -12.5t30.5 -15.5q46 -24 67.5 -56.5t24.5 -84.5q0 -42 -15.5 -77t-45 -60t-71 -38.5t-92.5 -13.5zM275 -70h35l-19 -170h-26z
" />
    <glyph glyph-name="uni0219" unicode="&#x219;" horiz-adv-x="461" 
d="M238 -11q-148 0 -188 109l29 17q32 -92 159 -92q61 0 101 29.5t40 78.5q0 41 -32.5 64t-78.5 33q-33 8 -69 16.5t-66 23.5t-49 39t-19 63q0 35 14.5 61.5t38 44t54 26.5t62.5 9q60 0 103 -26.5t62 -71.5l-29 -17q-16 39 -52 60t-84 21q-58 0 -95.5 -29.5t-37.5 -77.5
q0 -20 9 -35.5t24 -27t35 -19.5t43 -14q33 -7 69 -15.5t66 -23.5t49 -40t19 -64q0 -36 -15.5 -62.5t-41 -44.5t-57 -26.5t-63.5 -8.5zM226 -70h35l-19 -170h-26z" />
    <glyph glyph-name="uni021A" unicode="&#x21a;" horiz-adv-x="540" 
d="M27 666v34h486v-34h-225v-666h-36v666h-225zM254 -70h35l-19 -170h-26z" />
    <glyph glyph-name="uni021B" unicode="&#x21b;" horiz-adv-x="378" 
d="M27 500h115v129l35 11v-140h154v-33h-154v-349q0 -56 24.5 -73.5t74.5 -17.5q12 0 25.5 1t29.5 3v-31q-18 -3 -34 -4t-30 -1q-65 0 -95 29.5t-30 93.5v349h-115v33zM220 -70h35l-19 -170h-26z" />
    <glyph glyph-name="circumflex" unicode="&#x2c6;" horiz-adv-x="301" 
d="M20 570l110 123h41l110 -123h-40l-91 102l-90 -102h-40z" />
    <glyph glyph-name="caron" unicode="&#x2c7;" horiz-adv-x="301" 
d="M21 693h39l91 -102l91 102h39l-110 -123h-40z" />
    <glyph glyph-name="breve" unicode="&#x2d8;" horiz-adv-x="293" 
d="M147 569q-57 0 -92 30.5t-35 82.5h34q0 -39 25 -61t68 -22t68 22t25 61h34q0 -52 -34.5 -82.5t-92.5 -30.5z" />
    <glyph glyph-name="dotaccent" unicode="&#x2d9;" horiz-adv-x="117" 
d="M55 577q-17 0 -25.5 12t-8.5 26t8.5 26t25.5 12h3h3q18 0 26.5 -12t8.5 -26t-8.5 -26t-26.5 -12h-3h-3z" />
    <glyph glyph-name="ring" unicode="&#x2da;" horiz-adv-x="237" 
d="M20 650q0 43 28.5 68t70.5 25t70 -25.5t28 -67.5q0 -44 -28 -68.5t-70 -24.5t-70.5 24.5t-28.5 68.5zM69 697q-9 -9 -14 -21.5t-5 -25.5t5 -26t14 -22t22 -13.5t27 -4.5t27.5 4.5t22.5 13.5q19 19 19 48t-19 48q-18 18 -49 18q-14 0 -27 -4.5t-23 -14.5z" />
    <glyph glyph-name="ogonek" unicode="&#x2db;" horiz-adv-x="165" 
d="M20 -141q0 66 85 141h39q-90 -77 -90 -137q0 -21 13 -32.5t34 -11.5q23 0 44 8v-29q-21 -9 -50 -9q-35 0 -55 19t-20 51z" />
    <glyph glyph-name="tilde" unicode="&#x2dc;" horiz-adv-x="304" 
d="M20 587q0 16 3 33.5t10 31.5t19.5 23.5t32.5 9.5q31 0 71 -37q36 -35 62 -35q35 0 35 66h31q0 -15 -3 -32.5t-10 -32t-19.5 -24t-31.5 -9.5q-33 0 -71 37q-19 18 -35 26.5t-28 8.5q-35 0 -35 -66h-31z" />
    <glyph glyph-name="hungarumlaut" unicode="&#x2dd;" horiz-adv-x="299" 
d="M240 700h39l-85 -130h-34zM20 570l70 130h39l-75 -130h-34z" />
    <glyph glyph-name="gravecomb" unicode="&#x300;" horiz-adv-x="0" 
d="M-53 570l-88 123h41l80 -123h-33z" />
    <glyph glyph-name="acutecomb" unicode="&#x301;" horiz-adv-x="0" 
d="M-61 693h41l-88 -123h-33z" />
    <glyph glyph-name="uni0302" unicode="&#x302;" horiz-adv-x="0" 
d="M-281 570l110 123h41l110 -123h-40l-91 102l-90 -102h-40z" />
    <glyph glyph-name="tildecomb" unicode="&#x303;" horiz-adv-x="0" 
d="M-284 587q0 16 2.5 33.5t10 31.5t20 23.5t32.5 9.5q33 0 71 -37q36 -35 62 -35q35 0 35 66h31q0 -16 -2.5 -33t-10 -31.5t-20 -24t-31.5 -9.5q-33 0 -71 37q-19 18 -35 26.5t-28 8.5q-35 0 -35 -66h-31z" />
    <glyph glyph-name="uni0304" unicode="&#x304;" horiz-adv-x="0" 
d="M-267 594v30h247v-30h-247z" />
    <glyph glyph-name="uni0306" unicode="&#x306;" horiz-adv-x="0" 
d="M-160 569q-57 0 -92 30.5t-35 82.5h34q0 -39 25 -61t68 -22t68 22t25 61h34q0 -52 -34.5 -82.5t-92.5 -30.5z" />
    <glyph glyph-name="uni0307" unicode="&#x307;" horiz-adv-x="0" 
d="M-62 577q-17 0 -25.5 12t-8.5 26t8.5 26t25.5 12h3h3q18 0 26.5 -12t8.5 -26t-8.5 -26t-26.5 -12h-3h-3z" />
    <glyph glyph-name="uni0308" unicode="&#x308;" horiz-adv-x="0" 
d="M-77 607q0 11 8.5 19.5t19.5 8.5q12 0 20.5 -8.5t8.5 -19.5q0 -12 -8.5 -20.5t-20.5 -8.5q-11 0 -19.5 8.5t-8.5 20.5zM-247 607q0 11 8.5 19.5t19.5 8.5q12 0 20.5 -8.5t8.5 -19.5q0 -12 -8.5 -20.5t-20.5 -8.5q-11 0 -19.5 8.5t-8.5 20.5z" />
    <glyph glyph-name="uni030A" unicode="&#x30a;" horiz-adv-x="0" 
d="M-118 557q-42 0 -70.5 25t-28.5 68q0 42 29 67.5t70 25.5q42 0 70 -25.5t28 -67.5q0 -44 -28 -68.5t-70 -24.5zM-168 697q-9 -9 -14 -21.5t-5 -25.5t5 -26t14 -22t22 -13.5t27 -4.5t27.5 4t23.5 14q9 9 13.5 21.5t4.5 26t-4.5 26.5t-13.5 22t-22 13.5t-27 4.5t-27.5 -4.5
t-23.5 -14.5z" />
    <glyph glyph-name="uni030B" unicode="&#x30b;" horiz-adv-x="0" 
d="M-52 700h39l-85 -130h-34zM-272 570l70 130h39l-75 -130h-34z" />
    <glyph glyph-name="uni030C" unicode="&#x30c;" horiz-adv-x="0" 
d="M-280 693h39l91 -102l91 102h39l-110 -123h-40z" />
    <glyph glyph-name="uni0312" unicode="&#x312;" horiz-adv-x="0" 
d="M-20 960l-10 -170h-35l19 170h26z" />
    <glyph glyph-name="uni0326" unicode="&#x326;" horiz-adv-x="0" 
d="M-65 -240l10 170h35l-19 -170h-26z" />
    <glyph glyph-name="uni0327" unicode="&#x327;" horiz-adv-x="0" 
d="M-205 -178q17 -2 31 -3t27 -1q95 0 95 47q0 43 -75 43h-14v92h31v-68q37 0 63.5 -18t26.5 -49q0 -34 -32.5 -54.5t-101.5 -20.5q-24 0 -51 3v29v0z" />
    <glyph glyph-name="uni0328" unicode="&#x328;" horiz-adv-x="0" 
d="M-145 -141q0 66 85 141h39q-90 -77 -90 -137q0 -21 13 -32.5t34 -11.5q23 0 44 8v-29q-21 -9 -50 -9q-35 0 -55 19t-20 51z" />
    <glyph glyph-name="uni0394" unicode="&#x394;" horiz-adv-x="622" 
d="M331 700l274 -700h-588l274 700h40zM68 34h486l-243 623z" />
    <glyph glyph-name="uni03A9" unicode="&#x3a9;" horiz-adv-x="828" 
d="M252 34q-47 22 -83.5 55t-62.5 73.5t-39.5 88t-13.5 99.5q0 75 28 141t77 115t115 77t141 28t141 -28.5t114.5 -77t77 -114.5t28.5 -141q0 -51 -14 -98.5t-39.5 -88.5t-62.5 -74t-83 -55h188v-34h-270v34q55 14 100 44t77 71.5t49.5 93t17.5 107.5q0 67 -25.5 126.5
t-69 104t-103 70t-126.5 25.5q-68 0 -127.5 -25.5t-103 -69.5t-68.5 -103.5t-25 -127.5q0 -57 17.5 -108.5t49.5 -93t77 -71t100 -43.5v-34h-270v34h188v0z" />
    <glyph glyph-name="pi" unicode="&#x3c0;" horiz-adv-x="650" 
d="M37 467v33h576v-33h-83v-467h-35v467h-336v-467h-35v467h-87z" />
    <glyph glyph-name="uni0401" unicode="&#x401;" horiz-adv-x="537" 
d="M93 700h392v-34h-355v-296h330v-34h-330v-302h360v-34h-397v700zM374 778q-11 0 -19.5 8.5t-8.5 20.5q0 11 8.5 19.5t19.5 8.5q12 0 20.5 -8.5t8.5 -19.5q0 -12 -8.5 -20.5t-20.5 -8.5zM176 807q0 11 8.5 19.5t19.5 8.5q12 0 20.5 -8.5t8.5 -19.5q0 -12 -8.5 -20.5
t-20.5 -8.5q-11 0 -19.5 8.5t-8.5 20.5z" />
    <glyph glyph-name="uni0402" unicode="&#x402;" horiz-adv-x="699" 
d="M510 700v-34h-242v-242q92 47 183 47q39 0 72 -12t57 -34.5t37.5 -56t13.5 -76.5v-161q0 -66 -33.5 -102t-97.5 -36h-10.5t-11.5 1v33q5 -1 9.5 -1h9.5q97 0 97 105v161q0 69 -39.5 107t-102.5 38q-88 0 -184 -47v-390h-36v666h-205v34h483z" />
    <glyph glyph-name="uni0403" unicode="&#x403;" horiz-adv-x="497" 
d="M364 892l-88 -123h-33l80 123h41zM470 700v-34h-340v-666h-37v700h377z" />
    <glyph glyph-name="uni0404" unicode="&#x404;" horiz-adv-x="756" 
d="M414 -11q-78 0 -144 27.5t-114 75.5t-75.5 114t-27.5 144t27.5 144t75.5 114t114 75.5t144 27.5q45 0 88.5 -11t82.5 -32.5t71 -52t55 -69.5l-32 -19q-20 35 -48.5 63t-63.5 47t-74 29t-79 10q-68 0 -125.5 -23t-101 -64t-69 -98t-28.5 -124h407v-34h-407
q3 -68 28.5 -124.5t69 -97.5t101 -64t125.5 -23q41 0 80.5 10t74.5 29.5t64 48t49 65.5l32 -18q-21 -39 -52.5 -70.5t-70.5 -53.5t-84 -34t-93 -12z" />
    <glyph glyph-name="uni0405" unicode="&#x405;" horiz-adv-x="572" 
d="M81 167q19 -66 76 -104.5t145 -38.5q91 0 139 43t48 110q0 31 -12 54.5t-36 42t-60 34t-84 30.5l-70 22q-32 13 -58 26t-45.5 31t-31 44t-13.5 65q0 44 17.5 78.5t46.5 58t66.5 36t78.5 12.5q81 0 136 -40.5t81 -104.5l-30 -17q-49 127 -187 127q-34 0 -65 -9.5
t-55 -28.5t-38.5 -47t-14.5 -64q0 -33 12.5 -58t43.5 -42q32 -19 64.5 -31t67.5 -24q21 -7 38 -13t32 -12t29.5 -12.5t30.5 -15.5q46 -24 67.5 -56.5t24.5 -84.5q0 -42 -15.5 -77t-45 -60t-71 -38.5t-92.5 -13.5q-97 0 -162.5 44t-88.5 116z" />
    <glyph glyph-name="uni0406" unicode="&#x406;" horiz-adv-x="223" 
d="M93 700h37v-700h-37v700z" />
    <glyph glyph-name="uni0407" unicode="&#x407;" horiz-adv-x="223" 
d="M130 700v-700h-37v700h37zM169 807q0 11 8.5 19.5t19.5 8.5q12 0 20.5 -8.5t8.5 -19.5q0 -12 -8.5 -20.5t-20.5 -8.5q-11 0 -19.5 8.5t-8.5 20.5zM27 778q-11 0 -19.5 8.5t-8.5 20.5q0 11 8.5 19.5t19.5 8.5q12 0 20.5 -8.5t8.5 -19.5q0 -12 -8.5 -20.5t-20.5 -8.5z" />
    <glyph glyph-name="uni0408" unicode="&#x408;" horiz-adv-x="554" 
d="M250 -11q-73 0 -126.5 30.5t-76.5 85.5l30 18q40 -99 173 -99q85 0 134.5 43.5t49.5 118.5v514h36v-514q0 -48 -17.5 -85t-47.5 -61.5t-70 -37.5t-85 -13z" />
    <glyph glyph-name="uni0409" unicode="&#x409;" horiz-adv-x="995" 
d="M214 283q0 -286 -176 -286q-4 0 -7.5 0.5t-8.5 0.5v33q5 -1 8.5 -1h7.5q67 0 103 59t36 195v416h395v-313h173q42 0 78.5 -14.5t64.5 -40t44 -61.5t16 -78q0 -43 -16 -78.5t-44 -61t-64.5 -39.5t-78.5 -14h-210v666h-321v-383zM572 353v-319h173q34 0 64.5 11.5t53 32.5
t36 50.5t13.5 64.5t-13.5 64.5t-36 50.5t-53 33t-64.5 12h-173z" />
    <glyph glyph-name="uni040A" unicode="&#x40a;" horiz-adv-x="987" 
d="M130 700v-313h397v313h36v-313h174q42 0 78.5 -14.5t64.5 -40t44 -61.5t16 -78q0 -43 -16 -78.5t-44 -61t-64.5 -39.5t-78.5 -14h-210v353h-397v-353h-37v700h37zM563 353v-319h174q34 0 64.5 12t53 33t35.5 50t13 64q0 34 -13.5 63.5t-36 51t-52.5 33.5t-64 12h-174z
" />
    <glyph glyph-name="uni040B" unicode="&#x40b;" horiz-adv-x="708" 
d="M27 700h483v-34h-242v-242q92 47 183 47q39 0 72 -12t57 -34.5t37.5 -56t13.5 -76.5v-292h-37v292q0 69 -39.5 107t-102.5 38q-88 0 -184 -47v-390h-36v666h-205v34z" />
    <glyph glyph-name="uni040C" unicode="&#x40c;" horiz-adv-x="563" 
d="M374 892l-88 -123h-33l80 123h41zM553 0h-48l-375 350v-350h-37v700h37v-330l365 330h48l-373 -340z" />
    <glyph glyph-name="uni040E" unicode="&#x40e;" horiz-adv-x="563" 
d="M37 700h37l232 -475l203 475h37l-233 -547q-66 -154 -187 -154q-4 0 -8 0.5t-8 0.5v33q4 0 7 -0.5t6 -0.5q99 0 155 128l10 23zM165 793v30h247v-30h-247z" />
    <glyph glyph-name="uni040F" unicode="&#x40f;" horiz-adv-x="687" 
d="M93 700h37v-666h427v666h36v-700h-231v-134h-37v134h-232v700z" />
    <glyph glyph-name="uni0410" unicode="&#x410;" horiz-adv-x="629" 
d="M294 700h40l275 -700h-39l-72 185h-367l-72 -185h-39zM485 219l-171 438l-170 -438h341z" />
    <glyph glyph-name="uni0411" unicode="&#x411;" horiz-adv-x="585" 
d="M490 700v-34h-360v-259h210q42 0 79 -16t64.5 -44t43.5 -65t16 -79t-16 -79t-43.5 -64.5t-64.5 -43.5t-79 -16h-247v700h397zM130 373v-339h210q35 0 65.5 13t53 36t35.5 54t13 66t-13 66t-35.5 54t-53 36.5t-65.5 13.5h-210z" />
    <glyph glyph-name="uni0412" unicode="&#x412;" horiz-adv-x="627" 
d="M93 700h277q37 0 70 -14t57.5 -38.5t38.5 -57.5t14 -70q0 -54 -27.5 -96t-75.5 -63q29 -8 53.5 -25t42 -39.5t27.5 -50.5t10 -59q0 -77 -55 -132t-132 -55h-300v700zM130 34h263q32 0 59.5 12t47.5 32.5t31.5 48.5t11.5 60q0 62 -44 108q-44 45 -106 45h-263v-306z
M370 374q31 0 57 11.5t45 31t30 46.5t11 57t-11 56.5t-30.5 46.5t-45.5 31.5t-56 11.5h-240v-292h240z" />
    <glyph glyph-name="uni0413" unicode="&#x413;" horiz-adv-x="497" 
d="M470 700v-34h-340v-666h-37v700h377z" />
    <glyph glyph-name="uni0414" unicode="&#x414;" horiz-adv-x="690" 
d="M22 34h54q74 83 74 253v413h427v-666h71v-168h-36v134h-554v-134h-36v168zM540 34v632h-353v-380q0 -165 -66 -252h419z" />
    <glyph glyph-name="uni0415" unicode="&#x415;" horiz-adv-x="537" 
d="M93 700h392v-34h-355v-296h330v-34h-330v-302h360v-34h-397v700z" />
    <glyph glyph-name="uni0416" unicode="&#x416;" horiz-adv-x="822" 
d="M355 360l-325 340h44l319 -332v332h36v-332l319 332h44l-325 -340l335 -360h-44l-329 351v-351h-36v351l-329 -351h-44z" />
    <glyph glyph-name="uni0417" unicode="&#x417;" horiz-adv-x="548" 
d="M279 -11q-187 0 -239 150l31 18q42 -134 208 -134q44 0 79.5 12t61 33t39 50.5t13.5 64.5q0 34 -12 63t-34.5 50t-55 32.5t-72.5 11.5h-78v34h58q39 0 70 11t52.5 31t33.5 47.5t12 60.5t-12.5 61.5t-35 48.5t-54 31.5t-69.5 11.5q-139 0 -189 -122l-30 18q58 138 219 138
q41 0 79 -13t66.5 -37.5t45.5 -59.5t17 -78q0 -57 -30.5 -100t-84.5 -63q66 -17 103 -65t37 -112q0 -49 -19 -85.5t-51 -60.5t-73 -36t-86 -12z" />
    <glyph glyph-name="uni0418" unicode="&#x418;" horiz-adv-x="693" 
d="M130 700v-634l437 634h33v-700h-37v634l-436 -634h-34v700h37z" />
    <glyph glyph-name="uni0419" unicode="&#x419;" horiz-adv-x="693" 
d="M93 700h37v-634l437 634h33v-700h-37v634l-436 -634h-34v700zM224 794v30h247v-30h-247z" />
    <glyph glyph-name="uni041A" unicode="&#x41a;" horiz-adv-x="563" 
d="M553 0h-48l-375 350v-350h-37v700h37v-330l365 330h48l-373 -340z" />
    <glyph glyph-name="uni041B" unicode="&#x41b;" horiz-adv-x="702" 
d="M22 33q5 -1 9.5 -1h9.5q65 0 100.5 59t35.5 193v416h431v-700h-36v666h-358v-383q0 -146 -42.5 -215t-129.5 -69h-10t-10 1v33v0z" />
    <glyph glyph-name="uni041C" unicode="&#x41c;" horiz-adv-x="813" 
d="M93 700h47l267 -438l267 438h46v-700h-37v646l-272 -445h-9l-272 445v-646h-37v700z" />
    <glyph glyph-name="uni041D" unicode="&#x41d;" horiz-adv-x="693" 
d="M130 700v-323h433v323h37v-700h-37v343h-433v-343h-37v700h37z" />
    <glyph glyph-name="uni041E" unicode="&#x41e;" horiz-adv-x="828" 
d="M53 350q0 75 28 141t77 115t115 77t141 28t141 -28.5t114.5 -77t77 -114.5t28.5 -141t-28 -141t-77 -115t-115 -77t-141 -28q-76 0 -142 28t-114.5 76.5t-76.5 114.5t-28 142zM414 676q-68 0 -127.5 -25.5t-103 -69.5t-68.5 -103.5t-25 -127.5t25 -127.5t68.5 -103.5
t102.5 -69.5t128 -25.5q68 0 127.5 25.5t103 69.5t68.5 103.5t25 127.5q0 67 -25.5 126.5t-69 104t-103 70t-126.5 25.5z" />
    <glyph glyph-name="uni041F" unicode="&#x41f;" horiz-adv-x="687" 
d="M93 0v700h500v-700h-36v666h-427v-666h-37z" />
    <glyph glyph-name="uni0420" unicode="&#x420;" horiz-adv-x="583" 
d="M320 700q46 0 85.5 -16t69 -44t46 -67.5t16.5 -85.5q0 -47 -16.5 -86t-45.5 -67.5t-69 -44.5t-86 -16h-190v-273h-37v700h227zM130 307h190q39 0 72 13.5t57 37.5t37.5 57t13.5 72t-13.5 72t-37.5 56.5t-57 37t-72 13.5h-190v-359z" />
    <glyph glyph-name="uni0421" unicode="&#x421;" horiz-adv-x="758" 
d="M416 -11q-77 0 -143.5 27.5t-115.5 75.5t-76.5 114t-27.5 144t27.5 144t76.5 114t115.5 75.5t143.5 27.5q45 0 88.5 -11t82.5 -32.5t71 -52t55 -69.5l-32 -19q-20 34 -48 61.5t-62 47t-73.5 30t-81.5 10.5q-70 0 -129.5 -25t-103 -68.5t-68.5 -103t-25 -129.5
q0 -71 24.5 -130.5t68 -103t103 -68t130.5 -24.5q84 0 155.5 39t111.5 114l33 -18q-21 -39 -52.5 -70t-70.5 -53.5t-84 -34.5t-93 -12z" />
    <glyph glyph-name="uni0422" unicode="&#x422;" horiz-adv-x="540" 
d="M27 666v34h486v-34h-225v-666h-36v666h-225z" />
    <glyph glyph-name="uni0423" unicode="&#x423;" horiz-adv-x="563" 
d="M74 700l232 -475l203 475h37l-233 -547q-66 -154 -187 -154q-4 0 -8 0.5t-8 0.5v33q4 0 7 -0.5t6 -0.5q99 0 155 128l10 23l-251 517h37z" />
    <glyph glyph-name="uni0424" unicode="&#x424;" horiz-adv-x="804" 
d="M384 78q-64 2 -126 17t-111 47t-79.5 83t-30.5 125q0 73 30.5 124t79.5 83t111.5 47.5t125.5 17.5v78h36v-78q63 -2 125.5 -17.5t111.5 -47.5t79.5 -83t30.5 -124q0 -74 -30.5 -125t-79.5 -83t-111 -47t-126 -17v-78h-36v78zM420 111q72 2 129.5 19t98 47.5t62 74
t21.5 98.5t-21.5 98.5t-62 74t-98 47.5t-129.5 19v-478zM73 350q0 -55 21.5 -98.5t62 -74t98 -47.5t129.5 -19v478q-72 -2 -129.5 -19t-98 -47.5t-62 -74t-21.5 -98.5z" />
    <glyph glyph-name="uni0425" unicode="&#x425;" horiz-adv-x="567" 
d="M27 0l235 358l-224 342h42l204 -310l203 310h42l-224 -342l235 -358h-43l-214 326l-214 -326h-42z" />
    <glyph glyph-name="uni0426" unicode="&#x426;" horiz-adv-x="690" 
d="M130 700v-666h413v666h37v-666h72v-168h-37v134h-522v700h37z" />
    <glyph glyph-name="uni0427" unicode="&#x427;" horiz-adv-x="628" 
d="M112 700v-243q0 -72 47.5 -116t135.5 -44q105 0 203 48v355h37v-700h-37v309q-96 -46 -203 -46q-46 0 -86 12t-70 36t-47 60.5t-17 85.5v243h37z" />
    <glyph glyph-name="uni0428" unicode="&#x428;" horiz-adv-x="963" 
d="M93 700h37v-666h333v666h37v-666h333v666h37v-700h-777v700z" />
    <glyph glyph-name="uni0429" unicode="&#x429;" horiz-adv-x="980" 
d="M93 0v700h37v-666h333v666h37v-666h333v666h37v-666h72v-168h-37v134h-812z" />
    <glyph glyph-name="uni042A" unicode="&#x42a;" horiz-adv-x="687" 
d="M233 700v-273h190q46 0 86 -16t69 -44.5t45.5 -67.5t16.5 -86t-16.5 -86t-45.5 -67.5t-69 -44t-86 -15.5h-226v666h-197v34h233zM233 393v-359h190q39 0 72 13.5t57 37t37.5 56.5t13.5 72t-13.5 72t-37.5 57t-57 37.5t-72 13.5h-190z" />
    <glyph glyph-name="uni042B" unicode="&#x42b;" horiz-adv-x="752" 
d="M93 0v700h37v-273h190q46 0 86 -16t69 -44.5t45.5 -67.5t16.5 -86t-16.5 -86t-45.5 -67.5t-69 -44t-86 -15.5h-227zM130 34h190q39 0 72 13.5t57 37t37.5 56.5t13.5 72t-13.5 72t-37.5 57t-57 37.5t-72 13.5h-190v-359zM622 700h36v-700h-36v700z" />
    <glyph glyph-name="uni042C" unicode="&#x42c;" horiz-adv-x="583" 
d="M93 700h37v-273h190q46 0 86 -16t69 -44.5t45.5 -67.5t16.5 -86t-16.5 -86t-45.5 -67.5t-69 -44t-86 -15.5h-227v700zM130 393v-359h190q39 0 72 13.5t57 37t37.5 56.5t13.5 72t-13.5 72t-37.5 57t-57 37.5t-72 13.5h-190z" />
    <glyph glyph-name="uni042D" unicode="&#x42d;" horiz-adv-x="756" 
d="M342 -11q-48 0 -93 12t-84 34t-70.5 53.5t-52.5 70.5l32 18q40 -75 112 -114t156 -39q67 0 125 23t101 64.5t69 98t29 123.5h-407v34h407q-3 67 -29 123.5t-69 98t-101 64.5t-125 23q-40 0 -79 -10t-74 -29t-64 -47t-48 -63l-32 19q23 39 55.5 70t71 52t82 32t88.5 11
q77 0 143 -27.5t114.5 -76t76 -114.5t27.5 -143t-27.5 -143t-76 -114.5t-114.5 -76t-143 -27.5z" />
    <glyph glyph-name="uni042E" unicode="&#x42e;" horiz-adv-x="1053" 
d="M93 0v700h37v-323h151q5 71 35 132t78 106t111 70.5t134 25.5q75 0 141 -28.5t114.5 -77t77 -114.5t28.5 -141t-28 -141t-77 -115t-115 -77t-141 -28t-139.5 27.5t-113 75.5t-77 112.5t-29.5 138.5h-150v-343h-37zM639 676q-68 0 -127.5 -25.5t-103 -69.5t-68.5 -103.5
t-25 -127.5t25 -127.5t68.5 -103.5t102.5 -69.5t128 -25.5q68 0 127.5 25.5t103 69.5t68.5 103.5t25 127.5q0 67 -25.5 126.5t-69 104t-103 70t-126.5 25.5z" />
    <glyph glyph-name="uni042F" unicode="&#x42f;" horiz-adv-x="633" 
d="M245 294q-39 4 -72.5 21.5t-58 44.5t-38 62.5t-13.5 74.5q0 42 16 79t44 64.5t65 43.5t79 16h273v-700h-37v293h-217l-201 -293h-42zM267 666q-35 0 -65.5 -13.5t-53 -36.5t-35.5 -54t-13 -65q0 -35 13 -66t35.5 -54t53 -36.5t65.5 -13.5h236v339h-236z" />
    <glyph glyph-name="uni0430" unicode="&#x430;" 
d="M47 250q0 54 20 102t55 83t82.5 55.5t102.5 20.5q76 0 137 -39.5t91 -105.5v134h35v-500h-35v134q-30 -66 -91 -105.5t-137 -39.5q-55 0 -102.5 20t-82.5 55.5t-55 83t-20 102.5zM308 477q-48 0 -89.5 -17.5t-71.5 -48t-47.5 -72t-17.5 -89.5q0 -95 65 -162
q64 -65 161 -65q48 0 89.5 17.5t72 48t48 72t17.5 89.5t-17.5 89t-48.5 72t-72 48.5t-89 17.5z" />
    <glyph glyph-name="uni0431" unicode="&#x431;" horiz-adv-x="576" 
d="M47 245q0 75 12 127t40.5 90.5t75.5 67.5t117 57q20 8 46.5 19.5t50 26.5t40.5 34t19 43l28 -16q-5 -26 -19 -46.5t-40 -36.5q-13 -8 -24.5 -14.5t-22.5 -11.5t-26 -11.5t-35 -14.5l-62 -27q-36 -17 -64 -36t-47.5 -43t-31.5 -55t-17 -72q36 63 95.5 95.5t123.5 32.5
q50 0 93 -17.5t74 -48.5t48.5 -74t17.5 -93q0 -53 -18.5 -96t-51 -73t-77 -46.5t-95.5 -16.5q-57 0 -103 19t-78.5 53t-50.5 81t-18 103zM303 421q-40 0 -77 -13.5t-66.5 -37.5t-49.5 -57.5t-27 -73.5q0 -48 15.5 -87.5t43.5 -68t67.5 -44.5t87.5 -16q44 0 82 14t65.5 39.5
t43.5 62.5t16 82q0 43 -15 80t-42 63.5t-64 41.5t-80 15z" />
    <glyph glyph-name="uni0432" unicode="&#x432;" horiz-adv-x="513" 
d="M83 0v500h224q70 0 107.5 -36t37.5 -93q0 -81 -70 -112q46 -13 70.5 -46t24.5 -78q0 -60 -38.5 -97.5t-113.5 -37.5h-242zM119 239v-206h206q55 0 85.5 27.5t30.5 76.5q0 48 -30.5 75t-85.5 27h-206zM307 272q52 0 81 26t29 72q0 45 -29 71t-81 26h-188v-195h188z" />
    <glyph glyph-name="uni0433" unicode="&#x433;" horiz-adv-x="403" 
d="M390 500v-33h-271v-467h-36v500h307z" />
    <glyph glyph-name="uni0434" unicode="&#x434;" horiz-adv-x="590" 
d="M27 33h55q57 79 57 213v254h344v-467h70v-167h-35v134h-456v-134h-35v167zM448 33v434h-273v-221q0 -130 -49 -213h322z" />
    <glyph glyph-name="uni0435" unicode="&#x435;" horiz-adv-x="594" 
d="M307 -11q-58 0 -105.5 19.5t-82 54t-53.5 82.5t-19 105q0 55 18.5 103t52.5 83t81 55t103 20q55 0 100.5 -21t78 -57t50.5 -84t18 -101q0 -14 -1 -17h-465q3 -47 21 -85.5t47.5 -65.5t69 -42t86.5 -15q63 0 111.5 26t72.5 71l31 -18q-30 -52 -86.5 -82.5t-128.5 -30.5z
M513 264q-3 44 -19 83t-43 68t-65 45.5t-84 16.5q-47 0 -86.5 -16t-68.5 -44t-46 -67.5t-19 -85.5h431z" />
    <glyph glyph-name="uni0436" unicode="&#x436;" 
d="M275 260l-238 240h44l228 -230v230h35v-230l228 230h44l-239 -240l249 -260h-44l-238 250v-250h-35v250l-238 -250h-44z" />
    <glyph glyph-name="uni0437" unicode="&#x437;" horiz-adv-x="445" 
d="M228 -11q-152 0 -191 117l29 17q31 -100 162 -100q67 0 106 30t39 79q0 48 -34 77.5t-91 29.5h-64v33h46q55 0 86.5 28t31.5 74q0 45 -36 74t-93 29q-54 0 -91 -23t-53 -63l-29 17q20 48 63.5 75.5t109.5 27.5q30 0 59.5 -8.5t53 -25.5t38 -42t14.5 -59q0 -39 -20 -70.5
t-58 -46.5q49 -13 75.5 -47.5t26.5 -80.5q0 -37 -16 -64t-41.5 -44t-57.5 -25.5t-65 -8.5z" />
    <glyph glyph-name="uni0438" unicode="&#x438;" horiz-adv-x="573" 
d="M83 0v500h36v-440l339 440h32v-500h-35v440l-340 -440h-32z" />
    <glyph glyph-name="uni0439" unicode="&#x439;" horiz-adv-x="573" 
d="M119 500v-440l339 440h32v-500h-35v440l-340 -440h-32v500h36zM411 624v-30h-247v30h247z" />
    <glyph glyph-name="uni043A" unicode="&#x43a;" horiz-adv-x="472" 
d="M83 0v500h36v-230l268 230h48l-279 -240l289 -260h-48l-278 249v-249h-36z" />
    <glyph glyph-name="uni043B" unicode="&#x43b;" horiz-adv-x="570" 
d="M17 33q4 0 7.5 -0.5t6.5 -0.5q56 0 82 41.5t26 132.5v294h348v-500h-36v467h-276v-261q0 -207 -140 -207h-9t-9 1v33v0z" />
    <glyph glyph-name="uni043C" unicode="&#x43c;" horiz-adv-x="643" 
d="M83 500h44l195 -299l195 299h43v-500h-35v451l-200 -309h-7l-199 307v-449h-36v500z" />
    <glyph glyph-name="uni043D" unicode="&#x43d;" horiz-adv-x="573" 
d="M119 500v-233h336v233h35v-500h-35v233h-336v-233h-36v500h36z" />
    <glyph glyph-name="uni043E" unicode="&#x43e;" horiz-adv-x="617" 
d="M308 -11q-56 0 -103.5 20t-82.5 55t-55 82.5t-20 103.5q0 55 20 102.5t55.5 82.5t83 55.5t102.5 20.5t103 -20t83 -55.5t55.5 -83t20.5 -102.5q0 -56 -20 -103.5t-55.5 -82.5t-83.5 -55t-103 -20zM82 250q0 -48 17 -89.5t47.5 -72t72 -48t89.5 -17.5t89.5 17.5t72 48
t48 72t17.5 89.5t-17.5 89t-48.5 72t-72 48.5t-89 17.5t-89.5 -17.5t-71.5 -48t-47.5 -72t-17.5 -89.5z" />
    <glyph glyph-name="uni043F" unicode="&#x43f;" horiz-adv-x="573" 
d="M83 0v500h407v-500h-35v467h-336v-467h-36z" />
    <glyph glyph-name="uni0440" unicode="&#x440;" 
d="M83 500h36v-133q31 66 90.5 105t137.5 39q108 0 184 -76t76 -185q0 -55 -20 -102.5t-55 -83t-82.5 -55.5t-102.5 -20q-78 0 -137.5 39t-90.5 105v-333h-36v700zM345 477q-48 0 -89.5 -17.5t-71.5 -48t-47.5 -72t-17.5 -89.5t17 -89.5t47.5 -72t72 -48t89.5 -17.5
t89.5 17.5t71.5 48t47.5 72t17.5 89.5t-17.5 89t-48 72t-71.5 48.5t-89 17.5z" />
    <glyph glyph-name="uni0441" unicode="&#x441;" horiz-adv-x="570" 
d="M47 250q0 56 20 103.5t55 82.5t82.5 55t103.5 20q73 0 132 -34t87 -91l-29 -17q-24 49 -75 78.5t-115 29.5q-48 0 -89.5 -17.5t-71.5 -48t-47.5 -72t-17.5 -89.5t17 -89.5t47.5 -72t72 -48t89.5 -17.5q64 0 114.5 29.5t76.5 78.5l29 -17q-15 -29 -37.5 -52t-51 -39
t-62 -25t-69.5 -9q-56 0 -103.5 20t-82.5 55t-55 82.5t-20 103.5z" />
    <glyph glyph-name="uni0442" unicode="&#x442;" horiz-adv-x="440" 
d="M17 467v33h406v-33h-185v-467h-36v467h-185z" />
    <glyph glyph-name="uni0443" unicode="&#x443;" horiz-adv-x="510" 
d="M53 500l216 -473l188 473h36l-217 -546q-28 -71 -76.5 -113t-106.5 -42q-3 0 -6 0.5t-6 0.5v33q3 0 6 -0.5t6 -0.5q47 0 85.5 35t63.5 95l10 22l-235 516h36z" />
    <glyph glyph-name="uni0444" unicode="&#x444;" horiz-adv-x="670" 
d="M317 -12q-56 3 -105 22.5t-86 53t-58 81t-21 105.5t21 105.5t58 81t86 53t105 22.5v188h36v-188q56 -3 105 -22.5t86 -53t58 -81t21 -105.5t-21 -105.5t-58 -81t-86 -53t-105 -22.5v-188h-36v188zM353 21q49 3 91.5 20t74.5 46.5t50.5 70.5t18.5 92t-18.5 92t-50.5 70.5
t-74.5 46.5t-91.5 20v-458zM317 479q-49 -3 -91.5 -20t-74.5 -46.5t-50.5 -70.5t-18.5 -92t18.5 -92t50.5 -70.5t74.5 -46.5t91.5 -20v458z" />
    <glyph glyph-name="uni0445" unicode="&#x445;" horiz-adv-x="503" 
d="M27 0l204 257l-193 243h42l172 -216l171 216h43l-193 -243l204 -257h-43l-182 230l-182 -230h-43z" />
    <glyph glyph-name="uni0446" unicode="&#x446;" horiz-adv-x="597" 
d="M119 500v-467h326v467h35v-467h80v-167h-35v134h-442v500h36z" />
    <glyph glyph-name="uni0447" unicode="&#x447;" horiz-adv-x="543" 
d="M63 500h36v-167q0 -66 42 -100t121 -34q85 0 163 36v265h35v-500h-35v202q-75 -35 -163 -35q-94 0 -146.5 43.5t-52.5 122.5v167z" />
    <glyph glyph-name="uni0448" unicode="&#x448;" horiz-adv-x="823" 
d="M83 500h36v-467h275v467h35v-467h276v467h35v-500h-657v500z" />
    <glyph glyph-name="uni0449" unicode="&#x449;" horiz-adv-x="847" 
d="M83 0v500h36v-467h275v467h35v-467h276v467h35v-467h70v-167h-35v134h-692z" />
    <glyph glyph-name="uni044A" unicode="&#x44a;" horiz-adv-x="540" 
d="M0 467v33h182v-198h158q33 0 62.5 -10.5t52 -30t35.5 -47.5t13 -62q0 -35 -13 -63t-35 -47.5t-52 -30.5t-63 -11h-193v467h-147zM182 269v-236h158q27 0 50.5 9t41 24.5t27 37.5t9.5 48q0 25 -9.5 46.5t-27 37.5t-41 24.5t-50.5 8.5h-158z" />
    <glyph glyph-name="uni044B" unicode="&#x44b;" horiz-adv-x="642" 
d="M83 500h36v-198h157q33 0 62.5 -10.5t52 -30t36 -47.5t13.5 -62q0 -35 -13 -63t-35.5 -48t-52.5 -30.5t-63 -10.5h-193v500zM119 269v-236h157q27 0 51 9t41 24.5t27 37.5t10 48q0 25 -10 46.5t-27 37.5t-41 24.5t-51 8.5h-157zM523 500h36v-500h-36v500z" />
    <glyph glyph-name="uni044C" unicode="&#x44c;" horiz-adv-x="477" 
d="M83 500h36v-198h157q33 0 62.5 -10.5t52 -30t36 -47.5t13.5 -62q0 -35 -13 -63t-35.5 -48t-52.5 -30.5t-63 -10.5h-193v500zM119 269v-236h157q27 0 51 9t41 24.5t27 37.5t10 48q0 25 -10 46.5t-27 37.5t-41 24.5t-51 8.5h-157z" />
    <glyph glyph-name="uni044D" unicode="&#x44d;" horiz-adv-x="559" 
d="M63 132q24 -51 74.5 -80t119.5 -29q46 0 85.5 15.5t68.5 43t46 66t19 85.5h-267v34h267q-2 46 -19 84.5t-45.5 66.5t-68 43.5t-85.5 15.5q-67 0 -118 -29t-75 -80l-30 18q29 58 88 91.5t135 33.5q57 0 104 -19.5t80 -54.5t51.5 -83t18.5 -104t-18.5 -104t-52 -83
t-80.5 -54.5t-104 -19.5q-78 0 -137.5 34t-86.5 92z" />
    <glyph glyph-name="uni044E" unicode="&#x44e;" horiz-adv-x="807" 
d="M83 0v500h36v-233h120q3 52 24 97t56 77.5t80.5 51t98.5 18.5q55 0 103 -20t83 -55.5t55.5 -83t20.5 -102.5q0 -56 -20 -103.5t-55.5 -82.5t-83.5 -55t-103 -20q-52 0 -96.5 17t-82.5 53q-74 71 -80 174h-120v-233h-36zM498 477q-48 0 -89.5 -17.5t-71.5 -48t-47.5 -72
t-17.5 -89.5t17 -89.5t47.5 -72t72 -48t89.5 -17.5t89.5 17.5t72 48t48 72t17.5 89.5t-17.5 89t-48.5 72t-72 48.5t-89 17.5z" />
    <glyph glyph-name="uni044F" unicode="&#x44f;" horiz-adv-x="500" 
d="M209 200q-32 3 -59 14.5t-47 30.5t-31.5 45t-11.5 58q0 34 13 62t35.5 48t52.5 31t63 11h193v-500h-36v199h-130l-159 -199h-45zM95 348q0 -26 10 -47t27 -37t41 -24.5t51 -8.5h157v236h-157q-27 0 -51 -9t-41 -24.5t-27 -37.5t-10 -48z" />
    <glyph glyph-name="uni0451" unicode="&#x451;" horiz-adv-x="594" 
d="M47 250q0 55 18.5 103t52.5 83t81 55t103 20q55 0 100.5 -21t78 -57t50.5 -84t18 -101q0 -14 -1 -17h-465q3 -47 21 -85.5t47.5 -65.5t69 -42t86.5 -15q63 0 111.5 26t72.5 71l31 -18q-30 -52 -86.5 -82.5t-128.5 -30.5q-58 0 -105.5 19.5t-82 54t-53.5 82.5t-19 105z
M513 264q-3 44 -19 83t-43 68t-65 45.5t-84 16.5q-47 0 -86.5 -16t-68.5 -44t-46 -67.5t-19 -85.5h431zM381 578q-11 0 -19.5 8.5t-8.5 20.5q0 11 8.5 19.5t19.5 8.5q12 0 20.5 -8.5t8.5 -19.5q0 -12 -8.5 -20.5t-20.5 -8.5zM183 607q0 11 8.5 19.5t19.5 8.5q12 0 20.5 -8.5
t8.5 -19.5q0 -12 -8.5 -20.5t-20.5 -8.5q-11 0 -19.5 8.5t-8.5 20.5z" />
    <glyph glyph-name="uni0452" unicode="&#x452;" horiz-adv-x="586" 
d="M23 589v29h77v82h35v-82h168v-29h-168v-202q26 61 75 92.5t115 31.5q44 0 79.5 -14.5t60.5 -40.5t38.5 -62.5t13.5 -79.5v-387q0 -67 -33.5 -103t-97.5 -36h-11t-11 1v34q6 -1 12 -1h11q94 0 94 105v387q0 73 -42 118t-117 45q-42 0 -76 -14.5t-59 -41.5t-38.5 -66.5
t-13.5 -88.5v-266h-35v589h-77z" />
    <glyph glyph-name="uni0453" unicode="&#x453;" horiz-adv-x="403" 
d="M301 693l-88 -123h-33l80 123h41zM390 500v-33h-271v-467h-36v500h307z" />
    <glyph glyph-name="uni0454" unicode="&#x454;" horiz-adv-x="559" 
d="M47 250q0 56 18.5 104t51.5 83t80 54.5t104 19.5q76 0 135 -33.5t88 -91.5l-30 -18q-24 51 -75 80t-118 29q-47 0 -86 -15.5t-67.5 -43t-45.5 -66.5t-19 -85h267v-34h-267q2 -47 19 -85.5t46 -66t68 -43t86 -15.5q69 0 119.5 29t74.5 80l30 -17q-27 -58 -86.5 -92
t-137.5 -34q-58 0 -105 19.5t-80.5 54t-51.5 82.5t-18 105z" />
    <glyph glyph-name="uni0455" unicode="&#x455;" horiz-adv-x="461" 
d="M79 115q32 -92 159 -92q61 0 101 29.5t40 78.5q0 41 -32.5 64t-78.5 33q-33 8 -69 16.5t-66 23.5t-49 39t-19 63q0 35 14.5 61.5t38 44t54 26.5t62.5 9q60 0 103 -26.5t62 -71.5l-29 -17q-16 39 -52 60t-84 21q-58 0 -95.5 -29.5t-37.5 -77.5q0 -20 9 -35.5t24 -27
t35 -19.5t43 -14q33 -7 69 -15.5t66 -23.5t49 -40t19 -64q0 -36 -15.5 -62.5t-41 -44.5t-57 -26.5t-63.5 -8.5q-148 0 -188 109z" />
    <glyph glyph-name="uni0456" unicode="&#x456;" horiz-adv-x="202" 
d="M119 500v-500h-36v500h36zM70 667q0 16 10 23.5t21 7.5q12 0 21.5 -7.5t9.5 -23.5q0 -12 -9 -21.5t-22 -9.5t-22 9.5t-9 21.5z" />
    <glyph glyph-name="uni0457" unicode="&#x457;" horiz-adv-x="202" 
d="M83 500h36v-500h-36v500zM158 607q0 11 8.5 19.5t19.5 8.5q12 0 20.5 -8.5t8.5 -19.5q0 -12 -8.5 -20.5t-20.5 -8.5q-11 0 -19.5 8.5t-8.5 20.5zM16 578q-11 0 -19.5 8.5t-8.5 20.5q0 11 8.5 19.5t19.5 8.5q12 0 20.5 -8.5t8.5 -19.5q0 -12 -8.5 -20.5t-20.5 -8.5z" />
    <glyph glyph-name="uni0458" unicode="&#x458;" horiz-adv-x="216" 
d="M133 -73q0 -67 -33.5 -103t-97.5 -36h-11t-11 1v34q6 -1 12 -1h11q94 0 94 105v573h36v-573zM84 667q0 16 10 23.5t21 7.5q12 0 21.5 -7.5t9.5 -23.5q0 -12 -9 -21.5t-22 -9.5t-22 9.5t-9 21.5z" />
    <glyph glyph-name="uni0459" unicode="&#x459;" horiz-adv-x="816" 
d="M175 206q0 -207 -140 -207h-9t-9 1v33q4 0 7.5 -0.5t6.5 -0.5q56 0 82 41.5t26 132.5v294h338v-218h149q33 0 61 -9.5t49 -27.5t32.5 -44t11.5 -59t-12 -59.5t-33 -45t-49 -28t-60 -9.5h-185v467h-266v-261zM477 249v-216h149q52 0 85 29t33 80t-33 79t-85 28h-149z" />
    <glyph glyph-name="uni045A" unicode="&#x45a;" horiz-adv-x="803" 
d="M77 0v500h35v-218h316v218h35v-218h150q33 0 61 -9.5t48.5 -27.5t32 -44t11.5 -59t-11.5 -59.5t-32 -44.5t-48.5 -28t-61 -10h-185v249h-316v-249h-35zM463 249v-216h150q52 0 85 29t33 80t-33 79t-85 28h-150z" />
    <glyph glyph-name="uni045B" unicode="&#x45b;" horiz-adv-x="586" 
d="M100 618v82h35v-82h168v-29h-168v-202q26 61 75 92.5t115 31.5q44 0 79.5 -14.5t60.5 -40.5t38.5 -62.5t13.5 -79.5v-314h-36v314q0 73 -42 118t-117 45q-42 0 -76 -14.5t-59 -41.5t-38.5 -66.5t-13.5 -88.5v-266h-35v589h-77v29h77z" />
    <glyph glyph-name="uni045C" unicode="&#x45c;" horiz-adv-x="472" 
d="M83 0v500h36v-230l268 230h48l-279 -240l289 -260h-48l-278 249v-249h-36zM286 693h41l-88 -123h-33z" />
    <glyph glyph-name="uni045E" unicode="&#x45e;" horiz-adv-x="510" 
d="M17 500h36l216 -473l188 473h36l-217 -546q-28 -71 -76.5 -113t-106.5 -42q-3 0 -6 0.5t-6 0.5v33q3 0 6 -0.5t6 -0.5q47 0 85.5 35t63.5 95l10 22zM140 594v30h247v-30h-247z" />
    <glyph glyph-name="uni045F" unicode="&#x45f;" horiz-adv-x="573" 
d="M83 500h36v-467h336v467h35v-500h-186v-134h-35v134h-186v500z" />
    <glyph glyph-name="uni0490" unicode="&#x490;" horiz-adv-x="497" 
d="M433 820h37v-154h-340v-666h-37v700h340v120z" />
    <glyph glyph-name="uni0491" unicode="&#x491;" horiz-adv-x="403" 
d="M355 604h35v-137h-271v-467h-36v500h272v104z" />
    <glyph glyph-name="Wgrave" unicode="&#x1e80;" horiz-adv-x="987" 
d="M75 700l187 -652l210 652h43l209 -652l188 652h38l-203 -700h-44l-210 653l-209 -653h-44l-203 700h38zM405 893l80 -123h-33l-88 123h41z" />
    <glyph glyph-name="wgrave" unicode="&#x1e81;" horiz-adv-x="770" 
d="M37 500h36l144 -454l149 454h38l149 -454l144 454h36l-160 -500h-39l-149 452l-149 -452h-39zM342 693l80 -123h-33l-88 123h41z" />
    <glyph glyph-name="Wacute" unicode="&#x1e82;" horiz-adv-x="987" 
d="M75 700l187 -652l210 652h43l209 -652l188 652h38l-203 -700h-44l-210 653l-209 -653h-44l-203 700h38zM536 893l-88 -123h-33l80 123h41z" />
    <glyph glyph-name="wacute" unicode="&#x1e83;" horiz-adv-x="770" 
d="M37 500h36l144 -454l149 454h38l149 -454l144 454h36l-160 -500h-39l-149 452l-149 -452h-39zM432 693h41l-88 -123h-33z" />
    <glyph glyph-name="Wdieresis" unicode="&#x1e84;" horiz-adv-x="987" 
d="M37 700h38l187 -652l210 652h43l209 -652l188 652h38l-203 -700h-44l-210 653l-209 -653h-44zM533 778q-11 0 -19.5 8.5t-8.5 20.5q0 11 8.5 19.5t19.5 8.5q12 0 20.5 -8.5t8.5 -19.5q0 -12 -8.5 -20.5t-20.5 -8.5zM363 778q-11 0 -19.5 8.5t-8.5 20.5q0 11 8.5 19.5
t19.5 8.5q12 0 20.5 -8.5t8.5 -19.5q0 -12 -8.5 -20.5t-20.5 -8.5z" />
    <glyph glyph-name="wdieresis" unicode="&#x1e85;" horiz-adv-x="770" 
d="M37 500h36l144 -454l149 454h38l149 -454l144 454h36l-160 -500h-39l-149 452l-149 -452h-39zM470 578q-11 0 -19.5 8.5t-8.5 20.5q0 11 8.5 19.5t19.5 8.5q12 0 20.5 -8.5t8.5 -19.5q0 -12 -8.5 -20.5t-20.5 -8.5zM300 578q-11 0 -19.5 8.5t-8.5 20.5q0 11 8.5 19.5
t19.5 8.5q12 0 20.5 -8.5t8.5 -19.5q0 -12 -8.5 -20.5t-20.5 -8.5z" />
    <glyph glyph-name="uni1EA0" unicode="&#x1ea0;" horiz-adv-x="629" 
d="M294 700h40l275 -700h-39l-72 185h-367l-72 -185h-39zM485 219l-171 438l-170 -438h341zM309 -150q-13 0 -22 9.5t-9 21.5q0 15 10 23t21 8q12 0 21.5 -8t9.5 -23q0 -12 -9 -21.5t-22 -9.5z" />
    <glyph glyph-name="uni1EA1" unicode="&#x1ea1;" 
d="M307 -11q-55 0 -102.5 20t-82.5 55.5t-55 83t-20 102.5q0 54 20 102t55 83t82.5 55.5t102.5 20.5q76 0 137 -39.5t91 -105.5v134h35v-500h-35v134q-30 -66 -91 -105.5t-137 -39.5zM308 477q-48 0 -89.5 -17.5t-71.5 -48t-47.5 -72t-17.5 -89.5t17 -89.5t47.5 -72t72 -48
t89.5 -17.5t89.5 17.5t72 48t48 72t17.5 89.5t-17.5 89t-48.5 72t-72 48.5t-89 17.5zM310 -150q-13 0 -22 9.5t-9 21.5q0 15 10 23t21 8q12 0 21.5 -8t9.5 -23q0 -12 -9 -21.5t-22 -9.5z" />
    <glyph glyph-name="uni1EA2" unicode="&#x1ea2;" horiz-adv-x="629" 
d="M20 0l274 700h40l275 -700h-39l-72 185h-367l-72 -185h-39zM144 219h341l-171 438zM260 872q-3 2 -8.5 4.5t-15.5 8.5q11 22 32 35t47 13q28 0 52.5 -15.5t24.5 -48.5q0 -21 -9.5 -34t-21.5 -22.5t-22.5 -19t-11.5 -23.5h-29q2 21 12.5 32.5t22 20.5t21 18.5t9.5 26.5
t-12 28t-36 11q-18 0 -31 -9t-24 -26z" />
    <glyph glyph-name="uni1EA3" unicode="&#x1ea3;" 
d="M307 -11q-55 0 -102.5 20t-82.5 55.5t-55 83t-20 102.5q0 54 20 102t55 83t82.5 55.5t102.5 20.5q76 0 137 -39.5t91 -105.5v134h35v-500h-35v134q-30 -66 -91 -105.5t-137 -39.5zM308 477q-48 0 -89.5 -17.5t-71.5 -48t-47.5 -72t-17.5 -89.5t17 -89.5t47.5 -72t72 -48
t89.5 -17.5t89.5 17.5t72 48t48 72t17.5 89.5t-17.5 89t-48.5 72t-72 48.5t-89 17.5zM266 672q-3 2 -8.5 4.5t-15.5 8.5q11 22 32 35t47 13q28 0 52.5 -15.5t24.5 -48.5q0 -21 -9.5 -34t-21.5 -22.5t-22.5 -19t-11.5 -23.5h-29q2 21 12.5 32.5t22 20.5t21 18.5t9.5 26.5
t-12 28t-36 11q-18 0 -31 -9t-24 -26z" />
    <glyph glyph-name="uni1EA4" unicode="&#x1ea4;" horiz-adv-x="629" 
d="M294 700h40l275 -700h-39l-72 185h-367l-72 -185h-39zM144 219h341l-171 438zM295 884h38l102 -114h-37l-85 95l-84 -95h-37zM488 963h38l-82 -114h-30z" />
    <glyph glyph-name="uni1EA5" unicode="&#x1ea5;" 
d="M307 -11q-55 0 -102.5 20t-82.5 55.5t-55 83t-20 102.5q0 54 20 102t55 83t82.5 55.5t102.5 20.5q76 0 137 -39.5t91 -105.5v134h35v-500h-35v134q-30 -66 -91 -105.5t-137 -39.5zM308 477q-48 0 -89.5 -17.5t-71.5 -48t-47.5 -72t-17.5 -89.5t17 -89.5t47.5 -72t72 -48
t89.5 -17.5t89.5 17.5t72 48t48 72t17.5 89.5t-17.5 89t-48.5 72t-72 48.5t-89 17.5zM298 684h38l102 -114h-37l-85 95l-84 -95h-37zM491 763h38l-82 -114h-30z" />
    <glyph glyph-name="uni1EA6" unicode="&#x1ea6;" horiz-adv-x="629" 
d="M294 700h40l275 -700h-39l-72 185h-367l-72 -185h-39zM144 219h341l-171 438zM295 884h38l102 -114h-37l-85 95l-84 -95h-37zM386 963l75 -114h-31l-82 114h38z" />
    <glyph glyph-name="uni1EA7" unicode="&#x1ea7;" 
d="M307 -11q-55 0 -102.5 20t-82.5 55.5t-55 83t-20 102.5q0 54 20 102t55 83t82.5 55.5t102.5 20.5q76 0 137 -39.5t91 -105.5v134h35v-500h-35v134q-30 -66 -91 -105.5t-137 -39.5zM308 477q-48 0 -89.5 -17.5t-71.5 -48t-47.5 -72t-17.5 -89.5t17 -89.5t47.5 -72t72 -48
t89.5 -17.5t89.5 17.5t72 48t48 72t17.5 89.5t-17.5 89t-48.5 72t-72 48.5t-89 17.5zM298 684h38l102 -114h-37l-85 95l-84 -95h-37zM351 763h38l75 -114h-31z" />
    <glyph glyph-name="uni1EA8" unicode="&#x1ea8;" horiz-adv-x="629" 
d="M294 700h40l275 -700h-39l-72 185h-367l-72 -185h-39zM485 219l-171 438l-170 -438h341zM192 770l103 114h38l102 -114h-37l-85 95l-84 -95h-37zM376 944q-2 2 -7.5 4.5t-14.5 7.5q11 20 30.5 32.5t43.5 12.5q26 0 48.5 -14.5t22.5 -45.5q0 -20 -9 -32t-20 -21
t-20.5 -17.5t-10.5 -21.5h-27q2 19 11.5 30t20.5 19.5t19.5 17.5t8.5 24q0 17 -10.5 27t-33.5 10q-32 0 -52 -33z" />
    <glyph glyph-name="uni1EA9" unicode="&#x1ea9;" 
d="M47 250q0 54 20 102t55 83t82.5 55.5t102.5 20.5q76 0 137 -39.5t91 -105.5v134h35v-500h-35v134q-30 -66 -91 -105.5t-137 -39.5q-55 0 -102.5 20t-82.5 55.5t-55 83t-20 102.5zM82 250q0 -48 17 -89.5t47.5 -72t72 -48t89.5 -17.5t89.5 17.5t72 48t48 72t17.5 89.5
t-17.5 89t-48.5 72t-72 48.5t-89 17.5t-89.5 -17.5t-71.5 -48t-47.5 -72t-17.5 -89.5zM298 684h38l102 -114h-37l-85 95l-84 -95h-37zM379 744q-2 2 -7.5 4.5t-14.5 7.5q11 20 30.5 32.5t43.5 12.5q26 0 48.5 -14.5t22.5 -45.5q0 -20 -9 -32t-20 -21t-20.5 -17.5
t-10.5 -21.5h-27q2 19 11.5 30t20.5 19.5t19.5 17.5t8.5 24q0 17 -10.5 27t-33.5 10q-32 0 -52 -33z" />
    <glyph glyph-name="uni1EAA" unicode="&#x1eaa;" horiz-adv-x="629" 
d="M20 0l274 700h40l275 -700h-39l-72 185h-367l-72 -185h-39zM485 219l-171 438l-170 -438h341zM188 914q0 15 2.5 31t9.5 29.5t18.5 22t29.5 8.5q30 0 67 -34q36 -33 58 -33q32 0 32 61h29q0 -15 -2.5 -30.5t-9.5 -29t-18 -22t-29 -8.5q-28 0 -67 34q-36 33 -58 33
q-33 0 -33 -62h-29zM295 884h38l102 -114h-37l-85 95l-84 -95h-37z" />
    <glyph glyph-name="uni1EAB" unicode="&#x1eab;" 
d="M307 -11q-55 0 -102.5 20t-82.5 55.5t-55 83t-20 102.5q0 54 20 102t55 83t82.5 55.5t102.5 20.5q76 0 137 -39.5t91 -105.5v134h35v-500h-35v134q-30 -66 -91 -105.5t-137 -39.5zM308 477q-48 0 -89.5 -17.5t-71.5 -48t-47.5 -72t-17.5 -89.5t17 -89.5t47.5 -72t72 -48
t89.5 -17.5t89.5 17.5t72 48t48 72t17.5 89.5t-17.5 89t-48.5 72t-72 48.5t-89 17.5zM191 714q0 15 2.5 31t9.5 29.5t18.5 22t29.5 8.5q30 0 67 -34q36 -33 58 -33q32 0 32 61h29q0 -15 -2.5 -30.5t-9.5 -29t-18 -22t-29 -8.5q-28 0 -67 34q-36 33 -58 33q-33 0 -33 -62h-29
zM298 684h38l102 -114h-37l-85 95l-84 -95h-37z" />
    <glyph glyph-name="uni1EAC" unicode="&#x1eac;" horiz-adv-x="629" 
d="M20 0l274 700h40l275 -700h-39l-72 185h-367l-72 -185h-39zM144 219h341l-171 438zM192 770l103 114h38l102 -114h-37l-85 95l-84 -95h-37zM278 -119q0 15 10 23t21 8q12 0 21.5 -8t9.5 -23q0 -12 -9 -21.5t-22 -9.5t-22 9.5t-9 21.5z" />
    <glyph glyph-name="uni1EAD" unicode="&#x1ead;" 
d="M307 -11q-55 0 -102.5 20t-82.5 55.5t-55 83t-20 102.5q0 54 20 102t55 83t82.5 55.5t102.5 20.5q76 0 137 -39.5t91 -105.5v134h35v-500h-35v134q-30 -66 -91 -105.5t-137 -39.5zM82 250q0 -48 17 -89.5t47.5 -72t72 -48t89.5 -17.5t89.5 17.5t72 48t48 72t17.5 89.5
t-17.5 89t-48.5 72t-72 48.5t-89 17.5t-89.5 -17.5t-71.5 -48t-47.5 -72t-17.5 -89.5zM195 570l103 114h38l102 -114h-37l-85 95l-84 -95h-37zM310 -150q-13 0 -22 9.5t-9 21.5q0 15 10 23t21 8q12 0 21.5 -8t9.5 -23q0 -12 -9 -21.5t-22 -9.5z" />
    <glyph glyph-name="uni1EAE" unicode="&#x1eae;" horiz-adv-x="629" 
d="M294 700h40l275 -700h-39l-72 185h-367l-72 -185h-39zM485 219l-171 438l-170 -438h341zM314 769q-54 0 -86 28.5t-32 76.5h32q0 -36 23 -56.5t63 -20.5t63.5 20.5t23.5 56.5h31q0 -48 -32 -76.5t-86 -28.5zM293 900l74 114h38l-82 -114h-30z" />
    <glyph glyph-name="uni1EAF" unicode="&#x1eaf;" 
d="M307 -11q-55 0 -102.5 20t-82.5 55.5t-55 83t-20 102.5q0 54 20 102t55 83t82.5 55.5t102.5 20.5q76 0 137 -39.5t91 -105.5v134h35v-500h-35v134q-30 -66 -91 -105.5t-137 -39.5zM82 250q0 -48 17 -89.5t47.5 -72t72 -48t89.5 -17.5t89.5 17.5t72 48t48 72t17.5 89.5
t-17.5 89t-48.5 72t-72 48.5t-89 17.5t-89.5 -17.5t-71.5 -48t-47.5 -72t-17.5 -89.5zM324 569q-54 0 -86 28.5t-32 76.5h32q0 -36 23 -56.5t63 -20.5t63.5 20.5t23.5 56.5h31q0 -48 -32 -76.5t-86 -28.5zM377 814h38l-82 -114h-30z" />
    <glyph glyph-name="uni1EB0" unicode="&#x1eb0;" horiz-adv-x="629" 
d="M294 700h40l275 -700h-39l-72 185h-367l-72 -185h-39zM485 219l-171 438l-170 -438h341zM314 769q-54 0 -86 28.5t-32 76.5h32q0 -36 23 -56.5t63 -20.5t63.5 20.5t23.5 56.5h31q0 -48 -32 -76.5t-86 -28.5zM268 1014l75 -114h-31l-82 114h38z" />
    <glyph glyph-name="uni1EB1" unicode="&#x1eb1;" 
d="M307 -11q-55 0 -102.5 20t-82.5 55.5t-55 83t-20 102.5q0 54 20 102t55 83t82.5 55.5t102.5 20.5q76 0 137 -39.5t91 -105.5v134h35v-500h-35v134q-30 -66 -91 -105.5t-137 -39.5zM82 250q0 -48 17 -89.5t47.5 -72t72 -48t89.5 -17.5t89.5 17.5t72 48t48 72t17.5 89.5
t-17.5 89t-48.5 72t-72 48.5t-89 17.5t-89.5 -17.5t-71.5 -48t-47.5 -72t-17.5 -89.5zM238 674q0 -36 23 -56.5t63 -20.5t63.5 20.5t23.5 56.5h31q0 -48 -32 -76.5t-86 -28.5t-86 28.5t-32 76.5h32zM240 814h38l75 -114h-31z" />
    <glyph glyph-name="uni1EB2" unicode="&#x1eb2;" horiz-adv-x="629" 
d="M294 700h40l275 -700h-39l-72 185h-367l-72 -185h-39zM144 219h341l-171 438zM228 874q0 -36 23 -56.5t63 -20.5t63.5 20.5t23.5 56.5h31q0 -48 -32 -76.5t-86 -28.5t-86 28.5t-32 76.5h32zM247 1006q11 20 30.5 32.5t43.5 12.5q26 0 48.5 -14.5t22.5 -45.5q0 -20 -9 -32
t-20 -21t-20.5 -17.5t-10.5 -21.5h-27q2 19 11.5 30t20.5 19.5t19.5 17.5t8.5 24q0 17 -10.5 27t-33.5 10q-32 0 -52 -33q-2 2 -7.5 4.5t-14.5 7.5z" />
    <glyph glyph-name="uni1EB3" unicode="&#x1eb3;" 
d="M307 -11q-55 0 -102.5 20t-82.5 55.5t-55 83t-20 102.5q0 54 20 102t55 83t82.5 55.5t102.5 20.5q76 0 137 -39.5t91 -105.5v134h35v-500h-35v134q-30 -66 -91 -105.5t-137 -39.5zM308 477q-48 0 -89.5 -17.5t-71.5 -48t-47.5 -72t-17.5 -89.5t17 -89.5t47.5 -72t72 -48
t89.5 -17.5t89.5 17.5t72 48t48 72t17.5 89.5t-17.5 89t-48.5 72t-72 48.5t-89 17.5zM238 674q0 -36 23 -56.5t63 -20.5t63.5 20.5t23.5 56.5h31q0 -48 -32 -76.5t-86 -28.5t-86 28.5t-32 76.5h32zM257 807q11 20 30.5 32.5t43.5 12.5q26 0 48.5 -14.5t22.5 -45.5
q0 -20 -9 -32t-20 -21t-20.5 -17.5t-10.5 -21.5h-27q2 19 11.5 30t20.5 19.5t19.5 17.5t8.5 24q0 17 -10.5 27t-33.5 10q-32 0 -52 -33q-2 2 -7.5 4.5t-14.5 7.5z" />
    <glyph glyph-name="uni1EB4" unicode="&#x1eb4;" horiz-adv-x="629" 
d="M294 700h40l275 -700h-39l-72 185h-367l-72 -185h-39zM485 219l-171 438l-170 -438h341zM314 769q-54 0 -86 28.5t-32 76.5h32q0 -36 23 -56.5t63 -20.5t63.5 20.5t23.5 56.5h31q0 -48 -32 -76.5t-86 -28.5zM195 904q0 15 2.5 31t9.5 29.5t18.5 22t29.5 8.5q30 0 67 -34
q36 -33 58 -33q32 0 32 61h29q0 -15 -2.5 -30.5t-9.5 -29t-18 -22t-29 -8.5q-28 0 -67 34q-36 33 -58 33q-33 0 -33 -62h-29z" />
    <glyph glyph-name="uni1EB5" unicode="&#x1eb5;" 
d="M47 250q0 54 20 102t55 83t82.5 55.5t102.5 20.5q76 0 137 -39.5t91 -105.5v134h35v-500h-35v134q-30 -66 -91 -105.5t-137 -39.5q-55 0 -102.5 20t-82.5 55.5t-55 83t-20 102.5zM82 250q0 -48 17 -89.5t47.5 -72t72 -48t89.5 -17.5t89.5 17.5t72 48t48 72t17.5 89.5
t-17.5 89t-48.5 72t-72 48.5t-89 17.5t-89.5 -17.5t-71.5 -48t-47.5 -72t-17.5 -89.5zM238 674q0 -36 23 -56.5t63 -20.5t63.5 20.5t23.5 56.5h31q0 -48 -32 -76.5t-86 -28.5t-86 28.5t-32 76.5h32zM205 704q0 15 2.5 31t9.5 29.5t18.5 22t29.5 8.5q30 0 67 -34
q36 -33 58 -33q32 0 32 61h29q0 -15 -2.5 -30.5t-9.5 -29t-18 -22t-29 -8.5q-28 0 -67 34q-36 33 -58 33q-33 0 -33 -62h-29z" />
    <glyph glyph-name="uni1EB6" unicode="&#x1eb6;" horiz-adv-x="629" 
d="M294 700h40l275 -700h-39l-72 185h-367l-72 -185h-39zM485 219l-171 438l-170 -438h341zM228 874q0 -36 23 -56.5t63 -20.5t63.5 20.5t23.5 56.5h31q0 -48 -32 -76.5t-86 -28.5t-86 28.5t-32 76.5h32zM309 -150q-13 0 -22 9.5t-9 21.5q0 15 10 23t21 8q12 0 21.5 -8
t9.5 -23q0 -12 -9 -21.5t-22 -9.5z" />
    <glyph glyph-name="uni1EB7" unicode="&#x1eb7;" 
d="M47 250q0 54 20 102t55 83t82.5 55.5t102.5 20.5q76 0 137 -39.5t91 -105.5v134h35v-500h-35v134q-30 -66 -91 -105.5t-137 -39.5q-55 0 -102.5 20t-82.5 55.5t-55 83t-20 102.5zM308 477q-48 0 -89.5 -17.5t-71.5 -48t-47.5 -72t-17.5 -89.5t17 -89.5t47.5 -72t72 -48
t89.5 -17.5t89.5 17.5t72 48t48 72t17.5 89.5t-17.5 89t-48.5 72t-72 48.5t-89 17.5zM324 569q-54 0 -86 28.5t-32 76.5h32q0 -36 23 -56.5t63 -20.5t63.5 20.5t23.5 56.5h31q0 -48 -32 -76.5t-86 -28.5zM310 -150q-13 0 -22 9.5t-9 21.5q0 15 10 23t21 8q12 0 21.5 -8
t9.5 -23q0 -12 -9 -21.5t-22 -9.5z" />
    <glyph glyph-name="uni1EB8" unicode="&#x1eb8;" horiz-adv-x="537" 
d="M93 700h392v-34h-355v-296h330v-34h-330v-302h360v-34h-397v700zM259 -119q0 15 10 23t21 8q12 0 21.5 -8t9.5 -23q0 -12 -9 -21.5t-22 -9.5t-22 9.5t-9 21.5z" />
    <glyph glyph-name="uni1EB9" unicode="&#x1eb9;" horiz-adv-x="594" 
d="M47 250q0 55 18.5 103t52.5 83t81 55t103 20q55 0 100.5 -21t78 -57t50.5 -84t18 -101q0 -14 -1 -17h-465q3 -47 21 -85.5t47.5 -65.5t69 -42t86.5 -15q63 0 111.5 26t72.5 71l31 -18q-30 -52 -86.5 -82.5t-128.5 -30.5q-58 0 -105.5 19.5t-82 54t-53.5 82.5t-19 105z
M302 477q-47 0 -86.5 -16t-68.5 -44t-46 -67.5t-19 -85.5h431q-3 44 -19 83t-43 68t-65 45.5t-84 16.5zM305 -150q-13 0 -22 9.5t-9 21.5q0 15 10 23t21 8q12 0 21.5 -8t9.5 -23q0 -12 -9 -21.5t-22 -9.5z" />
    <glyph glyph-name="uni1EBA" unicode="&#x1eba;" horiz-adv-x="537" 
d="M93 0v700h392v-34h-355v-296h330v-34h-330v-302h360v-34h-397zM226 885q11 22 32 35t47 13q28 0 52.5 -15.5t24.5 -48.5q0 -21 -9.5 -34t-21.5 -22.5t-22.5 -19t-11.5 -23.5h-29q2 21 12.5 32.5t22 20.5t21 18.5t9.5 26.5t-12 28t-36 11q-18 0 -31 -9t-24 -26
q-3 2 -8.5 4.5t-15.5 8.5z" />
    <glyph glyph-name="uni1EBB" unicode="&#x1ebb;" horiz-adv-x="594" 
d="M307 -11q-58 0 -105.5 19.5t-82 54t-53.5 82.5t-19 105q0 55 18.5 103t52.5 83t81 55t103 20q55 0 100.5 -21t78 -57t50.5 -84t18 -101q0 -14 -1 -17h-465q3 -47 21 -85.5t47.5 -65.5t69 -42t86.5 -15q63 0 111.5 26t72.5 71l31 -18q-30 -52 -86.5 -82.5t-128.5 -30.5z
M513 264q-3 44 -19 83t-43 68t-65 45.5t-84 16.5q-47 0 -86.5 -16t-68.5 -44t-46 -67.5t-19 -85.5h431zM249 672q-3 2 -8.5 4.5t-15.5 8.5q11 22 32 35t47 13q28 0 52.5 -15.5t24.5 -48.5q0 -21 -9.5 -34t-21.5 -22.5t-22.5 -19t-11.5 -23.5h-29q2 21 12.5 32.5t22 20.5
t21 18.5t9.5 26.5t-12 28t-36 11q-18 0 -31 -9t-24 -26z" />
    <glyph glyph-name="uni1EBC" unicode="&#x1ebc;" horiz-adv-x="537" 
d="M93 700h392v-34h-355v-296h330v-34h-330v-302h360v-34h-397v700zM157 787q0 16 2.5 33.5t10 31.5t20 23.5t32.5 9.5q33 0 71 -37q36 -35 62 -35q35 0 35 66h31q0 -16 -2.5 -33t-10 -31.5t-20 -24t-31.5 -9.5q-33 0 -71 37q-19 18 -35 26.5t-28 8.5q-35 0 -35 -66h-31z
" />
    <glyph glyph-name="uni1EBD" unicode="&#x1ebd;" horiz-adv-x="594" 
d="M307 -11q-58 0 -105.5 19.5t-82 54t-53.5 82.5t-19 105q0 55 18.5 103t52.5 83t81 55t103 20q55 0 100.5 -21t78 -57t50.5 -84t18 -101q0 -14 -1 -17h-465q3 -47 21 -85.5t47.5 -65.5t69 -42t86.5 -15q63 0 111.5 26t72.5 71l31 -18q-30 -52 -86.5 -82.5t-128.5 -30.5z
M513 264q-3 44 -19 83t-43 68t-65 45.5t-84 16.5q-47 0 -86.5 -16t-68.5 -44t-46 -67.5t-19 -85.5h431zM164 587q0 16 2.5 33.5t10 31.5t20 23.5t32.5 9.5q33 0 71 -37q36 -35 62 -35q35 0 35 66h31q0 -16 -2.5 -33t-10 -31.5t-20 -24t-31.5 -9.5q-33 0 -71 37
q-19 18 -35 26.5t-28 8.5q-35 0 -35 -66h-31z" />
    <glyph glyph-name="uni1EBE" unicode="&#x1ebe;" horiz-adv-x="537" 
d="M93 700h392v-34h-355v-296h330v-34h-330v-302h360v-34h-397v700zM166 770l103 114h38l102 -114h-37l-85 95l-84 -95h-37zM388 849l74 114h38l-82 -114h-30z" />
    <glyph glyph-name="uni1EBF" unicode="&#x1ebf;" horiz-adv-x="594" 
d="M307 -11q-58 0 -105.5 19.5t-82 54t-53.5 82.5t-19 105q0 55 18.5 103t52.5 83t81 55t103 20q55 0 100.5 -21t78 -57t50.5 -84t18 -101q0 -14 -1 -17h-465q3 -47 21 -85.5t47.5 -65.5t69 -42t86.5 -15q63 0 111.5 26t72.5 71l31 -18q-30 -52 -86.5 -82.5t-128.5 -30.5z
M302 477q-47 0 -86.5 -16t-68.5 -44t-46 -67.5t-19 -85.5h431q-3 44 -19 83t-43 68t-65 45.5t-84 16.5zM284 684h38l102 -114h-37l-85 95l-84 -95h-37zM477 763h38l-82 -114h-30z" />
    <glyph glyph-name="uni1EC0" unicode="&#x1ec0;" horiz-adv-x="537" 
d="M93 700h392v-34h-355v-296h330v-34h-330v-302h360v-34h-397v700zM166 770l103 114h38l102 -114h-37l-85 95l-84 -95h-37zM360 963l75 -114h-31l-82 114h38z" />
    <glyph glyph-name="uni1EC1" unicode="&#x1ec1;" horiz-adv-x="594" 
d="M307 -11q-58 0 -105.5 19.5t-82 54t-53.5 82.5t-19 105q0 55 18.5 103t52.5 83t81 55t103 20q55 0 100.5 -21t78 -57t50.5 -84t18 -101q0 -14 -1 -17h-465q3 -47 21 -85.5t47.5 -65.5t69 -42t86.5 -15q63 0 111.5 26t72.5 71l31 -18q-30 -52 -86.5 -82.5t-128.5 -30.5z
M302 477q-47 0 -86.5 -16t-68.5 -44t-46 -67.5t-19 -85.5h431q-3 44 -19 83t-43 68t-65 45.5t-84 16.5zM284 684h38l102 -114h-37l-85 95l-84 -95h-37zM337 763h38l75 -114h-31z" />
    <glyph glyph-name="uni1EC2" unicode="&#x1ec2;" horiz-adv-x="537" 
d="M485 700v-34h-355v-296h330v-34h-330v-302h360v-34h-397v700h392zM166 770l103 114h38l102 -114h-37l-85 95l-84 -95h-37zM328 956q11 20 30.5 32.5t43.5 12.5q26 0 48.5 -14.5t22.5 -45.5q0 -20 -9 -32t-20 -21t-20.5 -17.5t-10.5 -21.5h-27q2 19 11.5 30t20.5 19.5
t19.5 17.5t8.5 24q0 17 -10.5 27t-33.5 10q-32 0 -52 -33q-2 2 -7.5 4.5t-14.5 7.5z" />
    <glyph glyph-name="uni1EC3" unicode="&#x1ec3;" horiz-adv-x="594" 
d="M307 -11q-58 0 -105.5 19.5t-82 54t-53.5 82.5t-19 105q0 55 18.5 103t52.5 83t81 55t103 20q55 0 100.5 -21t78 -57t50.5 -84t18 -101q0 -14 -1 -17h-465q3 -47 21 -85.5t47.5 -65.5t69 -42t86.5 -15q63 0 111.5 26t72.5 71l31 -18q-30 -52 -86.5 -82.5t-128.5 -30.5z
M302 477q-47 0 -86.5 -16t-68.5 -44t-46 -67.5t-19 -85.5h431q-3 44 -19 83t-43 68t-65 45.5t-84 16.5zM284 684h38l102 -114h-37l-85 95l-84 -95h-37zM343 756q11 20 30.5 32.5t43.5 12.5q26 0 48.5 -14.5t22.5 -45.5q0 -20 -9 -32t-20 -21t-20.5 -17.5t-10.5 -21.5h-27
q2 19 11.5 30t20.5 19.5t19.5 17.5t8.5 24q0 17 -10.5 27t-33.5 10q-32 0 -52 -33q-2 2 -7.5 4.5t-14.5 7.5z" />
    <glyph glyph-name="uni1EC4" unicode="&#x1ec4;" horiz-adv-x="537" 
d="M93 700h392v-34h-355v-296h330v-34h-330v-302h360v-34h-397v700zM162 914q0 15 2.5 31t9.5 29.5t18.5 22t29.5 8.5q30 0 67 -34q36 -33 58 -33q32 0 32 61h29q0 -15 -2.5 -30.5t-9.5 -29t-18 -22t-29 -8.5q-28 0 -67 34q-36 33 -58 33q-33 0 -33 -62h-29zM166 770
l103 114h38l102 -114h-37l-85 95l-84 -95h-37z" />
    <glyph glyph-name="uni1EC5" unicode="&#x1ec5;" horiz-adv-x="594" 
d="M307 -11q-58 0 -105.5 19.5t-82 54t-53.5 82.5t-19 105q0 55 18.5 103t52.5 83t81 55t103 20q55 0 100.5 -21t78 -57t50.5 -84t18 -101q0 -14 -1 -17h-465q3 -47 21 -85.5t47.5 -65.5t69 -42t86.5 -15q63 0 111.5 26t72.5 71l31 -18q-30 -52 -86.5 -82.5t-128.5 -30.5z
M302 477q-47 0 -86.5 -16t-68.5 -44t-46 -67.5t-19 -85.5h431q-3 44 -19 83t-43 68t-65 45.5t-84 16.5zM177 714q0 15 2.5 31t9.5 29.5t18.5 22t29.5 8.5q30 0 67 -34q36 -33 58 -33q32 0 32 61h29q0 -15 -2.5 -30.5t-9.5 -29t-18 -22t-29 -8.5q-28 0 -67 34q-36 33 -58 33
q-33 0 -33 -62h-29zM181 570l103 114h38l102 -114h-37l-85 95l-84 -95h-37z" />
    <glyph glyph-name="uni1EC6" unicode="&#x1ec6;" horiz-adv-x="537" 
d="M485 700v-34h-355v-296h330v-34h-330v-302h360v-34h-397v700h392zM166 770l103 114h38l102 -114h-37l-85 95l-84 -95h-37zM290 -150q-13 0 -22 9.5t-9 21.5q0 15 10 23t21 8q12 0 21.5 -8t9.5 -23q0 -12 -9 -21.5t-22 -9.5z" />
    <glyph glyph-name="uni1EC7" unicode="&#x1ec7;" horiz-adv-x="594" 
d="M307 -11q-58 0 -105.5 19.5t-82 54t-53.5 82.5t-19 105q0 55 18.5 103t52.5 83t81 55t103 20q55 0 100.5 -21t78 -57t50.5 -84t18 -101q0 -14 -1 -17h-465q3 -47 21 -85.5t47.5 -65.5t69 -42t86.5 -15q63 0 111.5 26t72.5 71l31 -18q-30 -52 -86.5 -82.5t-128.5 -30.5z
M513 264q-3 44 -19 83t-43 68t-65 45.5t-84 16.5q-47 0 -86.5 -16t-68.5 -44t-46 -67.5t-19 -85.5h431zM284 684h38l102 -114h-37l-85 95l-84 -95h-37zM305 -150q-13 0 -22 9.5t-9 21.5q0 15 10 23t21 8q12 0 21.5 -8t9.5 -23q0 -12 -9 -21.5t-22 -9.5z" />
    <glyph glyph-name="uni1EC8" unicode="&#x1ec8;" horiz-adv-x="223" 
d="M93 700h37v-700h-37v700zM58 872q-3 2 -8.5 4.5t-15.5 8.5q11 22 32 35t47 13q28 0 52.5 -15.5t24.5 -48.5q0 -21 -9.5 -34t-21.5 -22.5t-22.5 -19t-11.5 -23.5h-29q2 21 12.5 32.5t22 20.5t21 18.5t9.5 26.5t-12 28t-36 11q-18 0 -31 -9t-24 -26z" />
    <glyph glyph-name="uni1EC9" unicode="&#x1ec9;" horiz-adv-x="202" 
d="M83 0v500h36v-500h-36zM47 672q-3 2 -8.5 4.5t-15.5 8.5q11 22 32 35t47 13q28 0 52.5 -15.5t24.5 -48.5q0 -21 -9.5 -34t-21.5 -22.5t-22.5 -19t-11.5 -23.5h-29q2 21 12.5 32.5t22 20.5t21 18.5t9.5 26.5t-12 28t-36 11q-18 0 -31 -9t-24 -26z" />
    <glyph glyph-name="uni1ECA" unicode="&#x1eca;" horiz-adv-x="223" 
d="M130 700v-700h-37v700h37zM112 -150q-13 0 -22 9.5t-9 21.5q0 15 10 23t21 8q12 0 21.5 -8t9.5 -23q0 -12 -9 -21.5t-22 -9.5z" />
    <glyph glyph-name="uni1ECB" unicode="&#x1ecb;" horiz-adv-x="202" 
d="M119 500v-500h-36v500h36zM70 -119q0 15 10 23t21 8q12 0 21.5 -8t9.5 -23q0 -12 -9 -21.5t-22 -9.5t-22 9.5t-9 21.5zM101 589q-13 0 -22 9.5t-9 21.5q0 16 10 23.5t21 7.5q12 0 21.5 -7.5t9.5 -23.5q0 -12 -9 -21.5t-22 -9.5z" />
    <glyph glyph-name="uni1ECC" unicode="&#x1ecc;" horiz-adv-x="828" 
d="M414 -11q-76 0 -142 28t-114.5 76.5t-76.5 114.5t-28 142q0 75 28 141t77 115t115 77t141 28t141 -28.5t114.5 -77t77 -114.5t28.5 -141t-28 -141t-77 -115t-115 -77t-141 -28zM414 676q-68 0 -127.5 -25.5t-103 -69.5t-68.5 -103.5t-25 -127.5t25 -127.5t68.5 -103.5
t102.5 -69.5t128 -25.5q68 0 127.5 25.5t103 69.5t68.5 103.5t25 127.5q0 67 -25.5 126.5t-69 104t-103 70t-126.5 25.5zM382 -119q0 15 10 23t21 8q12 0 21.5 -8t9.5 -23q0 -12 -9 -21.5t-22 -9.5t-22 9.5t-9 21.5z" />
    <glyph glyph-name="uni1ECD" unicode="&#x1ecd;" horiz-adv-x="617" 
d="M308 -11q-56 0 -103.5 20t-82.5 55t-55 82.5t-20 103.5q0 55 20 102.5t55.5 82.5t83 55.5t102.5 20.5t103 -20t83 -55.5t55.5 -83t20.5 -102.5q0 -56 -20 -103.5t-55.5 -82.5t-83.5 -55t-103 -20zM82 250q0 -48 17 -89.5t47.5 -72t72 -48t89.5 -17.5t89.5 17.5t72 48
t48 72t17.5 89.5t-17.5 89t-48.5 72t-72 48.5t-89 17.5t-89.5 -17.5t-71.5 -48t-47.5 -72t-17.5 -89.5zM276 -119q0 15 10 23t21 8q12 0 21.5 -8t9.5 -23q0 -12 -9 -21.5t-22 -9.5t-22 9.5t-9 21.5z" />
    <glyph glyph-name="uni1ECE" unicode="&#x1ece;" horiz-adv-x="828" 
d="M53 350q0 75 28 141t77 115t115 77t141 28t141 -28.5t114.5 -77t77 -114.5t28.5 -141t-28 -141t-77 -115t-115 -77t-141 -28q-76 0 -142 28t-114.5 76.5t-76.5 114.5t-28 142zM414 676q-68 0 -127.5 -25.5t-103 -69.5t-68.5 -103.5t-25 -127.5t25 -127.5t68.5 -103.5
t102.5 -69.5t128 -25.5q68 0 127.5 25.5t103 69.5t68.5 103.5t25 127.5q0 67 -25.5 126.5t-69 104t-103 70t-126.5 25.5zM337 885q11 22 32 35t47 13q28 0 52.5 -15.5t24.5 -48.5q0 -21 -9.5 -34t-21.5 -22.5t-22.5 -19t-11.5 -23.5h-29q2 21 12.5 32.5t22 20.5t21 18.5
t9.5 26.5t-12 28t-36 11q-18 0 -31 -9t-24 -26q-3 2 -8.5 4.5t-15.5 8.5z" />
    <glyph glyph-name="uni1ECF" unicode="&#x1ecf;" horiz-adv-x="617" 
d="M47 250q0 55 20 102.5t55.5 82.5t83 55.5t102.5 20.5t103 -20t83 -55.5t55.5 -83t20.5 -102.5q0 -56 -20 -103.5t-55.5 -82.5t-83.5 -55t-103 -20q-56 0 -103.5 20t-82.5 55.5t-55 83t-20 102.5zM82 250q0 -48 17 -89.5t47.5 -72t72 -48t89.5 -17.5t89.5 17.5t72 48
t48 72t17.5 89.5t-17.5 89t-48.5 72t-72 48.5t-89 17.5t-89.5 -17.5t-71.5 -48t-47.5 -72t-17.5 -89.5zM233 685q11 22 32 35t47 13q28 0 52.5 -15.5t24.5 -48.5q0 -21 -9.5 -34t-21.5 -22.5t-22.5 -19t-11.5 -23.5h-29q2 21 12.5 32.5t22 20.5t21 18.5t9.5 26.5t-12 28
t-36 11q-18 0 -31 -9t-24 -26q-3 2 -8.5 4.5t-15.5 8.5z" />
    <glyph glyph-name="uni1ED0" unicode="&#x1ed0;" horiz-adv-x="828" 
d="M53 350q0 75 28 141t77 115t115 77t141 28t141 -28.5t114.5 -77t77 -114.5t28.5 -141t-28 -141t-77 -115t-115 -77t-141 -28q-76 0 -142 28t-114.5 76.5t-76.5 114.5t-28 142zM90 350q0 -68 25 -127.5t68.5 -103.5t102.5 -69.5t128 -25.5q68 0 127.5 25.5t103 69.5
t68.5 103.5t25 127.5q0 67 -25.5 126.5t-69 104t-103 70t-126.5 25.5q-68 0 -127.5 -25.5t-103 -69.5t-68.5 -103.5t-25 -127.5zM395 884h38l102 -114h-37l-85 95l-84 -95h-37zM514 849l74 114h38l-82 -114h-30z" />
    <glyph glyph-name="uni1ED1" unicode="&#x1ed1;" horiz-adv-x="617" 
d="M308 -11q-56 0 -103.5 20t-82.5 55t-55 82.5t-20 103.5q0 55 20 102.5t55.5 82.5t83 55.5t102.5 20.5t103 -20t83 -55.5t55.5 -83t20.5 -102.5q0 -56 -20 -103.5t-55.5 -82.5t-83.5 -55t-103 -20zM82 250q0 -48 17 -89.5t47.5 -72t72 -48t89.5 -17.5t89.5 17.5t72 48
t48 72t17.5 89.5t-17.5 89t-48.5 72t-72 48.5t-89 17.5t-89.5 -17.5t-71.5 -48t-47.5 -72t-17.5 -89.5zM188 570l103 114h38l102 -114h-37l-85 95l-84 -95h-37zM410 649l74 114h38l-82 -114h-30z" />
    <glyph glyph-name="uni1ED2" unicode="&#x1ed2;" horiz-adv-x="828" 
d="M53 350q0 75 28 141t77 115t115 77t141 28t141 -28.5t114.5 -77t77 -114.5t28.5 -141t-28 -141t-77 -115t-115 -77t-141 -28q-76 0 -142 28t-114.5 76.5t-76.5 114.5t-28 142zM90 350q0 -68 25 -127.5t68.5 -103.5t102.5 -69.5t128 -25.5q68 0 127.5 25.5t103 69.5
t68.5 103.5t25 127.5q0 67 -25.5 126.5t-69 104t-103 70t-126.5 25.5q-68 0 -127.5 -25.5t-103 -69.5t-68.5 -103.5t-25 -127.5zM292 770l103 114h38l102 -114h-37l-85 95l-84 -95h-37zM448 963h38l75 -114h-31z" />
    <glyph glyph-name="uni1ED3" unicode="&#x1ed3;" horiz-adv-x="617" 
d="M308 -11q-56 0 -103.5 20t-82.5 55t-55 82.5t-20 103.5q0 55 20 102.5t55.5 82.5t83 55.5t102.5 20.5t103 -20t83 -55.5t55.5 -83t20.5 -102.5q0 -56 -20 -103.5t-55.5 -82.5t-83.5 -55t-103 -20zM308 477q-48 0 -89.5 -17.5t-71.5 -48t-47.5 -72t-17.5 -89.5t17 -89.5
t47.5 -72t72 -48t89.5 -17.5t89.5 17.5t72 48t48 72t17.5 89.5t-17.5 89t-48.5 72t-72 48.5t-89 17.5zM188 570l103 114h38l102 -114h-37l-85 95l-84 -95h-37zM344 763h38l75 -114h-31z" />
    <glyph glyph-name="uni1ED4" unicode="&#x1ed4;" horiz-adv-x="828" 
d="M53 350q0 75 28 141t77 115t115 77t141 28t141 -28.5t114.5 -77t77 -114.5t28.5 -141t-28 -141t-77 -115t-115 -77t-141 -28q-76 0 -142 28t-114.5 76.5t-76.5 114.5t-28 142zM90 350q0 -68 25 -127.5t68.5 -103.5t102.5 -69.5t128 -25.5q68 0 127.5 25.5t103 69.5
t68.5 103.5t25 127.5q0 67 -25.5 126.5t-69 104t-103 70t-126.5 25.5q-68 0 -127.5 -25.5t-103 -69.5t-68.5 -103.5t-25 -127.5zM395 884h38l102 -114h-37l-85 95l-84 -95h-37zM476 944q-2 2 -7.5 4.5t-14.5 7.5q11 20 30.5 32.5t43.5 12.5q26 0 48.5 -14.5t22.5 -45.5
q0 -20 -9 -32t-20 -21t-20.5 -17.5t-10.5 -21.5h-27q2 19 11.5 30t20.5 19.5t19.5 17.5t8.5 24q0 17 -10.5 27t-33.5 10q-32 0 -52 -33z" />
    <glyph glyph-name="uni1ED5" unicode="&#x1ed5;" horiz-adv-x="617" 
d="M308 -11q-56 0 -103.5 20t-82.5 55t-55 82.5t-20 103.5q0 55 20 102.5t55.5 82.5t83 55.5t102.5 20.5t103 -20t83 -55.5t55.5 -83t20.5 -102.5q0 -56 -20 -103.5t-55.5 -82.5t-83.5 -55t-103 -20zM82 250q0 -48 17 -89.5t47.5 -72t72 -48t89.5 -17.5t89.5 17.5t72 48
t48 72t17.5 89.5t-17.5 89t-48.5 72t-72 48.5t-89 17.5t-89.5 -17.5t-71.5 -48t-47.5 -72t-17.5 -89.5zM291 684h38l102 -114h-37l-85 95l-84 -95h-37zM372 744q-2 2 -7.5 4.5t-14.5 7.5q11 20 30.5 32.5t43.5 12.5q26 0 48.5 -14.5t22.5 -45.5q0 -20 -9 -32t-20 -21
t-20.5 -17.5t-10.5 -21.5h-27q2 19 11.5 30t20.5 19.5t19.5 17.5t8.5 24q0 17 -10.5 27t-33.5 10q-32 0 -52 -33z" />
    <glyph glyph-name="uni1ED6" unicode="&#x1ed6;" horiz-adv-x="828" 
d="M53 350q0 75 28 141t77 115t115 77t141 28t141 -28.5t114.5 -77t77 -114.5t28.5 -141t-28 -141t-77 -115t-115 -77t-141 -28q-76 0 -142 28t-114.5 76.5t-76.5 114.5t-28 142zM90 350q0 -68 25 -127.5t68.5 -103.5t102.5 -69.5t128 -25.5q68 0 127.5 25.5t103 69.5
t68.5 103.5t25 127.5q0 67 -25.5 126.5t-69 104t-103 70t-126.5 25.5q-68 0 -127.5 -25.5t-103 -69.5t-68.5 -103.5t-25 -127.5zM288 914q0 15 2.5 31t9.5 29.5t18.5 22t29.5 8.5q30 0 67 -34q36 -33 58 -33q32 0 32 61h29q0 -15 -2.5 -30.5t-9.5 -29t-18 -22t-29 -8.5
q-28 0 -67 34q-36 33 -58 33q-33 0 -33 -62h-29zM292 770l103 114h38l102 -114h-37l-85 95l-84 -95h-37z" />
    <glyph glyph-name="uni1ED7" unicode="&#x1ed7;" horiz-adv-x="617" 
d="M308 -11q-56 0 -103.5 20t-82.5 55t-55 82.5t-20 103.5q0 55 20 102.5t55.5 82.5t83 55.5t102.5 20.5t103 -20t83 -55.5t55.5 -83t20.5 -102.5q0 -56 -20 -103.5t-55.5 -82.5t-83.5 -55t-103 -20zM82 250q0 -48 17 -89.5t47.5 -72t72 -48t89.5 -17.5t89.5 17.5t72 48
t48 72t17.5 89.5t-17.5 89t-48.5 72t-72 48.5t-89 17.5t-89.5 -17.5t-71.5 -48t-47.5 -72t-17.5 -89.5zM184 714q0 15 2.5 31t9.5 29.5t18.5 22t29.5 8.5q30 0 67 -34q36 -33 58 -33q32 0 32 61h29q0 -15 -2.5 -30.5t-9.5 -29t-18 -22t-29 -8.5q-28 0 -67 34q-36 33 -58 33
q-33 0 -33 -62h-29zM188 570l103 114h38l102 -114h-37l-85 95l-84 -95h-37z" />
    <glyph glyph-name="uni1ED8" unicode="&#x1ed8;" horiz-adv-x="828" 
d="M53 350q0 75 28 141t77 115t115 77t141 28t141 -28.5t114.5 -77t77 -114.5t28.5 -141t-28 -141t-77 -115t-115 -77t-141 -28q-76 0 -142 28t-114.5 76.5t-76.5 114.5t-28 142zM414 676q-68 0 -127.5 -25.5t-103 -69.5t-68.5 -103.5t-25 -127.5t25 -127.5t68.5 -103.5
t102.5 -69.5t128 -25.5q68 0 127.5 25.5t103 69.5t68.5 103.5t25 127.5q0 67 -25.5 126.5t-69 104t-103 70t-126.5 25.5zM395 884h38l102 -114h-37l-85 95l-84 -95h-37zM413 -150q-13 0 -22 9.5t-9 21.5q0 15 10 23t21 8q12 0 21.5 -8t9.5 -23q0 -12 -9 -21.5t-22 -9.5z" />
    <glyph glyph-name="uni1ED9" unicode="&#x1ed9;" horiz-adv-x="617" 
d="M308 -11q-56 0 -103.5 20t-82.5 55t-55 82.5t-20 103.5q0 55 20 102.5t55.5 82.5t83 55.5t102.5 20.5t103 -20t83 -55.5t55.5 -83t20.5 -102.5q0 -56 -20 -103.5t-55.5 -82.5t-83.5 -55t-103 -20zM308 477q-48 0 -89.5 -17.5t-71.5 -48t-47.5 -72t-17.5 -89.5t17 -89.5
t47.5 -72t72 -48t89.5 -17.5t89.5 17.5t72 48t48 72t17.5 89.5t-17.5 89t-48.5 72t-72 48.5t-89 17.5zM179 570l110 123h41l110 -123h-40l-91 102l-90 -102h-40zM307 -150q-13 0 -22 9.5t-9 21.5q0 15 10 23t21 8q12 0 21.5 -8t9.5 -23q0 -12 -9 -21.5t-22 -9.5z" />
    <glyph glyph-name="uni1EDA" unicode="&#x1eda;" horiz-adv-x="828" 
d="M53 350q0 75 28 141t77 115t115 77t141 28q46 0 92 -11q35 0 52.5 20t17.5 55h36q0 -38 -14.5 -60.5t-37.5 -33.5q49 -21 88.5 -55.5t67.5 -78t43.5 -94t15.5 -103.5q0 -75 -28 -141t-77 -115t-115 -77t-141 -28q-76 0 -142 28t-114.5 76.5t-76.5 114.5t-28 142zM90 350
q0 -68 25 -127.5t68.5 -103.5t102.5 -69.5t128 -25.5q68 0 127.5 25.5t103 69.5t68.5 103.5t25 127.5q0 67 -25.5 126.5t-69 104t-103 70t-126.5 25.5q-68 0 -127.5 -25.5t-103 -69.5t-68.5 -103.5t-25 -127.5zM377 770l80 123h41l-88 -123h-33z" />
    <glyph glyph-name="uni1EDB" unicode="&#x1edb;" horiz-adv-x="617" 
d="M47 250q0 55 20 102.5t55.5 82.5t83 55.5t102.5 20.5q40 0 79 -11h1q11 0 22.5 4t20.5 13t15 23t6 35h36q0 -38 -15 -61t-39 -34q65 -34 100.5 -95.5t35.5 -134.5q0 -56 -20 -103.5t-55.5 -82.5t-83.5 -55t-103 -20q-56 0 -103.5 20t-82.5 55.5t-55 83t-20 102.5zM82 250
q0 -48 17 -89.5t47.5 -72t72 -48t89.5 -17.5t89.5 17.5t72 48t48 72t17.5 89.5t-17.5 89t-48.5 72t-72 48.5t-89 17.5t-89.5 -17.5t-71.5 -48t-47.5 -72t-17.5 -89.5zM275 570l80 123h41l-88 -123h-33z" />
    <glyph glyph-name="uni1EDC" unicode="&#x1edc;" horiz-adv-x="828" 
d="M53 350q0 75 28 141t77 115t115 77t141 28q46 0 92 -11q35 0 52.5 20t17.5 55h36q0 -38 -14.5 -60.5t-37.5 -33.5q49 -21 88.5 -55.5t67.5 -78t43.5 -94t15.5 -103.5q0 -75 -28 -141t-77 -115t-115 -77t-141 -28q-76 0 -142 28t-114.5 76.5t-76.5 114.5t-28 142zM90 350
q0 -68 25 -127.5t68.5 -103.5t102.5 -69.5t128 -25.5q68 0 127.5 25.5t103 69.5t68.5 103.5t25 127.5q0 67 -25.5 126.5t-69 104t-103 70t-126.5 25.5q-68 0 -127.5 -25.5t-103 -69.5t-68.5 -103.5t-25 -127.5zM327 893h41l80 -123h-33z" />
    <glyph glyph-name="uni1EDD" unicode="&#x1edd;" horiz-adv-x="617" 
d="M47 250q0 55 20 102.5t55.5 82.5t83 55.5t102.5 20.5q40 0 79 -11h1q11 0 22.5 4t20.5 13t15 23t6 35h36q0 -38 -15 -61t-39 -34q65 -34 100.5 -95.5t35.5 -134.5q0 -56 -20 -103.5t-55.5 -82.5t-83.5 -55t-103 -20q-56 0 -103.5 20t-82.5 55.5t-55 83t-20 102.5zM82 250
q0 -48 17 -89.5t47.5 -72t72 -48t89.5 -17.5t89.5 17.5t72 48t48 72t17.5 89.5t-17.5 89t-48.5 72t-72 48.5t-89 17.5t-89.5 -17.5t-71.5 -48t-47.5 -72t-17.5 -89.5zM221 693h41l80 -123h-33z" />
    <glyph glyph-name="uni1EDE" unicode="&#x1ede;" horiz-adv-x="828" 
d="M53 350q0 75 28 141t77 115t115 77t141 28q46 0 92 -11q35 0 52.5 20t17.5 55h36q0 -38 -14.5 -60.5t-37.5 -33.5q49 -21 88.5 -55.5t67.5 -78t43.5 -94t15.5 -103.5q0 -75 -28 -141t-77 -115t-115 -77t-141 -28q-76 0 -142 28t-114.5 76.5t-76.5 114.5t-28 142zM90 350
q0 -68 25 -127.5t68.5 -103.5t102.5 -69.5t128 -25.5q68 0 127.5 25.5t103 69.5t68.5 103.5t25 127.5q0 67 -25.5 126.5t-69 104t-103 70t-126.5 25.5q-68 0 -127.5 -25.5t-103 -69.5t-68.5 -103.5t-25 -127.5zM337 885q11 22 32 35t47 13q28 0 52.5 -15.5t24.5 -48.5
q0 -21 -9.5 -34t-21.5 -22.5t-22.5 -19t-11.5 -23.5h-29q2 21 12.5 32.5t22 20.5t21 18.5t9.5 26.5t-12 28t-36 11q-18 0 -31 -9t-24 -26q-3 2 -8.5 4.5t-15.5 8.5z" />
    <glyph glyph-name="uni1EDF" unicode="&#x1edf;" horiz-adv-x="617" 
d="M47 250q0 55 20 102.5t55.5 82.5t83 55.5t102.5 20.5q40 0 79 -11h1q11 0 22.5 4t20.5 13t15 23t6 35h36q0 -38 -15 -61t-39 -34q65 -34 100.5 -95.5t35.5 -134.5q0 -56 -20 -103.5t-55.5 -82.5t-83.5 -55t-103 -20q-56 0 -103.5 20t-82.5 55.5t-55 83t-20 102.5zM82 250
q0 -48 17 -89.5t47.5 -72t72 -48t89.5 -17.5t89.5 17.5t72 48t48 72t17.5 89.5t-17.5 89t-48.5 72t-72 48.5t-89 17.5t-89.5 -17.5t-71.5 -48t-47.5 -72t-17.5 -89.5zM257 672q-3 2 -8.5 4.5t-15.5 8.5q11 22 32 35t47 13q28 0 52.5 -15.5t24.5 -48.5q0 -21 -9.5 -34
t-21.5 -22.5t-22.5 -19t-11.5 -23.5h-29q2 21 12.5 32.5t22 20.5t21 18.5t9.5 26.5t-12 28t-36 11q-18 0 -31 -9t-24 -26z" />
    <glyph glyph-name="uni1EE0" unicode="&#x1ee0;" horiz-adv-x="828" 
d="M414 -11q-76 0 -142 28t-114.5 76.5t-76.5 114.5t-28 142q0 75 28 141t77 115t115 77t141 28q46 0 92 -11q35 0 52.5 20t17.5 55h36q0 -38 -14.5 -60.5t-37.5 -33.5q49 -21 88.5 -55.5t67.5 -78t43.5 -94t15.5 -103.5q0 -75 -28 -141t-77 -115t-115 -77t-141 -28zM90 350
q0 -68 25 -127.5t68.5 -103.5t102.5 -69.5t128 -25.5q68 0 127.5 25.5t103 69.5t68.5 103.5t25 127.5q0 67 -25.5 126.5t-69 104t-103 70t-126.5 25.5q-68 0 -127.5 -25.5t-103 -69.5t-68.5 -103.5t-25 -127.5zM282 787q0 16 3 33.5t10 31.5t19.5 23.5t32.5 9.5q31 0 71 -37
q36 -35 62 -35q35 0 35 66h31q0 -15 -3 -32.5t-10 -32t-19.5 -24t-31.5 -9.5q-33 0 -71 37q-19 18 -35 26.5t-28 8.5q-35 0 -35 -66h-31z" />
    <glyph glyph-name="uni1EE1" unicode="&#x1ee1;" horiz-adv-x="617" 
d="M47 250q0 55 20 102.5t55.5 82.5t83 55.5t102.5 20.5q40 0 79 -11h1q11 0 22.5 4t20.5 13t15 23t6 35h36q0 -38 -15 -61t-39 -34q65 -34 100.5 -95.5t35.5 -134.5q0 -56 -20 -103.5t-55.5 -82.5t-83.5 -55t-103 -20q-56 0 -103.5 20t-82.5 55.5t-55 83t-20 102.5zM82 250
q0 -48 17 -89.5t47.5 -72t72 -48t89.5 -17.5t89.5 17.5t72 48t48 72t17.5 89.5t-17.5 89t-48.5 72t-72 48.5t-89 17.5t-89.5 -17.5t-71.5 -48t-47.5 -72t-17.5 -89.5zM171 587q0 16 3 33.5t10 31.5t19.5 23.5t32.5 9.5q31 0 71 -37q37 -35 61 -35q36 0 36 66h31
q0 -15 -3 -32.5t-10 -32t-19.5 -24t-31.5 -9.5q-33 0 -71 37q-19 18 -35 26.5t-28 8.5q-35 0 -35 -66h-31z" />
    <glyph glyph-name="uni1EE2" unicode="&#x1ee2;" horiz-adv-x="828" 
d="M414 -11q-76 0 -142 28t-114.5 76.5t-76.5 114.5t-28 142q0 75 28 141t77 115t115 77t141 28q46 0 92 -11q35 0 52.5 20t17.5 55h36q0 -38 -14.5 -60.5t-37.5 -33.5q49 -21 88.5 -55.5t67.5 -78t43.5 -94t15.5 -103.5q0 -75 -28 -141t-77 -115t-115 -77t-141 -28z
M414 676q-68 0 -127.5 -25.5t-103 -69.5t-68.5 -103.5t-25 -127.5t25 -127.5t68.5 -103.5t102.5 -69.5t128 -25.5q68 0 127.5 25.5t103 69.5t68.5 103.5t25 127.5q0 67 -25.5 126.5t-69 104t-103 70t-126.5 25.5zM413 -150q-13 0 -22 9.5t-9 21.5q0 15 10 23t21 8
q12 0 21.5 -8t9.5 -23q0 -12 -9 -21.5t-22 -9.5z" />
    <glyph glyph-name="uni1EE3" unicode="&#x1ee3;" horiz-adv-x="617" 
d="M308 -11q-56 0 -103.5 20t-82.5 55t-55 82.5t-20 103.5q0 55 20 102.5t55.5 82.5t83 55.5t102.5 20.5q40 0 79 -11h1q11 0 22.5 4t20.5 13t15 23t6 35h36q0 -38 -15 -61t-39 -34q65 -34 100.5 -95.5t35.5 -134.5q0 -56 -20 -103.5t-55.5 -82.5t-83.5 -55t-103 -20z
M82 250q0 -48 17 -89.5t47.5 -72t72 -48t89.5 -17.5t89.5 17.5t72 48t48 72t17.5 89.5t-17.5 89t-48.5 72t-72 48.5t-89 17.5t-89.5 -17.5t-71.5 -48t-47.5 -72t-17.5 -89.5zM307 -150q-13 0 -22 9.5t-9 21.5q0 15 10 23t21 8q12 0 21.5 -8t9.5 -23q0 -12 -9 -21.5t-22 -9.5
z" />
    <glyph glyph-name="uni1EE4" unicode="&#x1ee4;" horiz-adv-x="673" 
d="M120 700v-471q0 -45 14.5 -82.5t42 -65t68 -42.5t92.5 -15q51 0 91.5 15t68 42.5t42 65t14.5 82.5v471h37v-471q0 -57 -19 -101.5t-52.5 -75t-80 -47t-101.5 -16.5t-101.5 16t-80.5 47t-53 75.5t-19 101.5v471h37zM307 -119q0 15 10 23t21 8q12 0 21.5 -8t9.5 -23
q0 -12 -9 -21.5t-22 -9.5t-22 9.5t-9 21.5z" />
    <glyph glyph-name="uni1EE5" unicode="&#x1ee5;" horiz-adv-x="569" 
d="M69 500h35v-314q0 -73 42.5 -118t117.5 -45q41 0 75 14.5t59 41.5t38.5 66t13.5 89v266h36v-500h-36v111q-26 -61 -75.5 -91.5t-113.5 -30.5q-45 0 -80.5 14.5t-60 40.5t-38 62t-13.5 80v314zM257 -150q-13 0 -22 9.5t-9 21.5q0 15 10 23t21 8q12 0 21.5 -8t9.5 -23
q0 -12 -9 -21.5t-22 -9.5z" />
    <glyph glyph-name="uni1EE6" unicode="&#x1ee6;" horiz-adv-x="673" 
d="M120 700v-471q0 -45 14.5 -82.5t42 -65t68 -42.5t92.5 -15q51 0 91.5 15t68 42.5t42 65t14.5 82.5v471h37v-471q0 -57 -19 -101.5t-52.5 -75t-80 -47t-101.5 -16.5t-101.5 16t-80.5 47t-53 75.5t-19 101.5v471h37zM297 872q-3 2 -8.5 4.5t-15.5 8.5q11 22 32 35t47 13
q28 0 52.5 -15.5t24.5 -48.5q0 -21 -9.5 -34t-21.5 -22.5t-22.5 -19t-11.5 -23.5h-29q2 21 12.5 32.5t22 20.5t21 18.5t9.5 26.5t-12 28t-36 11q-18 0 -31 -9t-24 -26z" />
    <glyph glyph-name="uni1EE7" unicode="&#x1ee7;" horiz-adv-x="569" 
d="M69 500h35v-314q0 -73 42.5 -118t117.5 -45q41 0 75 14.5t59 41.5t38.5 66t13.5 89v266h36v-500h-36v111q-26 -61 -75.5 -91.5t-113.5 -30.5q-45 0 -80.5 14.5t-60 40.5t-38 62t-13.5 80v314zM240 672q-3 2 -8.5 4.5t-15.5 8.5q11 22 32 35t47 13q28 0 52.5 -15.5
t24.5 -48.5q0 -21 -9.5 -34t-21.5 -22.5t-22.5 -19t-11.5 -23.5h-29q2 21 12.5 32.5t22 20.5t21 18.5t9.5 26.5t-12 28t-36 11q-18 0 -31 -9t-24 -26z" />
    <glyph glyph-name="uni1EE8" unicode="&#x1ee8;" horiz-adv-x="673" 
d="M83 700h37v-471q0 -45 14.5 -82.5t42 -65t68 -42.5t92.5 -15q51 0 91.5 15t68 42.5t42 65t14.5 82.5v471h12q36 0 54 19.5t18 55.5h36q0 -49 -24 -72.5t-59 -31.5v-442q0 -57 -19 -101.5t-52.5 -75t-80 -47t-101.5 -16.5t-101.5 16t-80.5 47t-53 75.5t-19 101.5v471z
M316 770l80 123h41l-88 -123h-33z" />
    <glyph glyph-name="uni1EE9" unicode="&#x1ee9;" horiz-adv-x="569" 
d="M104 500v-314q0 -73 42.5 -118t117.5 -45q41 0 75 14.5t59 41.5t38.5 66t13.5 89v266h21q22 2 41 18.5t19 56.5h36q0 -48 -23 -71.5t-58 -31.5v-472h-36v111q-26 -61 -75.5 -91.5t-113.5 -30.5q-45 0 -80.5 14.5t-60 40.5t-38 62t-13.5 80v314h35zM262 570l80 123h41
l-88 -123h-33z" />
    <glyph glyph-name="uni1EEA" unicode="&#x1eea;" horiz-adv-x="673" 
d="M120 700v-471q0 -45 14.5 -82.5t42 -65t68 -42.5t92.5 -15q51 0 91.5 15t68 42.5t42 65t14.5 82.5v471h12q36 0 54 19.5t18 55.5h36q0 -49 -24 -72.5t-59 -31.5v-442q0 -57 -19 -101.5t-52.5 -75t-80 -47t-101.5 -16.5t-101.5 16t-80.5 47t-53 75.5t-19 101.5v471h37z
M249 893h41l80 -123h-33z" />
    <glyph glyph-name="uni1EEB" unicode="&#x1eeb;" horiz-adv-x="569" 
d="M261 -11q-45 0 -80.5 14.5t-60 40.5t-38 62t-13.5 80v314h35v-314q0 -73 42.5 -118t117.5 -45q41 0 75 14.5t59 41.5t38.5 66t13.5 89v266h21q22 2 41 18.5t19 56.5h36q0 -48 -23 -71.5t-58 -31.5v-472h-36v111q-26 -61 -75.5 -91.5t-113.5 -30.5zM234 693l80 -123h-33
l-88 123h41z" />
    <glyph glyph-name="uni1EEC" unicode="&#x1eec;" horiz-adv-x="673" 
d="M83 700h37v-471q0 -45 14.5 -82.5t42 -65t68 -42.5t92.5 -15q51 0 91.5 15t68 42.5t42 65t14.5 82.5v471h12q36 0 54 19.5t18 55.5h36q0 -49 -24 -72.5t-59 -31.5v-442q0 -57 -19 -101.5t-52.5 -75t-80 -47t-101.5 -16.5t-101.5 16t-80.5 47t-53 75.5t-19 101.5v471z
M297 872q-3 2 -8.5 4.5t-15.5 8.5q11 22 32 35t47 13q28 0 52.5 -15.5t24.5 -48.5q0 -21 -9.5 -34t-21.5 -22.5t-22.5 -19t-11.5 -23.5h-29q2 21 12.5 32.5t22 20.5t21 18.5t9.5 26.5t-12 28t-36 11q-18 0 -31 -9t-24 -26z" />
    <glyph glyph-name="uni1EED" unicode="&#x1eed;" horiz-adv-x="569" 
d="M104 500v-314q0 -73 42.5 -118t117.5 -45q41 0 75 14.5t59 41.5t38.5 66t13.5 89v266h21q22 2 41 18.5t19 56.5h36q0 -48 -23 -71.5t-58 -31.5v-472h-36v111q-26 -61 -75.5 -91.5t-113.5 -30.5q-45 0 -80.5 14.5t-60 40.5t-38 62t-13.5 80v314h35zM216 685q11 22 32 35
t47 13q28 0 52.5 -15.5t24.5 -48.5q0 -21 -9.5 -34t-21.5 -22.5t-22.5 -19t-11.5 -23.5h-29q2 21 12.5 32.5t22 20.5t21 18.5t9.5 26.5t-12 28t-36 11q-18 0 -31 -9t-24 -26q-3 2 -8.5 4.5t-15.5 8.5z" />
    <glyph glyph-name="uni1EEE" unicode="&#x1eee;" horiz-adv-x="673" 
d="M337 -11q-55 0 -101.5 16t-80.5 47t-53 75.5t-19 101.5v471h37v-471q0 -45 14.5 -82.5t42 -65t68 -42.5t92.5 -15q51 0 91.5 15t68 42.5t42 65t14.5 82.5v471h12q36 0 54 19.5t18 55.5h36q0 -49 -24 -72.5t-59 -31.5v-442q0 -57 -19 -101.5t-52.5 -75t-80 -47
t-101.5 -16.5zM201 787q0 16 2.5 33.5t10 31.5t20 23.5t32.5 9.5q33 0 71 -37q36 -35 62 -35q35 0 35 66h31q0 -16 -2.5 -33t-10 -31.5t-20 -24t-31.5 -9.5q-33 0 -71 37q-19 18 -35 26.5t-28 8.5q-35 0 -35 -66h-31z" />
    <glyph glyph-name="uni1EEF" unicode="&#x1eef;" horiz-adv-x="569" 
d="M69 500h35v-314q0 -73 42.5 -118t117.5 -45q41 0 75 14.5t59 41.5t38.5 66t13.5 89v266h21q22 2 41 18.5t19 56.5h36q0 -48 -23 -71.5t-58 -31.5v-472h-36v111q-26 -61 -75.5 -91.5t-113.5 -30.5q-45 0 -80.5 14.5t-60 40.5t-38 62t-13.5 80v314zM145 587q0 16 2.5 33.5
t10 31.5t20 23.5t32.5 9.5q33 0 71 -37q36 -35 62 -35q35 0 35 66h31q0 -16 -2.5 -33t-10 -31.5t-20 -24t-31.5 -9.5q-33 0 -71 37q-19 18 -35 26.5t-28 8.5q-35 0 -35 -66h-31z" />
    <glyph glyph-name="uni1EF0" unicode="&#x1ef0;" horiz-adv-x="673" 
d="M83 700h37v-471q0 -45 14.5 -82.5t42 -65t68 -42.5t92.5 -15q51 0 91.5 15t68 42.5t42 65t14.5 82.5v471h12q36 0 54 19.5t18 55.5h36q0 -49 -24 -72.5t-59 -31.5v-442q0 -57 -19 -101.5t-52.5 -75t-80 -47t-101.5 -16.5t-101.5 16t-80.5 47t-53 75.5t-19 101.5v471z
M307 -119q0 15 10 23t21 8q12 0 21.5 -8t9.5 -23q0 -12 -9 -21.5t-22 -9.5t-22 9.5t-9 21.5z" />
    <glyph glyph-name="uni1EF1" unicode="&#x1ef1;" horiz-adv-x="569" 
d="M261 -11q-45 0 -80.5 14.5t-60 40.5t-38 62t-13.5 80v314h35v-314q0 -73 42.5 -118t117.5 -45q41 0 75 14.5t59 41.5t38.5 66t13.5 89v266h21q22 2 41 18.5t19 56.5h36q0 -48 -23 -71.5t-58 -31.5v-472h-36v111q-26 -61 -75.5 -91.5t-113.5 -30.5zM257 -150
q-13 0 -22 9.5t-9 21.5q0 15 10 23t21 8q12 0 21.5 -8t9.5 -23q0 -12 -9 -21.5t-22 -9.5z" />
    <glyph glyph-name="Ygrave" unicode="&#x1ef2;" horiz-adv-x="572" 
d="M51 700l235 -376l235 376h41l-258 -411v-289h-37v290l-257 410h41zM242 893l80 -123h-33l-88 123h41z" />
    <glyph glyph-name="ygrave" unicode="&#x1ef3;" horiz-adv-x="510" 
d="M53 500l216 -473l188 473h36l-217 -546q-28 -71 -76.5 -113t-106.5 -42q-3 0 -6 0.5t-6 0.5v33q3 0 6 -0.5t6 -0.5q47 0 85.5 35t63.5 95l10 22l-235 516h36zM220 693l80 -123h-33l-88 123h41z" />
    <glyph glyph-name="uni1EF4" unicode="&#x1ef4;" horiz-adv-x="572" 
d="M51 700l235 -376l235 376h41l-258 -411v-289h-37v290l-257 410h41zM285 -150q-13 0 -22 9.5t-9 21.5q0 15 10 23t21 8q12 0 21.5 -8t9.5 -23q0 -12 -9 -21.5t-22 -9.5z" />
    <glyph glyph-name="uni1EF5" unicode="&#x1ef5;" horiz-adv-x="510" 
d="M17 500h36l216 -473l188 473h36l-217 -546q-28 -71 -76.5 -113t-106.5 -42q-3 0 -6 0.5t-6 0.5v33q3 0 6 -0.5t6 -0.5q47 0 85.5 35t63.5 95l10 22zM357 -150q-13 0 -22 9.5t-9 21.5q0 15 10 23t21 8q12 0 21.5 -8t9.5 -23q0 -12 -9 -21.5t-22 -9.5z" />
    <glyph glyph-name="uni1EF6" unicode="&#x1ef6;" horiz-adv-x="572" 
d="M51 700l235 -376l235 376h41l-258 -411v-289h-37v290l-257 410h41zM210 885q11 22 32 35t47 13q28 0 52.5 -15.5t24.5 -48.5q0 -21 -9.5 -34t-21.5 -22.5t-22.5 -19t-11.5 -23.5h-29q2 21 12.5 32.5t22 20.5t21 18.5t9.5 26.5t-12 28t-36 11q-18 0 -31 -9t-24 -26
q-3 2 -8.5 4.5t-15.5 8.5z" />
    <glyph glyph-name="uni1EF7" unicode="&#x1ef7;" horiz-adv-x="510" 
d="M17 500h36l216 -473l188 473h36l-217 -546q-28 -71 -76.5 -113t-106.5 -42q-3 0 -6 0.5t-6 0.5v33q3 0 6 -0.5t6 -0.5q47 0 85.5 35t63.5 95l10 22zM187 685q11 22 32 35t47 13q28 0 52.5 -15.5t24.5 -48.5q0 -21 -9.5 -34t-21.5 -22.5t-22.5 -19t-11.5 -23.5h-29
q2 21 12.5 32.5t22 20.5t21 18.5t9.5 26.5t-12 28t-36 11q-18 0 -31 -9t-24 -26q-3 2 -8.5 4.5t-15.5 8.5z" />
    <glyph glyph-name="uni1EF8" unicode="&#x1ef8;" horiz-adv-x="572" 
d="M51 700l235 -376l235 376h41l-258 -411v-289h-37v290l-257 410h41zM153 787q0 16 2.5 33.5t10 31.5t20 23.5t32.5 9.5q33 0 71 -37q36 -35 62 -35q35 0 35 66h31q0 -16 -2.5 -33t-10 -31.5t-20 -24t-31.5 -9.5q-33 0 -71 37q-19 18 -35 26.5t-28 8.5q-35 0 -35 -66h-31z
" />
    <glyph glyph-name="uni1EF9" unicode="&#x1ef9;" horiz-adv-x="510" 
d="M17 500h36l216 -473l188 473h36l-217 -546q-28 -71 -76.5 -113t-106.5 -42q-3 0 -6 0.5t-6 0.5v33q3 0 6 -0.5t6 -0.5q47 0 85.5 35t63.5 95l10 22zM131 587q0 16 2.5 33.5t10 31.5t20 23.5t32.5 9.5q33 0 71 -37q36 -35 62 -35q35 0 35 66h31q0 -16 -2.5 -33t-10 -31.5
t-20 -24t-31.5 -9.5q-33 0 -71 37q-19 18 -35 26.5t-28 8.5q-35 0 -35 -66h-31z" />
    <glyph glyph-name="endash" unicode="&#x2013;" horiz-adv-x="687" 
d="M93 292v34h500v-34h-500z" />
    <glyph glyph-name="emdash" unicode="&#x2014;" horiz-adv-x="787" 
d="M93 292v34h600v-34h-600z" />
    <glyph glyph-name="quoteleft" unicode="&#x2018;" horiz-adv-x="207" 
d="M64 508l48 192h32l-36 -192h-44z" />
    <glyph glyph-name="quoteright" unicode="&#x2019;" horiz-adv-x="207" 
d="M143 700l-48 -192h-32l36 192h44z" />
    <glyph glyph-name="quotesinglbase" unicode="&#x201a;" horiz-adv-x="207" 
d="M143 52l-48 -192h-32l36 192h44z" />
    <glyph glyph-name="quotedblleft" unicode="&#x201c;" horiz-adv-x="320" 
d="M177 508l48 192h32l-36 -192h-44zM64 508l48 192h32l-36 -192h-44z" />
    <glyph glyph-name="quotedblright" unicode="&#x201d;" horiz-adv-x="320" 
d="M212 700h44l-48 -192h-32zM99 700h44l-48 -192h-32z" />
    <glyph glyph-name="quotedblbase" unicode="&#x201e;" horiz-adv-x="320" 
d="M212 52h44l-48 -192h-32zM99 52h44l-48 -192h-32z" />
    <glyph glyph-name="dagger" unicode="&#x2020;" horiz-adv-x="467" 
d="M67 486v34h149v180h35v-180h149v-34h-149v-486h-35v486h-149z" />
    <glyph glyph-name="daggerdbl" unicode="&#x2021;" horiz-adv-x="467" 
d="M67 520h149v180h35v-180h149v-34h-149v-272h149v-34h-149v-180h-35v180h-149v34h149v272h-149v34z" />
    <glyph glyph-name="bullet" unicode="&#x2022;" horiz-adv-x="260" 
d="M57 351q0 30 21.5 51t52.5 21q30 0 51 -21t21 -51q0 -31 -21 -52.5t-51 -21.5q-31 0 -52.5 21.5t-21.5 52.5z" />
    <glyph glyph-name="ellipsis" unicode="&#x2026;" horiz-adv-x="577" 
d="M478 -10q-14 0 -24.5 10t-10.5 25t10.5 25t24.5 10q17 0 25.5 -11t8.5 -24t-8.5 -24t-25.5 -11zM288 -10q-14 0 -24.5 10t-10.5 25t10.5 25t24.5 10q17 0 25.5 -11t8.5 -24t-8.5 -24t-25.5 -11zM98 -10q-14 0 -24.5 10t-10.5 25t10.5 25t24.5 10q17 0 25.5 -11t8.5 -24
t-8.5 -24t-25.5 -11z" />
    <glyph glyph-name="perthousand" unicode="&#x2030;" horiz-adv-x="1087" 
d="M67 562q0 33 11.5 60.5t32 47t48.5 30.5t61 11q32 0 60 -11t48.5 -31t32.5 -47.5t12 -59.5q0 -33 -11.5 -60.5t-32 -47t-48.5 -30.5t-61 -11t-61 11t-48.5 30.5t-32 47t-11.5 60.5zM350 138q0 63 43 106t110 43q32 0 60 -11t48.5 -31t32.5 -47.5t12 -59.5q0 -62 -44 -106
q-43 -43 -109 -43q-33 0 -61 11t-48.5 30.5t-32 47t-11.5 60.5zM715 138q0 33 11.5 60.5t32 47t48.5 30.5t61 11q32 0 60 -11t48.5 -31t32.5 -47.5t12 -59.5t-12 -59.5t-32.5 -47.5t-48.5 -31t-60 -11q-33 0 -61 11t-48.5 30.5t-32 47t-11.5 60.5zM101 562q0 -25 9 -46.5
t25 -37t37.5 -24.5t47.5 -9t47.5 9t37.5 24.5t24.5 37t8.5 46.5t-9 46.5t-24.5 37t-37.5 24.5t-47 9q-26 0 -47.5 -9t-37.5 -24.5t-25 -37t-9 -46.5zM868 255q-25 0 -47 -9t-38 -24.5t-25 -37t-9 -46.5q0 -52 34 -84.5t85 -32.5t84.5 33t33.5 84q0 25 -9 46.5t-25 37
t-37.5 24.5t-46.5 9zM384 138q0 -52 34 -84.5t85 -32.5t84.5 33t33.5 84q0 25 -9 46.5t-25 37t-37.5 24.5t-46.5 9t-47 -9t-38 -24.5t-25 -37t-9 -46.5zM587 627l25 -14l-480 -542l-24 14z" />
    <glyph glyph-name="guilsinglleft" unicode="&#x2039;" horiz-adv-x="325" 
d="M235 476l-103 -167l103 -167h-42l-103 167l103 167h42z" />
    <glyph glyph-name="guilsinglright" unicode="&#x203a;" horiz-adv-x="325" 
d="M132 476l103 -167l-103 -167h-42l103 167l-103 167h42z" />
    <glyph glyph-name="fraction" unicode="&#x2044;" horiz-adv-x="233" 
d="M-73 0h-34l414 700h33z" />
    <glyph glyph-name="Euro" unicode="&#x20ac;" horiz-adv-x="611" 
d="M27 401v32h88q9 64 30.5 115.5t54.5 87.5t76.5 55.5t96.5 19.5q72 0 124.5 -35.5t78.5 -99.5l-31 -17q-47 117 -172 117q-88 0 -146.5 -64t-74.5 -179h281v-32h-284q-1 -16 -1.5 -28.5t-0.5 -22.5q0 -8 0.5 -20.5t1.5 -28.5h284v-31h-281q16 -117 73.5 -181.5
t147.5 -64.5q61 0 105.5 30t67.5 87l30 -16q-26 -66 -78.5 -101t-124.5 -35q-53 0 -96.5 19.5t-76.5 56t-54.5 88.5t-30.5 117h-88v31h85q-1 16 -1.5 28.5t-0.5 20.5t0.5 21t1.5 30h-85z" />
    <glyph glyph-name="uni20BD" unicode="&#x20bd;" horiz-adv-x="563" 
d="M7 149v32h90v112h-90v34h90v373h230q42 0 78.5 -16t64.5 -44t44 -64.5t16 -78.5t-16 -79t-43.5 -65t-64.5 -44t-79 -16h-194v-112h274v-32h-274v-149h-36v149h-90zM133 327h194q35 0 65 13.5t52.5 37t35.5 54t13 65.5q0 34 -13 65t-35.5 54t-52.5 36.5t-65 13.5h-194
v-339z" />
    <glyph glyph-name="uni2116" unicode="&#x2116;" horiz-adv-x="1023" 
d="M93 0v700h34l436 -634v634h37v-700h-33l-437 634v-634h-37zM830 424q-31 0 -57.5 11t-46 30.5t-31 45.5t-11.5 57q0 30 11.5 56.5t31 45.5t46.5 30t57 11t57 -11t46.5 -30t31 -45t11.5 -57t-11.5 -57t-31 -45.5t-46 -30.5t-57.5 -11zM718 568q0 -24 8.5 -44.5t23.5 -35.5
t35.5 -23.5t44.5 -8.5t44.5 8.5t35.5 23.5t23.5 35.5t8.5 44.5t-8.5 44t-23.5 35t-35.5 23.5t-44.5 8.5t-44.5 -8.5t-35.5 -23.5t-23.5 -35t-8.5 -44zM694 335h271v-33h-271v33z" />
    <glyph glyph-name="trademark" unicode="&#x2122;" horiz-adv-x="492" 
d="M236 700h27l71 -115l71 115h27v-200h-27v154l-69 -111h-4l-69 111v-154h-27v200zM60 700h146v-25h-60v-175h-27v175h-59v25z" />
    <glyph glyph-name="estimated" unicode="&#x212e;" horiz-adv-x="847" 
d="M160 93q-107 104 -107 257q0 80 28.5 146t78 113.5t117 74t146.5 26.5q78 0 146 -26.5t117.5 -74t78 -114t28.5 -145.5q0 -15 -15 -15h-560q-15 0 -15 -15v-192q0 -12 7 -19q44 -44 101 -66.5t132 -22.5q73 0 131 23.5t100 73.5q7 9 18 9h37q10 0 13 -6t-4 -13
q-57 -57 -129 -87t-166 -30q-177 0 -283 103zM203 380q0 -15 15 -15h410q15 0 15 15v192q0 12 -7 19q-44 44 -96 66.5t-117 22.5t-117 -22.5t-96 -66.5q-7 -7 -7 -19v-192z" />
    <glyph glyph-name="oneeighth" unicode="&#x215b;" horiz-adv-x="827" 
d="M654 -12q-63 0 -101.5 31.5t-38.5 83.5q0 37 21 65t56 42q-64 28 -64 91q0 51 36.5 81t90.5 30q27 0 50 -8t40 -22t26.5 -35t9.5 -46q0 -63 -64 -91q35 -14 56 -42t21 -65q0 -52 -39 -83.5t-100 -31.5zM654 193q-48 0 -77 -23t-29 -65q0 -39 29 -62t77 -23t76.5 23
t28.5 62q0 40 -29.5 64t-75.5 24zM561 301q0 -34 27 -55t66 -21t65.5 21t26.5 55q0 37 -26 58.5t-66 21.5q-42 0 -67.5 -21.5t-25.5 -58.5zM553 700h33l-413 -700h-34zM17 651l128 49h25v-400h-34v360l-110 -38z" />
    <glyph glyph-name="threeeighths" unicode="&#x215c;" horiz-adv-x="927" 
d="M614 103q0 37 21 65t56 42q-64 28 -64 91q0 51 36.5 81t90.5 30q27 0 50 -8t40 -22t26.5 -35t9.5 -46q0 -63 -64 -91q35 -14 56 -42t21 -65q0 -52 -39 -83.5t-100 -31.5q-63 0 -101.5 31.5t-38.5 83.5zM754 193q-48 0 -77 -23t-29 -65q0 -39 29 -62t77 -23t76.5 23
t28.5 62q0 40 -29.5 64t-75.5 24zM165 288q-101 0 -133 77l28 16q25 -61 105 -61q51 0 77.5 26t26.5 68q0 40 -26.5 66.5t-77.5 26.5h-3l-17 25l103 136h-205v32h244v-32l-101 -133q55 -6 86 -39.5t31 -81.5q0 -55 -37 -90.5t-101 -35.5zM754 381q-42 0 -67.5 -21.5
t-25.5 -58.5q0 -34 27 -55t66 -21t65.5 21t26.5 55q0 37 -26 58.5t-66 21.5zM239 0l414 700h33l-413 -700h-34z" />
    <glyph glyph-name="fiveeighths" unicode="&#x215d;" horiz-adv-x="919" 
d="M606 103q0 37 21 65t56 42q-64 28 -64 91q0 51 36.5 81t90.5 30q27 0 50 -8t40 -22t26.5 -35t9.5 -46q0 -63 -64 -91q35 -14 56 -42t21 -65q0 -52 -39 -83.5t-100 -31.5q-63 0 -101.5 31.5t-38.5 83.5zM746 193q-48 0 -77 -23t-29 -65q0 -39 29 -62t77 -23t76.5 23
t28.5 62q0 40 -29.5 64t-75.5 24zM58 379q27 -59 103 -59q48 0 75 25.5t27 68.5t-27 69t-75 26h-114l15 191h219v-31h-189l-11 -128h81q30 0 55 -9.5t42.5 -26t27.5 -40t10 -51.5q0 -57 -36.5 -91.5t-99.5 -34.5q-97 0 -131 76zM746 381q-42 0 -67.5 -21.5t-25.5 -58.5
q0 -34 27 -55t66 -21t65.5 21t26.5 55q0 37 -26 58.5t-66 21.5zM231 0l414 700h33l-413 -700h-34z" />
    <glyph glyph-name="seveneighths" unicode="&#x215e;" horiz-adv-x="904" 
d="M731 -12q-63 0 -101.5 31.5t-38.5 83.5q0 37 21 65t56 42q-64 28 -64 91q0 51 36.5 81t90.5 30q27 0 50 -8t40 -22t26.5 -35t9.5 -46q0 -63 -64 -91q35 -14 56 -42t21 -65q0 -52 -39 -83.5t-100 -31.5zM731 193q-48 0 -77 -23t-29 -65q0 -39 29 -62t77 -23t76.5 23
t28.5 62q0 40 -29.5 64t-75.5 24zM731 381q-42 0 -67.5 -21.5t-25.5 -58.5q0 -34 27 -55t66 -21t65.5 21t26.5 55q0 37 -26 58.5t-66 21.5zM216 0l414 700h33l-413 -700h-34zM23 668v32h266v-27l-161 -373h-37l160 368h-228z" />
    <glyph glyph-name="arrowleft" unicode="&#x2190;" horiz-adv-x="833" 
d="M767 367v-34h-635l283 -283h-48l-300 300l300 300h48l-283 -283h635z" />
    <glyph glyph-name="arrowup" unicode="&#x2191;" horiz-adv-x="733" 
d="M667 400v-48l-283 283v-635h-35v634l-282 -282v48l300 300z" />
    <glyph glyph-name="arrowright" unicode="&#x2192;" horiz-adv-x="833" 
d="M467 650l300 -300l-300 -300h-48l283 283h-635v34h635l-283 283h48z" />
    <glyph glyph-name="arrowdown" unicode="&#x2193;" horiz-adv-x="733" 
d="M384 65l283 283v-48l-300 -300l-300 300v48l282 -282v634h35v-635z" />
    <glyph glyph-name="arrowboth" unicode="&#x2194;" horiz-adv-x="1027" 
d="M310 593h48l-226 -226h763l-226 226h48l243 -243l-243 -243h-48l226 226h-763l226 -226h-48l-243 243z" />
    <glyph glyph-name="arrowupdn" unicode="&#x2195;" horiz-adv-x="633" 
d="M299 -31v762l-226 -225v48l244 243l243 -243v-48l-226 226v-764l226 226v-48l-243 -243l-244 243v48z" />
    <glyph glyph-name="uni2196" unicode="&#x2196;" horiz-adv-x="641" 
d="M574 105l-26 -25l-448 449v-400l-33 34v424h424l33 -34h-398z" />
    <glyph glyph-name="uni2197" unicode="&#x2197;" horiz-adv-x="641" 
d="M150 587h424v-424l-34 -34v399l-448 -448l-25 25l448 448h-399z" />
    <glyph glyph-name="uni2198" unicode="&#x2198;" horiz-adv-x="641" 
d="M540 547l34 -34v-424h-424l-34 34h399l-448 448l25 25l448 -448v399z" />
    <glyph glyph-name="uni2199" unicode="&#x2199;" horiz-adv-x="641" 
d="M574 571l-448 -448h398l-33 -34h-424v424l33 34v-400l448 449z" />
    <glyph glyph-name="partialdiff" unicode="&#x2202;" horiz-adv-x="579" 
d="M260 -11q-47 0 -84.5 16t-64 44t-40.5 66.5t-14 84.5q0 52 15.5 94.5t45 72.5t71 46.5t93.5 16.5q110 0 195 -58q-2 53 -17 107.5t-44.5 98.5t-74.5 71.5t-106 27.5q-72 0 -124 -34v36q55 32 124 32q118 0 197 -100q80 -100 80 -261q0 -169 -71 -266q-71 -95 -181 -95z
M282 397q-44 0 -79 -14t-59.5 -39.5t-38 -62t-13.5 -81.5q0 -39 12 -71.5t33.5 -56t52.5 -36.5t70 -13q61 0 102 29.5t66 75.5t36 100.5t13 104.5q-85 64 -195 64z" />
    <glyph glyph-name="emptyset" unicode="&#x2205;" horiz-adv-x="831" 
d="M173 81q-57 51 -88.5 120.5t-31.5 148.5q0 75 28.5 141t77.5 115t115 77t141 28q124 0 219 -74l69 83h39l-84 -102q119 -108 119 -268q0 -76 -28 -142t-77 -114.5t-115 -76.5t-142 -28q-122 0 -219 73l-68 -82h-39zM87 350q0 -146 107 -244l420 507q-89 66 -199 66
q-69 0 -129 -25.5t-104.5 -70t-69.5 -104.5t-25 -129zM217 87q88 -66 198 -66q69 0 129 25.5t104.5 70t70 104.5t25.5 129q0 145 -107 243z" />
    <glyph glyph-name="product" unicode="&#x220f;" horiz-adv-x="640" 
d="M93 700h454v-900h-36v867h-382v-867h-36v900z" />
    <glyph glyph-name="summation" unicode="&#x2211;" horiz-adv-x="541" 
d="M63 -200v33l266 427l-252 407v33h413v-33h-373l253 -407l-267 -427h402v-33h-442z" />
    <glyph glyph-name="minus" unicode="&#x2212;" horiz-adv-x="540" 
d="M67 333v34h406v-34h-406z" />
    <glyph glyph-name="radical" unicode="&#x221a;" horiz-adv-x="634" 
d="M304 0l-157 267h-80v33h99l154 -260l251 760h36l-265 -800h-38z" />
    <glyph glyph-name="infinity" unicode="&#x221e;" horiz-adv-x="813" 
d="M65 350q0 33 11 61t31 48.5t48 32t61 11.5q31 0 58.5 -11t50.5 -28.5t43.5 -40t38.5 -45.5q18 24 37.5 46.5t42.5 40t50 28t60 10.5t61 -11.5t48 -32t31 -48.5t11 -61q0 -68 -41.5 -110.5t-109.5 -42.5q-32 0 -59 10.5t-50 28t-43 40t-38 46.5q-18 -23 -38 -45.5t-43 -40
t-50 -28.5t-60 -11q-34 0 -61.5 11.5t-47.5 31.5t-31 48.5t-11 61.5zM216 471q-51 0 -83.5 -33.5t-32.5 -87.5t32.5 -87.5t83.5 -33.5q28 0 52.5 11t45.5 28.5t39 39t33 42.5q-15 21 -33 42.5t-39.5 39t-46 28.5t-51.5 11zM597 471q-51 0 -90 -32t-79 -89q15 -21 32.5 -43
t38 -39t45 -28t53.5 -11q54 0 85 34.5t31 86.5q0 25 -8.5 47.5t-23.5 38.5t-36.5 25.5t-47.5 9.5z" />
    <glyph glyph-name="integral" unicode="&#x222b;" horiz-adv-x="434" 
d="M0 -169q23 -10 45 -10q35 0 59 25t32 72l114 667q11 63 44 95t84 32q26 0 56 -9v-34q-27 10 -51 10q-39 0 -63.5 -25t-33.5 -72l-115 -667q-11 -61 -43.5 -94t-79.5 -33q-23 0 -48 9v34v0z" />
    <glyph glyph-name="approxequal" unicode="&#x2248;" horiz-adv-x="579" 
d="M67 387q5 19 15.5 37.5t25 33t33 23.5t39.5 9q50 0 118 -45q61 -41 101 -41q16 0 29.5 7.5t24 19.5t18 27t10.5 29l32 -14q-5 -16 -13.5 -34t-22.5 -33t-33.5 -25t-45.5 -10q-24 0 -53 10t-64 34q-31 22 -55.5 31t-43.5 9q-20 0 -34 -8t-23.5 -20t-16 -26.5t-9.5 -27.5z
M67 227q5 19 15.5 37.5t25 33t33 23.5t39.5 9q50 0 118 -45q61 -41 101 -41q16 0 29.5 7.5t24 19.5t18 27t10.5 29l32 -14q-5 -16 -13.5 -34t-22.5 -33t-33.5 -25t-45.5 -10q-24 0 -53 10t-64 34q-31 22 -55.5 31t-43.5 9q-20 0 -34 -8t-23.5 -20t-16 -26.5t-9.5 -27.5z" />
    <glyph glyph-name="notequal" unicode="&#x2260;" horiz-adv-x="533" 
d="M67 233v34h150l77 166h-227v34h242l74 160h30l-74 -160h128v-34h-143l-77 -166h220v-34h-235l-74 -160h-30l74 160h-135z" />
    <glyph glyph-name="lessequal" unicode="&#x2264;" horiz-adv-x="533" 
d="M466 587v-38l-357 -140l357 -140v-38l-400 161v34zM466 147v-34h-400v34h400z" />
    <glyph glyph-name="greaterequal" unicode="&#x2265;" horiz-adv-x="533" 
d="M467 426v-34l-400 -161v38l357 140l-357 140v38zM67 147h400v-34h-400v34z" />
    <glyph glyph-name="lozenge" unicode="&#x25ca;" horiz-adv-x="536" 
d="M250 0l-187 350l187 350h36l187 -350l-187 -350h-36zM268 39l166 311l-166 311l-166 -311z" />
    <glyph glyph-name="NULL" horiz-adv-x="0" 
 />
    <glyph glyph-name="i.loclTRK" horiz-adv-x="202" 
d="M83 500h36v-500h-36v500zM98 577q-17 0 -25.5 12t-8.5 26t8.5 26t25.5 12h3h3q18 0 26.5 -12t8.5 -26t-8.5 -26t-26.5 -12h-3h-3z" />
    <glyph glyph-name="f_f_j" horiz-adv-x="774" 
d="M28 467v33h89v33q0 85 42 132t125 47h11t11 -1v-34q-6 1 -12 1h-11q-131 0 -131 -145v-33h234v43q0 178 189 178q47 0 99 -11v-32q-47 9 -99 9q-81 0 -117.5 -34.5t-36.5 -109.5v-43h270v-573q0 -67 -33.5 -103t-97.5 -36h-11t-11 1v34q6 -1 12 -1h11q94 0 94 105v540
h-234v-467h-35v467h-234v-467h-35v467h-89z" />
    <glyph glyph-name="f_j" horiz-adv-x="505" 
d="M117 500v33q0 178 189 178q47 0 99 -11v-32q-47 9 -99 9q-81 0 -117.5 -34.5t-36.5 -109.5v-33h269v-573q0 -67 -33 -103t-97 -36h-11t-11 1v34q6 -1 12 -1h11q94 0 94 105v540h-234v-467h-35v467h-89v33h89z" />
    <glyph glyph-name="uni0414.loclBGR" horiz-adv-x="707" 
d="M91 34l242 666h40l242 -666h63v-168h-36v134h-577v-134h-37v168h63zM130 34h447l-224 623z" />
    <glyph glyph-name="uni041B.loclBGR" horiz-adv-x="601" 
d="M281 700h40l264 -700h-40l-244 654l-245 -654h-39z" />
    <glyph glyph-name="uni0424.loclBGR" horiz-adv-x="857" 
d="M410 -11q-79 3 -144.5 29.5t-113 73.5t-73.5 112.5t-26 145.5t26 145t73.5 112t113 74t144.5 30v89h37v-89q78 -3 144 -30t113 -74t73.5 -112.5t26.5 -144.5q0 -80 -26.5 -145t-73.5 -112t-112.5 -74t-144.5 -30v-89h-37v89zM410 677q-72 -3 -131 -27t-101 -66.5
t-65 -101.5t-23 -132q0 -74 23 -133t65 -101t101 -66t131 -27v654zM447 23q72 3 131 27.5t101 67t65 101.5t23 131t-23 131t-65 101.5t-101 67t-131 27.5v-654z" />
    <glyph glyph-name="uni0414.ss01" horiz-adv-x="690" 
d="M22 34h54q74 83 74 253v413h427v-666h71v-34h-626v34zM187 286q0 -165 -66 -252h419v632h-353v-380z" />
    <glyph glyph-name="uni0426.ss01" horiz-adv-x="690" 
d="M93 0v700h37v-666h413v666h37v-666h72v-34h-559z" />
    <glyph glyph-name="uni0429.ss01" horiz-adv-x="980" 
d="M93 0v700h37v-666h333v666h37v-666h333v666h37v-666h72v-34h-849z" />
    <glyph glyph-name="uni0414.loclBGR.ss01" horiz-adv-x="707" 
d="M91 34l242 666h40l242 -666h63v-34h-650v34h63zM130 34h447l-224 623z" />
    <glyph glyph-name="uni0432.loclBGR" horiz-adv-x="577" 
d="M83 472q0 112 55 175.5t155 63.5q39 0 70.5 -12t53.5 -33t34 -50t12 -62q0 -90 -85 -151q73 -14 112.5 -67.5t39.5 -135.5q0 -100 -58.5 -155.5t-164.5 -55.5t-165 63.5t-59 177.5v242zM119 230q0 -99 49 -153t139 -54t139 46t49 131q0 82 -45.5 128.5t-132.5 46.5
q-17 0 -34.5 -1.5t-36.5 -5.5l-127 -25v-113zM246 401q43 8 84 8q48 28 73 66.5t25 78.5q0 25 -9.5 47.5t-26.5 39.5t-42.5 26.5t-56.5 9.5q-84 0 -129 -54t-45 -151v-96z" />
    <glyph glyph-name="uni0433.loclBGR" horiz-adv-x="461" 
d="M229 -11q-39 0 -72 10.5t-56 28.5t-36 43.5t-13 55.5q0 51 32 81.5t77 42.5q33 9 68.5 17t64.5 21t48 32.5t19 51.5q0 48 -36 76t-90 28q-52 0 -90 -23t-54 -63l-29 17q20 46 64.5 74.5t108.5 28.5q31 0 60 -9t51.5 -26.5t36 -43.5t13.5 -59q0 -50 -32 -79.5t-78 -42.5
q-33 -9 -68 -17t-64 -21t-48 -33t-19 -53q0 -49 39.5 -76.5t102.5 -27.5q61 0 102 26t56 71l29 -17q-18 -52 -66.5 -83t-120.5 -31z" />
    <glyph glyph-name="uni0434.loclBGR" horiz-adv-x="660" 
d="M313 -11q-55 0 -102.5 20t-82.5 55.5t-55 83t-20 102.5q0 54 20 102t55 83t82.5 55.5t102.5 20.5q78 0 137.5 -39t90.5 -105v133h36v-473q0 -56 -18 -100.5t-51 -75t-78.5 -46.5t-100.5 -16q-87 0 -147.5 33t-86.5 87l30 17q21 -45 72 -74t132 -29q100 0 156 55t56 149
v106q-31 -66 -90.5 -105t-137.5 -39zM89 250q0 -48 17 -89.5t47.5 -72t72 -48t89.5 -17.5t89.5 17.5t71.5 48t47.5 72t17.5 89.5t-17.5 89t-48 72t-71.5 48.5t-89 17.5q-95 0 -161 -66q-65 -65 -65 -161z" />
    <glyph glyph-name="uni0436.loclBGR" 
d="M275 260l-238 240h44l228 -229v429h35v-429l228 229h44l-239 -240l249 -260h-44l-238 249v-249h-35v249l-238 -249h-44z" />
    <glyph glyph-name="uni0438.loclBGR" horiz-adv-x="569" 
d="M104 500v-314q0 -73 42.5 -118t117.5 -45q41 0 75 14.5t59 41.5t38.5 66t13.5 89v266h36v-500h-36v111q-26 -61 -75.5 -91.5t-113.5 -30.5q-45 0 -80.5 14.5t-60 40.5t-38 62t-13.5 80v314h35z" />
    <glyph glyph-name="uni0439.loclBGR" horiz-adv-x="569" 
d="M69 500h35v-314q0 -73 42.5 -118t117.5 -45q41 0 75 14.5t59 41.5t38.5 66t13.5 89v266h36v-500h-36v111q-26 -61 -75.5 -91.5t-113.5 -30.5q-45 0 -80.5 14.5t-60 40.5t-38 62t-13.5 80v314zM154 624h247v-30h-247v30z" />
    <glyph glyph-name="uni043A.loclBGR" horiz-adv-x="472" 
d="M83 0v700h36v-430l268 230h48l-279 -240l289 -260h-48l-278 249v-249h-36z" />
    <glyph glyph-name="uni043B.loclBGR" horiz-adv-x="511" 
d="M17 0l218 500h41l219 -500h-38l-201 463l-202 -463h-37z" />
    <glyph glyph-name="uni043F.loclBGR" horiz-adv-x="569" 
d="M83 500h36v-111q26 61 75.5 91.5t113.5 30.5q44 0 79.5 -14.5t60.5 -40.5t38.5 -62.5t13.5 -79.5v-314h-35v314q0 73 -42.5 118t-117.5 45q-41 0 -75 -14.5t-59 -41.5t-38.5 -66.5t-13.5 -88.5v-266h-36v500z" />
    <glyph glyph-name="uni0442.loclBGR" horiz-adv-x="866" 
d="M83 500h36v-98q48 109 168 109q58 0 101 -29t60 -86q24 57 70 86t101 29q79 0 128.5 -49t49.5 -140v-322h-36v322q0 75 -38 115t-104 40q-72 0 -116.5 -50.5t-44.5 -146.5v-280h-36v322q0 75 -37.5 115t-100.5 40q-36 0 -66.5 -13t-52 -38t-34 -61.5t-12.5 -84.5v-280
h-36v500z" />
    <glyph glyph-name="uni0446.loclBGR" horiz-adv-x="595" 
d="M105 500v-314q0 -73 42 -118t117 -45q42 0 76 14.5t59 41.5t38.5 66t13.5 89v266h35v-420q0 -22 12.5 -34.5t33.5 -12.5h26v-167h-35v134q-33 2 -52.5 23.5t-19.5 56.5v33q-26 -61 -75 -92.5t-115 -31.5q-45 0 -80.5 14.5t-60 40.5t-38 62t-13.5 80v314h36z" />
    <glyph glyph-name="uni0448.loclBGR" horiz-adv-x="866" 
d="M105 500v-322q0 -75 38 -115t104 -40q72 0 116.5 50.5t44.5 146.5v280h36v-322q0 -75 37.5 -115t100.5 -40q36 0 66.5 13t52 38t34 61.5t12.5 84.5v280h36v-500h-36v98q-48 -109 -168 -109q-58 0 -101 29t-60 86q-24 -57 -70 -86t-101 -29q-79 0 -128.5 49t-49.5 140v322
h36z" />
    <glyph glyph-name="uni0449.loclBGR" horiz-adv-x="891" 
d="M247 -11q-79 0 -128.5 49t-49.5 140v322h36v-322q0 -75 38 -115t104 -40q72 0 116.5 50.5t44.5 146.5v280h36v-322q0 -75 37.5 -115t100.5 -40q36 0 66.5 13t52 38t34 61.5t12.5 84.5v280h36v-420q0 -22 12 -34.5t33 -12.5h27v-167h-36v134q-34 2 -53 23.5t-19 56.5v18
q-48 -109 -168 -109q-58 0 -101 29t-60 86q-24 -57 -70 -86t-101 -29z" />
    <glyph glyph-name="uni044C.loclBGR" horiz-adv-x="483" 
d="M69 500h36v-174h153q87 0 137.5 -44t50.5 -119q0 -40 -15 -72t-40.5 -54.5t-60 -35t-72.5 -12.5q-91 0 -140 48t-49 126v337zM105 163q0 -61 39 -100.5t114 -39.5q30 0 58 10t49 28t33.5 44t12.5 58q0 60 -41.5 95t-111.5 35h-153v-130z" />
    <glyph glyph-name="uni044A.loclBGR" horiz-adv-x="567" 
d="M0 500h189v-174h153q87 0 137.5 -44t50.5 -119q0 -40 -15 -72t-40.5 -54.5t-60 -35t-72.5 -12.5q-91 0 -140 48t-49 126v304h-153v33zM189 293v-130q0 -61 39 -100.5t114 -39.5q30 0 58 10t49 28t33.5 44t12.5 58q0 60 -41.5 95t-111.5 35h-153z" />
    <glyph glyph-name="uni044E.loclBGR" horiz-adv-x="807" 
d="M83 0v700h36v-433h120q3 52 24 97t56 77.5t80.5 51t98.5 18.5q55 0 103 -20t83 -55.5t55.5 -83t20.5 -102.5q0 -56 -20 -103.5t-55.5 -82.5t-83.5 -55t-103 -20q-52 0 -96.5 17t-82.5 53q-74 71 -80 174h-120v-233h-36zM498 477q-48 0 -89.5 -17.5t-71.5 -48t-47.5 -72
t-17.5 -89.5t17 -89.5t47.5 -72t72 -48t89.5 -17.5t89.5 17.5t72 48t48 72t17.5 89.5t-17.5 89t-48.5 72t-72 48.5t-89 17.5z" />
    <glyph glyph-name="zero.sinf" horiz-adv-x="410" 
d="M37 40q0 39 9.5 77t30 68t52 48.5t76.5 18.5q44 0 76 -18.5t52.5 -48.5t30 -68t9.5 -77t-9.5 -77t-30 -68t-52.5 -48.5t-76 -18.5q-45 0 -76.5 18.5t-52 48.5t-30 68t-9.5 77zM205 220q-38 0 -63.5 -16t-41.5 -41.5t-22.5 -58t-6.5 -64.5t6.5 -64.5t22.5 -58t41.5 -41.5
t63.5 -16t63.5 16t41.5 41.5t22.5 58t6.5 64.5t-6.5 64.5t-22.5 58t-41.5 41.5t-63.5 16z" />
    <glyph glyph-name="one.sinf" horiz-adv-x="236" 
d="M145 240h25v-400h-34v360l-110 -38l-9 29z" />
    <glyph glyph-name="two.sinf" horiz-adv-x="344" 
d="M37 -133l181 171q48 45 48 96q0 36 -25.5 61t-70.5 25q-78 0 -102 -71l-29 16q14 40 48.5 63.5t83.5 23.5q60 0 94.5 -33.5t34.5 -84.5q0 -62 -58 -117l-154 -145h220v-32h-271v27z" />
    <glyph glyph-name="three.sinf" horiz-adv-x="341" 
d="M165 -172q-101 0 -133 77l28 16q25 -61 105 -61q51 0 77.5 26t26.5 68q0 40 -26.5 66.5t-77.5 26.5h-3l-17 25l103 136h-205v32h244v-32l-101 -133q55 -6 86 -39.5t31 -81.5q0 -55 -37 -90.5t-101 -35.5z" />
    <glyph glyph-name="four.sinf" horiz-adv-x="357" 
d="M171 240h35l-152 -284h184v113h34v-113h59v-31h-59v-85h-34v85h-220v31z" />
    <glyph glyph-name="five.sinf" horiz-adv-x="323" 
d="M163 -172q-97 0 -131 76l28 15q27 -59 103 -59q48 0 75 25.5t27 68.5t-27 69t-75 26h-114l15 191h219v-31h-189l-11 -128h81q30 0 55 -9.5t42.5 -26t27.5 -40t10 -51.5q0 -57 -36.5 -91.5t-99.5 -34.5z" />
    <glyph glyph-name="six.sinf" horiz-adv-x="335" 
d="M167 -172q-30 0 -55.5 10t-44.5 28t-29.5 42t-10.5 53q0 35 18 68l136 211h40l-102 -153q24 7 48 7q28 0 54 -9.5t45 -27t30.5 -42t11.5 -54.5t-11.5 -54.5t-30.5 -42t-45 -27t-54 -9.5zM167 62q-46 0 -76 -28t-30 -73t30 -73t76 -28q48 0 77.5 28t29.5 73t-29.5 73
t-77.5 28z" />
    <glyph glyph-name="seven.sinf" horiz-adv-x="323" 
d="M23 240h266v-27l-161 -373h-37l160 368h-228v32z" />
    <glyph glyph-name="eight.sinf" horiz-adv-x="348" 
d="M175 -172q-63 0 -101.5 31.5t-38.5 83.5q0 37 21 65t56 42q-64 28 -64 91q0 51 36.5 81t90.5 30q27 0 50 -8t40 -22t26.5 -35t9.5 -46q0 -63 -64 -91q35 -14 56 -42t21 -65q0 -52 -39 -83.5t-100 -31.5zM175 33q-48 0 -77 -23t-29 -65q0 -39 29 -62t77 -23t76.5 23
t28.5 62q0 40 -29.5 64t-75.5 24zM82 141q0 -34 27 -55t66 -21t65.5 21t26.5 55q0 37 -26 58.5t-66 21.5q-42 0 -67.5 -21.5t-25.5 -58.5z" />
    <glyph glyph-name="nine.sinf" horiz-adv-x="335" 
d="M67 24q-40 37 -40 95q0 30 11 54.5t30 42t45 27t55 9.5q30 0 55.5 -10t44.5 -28t29.5 -42.5t10.5 -52.5q0 -35 -18 -68l-136 -211h-40l102 153q-24 -7 -48 -7q-60 0 -101 38zM168 220q-48 0 -77.5 -28t-29.5 -73t29.5 -73t77.5 -28q46 0 76 28t30 73t-30 73t-76 28z" />
    <glyph glyph-name="zero.tf" horiz-adv-x="570" 
d="M27 350q0 61 12.5 125.5t42.5 116.5t79.5 85.5t123.5 33.5q73 0 122.5 -33.5t79.5 -86t43 -116.5t13 -125q0 -62 -13 -126t-43 -116t-79.5 -85.5t-122.5 -33.5q-74 0 -123.5 33t-79.5 85.5t-42.5 116.5t-12.5 126zM285 676q-66 0 -108.5 -31t-68 -78.5t-35.5 -105
t-10 -111.5t10 -111.5t35.5 -105t68 -78.5t108.5 -31q65 0 107.5 31t68 79t36 105.5t10.5 110.5t-10.5 110.5t-36 105.5t-68 79t-107.5 31z" />
    <glyph glyph-name="one.tf" horiz-adv-x="570" 
d="M288 35v625l-166 -54l-9 31l182 63h30v-665h218v-35h-500v35h245z" />
    <glyph glyph-name="two.tf" horiz-adv-x="570" 
d="M55 0v33l282 249q66 60 102 110.5t36 104.5q0 40 -13 73.5t-38 56.5t-60 36t-79 13q-66 0 -116 -33t-72 -90l-31 18q27 66 86.5 103t132.5 37q49 0 90.5 -14.5t72 -42t47.5 -67.5t17 -90q0 -111 -151 -240l-255 -222h424v-35h-475z" />
    <glyph glyph-name="three.tf" horiz-adv-x="570" 
d="M73 142q21 -54 74 -86t129 -32q49 0 88.5 13t67 36t42 56t14.5 72t-14.5 72t-42 56t-67 36t-88.5 13h-10l-16 23l196 265h-388v34h430v-34l-188 -256q46 -3 87 -17t71.5 -40.5t48.5 -64.5t18 -87q0 -53 -20.5 -93t-55 -66.5t-79.5 -39.5t-94 -13q-84 0 -146 36t-88 99z
" />
    <glyph glyph-name="four.tf" horiz-adv-x="570" 
d="M297 700h40l-271 -513h344v220h37v-220h90v-34h-90v-153h-37v153h-383v34z" />
    <glyph glyph-name="five.tf" horiz-adv-x="570" 
d="M285 -11q-82 0 -144 36.5t-88 100.5l31 17q20 -54 73 -86.5t128 -32.5q47 0 85 13t64.5 36t41 56t14.5 72t-14.5 72t-41 56t-64.5 36t-85 13h-201l23 322h391v-34h-359l-17 -253h163q48 0 92 -13.5t77 -40.5t53 -66.5t20 -91.5t-20 -91.5t-53 -66.5t-77 -40.5t-92 -13.5z
" />
    <glyph glyph-name="six.tf" horiz-adv-x="570" 
d="M282 -11q-53 0 -98.5 15.5t-79 45t-52.5 72.5t-19 98q0 82 43 138l252 342h42l-197 -269q50 19 109 19q52 0 97.5 -15.5t79 -45t52.5 -72.5t19 -97t-19 -97t-52.5 -73t-79 -45.5t-97.5 -15.5zM70 220q0 -44 14.5 -80t41.5 -61.5t66.5 -40t89.5 -14.5q49 0 88.5 14.5
t66.5 40t41.5 61.5t14.5 80q0 47 -16 83.5t-44.5 61t-67 37.5t-83.5 13t-84 -13t-67.5 -37.5t-44.5 -61t-16 -83.5z" />
    <glyph glyph-name="seven.tf" horiz-adv-x="570" 
d="M40 700h477v-34l-307 -666h-37l306 666h-439v34z" />
    <glyph glyph-name="eight.tf" horiz-adv-x="570" 
d="M285 -11q-56 0 -100.5 13.5t-76.5 38.5t-49 61t-17 81q0 66 37 112t104 67q-55 21 -87 64.5t-32 100.5q0 47 18.5 82t49 57.5t70.5 33.5t83 11q42 0 82 -11t71 -34t49.5 -57.5t18.5 -81.5q0 -57 -32 -100.5t-87 -64.5q67 -21 104 -67t37 -112q0 -45 -17 -81t-49 -61
t-77 -38.5t-100 -13.5zM285 343q-100 0 -153.5 -43.5t-53.5 -116.5q0 -72 53.5 -115.5t153.5 -43.5t153.5 43.5t53.5 115.5q0 73 -53.5 116.5t-153.5 43.5zM101 527q0 -33 12.5 -60.5t36.5 -47.5t58 -31t77 -11t77 11t58 31t36.5 47.5t12.5 60.5q0 67 -48 108t-136 41
t-136 -41t-48 -108z" />
    <glyph glyph-name="nine.tf" horiz-adv-x="570" 
d="M288 250q-53 0 -98 15.5t-78.5 45t-52.5 72t-19 97.5t19 98t52 72.5t78.5 45t98.5 15.5q52 0 97.5 -15.5t79.5 -45t53 -72.5t19 -98q0 -82 -43 -138l-252 -342h-42l197 269q-50 -19 -109 -19zM77 480q0 -48 16 -84t44 -61t67 -37.5t84 -12.5q46 0 84.5 12.5t67 37.5
t44.5 61t16 84q0 43 -14.5 79.5t-41.5 62t-66.5 40t-89.5 14.5t-89 -14.5t-66 -40t-41.5 -62t-14.5 -79.5z" />
    <glyph glyph-name="zero.dnom" horiz-adv-x="410" 
d="M37 200q0 39 9.5 77t30 68t52 48.5t76.5 18.5q44 0 76 -18.5t52.5 -48.5t30 -68t9.5 -77t-9.5 -77t-30 -68t-52 -48.5t-76.5 -18.5t-77 18t-52.5 48t-29.5 68t-9 78zM205 380q-38 0 -63.5 -16t-41.5 -41.5t-22.5 -58t-6.5 -64.5t6.5 -64.5t22.5 -58t41.5 -41.5t63.5 -16
t63.5 16t41.5 41.5t22.5 58t6.5 64.5t-6.5 64.5t-22.5 58t-41.5 41.5t-63.5 16z" />
    <glyph glyph-name="one.dnom" horiz-adv-x="246" 
d="M145 400h25v-400h-34v360l-110 -38l-9 29z" />
    <glyph glyph-name="two.dnom" horiz-adv-x="344" 
d="M37 27l181 171q48 45 48 96q0 36 -25.5 61t-70.5 25q-78 0 -102 -71l-29 16q14 40 48.5 63.5t83.5 23.5q60 0 94.5 -33.5t34.5 -84.5q0 -62 -58 -117l-154 -145h220v-32h-271v27z" />
    <glyph glyph-name="three.dnom" horiz-adv-x="346" 
d="M165 -12q-101 0 -133 77l28 16q25 -61 105 -61q51 0 77.5 26t26.5 68q0 40 -26.5 66.5t-77.5 26.5h-3l-17 25l103 136h-205v32h244v-32l-101 -133q55 -6 86 -39.5t31 -81.5q0 -55 -37 -90.5t-101 -35.5z" />
    <glyph glyph-name="four.dnom" horiz-adv-x="357" 
d="M171 400h35l-152 -284h184v113h34v-113h59v-31h-59v-85h-34v85h-220v31z" />
    <glyph glyph-name="five.dnom" horiz-adv-x="338" 
d="M161 -12q-97 0 -131 76l28 15q27 -59 103 -59q48 0 75 25.5t27 68.5t-27 69t-75 26h-114l15 191h219v-31h-189l-11 -128h81q30 0 55 -9.5t42.5 -26t27.5 -40t10 -51.5q0 -57 -36.5 -91.5t-99.5 -34.5z" />
    <glyph glyph-name="six.dnom" horiz-adv-x="335" 
d="M167 -12q-30 0 -55.5 10t-44.5 28t-29.5 42t-10.5 53q0 35 18 68l136 211h40l-102 -153q24 7 48 7q28 0 54 -9.5t45 -27t30.5 -42t11.5 -54.5t-11.5 -54.5t-30.5 -42t-45 -27t-54 -9.5zM167 222q-46 0 -76 -28t-30 -73t30 -73t76 -28q48 0 77.5 28t29.5 73t-29.5 73
t-77.5 28z" />
    <glyph glyph-name="seven.dnom" horiz-adv-x="323" 
d="M23 400h266v-27l-161 -373h-37l160 368h-228v32z" />
    <glyph glyph-name="eight.dnom" horiz-adv-x="348" 
d="M175 -12q-63 0 -101.5 31.5t-38.5 83.5q0 37 21 65t56 42q-64 28 -64 91q0 51 36.5 81t90.5 30q27 0 50 -8t40 -22t26.5 -35t9.5 -46q0 -63 -64 -91q35 -14 56 -42t21 -65q0 -52 -39 -83.5t-100 -31.5zM175 193q-48 0 -77 -23t-29 -65q0 -39 29 -62t77 -23t76.5 23
t28.5 62q0 40 -29.5 64t-75.5 24zM82 301q0 -34 27 -55t66 -21t65.5 21t26.5 55q0 37 -26 58.5t-66 21.5q-42 0 -67.5 -21.5t-25.5 -58.5z" />
    <glyph glyph-name="nine.dnom" horiz-adv-x="335" 
d="M168 146q-29 0 -55 9.5t-45 27t-30 42t-11 54.5t11 54.5t30 42t45 27t55 9.5q30 0 55.5 -10t44.5 -28t29.5 -42.5t10.5 -52.5q0 -35 -18 -68l-136 -211h-40l102 153q-24 -7 -48 -7zM168 380q-48 0 -77.5 -28t-29.5 -73t29.5 -73t77.5 -28q46 0 76 28t30 73t-30 73t-76 28
z" />
    <glyph glyph-name="zero.numr" horiz-adv-x="410" 
d="M37 500q0 39 9.5 77t30 68t52 48.5t76.5 18.5q44 0 76 -18.5t52.5 -48.5t30 -68t9.5 -77t-9.5 -77t-30 -68t-52 -48.5t-76.5 -18.5t-77 18t-52.5 48t-29.5 68t-9 78zM205 680q-38 0 -63.5 -16t-41.5 -41.5t-22.5 -58t-6.5 -64.5t6.5 -64.5t22.5 -58t41.5 -41.5t63.5 -16
t63.5 16t41.5 41.5t22.5 58t6.5 64.5t-6.5 64.5t-22.5 58t-41.5 41.5t-63.5 16z" />
    <glyph glyph-name="one.numr" horiz-adv-x="246" 
d="M145 700h25v-400h-34v360l-110 -38l-9 29z" />
    <glyph glyph-name="two.numr" horiz-adv-x="344" 
d="M37 327l181 171q48 45 48 96q0 36 -25.5 61t-70.5 25q-78 0 -102 -71l-29 16q14 40 48.5 63.5t83.5 23.5q60 0 94.5 -33.5t34.5 -84.5q0 -62 -58 -117l-154 -145h220v-32h-271v27z" />
    <glyph glyph-name="three.numr" horiz-adv-x="346" 
d="M165 288q-101 0 -133 77l28 16q25 -61 105 -61q51 0 77.5 26t26.5 68q0 40 -26.5 66.5t-77.5 26.5h-3l-17 25l103 136h-205v32h244v-32l-101 -133q55 -6 86 -39.5t31 -81.5q0 -55 -37 -90.5t-101 -35.5z" />
    <glyph glyph-name="four.numr" horiz-adv-x="357" 
d="M171 700h35l-152 -284h184v113h34v-113h59v-31h-59v-85h-34v85h-220v31z" />
    <glyph glyph-name="five.numr" horiz-adv-x="338" 
d="M161 288q-97 0 -131 76l28 15q27 -59 103 -59q48 0 75 25.5t27 68.5t-27 69t-75 26h-114l15 191h219v-31h-189l-11 -128h81q30 0 55 -9.5t42.5 -26t27.5 -40t10 -51.5q0 -57 -36.5 -91.5t-99.5 -34.5z" />
    <glyph glyph-name="six.numr" horiz-adv-x="335" 
d="M167 288q-30 0 -55.5 10t-44.5 28t-29.5 42t-10.5 53q0 35 18 68l136 211h40l-102 -153q24 7 48 7q28 0 54 -9.5t45 -27t30.5 -42t11.5 -54.5t-11.5 -54.5t-30.5 -42t-45 -27t-54 -9.5zM167 522q-46 0 -76 -28t-30 -73t30 -73t76 -28q48 0 77.5 28t29.5 73t-29.5 73
t-77.5 28z" />
    <glyph glyph-name="seven.numr" horiz-adv-x="323" 
d="M23 700h266v-27l-161 -373h-37l160 368h-228v32z" />
    <glyph glyph-name="eight.numr" horiz-adv-x="348" 
d="M175 288q-63 0 -101.5 31.5t-38.5 83.5q0 37 21 65t56 42q-64 28 -64 91q0 51 36.5 81t90.5 30q27 0 50 -8t40 -22t26.5 -35t9.5 -46q0 -63 -64 -91q35 -14 56 -42t21 -65q0 -52 -39 -83.5t-100 -31.5zM175 493q-48 0 -77 -23t-29 -65q0 -39 29 -62t77 -23t76.5 23
t28.5 62q0 40 -29.5 64t-75.5 24zM82 601q0 -34 27 -55t66 -21t65.5 21t26.5 55q0 37 -26 58.5t-66 21.5q-42 0 -67.5 -21.5t-25.5 -58.5z" />
    <glyph glyph-name="nine.numr" horiz-adv-x="335" 
d="M168 446q-29 0 -55 9.5t-45 27t-30 42t-11 54.5t11 54.5t30 42t45 27t55 9.5q30 0 55.5 -10t44.5 -28t29.5 -42.5t10.5 -52.5q0 -35 -18 -68l-136 -211h-40l102 153q-24 -7 -48 -7zM168 680q-48 0 -77.5 -28t-29.5 -73t29.5 -73t77.5 -28q46 0 76 28t30 73t-30 73t-76 28
z" />
    <glyph glyph-name="zero.sups" horiz-adv-x="410" 
d="M37 660q0 39 9.5 77t30 68t52 48.5t76.5 18.5q44 0 76 -18.5t52.5 -48.5t30 -68t9.5 -77t-9.5 -77t-30 -68t-52 -48.5t-76.5 -18.5t-77 18t-52.5 48t-29.5 68t-9 78zM205 840q-38 0 -63.5 -16t-41.5 -41.5t-22.5 -58t-6.5 -64.5t6.5 -64.5t22.5 -58t41.5 -41.5t63.5 -16
t63.5 16t41.5 41.5t22.5 58t6.5 64.5t-6.5 64.5t-22.5 58t-41.5 41.5t-63.5 16z" />
    <glyph glyph-name="one.sups" horiz-adv-x="246" 
d="M145 860h25v-400h-34v360l-110 -38l-9 29z" />
    <glyph glyph-name="two.sups" horiz-adv-x="344" 
d="M37 487l181 171q48 45 48 96q0 36 -25.5 61t-70.5 25q-78 0 -102 -71l-29 16q14 40 48.5 63.5t83.5 23.5q60 0 94.5 -33.5t34.5 -84.5q0 -62 -58 -117l-154 -145h220v-32h-271v27z" />
    <glyph glyph-name="three.sups" horiz-adv-x="346" 
d="M165 448q-101 0 -133 77l28 16q25 -61 105 -61q51 0 77.5 26t26.5 68q0 40 -26.5 66.5t-77.5 26.5h-3l-17 25l103 136h-205v32h244v-32l-101 -133q55 -6 86 -39.5t31 -81.5q0 -55 -37 -90.5t-101 -35.5z" />
    <glyph glyph-name="four.sups" horiz-adv-x="357" 
d="M171 860h35l-152 -284h184v113h34v-113h59v-31h-59v-85h-34v85h-220v31z" />
    <glyph glyph-name="five.sups" horiz-adv-x="338" 
d="M161 448q-97 0 -131 76l28 15q27 -59 103 -59q48 0 75 25.5t27 68.5t-27 69t-75 26h-114l15 191h219v-31h-189l-11 -128h81q30 0 55 -9.5t42.5 -26t27.5 -40t10 -51.5q0 -57 -36.5 -91.5t-99.5 -34.5z" />
    </font>
</defs>
</svg>
